ISO-10303-21;
HEADER;
FILE_DESCRIPTION(('ViewDefinition [CoordinationView]','RevitIdentifiers [ContentGUID: cbb0ae2e-6350-4225-8ca4-af668662c38d, VersionGUID: 7f6a77ba-ecda-47bc-8734-ec2d2fb835fb, NumberOfSaves: 26]','CoordinateReference [CoordinateBase: Shared Coordinates]'),'2;1');
FILE_NAME('01_03_018.ifc','2026-01-07T20:43:27+01:00',(''),(''),'ODA SDAI 24.6','Autodesk Revit 24.3.30.11 (ENU) - IFC 24.3.30.11','');
FILE_SCHEMA(('IFC4X3'));
ENDSEC;
DATA;
#1=IFCORGANIZATION($,'Autodesk Revit 2024 (ENU)',$,$,$);
#2=IFCAPPLICATION(#1,'2024','Autodesk Revit 2024 (ENU)','Revit');
#3=IFCCARTESIANPOINT((0.,0.,0.));
#4=IFCCARTESIANPOINT((0.,0.));
#5=IFCDIRECTION((1.,0.,0.));
#6=IFCDIRECTION((-1.,0.,0.));
#7=IFCDIRECTION((0.,1.,0.));
#8=IFCDIRECTION((0.,-1.,0.));
#9=IFCDIRECTION((0.,0.,1.));
#10=IFCDIRECTION((0.,0.,-1.));
#11=IFCDIRECTION((1.,0.));
#12=IFCDIRECTION((-1.,0.));
#13=IFCDIRECTION((0.,1.));
#14=IFCDIRECTION((0.,-1.));
#15=IFCPERSON($,'','h.helming',$,$,$,$,$);
#16=IFCORGANIZATION($,'Organization Name','Organization Description',$,$);
#17=IFCPERSONANDORGANIZATION(#15,#16,$);
#18=IFCOWNERHISTORY(#17,#2,$,.NOCHANGE.,$,$,$,1767814066);
#19=IFCSIUNIT(*,.LENGTHUNIT.,.MILLI.,.METRE.);
#20=IFCAXIS2PLACEMENT3D(#3,$,$);
#21=IFCDIRECTION((6.12303176911189E-17,1.));
#22=IFCGEOMETRICREPRESENTATIONCONTEXT($,'Model',3,0.01,#20,#21);
#23=IFCGEOMETRICREPRESENTATIONSUBCONTEXT('Axis','Model',*,*,*,*,#22,$,.GRAPH_VIEW.,$);
#24=IFCGEOMETRICREPRESENTATIONSUBCONTEXT('Body','Model',*,*,*,*,#22,$,.MODEL_VIEW.,$);
#25=IFCGEOMETRICREPRESENTATIONSUBCONTEXT('Box','Model',*,*,*,*,#22,$,.MODEL_VIEW.,$);
#26=IFCGEOMETRICREPRESENTATIONSUBCONTEXT('FootPrint','Model',*,*,*,*,#22,$,.MODEL_VIEW.,$);
#27=IFCPROJECT('3BiAukOr129OoahsPvdJnz',#18,'Project Number',$,$,'Project Name','Project Status',(#22),#466);
#28=IFCCLASSIFICATION('CSI (Construction Specifications Institute)','1998',$,'Uniformat','UniFormat Classification','https://www.csiresources.org/standards/uniformat',$);
#29=IFCAXIS2PLACEMENT3D(#3,$,$);
#30=IFCLOCALPLACEMENT(#41,#29);
#31=IFCPOSTALADDRESS($,$,$,$,('Enter address hereAddress Line 2'),$,'','Boston','','MA');
#32=IFCBUILDING('3BiAukOr129OoahsPvdJny',#18,'Building Name',$,$,#30,$,'Building Name',.ELEMENT.,$,$,#31);
#33=IFCAXIS2PLACEMENT3D(#3,$,$);
#34=IFCLOCALPLACEMENT(#30,#33);
#35=IFCBUILDINGSTOREY('2JF4e6axWHqu3u0C1FZlmi',#18,'L1',$,'Level:8mm Head',#34,$,'L1',.ELEMENT.,0.);
#36=IFCCARTESIANPOINT((0.,0.,3000.));
#37=IFCAXIS2PLACEMENT3D(#36,$,$);
#38=IFCLOCALPLACEMENT(#30,#37);
#39=IFCBUILDINGSTOREY('1ZGO8hrFCHqw0v0026FpFv',#18,'L2',$,'Level:8mm Head',#38,$,'L2',.ELEMENT.,3000.);
#40=IFCAXIS2PLACEMENT3D(#3,$,$);
#41=IFCLOCALPLACEMENT($,#40);
#42=IFCSITE('3BiAukOr129OoahsPvdJn$',#18,'Default',$,$,#41,$,$,.ELEMENT.,(42,21,31,401672),(-71,-3,-24,-345703),0.,$,$);
#43=IFCPROPERTYSINGLEVALUE('Reference',$,IFCIDENTIFIER('Project Information'),$);
#44=IFCPROPERTYSET('2mFJcO6I01h0OYRLOICO3c',#18,'Pset_SiteCommon',$,(#43));
#45=IFCPROPERTYSINGLEVALUE('IsExternal',$,IFCBOOLEAN(.F.),$);
#46=IFCPROPERTYSET('0O$B2PbAODr9jYnpcaZGJT',#18,'Pset_SpaceCommon',$,(#43,#45));
#47=IFCRELDEFINESBYPROPERTIES('2fDrcjst0HFayqQ3dY1cGQ',#18,$,$,(#42),#44);
#48=IFCRELDEFINESBYPROPERTIES('1lYkP70lXSGXnZeJnLC8MY',#18,$,$,(#42),#46);
#55=IFCAXIS2PLACEMENT3D(#3,$,$);
#56=IFCLOCALPLACEMENT(#34,#55);
#57=IFCCARTESIANPOINT((-1672.72727272728,-3218.18181818182));
#58=IFCCARTESIANPOINT((2127.27272727272,-3218.18181818182));
#59=IFCCARTESIANPOINT((2127.27272727273,181.818181818183));
#60=IFCCARTESIANPOINT((527.272727272726,181.818181818183));
#61=IFCCARTESIANPOINT((-472.727272727271,181.818181818183));
#62=IFCCARTESIANPOINT((-672.72727272727,181.818181818183));
#63=IFCCARTESIANPOINT((-672.727272727271,381.818181818183));
#64=IFCCARTESIANPOINT((-472.727272727271,381.818181818183));
#65=IFCCARTESIANPOINT((427.272727272726,381.818181818182));
#66=IFCCARTESIANPOINT((427.272727272729,2281.81818181818));
#67=IFCCARTESIANPOINT((-1672.72727272727,2281.81818181818));
#68=IFCPOLYLINE((#57,#58,#59,#60,#61,#62,#63,#64,#65,#66,#67,#57));
#69=IFCCARTESIANPOINT((-672.727272727273,-1668.18181818182));
#70=IFCCARTESIANPOINT((-672.727272727273,-1368.18181818182));
#71=IFCCARTESIANPOINT((-372.727272727273,-1368.18181818182));
#72=IFCCARTESIANPOINT((-372.727272727272,-1668.18181818182));
#73=IFCPOLYLINE((#69,#70,#71,#72,#69));
#74=IFCARBITRARYPROFILEDEFWITHVOIDS(.AREA.,$,#68,(#73));
#75=IFCCARTESIANPOINT((4781.81818181819,1872.72727272726,0.));
#76=IFCAXIS2PLACEMENT3D(#75,#9,#7);
#77=IFCEXTRUDEDAREASOLID(#74,#76,#9,3000.);
#78=IFCSIUNIT(*,.PLANEANGLEUNIT.,$,.RADIAN.);
#79=IFCDIMENSIONALEXPONENTS(0,0,0,0,0,0,0);
#80=IFCMEASUREWITHUNIT(IFCPLANEANGLEMEASURE(0.0174532925199433),#78);
#81=IFCCONVERSIONBASEDUNIT(#79,.PLANEANGLEUNIT.,'DEGREE',#80);
#82=IFCSIUNIT(*,.AREAUNIT.,$,.SQUARE_METRE.);
#83=IFCSHAPEREPRESENTATION(#24,'Body','SweptSolid',(#77));
#84=IFCPRODUCTDEFINITIONSHAPE($,$,(#83));
#85=IFCSPACE('3N9Z0YGDv8JuEhl24cnvVA',#18,'132',$,$,#56,#84,'room',.ELEMENT.,.NOTDEFINED.,$);
#86=IFCSPACETYPE('3N9Z0YGDv8JuEhj24cnvVA',#18,'room 132:1603865',$,$,$,$,'1603865',$,.NOTDEFINED.,$);
#87=IFCPROPERTYSINGLEVALUE('Reference',$,IFCIDENTIFIER('room 132'),$);
#88=IFCPROPERTYSET('00b1HihGc2gRqr1IR9hS$Q',#18,'Pset_SpaceCommon',$,(#45,#87));
#89=IFCPROPERTYSET('3$A57RpYs0rKmRPonmObYM',#18,'Pset_SpaceHeaterTypeCommon',$,(#87));
#90=IFCRELDEFINESBYPROPERTIES('1GXu_m0WhgKFZbVJ4u$mFl',#18,$,$,(#85),#88);
#91=IFCRELDEFINESBYPROPERTIES('3XHYxggGAD_MXFpQySi87C',#18,$,$,(#85),#89);
#92=IFCAXIS2PLACEMENT3D(#3,$,$);
#93=IFCLOCALPLACEMENT(#34,#92);
#94=IFCCARTESIANPOINT((366.666666666667,-316.666666666666));
#95=IFCAXIS2PLACEMENT2D(#94,#11);
#96=IFCRECTANGLEPROFILEDEF(.AREA.,$,#95,4200.,3500.);
#97=IFCCARTESIANPOINT((2666.66666666667,3933.33333333333,0.));
#98=IFCAXIS2PLACEMENT3D(#97,#9,#6);
#99=IFCEXTRUDEDAREASOLID(#96,#98,#9,3000.);
#100=IFCSHAPEREPRESENTATION(#24,'Body','SweptSolid',(#99));
#101=IFCPRODUCTDEFINITIONSHAPE($,$,(#100));
#102=IFCSPACE('3N9Z0YGDv8JuEhl24cnvVF',#18,'133',$,$,#93,#101,'room',.ELEMENT.,.NOTDEFINED.,$);
#103=IFCSPACETYPE('3N9Z0YGDv8JuEhj24cnvVF',#18,'room 133:1603868',$,$,$,$,'1603868',$,.NOTDEFINED.,$);
#104=IFCPROPERTYSINGLEVALUE('Reference',$,IFCIDENTIFIER('room 133'),$);
#105=IFCPROPERTYSET('1AXEovbNP6_NMaUbGZ4VvT',#18,'Pset_SpaceCommon',$,(#45,#104));
#106=IFCPROPERTYSET('3gIGEwALs9X9zLqoJ185jR',#18,'Pset_SpaceHeaterTypeCommon',$,(#104));
#107=IFCRELDEFINESBYPROPERTIES('0Q05iV680RIZhsA4uX7dBN',#18,$,$,(#102),#105);
#108=IFCRELDEFINESBYPROPERTIES('39I1x11smaQRiI1yX7Sz_c',#18,$,$,(#102),#106);
#109=IFCAXIS2PLACEMENT3D(#3,$,$);
#110=IFCLOCALPLACEMENT(#34,#109);
#111=IFCCARTESIANPOINT((-2.27373675443232E-13,0.));
#112=IFCAXIS2PLACEMENT2D(#111,#11);
#113=IFCRECTANGLEPROFILEDEF(.AREA.,$,#112,2100.,2100.);
#114=IFCCARTESIANPOINT((1250.,1250.,0.));
#115=IFCAXIS2PLACEMENT3D(#114,$,$);
#116=IFCEXTRUDEDAREASOLID(#113,#115,#9,3000.);
#117=IFCSHAPEREPRESENTATION(#24,'Body','SweptSolid',(#116));
#118=IFCPRODUCTDEFINITIONSHAPE($,$,(#117));
#119=IFCSPACE('3N9Z0YGDv8JuEhl24cnvVC',#18,'134',$,$,#110,#118,'room',.ELEMENT.,.NOTDEFINED.,$);
#120=IFCSPACETYPE('3N9Z0YGDv8JuEhj24cnvVC',#18,'room 134:1603871',$,$,$,$,'1603871',$,.NOTDEFINED.,$);
#121=IFCPROPERTYSINGLEVALUE('Reference',$,IFCIDENTIFIER('room 134'),$);
#122=IFCPROPERTYSET('1bxofKpjE$oITamsTchxus',#18,'Pset_SpaceCommon',$,(#45,#121));
#123=IFCPROPERTYSET('2uJBGTyoUW8CK9e8txTBuv',#18,'Pset_SpaceHeaterTypeCommon',$,(#121));
#124=IFCRELDEFINESBYPROPERTIES('2ZJhoVLV26smh_yRsRvIte',#18,$,$,(#119),#122);
#125=IFCRELDEFINESBYPROPERTIES('0ATmi_snyQy8KKcrPkA8bm',#18,$,$,(#119),#123);
#126=IFCCARTESIANPOINT((8200.,100.,0.));
#127=IFCAXIS2PLACEMENT3D(#126,#9,#6);
#128=IFCLOCALPLACEMENT(#34,#127);
#129=IFCCARTESIANPOINT((8200.,0.));
#130=IFCPOLYLINE((#4,#129));
#131=IFCSHAPEREPRESENTATION(#23,'Axis','Curve2D',(#130));
#132=IFCCARTESIANPOINT((4100.,1.4210854715202E-14));
#133=IFCAXIS2PLACEMENT2D(#132,#12);
#134=IFCRECTANGLEPROFILEDEF(.AREA.,$,#133,8200.,200.);
#135=IFCAXIS2PLACEMENT3D(#3,$,$);
#136=IFCEXTRUDEDAREASOLID(#134,#135,#9,3000.);
#137=IFCCOLOURRGB($,0.752941176470588,0.752941176470588,0.752941176470588);
#138=IFCSURFACESTYLERENDERING(#137,0.,$,$,$,$,IFCNORMALISEDRATIOMEASURE(0.5),IFCSPECULAREXPONENT(10.),.NOTDEFINED.);
#139=IFCSURFACESTYLE('Default Wall',.BOTH.,(#138));
#140=IFCSTYLEDITEM(#136,(#139),$);
#141=IFCSHAPEREPRESENTATION(#24,'Body','SweptSolid',(#136));
#142=IFCPRODUCTDEFINITIONSHAPE($,$,(#131,#141));
#143=IFCWALL('3cmsjRvPb4wf9t15K203XR',#18,'Basic Wall:Generic - 200mm:1602421',$,'Basic Wall:Generic - 200mm',#128,#142,'1602421',.NOTDEFINED.);
#144=IFCMATERIAL('Default Wall',$,'Miscellaneous');
#145=IFCSTYLEDITEM($,(#139),$);
#146=IFCSTYLEDREPRESENTATION(#22,'Style','Material',(#145));
#147=IFCMATERIALDEFINITIONREPRESENTATION($,$,(#146),#144);
#148=IFCMATERIALLAYER(#144,200.,$,'Layer',$,'Miscellaneous',$);
#149=IFCMATERIALLAYERSET((#148),'Basic Wall:Generic - 200mm',$);
#150=IFCWALLTYPE('1xZrMVYp52mhf4uMzw11Hk',#18,'Basic Wall:Generic - 200mm',$,$,(#164),$,'441451',$,.STANDARD.);
#151=IFCPROPERTYSINGLEVALUE('Reference',$,IFCIDENTIFIER('Generic - 200mm'),$);
#152=IFCPROPERTYSET('2n5k7t7fOU81M1LShUbZ9e',#18,'Pset_EnvironmentalImpactIndicators',$,(#151));
#153=IFCPROPERTYSINGLEVALUE('Reference',$,IFCLABEL('Generic - 200mm'),$);
#154=IFCPROPERTYSET('1Zg$z9wfp_yn1qmVuaVJr4',#18,'Pset_ReinforcementBarPitchOfWall',$,(#153));
#155=IFCPROPERTYSINGLEVALUE('IsExternal',$,IFCBOOLEAN(.T.),$);
#156=IFCPROPERTYSINGLEVALUE('LoadBearing',$,IFCBOOLEAN(.F.),$);
#157=IFCPROPERTYSINGLEVALUE('ExtendToStructure',$,IFCBOOLEAN(.F.),$);
#158=IFCPROPERTYSET('0PuWgGrdUbxWiNNlrVKJ_B',#18,'Pset_WallCommon',$,(#151,#155,#156,#157));
#159=IFCRELDEFINESBYPROPERTIES('3l_fEKNAUVqBGitfyI_2CQ',#18,$,$,(#143),#152);
#160=IFCRELDEFINESBYPROPERTIES('2qxTWOqTUzWtxU0KW48fJ7',#18,$,$,(#143),#154);
#161=IFCRELDEFINESBYPROPERTIES('1rvpbG_zTte5EtDbtEQl9a',#18,$,$,(#143),#158);
#162=IFCCLASSIFICATIONREFERENCE('https://www.csiresources.org/standards/uniformat','B2010','Exterior Walls',#28,'',$);
#163=IFCPROPERTYSINGLEVALUE('Description',$,IFCTEXT('Generic Wall (Material By Category), 200mm thick'),$);
#164=IFCPROPERTYSET('2L7lvTstnIeeydfwzfZZLR',#18,'Pset_ReinforcementBarPitchOfWall',$,(#163));
#165=IFCCARTESIANPOINT((4600.,6100.,0.));
#166=IFCAXIS2PLACEMENT3D(#165,#9,#6);
#167=IFCLOCALPLACEMENT(#34,#166);
#168=IFCCARTESIANPOINT((4600.,0.));
#169=IFCPOLYLINE((#4,#168));
#170=IFCSHAPEREPRESENTATION(#23,'Axis','Curve2D',(#169));
#171=IFCCARTESIANPOINT((2300.,2.48689957516035E-13));
#172=IFCAXIS2PLACEMENT2D(#171,#12);
#173=IFCRECTANGLEPROFILEDEF(.AREA.,$,#172,4600.,200.);
#174=IFCAXIS2PLACEMENT3D(#3,$,$);
#175=IFCEXTRUDEDAREASOLID(#173,#174,#9,3000.);
#176=IFCSTYLEDITEM(#175,(#139),$);
#177=IFCSHAPEREPRESENTATION(#24,'Body','SweptSolid',(#175));
#178=IFCPRODUCTDEFINITIONSHAPE($,$,(#170,#177));
#179=IFCWALL('3cmsjRvPb4wf9t15K203_D',#18,'Basic Wall:Generic - 200mm:1602723',$,'Basic Wall:Generic - 200mm',#167,#178,'1602723',.NOTDEFINED.);
#180=IFCPROPERTYSET('1daWYlIRM0r0FyhKSlSET0',#18,'Pset_EnvironmentalImpactIndicators',$,(#151));
#181=IFCPROPERTYSINGLEVALUE('Reference',$,IFCLABEL('Generic - 200mm'),$);
#182=IFCPROPERTYSET('3ItXNEtxymo_u9isFNHJXK',#18,'Pset_ReinforcementBarPitchOfWall',$,(#181));
#183=IFCPROPERTYSET('0DelT2wCzoKCuw_UtDp7c5',#18,'Pset_WallCommon',$,(#151,#155,#156,#157));
#184=IFCRELDEFINESBYPROPERTIES('1Xgkw0864iyy_s$u3chNdN',#18,$,$,(#179),#180);
#185=IFCRELDEFINESBYPROPERTIES('0pdyOdfPqEtAbC$BJmgX8y',#18,$,$,(#179),#182);
#186=IFCRELDEFINESBYPROPERTIES('1YrYn3PfSifvs8PILrI4$a',#18,$,$,(#179),#183);
#187=IFCCARTESIANPOINT((100.,6000.,0.));
#188=IFCAXIS2PLACEMENT3D(#187,#9,#8);
#189=IFCLOCALPLACEMENT(#34,#188);
#190=IFCCARTESIANPOINT((5800.,-0.));
#191=IFCPOLYLINE((#4,#190));
#192=IFCSHAPEREPRESENTATION(#23,'Axis','Curve2D',(#191));
#193=IFCCARTESIANPOINT((2900.,2.1316282072803E-14));
#194=IFCAXIS2PLACEMENT2D(#193,#12);
#195=IFCRECTANGLEPROFILEDEF(.AREA.,$,#194,5800.,200.);
#196=IFCAXIS2PLACEMENT3D(#3,$,$);
#197=IFCEXTRUDEDAREASOLID(#195,#196,#9,3000.);
#198=IFCSTYLEDITEM(#197,(#139),$);
#199=IFCSHAPEREPRESENTATION(#24,'Body','SweptSolid',(#197));
#200=IFCPRODUCTDEFINITIONSHAPE($,$,(#192,#199));
#201=IFCWALL('3cmsjRvPb4wf9t15K203$P',#18,'Basic Wall:Generic - 200mm:1602807',$,'Basic Wall:Generic - 200mm',#189,#200,'1602807',.NOTDEFINED.);
#202=IFCPROPERTYSET('1QakD2m6vXifU0FyN_4IEX',#18,'Pset_EnvironmentalImpactIndicators',$,(#151));
#203=IFCPROPERTYSINGLEVALUE('Reference',$,IFCLABEL('Generic - 200mm'),$);
#204=IFCPROPERTYSET('3jifUz2uPf9c19G773rT5f',#18,'Pset_ReinforcementBarPitchOfWall',$,(#203));
#205=IFCPROPERTYSET('2zW4Rc5AXR6PmPvlVTCC3T',#18,'Pset_WallCommon',$,(#151,#155,#156,#157));
#206=IFCRELDEFINESBYPROPERTIES('2EitFPbohB1gwFTSwzYyW7',#18,$,$,(#201),#202);
#207=IFCRELDEFINESBYPROPERTIES('1uNEORk1PSqeeJTyRI3Fdh',#18,$,$,(#201),#204);
#208=IFCRELDEFINESBYPROPERTIES('3Fva5$VeQJCdp87HQmvngi',#18,$,$,(#201),#205);
#209=IFCCARTESIANPOINT((200.,2400.,0.));
#210=IFCAXIS2PLACEMENT3D(#209,$,$);
#211=IFCLOCALPLACEMENT(#34,#210);
#212=IFCCARTESIANPOINT((4200.,0.));
#213=IFCPOLYLINE((#4,#212));
#214=IFCSHAPEREPRESENTATION(#23,'Axis','Curve2D',(#213));
#215=IFCCARTESIANPOINT((2100.,7.8159700933611E-14));
#216=IFCAXIS2PLACEMENT2D(#215,#12);
#217=IFCRECTANGLEPROFILEDEF(.AREA.,$,#216,4200.,200.);
#218=IFCAXIS2PLACEMENT3D(#3,$,$);
#219=IFCEXTRUDEDAREASOLID(#217,#218,#9,3000.);
#220=IFCSTYLEDITEM(#219,(#139),$);
#221=IFCSHAPEREPRESENTATION(#24,'Body','SweptSolid',(#219));
#222=IFCPRODUCTDEFINITIONSHAPE($,$,(#214,#221));
#223=IFCWALL('3cmsjRvPb4wf9t15K203w_',#18,'Basic Wall:Generic - 200mm:1602960',$,'Basic Wall:Generic - 200mm',#211,#222,'1602960',.NOTDEFINED.);
#224=IFCPROPERTYSET('1v3Lhm8b1gv0W8J$OZK5ym',#18,'Pset_EnvironmentalImpactIndicators',$,(#151));
#225=IFCPROPERTYSINGLEVALUE('Reference',$,IFCLABEL('Generic - 200mm'),$);
#226=IFCPROPERTYSET('2PkFHUnGOdC90hi0BscHG0',#18,'Pset_ReinforcementBarPitchOfWall',$,(#225));
#227=IFCPROPERTYSET('0fFmLJYbP09D12F9qFJNsq',#18,'Pset_WallCommon',$,(#151,#155,#156,#157));
#228=IFCRELDEFINESBYPROPERTIES('2zfdbipIGKqpXapV0qKoRq',#18,$,$,(#223),#224);
#229=IFCRELDEFINESBYPROPERTIES('0zrk4Oy3L73KLay6XROItp',#18,$,$,(#223),#226);
#230=IFCRELDEFINESBYPROPERTIES('1Jr1q4HII$sT$hAH6i4Ru_',#18,$,$,(#223),#227);
#231=IFCCARTESIANPOINT((4500.,6000.,0.));
#232=IFCAXIS2PLACEMENT3D(#231,#9,#8);
#233=IFCLOCALPLACEMENT(#34,#232);
#234=IFCCARTESIANPOINT((2000.,-0.));
#235=IFCPOLYLINE((#4,#234));
#236=IFCSHAPEREPRESENTATION(#23,'Axis','Curve2D',(#235));
#237=IFCCARTESIANPOINT((1000.,-2.1316282072803E-14));
#238=IFCAXIS2PLACEMENT2D(#237,#12);
#239=IFCRECTANGLEPROFILEDEF(.AREA.,$,#238,2000.,200.);
#240=IFCAXIS2PLACEMENT3D(#3,$,$);
#241=IFCEXTRUDEDAREASOLID(#239,#240,#9,3000.);
#242=IFCSTYLEDITEM(#241,(#139),$);
#243=IFCSHAPEREPRESENTATION(#24,'Body','SweptSolid',(#241));
#244=IFCPRODUCTDEFINITIONSHAPE($,$,(#236,#243));
#245=IFCWALL('3cmsjRvPb4wf9t15K203xV',#18,'Basic Wall:Generic - 200mm:1603057',$,'Basic Wall:Generic - 200mm',#233,#244,'1603057',.NOTDEFINED.);
#246=IFCPROPERTYSET('3dgYOSqzGZJHEBgTbUoXF9',#18,'Pset_EnvironmentalImpactIndicators',$,(#151));
#247=IFCPROPERTYSINGLEVALUE('Reference',$,IFCLABEL('Generic - 200mm'),$);
#248=IFCPROPERTYSET('17BNS6qgrE3fjtMiS7m3RE',#18,'Pset_ReinforcementBarPitchOfWall',$,(#247));
#249=IFCPROPERTYSET('0ARZu$2JSGYfylnJPnJMf_',#18,'Pset_WallCommon',$,(#151,#155,#156,#157));
#250=IFCRELDEFINESBYPROPERTIES('2BAf49864z$NPcP6SxAJlc',#18,$,$,(#245),#246);
#251=IFCRELDEFINESBYPROPERTIES('13sSsJqCbOCNoMtpOgH9V3',#18,$,$,(#245),#248);
#252=IFCRELDEFINESBYPROPERTIES('38rFwJAD8yQlQoqydB0oy9',#18,$,$,(#245),#249);
#253=IFCCARTESIANPOINT((4600.,4100.,0.));
#254=IFCAXIS2PLACEMENT3D(#253,$,$);
#255=IFCLOCALPLACEMENT(#34,#254);
#256=IFCCARTESIANPOINT((3600.,0.));
#257=IFCPOLYLINE((#4,#256));
#258=IFCSHAPEREPRESENTATION(#23,'Axis','Curve2D',(#257));
#259=IFCCARTESIANPOINT((1800.00000000001,7.105427357601E-14));
#260=IFCAXIS2PLACEMENT2D(#259,#12);
#261=IFCRECTANGLEPROFILEDEF(.AREA.,$,#260,3600.00000000001,200.);
#262=IFCAXIS2PLACEMENT3D(#3,$,$);
#263=IFCEXTRUDEDAREASOLID(#261,#262,#9,3000.);
#264=IFCSTYLEDITEM(#263,(#139),$);
#265=IFCSHAPEREPRESENTATION(#24,'Body','SweptSolid',(#263));
#266=IFCPRODUCTDEFINITIONSHAPE($,$,(#258,#265));
#267=IFCWALL('3cmsjRvPb4wf9t15K203qB',#18,'Basic Wall:Generic - 200mm:1603109',$,'Basic Wall:Generic - 200mm',#255,#266,'1603109',.NOTDEFINED.);
#268=IFCPROPERTYSET('2XQ4S19dOKdcLGbL0MN3rF',#18,'Pset_EnvironmentalImpactIndicators',$,(#151));
#269=IFCPROPERTYSINGLEVALUE('Reference',$,IFCLABEL('Generic - 200mm'),$);
#270=IFCPROPERTYSET('3HFhm2RnYvPJ1hx5GbzjGz',#18,'Pset_ReinforcementBarPitchOfWall',$,(#269));
#271=IFCPROPERTYSET('3x1rvqAgMTZ8pLaVGZrYFb',#18,'Pset_WallCommon',$,(#151,#155,#156,#157));
#272=IFCRELDEFINESBYPROPERTIES('1w3JAcPQpdPkZ7PT3bdE1m',#18,$,$,(#267),#268);
#273=IFCRELDEFINESBYPROPERTIES('2edzlSRr39x0Hus$bL2ZAJ',#18,$,$,(#267),#270);
#274=IFCRELDEFINESBYPROPERTIES('1iFO4Nf9rvzSp5iaS_hZD$',#18,$,$,(#267),#271);
#275=IFCCARTESIANPOINT((4500.,1400.,0.));
#276=IFCAXIS2PLACEMENT3D(#275,#9,#7);
#277=IFCLOCALPLACEMENT(#34,#276);
#278=IFCCARTESIANPOINT((2600.,0.));
#279=IFCPOLYLINE((#4,#278));
#280=IFCSHAPEREPRESENTATION(#23,'Axis','Curve2D',(#279));
#281=IFCCARTESIANPOINT((1300.,1.98951966012828E-13));
#282=IFCAXIS2PLACEMENT2D(#281,#12);
#283=IFCRECTANGLEPROFILEDEF(.AREA.,$,#282,2600.,200.);
#284=IFCAXIS2PLACEMENT3D(#3,$,$);
#285=IFCEXTRUDEDAREASOLID(#283,#284,#9,3000.);
#286=IFCSTYLEDITEM(#285,(#139),$);
#287=IFCSHAPEREPRESENTATION(#24,'Body','SweptSolid',(#285));
#288=IFCPRODUCTDEFINITIONSHAPE($,$,(#280,#287));
#289=IFCWALL('3cmsjRvPb4wf9t15K203sD',#18,'Basic Wall:Generic - 200mm:1603235',$,'Basic Wall:Generic - 200mm',#277,#288,'1603235',.NOTDEFINED.);
#290=IFCPROPERTYSET('3HvA17wpJ5h4Sb$V1rk2XO',#18,'Pset_EnvironmentalImpactIndicators',$,(#151));
#291=IFCPROPERTYSINGLEVALUE('Reference',$,IFCLABEL('Generic - 200mm'),$);
#292=IFCPROPERTYSET('2b$Xp7qsOx1GHvpg89XvZH',#18,'Pset_ReinforcementBarPitchOfWall',$,(#291));
#293=IFCPROPERTYSET('3w9tUCokCq9r0wg84R6BUL',#18,'Pset_WallCommon',$,(#151,#155,#156,#157));
#294=IFCRELDEFINESBYPROPERTIES('1xgUZTxfigzsh_JfnWK7T0',#18,$,$,(#289),#290);
#295=IFCRELDEFINESBYPROPERTIES('0b79DAHv0_$nw30qyIlckY',#18,$,$,(#289),#292);
#296=IFCRELDEFINESBYPROPERTIES('02Q_3vOVMmVoyxBRyRYPMj',#18,$,$,(#289),#293);
#297=IFCCARTESIANPOINT((2400.,2300.,0.));
#298=IFCAXIS2PLACEMENT3D(#297,#9,#8);
#299=IFCLOCALPLACEMENT(#34,#298);
#300=IFCCARTESIANPOINT((2100.,-0.));
#301=IFCPOLYLINE((#4,#300));
#302=IFCSHAPEREPRESENTATION(#23,'Axis','Curve2D',(#301));
#303=IFCCARTESIANPOINT((1050.,-1.84741111297626E-13));
#304=IFCAXIS2PLACEMENT2D(#303,#12);
#305=IFCRECTANGLEPROFILEDEF(.AREA.,$,#304,2100.,200.);
#306=IFCAXIS2PLACEMENT3D(#3,$,$);
#307=IFCEXTRUDEDAREASOLID(#305,#306,#9,3000.);
#308=IFCSTYLEDITEM(#307,(#139),$);
#309=IFCSHAPEREPRESENTATION(#24,'Body','SweptSolid',(#307));
#310=IFCPRODUCTDEFINITIONSHAPE($,$,(#302,#309));
#311=IFCWALL('3cmsjRvPb4wf9t15K203Cj',#18,'Basic Wall:Generic - 200mm:1603587',$,'Basic Wall:Generic - 200mm',#299,#310,'1603587',.NOTDEFINED.);
#312=IFCPROPERTYSET('1zGz92aQ7tD58STFPDHzFc',#18,'Pset_EnvironmentalImpactIndicators',$,(#151));
#313=IFCPROPERTYSINGLEVALUE('Reference',$,IFCLABEL('Generic - 200mm'),$);
#314=IFCPROPERTYSET('0N1$nfcPMv2RiUvJJvwaJa',#18,'Pset_ReinforcementBarPitchOfWall',$,(#313));
#315=IFCPROPERTYSET('1RVKWP6dHf0uxA0ihFE7VD',#18,'Pset_WallCommon',$,(#151,#155,#156,#157));
#316=IFCRELDEFINESBYPROPERTIES('2yKH3YaOSS7DhmCQzCEmEs',#18,$,$,(#311),#312);
#317=IFCRELDEFINESBYPROPERTIES('3yRQZI5_dX_6GAuxiSzILO',#18,$,$,(#311),#314);
#318=IFCRELDEFINESBYPROPERTIES('2OWGsMOXKYipwpaGDHHA29',#18,$,$,(#311),#315);
#319=IFCCARTESIANPOINT((8100.,4000.,0.));
#320=IFCAXIS2PLACEMENT3D(#319,#9,#8);
#321=IFCLOCALPLACEMENT(#34,#320);
#322=IFCCARTESIANPOINT((3800.,-0.));
#323=IFCPOLYLINE((#4,#322));
#324=IFCSHAPEREPRESENTATION(#23,'Axis','Curve2D',(#323));
#325=IFCCARTESIANPOINT((1900.,-3.12638803734444E-13));
#326=IFCAXIS2PLACEMENT2D(#325,#12);
#327=IFCRECTANGLEPROFILEDEF(.AREA.,$,#326,3800.,200.);
#328=IFCAXIS2PLACEMENT3D(#3,$,$);
#329=IFCEXTRUDEDAREASOLID(#327,#328,#9,3000.);
#330=IFCSTYLEDITEM(#329,(#139),$);
#331=IFCSHAPEREPRESENTATION(#24,'Body','SweptSolid',(#329));
#332=IFCPRODUCTDEFINITIONSHAPE($,$,(#324,#331));
#333=IFCWALL('3cmsjRvPb4wf9t15K203Ef',#18,'Basic Wall:Generic - 200mm:1603719',$,'Basic Wall:Generic - 200mm',#321,#332,'1603719',.NOTDEFINED.);
#334=IFCPROPERTYSET('0vPqToQ2la$5wCk6Tj3TuS',#18,'Pset_EnvironmentalImpactIndicators',$,(#151));
#335=IFCPROPERTYSINGLEVALUE('Reference',$,IFCLABEL('Generic - 200mm'),$);
#336=IFCPROPERTYSET('2R$dqHDOzC_uZuyVrsTKe6',#18,'Pset_ReinforcementBarPitchOfWall',$,(#335));
#337=IFCPROPERTYSET('3gxbxkq9sxvH3ArcYQ5vVQ',#18,'Pset_WallCommon',$,(#151,#155,#156,#157));
#338=IFCRELDEFINESBYPROPERTIES('02wWbFpSLzmpkgbJMTgdqQ',#18,$,$,(#333),#334);
#339=IFCRELDEFINESBYPROPERTIES('2ISczXdp9w1mdmCmJ4xmpY',#18,$,$,(#333),#336);
#340=IFCRELDEFINESBYPROPERTIES('38V5R4zEqmTps2NrTwoAGN',#18,$,$,(#333),#337);
#341=IFCAXIS2PLACEMENT3D(#3,$,$);
#343=IFCCARTESIANPOINT((0.,0.));
#344=IFCAXIS2PLACEMENT2D(#343,#11);
#345=IFCRECTANGLEPROFILEDEF(.AREA.,'300 x 300 mm',#344,300.,300.);
#346=IFCAXIS2PLACEMENT3D(#3,#9,#6);
#347=IFCEXTRUDEDAREASOLID(#345,#346,#9,3000.);
#348=IFCCOLOURRGB($,0.,0.,0.);
#349=IFCSURFACESTYLERENDERING(#348,0.,$,$,$,$,IFCNORMALISEDRATIOMEASURE(0.5),IFCSPECULAREXPONENT(64.),.NOTDEFINED.);
#350=IFCSURFACESTYLE('Concrete, Cast-in-Place gray',.BOTH.,(#349));
#351=IFCSTYLEDITEM(#347,(#350),$);
#352=IFCSHAPEREPRESENTATION(#24,'Body','SweptSolid',(#347));
#353=IFCAXIS2PLACEMENT3D(#3,$,$);
#354=IFCREPRESENTATIONMAP(#353,#352);
#355=IFCCOLUMNTYPE('1$QdUwxDf7l8Sqx2qle4zF',#18,'M_Concrete-Rectangular-Column:300 x 300 mm',$,$,(#382),(#354),'1599231',$,.COLUMN.);
#356=IFCMATERIAL('Concrete, Cast-in-Place gray',$,'Concrete');
#357=IFCCOLOURRGB($,1.,1.,1.);
#358=IFCFILLAREASTYLE('<Solid fill>',(#357),$);
#359=IFCSTYLEDITEM($,(#350,#358),$);
#360=IFCSTYLEDREPRESENTATION(#22,'Style','Material and Cut Pattern',(#359));
#361=IFCMATERIALDEFINITIONREPRESENTATION($,$,(#360),#356);
#362=IFCMATERIALPROFILE('300 x 300 mm',$,#356,#345,$,$);
#363=IFCMATERIALPROFILESET('300 x 300 mm',$,(#362),$);
#364=IFCCARTESIANTRANSFORMATIONOPERATOR3D($,$,#3,1.,$);
#365=IFCMAPPEDITEM(#354,#364);
#366=IFCSHAPEREPRESENTATION(#24,'Body','MappedRepresentation',(#365));
#367=IFCPRODUCTDEFINITIONSHAPE($,$,(#366));
#368=IFCCARTESIANPOINT((6300.,1350.,0.));
#369=IFCAXIS2PLACEMENT3D(#368,$,$);
#370=IFCLOCALPLACEMENT(#34,#369);
#371=IFCCOLUMN('1$QdUwxDf7l8Sqx2qle4mv',#18,'M_Concrete-Rectangular-Column:300 x 300 mm:1604034',$,'M_Concrete-Rectangular-Column:300 x 300 mm',#370,#367,'1604034',.COLUMN.);
#372=IFCMATERIALPROFILESETUSAGE(#363,$,$);
#373=IFCPROPERTYSINGLEVALUE('Reference',$,IFCIDENTIFIER('300 x 300 mm'),$);
#374=IFCPROPERTYSINGLEVALUE('LoadBearing',$,IFCBOOLEAN(.T.),$);
#375=IFCPROPERTYSET('1LAm55i1i2YpHivijskOGL',#18,'Pset_ColumnCommon',$,(#45,#373,#374));
#376=IFCPROPERTYSET('3DnW4_xpHtyTT82TKHI7pz',#18,'Pset_EnvironmentalImpactIndicators',$,(#373));
#377=IFCPROPERTYSINGLEVALUE('Reference',$,IFCLABEL('300 x 300 mm'),$);
#378=IFCPROPERTYSET('1tKemlPJPzJ_oYORFxvWVP',#18,'Pset_ReinforcementBarPitchOfColumn',$,(#377));
#379=IFCRELDEFINESBYPROPERTIES('17lxca4mNH_gXBORQd7OK$',#18,$,$,(#371),#375);
#380=IFCRELDEFINESBYPROPERTIES('3tPeHNW372myVzIj$xT1Bt',#18,$,$,(#371),#376);
#381=IFCRELDEFINESBYPROPERTIES('0nRzH_H1PEwNntm1tiPIzb',#18,$,$,(#371),#378);
#382=IFCPROPERTYSET('3Qkle0lejxj$0nxBiLTNWy',#18,'Pset_ColumnCommon',$,(#374));
#383=IFCAXIS2PLACEMENT3D(#3,$,$);
#385=IFCCARTESIANPOINT((0.,0.));
#386=IFCAXIS2PLACEMENT2D(#385,#11);
#387=IFCRECTANGLEPROFILEDEF(.AREA.,'300 x 450mm',#386,200.,200.);
#388=IFCAXIS2PLACEMENT3D(#3,#9,#6);
#389=IFCEXTRUDEDAREASOLID(#387,#388,#9,3000.);
#390=IFCSTYLEDITEM(#389,(#350),$);
#391=IFCSHAPEREPRESENTATION(#24,'Body','SweptSolid',(#389));
#392=IFCAXIS2PLACEMENT3D(#3,$,$);
#393=IFCREPRESENTATIONMAP(#392,#391);
#394=IFCCOLUMNTYPE('1$QdUwxDf7l8Sqx2qle4wN',#18,'M_Concrete-Rectangular-Column:300 x 450mm',$,$,(#413),(#393),'1537404',$,.COLUMN.);
#395=IFCMATERIALPROFILE('300 x 450mm',$,#356,#387,$,$);
#396=IFCMATERIALPROFILESET('300 x 450mm',$,(#395),$);
#397=IFCMAPPEDITEM(#393,#364);
#398=IFCSHAPEREPRESENTATION(#24,'Body','MappedRepresentation',(#397));
#399=IFCPRODUCTDEFINITIONSHAPE($,$,(#398));
#400=IFCCARTESIANPOINT((4500.,1300.,0.));
#401=IFCAXIS2PLACEMENT3D(#400,$,$);
#402=IFCLOCALPLACEMENT(#34,#401);
#403=IFCCOLUMN('1$QdUwxDf7l8Sqx2qle4wl',#18,'M_Concrete-Rectangular-Column:300 x 450mm:1604436',$,'M_Concrete-Rectangular-Column:300 x 450mm',#402,#399,'1604436',.COLUMN.);
#404=IFCMATERIALPROFILESETUSAGE(#396,$,$);
#405=IFCPROPERTYSINGLEVALUE('Reference',$,IFCIDENTIFIER('300 x 450mm'),$);
#406=IFCPROPERTYSET('1hZO47id1_tgkUkmTbxCMs',#18,'Pset_ColumnCommon',$,(#45,#374,#405));
#407=IFCPROPERTYSET('1eoLgN$l_xMWWdX5UlCFxC',#18,'Pset_EnvironmentalImpactIndicators',$,(#405));
#408=IFCPROPERTYSINGLEVALUE('Reference',$,IFCLABEL('300 x 450mm'),$);
#409=IFCPROPERTYSET('0nb1J2YFdhm$f6xAH9OVZ5',#18,'Pset_ReinforcementBarPitchOfColumn',$,(#408));
#410=IFCRELDEFINESBYPROPERTIES('3LwhPkKblf1XB6cE5KHRF4',#18,$,$,(#403),#406);
#411=IFCRELDEFINESBYPROPERTIES('2HA2yKgmpsduv3iUnCGcTO',#18,$,$,(#403),#407);
#412=IFCRELDEFINESBYPROPERTIES('3$D96_PEZh7Ek64wn$Qe3X',#18,$,$,(#403),#409);
#413=IFCPROPERTYSET('0GXFqEP1wIQAiupzQ26KsE',#18,'Pset_ColumnCommon',$,(#374));
#414=IFCPROPERTYSINGLEVALUE('Reference',$,IFCIDENTIFIER('8mm Head'),$);
#415=IFCPROPERTYSINGLEVALUE('AboveGround',$,IFCLOGICAL(.U.),$);
#416=IFCPROPERTYSET('16L50AfyZF4hYq5TGET4H4',#18,'Pset_BuildingStoreyCommon',$,(#414,#415));
#417=IFCPROPERTYSET('2J7ac_h5ujdwWuzVwBIIta',#18,'Pset_SpaceCommon',$,(#45,#414));
#418=IFCRELDEFINESBYPROPERTIES('2VdfSfkgzGoZi_3SgzE8$0',#18,$,$,(#35),#416);
#419=IFCRELDEFINESBYPROPERTIES('3$YdOpA8iaPobC8MDiWxoI',#18,$,$,(#35),#417);
#420=IFCRELCONTAINEDINSPATIALSTRUCTURE('2JF4e6axWHqu3u0C5FZlmi',#18,$,$,(#143,#179,#201,#223,#245,#267,#289,#311,#333,#371,#403),#35);
#421=IFCPROPERTYSET('1n34enW33Z_3Qq2Pm1kjQZ',#18,'Pset_BuildingStoreyCommon',$,(#414,#415));
#422=IFCPROPERTYSET('0qNc4$IaPwTvoqOd7IlIE4',#18,'Pset_SpaceCommon',$,(#45,#414));
#423=IFCRELDEFINESBYPROPERTIES('36oM8gyLQ5_Z6XoGK5uP1E',#18,$,$,(#39),#421);
#424=IFCRELDEFINESBYPROPERTIES('0jA6Vdz$3CfPvu_I1iTL6J',#18,$,$,(#39),#422);
#425=IFCRELAGGREGATES('2KFB6YYWgXBmucZ8cm7uCP',#18,$,$,#27,(#42));
#426=IFCRELAGGREGATES('16_hfJTeCqU7LcG8m10BTS',#18,$,$,#42,(#32));
#427=IFCRELAGGREGATES('2JF4e6axWHqu3u0C9FZlmi',#18,$,$,#35,(#85,#102,#119));
#428=IFCRELAGGREGATES('1yhDISh1T5aQqAoygxGIhP',#18,$,$,#32,(#35,#39));
#429=IFCPROPERTYSINGLEVALUE('NumberOfStoreys',$,IFCCOUNTMEASURE(1),$);
#430=IFCPROPERTYSINGLEVALUE('IsLandmarked',$,IFCLOGICAL(.U.),$);
#431=IFCPROPERTYSET('01y_GmllCupEYuBgfGbhkd',#18,'Pset_BuildingCommon',$,(#43,#429,#430));
#432=IFCPROPERTYSET('1rUR7OGyIAkZT62xvibLnd',#18,'Pset_BuildingElementProxyCommon',$,(#43,#45));
#433=IFCPROPERTYSET('2kFDjjfIaTsBi7MLK$i$Me',#18,'Pset_BuildingStoreyCommon',$,(#43,#415));
#434=IFCPROPERTYSET('1TYvb3FgH88mtl04iE5P1T',#18,'Pset_BuildingSystemCommon',$,(#43));
#435=IFCPROPERTYSET('2W94HCj5xfigmNGtkBMklk',#18,'Pset_SpaceCommon',$,(#43,#45));
#436=IFCRELDEFINESBYPROPERTIES('0vDjba2fshDEh0_KufwWht',#18,$,$,(#32),#431);
#437=IFCRELDEFINESBYPROPERTIES('1V6UQfELB4oPy3GPEaJMPw',#18,$,$,(#32),#432);
#438=IFCRELDEFINESBYPROPERTIES('0Vpd75HttOMIhzXutBGgCt',#18,$,$,(#32),#433);
#439=IFCRELDEFINESBYPROPERTIES('22VMRBFW9n6_S81yWIP225',#18,$,$,(#32),#434);
#440=IFCRELDEFINESBYPROPERTIES('2w3bzVlKnfBVjA3_BjG2II',#18,$,$,(#32),#435);
#441=IFCRELASSOCIATESMATERIAL('22T9r9KB1F3JFgePfxkUGp',#18,$,$,(#143,#150,#179,#201,#223,#245,#267,#289,#311,#333),#149);
#442=IFCRELASSOCIATESMATERIAL('1Mphc1iqXPG9v6O3ObBy61',#18,$,$,(#355),#363);
#443=IFCRELASSOCIATESMATERIAL('1LbUtHsXT_tA2PgohHsVpm',#18,$,$,(#394),#396);
#444=IFCRELDEFINESBYTYPE('23eVHgyZ7zFb1TIu_kK7qm',#18,$,$,(#85),#86);
#445=IFCRELDEFINESBYTYPE('1tLc5IuhCypRTR4SzWWzeI',#18,$,$,(#102),#103);
#446=IFCRELDEFINESBYTYPE('2nqW943hIeR$28Zyg_JSjF',#18,$,$,(#119),#120);
#447=IFCRELDEFINESBYTYPE('0MSq_ijuC5q4PUKv4QkOsA',#18,$,$,(#143,#179,#201,#223,#245,#267,#289,#311,#333),#150);
#448=IFCRELDEFINESBYTYPE('36vtjm0VYm0vubvGmK_TTk',#18,$,$,(#371),#355);
#449=IFCRELDEFINESBYTYPE('3xFTOpRFQTY6r6AGP3He2a',#18,$,$,(#403),#394);
#450=IFCRELCONNECTSPATHELEMENTS('3wMkp8ZspZ$k_DgvanaWdD',#18,'3cmsjRvPb4wf9t15K203XR|3cmsjRvPb4wf9t15K203Ef','Structural',$,#143,#333,(),(),.ATEND.,.ATSTART.);
#451=IFCRELCONNECTSPATHELEMENTS('3OTnJClAGM0zmX7B1qxlV7',#18,'3cmsjRvPb4wf9t15K203XR|3cmsjRvPb4wf9t15K203$P','Structural',$,#143,#201,(),(),.ATEND.,.ATEND.);
#452=IFCRELCONNECTSPATHELEMENTS('0cwwFypRok2LjZd7gQJRcL',#18,'3cmsjRvPb4wf9t15K203_D|3cmsjRvPb4wf9t15K203xV','Structural',$,#179,#245,(),(),.ATSTART.,.ATSTART.);
#453=IFCRELCONNECTSPATHELEMENTS('3ZZLazQYTu0NpchTvAVgxZ',#18,'3cmsjRvPb4wf9t15K203_D|3cmsjRvPb4wf9t15K203$P','Structural',$,#179,#201,(),(),.ATSTART.,.ATEND.);
#454=IFCRELCONNECTSPATHELEMENTS('3OSGH0IASwKg4ozA9Br2jX',#18,'3cmsjRvPb4wf9t15K203$P|3cmsjRvPb4wf9t15K203w_','Structural',$,#201,#223,(),(),.ATSTART.,.ATPATH.);
#455=IFCRELCONNECTSPATHELEMENTS('326r2K5jrCGqXgZNyjE0UY',#18,'3cmsjRvPb4wf9t15K203w_|3cmsjRvPb4wf9t15K203sD','Structural',$,#223,#289,(),(),.ATPATH.,.ATEND.);
#456=IFCRELCONNECTSPATHELEMENTS('12ypENso3q10TxhGC9AZ33',#18,'3cmsjRvPb4wf9t15K203xV|3cmsjRvPb4wf9t15K203qB','Structural',$,#245,#267,(),(),.ATSTART.,.ATEND.);
#457=IFCRELCONNECTSPATHELEMENTS('11uViMyf7eAX3DQfO7gWD8',#18,'3cmsjRvPb4wf9t15K203xV|3cmsjRvPb4wf9t15K203sD','Structural',$,#245,#289,(),(),.ATEND.,.ATEND.);
#458=IFCRELCONNECTSPATHELEMENTS('1KBk2XUlIQX8tGpH_Anx4l',#18,'3cmsjRvPb4wf9t15K203qB|3cmsjRvPb4wf9t15K203sD','Structural',$,#267,#289,(),(),.ATEND.,.ATSTART.);
#459=IFCRELCONNECTSPATHELEMENTS('27fW5PSe2W$3zyNGCzdblH',#18,'3cmsjRvPb4wf9t15K203qB|3cmsjRvPb4wf9t15K203Ef','Structural',$,#267,#333,(),(),.ATSTART.,.ATEND.);
#460=IFCRELCONNECTSPATHELEMENTS('0LuQwAC1Nc5$oZjdVumvza',#18,'3cmsjRvPb4wf9t15K203w_|3cmsjRvPb4wf9t15K203Cj','Structural',$,#223,#311,(),(),.ATSTART.,.ATPATH.);
#461=IFCRELCONNECTSPATHELEMENTS('3dome2OHElKqOIdBNPS3no',#18,'3cmsjRvPb4wf9t15K203XR|3cmsjRvPb4wf9t15K203Cj','Structural',$,#143,#311,(),(),.ATEND.,.ATPATH.);
#462=IFCPRESENTATIONLAYERASSIGNMENT('A-AREA-____-OTLN',$,(#83,#100,#117),$);
#463=IFCPRESENTATIONLAYERASSIGNMENT('A-WALL-____-OTLN',$,(#131,#141,#170,#177,#192,#199,#214,#221,#236,#243,#258,#265,#280,#287,#302,#309,#324,#331),$);
#464=IFCPRESENTATIONLAYERASSIGNMENT('S-COLS-____-OTLN',$,(#352,#366,#391,#398),$);
#465=IFCRELASSOCIATESCLASSIFICATION('26vUINWJpfv18vqOy_cSv4',#18,'Exterior Walls','Exterior Walls:B2010',(#143,#179,#201,#223,#245,#267,#289,#311,#333),#162);
#466=IFCUNITASSIGNMENT((#19,#81,#82));
ENDSEC;
END-ISO-10303-21;
