ISO-10303-21;
HEADER;
FILE_DESCRIPTION(('ViewDefinition [CoordinationView]','RevitIdentifiers [ContentGUID: cbb0ae2e-6350-4225-8ca4-af668662c38d, VersionGUID: 4a0555f1-4744-4f6b-a6c1-b791997294ea, NumberOfSaves: 23]','CoordinateReference [CoordinateBase: Shared Coordinates]'),'2;1');
FILE_NAME('01_02_014.ifc','2026-01-07T17:04:15+01:00',(''),(''),'ODA SDAI 24.6','Autodesk Revit 24.3.30.11 (ENU) - IFC 24.3.30.11','');
FILE_SCHEMA(('IFC4X3'));
ENDSEC;

DATA;
#1=IFCORGANIZATION($,'Autodesk Revit 2024 (ENU)',$,$,$);
#2=IFCAPPLICATION(#1,'2024','Autodesk Revit 2024 (ENU)','Revit');
#3=IFCCARTESIANPOINT((0.,0.,0.));
#4=IFCCARTESIANPOINT((0.,0.));
#5=IFCDIRECTION((1.,0.,0.));
#6=IFCDIRECTION((-1.,0.,0.));
#7=IFCDIRECTION((0.,1.,0.));
#8=IFCDIRECTION((0.,-1.,0.));
#9=IFCDIRECTION((0.,0.,1.));
#10=IFCDIRECTION((0.,0.,-1.));
#11=IFCDIRECTION((1.,0.));
#12=IFCDIRECTION((-1.,0.));
#13=IFCDIRECTION((0.,1.));
#14=IFCDIRECTION((0.,-1.));
#15=IFCPERSON($,'','h.helming',$,$,$,$,$);
#16=IFCORGANIZATION($,'Organization Name','Organization Description',$,$);
#17=IFCPERSONANDORGANIZATION(#15,#16,$);
#18=IFCOWNERHISTORY(#17,#2,$,.NOCHANGE.,$,$,$,1767701920);
#19=IFCSIUNIT(*,.LENGTHUNIT.,.MILLI.,.METRE.);
#20=IFCAXIS2PLACEMENT3D(#3,$,$);
#21=IFCDIRECTION((6.1230317691118863E-17,1.));
#22=IFCGEOMETRICREPRESENTATIONCONTEXT($,'Model',3,0.01,#20,#21);
#23=IFCGEOMETRICREPRESENTATIONSUBCONTEXT('Axis','Model',*,*,*,*,#22,$,.GRAPH_VIEW.,$);
#24=IFCGEOMETRICREPRESENTATIONSUBCONTEXT('Body','Model',*,*,*,*,#22,$,.MODEL_VIEW.,$);
#25=IFCGEOMETRICREPRESENTATIONSUBCONTEXT('Box','Model',*,*,*,*,#22,$,.MODEL_VIEW.,$);
#26=IFCGEOMETRICREPRESENTATIONSUBCONTEXT('FootPrint','Model',*,*,*,*,#22,$,.MODEL_VIEW.,$);
#27=IFCPROJECT('3BiAukOr129OoahsPvdJnz',#18,'Project Number',$,$,'Project Name','Project Status',(#22),#452);
#28=IFCCLASSIFICATION('CSI (Construction Specifications Institute)','1998',$,'Uniformat','UniFormat Classification','https://www.csiresources.org/standards/uniformat',$);
#29=IFCAXIS2PLACEMENT3D(#3,$,$);
#30=IFCLOCALPLACEMENT(#41,#29);
#31=IFCPOSTALADDRESS($,$,$,$,('Enter address hereAddress Line 2'),$,'','Boston','','MA');
#32=IFCBUILDING('3BiAukOr129OoahsPvdJny',#18,'Building Name',$,$,#30,$,'Building Name',.ELEMENT.,$,$,#31);
#33=IFCAXIS2PLACEMENT3D(#3,$,$);
#34=IFCLOCALPLACEMENT(#30,#33);
#35=IFCBUILDINGSTOREY('2JF4e6axWHqu3u0C1FZlmi',#18,'L1',$,'Level:8mm Head',#34,$,'L1',.ELEMENT.,0.);
#36=IFCCARTESIANPOINT((0.,0.,3000.));
#37=IFCAXIS2PLACEMENT3D(#36,$,$);
#38=IFCLOCALPLACEMENT(#30,#37);
#39=IFCBUILDINGSTOREY('1ZGO8hrFCHqw0v0026FpFv',#18,'L2',$,'Level:8mm Head',#38,$,'L2',.ELEMENT.,3000.);
#40=IFCAXIS2PLACEMENT3D(#3,$,$);
#41=IFCLOCALPLACEMENT($,#40);
#42=IFCSITE('3BiAukOr129OoahsPvdJn$',#18,'Default',$,$,#41,$,$,.ELEMENT.,(42,21,31,401672),(-71,-3,-24,-345703),0.,$,$);
#43=IFCPROPERTYSINGLEVALUE('Reference',$,IFCIDENTIFIER('Project Information'),$);
#44=IFCPROPERTYSET('2mFJcO6I01h0OYRLOICO3c',#18,'Pset_SiteCommon',$,(#43));
#45=IFCPROPERTYSINGLEVALUE('IsExternal',$,IFCBOOLEAN(.F.),$);
#46=IFCPROPERTYSET('0O$B2PbAODr9jYnpcaZGJT',#18,'Pset_SpaceCommon',$,(#43,#45));
#47=IFCRELDEFINESBYPROPERTIES('2fDrcjst0HFayqQ3dY1cGQ',#18,$,$,(#42),#44);
#48=IFCRELDEFINESBYPROPERTIES('1lYkP70lXSGXnZeJnLC8MY',#18,$,$,(#42),#46);
#55=IFCAXIS2PLACEMENT3D(#3,$,$);
#57=IFCCARTESIANPOINT((0.,0.));
#58=IFCAXIS2PLACEMENT2D(#57,#11);
#59=IFCRECTANGLEPROFILEDEF(.AREA.,'300 x 300 mm',#58,300.,300.);
#60=IFCAXIS2PLACEMENT3D(#3,#9,#6);
#61=IFCEXTRUDEDAREASOLID(#59,#60,#9,2590.0000000000005);
#62=IFCSIUNIT(*,.PLANEANGLEUNIT.,$,.RADIAN.);
#63=IFCDIMENSIONALEXPONENTS(0,0,0,0,0,0,0);
#64=IFCMEASUREWITHUNIT(IFCPLANEANGLEMEASURE(0.017453292519943278),#62);
#65=IFCCONVERSIONBASEDUNIT(#63,.PLANEANGLEUNIT.,'DEGREE',#64);
#66=IFCSIUNIT(*,.AREAUNIT.,$,.SQUARE_METRE.);
#67=IFCCOLOURRGB($,0.,0.,0.);
#68=IFCSURFACESTYLERENDERING(#67,0.,$,$,$,$,IFCNORMALISEDRATIOMEASURE(0.5),IFCSPECULAREXPONENT(64.),.NOTDEFINED.);
#69=IFCSURFACESTYLE('Concrete, Cast-in-Place gray',.BOTH.,(#68));
#70=IFCSTYLEDITEM(#61,(#69),$);
#71=IFCSHAPEREPRESENTATION(#24,'Body','SweptSolid',(#61));
#72=IFCAXIS2PLACEMENT3D(#3,$,$);
#73=IFCREPRESENTATIONMAP(#72,#71);
#74=IFCCOLUMNTYPE('1A1LNnHqHFQwR1jv6PQkXo',#18,'M_Concrete-Rectangular-Column:300 x 300 mm',$,$,(#101),(#73),'1599231',$,.COLUMN.);
#75=IFCMATERIAL('Concrete, Cast-in-Place gray',$,'Concrete');
#76=IFCCOLOURRGB($,1.,1.,1.);
#77=IFCFILLAREASTYLE('<Solid fill>',(#76),$);
#78=IFCSTYLEDITEM($,(#69,#77),$);
#79=IFCSTYLEDREPRESENTATION(#22,'Style','Material and Cut Pattern',(#78));
#80=IFCMATERIALDEFINITIONREPRESENTATION($,$,(#79),#75);
#81=IFCMATERIALPROFILE('300 x 300 mm',$,#75,#59,$,$);
#82=IFCMATERIALPROFILESET('300 x 300 mm',$,(#81),$);
#83=IFCCARTESIANTRANSFORMATIONOPERATOR3D($,$,#3,1.,$);
#84=IFCMAPPEDITEM(#73,#83);
#85=IFCSHAPEREPRESENTATION(#24,'Body','MappedRepresentation',(#84));
#86=IFCPRODUCTDEFINITIONSHAPE($,$,(#85));
#87=IFCCARTESIANPOINT((150.,150.,0.));
#88=IFCAXIS2PLACEMENT3D(#87,$,$);
#89=IFCLOCALPLACEMENT(#34,#88);
#90=IFCCOLUMN('1A1LNnHqHFQwR1jv6PQkVI',#18,'M_Concrete-Rectangular-Column:300 x 300 mm:1602360',$,'M_Concrete-Rectangular-Column:300 x 300 mm',#89,#86,'1602360',.COLUMN.);
#91=IFCMATERIALPROFILESETUSAGE(#82,$,$);
#92=IFCPROPERTYSINGLEVALUE('Reference',$,IFCIDENTIFIER('300 x 300 mm'),$);
#93=IFCPROPERTYSINGLEVALUE('LoadBearing',$,IFCBOOLEAN(.T.),$);
#94=IFCPROPERTYSET('2iD046toD67tQYZj$p6CMF',#18,'Pset_ColumnCommon',$,(#45,#92,#93));
#95=IFCPROPERTYSET('10XBYI22CDkuA71GiBzibc',#18,'Pset_EnvironmentalImpactIndicators',$,(#92));
#96=IFCPROPERTYSINGLEVALUE('Reference',$,IFCLABEL('300 x 300 mm'),$);
#97=IFCPROPERTYSET('0PSvJcfecrvTXpBfidxGzM',#18,'Pset_ReinforcementBarPitchOfColumn',$,(#96));
#98=IFCRELDEFINESBYPROPERTIES('1bEX2sdBKBCLo4VjXdTi9Z',#18,$,$,(#90),#94);
#99=IFCRELDEFINESBYPROPERTIES('3hX39WsI4yyzRFvafMDqGC',#18,$,$,(#90),#95);
#100=IFCRELDEFINESBYPROPERTIES('2RXWP7b0pAp70wYJyiHiwE',#18,$,$,(#90),#97);
#101=IFCPROPERTYSET('2muDSw$iqonCcsnb5_pNEx',#18,'Pset_ColumnCommon',$,(#93));
#102=IFCMAPPEDITEM(#73,#83);
#103=IFCSHAPEREPRESENTATION(#24,'Body','MappedRepresentation',(#102));
#104=IFCPRODUCTDEFINITIONSHAPE($,$,(#103));
#105=IFCCARTESIANPOINT((2650.,150.,0.));
#106=IFCAXIS2PLACEMENT3D(#105,$,$);
#107=IFCLOCALPLACEMENT(#34,#106);
#108=IFCCOLUMN('1A1LNnHqHFQwR1jv6PQk1I',#18,'M_Concrete-Rectangular-Column:300 x 300 mm:1602744',$,'M_Concrete-Rectangular-Column:300 x 300 mm',#107,#104,'1602744',.COLUMN.);
#109=IFCPROPERTYSET('0A8H1hHkqDwrY9qwQvUp$4',#18,'Pset_ColumnCommon',$,(#45,#92,#93));
#110=IFCPROPERTYSET('0xECnzieFJ5REt5C2B_Svm',#18,'Pset_EnvironmentalImpactIndicators',$,(#92));
#111=IFCPROPERTYSINGLEVALUE('Reference',$,IFCLABEL('300 x 300 mm'),$);
#112=IFCPROPERTYSET('0aqD_GUHEICpr6sK5SQmHr',#18,'Pset_ReinforcementBarPitchOfColumn',$,(#111));
#113=IFCRELDEFINESBYPROPERTIES('37_hPz03oTlMbNR2I_sryX',#18,$,$,(#108),#109);
#114=IFCRELDEFINESBYPROPERTIES('2WCIGbSUkVKAD79zKv0aX_',#18,$,$,(#108),#110);
#115=IFCRELDEFINESBYPROPERTIES('0BEJEFCjIDaLLzND5wkPOo',#18,$,$,(#108),#112);
#116=IFCMAPPEDITEM(#73,#83);
#117=IFCSHAPEREPRESENTATION(#24,'Body','MappedRepresentation',(#116));
#118=IFCPRODUCTDEFINITIONSHAPE($,$,(#117));
#119=IFCCARTESIANPOINT((5150.,150.,0.));
#120=IFCAXIS2PLACEMENT3D(#119,$,$);
#121=IFCLOCALPLACEMENT(#34,#120);
#122=IFCCOLUMN('1A1LNnHqHFQwR1jv6PQk0e',#18,'M_Concrete-Rectangular-Column:300 x 300 mm:1602754',$,'M_Concrete-Rectangular-Column:300 x 300 mm',#121,#118,'1602754',.COLUMN.);
#123=IFCPROPERTYSET('3V8Nqm2IuQ6y$RZ9Zfcu1d',#18,'Pset_ColumnCommon',$,(#45,#92,#93));
#124=IFCPROPERTYSET('2NNhlN2FCcituFaepssv6w',#18,'Pset_EnvironmentalImpactIndicators',$,(#92));
#125=IFCPROPERTYSINGLEVALUE('Reference',$,IFCLABEL('300 x 300 mm'),$);
#126=IFCPROPERTYSET('1_b3UgokdHCH9nNzb2YE3v',#18,'Pset_ReinforcementBarPitchOfColumn',$,(#125));
#127=IFCRELDEFINESBYPROPERTIES('2Z8xITnMqgz$M0TZ9gcfug',#18,$,$,(#122),#123);
#128=IFCRELDEFINESBYPROPERTIES('0u2i8rTPsNFymkp0xotyw7',#18,$,$,(#122),#124);
#129=IFCRELDEFINESBYPROPERTIES('10_vnqUyPa_Ga6$_DAocgf',#18,$,$,(#122),#126);
#130=IFCMAPPEDITEM(#73,#83);
#131=IFCSHAPEREPRESENTATION(#24,'Body','MappedRepresentation',(#130));
#132=IFCPRODUCTDEFINITIONSHAPE($,$,(#131));
#133=IFCCARTESIANPOINT((7650.,150.,0.));
#134=IFCAXIS2PLACEMENT3D(#133,$,$);
#135=IFCLOCALPLACEMENT(#34,#134);
#136=IFCCOLUMN('1A1LNnHqHFQwR1jv6PQk0c',#18,'M_Concrete-Rectangular-Column:300 x 300 mm:1602764',$,'M_Concrete-Rectangular-Column:300 x 300 mm',#135,#132,'1602764',.COLUMN.);
#137=IFCPROPERTYSET('1kZBQxNRsOT5l5qsNBcb3J',#18,'Pset_ColumnCommon',$,(#45,#92,#93));
#138=IFCPROPERTYSET('2XI_16oNOAyGdcQhik7AXf',#18,'Pset_EnvironmentalImpactIndicators',$,(#92));
#139=IFCPROPERTYSINGLEVALUE('Reference',$,IFCLABEL('300 x 300 mm'),$);
#140=IFCPROPERTYSET('1FTeG87180RXLjanNdMxya',#18,'Pset_ReinforcementBarPitchOfColumn',$,(#139));
#141=IFCRELDEFINESBYPROPERTIES('3pgEfFDfJKAw0nBkZXcAIh',#18,$,$,(#136),#137);
#142=IFCRELDEFINESBYPROPERTIES('0OXZHZJ6oORUpBPImDBJfJ',#18,$,$,(#136),#138);
#143=IFCRELDEFINESBYPROPERTIES('2yYElJx3WZQA8TBIaWkGqc',#18,$,$,(#136),#140);
#144=IFCMAPPEDITEM(#73,#83);
#145=IFCSHAPEREPRESENTATION(#24,'Body','MappedRepresentation',(#144));
#146=IFCPRODUCTDEFINITIONSHAPE($,$,(#145));
#147=IFCCARTESIANPOINT((150.,4450.,0.));
#148=IFCAXIS2PLACEMENT3D(#147,$,$);
#149=IFCLOCALPLACEMENT(#34,#148);
#150=IFCCOLUMN('1A1LNnHqHFQwR1jv6PQk0G',#18,'M_Concrete-Rectangular-Column:300 x 300 mm:1602810',$,'M_Concrete-Rectangular-Column:300 x 300 mm',#149,#146,'1602810',.COLUMN.);
#151=IFCPROPERTYSET('2lTsBT1r6vaH6aoiyJl5ZJ',#18,'Pset_ColumnCommon',$,(#45,#92,#93));
#152=IFCPROPERTYSET('1Hq$np5RmCd6Reus9TPvTU',#18,'Pset_EnvironmentalImpactIndicators',$,(#92));
#153=IFCPROPERTYSINGLEVALUE('Reference',$,IFCLABEL('300 x 300 mm'),$);
#154=IFCPROPERTYSET('2z1RS1VKf8jGsBBnP5oSNU',#18,'Pset_ReinforcementBarPitchOfColumn',$,(#153));
#155=IFCRELDEFINESBYPROPERTIES('34VnJz_KKftmTV3XtjAK1Y',#18,$,$,(#150),#151);
#156=IFCRELDEFINESBYPROPERTIES('2LJxGhL6Yr$Ce47w7T_O2Y',#18,$,$,(#150),#152);
#157=IFCRELDEFINESBYPROPERTIES('0XuTKbVW6vjfrgHMF40L2b',#18,$,$,(#150),#154);
#158=IFCAXIS2PLACEMENT3D(#3,$,$);
#160=IFCCARTESIANPOINT((-89.,-191.09999999999971));
#161=IFCCARTESIANPOINT((-89.,-202.));
#162=IFCPOLYLINE((#160,#161));
#163=IFCCOMPOSITECURVESEGMENT(.CONTINUOUS.,.T.,#162);
#164=IFCCARTESIANPOINT((-89.,-202.));
#165=IFCCARTESIANPOINT((89.,-202.));
#166=IFCPOLYLINE((#164,#165));
#167=IFCCOMPOSITECURVESEGMENT(.CONTINUOUS.,.T.,#166);
#168=IFCCARTESIANPOINT((89.,-202.));
#169=IFCCARTESIANPOINT((89.,-191.09999999999971));
#170=IFCPOLYLINE((#168,#169));
#171=IFCCOMPOSITECURVESEGMENT(.CONTINUOUS.,.T.,#170);
#172=IFCCARTESIANPOINT((89.,-191.09999999999971));
#173=IFCCARTESIANPOINT((13.944999999999968,-191.09999999999971));
#174=IFCPOLYLINE((#172,#173));
#175=IFCCOMPOSITECURVESEGMENT(.CONTINUOUS.,.T.,#174);
#176=IFCCARTESIANPOINT((13.944999999999951,-180.89999999999969));
#177=IFCAXIS2PLACEMENT2D(#176,#14);
#178=IFCCIRCLE(#177,10.199999999999999);
#179=IFCTRIMMEDCURVE(#178,(IFCPARAMETERVALUE(269.99999999999989)),(IFCPARAMETERVALUE(359.99999999999955)),.T.,.PARAMETER.);
#180=IFCCOMPOSITECURVESEGMENT(.CONTINUOUS.,.F.,#179);
#181=IFCCARTESIANPOINT((3.7449999999999508,-180.89999999999975));
#182=IFCCARTESIANPOINT((3.7449999999999508,180.90000000000018));
#183=IFCPOLYLINE((#181,#182));
#184=IFCCOMPOSITECURVESEGMENT(.CONTINUOUS.,.T.,#183);
#185=IFCCARTESIANPOINT((13.944999999999951,180.90000000000006));
#186=IFCAXIS2PLACEMENT2D(#185,#12);
#187=IFCCIRCLE(#186,10.199999999999999);
#188=IFCTRIMMEDCURVE(#187,(IFCPARAMETERVALUE(269.99999999999989)),(IFCPARAMETERVALUE(359.99999999999977)),.T.,.PARAMETER.);
#189=IFCCOMPOSITECURVESEGMENT(.CONTINUOUS.,.F.,#188);
#190=IFCCARTESIANPOINT((13.944999999999968,191.10000000000008));
#191=IFCCARTESIANPOINT((89.,191.10000000000008));
#192=IFCPOLYLINE((#190,#191));
#193=IFCCOMPOSITECURVESEGMENT(.CONTINUOUS.,.T.,#192);
#194=IFCCARTESIANPOINT((89.,191.10000000000008));
#195=IFCCARTESIANPOINT((89.,202.));
#196=IFCPOLYLINE((#194,#195));
#197=IFCCOMPOSITECURVESEGMENT(.CONTINUOUS.,.T.,#196);
#198=IFCCARTESIANPOINT((89.,202.));
#199=IFCCARTESIANPOINT((-89.,202.));
#200=IFCPOLYLINE((#198,#199));
#201=IFCCOMPOSITECURVESEGMENT(.CONTINUOUS.,.T.,#200);
#202=IFCCARTESIANPOINT((-89.,202.));
#203=IFCCARTESIANPOINT((-89.,191.10000000000008));
#204=IFCPOLYLINE((#202,#203));
#205=IFCCOMPOSITECURVESEGMENT(.CONTINUOUS.,.T.,#204);
#206=IFCCARTESIANPOINT((-89.,191.10000000000008));
#207=IFCCARTESIANPOINT((-13.945000000000114,191.10000000000008));
#208=IFCPOLYLINE((#206,#207));
#209=IFCCOMPOSITECURVESEGMENT(.CONTINUOUS.,.T.,#208);
#210=IFCCARTESIANPOINT((-13.945000000000132,180.90000000000012));
#211=IFCAXIS2PLACEMENT2D(#210,#13);
#212=IFCCIRCLE(#211,10.199999999999999);
#213=IFCTRIMMEDCURVE(#212,(IFCPARAMETERVALUE(269.99999999999989)),(IFCPARAMETERVALUE(0.)),.T.,.PARAMETER.);
#214=IFCCOMPOSITECURVESEGMENT(.CONTINUOUS.,.F.,#213);
#215=IFCCARTESIANPOINT((-3.745000000000132,180.90000000000012));
#216=IFCCARTESIANPOINT((-3.745000000000132,-180.89999999999975));
#217=IFCPOLYLINE((#215,#216));
#218=IFCCOMPOSITECURVESEGMENT(.CONTINUOUS.,.T.,#217);
#219=IFCCARTESIANPOINT((-13.945000000000132,-180.89999999999975));
#220=IFCAXIS2PLACEMENT2D(#219,#11);
#221=IFCCIRCLE(#220,10.199999999999999);
#222=IFCTRIMMEDCURVE(#221,(IFCPARAMETERVALUE(269.99999999999989)),(IFCPARAMETERVALUE(0.)),.T.,.PARAMETER.);
#223=IFCCOMPOSITECURVESEGMENT(.CONTINUOUS.,.F.,#222);
#224=IFCCARTESIANPOINT((-13.945000000000105,-191.09999999999971));
#225=IFCCARTESIANPOINT((-89.,-191.09999999999971));
#226=IFCPOLYLINE((#224,#225));
#227=IFCCOMPOSITECURVESEGMENT(.CONTINUOUS.,.T.,#226);
#228=IFCCOMPOSITECURVE((#163,#167,#171,#175,#180,#184,#189,#193,#197,#201,#205,#209,#214,#218,#223,#227),.F.);
#229=IFCARBITRARYCLOSEDPROFILEDEF(.AREA.,'W410X53',#228);
#230=IFCCARTESIANPOINT((-3321.4581145440075,0.,0.));
#231=IFCAXIS2PLACEMENT3D(#230,#6,#8);
#232=IFCEXTRUDEDAREASOLID(#229,#231,#10,6059.6460434561532);
#233=IFCCOLOURRGB($,0.79607843137254897,0.79607843137254897,0.79607843137254897);
#234=IFCSURFACESTYLERENDERING(#233,0.,$,$,$,$,IFCNORMALISEDRATIOMEASURE(0.5),IFCSPECULAREXPONENT(64.),.NOTDEFINED.);
#235=IFCSURFACESTYLE('Steel ASTM A992',.BOTH.,(#234));
#236=IFCSTYLEDITEM(#232,(#235),$);
#237=IFCSHAPEREPRESENTATION(#24,'Body','SweptSolid',(#232));
#238=IFCCARTESIANPOINT((-953.33805485929554,0.,202.));
#239=IFCVECTOR(#5,304.80000000000001);
#240=IFCLINE(#238,#239);
#241=IFCCARTESIANPOINT((-2875.,0.,202.));
#242=IFCCARTESIANPOINT((2875.,0.,202.));
#243=IFCTRIMMEDCURVE(#240,(#241),(#242),.T.,.CARTESIAN.);
#244=IFCSHAPEREPRESENTATION(#23,'Axis','Curve3D',(#243));
#245=IFCAXIS2PLACEMENT3D(#3,$,$);
#246=IFCREPRESENTATIONMAP(#245,#237);
#247=IFCAXIS2PLACEMENT3D(#3,$,$);
#248=IFCREPRESENTATIONMAP(#247,#244);
#249=IFCBEAMTYPE('1A1LNnHqHFQwR1jv6PQkb8',#18,'M_W Shapes:W410X53',$,$,(#285),(#246,#248),'1548690',$,.BEAM.);
#250=IFCMATERIAL('Steel ASTM A992',$,'Metal');
#251=IFCCOLOURRGB($,0.,0.,0.);
#252=IFCDRAUGHTINGPREDEFINEDCURVEFONT('continuous');
#253=IFCCURVESTYLE($,#252,$,#251,$);
#254=IFCFILLAREASTYLEHATCHING(#253,IFCPOSITIVELENGTHMEASURE(355.60000000000002),$,#4,45.);
#255=IFCCURVESTYLE($,#252,$,#251,$);
#256=IFCCARTESIANPOINT((0.,381.));
#257=IFCFILLAREASTYLEHATCHING(#255,IFCPOSITIVELENGTHMEASURE(355.60000000000002),$,#256,45.);
#258=IFCFILLAREASTYLE('Steel',(#254,#257),$);
#259=IFCSTYLEDITEM($,(#235,#258),$);
#260=IFCSTYLEDREPRESENTATION(#22,'Style','Material and Cut Pattern',(#259));
#261=IFCMATERIALDEFINITIONREPRESENTATION($,$,(#260),#250);
#262=IFCMATERIALPROFILE('W410X53',$,#250,#229,$,$);
#263=IFCMATERIALPROFILESET('W410X53',$,(#262),$);
#264=IFCMAPPEDITEM(#246,#83);
#265=IFCSHAPEREPRESENTATION(#24,'Body','MappedRepresentation',(#264));
#266=IFCMAPPEDITEM(#248,#83);
#267=IFCSHAPEREPRESENTATION(#23,'Axis','MappedRepresentation',(#266));
#268=IFCPRODUCTDEFINITIONSHAPE($,$,(#265,#267));
#269=IFCCARTESIANPOINT((150.,3321.4581145440079,-202.));
#270=IFCAXIS2PLACEMENT3D(#269,#9,#7);
#271=IFCLOCALPLACEMENT(#38,#270);
#272=IFCBEAM('1A1LNnHqHFQwR1jv6PQkA_',#18,'M_W Shapes:W410X53:1603156',$,'M_W Shapes:W410X53',#271,#268,'1603156',.BEAM.);
#273=IFCMATERIALPROFILESETUSAGE(#263,8,$);
#274=IFCPROPERTYSINGLEVALUE('Reference',$,IFCIDENTIFIER('W410X53'),$);
#275=IFCPROPERTYSINGLEVALUE('Span',$,IFCPOSITIVELENGTHMEASURE(5750.),$);
#276=IFCPROPERTYSINGLEVALUE('Slope',$,IFCPLANEANGLEMEASURE(0.),$);
#277=IFCPROPERTYSINGLEVALUE('Roll',$,IFCPLANEANGLEMEASURE(0.),$);
#278=IFCPROPERTYSET('3RV6ILu8ZFMQK2butsQ00P',#18,'Pset_BeamCommon',$,(#45,#93,#274,#275,#276,#277));
#279=IFCPROPERTYSET('0zmKEU3DQ2pvzLxfB6AFLc',#18,'Pset_EnvironmentalImpactIndicators',$,(#274));
#280=IFCPROPERTYSINGLEVALUE('Reference',$,IFCLABEL('W410X53'),$);
#281=IFCPROPERTYSET('0DfvVDrsdjQwJPgn67csw7',#18,'Pset_ReinforcementBarPitchOfBeam',$,(#280));
#282=IFCRELDEFINESBYPROPERTIES('2w3rWyQbRtbVDCQCBgDbYN',#18,$,$,(#272),#278);
#283=IFCRELDEFINESBYPROPERTIES('2N3GwPc1_tTq$jlwUiOoLi',#18,$,$,(#272),#279);
#284=IFCRELDEFINESBYPROPERTIES('0KBlzqYnZnYFLkabrUMN8a',#18,$,$,(#272),#281);
#285=IFCPROPERTYSET('1FG4SQTt6iczMrsm9ahg5P',#18,'Pset_BeamCommon',$,(#93));
#286=IFCMAPPEDITEM(#73,#83);
#287=IFCSHAPEREPRESENTATION(#24,'Body','MappedRepresentation',(#286));
#288=IFCPRODUCTDEFINITIONSHAPE($,$,(#287));
#289=IFCCARTESIANPOINT((2650.,4450.,0.));
#290=IFCAXIS2PLACEMENT3D(#289,$,$);
#291=IFCLOCALPLACEMENT(#34,#290);
#292=IFCCOLUMN('1A1LNnHqHFQwR1jv6PQkwz',#18,'M_Concrete-Rectangular-Column:300 x 300 mm:1604183',$,'M_Concrete-Rectangular-Column:300 x 300 mm',#291,#288,'1604183',.COLUMN.);
#293=IFCPROPERTYSET('2b7XOeVoKU7DmNumxLi$Fs',#18,'Pset_ColumnCommon',$,(#45,#92,#93));
#294=IFCPROPERTYSET('064IK7zilzMrpJM2TY4LaE',#18,'Pset_EnvironmentalImpactIndicators',$,(#92));
#295=IFCPROPERTYSINGLEVALUE('Reference',$,IFCLABEL('300 x 300 mm'),$);
#296=IFCPROPERTYSET('2PU$uXdBvS8nu$txPk0Hy1',#18,'Pset_ReinforcementBarPitchOfColumn',$,(#295));
#297=IFCRELDEFINESBYPROPERTIES('2JM9F05XZZu4me$2XIxE1Z',#18,$,$,(#292),#293);
#298=IFCRELDEFINESBYPROPERTIES('1hthf7AyugTC$Ykab6ie5J',#18,$,$,(#292),#294);
#299=IFCRELDEFINESBYPROPERTIES('3d3CDolHvfUC2ctuLg1FY8',#18,$,$,(#292),#296);
#300=IFCMAPPEDITEM(#73,#83);
#301=IFCSHAPEREPRESENTATION(#24,'Body','MappedRepresentation',(#300));
#302=IFCPRODUCTDEFINITIONSHAPE($,$,(#301));
#303=IFCCARTESIANPOINT((5150.,4450.,0.));
#304=IFCAXIS2PLACEMENT3D(#303,$,$);
#305=IFCLOCALPLACEMENT(#34,#304);
#306=IFCCOLUMN('1A1LNnHqHFQwR1jv6PQkwB',#18,'M_Concrete-Rectangular-Column:300 x 300 mm:1604193',$,'M_Concrete-Rectangular-Column:300 x 300 mm',#305,#302,'1604193',.COLUMN.);
#307=IFCPROPERTYSET('2VNeqac76tfrFgjXdmQU8T',#18,'Pset_ColumnCommon',$,(#45,#92,#93));
#308=IFCPROPERTYSET('3ZP2hTMjw2JQ7RhidfgZCL',#18,'Pset_EnvironmentalImpactIndicators',$,(#92));
#309=IFCPROPERTYSINGLEVALUE('Reference',$,IFCLABEL('300 x 300 mm'),$);
#310=IFCPROPERTYSET('0aWXmSGPPzUW2JGEMtXZa6',#18,'Pset_ReinforcementBarPitchOfColumn',$,(#309));
#311=IFCRELDEFINESBYPROPERTIES('24IR_CsOruBD6NvUeCRqbY',#18,$,$,(#306),#307);
#312=IFCRELDEFINESBYPROPERTIES('0EBSDQkgnCFBWcpMxZvO5M',#18,$,$,(#306),#308);
#313=IFCRELDEFINESBYPROPERTIES('0wsFlIkK5kI3bqCxRTAovW',#18,$,$,(#306),#310);
#314=IFCMAPPEDITEM(#73,#83);
#315=IFCSHAPEREPRESENTATION(#24,'Body','MappedRepresentation',(#314));
#316=IFCPRODUCTDEFINITIONSHAPE($,$,(#315));
#317=IFCCARTESIANPOINT((7650.,4450.,0.));
#318=IFCAXIS2PLACEMENT3D(#317,$,$);
#319=IFCLOCALPLACEMENT(#34,#318);
#320=IFCCOLUMN('1A1LNnHqHFQwR1jv6PQkw7',#18,'M_Concrete-Rectangular-Column:300 x 300 mm:1604205',$,'M_Concrete-Rectangular-Column:300 x 300 mm',#319,#316,'1604205',.COLUMN.);
#321=IFCPROPERTYSET('1aNMSCLj2dqV32Sh1doKIq',#18,'Pset_ColumnCommon',$,(#45,#92,#93));
#322=IFCPROPERTYSET('0aCKXF09ZWD4BZ1amilBUx',#18,'Pset_EnvironmentalImpactIndicators',$,(#92));
#323=IFCPROPERTYSINGLEVALUE('Reference',$,IFCLABEL('300 x 300 mm'),$);
#324=IFCPROPERTYSET('3Sa0vImJVfMKL7fIO4nLJH',#18,'Pset_ReinforcementBarPitchOfColumn',$,(#323));
#325=IFCRELDEFINESBYPROPERTIES('1jH3CeNxB$X71WX7FXDRJF',#18,$,$,(#320),#321);
#326=IFCRELDEFINESBYPROPERTIES('3UA1aLXJgNBuivyPzIXQW3',#18,$,$,(#320),#322);
#327=IFCRELDEFINESBYPROPERTIES('26_f0DZxpWU6oLv7X6l2fD',#18,$,$,(#320),#324);
#328=IFCMAPPEDITEM(#246,#83);
#329=IFCSHAPEREPRESENTATION(#24,'Body','MappedRepresentation',(#328));
#330=IFCMAPPEDITEM(#248,#83);
#331=IFCSHAPEREPRESENTATION(#23,'Axis','MappedRepresentation',(#330));
#332=IFCPRODUCTDEFINITIONSHAPE($,$,(#329,#331));
#333=IFCCARTESIANPOINT((2650.,3321.4581145439997,-202.));
#334=IFCAXIS2PLACEMENT3D(#333,#9,#7);
#335=IFCLOCALPLACEMENT(#38,#334);
#336=IFCBEAM('1A1LNnHqHFQwR1jv6PQk$u',#18,'M_W Shapes:W410X53:1604370',$,'M_W Shapes:W410X53',#335,#332,'1604370',.BEAM.);
#337=IFCPROPERTYSET('32gYl73UkNNN2KkEO5nXvm',#18,'Pset_BeamCommon',$,(#45,#93,#274,#275,#276,#277));
#338=IFCPROPERTYSET('2VMApiAhPwzJiEKw8xkmE6',#18,'Pset_EnvironmentalImpactIndicators',$,(#274));
#339=IFCPROPERTYSINGLEVALUE('Reference',$,IFCLABEL('W410X53'),$);
#340=IFCPROPERTYSET('0GkUAQBTo7rutR8zlz$RUe',#18,'Pset_ReinforcementBarPitchOfBeam',$,(#339));
#341=IFCRELDEFINESBYPROPERTIES('1O16fgsYZQnNWKfvFySO1A',#18,$,$,(#336),#337);
#342=IFCRELDEFINESBYPROPERTIES('2xDhwEIAU2hFIqTtd3vVNH',#18,$,$,(#336),#338);
#343=IFCRELDEFINESBYPROPERTIES('3e3kKw4Mho6YvGe3lnF_bj',#18,$,$,(#336),#340);
#344=IFCMAPPEDITEM(#246,#83);
#345=IFCSHAPEREPRESENTATION(#24,'Body','MappedRepresentation',(#344));
#346=IFCMAPPEDITEM(#248,#83);
#347=IFCSHAPEREPRESENTATION(#23,'Axis','MappedRepresentation',(#346));
#348=IFCPRODUCTDEFINITIONSHAPE($,$,(#345,#347));
#349=IFCCARTESIANPOINT((5150.,3321.4581145439915,-202.));
#350=IFCAXIS2PLACEMENT3D(#349,#9,#7);
#351=IFCLOCALPLACEMENT(#38,#350);
#352=IFCBEAM('1A1LNnHqHFQwR1jv6PQk$m',#18,'M_W Shapes:W410X53:1604378',$,'M_W Shapes:W410X53',#351,#348,'1604378',.BEAM.);
#353=IFCPROPERTYSET('3Dt4MA2N05xShRZ$nZcUUs',#18,'Pset_BeamCommon',$,(#45,#93,#274,#275,#276,#277));
#354=IFCPROPERTYSET('1evf4HnnMskqYI5dgIDaR8',#18,'Pset_EnvironmentalImpactIndicators',$,(#274));
#355=IFCPROPERTYSINGLEVALUE('Reference',$,IFCLABEL('W410X53'),$);
#356=IFCPROPERTYSET('3Sg1KFrlmKPhxz7RLfkLi8',#18,'Pset_ReinforcementBarPitchOfBeam',$,(#355));
#357=IFCRELDEFINESBYPROPERTIES('33NgGws_E9ZMwj1KMSPKsM',#18,$,$,(#352),#353);
#358=IFCRELDEFINESBYPROPERTIES('1vH2BurrC4LMkvlAp1zdg$',#18,$,$,(#352),#354);
#359=IFCRELDEFINESBYPROPERTIES('330T5Ycxa9_Gxo8cuj_7kC',#18,$,$,(#352),#356);
#360=IFCMAPPEDITEM(#246,#83);
#361=IFCSHAPEREPRESENTATION(#24,'Body','MappedRepresentation',(#360));
#362=IFCMAPPEDITEM(#248,#83);
#363=IFCSHAPEREPRESENTATION(#23,'Axis','MappedRepresentation',(#362));
#364=IFCPRODUCTDEFINITIONSHAPE($,$,(#361,#363));
#365=IFCCARTESIANPOINT((7650.,3321.4581145439838,-202.));
#366=IFCAXIS2PLACEMENT3D(#365,#9,#7);
#367=IFCLOCALPLACEMENT(#38,#366);
#368=IFCBEAM('1A1LNnHqHFQwR1jv6PQk$C',#18,'M_W Shapes:W410X53:1604390',$,'M_W Shapes:W410X53',#367,#364,'1604390',.BEAM.);
#369=IFCPROPERTYSET('3Iv8bpBtCqFYfNnU$zLOyb',#18,'Pset_BeamCommon',$,(#45,#93,#274,#275,#276,#277));
#370=IFCPROPERTYSET('0p0JwneA8B5dCicfy5OB_P',#18,'Pset_EnvironmentalImpactIndicators',$,(#274));
#371=IFCPROPERTYSINGLEVALUE('Reference',$,IFCLABEL('W410X53'),$);
#372=IFCPROPERTYSET('2B3tSPZ6jyrKRbJoWWKxKo',#18,'Pset_ReinforcementBarPitchOfBeam',$,(#371));
#373=IFCRELDEFINESBYPROPERTIES('0A7cQB8sF7bN$y9vVW8Ogb',#18,$,$,(#368),#369);
#374=IFCRELDEFINESBYPROPERTIES('0wjInTHiwT88Lm8YRpzXiI',#18,$,$,(#368),#370);
#375=IFCRELDEFINESBYPROPERTIES('12yIzztJls3iL_EJEMfmwk',#18,$,$,(#368),#372);
#376=IFCCARTESIANPOINT((7800.,4700.,0.));
#377=IFCAXIS2PLACEMENT3D(#376,#9,#6);
#378=IFCLOCALPLACEMENT(#34,#377);
#379=IFCCARTESIANPOINT((7800.,0.));
#380=IFCPOLYLINE((#4,#379));
#381=IFCSHAPEREPRESENTATION(#23,'Axis','Curve2D',(#380));
#382=IFCCARTESIANPOINT((3900.0000000000009,0.));
#383=IFCAXIS2PLACEMENT2D(#382,#12);
#384=IFCRECTANGLEPROFILEDEF(.AREA.,$,#383,7800.0000000000018,200.);
#385=IFCAXIS2PLACEMENT3D(#3,$,$);
#386=IFCEXTRUDEDAREASOLID(#384,#385,#9,3000.);
#387=IFCCOLOURRGB($,0.75294117647058822,0.75294117647058822,0.75294117647058822);
#388=IFCSURFACESTYLERENDERING(#387,0.,$,$,$,$,IFCNORMALISEDRATIOMEASURE(0.5),IFCSPECULAREXPONENT(10.),.NOTDEFINED.);
#389=IFCSURFACESTYLE('Default Wall',.BOTH.,(#388));
#390=IFCSTYLEDITEM(#386,(#389),$);
#391=IFCSHAPEREPRESENTATION(#24,'Body','SweptSolid',(#386));
#392=IFCPRODUCTDEFINITIONSHAPE($,$,(#381,#391));
#393=IFCWALL('1A1LNnHqHFQwR1jv6PQkyv',#18,'Basic Wall:Generic - 200mm:1604563',$,'Basic Wall:Generic - 200mm',#378,#392,'1604563',.NOTDEFINED.);
#394=IFCMATERIAL('Default Wall',$,'Miscellaneous');
#395=IFCSTYLEDITEM($,(#389),$);
#396=IFCSTYLEDREPRESENTATION(#22,'Style','Material',(#395));
#397=IFCMATERIALDEFINITIONREPRESENTATION($,$,(#396),#394);
#398=IFCMATERIALLAYER(#394,200.,$,'Layer',$,'Miscellaneous',$);
#399=IFCMATERIALLAYERSET((#398),'Basic Wall:Generic - 200mm',$);
#400=IFCWALLTYPE('1xZrMVYp52mhf4uMzw11Hk',#18,'Basic Wall:Generic - 200mm',$,$,(#414),$,'441451',$,.STANDARD.);
#401=IFCPROPERTYSINGLEVALUE('Reference',$,IFCIDENTIFIER('Generic - 200mm'),$);
#402=IFCPROPERTYSET('3HrvAOXRcjI9rmgpWNngEt',#18,'Pset_EnvironmentalImpactIndicators',$,(#401));
#403=IFCPROPERTYSINGLEVALUE('Reference',$,IFCLABEL('Generic - 200mm'),$);
#404=IFCPROPERTYSET('2D$EoA0ysYu6kgYp6q5xEV',#18,'Pset_ReinforcementBarPitchOfWall',$,(#403));
#405=IFCPROPERTYSINGLEVALUE('IsExternal',$,IFCBOOLEAN(.T.),$);
#406=IFCPROPERTYSINGLEVALUE('LoadBearing',$,IFCBOOLEAN(.F.),$);
#407=IFCPROPERTYSINGLEVALUE('ExtendToStructure',$,IFCBOOLEAN(.F.),$);
#408=IFCPROPERTYSET('1hrkZDEA$cxdNu2n3r7Btw',#18,'Pset_WallCommon',$,(#401,#405,#406,#407));
#409=IFCRELDEFINESBYPROPERTIES('0plhoDh$IZ47Nuw6xKCqBz',#18,$,$,(#393),#402);
#410=IFCRELDEFINESBYPROPERTIES('0Q$CbaHVKrRdjH0cZmOf9I',#18,$,$,(#393),#404);
#411=IFCRELDEFINESBYPROPERTIES('0fNeOV1I_Gm0a_5tLYcMOf',#18,$,$,(#393),#408);
#412=IFCCLASSIFICATIONREFERENCE('https://www.csiresources.org/standards/uniformat','B2010','Exterior Walls',#28,'',$);
#413=IFCPROPERTYSINGLEVALUE('Description',$,IFCTEXT('Generic Wall (Material By Category), 200mm thick'),$);
#414=IFCPROPERTYSET('2L7lvTstnIeeydfwzfZZLR',#18,'Pset_ReinforcementBarPitchOfWall',$,(#413));
#415=IFCPROPERTYSINGLEVALUE('Reference',$,IFCIDENTIFIER('8mm Head'),$);
#416=IFCPROPERTYSINGLEVALUE('AboveGround',$,IFCLOGICAL(.U.),$);
#417=IFCPROPERTYSET('16L50AfyZF4hYq5TGET4H4',#18,'Pset_BuildingStoreyCommon',$,(#415,#416));
#418=IFCPROPERTYSET('2J7ac_h5ujdwWuzVwBIIta',#18,'Pset_SpaceCommon',$,(#45,#415));
#419=IFCRELDEFINESBYPROPERTIES('2VdfSfkgzGoZi_3SgzE8$0',#18,$,$,(#35),#417);
#420=IFCRELDEFINESBYPROPERTIES('3$YdOpA8iaPobC8MDiWxoI',#18,$,$,(#35),#418);
#421=IFCRELCONTAINEDINSPATIALSTRUCTURE('2JF4e6axWHqu3u0C5FZlmi',#18,$,$,(#90,#108,#122,#136,#150,#292,#306,#320,#393),#35);
#422=IFCPROPERTYSET('1n34enW33Z_3Qq2Pm1kjQZ',#18,'Pset_BuildingStoreyCommon',$,(#415,#416));
#423=IFCPROPERTYSET('0qNc4$IaPwTvoqOd7IlIE4',#18,'Pset_SpaceCommon',$,(#45,#415));
#424=IFCRELDEFINESBYPROPERTIES('36oM8gyLQ5_Z6XoGK5uP1E',#18,$,$,(#39),#422);
#425=IFCRELDEFINESBYPROPERTIES('0jA6Vdz$3CfPvu_I1iTL6J',#18,$,$,(#39),#423);
#426=IFCRELCONTAINEDINSPATIALSTRUCTURE('1ZGO8hrFCHqw0v0066FpFv',#18,$,$,(#272,#336,#352,#368),#39);
#427=IFCRELAGGREGATES('2KFB6YYWgXBmucZ8cm7uCP',#18,$,$,#27,(#42));
#428=IFCRELAGGREGATES('16_hfJTeCqU7LcG8m10BTS',#18,$,$,#42,(#32));
#429=IFCRELAGGREGATES('1yhDISh1T5aQqAoygxGIhP',#18,$,$,#32,(#35,#39));
#430=IFCPROPERTYSINGLEVALUE('NumberOfStoreys',$,IFCCOUNTMEASURE(2),$);
#431=IFCPROPERTYSINGLEVALUE('IsLandmarked',$,IFCLOGICAL(.U.),$);
#432=IFCPROPERTYSET('01y_GmllCupEYuBgfGbhkd',#18,'Pset_BuildingCommon',$,(#43,#430,#431));
#433=IFCPROPERTYSET('1rUR7OGyIAkZT62xvibLnd',#18,'Pset_BuildingElementProxyCommon',$,(#43,#45));
#434=IFCPROPERTYSET('2kFDjjfIaTsBi7MLK$i$Me',#18,'Pset_BuildingStoreyCommon',$,(#43,#416));
#435=IFCPROPERTYSET('1TYvb3FgH88mtl04iE5P1T',#18,'Pset_BuildingSystemCommon',$,(#43));
#436=IFCPROPERTYSET('2W94HCj5xfigmNGtkBMklk',#18,'Pset_SpaceCommon',$,(#43,#45));
#437=IFCRELDEFINESBYPROPERTIES('0vDjba2fshDEh0_KufwWht',#18,$,$,(#32),#432);
#438=IFCRELDEFINESBYPROPERTIES('1V6UQfELB4oPy3GPEaJMPw',#18,$,$,(#32),#433);
#439=IFCRELDEFINESBYPROPERTIES('0Vpd75HttOMIhzXutBGgCt',#18,$,$,(#32),#434);
#440=IFCRELDEFINESBYPROPERTIES('22VMRBFW9n6_S81yWIP225',#18,$,$,(#32),#435);
#441=IFCRELDEFINESBYPROPERTIES('2w3bzVlKnfBVjA3_BjG2II',#18,$,$,(#32),#436);
#442=IFCRELASSOCIATESMATERIAL('1Mphc1iqXPG9v6O3ObBy61',#18,$,$,(#74),#82);
#443=IFCRELASSOCIATESMATERIAL('1n5Y$Rk1TLf_doVm4D3mxm',#18,$,$,(#249),#263);
#444=IFCRELASSOCIATESMATERIAL('22T9r9KB1F3JFgePfxkUGp',#18,$,$,(#393,#400),#399);
#445=IFCRELDEFINESBYTYPE('3QPnB0k5ri2sGb8H_1pFNT',#18,$,$,(#90,#108,#122,#136,#150,#292,#306,#320),#74);
#446=IFCRELDEFINESBYTYPE('1_$Pr8CWcAw_Cg4VUaSaPf',#18,$,$,(#272,#336,#352,#368),#249);
#447=IFCRELDEFINESBYTYPE('0MSq_ijuC5q4PUKv4QkOsA',#18,$,$,(#393),#400);
#448=IFCPRESENTATIONLAYERASSIGNMENT('S-COLS-____-OTLN',$,(#71,#85,#103,#117,#131,#145,#287,#301,#315),$);
#449=IFCPRESENTATIONLAYERASSIGNMENT('S-BEAM-____-OTLN',$,(#237,#244,#265,#267,#329,#331,#345,#347,#361,#363),$);
#450=IFCPRESENTATIONLAYERASSIGNMENT('A-WALL-____-OTLN',$,(#381,#391),$);
#451=IFCRELASSOCIATESCLASSIFICATION('0HsDndxVT$b0QrsBMQdy18',#18,'Exterior Walls','Exterior Walls:B2010',(#393),#412);
#452=IFCUNITASSIGNMENT((#19,#65,#66));
ENDSEC;

END-ISO-10303-21;