ISO-10303-21;
HEADER;
FILE_DESCRIPTION(('ViewDefinition [CoordinationView]','RevitIdentifiers [ContentGUID: cbb0ae2e-6350-4225-8ca4-af668662c38d, VersionGUID: 164eef6c-a1e4-4189-a7a9-f79658c5e09c, NumberOfSaves: 25]','CoordinateReference [CoordinateBase: Shared Coordinates]'),'2;1');
FILE_NAME('01_02_018.ifc','2026-01-07T17:08:11+01:00',(''),(''),'ODA SDAI 24.6','Autodesk Revit 24.3.30.11 (ENU) - IFC 24.3.30.11','');
FILE_SCHEMA(('IFC4X3'));
ENDSEC;

DATA;
#1=IFCORGANIZATION($,'Autodesk Revit 2024 (ENU)',$,$,$);
#2=IFCAPPLICATION(#1,'2024','Autodesk Revit 2024 (ENU)','Revit');
#3=IFCCARTESIANPOINT((0.,0.,0.));
#4=IFCCARTESIANPOINT((0.,0.));
#5=IFCDIRECTION((1.,0.,0.));
#6=IFCDIRECTION((-1.,0.,0.));
#7=IFCDIRECTION((0.,1.,0.));
#8=IFCDIRECTION((0.,-1.,0.));
#9=IFCDIRECTION((0.,0.,1.));
#10=IFCDIRECTION((0.,0.,-1.));
#11=IFCDIRECTION((1.,0.));
#12=IFCDIRECTION((-1.,0.));
#13=IFCDIRECTION((0.,1.));
#14=IFCDIRECTION((0.,-1.));
#15=IFCPERSON($,'','h.helming',$,$,$,$,$);
#16=IFCORGANIZATION($,'Organization Name','Organization Description',$,$);
#17=IFCPERSONANDORGANIZATION(#15,#16,$);
#18=IFCOWNERHISTORY(#17,#2,$,.NOCHANGE.,$,$,$,1767701716);
#19=IFCSIUNIT(*,.LENGTHUNIT.,.MILLI.,.METRE.);
#20=IFCAXIS2PLACEMENT3D(#3,$,$);
#21=IFCDIRECTION((6.1230317691118863E-17,1.));
#22=IFCGEOMETRICREPRESENTATIONCONTEXT($,'Model',3,0.01,#20,#21);
#23=IFCGEOMETRICREPRESENTATIONSUBCONTEXT('Axis','Model',*,*,*,*,#22,$,.GRAPH_VIEW.,$);
#24=IFCGEOMETRICREPRESENTATIONSUBCONTEXT('Body','Model',*,*,*,*,#22,$,.MODEL_VIEW.,$);
#25=IFCGEOMETRICREPRESENTATIONSUBCONTEXT('Box','Model',*,*,*,*,#22,$,.MODEL_VIEW.,$);
#26=IFCGEOMETRICREPRESENTATIONSUBCONTEXT('FootPrint','Model',*,*,*,*,#22,$,.MODEL_VIEW.,$);
#27=IFCPROJECT('3BiAukOr129OoahsPvdJnz',#18,'Project Number',$,$,'Project Name','Project Status',(#22),#333);
#28=IFCCLASSIFICATION('CSI (Construction Specifications Institute)','1998',$,'Uniformat','UniFormat Classification','https://www.csiresources.org/standards/uniformat',$);
#29=IFCAXIS2PLACEMENT3D(#3,$,$);
#30=IFCLOCALPLACEMENT(#41,#29);
#31=IFCPOSTALADDRESS($,$,$,$,('Enter address hereAddress Line 2'),$,'','Boston','','MA');
#32=IFCBUILDING('3BiAukOr129OoahsPvdJny',#18,'Building Name',$,$,#30,$,'Building Name',.ELEMENT.,$,$,#31);
#33=IFCAXIS2PLACEMENT3D(#3,$,$);
#34=IFCLOCALPLACEMENT(#30,#33);
#35=IFCBUILDINGSTOREY('2JF4e6axWHqu3u0C1FZlmi',#18,'L1',$,'Level:8mm Head',#34,$,'L1',.ELEMENT.,0.);
#36=IFCCARTESIANPOINT((0.,0.,3000.));
#37=IFCAXIS2PLACEMENT3D(#36,$,$);
#38=IFCLOCALPLACEMENT(#30,#37);
#39=IFCBUILDINGSTOREY('1ZGO8hrFCHqw0v0026FpFv',#18,'L2',$,'Level:8mm Head',#38,$,'L2',.ELEMENT.,3000.);
#40=IFCAXIS2PLACEMENT3D(#3,$,$);
#41=IFCLOCALPLACEMENT($,#40);
#42=IFCSITE('3BiAukOr129OoahsPvdJn$',#18,'Default',$,$,#41,$,$,.ELEMENT.,(42,21,31,401672),(-71,-3,-24,-345703),0.,$,$);
#43=IFCPROPERTYSINGLEVALUE('Reference',$,IFCIDENTIFIER('Project Information'),$);
#44=IFCPROPERTYSET('2mFJcO6I01h0OYRLOICO3c',#18,'Pset_SiteCommon',$,(#43));
#45=IFCPROPERTYSINGLEVALUE('IsExternal',$,IFCBOOLEAN(.F.),$);
#46=IFCPROPERTYSET('0O$B2PbAODr9jYnpcaZGJT',#18,'Pset_SpaceCommon',$,(#43,#45));
#47=IFCRELDEFINESBYPROPERTIES('2fDrcjst0HFayqQ3dY1cGQ',#18,$,$,(#42),#44);
#48=IFCRELDEFINESBYPROPERTIES('1lYkP70lXSGXnZeJnLC8MY',#18,$,$,(#42),#46);
#55=IFCAXIS2PLACEMENT3D(#3,$,$);
#56=IFCLOCALPLACEMENT(#34,#55);
#57=IFCCARTESIANPOINT((-3700.,-2433.333333333333));
#58=IFCCARTESIANPOINT((4000.,-2433.333333333333));
#59=IFCCARTESIANPOINT((4000.,2266.666666666667));
#60=IFCCARTESIANPOINT((-300.,2266.6666666666674));
#61=IFCCARTESIANPOINT((-300.,166.6666666666662));
#62=IFCCARTESIANPOINT((-3700.,166.66666666666666));
#63=IFCPOLYLINE((#57,#58,#59,#60,#61,#62,#57));
#64=IFCARBITRARYCLOSEDPROFILEDEF(.AREA.,$,#63);
#65=IFCCARTESIANPOINT((2633.3333333333399,4200.,0.));
#66=IFCAXIS2PLACEMENT3D(#65,#9,#8);
#67=IFCEXTRUDEDAREASOLID(#64,#66,#9,3000.);
#68=IFCSIUNIT(*,.PLANEANGLEUNIT.,$,.RADIAN.);
#69=IFCDIMENSIONALEXPONENTS(0,0,0,0,0,0,0);
#70=IFCMEASUREWITHUNIT(IFCPLANEANGLEMEASURE(0.017453292519943278),#68);
#71=IFCCONVERSIONBASEDUNIT(#69,.PLANEANGLEUNIT.,'DEGREE',#70);
#72=IFCSIUNIT(*,.AREAUNIT.,$,.SQUARE_METRE.);
#73=IFCSHAPEREPRESENTATION(#24,'Body','SweptSolid',(#67));
#74=IFCPRODUCTDEFINITIONSHAPE($,$,(#73));
#75=IFCSPACE('3Vyqk8cSj8TOuAk6zHUwK5',#18,'132',$,$,#56,#74,'room',.ELEMENT.,.NOTDEFINED.,$);
#76=IFCSPACETYPE('3Vyqk8cSj8TOuAi6zHUwK5',#18,'room 132:1602716',$,$,$,$,'1602716',$,.NOTDEFINED.,$);
#77=IFCPROPERTYSINGLEVALUE('Reference',$,IFCIDENTIFIER('room 132'),$);
#78=IFCPROPERTYSET('0J_IdRLxLVvfNMk755r9Bs',#18,'Pset_SpaceCommon',$,(#45,#77));
#79=IFCPROPERTYSET('0GYrmglhe3Mz0NFEw7FA1q',#18,'Pset_SpaceHeaterTypeCommon',$,(#77));
#80=IFCRELDEFINESBYPROPERTIES('1YQjvoT09lc6cQSZU4U1dH',#18,$,$,(#75),#78);
#81=IFCRELDEFINESBYPROPERTIES('3TpALxO0i09ljGyS98W9F1',#18,$,$,(#75),#79);
#84=IFCAXIS2PLACEMENT3D(#3,$,$);
#85=IFCLOCALPLACEMENT(#34,#84);
#86=IFCCARTESIANPOINT((5.6843418860808015E-13,0.));
#87=IFCAXIS2PLACEMENT2D(#86,#11);
#88=IFCRECTANGLEPROFILEDEF(.AREA.,$,#87,2400.,4300.0000000000018);
#89=IFCCARTESIANPOINT((6300.,2350.,0.));
#90=IFCAXIS2PLACEMENT3D(#89,$,$);
#91=IFCEXTRUDEDAREASOLID(#88,#90,#9,3000.);
#92=IFCSHAPEREPRESENTATION(#24,'Body','SweptSolid',(#91));
#93=IFCPRODUCTDEFINITIONSHAPE($,$,(#92));
#94=IFCSPACE('3Vyqk8cSj8TOuAk6zHUwKx',#18,'134',$,$,#85,#93,'room',.ELEMENT.,.NOTDEFINED.,$);
#95=IFCSPACETYPE('3Vyqk8cSj8TOuAi6zHUwKx',#18,'room 134:1602722',$,$,$,$,'1602722',$,.NOTDEFINED.,$);
#96=IFCPROPERTYSINGLEVALUE('Reference',$,IFCIDENTIFIER('room 134'),$);
#97=IFCPROPERTYSET('3uW5dlleFoBNCC0g3P7F9z',#18,'Pset_SpaceCommon',$,(#45,#96));
#98=IFCPROPERTYSET('3A5_TifwCaPPAZ3xLO5dKN',#18,'Pset_SpaceHeaterTypeCommon',$,(#96));
#99=IFCRELDEFINESBYPROPERTIES('26iZ90qSCWNjTwa6irVCsP',#18,$,$,(#94),#97);
#100=IFCRELDEFINESBYPROPERTIES('30iSZrcGy0rV7lEKYdAyVR',#18,$,$,(#94),#98);
#101=IFCAXIS2PLACEMENT3D(#3,$,$);
#102=IFCLOCALPLACEMENT(#34,#101);
#103=IFCCARTESIANPOINT((49.999999999999545,320.00000000000182));
#104=IFCAXIS2PLACEMENT2D(#103,#11);
#105=IFCRECTANGLEPROFILEDEF(.AREA.,$,#104,4500.0000000000009,3200.0000000000246);
#106=IFCCARTESIANPOINT((5200.,5980.,0.));
#107=IFCAXIS2PLACEMENT3D(#106,$,$);
#108=IFCEXTRUDEDAREASOLID(#105,#107,#9,3000.);
#109=IFCSHAPEREPRESENTATION(#24,'Body','SweptSolid',(#108));
#110=IFCPRODUCTDEFINITIONSHAPE($,$,(#109));
#111=IFCSPACE('3Vyqk8cSj8TOuAk6zHUwJB',#18,'135',$,$,#102,#110,'room',.ELEMENT.,.NOTDEFINED.,$);
#112=IFCSPACETYPE('3Vyqk8cSj8TOuAi6zHUwJB',#18,'room 135:1602898',$,$,$,$,'1602898',$,.NOTDEFINED.,$);
#113=IFCPROPERTYSINGLEVALUE('Reference',$,IFCIDENTIFIER('room 135'),$);
#114=IFCPROPERTYSET('3mpZ6jt2tbxdIDyLBZ7bSV',#18,'Pset_SpaceCommon',$,(#45,#113));
#115=IFCPROPERTYSET('25WMiLSR$qCd$WGyaFckb2',#18,'Pset_SpaceHeaterTypeCommon',$,(#113));
#116=IFCRELDEFINESBYPROPERTIES('3ZpWLR38_w7XA0kd$xPgtp',#18,$,$,(#111),#114);
#117=IFCRELDEFINESBYPROPERTIES('3Z3nzrqkaqS1rGzHMTgTQ$',#18,$,$,(#111),#115);
#118=IFCCARTESIANPOINT((100.,8100.,0.));
#119=IFCAXIS2PLACEMENT3D(#118,#9,#8);
#120=IFCLOCALPLACEMENT(#34,#119);
#121=IFCCARTESIANPOINT((8100.,-0.));
#122=IFCPOLYLINE((#4,#121));
#123=IFCSHAPEREPRESENTATION(#23,'Axis','Curve2D',(#122));
#124=IFCCARTESIANPOINT((4050.0000000000127,-1.4210854715202004E-14));
#125=IFCAXIS2PLACEMENT2D(#124,#12);
#126=IFCRECTANGLEPROFILEDEF(.AREA.,$,#125,8100.0000000000255,200.00000000000003);
#127=IFCAXIS2PLACEMENT3D(#3,$,$);
#128=IFCEXTRUDEDAREASOLID(#126,#127,#9,3000.);
#129=IFCCOLOURRGB($,0.75294117647058822,0.75294117647058822,0.75294117647058822);
#130=IFCSURFACESTYLERENDERING(#129,0.,$,$,$,$,IFCNORMALISEDRATIOMEASURE(0.5),IFCSPECULAREXPONENT(10.),.NOTDEFINED.);
#131=IFCSURFACESTYLE('Default Wall',.BOTH.,(#130));
#132=IFCSTYLEDITEM(#128,(#131),$);
#133=IFCSHAPEREPRESENTATION(#24,'Body','SweptSolid',(#128));
#134=IFCPRODUCTDEFINITIONSHAPE($,$,(#123,#133));
#135=IFCWALL('3Vyqk8cSj8TOuAk6zHUwAt',#18,'Basic Wall:Generic - 200mm:1602350',$,'Basic Wall:Generic - 200mm',#120,#134,'1602350',.NOTDEFINED.);
#136=IFCMATERIAL('Default Wall',$,'Miscellaneous');
#137=IFCSTYLEDITEM($,(#131),$);
#138=IFCSTYLEDREPRESENTATION(#22,'Style','Material',(#137));
#139=IFCMATERIALDEFINITIONREPRESENTATION($,$,(#138),#136);
#140=IFCMATERIALLAYER(#136,200.,$,'Layer',$,'Miscellaneous',$);
#141=IFCMATERIALLAYERSET((#140),'Basic Wall:Generic - 200mm',$);
#142=IFCWALLTYPE('1xZrMVYp52mhf4uMzw11Hk',#18,'Basic Wall:Generic - 200mm',$,$,(#156),$,'441451',$,.STANDARD.);
#143=IFCPROPERTYSINGLEVALUE('Reference',$,IFCIDENTIFIER('Generic - 200mm'),$);
#144=IFCPROPERTYSET('0Km4zNM2MwGsg6uui573Gl',#18,'Pset_EnvironmentalImpactIndicators',$,(#143));
#145=IFCPROPERTYSINGLEVALUE('Reference',$,IFCLABEL('Generic - 200mm'),$);
#146=IFCPROPERTYSET('0ZXMEr5ajxWFHJMWoi4f9d',#18,'Pset_ReinforcementBarPitchOfWall',$,(#145));
#147=IFCPROPERTYSINGLEVALUE('IsExternal',$,IFCBOOLEAN(.T.),$);
#148=IFCPROPERTYSINGLEVALUE('LoadBearing',$,IFCBOOLEAN(.F.),$);
#149=IFCPROPERTYSINGLEVALUE('ExtendToStructure',$,IFCBOOLEAN(.F.),$);
#150=IFCPROPERTYSET('1zrfxTCt1bXMa1Ly5p70N1',#18,'Pset_WallCommon',$,(#143,#147,#148,#149));
#151=IFCRELDEFINESBYPROPERTIES('03npcsjKGgxiKm0v35mOCU',#18,$,$,(#135),#144);
#152=IFCRELDEFINESBYPROPERTIES('19PyAMlzR0yGXIwnh1vl8V',#18,$,$,(#135),#146);
#153=IFCRELDEFINESBYPROPERTIES('0Ch_H7bAOLrBCWJ9at5CY2',#18,$,$,(#135),#150);
#154=IFCCLASSIFICATIONREFERENCE('https://www.csiresources.org/standards/uniformat','B2010','Exterior Walls',#28,'',$);
#155=IFCPROPERTYSINGLEVALUE('Description',$,IFCTEXT('Generic Wall (Material By Category), 200mm thick'),$);
#156=IFCPROPERTYSET('2L7lvTstnIeeydfwzfZZLR',#18,'Pset_ReinforcementBarPitchOfWall',$,(#155));
#157=IFCCARTESIANPOINT((200.,100.,0.));
#158=IFCAXIS2PLACEMENT3D(#157,$,$);
#159=IFCLOCALPLACEMENT(#34,#158);
#160=IFCCARTESIANPOINT((7500.,0.));
#161=IFCPOLYLINE((#4,#160));
#162=IFCSHAPEREPRESENTATION(#23,'Axis','Curve2D',(#161));
#163=IFCCARTESIANPOINT((3750.0000000000009,0.));
#164=IFCAXIS2PLACEMENT2D(#163,#12);
#165=IFCRECTANGLEPROFILEDEF(.AREA.,$,#164,7500.0000000000018,200.);
#166=IFCAXIS2PLACEMENT3D(#3,$,$);
#167=IFCEXTRUDEDAREASOLID(#165,#166,#9,3000.);
#168=IFCSTYLEDITEM(#167,(#131),$);
#169=IFCSHAPEREPRESENTATION(#24,'Body','SweptSolid',(#167));
#170=IFCPRODUCTDEFINITIONSHAPE($,$,(#162,#169));
#171=IFCWALL('3Vyqk8cSj8TOuAk6zHUwAc',#18,'Basic Wall:Generic - 200mm:1602367',$,'Basic Wall:Generic - 200mm',#159,#170,'1602367',.NOTDEFINED.);
#172=IFCPROPERTYSET('3JUIdSeVp_uwEbbZZ62q4s',#18,'Pset_EnvironmentalImpactIndicators',$,(#143));
#173=IFCPROPERTYSINGLEVALUE('Reference',$,IFCLABEL('Generic - 200mm'),$);
#174=IFCPROPERTYSET('2xt8_eWXQmZoGh92FUaf7C',#18,'Pset_ReinforcementBarPitchOfWall',$,(#173));
#175=IFCPROPERTYSET('1Qx33RkOMvlc106bCgkFYy',#18,'Pset_WallCommon',$,(#143,#147,#148,#149));
#176=IFCRELDEFINESBYPROPERTIES('0Cbozj_3TLDgtMpOD0_yYT',#18,$,$,(#171),#172);
#177=IFCRELDEFINESBYPROPERTIES('1Feha5xswcNTrZ$5QRM3b5',#18,$,$,(#171),#174);
#178=IFCRELDEFINESBYPROPERTIES('1olywbjtcxLyBnEbs_Cz$6',#18,$,$,(#171),#175);
#179=IFCCARTESIANPOINT((5000.,200.,0.));
#180=IFCAXIS2PLACEMENT3D(#179,#9,#7);
#181=IFCLOCALPLACEMENT(#34,#180);
#182=IFCCARTESIANPOINT((4300.,-0.));
#183=IFCPOLYLINE((#4,#182));
#184=IFCSHAPEREPRESENTATION(#23,'Axis','Curve2D',(#183));
#185=IFCCARTESIANPOINT((2150.0000000000009,-3.1974423109204508E-13));
#186=IFCAXIS2PLACEMENT2D(#185,#12);
#187=IFCRECTANGLEPROFILEDEF(.AREA.,$,#186,4300.0000000000018,200.);
#188=IFCAXIS2PLACEMENT3D(#3,$,$);
#189=IFCEXTRUDEDAREASOLID(#187,#188,#9,3000.);
#190=IFCSTYLEDITEM(#189,(#131),$);
#191=IFCSHAPEREPRESENTATION(#24,'Body','SweptSolid',(#189));
#192=IFCPRODUCTDEFINITIONSHAPE($,$,(#184,#191));
#193=IFCWALL('3Vyqk8cSj8TOuAk6zHUwBs',#18,'Basic Wall:Generic - 200mm:1602415',$,'Basic Wall:Generic - 200mm',#181,#192,'1602415',.NOTDEFINED.);
#194=IFCPROPERTYSET('3zFZKkmoyjMir2XJPwM5K5',#18,'Pset_EnvironmentalImpactIndicators',$,(#143));
#195=IFCPROPERTYSINGLEVALUE('Reference',$,IFCLABEL('Generic - 200mm'),$);
#196=IFCPROPERTYSET('24rl2YIcyoi55ChyZCq2G8',#18,'Pset_ReinforcementBarPitchOfWall',$,(#195));
#197=IFCPROPERTYSET('1QO0ZFI0bba_x9VNyujEk0',#18,'Pset_WallCommon',$,(#143,#147,#148,#149));
#198=IFCRELDEFINESBYPROPERTIES('2a9nfObiFdFDL_xI6RB3zY',#18,$,$,(#193),#194);
#199=IFCRELDEFINESBYPROPERTIES('2lgnXdSixHWA271wBKXvqj',#18,$,$,(#193),#196);
#200=IFCRELDEFINESBYPROPERTIES('1XotYCV5aUozGnrkwTWOXu',#18,$,$,(#193),#197);
#201=IFCCARTESIANPOINT((7500.,4600.,0.));
#202=IFCAXIS2PLACEMENT3D(#201,#9,#6);
#203=IFCLOCALPLACEMENT(#34,#202);
#204=IFCCARTESIANPOINT((4700.,0.));
#205=IFCPOLYLINE((#4,#204));
#206=IFCSHAPEREPRESENTATION(#23,'Axis','Curve2D',(#205));
#207=IFCCARTESIANPOINT((2350.,3.5527136788005009E-14));
#208=IFCAXIS2PLACEMENT2D(#207,#12);
#209=IFCRECTANGLEPROFILEDEF(.AREA.,$,#208,4700.,200.);
#210=IFCAXIS2PLACEMENT3D(#3,$,$);
#211=IFCEXTRUDEDAREASOLID(#209,#210,#9,3000.);
#212=IFCSTYLEDITEM(#211,(#131),$);
#213=IFCSHAPEREPRESENTATION(#24,'Body','SweptSolid',(#211));
#214=IFCPRODUCTDEFINITIONSHAPE($,$,(#206,#213));
#215=IFCWALL('3Vyqk8cSj8TOuAk6zHUw89',#18,'Basic Wall:Generic - 200mm:1602448',$,'Basic Wall:Generic - 200mm',#203,#214,'1602448',.NOTDEFINED.);
#216=IFCPROPERTYSET('24uQ0xYWMb2iAICPORaANl',#18,'Pset_EnvironmentalImpactIndicators',$,(#143));
#217=IFCPROPERTYSINGLEVALUE('Reference',$,IFCLABEL('Generic - 200mm'),$);
#218=IFCPROPERTYSET('2NtOS$PXqyXyak0_SUhCNN',#18,'Pset_ReinforcementBarPitchOfWall',$,(#217));
#219=IFCPROPERTYSET('3bKdsx29_RVH62fNRmCncU',#18,'Pset_WallCommon',$,(#143,#147,#148,#149));
#220=IFCRELDEFINESBYPROPERTIES('2OpRam8jxvHM2_75mSf2IS',#18,$,$,(#215),#216);
#221=IFCRELDEFINESBYPROPERTIES('1q8YBDpLYRkwLX2j2Smoto',#18,$,$,(#215),#218);
#222=IFCRELDEFINESBYPROPERTIES('3tUA_y2$R1DIY4ctO4p7G7',#18,$,$,(#215),#219);
#223=IFCCARTESIANPOINT((7600.,200.,0.));
#224=IFCAXIS2PLACEMENT3D(#223,#9,#7);
#225=IFCLOCALPLACEMENT(#34,#224);
#226=IFCCARTESIANPOINT((7900.,-0.));
#227=IFCPOLYLINE((#4,#226));
#228=IFCSHAPEREPRESENTATION(#23,'Axis','Curve2D',(#227));
#229=IFCCARTESIANPOINT((3950.0000000000127,-1.5631940186722204E-13));
#230=IFCAXIS2PLACEMENT2D(#229,#12);
#231=IFCRECTANGLEPROFILEDEF(.AREA.,$,#230,7900.0000000000255,200.);
#232=IFCAXIS2PLACEMENT3D(#3,$,$);
#233=IFCEXTRUDEDAREASOLID(#231,#232,#9,3000.);
#234=IFCSTYLEDITEM(#233,(#131),$);
#235=IFCSHAPEREPRESENTATION(#24,'Body','SweptSolid',(#233));
#236=IFCPRODUCTDEFINITIONSHAPE($,$,(#228,#235));
#237=IFCWALL('3Vyqk8cSj8TOuAk6zHUwMJ',#18,'Basic Wall:Generic - 200mm:1602570',$,'Basic Wall:Generic - 200mm',#225,#236,'1602570',.NOTDEFINED.);
#238=IFCPROPERTYSET('3lnIhEvOuHbjSaKDfZK8k9',#18,'Pset_EnvironmentalImpactIndicators',$,(#143));
#239=IFCPROPERTYSINGLEVALUE('Reference',$,IFCLABEL('Generic - 200mm'),$);
#240=IFCPROPERTYSET('04W1WwOvjm30inH1dChtfP',#18,'Pset_ReinforcementBarPitchOfWall',$,(#239));
#241=IFCPROPERTYSET('3KqX06vgGEOM$38ftOcyqA',#18,'Pset_WallCommon',$,(#143,#147,#148,#149));
#242=IFCRELDEFINESBYPROPERTIES('0S8aOnFU8WcFAwodE0ltd9',#18,$,$,(#237),#238);
#243=IFCRELDEFINESBYPROPERTIES('1tYLw8_V7aeyi7TVjsHYUw',#18,$,$,(#237),#240);
#244=IFCRELDEFINESBYPROPERTIES('1t2sWDc8aJN1HpxUM7WWie',#18,$,$,(#237),#241);
#245=IFCCARTESIANPOINT((7500.,8000.,0.));
#246=IFCAXIS2PLACEMENT3D(#245,#9,#6);
#247=IFCLOCALPLACEMENT(#34,#246);
#248=IFCCARTESIANPOINT((7300.,0.));
#249=IFCPOLYLINE((#4,#248));
#250=IFCSHAPEREPRESENTATION(#23,'Axis','Curve2D',(#249));
#251=IFCCARTESIANPOINT((3650.0000000000005,4.4053649617126212E-13));
#252=IFCAXIS2PLACEMENT2D(#251,#12);
#253=IFCRECTANGLEPROFILEDEF(.AREA.,$,#252,7300.0000000000009,200.);
#254=IFCAXIS2PLACEMENT3D(#3,$,$);
#255=IFCEXTRUDEDAREASOLID(#253,#254,#9,3000.);
#256=IFCSTYLEDITEM(#255,(#131),$);
#257=IFCSHAPEREPRESENTATION(#24,'Body','SweptSolid',(#255));
#258=IFCPRODUCTDEFINITIONSHAPE($,$,(#250,#257));
#259=IFCWALL('3Vyqk8cSj8TOuAk6zHUwNQ',#18,'Basic Wall:Generic - 200mm:1602627',$,'Basic Wall:Generic - 200mm',#247,#258,'1602627',.NOTDEFINED.);
#260=IFCPROPERTYSET('33VNddCdyWuRINW3IN$6wR',#18,'Pset_EnvironmentalImpactIndicators',$,(#143));
#261=IFCPROPERTYSINGLEVALUE('Reference',$,IFCLABEL('Generic - 200mm'),$);
#262=IFCPROPERTYSET('3fo6gcdchLdhUs9OMMjJcK',#18,'Pset_ReinforcementBarPitchOfWall',$,(#261));
#263=IFCPROPERTYSET('365dpoAGwqqh9R$iloiJ6Y',#18,'Pset_WallCommon',$,(#143,#147,#148,#149));
#264=IFCRELDEFINESBYPROPERTIES('2BzMAyBcbgIMAClUNVhX7C',#18,$,$,(#259),#260);
#265=IFCRELDEFINESBYPROPERTIES('2jcjj16uqcySZoq7QPRlFE',#18,$,$,(#259),#262);
#266=IFCRELDEFINESBYPROPERTIES('3JFaQDGEcQuJc$tDFSxPEn',#18,$,$,(#259),#263);
#267=IFCCARTESIANPOINT((2900.,4700.,0.));
#268=IFCAXIS2PLACEMENT3D(#267,#9,#7);
#269=IFCLOCALPLACEMENT(#34,#268);
#270=IFCCARTESIANPOINT((3200.,0.));
#271=IFCPOLYLINE((#4,#270));
#272=IFCSHAPEREPRESENTATION(#23,'Axis','Curve2D',(#271));
#273=IFCCARTESIANPOINT((1600.0000000000127,9.9475983006414026E-14));
#274=IFCAXIS2PLACEMENT2D(#273,#12);
#275=IFCRECTANGLEPROFILEDEF(.AREA.,$,#274,3200.0000000000255,200.);
#276=IFCAXIS2PLACEMENT3D(#3,$,$);
#277=IFCEXTRUDEDAREASOLID(#275,#276,#9,3000.);
#278=IFCSTYLEDITEM(#277,(#131),$);
#279=IFCSHAPEREPRESENTATION(#24,'Body','SweptSolid',(#277));
#280=IFCPRODUCTDEFINITIONSHAPE($,$,(#272,#279));
#281=IFCWALL('3Vyqk8cSj8TOuAk6zHUwIV',#18,'Basic Wall:Generic - 200mm:1602822',$,'Basic Wall:Generic - 200mm',#269,#280,'1602822',.NOTDEFINED.);
#282=IFCPROPERTYSET('3jiZGkAKUu2Am_YLPx8Ihp',#18,'Pset_EnvironmentalImpactIndicators',$,(#143));
#283=IFCPROPERTYSINGLEVALUE('Reference',$,IFCLABEL('Generic - 200mm'),$);
#284=IFCPROPERTYSET('0I2vFcCwzFIqXYuiAJMRoI',#18,'Pset_ReinforcementBarPitchOfWall',$,(#283));
#285=IFCPROPERTYSET('3oaDZ6ll2ApuPGw0$rKaRm',#18,'Pset_WallCommon',$,(#143,#147,#148,#149));
#286=IFCRELDEFINESBYPROPERTIES('3sUTm1e5PvbSM1LkCWEcnc',#18,$,$,(#281),#282);
#287=IFCRELDEFINESBYPROPERTIES('2PBm19nyIDk_wgMh7oZ7kn',#18,$,$,(#281),#284);
#288=IFCRELDEFINESBYPROPERTIES('1puf9ZxLtpuD$z2essXrIy',#18,$,$,(#281),#285);
#289=IFCPROPERTYSINGLEVALUE('Reference',$,IFCIDENTIFIER('8mm Head'),$);
#290=IFCPROPERTYSINGLEVALUE('AboveGround',$,IFCLOGICAL(.U.),$);
#291=IFCPROPERTYSET('16L50AfyZF4hYq5TGET4H4',#18,'Pset_BuildingStoreyCommon',$,(#289,#290));
#292=IFCPROPERTYSET('2J7ac_h5ujdwWuzVwBIIta',#18,'Pset_SpaceCommon',$,(#45,#289));
#293=IFCRELDEFINESBYPROPERTIES('2VdfSfkgzGoZi_3SgzE8$0',#18,$,$,(#35),#291);
#294=IFCRELDEFINESBYPROPERTIES('3$YdOpA8iaPobC8MDiWxoI',#18,$,$,(#35),#292);
#295=IFCRELCONTAINEDINSPATIALSTRUCTURE('2JF4e6axWHqu3u0C5FZlmi',#18,$,$,(#135,#171,#193,#215,#237,#259,#281),#35);
#296=IFCPROPERTYSET('1n34enW33Z_3Qq2Pm1kjQZ',#18,'Pset_BuildingStoreyCommon',$,(#289,#290));
#297=IFCPROPERTYSET('0qNc4$IaPwTvoqOd7IlIE4',#18,'Pset_SpaceCommon',$,(#45,#289));
#298=IFCRELDEFINESBYPROPERTIES('36oM8gyLQ5_Z6XoGK5uP1E',#18,$,$,(#39),#296);
#299=IFCRELDEFINESBYPROPERTIES('0jA6Vdz$3CfPvu_I1iTL6J',#18,$,$,(#39),#297);
#300=IFCRELAGGREGATES('2KFB6YYWgXBmucZ8cm7uCP',#18,$,$,#27,(#42));
#301=IFCRELAGGREGATES('16_hfJTeCqU7LcG8m10BTS',#18,$,$,#42,(#32));
#302=IFCRELAGGREGATES('2JF4e6axWHqu3u0C9FZlmi',#18,$,$,#35,(#75,#94,#111));
#303=IFCRELAGGREGATES('1yhDISh1T5aQqAoygxGIhP',#18,$,$,#32,(#35,#39));
#304=IFCPROPERTYSINGLEVALUE('NumberOfStoreys',$,IFCCOUNTMEASURE(1),$);
#305=IFCPROPERTYSINGLEVALUE('IsLandmarked',$,IFCLOGICAL(.U.),$);
#306=IFCPROPERTYSET('01y_GmllCupEYuBgfGbhkd',#18,'Pset_BuildingCommon',$,(#43,#304,#305));
#307=IFCPROPERTYSET('1rUR7OGyIAkZT62xvibLnd',#18,'Pset_BuildingElementProxyCommon',$,(#43,#45));
#308=IFCPROPERTYSET('2kFDjjfIaTsBi7MLK$i$Me',#18,'Pset_BuildingStoreyCommon',$,(#43,#290));
#309=IFCPROPERTYSET('1TYvb3FgH88mtl04iE5P1T',#18,'Pset_BuildingSystemCommon',$,(#43));
#310=IFCPROPERTYSET('2W94HCj5xfigmNGtkBMklk',#18,'Pset_SpaceCommon',$,(#43,#45));
#311=IFCRELDEFINESBYPROPERTIES('0vDjba2fshDEh0_KufwWht',#18,$,$,(#32),#306);
#312=IFCRELDEFINESBYPROPERTIES('1V6UQfELB4oPy3GPEaJMPw',#18,$,$,(#32),#307);
#313=IFCRELDEFINESBYPROPERTIES('0Vpd75HttOMIhzXutBGgCt',#18,$,$,(#32),#308);
#314=IFCRELDEFINESBYPROPERTIES('22VMRBFW9n6_S81yWIP225',#18,$,$,(#32),#309);
#315=IFCRELDEFINESBYPROPERTIES('2w3bzVlKnfBVjA3_BjG2II',#18,$,$,(#32),#310);
#316=IFCRELASSOCIATESMATERIAL('22T9r9KB1F3JFgePfxkUGp',#18,$,$,(#135,#142,#171,#193,#215,#237,#259,#281),#141);
#317=IFCRELDEFINESBYTYPE('0JdjezzMIlIvixrtf6pHxY',#18,$,$,(#75),#76);
#318=IFCRELDEFINESBYTYPE('3G1mVd269BjTZDPBR_Hu$r',#18,$,$,(#94),#95);
#319=IFCRELDEFINESBYTYPE('2v$fNUorBqpRD0e3xhQU6W',#18,$,$,(#111),#112);
#320=IFCRELDEFINESBYTYPE('0MSq_ijuC5q4PUKv4QkOsA',#18,$,$,(#135,#171,#193,#215,#237,#259,#281),#142);
#321=IFCRELCONNECTSPATHELEMENTS('3ugK07sTRHPQgCANXzjPel',#18,'3Vyqk8cSj8TOuAk6zHUwAt|3Vyqk8cSj8TOuAk6zHUwNQ','Structural',$,#135,#259,(),(),.ATEND.,.ATSTART.);
#322=IFCRELCONNECTSPATHELEMENTS('23XeiboBqsTJYQlvX$RKBJ',#18,'3Vyqk8cSj8TOuAk6zHUwAt|3Vyqk8cSj8TOuAk6zHUwAc','Structural',$,#135,#171,(),(),.ATSTART.,.ATEND.);
#323=IFCRELCONNECTSPATHELEMENTS('3w3LufOHNrl72DM5FS5dUv',#18,'3Vyqk8cSj8TOuAk6zHUwAc|3Vyqk8cSj8TOuAk6zHUwMJ','Structural',$,#171,#237,(),(),.ATSTART.,.ATEND.);
#324=IFCRELCONNECTSPATHELEMENTS('3w2mhh8$Qd3TKIO$dCpCi4',#18,'3Vyqk8cSj8TOuAk6zHUwAc|3Vyqk8cSj8TOuAk6zHUwBs','Structural',$,#171,#193,(),(),.ATSTART.,.ATPATH.);
#325=IFCRELCONNECTSPATHELEMENTS('0_q_49R4Mso9ITEEZ476Ni',#18,'3Vyqk8cSj8TOuAk6zHUwBs|3Vyqk8cSj8TOuAk6zHUw89','Structural',$,#193,#215,(),(),.ATPATH.,.ATEND.);
#326=IFCRELCONNECTSPATHELEMENTS('2KmZM0_8Zn2586TzeqsUBp',#18,'3Vyqk8cSj8TOuAk6zHUw89|3Vyqk8cSj8TOuAk6zHUwMJ','Structural',$,#215,#237,(),(),.ATPATH.,.ATSTART.);
#327=IFCRELCONNECTSPATHELEMENTS('3A1VXDddu2dMWLGDKRGLxr',#18,'3Vyqk8cSj8TOuAk6zHUw89|3Vyqk8cSj8TOuAk6zHUwIV','Structural',$,#215,#281,(),(),.ATSTART.,.ATEND.);
#328=IFCRELCONNECTSPATHELEMENTS('0LaT41zAAAo8nacED5QZkK',#18,'3Vyqk8cSj8TOuAk6zHUwMJ|3Vyqk8cSj8TOuAk6zHUwNQ','Structural',$,#237,#259,(),(),.ATSTART.,.ATEND.);
#329=IFCRELCONNECTSPATHELEMENTS('3QFR4dIqUEv2wepHC$0Iqu',#18,'3Vyqk8cSj8TOuAk6zHUwNQ|3Vyqk8cSj8TOuAk6zHUwIV','Structural',$,#259,#281,(),(),.ATEND.,.ATPATH.);
#330=IFCPRESENTATIONLAYERASSIGNMENT('A-AREA-____-OTLN',$,(#73,#92,#109),$);
#331=IFCPRESENTATIONLAYERASSIGNMENT('A-WALL-____-OTLN',$,(#123,#133,#162,#169,#184,#191,#206,#213,#228,#235,#250,#257,#272,#279),$);
#332=IFCRELASSOCIATESCLASSIFICATION('2mNchzfGWDr_AK3qpy_v$I',#18,'Exterior Walls','Exterior Walls:B2010',(#135,#171,#193,#215,#237,#259,#281),#154);
#333=IFCUNITASSIGNMENT((#19,#71,#72));
ENDSEC;

END-ISO-10303-21;