ISO-10303-21;
HEADER;
FILE_DESCRIPTION(('ViewDefinition [CoordinationView]','RevitIdentifiers [ContentGUID: cbb0ae2e-6350-4225-8ca4-af668662c38d, VersionGUID: f4a591a5-a2c7-40e1-9a46-724069d90b66, NumberOfSaves: 38]','CoordinateReference [CoordinateBase: Shared Coordinates]'),'2;1');
FILE_NAME('01_03_016.ifc','2026-01-13T10:05:02+01:00',(''),(''),'ODA SDAI 24.6','Autodesk Revit 24.3.30.11 (ENU) - IFC 24.3.30.11','');
FILE_SCHEMA(('IFC4X3'));
ENDSEC;

DATA;
#1=IFCORGANIZATION($,'Autodesk Revit 2024 (ENU)',$,$,$);
#2=IFCAPPLICATION(#1,'2024','Autodesk Revit 2024 (ENU)','Revit');
#3=IFCCARTESIANPOINT((0.,0.,0.));
#4=IFCCARTESIANPOINT((0.,0.));
#5=IFCDIRECTION((1.,0.,0.));
#6=IFCDIRECTION((-1.,0.,0.));
#7=IFCDIRECTION((0.,1.,0.));
#8=IFCDIRECTION((0.,-1.,0.));
#9=IFCDIRECTION((0.,0.,1.));
#10=IFCDIRECTION((0.,0.,-1.));
#11=IFCDIRECTION((1.,0.));
#12=IFCDIRECTION((-1.,0.));
#13=IFCDIRECTION((0.,1.));
#14=IFCDIRECTION((0.,-1.));
#15=IFCPERSON($,'','h.helming',$,$,$,$,$);
#16=IFCORGANIZATION($,'Organization Name','Organization Description',$,$);
#17=IFCPERSONANDORGANIZATION(#15,#16,$);
#18=IFCOWNERHISTORY(#17,#2,$,.NOCHANGE.,$,$,$,1767813174);
#19=IFCSIUNIT(*,.LENGTHUNIT.,.MILLI.,.METRE.);
#20=IFCAXIS2PLACEMENT3D(#3,$,$);
#21=IFCDIRECTION((6.1230317691118863E-17,1.));
#22=IFCGEOMETRICREPRESENTATIONCONTEXT($,'Model',3,0.01,#20,#21);
#23=IFCGEOMETRICREPRESENTATIONSUBCONTEXT('Axis','Model',*,*,*,*,#22,$,.GRAPH_VIEW.,$);
#24=IFCGEOMETRICREPRESENTATIONSUBCONTEXT('Body','Model',*,*,*,*,#22,$,.MODEL_VIEW.,$);
#25=IFCGEOMETRICREPRESENTATIONSUBCONTEXT('Box','Model',*,*,*,*,#22,$,.MODEL_VIEW.,$);
#26=IFCGEOMETRICREPRESENTATIONSUBCONTEXT('FootPrint','Model',*,*,*,*,#22,$,.MODEL_VIEW.,$);
#27=IFCPROJECT('3BiAukOr129OoahsPvdJnz',#18,'Project Number',$,$,'Project Name','Project Status',(#22),#507);
#28=IFCCLASSIFICATION('CSI (Construction Specifications Institute)','1998',$,'Uniformat','UniFormat Classification','https://www.csiresources.org/standards/uniformat',$);
#29=IFCAXIS2PLACEMENT3D(#3,$,$);
#30=IFCLOCALPLACEMENT(#41,#29);
#31=IFCPOSTALADDRESS($,$,$,$,('Enter address hereAddress Line 2'),$,'','Boston','','MA');
#32=IFCBUILDING('3BiAukOr129OoahsPvdJny',#18,'Building Name',$,$,#30,$,'Building Name',.ELEMENT.,$,$,#31);
#33=IFCAXIS2PLACEMENT3D(#3,$,$);
#34=IFCLOCALPLACEMENT(#30,#33);
#35=IFCBUILDINGSTOREY('2JF4e6axWHqu3u0C1FZlmi',#18,'L1',$,'Level:8mm Head',#34,$,'L1',.ELEMENT.,0.);
#36=IFCCARTESIANPOINT((0.,0.,3000.));
#37=IFCAXIS2PLACEMENT3D(#36,$,$);
#38=IFCLOCALPLACEMENT(#30,#37);
#39=IFCBUILDINGSTOREY('1ZGO8hrFCHqw0v0026FpFv',#18,'L2',$,'Level:8mm Head',#38,$,'L2',.ELEMENT.,3000.);
#40=IFCAXIS2PLACEMENT3D(#3,$,$);
#41=IFCLOCALPLACEMENT($,#40);
#42=IFCSITE('3BiAukOr129OoahsPvdJn$',#18,'Default',$,$,#41,$,$,.ELEMENT.,(42,21,31,401672),(-71,-3,-24,-345703),0.,$,$);
#43=IFCPROPERTYSINGLEVALUE('Reference',$,IFCIDENTIFIER('Project Information'),$);
#44=IFCPROPERTYSET('2mFJcO6I01h0OYRLOICO3c',#18,'Pset_SiteCommon',$,(#43));
#45=IFCPROPERTYSINGLEVALUE('IsExternal',$,IFCBOOLEAN(.F.),$);
#46=IFCPROPERTYSET('0O$B2PbAODr9jYnpcaZGJT',#18,'Pset_SpaceCommon',$,(#43,#45));
#47=IFCRELDEFINESBYPROPERTIES('2fDrcjst0HFayqQ3dY1cGQ',#18,$,$,(#42),#44);
#48=IFCRELDEFINESBYPROPERTIES('1lYkP70lXSGXnZeJnLC8MY',#18,$,$,(#42),#46);
#55=IFCCARTESIANPOINT((100.,0.,0.));
#56=IFCAXIS2PLACEMENT3D(#55,#9,#7);
#57=IFCLOCALPLACEMENT(#34,#56);
#58=IFCCARTESIANPOINT((6500.,-0.));
#59=IFCPOLYLINE((#4,#58));
#60=IFCSHAPEREPRESENTATION(#23,'Axis','Curve2D',(#59));
#61=IFCSIUNIT(*,.AREAUNIT.,$,.SQUARE_METRE.);
#62=IFCCARTESIANPOINT((3250.0000000000018,1.4210854715202004E-14));
#63=IFCAXIS2PLACEMENT2D(#62,#12);
#64=IFCRECTANGLEPROFILEDEF(.AREA.,$,#63,6500.0000000000036,200.);
#65=IFCAXIS2PLACEMENT3D(#3,$,$);
#66=IFCEXTRUDEDAREASOLID(#64,#65,#9,2700.);
#67=IFCCARTESIANPOINT((200.,-0.));
#68=IFCCARTESIANPOINT((5550.,0.));
#69=IFCCARTESIANPOINT((6300.,0.));
#70=IFCCARTESIANPOINT((6500.,0.));
#71=IFCCARTESIANPOINT((6500.,200.));
#72=IFCCARTESIANPOINT((0.,200.));
#73=IFCPOLYLINE((#4,#67,#68,#69,#70,#71,#72,#4));
#74=IFCCARTESIANPOINT((-0.,-100.,2700.));
#75=IFCAXIS2PLACEMENT3D(#74,#10,#8);
#76=IFCPLANE(#75);
#77=IFCCARTESIANPOINT((-0.,-100.,2700.));
#78=IFCAXIS2PLACEMENT3D(#77,$,$);
#79=IFCPOLYGONALBOUNDEDHALFSPACE(#76,.T.,#78,#73);
#80=IFCBOOLEANCLIPPINGRESULT(.DIFFERENCE.,#66,#79);
#81=IFCCOLOURRGB($,0.75294117647058822,0.75294117647058822,0.75294117647058822);
#82=IFCSURFACESTYLERENDERING(#81,0.,$,$,$,$,IFCNORMALISEDRATIOMEASURE(0.5),IFCSPECULAREXPONENT(10.),.NOTDEFINED.);
#83=IFCSURFACESTYLE('Default Wall',.BOTH.,(#82));
#84=IFCSTYLEDITEM(#66,(#83),$);
#85=IFCSHAPEREPRESENTATION(#24,'Body','Clipping',(#80));
#86=IFCPRODUCTDEFINITIONSHAPE($,$,(#60,#85));
#87=IFCWALL('1YYXjRkjn7ywhxb576N3eK',#18,'Basic Wall:Generic - 200mm:1602385',$,'Basic Wall:Generic - 200mm',#57,#86,'1602385',.NOTDEFINED.);
#88=IFCMATERIAL('Default Wall',$,'Miscellaneous');
#89=IFCSTYLEDITEM($,(#83),$);
#90=IFCSTYLEDREPRESENTATION(#22,'Style','Material',(#89));
#91=IFCMATERIALDEFINITIONREPRESENTATION($,$,(#90),#88);
#92=IFCMATERIALLAYER(#88,200.,$,'Layer',$,'Miscellaneous',$);
#93=IFCMATERIALLAYERSET((#92),'Basic Wall:Generic - 200mm',$);
#94=IFCWALLTYPE('1xZrMVYp52mhf4uMzw11Hk',#18,'Basic Wall:Generic - 200mm',$,$,(#108),$,'441451',$,.STANDARD.);
#95=IFCPROPERTYSINGLEVALUE('Reference',$,IFCIDENTIFIER('Generic - 200mm'),$);
#96=IFCPROPERTYSET('0juZ2zVTtOUVHL25Qgbt_I',#18,'Pset_EnvironmentalImpactIndicators',$,(#95));
#97=IFCPROPERTYSINGLEVALUE('Reference',$,IFCLABEL('Generic - 200mm'),$);
#98=IFCPROPERTYSET('2OqcSaxiEjZzlPjzKgka_8',#18,'Pset_ReinforcementBarPitchOfWall',$,(#97));
#99=IFCPROPERTYSINGLEVALUE('IsExternal',$,IFCBOOLEAN(.T.),$);
#100=IFCPROPERTYSINGLEVALUE('LoadBearing',$,IFCBOOLEAN(.F.),$);
#101=IFCPROPERTYSINGLEVALUE('ExtendToStructure',$,IFCBOOLEAN(.T.),$);
#102=IFCPROPERTYSET('1IzhE5aHgeynMp0lTpnK3h',#18,'Pset_WallCommon',$,(#95,#99,#100,#101));
#103=IFCRELDEFINESBYPROPERTIES('2nTGj5xRSolTF2p0fJUMgi',#18,$,$,(#87),#96);
#104=IFCRELDEFINESBYPROPERTIES('0mRif1AcXeVF0qzpmbKDS2',#18,$,$,(#87),#98);
#105=IFCRELDEFINESBYPROPERTIES('2_iiiInavkyT5cC6v9Q9oc',#18,$,$,(#87),#102);
#106=IFCCLASSIFICATIONREFERENCE('https://www.csiresources.org/standards/uniformat','B2010','Exterior Walls',#28,'',$);
#107=IFCPROPERTYSINGLEVALUE('Description',$,IFCTEXT('Generic Wall (Material By Category), 200mm thick'),$);
#108=IFCPROPERTYSET('2L7lvTstnIeeydfwzfZZLR',#18,'Pset_ReinforcementBarPitchOfWall',$,(#107));
#109=IFCCARTESIANPOINT((200.,6400.,0.));
#110=IFCAXIS2PLACEMENT3D(#109,$,$);
#111=IFCLOCALPLACEMENT(#34,#110);
#112=IFCCARTESIANPOINT((3100.,0.));
#113=IFCPOLYLINE((#4,#112));
#114=IFCSHAPEREPRESENTATION(#23,'Axis','Curve2D',(#113));
#115=IFCCARTESIANPOINT((1550.0000000000005,1.4210854715202004E-14));
#116=IFCAXIS2PLACEMENT2D(#115,#12);
#117=IFCRECTANGLEPROFILEDEF(.AREA.,$,#116,3100.0000000000009,200.);
#118=IFCAXIS2PLACEMENT3D(#3,$,$);
#119=IFCEXTRUDEDAREASOLID(#117,#118,#9,2700.);
#120=IFCCARTESIANPOINT((2900.,0.));
#121=IFCCARTESIANPOINT((3100.,0.));
#122=IFCCARTESIANPOINT((3100.,200.));
#123=IFCCARTESIANPOINT((-0.,200.));
#124=IFCPOLYLINE((#4,#120,#121,#122,#123,#4));
#125=IFCCARTESIANPOINT((0.,-100.,2700.));
#126=IFCAXIS2PLACEMENT3D(#125,#10,#5);
#127=IFCPLANE(#126);
#128=IFCCARTESIANPOINT((0.,-100.,2700.));
#129=IFCAXIS2PLACEMENT3D(#128,$,$);
#130=IFCPOLYGONALBOUNDEDHALFSPACE(#127,.T.,#129,#124);
#131=IFCBOOLEANCLIPPINGRESULT(.DIFFERENCE.,#119,#130);
#132=IFCSTYLEDITEM(#119,(#83),$);
#133=IFCSHAPEREPRESENTATION(#24,'Body','Clipping',(#131));
#134=IFCPRODUCTDEFINITIONSHAPE($,$,(#114,#133));
#135=IFCWALL('1YYXjRkjn7ywhxb576N3hM',#18,'Basic Wall:Generic - 200mm:1602451',$,'Basic Wall:Generic - 200mm',#111,#134,'1602451',.NOTDEFINED.);
#136=IFCAXIS2PLACEMENT3D(#149,$,$);
#138=IFCCARTESIANPOINT((0.,2.2737367544323206E-13));
#139=IFCAXIS2PLACEMENT2D(#138,#11);
#140=IFCRECTANGLEPROFILEDEF(.AREA.,$,#139,1600.,2399.9999999999995);
#141=IFCCARTESIANPOINT((1200.,0.,800.));
#142=IFCAXIS2PLACEMENT3D(#141,#7,#10);
#143=IFCEXTRUDEDAREASOLID(#140,#142,#9,200.);
#144=IFCSIUNIT(*,.PLANEANGLEUNIT.,$,.RADIAN.);
#145=IFCDIMENSIONALEXPONENTS(0,0,0,0,0,0,0);
#146=IFCMEASUREWITHUNIT(IFCPLANEANGLEMEASURE(0.017453292519943278),#144);
#147=IFCCONVERSIONBASEDUNIT(#145,.PLANEANGLEUNIT.,'DEGREE',#146);
#148=IFCSHAPEREPRESENTATION(#24,'Body','SweptSolid',(#143));
#149=IFCCARTESIANPOINT((240.,-100.,900.));
#150=IFCPRODUCTDEFINITIONSHAPE($,$,(#148));
#151=IFCCARTESIANPOINT((240.,-100.,900.));
#152=IFCAXIS2PLACEMENT3D(#151,$,$);
#153=IFCLOCALPLACEMENT(#111,#152);
#154=IFCOPENINGELEMENT('0bZ1dmlPcQkDiPF2ebFTcu',#18,'Basic Wall:Generic - 200mm:1602451',$,$,#153,#150,'1604424',.OPENING.);
#155=IFCRELVOIDSELEMENT('0lXr1u7fwNegdIDkUGV7$M',#18,$,$,#135,#154);
#156=IFCPROPERTYSET('3uu3GJMidLCcA4F6Hv6BG9',#18,'Pset_EnvironmentalImpactIndicators',$,(#95));
#157=IFCPROPERTYSINGLEVALUE('Reference',$,IFCLABEL('Generic - 200mm'),$);
#158=IFCPROPERTYSET('0Fq4d35XNi$pPQoixngibh',#18,'Pset_ReinforcementBarPitchOfWall',$,(#157));
#159=IFCPROPERTYSET('2uz4Zj0E3PezheMaz1kRZH',#18,'Pset_WallCommon',$,(#95,#99,#100,#101));
#160=IFCPROPERTYSET('2wy8dg_3F_tZ0kxmPOz7u6',#18,'Pset_EnvironmentalImpactIndicators',$,(#95));
#161=IFCPROPERTYSET('3nZtyvZeHrTX9B8q5y4BEb',#18,'Pset_OpeningElementCommon',$,(#95));
#162=IFCRELDEFINESBYPROPERTIES('0zGAwizVghrvuhTdkWAi9$',#18,$,$,(#135),#156);
#163=IFCRELDEFINESBYPROPERTIES('0$OuxHvwzb2bcsgwKYIqml',#18,$,$,(#135),#158);
#164=IFCRELDEFINESBYPROPERTIES('2BWN7stCl8tPRiZmOC2Gi2',#18,$,$,(#135),#159);
#165=IFCRELDEFINESBYPROPERTIES('31yMRtoJNtJQiufvkEbOLT',#18,$,$,(#154),#160);
#166=IFCRELDEFINESBYPROPERTIES('1B5WWoTxXaF_Tt3HCnsX_9',#18,$,$,(#154),#161);
#167=IFCCARTESIANPOINT((5400.,3500.,0.));
#168=IFCAXIS2PLACEMENT3D(#167,#9,#8);
#169=IFCLOCALPLACEMENT(#34,#168);
#170=IFCCARTESIANPOINT((3500.,0.));
#171=IFCPOLYLINE((#4,#170));
#172=IFCSHAPEREPRESENTATION(#23,'Axis','Curve2D',(#171));
#173=IFCCARTESIANPOINT((1750.0000000000011,2.1316282072803006E-13));
#174=IFCAXIS2PLACEMENT2D(#173,#12);
#175=IFCRECTANGLEPROFILEDEF(.AREA.,$,#174,3500.0000000000023,200.);
#176=IFCAXIS2PLACEMENT3D(#3,$,$);
#177=IFCEXTRUDEDAREASOLID(#175,#176,#9,2700.);
#178=IFCCARTESIANPOINT((200.,0.));
#179=IFCCARTESIANPOINT((3300.,0.));
#180=IFCCARTESIANPOINT((3500.,0.));
#181=IFCCARTESIANPOINT((3500.,200.));
#182=IFCCARTESIANPOINT((0.,200.));
#183=IFCPOLYLINE((#4,#178,#179,#180,#181,#182,#4));
#184=IFCCARTESIANPOINT((0.,-100.,2700.));
#185=IFCAXIS2PLACEMENT3D(#184,#10,#7);
#186=IFCPLANE(#185);
#187=IFCCARTESIANPOINT((0.,-100.,2700.));
#188=IFCAXIS2PLACEMENT3D(#187,$,$);
#189=IFCPOLYGONALBOUNDEDHALFSPACE(#186,.T.,#188,#183);
#190=IFCBOOLEANCLIPPINGRESULT(.DIFFERENCE.,#177,#189);
#191=IFCSTYLEDITEM(#177,(#83),$);
#192=IFCSHAPEREPRESENTATION(#24,'Body','Clipping',(#190));
#193=IFCPRODUCTDEFINITIONSHAPE($,$,(#172,#192));
#194=IFCWALL('1YYXjRkjn7ywhxb576N3gT',#18,'Basic Wall:Generic - 200mm:1602520',$,'Basic Wall:Generic - 200mm',#169,#193,'1602520',.NOTDEFINED.);
#195=IFCAXIS2PLACEMENT3D(#204,$,$);
#197=IFCCARTESIANPOINT((0.,0.));
#198=IFCAXIS2PLACEMENT2D(#197,#11);
#199=IFCRECTANGLEPROFILEDEF(.AREA.,$,#198,2000.0000000000002,999.99999999999898);
#200=IFCCARTESIANPOINT((-500.,0.,1000.));
#201=IFCAXIS2PLACEMENT3D(#200,#7,#10);
#202=IFCEXTRUDEDAREASOLID(#199,#201,#9,200.);
#203=IFCSHAPEREPRESENTATION(#24,'Body','SweptSolid',(#202));
#204=IFCCARTESIANPOINT((2900.,-100.,500.));
#205=IFCPRODUCTDEFINITIONSHAPE($,$,(#203));
#206=IFCCARTESIANPOINT((2900.,-100.,500.));
#207=IFCAXIS2PLACEMENT3D(#206,$,$);
#208=IFCLOCALPLACEMENT(#169,#207);
#209=IFCOPENINGELEMENT('2J3JLNWw7PEAyUkF6rwTIF',#18,'Basic Wall:Generic - 200mm:1602520',$,$,#208,#205,'1604795',.OPENING.);
#210=IFCRELVOIDSELEMENT('1YsQlLFI9nJwjzE5wS$csb',#18,$,$,#194,#209);
#211=IFCPROPERTYSET('13hzfV$A2z3mo7bielgzBw',#18,'Pset_EnvironmentalImpactIndicators',$,(#95));
#212=IFCPROPERTYSINGLEVALUE('Reference',$,IFCLABEL('Generic - 200mm'),$);
#213=IFCPROPERTYSET('0$SVSPVBLoQeaLXt4UpGeB',#18,'Pset_ReinforcementBarPitchOfWall',$,(#212));
#214=IFCPROPERTYSET('1GfUufRn87WWk1lXFWSQJX',#18,'Pset_WallCommon',$,(#95,#99,#100,#101));
#215=IFCPROPERTYSET('2MrV95jmqWKbnyO6T1CNHT',#18,'Pset_EnvironmentalImpactIndicators',$,(#95));
#216=IFCPROPERTYSET('33XGLKSI7HhwF0icPaxDKB',#18,'Pset_OpeningElementCommon',$,(#95));
#217=IFCRELDEFINESBYPROPERTIES('3tnFyv4t940k10g2YzRyPv',#18,$,$,(#194),#211);
#218=IFCRELDEFINESBYPROPERTIES('3BPNnVG$gi0clX2YAt484E',#18,$,$,(#194),#213);
#219=IFCRELDEFINESBYPROPERTIES('1dfThfdLOitLpVO6TgBS8K',#18,$,$,(#194),#214);
#220=IFCRELDEFINESBYPROPERTIES('2E_3yxAuOE0zPXcz07$v0Y',#18,$,$,(#209),#215);
#221=IFCRELDEFINESBYPROPERTIES('3v62$pdcHEMCvC$ltcBVuj',#18,$,$,(#209),#216);
#222=IFCCARTESIANPOINT((5300.,100.,0.));
#223=IFCAXIS2PLACEMENT3D(#222,#9,#6);
#224=IFCLOCALPLACEMENT(#34,#223);
#225=IFCCARTESIANPOINT((5100.,0.));
#226=IFCPOLYLINE((#4,#225));
#227=IFCSHAPEREPRESENTATION(#23,'Axis','Curve2D',(#226));
#228=IFCCARTESIANPOINT((2550.,1.4210854715202004E-14));
#229=IFCAXIS2PLACEMENT2D(#228,#12);
#230=IFCRECTANGLEPROFILEDEF(.AREA.,$,#229,5100.,200.);
#231=IFCAXIS2PLACEMENT3D(#3,$,$);
#232=IFCEXTRUDEDAREASOLID(#230,#231,#9,2700.);
#233=IFCCARTESIANPOINT((5100.,0.));
#234=IFCCARTESIANPOINT((5100.,200.));
#235=IFCCARTESIANPOINT((-0.,200.));
#236=IFCPOLYLINE((#4,#233,#234,#235,#4));
#237=IFCCARTESIANPOINT((0.,-100.,2700.));
#238=IFCAXIS2PLACEMENT3D(#237,#10,#6);
#239=IFCPLANE(#238);
#240=IFCCARTESIANPOINT((0.,-100.,2700.));
#241=IFCAXIS2PLACEMENT3D(#240,$,$);
#242=IFCPOLYGONALBOUNDEDHALFSPACE(#239,.T.,#241,#236);
#243=IFCBOOLEANCLIPPINGRESULT(.DIFFERENCE.,#232,#242);
#244=IFCSTYLEDITEM(#232,(#83),$);
#245=IFCSHAPEREPRESENTATION(#24,'Body','Clipping',(#243));
#246=IFCPRODUCTDEFINITIONSHAPE($,$,(#227,#245));
#247=IFCWALL('1YYXjRkjn7ywhxb576N3rZ',#18,'Basic Wall:Generic - 200mm:1602598',$,'Basic Wall:Generic - 200mm',#224,#246,'1602598',.NOTDEFINED.);
#248=IFCPROPERTYSET('2wUNWj0dn9keOIgz2eUTeA',#18,'Pset_EnvironmentalImpactIndicators',$,(#95));
#249=IFCPROPERTYSINGLEVALUE('Reference',$,IFCLABEL('Generic - 200mm'),$);
#250=IFCPROPERTYSET('2aZLjBxptCBRrQWpev6$DL',#18,'Pset_ReinforcementBarPitchOfWall',$,(#249));
#251=IFCPROPERTYSET('21kuThpxjEnNsqaOt3N_BO',#18,'Pset_WallCommon',$,(#95,#99,#100,#101));
#252=IFCRELDEFINESBYPROPERTIES('3$9AG9UXDadw3TGMymydrJ',#18,$,$,(#247),#248);
#253=IFCRELDEFINESBYPROPERTIES('3$4YQWN3pU9664G6AdAqPT',#18,$,$,(#247),#250);
#254=IFCRELDEFINESBYPROPERTIES('1_xXbtea8BBckKrMj7q53$',#18,$,$,(#247),#251);
#255=IFCCARTESIANPOINT((3200.,6300.,0.));
#256=IFCAXIS2PLACEMENT3D(#255,#9,#8);
#257=IFCLOCALPLACEMENT(#34,#256);
#258=IFCCARTESIANPOINT((3000.,0.));
#259=IFCPOLYLINE((#4,#258));
#260=IFCSHAPEREPRESENTATION(#23,'Axis','Curve2D',(#259));
#261=IFCCARTESIANPOINT((1500.0000000000007,1.2789769243681803E-13));
#262=IFCAXIS2PLACEMENT2D(#261,#12);
#263=IFCRECTANGLEPROFILEDEF(.AREA.,$,#262,3000.0000000000014,200.);
#264=IFCAXIS2PLACEMENT3D(#3,$,$);
#265=IFCEXTRUDEDAREASOLID(#263,#264,#9,2700.0000000000009);
#266=IFCCARTESIANPOINT((750.,0.));
#267=IFCCARTESIANPOINT((2800.,0.));
#268=IFCCARTESIANPOINT((3000.,0.));
#269=IFCCARTESIANPOINT((3000.,200.));
#270=IFCCARTESIANPOINT((2800.,200.));
#271=IFCCARTESIANPOINT((0.,200.));
#272=IFCPOLYLINE((#4,#266,#267,#268,#269,#270,#271,#4));
#273=IFCCARTESIANPOINT((0.,-100.,2700.));
#274=IFCAXIS2PLACEMENT3D(#273,#10,#7);
#275=IFCPLANE(#274);
#276=IFCCARTESIANPOINT((0.,-100.,2700.));
#277=IFCAXIS2PLACEMENT3D(#276,$,$);
#278=IFCPOLYGONALBOUNDEDHALFSPACE(#275,.T.,#277,#272);
#279=IFCBOOLEANCLIPPINGRESULT(.DIFFERENCE.,#265,#278);
#280=IFCSTYLEDITEM(#265,(#83),$);
#281=IFCSHAPEREPRESENTATION(#24,'Body','Clipping',(#279));
#282=IFCPRODUCTDEFINITIONSHAPE($,$,(#260,#281));
#283=IFCWALL('1YYXjRkjn7ywhxb576N3nB',#18,'Basic Wall:Generic - 200mm:1602830',$,'Basic Wall:Generic - 200mm',#257,#282,'1602830',.NOTDEFINED.);
#284=IFCPROPERTYSET('1o$8fgywgJTY2eDHr6N7ZE',#18,'Pset_EnvironmentalImpactIndicators',$,(#95));
#285=IFCPROPERTYSINGLEVALUE('Reference',$,IFCLABEL('Generic - 200mm'),$);
#286=IFCPROPERTYSET('3X0oX5hLjpCKLv3i2zjoO8',#18,'Pset_ReinforcementBarPitchOfWall',$,(#285));
#287=IFCPROPERTYSET('1lrGgbv4Ms7g0qUr4mFjIZ',#18,'Pset_WallCommon',$,(#95,#99,#100,#101));
#288=IFCRELDEFINESBYPROPERTIES('32lyAoLLpwfijO_jKITn92',#18,$,$,(#283),#284);
#289=IFCRELDEFINESBYPROPERTIES('2N8o4tsX7gS0jUHRAgrisa',#18,$,$,(#283),#286);
#290=IFCRELDEFINESBYPROPERTIES('3VFBCV3b0ApNNecL6W7uEo',#18,$,$,(#283),#287);
#291=IFCCARTESIANPOINT((3300.,3400.,0.));
#292=IFCAXIS2PLACEMENT3D(#291,$,$);
#293=IFCLOCALPLACEMENT(#34,#292);
#294=IFCCARTESIANPOINT((2000.,0.));
#295=IFCPOLYLINE((#4,#294));
#296=IFCSHAPEREPRESENTATION(#23,'Axis','Curve2D',(#295));
#297=IFCCARTESIANPOINT((1000.0000000000007,-1.8474111129762605E-13));
#298=IFCAXIS2PLACEMENT2D(#297,#12);
#299=IFCRECTANGLEPROFILEDEF(.AREA.,$,#298,2000.0000000000014,200.);
#300=IFCAXIS2PLACEMENT3D(#3,$,$);
#301=IFCEXTRUDEDAREASOLID(#299,#300,#9,2700.);
#302=IFCCARTESIANPOINT((2000.,0.));
#303=IFCCARTESIANPOINT((2000.,200.));
#304=IFCCARTESIANPOINT((-0.,200.));
#305=IFCPOLYLINE((#4,#302,#303,#304,#4));
#306=IFCCARTESIANPOINT((0.,-100.,2700.));
#307=IFCAXIS2PLACEMENT3D(#306,#10,#5);
#308=IFCPLANE(#307);
#309=IFCCARTESIANPOINT((0.,-100.,2700.));
#310=IFCAXIS2PLACEMENT3D(#309,$,$);
#311=IFCPOLYGONALBOUNDEDHALFSPACE(#308,.T.,#310,#305);
#312=IFCBOOLEANCLIPPINGRESULT(.DIFFERENCE.,#301,#311);
#313=IFCSTYLEDITEM(#301,(#83),$);
#314=IFCSHAPEREPRESENTATION(#24,'Body','Clipping',(#312));
#315=IFCPRODUCTDEFINITIONSHAPE($,$,(#296,#314));
#316=IFCWALL('1YYXjRkjn7ywhxb576N3m0',#18,'Basic Wall:Generic - 200mm:1602885',$,'Basic Wall:Generic - 200mm',#293,#315,'1602885',.NOTDEFINED.);
#317=IFCAXIS2PLACEMENT3D(#326,$,$);
#319=IFCCARTESIANPOINT((0.,-2.2737367544323206E-13));
#320=IFCAXIS2PLACEMENT2D(#319,#11);
#321=IFCRECTANGLEPROFILEDEF(.AREA.,$,#320,2000.0000000000002,1199.9999999999995);
#322=IFCCARTESIANPOINT((600.,0.,1000.));
#323=IFCAXIS2PLACEMENT3D(#322,#7,#10);
#324=IFCEXTRUDEDAREASOLID(#321,#323,#9,200.);
#325=IFCSHAPEREPRESENTATION(#24,'Body','SweptSolid',(#324));
#326=IFCCARTESIANPOINT((500.,-100.,500.));
#327=IFCPRODUCTDEFINITIONSHAPE($,$,(#325));
#328=IFCCARTESIANPOINT((500.,-100.,500.));
#329=IFCAXIS2PLACEMENT3D(#328,$,$);
#330=IFCLOCALPLACEMENT(#293,#329);
#331=IFCOPENINGELEMENT('0DzwLfHOrleAFhgt_Ph39G',#18,'Basic Wall:Generic - 200mm:1602885',$,$,#330,#327,'1604759',.OPENING.);
#332=IFCRELVOIDSELEMENT('1X$4sMG0hf_hY815qH8FRU',#18,$,$,#316,#331);
#333=IFCPROPERTYSET('0BAJQMI$xjKMVIU7mjI1fR',#18,'Pset_EnvironmentalImpactIndicators',$,(#95));
#334=IFCPROPERTYSINGLEVALUE('Reference',$,IFCLABEL('Generic - 200mm'),$);
#335=IFCPROPERTYSET('16X_jS_tfBFjIYfBBrvl5X',#18,'Pset_ReinforcementBarPitchOfWall',$,(#334));
#336=IFCPROPERTYSET('0v0LHlQn1vR1ecT5vLSje6',#18,'Pset_WallCommon',$,(#95,#99,#100,#101));
#337=IFCPROPERTYSET('230qySxuEeeqI1NDUnttYP',#18,'Pset_EnvironmentalImpactIndicators',$,(#95));
#338=IFCPROPERTYSET('1EJKUK1t4QLpe$3Kki0Nvb',#18,'Pset_OpeningElementCommon',$,(#95));
#339=IFCRELDEFINESBYPROPERTIES('03oUzuCu9USkFn0AXEH19S',#18,$,$,(#316),#333);
#340=IFCRELDEFINESBYPROPERTIES('2wIC17dfYeLwc8LNyiGJhG',#18,$,$,(#316),#335);
#341=IFCRELDEFINESBYPROPERTIES('0_osT$KZbRASzG_Yw1jHTb',#18,$,$,(#316),#336);
#342=IFCRELDEFINESBYPROPERTIES('2CuWRIB0bmthbs7EGPxIIx',#18,$,$,(#331),#337);
#343=IFCRELDEFINESBYPROPERTIES('25DhTp4ElBHlFE0m1Z11ek',#18,$,$,(#331),#338);
#344=IFCCARTESIANPOINT((3100.,3400.,0.));
#345=IFCAXIS2PLACEMENT3D(#344,#9,#6);
#346=IFCLOCALPLACEMENT(#34,#345);
#347=IFCCARTESIANPOINT((1100.,0.));
#348=IFCPOLYLINE((#4,#347));
#349=IFCSHAPEREPRESENTATION(#23,'Axis','Curve2D',(#348));
#350=IFCCARTESIANPOINT((550.00000000000114,1.2079226507921703E-13));
#351=IFCAXIS2PLACEMENT2D(#350,#12);
#352=IFCRECTANGLEPROFILEDEF(.AREA.,$,#351,1100.0000000000014,200.);
#353=IFCAXIS2PLACEMENT3D(#3,$,$);
#354=IFCEXTRUDEDAREASOLID(#352,#353,#9,2700.);
#355=IFCCARTESIANPOINT((1100.,0.));
#356=IFCCARTESIANPOINT((1100.,200.));
#357=IFCCARTESIANPOINT((0.,200.));
#358=IFCPOLYLINE((#4,#355,#356,#357,#4));
#359=IFCCARTESIANPOINT((0.,-100.,2700.));
#360=IFCAXIS2PLACEMENT3D(#359,#10,#6);
#361=IFCPLANE(#360);
#362=IFCCARTESIANPOINT((0.,-100.,2700.));
#363=IFCAXIS2PLACEMENT3D(#362,$,$);
#364=IFCPOLYGONALBOUNDEDHALFSPACE(#361,.T.,#363,#358);
#365=IFCBOOLEANCLIPPINGRESULT(.DIFFERENCE.,#354,#364);
#366=IFCSTYLEDITEM(#354,(#83),$);
#367=IFCSHAPEREPRESENTATION(#24,'Body','Clipping',(#365));
#368=IFCPRODUCTDEFINITIONSHAPE($,$,(#349,#367));
#369=IFCWALL('2DM19d52z3gAPlkXPTpJnG',#18,'Basic Wall:Generic - 200mm:1606094',$,'Basic Wall:Generic - 200mm',#346,#368,'1606094',.NOTDEFINED.);
#370=IFCPROPERTYSET('07wyEGhfvXFp9pY4YdgaoR',#18,'Pset_EnvironmentalImpactIndicators',$,(#95));
#371=IFCPROPERTYSINGLEVALUE('Reference',$,IFCLABEL('Generic - 200mm'),$);
#372=IFCPROPERTYSET('1VTtuCTwY51$4MzFbg0PGx',#18,'Pset_ReinforcementBarPitchOfWall',$,(#371));
#373=IFCPROPERTYSET('0pXcBu3XAyv4qIuuvf6Y9W',#18,'Pset_WallCommon',$,(#95,#99,#100,#101));
#374=IFCRELDEFINESBYPROPERTIES('20TXV6LzIbJeED71HR$MBE',#18,$,$,(#369),#370);
#375=IFCRELDEFINESBYPROPERTIES('2YMCmGpIKnBafydFk05mqF',#18,$,$,(#369),#372);
#376=IFCRELDEFINESBYPROPERTIES('1QR$uLVE_YJqM8bPZ5Xcrj',#18,$,$,(#369),#373);
#377=IFCAXIS2PLACEMENT3D(#3,$,$);
#378=IFCLOCALPLACEMENT(#38,#377);
#379=IFCCARTESIANPOINT((-3333.3333333333298,-2933.333333333333));
#380=IFCCARTESIANPOINT((3166.6666666666729,-2933.333333333333));
#381=IFCCARTESIANPOINT((3166.6666666666674,366.66666666666697));
#382=IFCCARTESIANPOINT((166.66666666666728,366.66666666666697));
#383=IFCCARTESIANPOINT((166.66666666666382,2566.6666666666674));
#384=IFCCARTESIANPOINT((-3333.333333333338,2566.6666666666674));
#385=IFCPOLYLINE((#379,#380,#381,#382,#383,#384,#379));
#386=IFCARBITRARYCLOSEDPROFILEDEF(.AREA.,$,#385);
#387=IFCCARTESIANPOINT((2933.3333333333385,3333.3333333333239,0.));
#388=IFCAXIS2PLACEMENT3D(#387,#10,#7);
#389=IFCEXTRUDEDAREASOLID(#386,#388,#9,300.);
#390=IFCCARTESIANPOINT((-2.8421709430404007E-13,4.5474735088646412E-13));
#391=IFCAXIS2PLACEMENT2D(#390,#11);
#392=IFCRECTANGLEPROFILEDEF(.AREA.,$,#391,1500.,2399.9999999999995);
#393=IFCCARTESIANPOINT((3200.,1750.,-300.));
#394=IFCAXIS2PLACEMENT3D(#393,#9,#7);
#395=IFCEXTRUDEDAREASOLID(#392,#394,#9,300.);
#396=IFCBOOLEANRESULT(.DIFFERENCE.,#389,#395);
#397=IFCCARTESIANPOINT((5.4001247917767614E-13,-3.4106051316484809E-13));
#398=IFCAXIS2PLACEMENT2D(#397,#11);
#399=IFCRECTANGLEPROFILEDEF(.AREA.,$,#398,749.99999999999955,2900.0000000000009);
#400=IFCCARTESIANPOINT((1650.,5925.,-300.));
#401=IFCAXIS2PLACEMENT3D(#400,#9,#7);
#402=IFCEXTRUDEDAREASOLID(#399,#401,#9,300.);
#403=IFCBOOLEANRESULT(.DIFFERENCE.,#396,#402);
#404=IFCCOLOURRGB($,0.50196078431372548,0.50196078431372548,0.50196078431372548);
#405=IFCSURFACESTYLERENDERING(#404,0.,$,$,$,$,IFCNORMALISEDRATIOMEASURE(0.5),IFCSPECULAREXPONENT(10.),.NOTDEFINED.);
#406=IFCSURFACESTYLE('Default Floor',.BOTH.,(#405));
#407=IFCSTYLEDITEM(#389,(#406),$);
#408=IFCSHAPEREPRESENTATION(#24,'Body','SweptSolid',(#403));
#409=IFCPRODUCTDEFINITIONSHAPE($,$,(#408));
#410=IFCSLAB('3IVn6KwFj83grW3cy2PbrE',#18,'Floor:Generic 300mm:1609066',$,'Floor:Generic 300mm',#378,#409,'1609066',.FLOOR.);
#411=IFCCARTESIANPOINT((-6.8212102632969618E-13,0.));
#412=IFCAXIS2PLACEMENT2D(#411,#11);
#413=IFCRECTANGLEPROFILEDEF(.AREA.,$,#412,2400.0000000000018,1500.);
#414=IFCCARTESIANPOINT((3200.,1750.,-300.));
#415=IFCAXIS2PLACEMENT3D(#414,#9,#6);
#416=IFCEXTRUDEDAREASOLID(#413,#415,#9,300.);
#417=IFCSHAPEREPRESENTATION(#24,'Body','SweptSolid',(#416));
#418=IFCPRODUCTDEFINITIONSHAPE($,$,(#417));
#419=IFCAXIS2PLACEMENT3D(#3,$,$);
#420=IFCLOCALPLACEMENT(#378,#419);
#421=IFCOPENINGELEMENT('0jUlYYgyc3g7uppZXDDHs2',#18,'Floor:Generic 300mm:1439244',$,$,#420,#418,'1610550',.OPENING.);
#422=IFCRELVOIDSELEMENT('2GtOaZQcaTOrfudQfwtF1Y',#18,$,$,#410,#421);
#423=IFCCARTESIANPOINT((3.4106051316484809E-13,-5.4001247917767614E-13));
#424=IFCAXIS2PLACEMENT2D(#423,#11);
#425=IFCRECTANGLEPROFILEDEF(.AREA.,$,#424,2900.0000000000009,749.99999999999955);
#426=IFCCARTESIANPOINT((1650.,5925.,0.));
#427=IFCAXIS2PLACEMENT3D(#426,#10,#5);
#428=IFCEXTRUDEDAREASOLID(#425,#427,#9,299.99999999999994);
#429=IFCSHAPEREPRESENTATION(#24,'Body','SweptSolid',(#428));
#430=IFCPRODUCTDEFINITIONSHAPE($,$,(#429));
#431=IFCAXIS2PLACEMENT3D(#3,$,$);
#432=IFCLOCALPLACEMENT(#378,#431);
#433=IFCOPENINGELEMENT('2y67XG_BCKSpy_TL9HFA5Z',#18,'Floor:Generic 300mm:1439244',$,$,#432,#430,'1611318',.OPENING.);
#434=IFCRELVOIDSELEMENT('2x_Ex8YDU9AFDMHFDxVUhX',#18,$,$,#410,#433);
#435=IFCSLABTYPE('2G9mo_Rg17ee$DE9j_ga52',#18,'Floor:Generic 300mm',$,$,(#462),$,'1439244',$,.FLOOR.);
#436=IFCMATERIAL('Default Floor',$,'Miscellaneous');
#437=IFCSTYLEDITEM($,(#406),$);
#438=IFCSTYLEDREPRESENTATION(#22,'Style','Material',(#437));
#439=IFCMATERIALDEFINITIONREPRESENTATION($,$,(#438),#436);
#440=IFCMATERIALLAYER(#436,299.99999999999994,$,'Layer',$,'Miscellaneous',$);
#441=IFCMATERIALLAYERSET((#440),'Floor:Generic 300mm',$);
#442=IFCMATERIALLAYERSETUSAGE(#441,.AXIS3.,.POSITIVE.,0.,$);
#443=IFCPROPERTYSINGLEVALUE('Reference',$,IFCIDENTIFIER('Generic 300mm'),$);
#444=IFCPROPERTYSET('0ud4Daoe$HF6$GpxuVSd28',#18,'Pset_EnvironmentalImpactIndicators',$,(#443));
#445=IFCPROPERTYSINGLEVALUE('Reference',$,IFCLABEL('Generic 300mm'),$);
#446=IFCPROPERTYSET('0IfT6QxwI3HLf1nsam0PFv',#18,'Pset_ReinforcementBarPitchOfSlab',$,(#445));
#447=IFCPROPERTYSINGLEVALUE('PitchAngle',$,IFCPLANEANGLEMEASURE(0.),$);
#448=IFCPROPERTYSINGLEVALUE('LoadBearing',$,IFCBOOLEAN(.T.),$);
#449=IFCPROPERTYSET('0LPuUWVXX7R8dhe6tElrrp',#18,'Pset_SlabCommon',$,(#45,#443,#447,#448));
#450=IFCPROPERTYSET('18btnkOg_8k1yVsjLGSOrJ',#18,'Pset_EnvironmentalImpactIndicators',$,(#443));
#451=IFCPROPERTYSET('1gSSQk$TNxquVxeWTtPnpg',#18,'Pset_OpeningElementCommon',$,(#443));
#452=IFCPROPERTYSET('3oaMPwCO_9NUJoTdNBS7rk',#18,'Pset_EnvironmentalImpactIndicators',$,(#443));
#453=IFCPROPERTYSET('3v9aC70$QI44iC3rUGKg$J',#18,'Pset_OpeningElementCommon',$,(#443));
#454=IFCRELDEFINESBYPROPERTIES('2g7VHO3odg9JAJ7Vo_TQ47',#18,$,$,(#410),#444);
#455=IFCRELDEFINESBYPROPERTIES('16AFzIxoLJjwiV3nqyEmPH',#18,$,$,(#410),#446);
#456=IFCRELDEFINESBYPROPERTIES('3QkvpT3rH4Com3N2mi$A3O',#18,$,$,(#410),#449);
#457=IFCRELDEFINESBYPROPERTIES('26eirEph7YnVMwl9coyXPx',#18,$,$,(#421),#450);
#458=IFCRELDEFINESBYPROPERTIES('3LdXA1PMGiYbH2SMpjQf9l',#18,$,$,(#421),#451);
#459=IFCRELDEFINESBYPROPERTIES('1k8Tgwa8WVi6R3s878Evlp',#18,$,$,(#433),#452);
#460=IFCRELDEFINESBYPROPERTIES('0Tkze5HS5urK8VDy0B$1_Y',#18,$,$,(#433),#453);
#461=IFCPROPERTYSINGLEVALUE('Description',$,IFCTEXT('Generic Floor (Material By Category), 300mm thick'),$);
#462=IFCPROPERTYSET('0ch2Rz4MMxlBDWQKk_uOQt',#18,'Pset_ReinforcementBarPitchOfSlab',$,(#461));
#463=IFCPROPERTYSINGLEVALUE('Reference',$,IFCIDENTIFIER('8mm Head'),$);
#464=IFCPROPERTYSINGLEVALUE('AboveGround',$,IFCLOGICAL(.U.),$);
#465=IFCPROPERTYSET('16L50AfyZF4hYq5TGET4H4',#18,'Pset_BuildingStoreyCommon',$,(#463,#464));
#466=IFCPROPERTYSET('2J7ac_h5ujdwWuzVwBIIta',#18,'Pset_SpaceCommon',$,(#45,#463));
#467=IFCRELDEFINESBYPROPERTIES('2VdfSfkgzGoZi_3SgzE8$0',#18,$,$,(#35),#465);
#468=IFCRELDEFINESBYPROPERTIES('3$YdOpA8iaPobC8MDiWxoI',#18,$,$,(#35),#466);
#469=IFCRELCONTAINEDINSPATIALSTRUCTURE('2JF4e6axWHqu3u0C5FZlmi',#18,$,$,(#87,#135,#194,#247,#283,#316,#369),#35);
#470=IFCPROPERTYSET('1n34enW33Z_3Qq2Pm1kjQZ',#18,'Pset_BuildingStoreyCommon',$,(#463,#464));
#471=IFCPROPERTYSET('0qNc4$IaPwTvoqOd7IlIE4',#18,'Pset_SpaceCommon',$,(#45,#463));
#472=IFCRELDEFINESBYPROPERTIES('36oM8gyLQ5_Z6XoGK5uP1E',#18,$,$,(#39),#470);
#473=IFCRELDEFINESBYPROPERTIES('0jA6Vdz$3CfPvu_I1iTL6J',#18,$,$,(#39),#471);
#474=IFCRELCONTAINEDINSPATIALSTRUCTURE('1ZGO8hrFCHqw0v0066FpFv',#18,$,$,(#410),#39);
#475=IFCRELAGGREGATES('2KFB6YYWgXBmucZ8cm7uCP',#18,$,$,#27,(#42));
#476=IFCRELAGGREGATES('16_hfJTeCqU7LcG8m10BTS',#18,$,$,#42,(#32));
#477=IFCRELAGGREGATES('1yhDISh1T5aQqAoygxGIhP',#18,$,$,#32,(#35,#39));
#478=IFCPROPERTYSINGLEVALUE('NumberOfStoreys',$,IFCCOUNTMEASURE(2),$);
#479=IFCPROPERTYSINGLEVALUE('IsLandmarked',$,IFCLOGICAL(.U.),$);
#480=IFCPROPERTYSET('01y_GmllCupEYuBgfGbhkd',#18,'Pset_BuildingCommon',$,(#43,#478,#479));
#481=IFCPROPERTYSET('1rUR7OGyIAkZT62xvibLnd',#18,'Pset_BuildingElementProxyCommon',$,(#43,#45));
#482=IFCPROPERTYSET('2kFDjjfIaTsBi7MLK$i$Me',#18,'Pset_BuildingStoreyCommon',$,(#43,#464));
#483=IFCPROPERTYSET('1TYvb3FgH88mtl04iE5P1T',#18,'Pset_BuildingSystemCommon',$,(#43));
#484=IFCPROPERTYSET('2W94HCj5xfigmNGtkBMklk',#18,'Pset_SpaceCommon',$,(#43,#45));
#485=IFCRELDEFINESBYPROPERTIES('0vDjba2fshDEh0_KufwWht',#18,$,$,(#32),#480);
#486=IFCRELDEFINESBYPROPERTIES('1V6UQfELB4oPy3GPEaJMPw',#18,$,$,(#32),#481);
#487=IFCRELDEFINESBYPROPERTIES('0Vpd75HttOMIhzXutBGgCt',#18,$,$,(#32),#482);
#488=IFCRELDEFINESBYPROPERTIES('22VMRBFW9n6_S81yWIP225',#18,$,$,(#32),#483);
#489=IFCRELDEFINESBYPROPERTIES('2w3bzVlKnfBVjA3_BjG2II',#18,$,$,(#32),#484);
#490=IFCRELASSOCIATESMATERIAL('2QFCKnOK6apDe5DLeYm8dd',#18,$,$,(#410),#442);
#491=IFCRELASSOCIATESMATERIAL('22T9r9KB1F3JFgePfxkUGp',#18,$,$,(#87,#94,#135,#194,#247,#283,#316,#369),#93);
#492=IFCRELASSOCIATESMATERIAL('0QfjMRWx0N0AraD35Xcprq',#18,$,$,(#435),#441);
#493=IFCRELDEFINESBYTYPE('0MSq_ijuC5q4PUKv4QkOsA',#18,$,$,(#87,#135,#194,#247,#283,#316,#369),#94);
#494=IFCRELDEFINESBYTYPE('1bgurferyyrfEx97ISVVLa',#18,$,$,(#410),#435);
#495=IFCRELCONNECTSPATHELEMENTS('207KMVTAMGM9zlvI67GZe1',#18,'1YYXjRkjn7ywhxb576N3eK|1YYXjRkjn7ywhxb576N3rZ','Structural',$,#87,#247,(),(),.ATEND.,.ATSTART.);
#496=IFCRELCONNECTSPATHELEMENTS('2EimxnMpo6uTr94H1lfji3',#18,'1YYXjRkjn7ywhxb576N3eK|1YYXjRkjn7ywhxb576N3hM','Structural',$,#87,#135,(),(),.ATSTART.,.ATEND.);
#497=IFCRELCONNECTSPATHELEMENTS('2g1OFC2v3rbCUpYilu3fyf',#18,'1YYXjRkjn7ywhxb576N3hM|1YYXjRkjn7ywhxb576N3nB','Structural',$,#135,#283,(),(),.ATSTART.,.ATEND.);
#498=IFCRELCONNECTSPATHELEMENTS('1nXUqEQhjADy3Mj7AuC27K',#18,'1YYXjRkjn7ywhxb576N3gT|1YYXjRkjn7ywhxb576N3m0','Structural',$,#194,#316,(),(),.ATEND.,.ATSTART.);
#499=IFCRELCONNECTSPATHELEMENTS('2lLuxMoMFfdpbWPX2FUPM1',#18,'1YYXjRkjn7ywhxb576N3gT|1YYXjRkjn7ywhxb576N3rZ','Structural',$,#194,#247,(),(),.ATSTART.,.ATEND.);
#500=IFCRELCONNECTSPATHELEMENTS('13uUT0JXvEshrYZBtG8D21',#18,'1YYXjRkjn7ywhxb576N3nB|1YYXjRkjn7ywhxb576N3m0','Structural',$,#283,#316,(),(),.ATSTART.,.ATEND.);
#501=IFCRELCONNECTSPATHELEMENTS('1nlTzqYZWthhlynX7RWlv8',#18,'1YYXjRkjn7ywhxb576N3nB|2DM19d52z3gAPlkXPTpJnG','Structural',$,#283,#369,(),(),.ATSTART.,.ATEND.);
#502=IFCRELCONNECTSPATHELEMENTS('1TOGYn_aSdug27pFYfDzG3',#18,'1YYXjRkjn7ywhxb576N3m0|2DM19d52z3gAPlkXPTpJnG','Structural',$,#316,#369,(),(),.ATSTART.,.ATSTART.);
#503=IFCPRESENTATIONLAYERASSIGNMENT('A-WALL-____-OTLN',$,(#60,#85,#114,#133,#172,#192,#227,#245,#260,#281,#296,#314,#349,#367),$);
#504=IFCPRESENTATIONLAYERASSIGNMENT('A-FLOR-____-OTLN',$,(#408),$);
#505=IFCPRESENTATIONLAYERASSIGNMENT('A-NPLT-____-OTLN',$,(#429),$);
#506=IFCRELASSOCIATESCLASSIFICATION('13dcyAXW0RZVXX7X2I0PW7',#18,'Exterior Walls','Exterior Walls:B2010',(#87,#135,#194,#247,#283,#316,#369),#106);
#507=IFCUNITASSIGNMENT((#19,#61,#147));
ENDSEC;

END-ISO-10303-21;