ISO-10303-21;
HEADER;
FILE_DESCRIPTION(('ViewDefinition [CoordinationView]','RevitIdentifiers [ContentGUID: cbb0ae2e-6350-4225-8ca4-af668662c38d, VersionGUID: d82daf58-5e61-47ac-95cb-0ffa620e0a32, NumberOfSaves: 30]','CoordinateReference [CoordinateBase: Shared Coordinates]'),'2;1');
FILE_NAME('01_02_020.ifc','2026-01-07T17:09:49+01:00',(''),(''),'ODA SDAI 24.6','Autodesk Revit 24.3.30.11 (ENU) - IFC 24.3.30.11','');
FILE_SCHEMA(('IFC4X3'));
ENDSEC;
DATA;
#1=IFCORGANIZATION($,'Autodesk Revit 2024 (ENU)',$,$,$);
#2=IFCAPPLICATION(#1,'2024','Autodesk Revit 2024 (ENU)','Revit');
#3=IFCCARTESIANPOINT((0.,0.,0.));
#4=IFCCARTESIANPOINT((0.,0.));
#5=IFCDIRECTION((1.,0.,0.));
#6=IFCDIRECTION((-1.,0.,0.));
#7=IFCDIRECTION((0.,1.,0.));
#8=IFCDIRECTION((0.,-1.,0.));
#9=IFCDIRECTION((0.,0.,1.));
#10=IFCDIRECTION((0.,0.,-1.));
#11=IFCDIRECTION((1.,0.));
#12=IFCDIRECTION((-1.,0.));
#13=IFCDIRECTION((0.,1.));
#14=IFCDIRECTION((0.,-1.));
#15=IFCPERSON($,'','h.helming',$,$,$,$,$);
#16=IFCORGANIZATION($,'Organization Name','Organization Description',$,$);
#17=IFCPERSONANDORGANIZATION(#15,#16,$);
#18=IFCOWNERHISTORY(#17,#2,$,.NOCHANGE.,$,$,$,1767701742);
#19=IFCSIUNIT(*,.LENGTHUNIT.,.MILLI.,.METRE.);
#20=IFCAXIS2PLACEMENT3D(#3,$,$);
#21=IFCDIRECTION((6.12303176911189E-17,1.));
#22=IFCGEOMETRICREPRESENTATIONCONTEXT($,'Model',3,0.01,#20,#21);
#23=IFCGEOMETRICREPRESENTATIONSUBCONTEXT('Axis','Model',*,*,*,*,#22,$,.GRAPH_VIEW.,$);
#24=IFCGEOMETRICREPRESENTATIONSUBCONTEXT('Body','Model',*,*,*,*,#22,$,.MODEL_VIEW.,$);
#25=IFCGEOMETRICREPRESENTATIONSUBCONTEXT('Box','Model',*,*,*,*,#22,$,.MODEL_VIEW.,$);
#26=IFCGEOMETRICREPRESENTATIONSUBCONTEXT('FootPrint','Model',*,*,*,*,#22,$,.MODEL_VIEW.,$);
#27=IFCPROJECT('3BiAukOr129OoahsPvdJnz',#18,'Project Number',$,$,'Project Name','Project Status',(#22),#763);
#28=IFCCLASSIFICATION('CSI (Construction Specifications Institute)','1998',$,'Uniformat','UniFormat Classification','https://www.csiresources.org/standards/uniformat',$);
#29=IFCAXIS2PLACEMENT3D(#3,$,$);
#30=IFCLOCALPLACEMENT(#41,#29);
#31=IFCPOSTALADDRESS($,$,$,$,('Enter address hereAddress Line 2'),$,'','Boston','','MA');
#32=IFCBUILDING('3BiAukOr129OoahsPvdJny',#18,'Building Name',$,$,#30,$,'Building Name',.ELEMENT.,$,$,#31);
#33=IFCAXIS2PLACEMENT3D(#3,$,$);
#34=IFCLOCALPLACEMENT(#30,#33);
#35=IFCBUILDINGSTOREY('2JF4e6axWHqu3u0C1FZlmi',#18,'L1',$,'Level:8mm Head',#34,$,'L1',.ELEMENT.,0.);
#36=IFCCARTESIANPOINT((0.,0.,3000.));
#37=IFCAXIS2PLACEMENT3D(#36,$,$);
#38=IFCLOCALPLACEMENT(#30,#37);
#39=IFCBUILDINGSTOREY('1ZGO8hrFCHqw0v0026FpFv',#18,'L2',$,'Level:8mm Head',#38,$,'L2',.ELEMENT.,3000.);
#40=IFCAXIS2PLACEMENT3D(#3,$,$);
#41=IFCLOCALPLACEMENT($,#40);
#42=IFCSITE('3BiAukOr129OoahsPvdJn$',#18,'Default',$,$,#41,$,$,.ELEMENT.,(42,21,31,401672),(-71,-3,-24,-345703),0.,$,$);
#43=IFCPROPERTYSINGLEVALUE('Reference',$,IFCIDENTIFIER('Project Information'),$);
#44=IFCPROPERTYSET('2mFJcO6I01h0OYRLOICO3c',#18,'Pset_SiteCommon',$,(#43));
#45=IFCPROPERTYSINGLEVALUE('IsExternal',$,IFCBOOLEAN(.F.),$);
#46=IFCPROPERTYSET('0O$B2PbAODr9jYnpcaZGJT',#18,'Pset_SpaceCommon',$,(#43,#45));
#47=IFCRELDEFINESBYPROPERTIES('2fDrcjst0HFayqQ3dY1cGQ',#18,$,$,(#42),#44);
#48=IFCRELDEFINESBYPROPERTIES('1lYkP70lXSGXnZeJnLC8MY',#18,$,$,(#42),#46);
#63=IFCAXIS2PLACEMENT3D(#3,$,$);
#64=IFCLOCALPLACEMENT(#34,#63);
#65=IFCCARTESIANPOINT((200.,200.,0.));
#66=IFCCARTESIANPOINT((200.,7900.,0.));
#67=IFCCARTESIANPOINT((2768.01048638278,7900.,0.));
#68=IFCCARTESIANPOINT((2768.01048638277,4466.77866212881,0.));
#69=IFCCARTESIANPOINT((7500.,4466.7786621288,0.));
#70=IFCCARTESIANPOINT((7500.,200.,0.));
#71=IFCCARTESIANPOINT((2968.01048638277,2366.77866212882,0.));
#72=IFCCARTESIANPOINT((2968.01048638277,2566.77866212882,0.));
#73=IFCCARTESIANPOINT((2768.01048638277,2566.77866212882,0.));
#74=IFCCARTESIANPOINT((2768.01048638277,2366.77866212882,0.));
#75=IFCPOLYLOOP((#65,#66,#67,#68,#69,#70));
#76=IFCFACEOUTERBOUND(#75,.T.);
#77=IFCPOLYLOOP((#71,#72,#73,#74));
#78=IFCFACEBOUND(#77,.T.);
#79=IFCFACE((#76,#78));
#80=IFCCARTESIANPOINT((200.,200.,2695.2));
#81=IFCCARTESIANPOINT((200.,7900.,2695.2));
#82=IFCPOLYLOOP((#66,#65,#80,#81));
#83=IFCFACEOUTERBOUND(#82,.T.);
#84=IFCFACE((#83));
#85=IFCCARTESIANPOINT((7500.,200.,2695.2));
#86=IFCPOLYLOOP((#65,#70,#85,#80));
#87=IFCFACEOUTERBOUND(#86,.T.);
#88=IFCFACE((#87));
#89=IFCCARTESIANPOINT((7500.,4466.7786621288,2695.2));
#90=IFCPOLYLOOP((#70,#69,#89,#85));
#91=IFCFACEOUTERBOUND(#90,.T.);
#92=IFCFACE((#91));
#93=IFCCARTESIANPOINT((2768.01048638277,4466.77866212881,2695.2));
#94=IFCPOLYLOOP((#69,#68,#93,#89));
#95=IFCFACEOUTERBOUND(#94,.T.);
#96=IFCFACE((#95));
#97=IFCCARTESIANPOINT((2768.01048638278,7900.,2695.2));
#98=IFCPOLYLOOP((#68,#67,#97,#93));
#99=IFCFACEOUTERBOUND(#98,.T.);
#100=IFCFACE((#99));
#101=IFCPOLYLOOP((#67,#66,#81,#97));
#102=IFCFACEOUTERBOUND(#101,.T.);
#103=IFCFACE((#102));
#104=IFCCARTESIANPOINT((2968.01048638277,2366.77866212882,2695.2));
#105=IFCCARTESIANPOINT((2968.01048638277,2566.77866212882,2695.2));
#106=IFCPOLYLOOP((#72,#71,#104,#105));
#107=IFCFACEOUTERBOUND(#106,.T.);
#108=IFCFACE((#107));
#109=IFCCARTESIANPOINT((2768.01048638277,2366.77866212883,2695.2));
#110=IFCPOLYLOOP((#71,#74,#109,#104));
#111=IFCFACEOUTERBOUND(#110,.T.);
#112=IFCFACE((#111));
#113=IFCCARTESIANPOINT((2768.01048638277,2566.77866212882,2695.2));
#114=IFCPOLYLOOP((#74,#73,#113,#109));
#115=IFCFACEOUTERBOUND(#114,.T.);
#116=IFCFACE((#115));
#117=IFCPOLYLOOP((#73,#72,#105,#113));
#118=IFCFACEOUTERBOUND(#117,.T.);
#119=IFCFACE((#118));
#120=IFCPOLYLOOP((#81,#80,#85,#89,#93,#97));
#121=IFCFACEOUTERBOUND(#120,.T.);
#122=IFCPOLYLOOP((#105,#104,#109,#113));
#123=IFCFACEBOUND(#122,.T.);
#124=IFCFACE((#121,#123));
#125=IFCCLOSEDSHELL((#79,#84,#88,#92,#96,#100,#103,#108,#112,#116,#119,#124));
#126=IFCFACETEDBREP(#125);
#127=IFCSHAPEREPRESENTATION(#24,'Body','Brep',(#126));
#128=IFCPRODUCTDEFINITIONSHAPE($,$,(#127));
#129=IFCSIUNIT(*,.AREAUNIT.,$,.SQUARE_METRE.);
#130=IFCSPACE('08usg60IH8OxdvepHCDp6f',#18,'136',$,$,#64,#128,'room',.ELEMENT.,.NOTDEFINED.,$);
#131=IFCSPACETYPE('08usg60IH8OxdvgpHCDp6f',#18,'room 136:1605126',$,$,$,$,'1605126',$,.NOTDEFINED.,$);
#132=IFCPROPERTYSINGLEVALUE('Reference',$,IFCIDENTIFIER('room 136'),$);
#133=IFCPROPERTYSET('3Zmp$IIyzc5ccKyxofNJVd',#18,'Pset_SpaceCommon',$,(#45,#132));
#134=IFCPROPERTYSET('1iEC5rk1tRf0isSqJKYLeQ',#18,'Pset_SpaceHeaterTypeCommon',$,(#132));
#135=IFCRELDEFINESBYPROPERTIES('3kaU70Of6lclT8m_HRBKLT',#18,$,$,(#130),#133);
#136=IFCRELDEFINESBYPROPERTIES('3Mu5JTWI2FVhAca6bVAT2s',#18,$,$,(#130),#134);
#137=IFCAXIS2PLACEMENT3D(#3,$,$);
#138=IFCLOCALPLACEMENT(#34,#137);
#139=IFCCARTESIANPOINT((7500.,7900.,0.));
#140=IFCCARTESIANPOINT((7500.,4666.7786621288,0.));
#141=IFCCARTESIANPOINT((2968.01048638277,4666.77866212881,0.));
#142=IFCCARTESIANPOINT((2968.01048638278,7900.,0.));
#143=IFCPOLYLOOP((#139,#140,#141,#142));
#144=IFCFACEOUTERBOUND(#143,.T.);
#145=IFCFACE((#144));
#146=IFCCARTESIANPOINT((7500.,7900.,2695.2));
#147=IFCCARTESIANPOINT((7500.,4666.7786621288,2695.2));
#148=IFCPOLYLOOP((#140,#139,#146,#147));
#149=IFCFACEOUTERBOUND(#148,.T.);
#150=IFCFACE((#149));
#151=IFCCARTESIANPOINT((2968.01048638278,7900.,2695.2));
#152=IFCPOLYLOOP((#139,#142,#151,#146));
#153=IFCFACEOUTERBOUND(#152,.T.);
#154=IFCFACE((#153));
#155=IFCCARTESIANPOINT((2968.01048638277,4666.77866212881,2695.2));
#156=IFCPOLYLOOP((#142,#141,#155,#151));
#157=IFCFACEOUTERBOUND(#156,.T.);
#158=IFCFACE((#157));
#159=IFCPOLYLOOP((#141,#140,#147,#155));
#160=IFCFACEOUTERBOUND(#159,.T.);
#161=IFCFACE((#160));
#162=IFCPOLYLOOP((#147,#146,#151,#155));
#163=IFCFACEOUTERBOUND(#162,.T.);
#164=IFCFACE((#163));
#165=IFCCLOSEDSHELL((#145,#150,#154,#158,#161,#164));
#166=IFCFACETEDBREP(#165);
#167=IFCSHAPEREPRESENTATION(#24,'Body','Brep',(#166));
#168=IFCPRODUCTDEFINITIONSHAPE($,$,(#167));
#169=IFCSPACE('08usg60IH8OxdvepHCDp6c',#18,'137',$,$,#138,#168,'room',.ELEMENT.,.NOTDEFINED.,$);
#170=IFCSPACETYPE('08usg60IH8OxdvgpHCDp6c',#18,'room 137:1605129',$,$,$,$,'1605129',$,.NOTDEFINED.,$);
#171=IFCPROPERTYSINGLEVALUE('Reference',$,IFCIDENTIFIER('room 137'),$);
#172=IFCPROPERTYSET('1g$G03MOj9AizoqQ3jpCbs',#18,'Pset_SpaceCommon',$,(#45,#171));
#173=IFCPROPERTYSET('2A83Ei8xlnApWgOISD4hKK',#18,'Pset_SpaceHeaterTypeCommon',$,(#171));
#174=IFCRELDEFINESBYPROPERTIES('1fI2AkaeShA_aWOwzYEBnS',#18,$,$,(#169),#172);
#175=IFCRELDEFINESBYPROPERTIES('372QfIvKuDyqNHWBVuQ_CB',#18,$,$,(#169),#173);
#176=IFCCARTESIANPOINT((100.,8100.,0.));
#177=IFCAXIS2PLACEMENT3D(#176,#9,#8);
#178=IFCLOCALPLACEMENT(#34,#177);
#179=IFCCARTESIANPOINT((8100.,-0.));
#180=IFCPOLYLINE((#4,#179));
#181=IFCSHAPEREPRESENTATION(#23,'Axis','Curve2D',(#180));
#182=IFCCARTESIANPOINT((4050.00000000001,-1.4210854715202E-14));
#183=IFCAXIS2PLACEMENT2D(#182,#12);
#184=IFCRECTANGLEPROFILEDEF(.AREA.,$,#183,8100.00000000003,200.);
#185=IFCAXIS2PLACEMENT3D(#3,$,$);
#186=IFCEXTRUDEDAREASOLID(#184,#185,#9,2695.2);
#187=IFCCARTESIANPOINT((8100.,-0.));
#188=IFCCARTESIANPOINT((8100.,200.));
#189=IFCCARTESIANPOINT((7900.,200.));
#190=IFCCARTESIANPOINT((200.,200.));
#191=IFCCARTESIANPOINT((0.,200.));
#192=IFCPOLYLINE((#4,#187,#188,#189,#190,#191,#4));
#193=IFCCARTESIANPOINT((0.,-100.,2695.2));
#194=IFCAXIS2PLACEMENT3D(#193,#10,#7);
#195=IFCPLANE(#194);
#196=IFCCARTESIANPOINT((0.,-100.,2695.2));
#197=IFCAXIS2PLACEMENT3D(#196,$,$);
#198=IFCPOLYGONALBOUNDEDHALFSPACE(#195,.T.,#197,#192);
#199=IFCBOOLEANCLIPPINGRESULT(.DIFFERENCE.,#186,#198);
#200=IFCCOLOURRGB($,0.752941176470588,0.752941176470588,0.752941176470588);
#201=IFCSURFACESTYLERENDERING(#200,0.,$,$,$,$,IFCNORMALISEDRATIOMEASURE(0.5),IFCSPECULAREXPONENT(10.),.NOTDEFINED.);
#202=IFCSURFACESTYLE('Default Wall',.BOTH.,(#201));
#203=IFCSTYLEDITEM(#186,(#202),$);
#204=IFCSHAPEREPRESENTATION(#24,'Body','Clipping',(#199));
#205=IFCPRODUCTDEFINITIONSHAPE($,$,(#181,#204));
#206=IFCWALL('3Vyqk8cSj8TOuAk6zHUwAt',#18,'Basic Wall:Generic - 200mm:1602350',$,'Basic Wall:Generic - 200mm',#178,#205,'1602350',.NOTDEFINED.);
#207=IFCMATERIAL('Default Wall',$,'Miscellaneous');
#208=IFCSTYLEDITEM($,(#202),$);
#209=IFCSTYLEDREPRESENTATION(#22,'Style','Material',(#208));
#210=IFCMATERIALDEFINITIONREPRESENTATION($,$,(#209),#207);
#211=IFCMATERIALLAYER(#207,200.,$,'Layer',$,'Miscellaneous',$);
#212=IFCMATERIALLAYERSET((#211),'Basic Wall:Generic - 200mm',$);
#213=IFCWALLTYPE('1xZrMVYp52mhf4uMzw11Hk',#18,'Basic Wall:Generic - 200mm',$,$,(#227),$,'441451',$,.STANDARD.);
#214=IFCPROPERTYSINGLEVALUE('Reference',$,IFCIDENTIFIER('Generic - 200mm'),$);
#215=IFCPROPERTYSET('0Km4zNM2MwGsg6uui573Gl',#18,'Pset_EnvironmentalImpactIndicators',$,(#214));
#216=IFCPROPERTYSINGLEVALUE('Reference',$,IFCLABEL('Generic - 200mm'),$);
#217=IFCPROPERTYSET('0ZXMEr5ajxWFHJMWoi4f9d',#18,'Pset_ReinforcementBarPitchOfWall',$,(#216));
#218=IFCPROPERTYSINGLEVALUE('IsExternal',$,IFCBOOLEAN(.T.),$);
#219=IFCPROPERTYSINGLEVALUE('LoadBearing',$,IFCBOOLEAN(.F.),$);
#220=IFCPROPERTYSINGLEVALUE('ExtendToStructure',$,IFCBOOLEAN(.T.),$);
#221=IFCPROPERTYSET('1zrfxTCt1bXMa1Ly5p70N1',#18,'Pset_WallCommon',$,(#214,#218,#219,#220));
#222=IFCRELDEFINESBYPROPERTIES('03npcsjKGgxiKm0v35mOCU',#18,$,$,(#206),#215);
#223=IFCRELDEFINESBYPROPERTIES('19PyAMlzR0yGXIwnh1vl8V',#18,$,$,(#206),#217);
#224=IFCRELDEFINESBYPROPERTIES('0Ch_H7bAOLrBCWJ9at5CY2',#18,$,$,(#206),#221);
#225=IFCCLASSIFICATIONREFERENCE('https://www.csiresources.org/standards/uniformat','B2010','Exterior Walls',#28,'',$);
#226=IFCPROPERTYSINGLEVALUE('Description',$,IFCTEXT('Generic Wall (Material By Category), 200mm thick'),$);
#227=IFCPROPERTYSET('2L7lvTstnIeeydfwzfZZLR',#18,'Pset_ReinforcementBarPitchOfWall',$,(#226));
#228=IFCCARTESIANPOINT((200.,100.,0.));
#229=IFCAXIS2PLACEMENT3D(#228,$,$);
#230=IFCLOCALPLACEMENT(#34,#229);
#231=IFCCARTESIANPOINT((7500.,0.));
#232=IFCPOLYLINE((#4,#231));
#233=IFCSHAPEREPRESENTATION(#23,'Axis','Curve2D',(#232));
#234=IFCCARTESIANPOINT((3750.,0.));
#235=IFCAXIS2PLACEMENT2D(#234,#12);
#236=IFCRECTANGLEPROFILEDEF(.AREA.,$,#235,7500.,200.);
#237=IFCAXIS2PLACEMENT3D(#3,$,$);
#238=IFCEXTRUDEDAREASOLID(#236,#237,#9,2695.2);
#239=IFCCARTESIANPOINT((7500.,0.));
#240=IFCCARTESIANPOINT((7500.,200.));
#241=IFCCARTESIANPOINT((7300.,200.));
#242=IFCCARTESIANPOINT((-0.,200.));
#243=IFCPOLYLINE((#4,#239,#240,#241,#242,#4));
#244=IFCCARTESIANPOINT((0.,-100.,2695.2));
#245=IFCAXIS2PLACEMENT3D(#244,#10,#5);
#246=IFCPLANE(#245);
#247=IFCCARTESIANPOINT((0.,-100.,2695.2));
#248=IFCAXIS2PLACEMENT3D(#247,$,$);
#249=IFCPOLYGONALBOUNDEDHALFSPACE(#246,.T.,#248,#243);
#250=IFCBOOLEANCLIPPINGRESULT(.DIFFERENCE.,#238,#249);
#251=IFCSTYLEDITEM(#238,(#202),$);
#252=IFCSHAPEREPRESENTATION(#24,'Body','Clipping',(#250));
#253=IFCPRODUCTDEFINITIONSHAPE($,$,(#233,#252));
#254=IFCWALL('3Vyqk8cSj8TOuAk6zHUwAc',#18,'Basic Wall:Generic - 200mm:1602367',$,'Basic Wall:Generic - 200mm',#230,#253,'1602367',.NOTDEFINED.);
#255=IFCPROPERTYSET('3JUIdSeVp_uwEbbZZ62q4s',#18,'Pset_EnvironmentalImpactIndicators',$,(#214));
#256=IFCPROPERTYSINGLEVALUE('Reference',$,IFCLABEL('Generic - 200mm'),$);
#257=IFCPROPERTYSET('2xt8_eWXQmZoGh92FUaf7C',#18,'Pset_ReinforcementBarPitchOfWall',$,(#256));
#258=IFCPROPERTYSET('1Qx33RkOMvlc106bCgkFYy',#18,'Pset_WallCommon',$,(#214,#218,#219,#220));
#259=IFCRELDEFINESBYPROPERTIES('0Cbozj_3TLDgtMpOD0_yYT',#18,$,$,(#254),#255);
#260=IFCRELDEFINESBYPROPERTIES('1Feha5xswcNTrZ$5QRM3b5',#18,$,$,(#254),#257);
#261=IFCRELDEFINESBYPROPERTIES('1olywbjtcxLyBnEbs_Cz$6',#18,$,$,(#254),#258);
#262=IFCCARTESIANPOINT((7600.,200.,0.));
#263=IFCAXIS2PLACEMENT3D(#262,#9,#7);
#264=IFCLOCALPLACEMENT(#34,#263);
#265=IFCCARTESIANPOINT((7900.,-0.));
#266=IFCPOLYLINE((#4,#265));
#267=IFCSHAPEREPRESENTATION(#23,'Axis','Curve2D',(#266));
#268=IFCCARTESIANPOINT((3950.00000000001,-1.56319401867222E-13));
#269=IFCAXIS2PLACEMENT2D(#268,#12);
#270=IFCRECTANGLEPROFILEDEF(.AREA.,$,#269,7900.00000000003,200.);
#271=IFCAXIS2PLACEMENT3D(#3,$,$);
#272=IFCEXTRUDEDAREASOLID(#270,#271,#9,2695.2);
#273=IFCCARTESIANPOINT((7900.,-0.));
#274=IFCCARTESIANPOINT((7900.,200.));
#275=IFCCARTESIANPOINT((7700.,200.));
#276=IFCCARTESIANPOINT((0.,200.));
#277=IFCPOLYLINE((#4,#273,#274,#275,#276,#4));
#278=IFCCARTESIANPOINT((0.,-100.,2695.2));
#279=IFCAXIS2PLACEMENT3D(#278,#10,#8);
#280=IFCPLANE(#279);
#281=IFCCARTESIANPOINT((0.,-100.,2695.2));
#282=IFCAXIS2PLACEMENT3D(#281,$,$);
#283=IFCPOLYGONALBOUNDEDHALFSPACE(#280,.T.,#282,#277);
#284=IFCBOOLEANCLIPPINGRESULT(.DIFFERENCE.,#272,#283);
#285=IFCSTYLEDITEM(#272,(#202),$);
#286=IFCSHAPEREPRESENTATION(#24,'Body','Clipping',(#284));
#287=IFCPRODUCTDEFINITIONSHAPE($,$,(#267,#286));
#288=IFCWALL('3Vyqk8cSj8TOuAk6zHUwMJ',#18,'Basic Wall:Generic - 200mm:1602570',$,'Basic Wall:Generic - 200mm',#264,#287,'1602570',.NOTDEFINED.);
#289=IFCPROPERTYSET('3lnIhEvOuHbjSaKDfZK8k9',#18,'Pset_EnvironmentalImpactIndicators',$,(#214));
#290=IFCPROPERTYSINGLEVALUE('Reference',$,IFCLABEL('Generic - 200mm'),$);
#291=IFCPROPERTYSET('04W1WwOvjm30inH1dChtfP',#18,'Pset_ReinforcementBarPitchOfWall',$,(#290));
#292=IFCPROPERTYSET('3KqX06vgGEOM$38ftOcyqA',#18,'Pset_WallCommon',$,(#214,#218,#219,#220));
#293=IFCRELDEFINESBYPROPERTIES('0S8aOnFU8WcFAwodE0ltd9',#18,$,$,(#288),#289);
#294=IFCRELDEFINESBYPROPERTIES('1tYLw8_V7aeyi7TVjsHYUw',#18,$,$,(#288),#291);
#295=IFCRELDEFINESBYPROPERTIES('1t2sWDc8aJN1HpxUM7WWie',#18,$,$,(#288),#292);
#296=IFCCARTESIANPOINT((7500.,8000.,0.));
#297=IFCAXIS2PLACEMENT3D(#296,#9,#6);
#298=IFCLOCALPLACEMENT(#34,#297);
#299=IFCCARTESIANPOINT((7300.,0.));
#300=IFCPOLYLINE((#4,#299));
#301=IFCSHAPEREPRESENTATION(#23,'Axis','Curve2D',(#300));
#302=IFCCARTESIANPOINT((3650.,4.40536496171262E-13));
#303=IFCAXIS2PLACEMENT2D(#302,#12);
#304=IFCRECTANGLEPROFILEDEF(.AREA.,$,#303,7300.,200.);
#305=IFCAXIS2PLACEMENT3D(#3,$,$);
#306=IFCEXTRUDEDAREASOLID(#304,#305,#9,2695.2);
#307=IFCCARTESIANPOINT((7300.,0.));
#308=IFCCARTESIANPOINT((7300.,200.));
#309=IFCCARTESIANPOINT((0.,200.));
#310=IFCPOLYLINE((#4,#307,#308,#309,#4));
#311=IFCCARTESIANPOINT((0.,-100.,2695.2));
#312=IFCAXIS2PLACEMENT3D(#311,#10,#6);
#313=IFCPLANE(#312);
#314=IFCCARTESIANPOINT((0.,-100.,2695.2));
#315=IFCAXIS2PLACEMENT3D(#314,$,$);
#316=IFCPOLYGONALBOUNDEDHALFSPACE(#313,.T.,#315,#310);
#317=IFCBOOLEANCLIPPINGRESULT(.DIFFERENCE.,#306,#316);
#318=IFCSTYLEDITEM(#306,(#202),$);
#319=IFCSHAPEREPRESENTATION(#24,'Body','Clipping',(#317));
#320=IFCPRODUCTDEFINITIONSHAPE($,$,(#301,#319));
#321=IFCWALL('3Vyqk8cSj8TOuAk6zHUwNQ',#18,'Basic Wall:Generic - 200mm:1602627',$,'Basic Wall:Generic - 200mm',#298,#320,'1602627',.NOTDEFINED.);
#322=IFCPROPERTYSET('33VNddCdyWuRINW3IN$6wR',#18,'Pset_EnvironmentalImpactIndicators',$,(#214));
#323=IFCPROPERTYSINGLEVALUE('Reference',$,IFCLABEL('Generic - 200mm'),$);
#324=IFCPROPERTYSET('3fo6gcdchLdhUs9OMMjJcK',#18,'Pset_ReinforcementBarPitchOfWall',$,(#323));
#325=IFCPROPERTYSET('365dpoAGwqqh9R$iloiJ6Y',#18,'Pset_WallCommon',$,(#214,#218,#219,#220));
#326=IFCRELDEFINESBYPROPERTIES('2BzMAyBcbgIMAClUNVhX7C',#18,$,$,(#321),#322);
#327=IFCRELDEFINESBYPROPERTIES('2jcjj16uqcySZoq7QPRlFE',#18,$,$,(#321),#324);
#328=IFCRELDEFINESBYPROPERTIES('3JFaQDGEcQuJc$tDFSxPEn',#18,$,$,(#321),#325);
#329=IFCAXIS2PLACEMENT3D(#3,$,$);
#331=IFCCARTESIANPOINT((0.,5.47117906535277E-13));
#332=IFCAXIS2PLACEMENT2D(#331,#11);
#333=IFCRECTANGLEPROFILEDEF(.AREA.,'300 x 450mm',#332,200.,200.);
#334=IFCCARTESIANPOINT((10550.,8000.,-2500.));
#335=IFCAXIS2PLACEMENT3D(#334,#9,#6);
#336=IFCEXTRUDEDAREASOLID(#333,#335,#9,5195.2);
#337=IFCSIUNIT(*,.PLANEANGLEUNIT.,$,.RADIAN.);
#338=IFCDIMENSIONALEXPONENTS(0,0,0,0,0,0,0);
#339=IFCMEASUREWITHUNIT(IFCPLANEANGLEMEASURE(0.0174532925199433),#337);
#340=IFCCONVERSIONBASEDUNIT(#338,.PLANEANGLEUNIT.,'DEGREE',#339);
#341=IFCCOLOURRGB($,0.,0.,0.);
#342=IFCSURFACESTYLERENDERING(#341,0.,$,$,$,$,IFCNORMALISEDRATIOMEASURE(0.5),IFCSPECULAREXPONENT(64.),.NOTDEFINED.);
#343=IFCSURFACESTYLE('Concrete, Cast-in-Place gray',.BOTH.,(#342));
#344=IFCSTYLEDITEM(#336,(#343),$);
#345=IFCSHAPEREPRESENTATION(#24,'Body','SweptSolid',(#336));
#346=IFCAXIS2PLACEMENT3D(#3,$,$);
#347=IFCREPRESENTATIONMAP(#346,#345);
#348=IFCCOLUMNTYPE('251vDGWZj4fBEsWpTPQwFu',#18,'M_Concrete-Rectangular-Column:300 x 450mm',$,$,(#374),(#347),'1537404',$,.COLUMN.);
#349=IFCMATERIAL('Concrete, Cast-in-Place gray',$,'Concrete');
#350=IFCCOLOURRGB($,1.,1.,1.);
#351=IFCFILLAREASTYLE('<Solid fill>',(#350),$);
#352=IFCSTYLEDITEM($,(#343,#351),$);
#353=IFCSTYLEDREPRESENTATION(#22,'Style','Material and Cut Pattern',(#352));
#354=IFCMATERIALDEFINITIONREPRESENTATION($,$,(#353),#349);
#355=IFCMATERIALPROFILE('300 x 450mm',$,#349,#333,$,$);
#356=IFCMATERIALPROFILESET('300 x 450mm',$,(#355),$);
#357=IFCCARTESIANTRANSFORMATIONOPERATOR3D($,$,#3,1.,$);
#358=IFCMAPPEDITEM(#347,#357);
#359=IFCSHAPEREPRESENTATION(#24,'Body','MappedRepresentation',(#358));
#360=IFCPRODUCTDEFINITIONSHAPE($,$,(#359));
#361=IFCAXIS2PLACEMENT3D(#3,$,$);
#362=IFCLOCALPLACEMENT(#34,#361);
#363=IFCCOLUMN('251vDGWZj4fBEsYpTPQwFu',#18,'M_Concrete-Rectangular-Column:300 x 450mm:1602904',$,'M_Concrete-Rectangular-Column:300 x 450mm',#362,#360,'1602904',.COLUMN.);
#364=IFCMATERIALPROFILESETUSAGE(#356,$,$);
#365=IFCPROPERTYSINGLEVALUE('Reference',$,IFCIDENTIFIER('300 x 450mm'),$);
#366=IFCPROPERTYSINGLEVALUE('LoadBearing',$,IFCBOOLEAN(.T.),$);
#367=IFCPROPERTYSET('2gmQY1UhOC1MGrb$Ev_9LD',#18,'Pset_ColumnCommon',$,(#45,#365,#366));
#368=IFCPROPERTYSET('1spHHeupicjRR2ZllVlveI',#18,'Pset_EnvironmentalImpactIndicators',$,(#365));
#369=IFCPROPERTYSINGLEVALUE('Reference',$,IFCLABEL('300 x 450mm'),$);
#370=IFCPROPERTYSET('3V7igPUqxOuio6LOGPcjr6',#18,'Pset_ReinforcementBarPitchOfColumn',$,(#369));
#371=IFCRELDEFINESBYPROPERTIES('1sOXzb1LR7o7WRtg57b2FK',#18,$,$,(#363),#367);
#372=IFCRELDEFINESBYPROPERTIES('16mnjT5qf$mTwk2zivdt1w',#18,$,$,(#363),#368);
#373=IFCRELDEFINESBYPROPERTIES('35kaF9$PxBDhAKWgzXCDov',#18,$,$,(#363),#370);
#374=IFCPROPERTYSET('3n2qQJZN5SOSe_72pkHzHq',#18,'Pset_ColumnCommon',$,(#366));
#375=IFCAXIS2PLACEMENT3D(#3,$,$);
#377=IFCCARTESIANPOINT((-2.1600499167107E-12,0.));
#378=IFCAXIS2PLACEMENT2D(#377,#11);
#379=IFCRECTANGLEPROFILEDEF(.AREA.,'300 x 450mm',#378,200.,200.);
#380=IFCCARTESIANPOINT((10550.,100.,-2500.));
#381=IFCAXIS2PLACEMENT3D(#380,#9,#6);
#382=IFCEXTRUDEDAREASOLID(#379,#381,#9,5195.2);
#383=IFCSTYLEDITEM(#382,(#343),$);
#384=IFCSHAPEREPRESENTATION(#24,'Body','SweptSolid',(#382));
#385=IFCAXIS2PLACEMENT3D(#3,$,$);
#386=IFCREPRESENTATIONMAP(#385,#384);
#387=IFCCOLUMNTYPE('0Ub9$WlTH44eNT$bw3KFF4',#18,'M_Concrete-Rectangular-Column:300 x 450mm',$,$,(#401),(#386),'1537404',$,.COLUMN.);
#388=IFCMAPPEDITEM(#386,#357);
#389=IFCSHAPEREPRESENTATION(#24,'Body','MappedRepresentation',(#388));
#390=IFCPRODUCTDEFINITIONSHAPE($,$,(#389));
#391=IFCAXIS2PLACEMENT3D(#3,$,$);
#392=IFCLOCALPLACEMENT(#34,#391);
#393=IFCCOLUMN('0Ub9$WlTH44eNTzbw3KFF4',#18,'M_Concrete-Rectangular-Column:300 x 450mm:1603859',$,'M_Concrete-Rectangular-Column:300 x 450mm',#392,#390,'1603859',.COLUMN.);
#394=IFCPROPERTYSET('1KlptLtnl_JB9Aus2UCZdV',#18,'Pset_ColumnCommon',$,(#45,#365,#366));
#395=IFCPROPERTYSET('1MwsAgQpmKe_JggQreU4UK',#18,'Pset_EnvironmentalImpactIndicators',$,(#365));
#396=IFCPROPERTYSINGLEVALUE('Reference',$,IFCLABEL('300 x 450mm'),$);
#397=IFCPROPERTYSET('3EFQJxpczmwctYr3rEPKeD',#18,'Pset_ReinforcementBarPitchOfColumn',$,(#396));
#398=IFCRELDEFINESBYPROPERTIES('3Q1BMx00fB8I3G8$Tb9RMA',#18,$,$,(#393),#394);
#399=IFCRELDEFINESBYPROPERTIES('0MmHcaIA5xRTAPhBx2f8Aa',#18,$,$,(#393),#395);
#400=IFCRELDEFINESBYPROPERTIES('18clo1VgA9BXUmF5x02TSp',#18,$,$,(#393),#397);
#401=IFCPROPERTYSET('1x4ONszC7jXxOpAFbax4GE',#18,'Pset_ColumnCommon',$,(#366));
#402=IFCAXIS2PLACEMENT3D(#3,$,$);
#403=IFCLOCALPLACEMENT(#34,#402);
#404=IFCCARTESIANPOINT((0.,0.));
#405=IFCAXIS2PLACEMENT2D(#404,#11);
#406=IFCRECTANGLEPROFILEDEF(.AREA.,$,#405,8100.00000000002,7700.);
#407=IFCCARTESIANPOINT((3850.,4050.,0.));
#408=IFCAXIS2PLACEMENT3D(#407,#10,#7);
#409=IFCEXTRUDEDAREASOLID(#406,#408,#9,304.8);
#410=IFCCOLOURRGB($,0.501960784313725,0.501960784313725,0.501960784313725);
#411=IFCSURFACESTYLERENDERING(#410,0.,$,$,$,$,IFCNORMALISEDRATIOMEASURE(0.5),IFCSPECULAREXPONENT(10.),.NOTDEFINED.);
#412=IFCSURFACESTYLE('Default Floor',.BOTH.,(#411));
#413=IFCSTYLEDITEM(#409,(#412),$);
#414=IFCSHAPEREPRESENTATION(#24,'Body','SweptSolid',(#409));
#415=IFCPRODUCTDEFINITIONSHAPE($,$,(#414));
#416=IFCSLAB('0dc_dU7Cj6aRLiY5JtJ$bz',#18,'Floor:Generic - 12":1603885',$,'Floor:Generic - 12"',#403,#415,'1603885',.FLOOR.);
#417=IFCSLABTYPE('1xZrMVYp52mhf4uMzw11Hi',#18,'Floor:Generic - 12"',$,$,(#436),$,'441449',$,.FLOOR.);
#418=IFCMATERIAL('Default Floor',$,'Miscellaneous');
#419=IFCSTYLEDITEM($,(#412),$);
#420=IFCSTYLEDREPRESENTATION(#22,'Style','Material',(#419));
#421=IFCMATERIALDEFINITIONREPRESENTATION($,$,(#420),#418);
#422=IFCMATERIALLAYER(#418,304.8,$,'Layer',$,'Miscellaneous',$);
#423=IFCMATERIALLAYERSET((#422),'Floor:Generic - 12"',$);
#424=IFCMATERIALLAYERSETUSAGE(#423,.AXIS3.,.POSITIVE.,0.,$);
#425=IFCPROPERTYSINGLEVALUE('Reference',$,IFCIDENTIFIER('Generic - 12"'),$);
#426=IFCPROPERTYSET('1EubMzt59K78q6_uXwoz5M',#18,'Pset_EnvironmentalImpactIndicators',$,(#425));
#427=IFCPROPERTYSINGLEVALUE('Reference',$,IFCLABEL('Generic - 12"'),$);
#428=IFCPROPERTYSET('2CHqv8PdPRWbiwIbXDTc0m',#18,'Pset_ReinforcementBarPitchOfSlab',$,(#427));
#429=IFCPROPERTYSINGLEVALUE('PitchAngle',$,IFCPLANEANGLEMEASURE(0.),$);
#430=IFCPROPERTYSET('3F_vB$YTI6LYUyviolvZK5',#18,'Pset_SlabCommon',$,(#45,#366,#425,#429));
#431=IFCRELDEFINESBYPROPERTIES('30pFsoSLIgVPyBi3NjcpwV',#18,$,$,(#416),#426);
#432=IFCRELDEFINESBYPROPERTIES('2fXveyAaiJop1CV54lg$eR',#18,$,$,(#416),#428);
#433=IFCRELDEFINESBYPROPERTIES('0VUhGrh7WF4GKMtWNCIGXa',#18,$,$,(#416),#430);
#434=IFCCLASSIFICATIONREFERENCE('https://www.csiresources.org/standards/uniformat','B1010','Floor Construction',#28,'',$);
#435=IFCPROPERTYSINGLEVALUE('Description',$,IFCTEXT('Generic Floor (Material By Category), 12" thick'),$);
#436=IFCPROPERTYSET('08jeqqdMvr9oQ2sJw84keo',#18,'Pset_ReinforcementBarPitchOfSlab',$,(#435));
#437=IFCAXIS2PLACEMENT3D(#3,$,$);
#438=IFCLOCALPLACEMENT(#38,#437);
#439=IFCCARTESIANPOINT((0.,0.));
#440=IFCAXIS2PLACEMENT2D(#439,#11);
#441=IFCRECTANGLEPROFILEDEF(.AREA.,$,#440,8100.00000000002,10650.);
#442=IFCCARTESIANPOINT((5325.,4050.,0.));
#443=IFCAXIS2PLACEMENT3D(#442,#10,#7);
#444=IFCEXTRUDEDAREASOLID(#441,#443,#9,304.8);
#445=IFCSTYLEDITEM(#444,(#412),$);
#446=IFCSHAPEREPRESENTATION(#24,'Body','SweptSolid',(#444));
#447=IFCPRODUCTDEFINITIONSHAPE($,$,(#446));
#448=IFCSLAB('0dc_dU7Cj6aRLiY5JtJ$hK',#18,'Floor:Generic - 12":1604228',$,'Floor:Generic - 12"',#438,#447,'1604228',.FLOOR.);
#449=IFCMATERIALLAYERSETUSAGE(#423,.AXIS3.,.POSITIVE.,0.,$);
#450=IFCPROPERTYSET('276gMzVdpp_cSHYolEj9qz',#18,'Pset_EnvironmentalImpactIndicators',$,(#425));
#451=IFCPROPERTYSINGLEVALUE('Reference',$,IFCLABEL('Generic - 12"'),$);
#452=IFCPROPERTYSET('0oXugLEOtVBokOwj$U$5dw',#18,'Pset_ReinforcementBarPitchOfSlab',$,(#451));
#453=IFCPROPERTYSET('2O0Ga4QDSDvwn6m97IASlJ',#18,'Pset_SlabCommon',$,(#45,#366,#425,#429));
#454=IFCRELDEFINESBYPROPERTIES('0acxjl9FIX0k8LVxaZajAl',#18,$,$,(#448),#450);
#455=IFCRELDEFINESBYPROPERTIES('3nT5$nkPfgGdHTYI8KUt6U',#18,$,$,(#448),#452);
#456=IFCRELDEFINESBYPROPERTIES('28jdYm8_FcpNU2nfTma9CS',#18,$,$,(#448),#453);
#457=IFCCARTESIANPOINT((100.,8100.,0.));
#458=IFCAXIS2PLACEMENT3D(#457,#9,#8);
#459=IFCLOCALPLACEMENT(#38,#458);
#460=IFCCARTESIANPOINT((8100.,-0.));
#461=IFCPOLYLINE((#4,#460));
#462=IFCSHAPEREPRESENTATION(#23,'Axis','Curve2D',(#461));
#463=IFCCARTESIANPOINT((4050.00000000001,-1.4210854715202E-14));
#464=IFCAXIS2PLACEMENT2D(#463,#12);
#465=IFCRECTANGLEPROFILEDEF(.AREA.,$,#464,8100.00000000003,200.);
#466=IFCAXIS2PLACEMENT3D(#3,$,$);
#467=IFCEXTRUDEDAREASOLID(#465,#466,#9,2700.);
#468=IFCSTYLEDITEM(#467,(#202),$);
#469=IFCSHAPEREPRESENTATION(#24,'Body','SweptSolid',(#467));
#470=IFCPRODUCTDEFINITIONSHAPE($,$,(#462,#469));
#471=IFCWALL('0dc_dU7Cj6aRLiY5JtJ$gm',#18,'Basic Wall:Generic - 200mm:1604320',$,'Basic Wall:Generic - 200mm',#459,#470,'1604320',.NOTDEFINED.);
#472=IFCPROPERTYSET('2ytjgG7S3RFjFYIYRlJ3hi',#18,'Pset_EnvironmentalImpactIndicators',$,(#214));
#473=IFCPROPERTYSINGLEVALUE('Reference',$,IFCLABEL('Generic - 200mm'),$);
#474=IFCPROPERTYSET('1bRDf2La0irvk5BDH5RRV1',#18,'Pset_ReinforcementBarPitchOfWall',$,(#473));
#475=IFCPROPERTYSINGLEVALUE('ExtendToStructure',$,IFCBOOLEAN(.F.),$);
#476=IFCPROPERTYSET('3LLzXYHAs91PtNvnVWtDYi',#18,'Pset_WallCommon',$,(#214,#218,#219,#475));
#477=IFCRELDEFINESBYPROPERTIES('3HxdTzoAj$B_50mElgnh9Q',#18,$,$,(#471),#472);
#478=IFCRELDEFINESBYPROPERTIES('0ElyFfq7Ji5xsS9YwJQ1Fm',#18,$,$,(#471),#474);
#479=IFCRELDEFINESBYPROPERTIES('2xQTDRXVXHJvr6xGicBUOS',#18,$,$,(#471),#476);
#480=IFCCARTESIANPOINT((200.,100.,0.));
#481=IFCAXIS2PLACEMENT3D(#480,$,$);
#482=IFCLOCALPLACEMENT(#38,#481);
#483=IFCCARTESIANPOINT((7500.,0.));
#484=IFCPOLYLINE((#4,#483));
#485=IFCSHAPEREPRESENTATION(#23,'Axis','Curve2D',(#484));
#486=IFCCARTESIANPOINT((3750.,0.));
#487=IFCAXIS2PLACEMENT2D(#486,#12);
#488=IFCRECTANGLEPROFILEDEF(.AREA.,$,#487,7500.,200.);
#489=IFCAXIS2PLACEMENT3D(#3,$,$);
#490=IFCEXTRUDEDAREASOLID(#488,#489,#9,2700.);
#491=IFCSTYLEDITEM(#490,(#202),$);
#492=IFCSHAPEREPRESENTATION(#24,'Body','SweptSolid',(#490));
#493=IFCPRODUCTDEFINITIONSHAPE($,$,(#485,#492));
#494=IFCWALL('0dc_dU7Cj6aRLiY5JtJ$gn',#18,'Basic Wall:Generic - 200mm:1604321',$,'Basic Wall:Generic - 200mm',#482,#493,'1604321',.NOTDEFINED.);
#495=IFCPROPERTYSET('06hrcvL18aqikPEOi4Zw1H',#18,'Pset_EnvironmentalImpactIndicators',$,(#214));
#496=IFCPROPERTYSINGLEVALUE('Reference',$,IFCLABEL('Generic - 200mm'),$);
#497=IFCPROPERTYSET('3MBBG6gF3Z2WcEdSGX6ovw',#18,'Pset_ReinforcementBarPitchOfWall',$,(#496));
#498=IFCPROPERTYSET('3MlU3lQPxjsV2Nb5ohPtE1',#18,'Pset_WallCommon',$,(#214,#218,#219,#475));
#499=IFCRELDEFINESBYPROPERTIES('0DMDLz2ttSozYvo$P8RWtG',#18,$,$,(#494),#495);
#500=IFCRELDEFINESBYPROPERTIES('29LI3KgPHThaIm0Xe3mq9j',#18,$,$,(#494),#497);
#501=IFCRELDEFINESBYPROPERTIES('2giCjy98CikmZB2MsGq1Cv',#18,$,$,(#494),#498);
#502=IFCCARTESIANPOINT((7600.,200.,0.));
#503=IFCAXIS2PLACEMENT3D(#502,#9,#7);
#504=IFCLOCALPLACEMENT(#38,#503);
#505=IFCCARTESIANPOINT((7900.,-0.));
#506=IFCPOLYLINE((#4,#505));
#507=IFCSHAPEREPRESENTATION(#23,'Axis','Curve2D',(#506));
#508=IFCCARTESIANPOINT((3950.00000000001,-1.56319401867222E-13));
#509=IFCAXIS2PLACEMENT2D(#508,#12);
#510=IFCRECTANGLEPROFILEDEF(.AREA.,$,#509,7900.00000000003,200.);
#511=IFCAXIS2PLACEMENT3D(#3,$,$);
#512=IFCEXTRUDEDAREASOLID(#510,#511,#9,2700.);
#513=IFCSTYLEDITEM(#512,(#202),$);
#514=IFCSHAPEREPRESENTATION(#24,'Body','SweptSolid',(#512));
#515=IFCPRODUCTDEFINITIONSHAPE($,$,(#507,#514));
#516=IFCWALL('0dc_dU7Cj6aRLiY5JtJ$gp',#18,'Basic Wall:Generic - 200mm:1604323',$,'Basic Wall:Generic - 200mm',#504,#515,'1604323',.NOTDEFINED.);
#517=IFCPROPERTYSET('3zPPb3cTEU53_RuZVs0jyK',#18,'Pset_EnvironmentalImpactIndicators',$,(#214));
#518=IFCPROPERTYSINGLEVALUE('Reference',$,IFCLABEL('Generic - 200mm'),$);
#519=IFCPROPERTYSET('0I_q8Lr$scIShc$UdU$sfn',#18,'Pset_ReinforcementBarPitchOfWall',$,(#518));
#520=IFCPROPERTYSET('0vL3J1JeYZgMYOv3_a_xNz',#18,'Pset_WallCommon',$,(#214,#218,#219,#475));
#521=IFCRELDEFINESBYPROPERTIES('2pJkorwdr$uIKk$vYusP4f',#18,$,$,(#516),#517);
#522=IFCRELDEFINESBYPROPERTIES('38BA_9KMB0ApyEMiXmQwmu',#18,$,$,(#516),#519);
#523=IFCRELDEFINESBYPROPERTIES('31fatt8NwvIC6lPRKw3eT8',#18,$,$,(#516),#520);
#524=IFCCARTESIANPOINT((7500.,8000.,0.));
#525=IFCAXIS2PLACEMENT3D(#524,#9,#6);
#526=IFCLOCALPLACEMENT(#38,#525);
#527=IFCCARTESIANPOINT((7300.,0.));
#528=IFCPOLYLINE((#4,#527));
#529=IFCSHAPEREPRESENTATION(#23,'Axis','Curve2D',(#528));
#530=IFCCARTESIANPOINT((3650.,4.40536496171262E-13));
#531=IFCAXIS2PLACEMENT2D(#530,#12);
#532=IFCRECTANGLEPROFILEDEF(.AREA.,$,#531,7300.,200.);
#533=IFCAXIS2PLACEMENT3D(#3,$,$);
#534=IFCEXTRUDEDAREASOLID(#532,#533,#9,2700.);
#535=IFCSTYLEDITEM(#534,(#202),$);
#536=IFCSHAPEREPRESENTATION(#24,'Body','SweptSolid',(#534));
#537=IFCPRODUCTDEFINITIONSHAPE($,$,(#529,#536));
#538=IFCWALL('0dc_dU7Cj6aRLiY5JtJ$gq',#18,'Basic Wall:Generic - 200mm:1604324',$,'Basic Wall:Generic - 200mm',#526,#537,'1604324',.NOTDEFINED.);
#539=IFCPROPERTYSET('3yldJFi$IEHcpq$bKlw2es',#18,'Pset_EnvironmentalImpactIndicators',$,(#214));
#540=IFCPROPERTYSINGLEVALUE('Reference',$,IFCLABEL('Generic - 200mm'),$);
#541=IFCPROPERTYSET('01druasput1E2IFr0CsOpF',#18,'Pset_ReinforcementBarPitchOfWall',$,(#540));
#542=IFCPROPERTYSET('1VnTAx_S$St_RHBxByE1HG',#18,'Pset_WallCommon',$,(#214,#218,#219,#475));
#543=IFCRELDEFINESBYPROPERTIES('0jet81EecSaFVCL$Kg28MX',#18,$,$,(#538),#539);
#544=IFCRELDEFINESBYPROPERTIES('1lgyD8vv5zcOd7FEMsJRWl',#18,$,$,(#538),#541);
#545=IFCRELDEFINESBYPROPERTIES('3Ey0pBrvVWk4tvyWYFMCC3',#18,$,$,(#538),#542);
#546=IFCCARTESIANPOINT((7500.,4566.7786621288,0.));
#547=IFCAXIS2PLACEMENT3D(#546,#9,#6);
#548=IFCLOCALPLACEMENT(#38,#547);
#549=IFCCARTESIANPOINT((7300.,0.));
#550=IFCPOLYLINE((#4,#549));
#551=IFCSHAPEREPRESENTATION(#23,'Axis','Curve2D',(#550));
#552=IFCCARTESIANPOINT((3650.,9.9475983006414E-14));
#553=IFCAXIS2PLACEMENT2D(#552,#12);
#554=IFCRECTANGLEPROFILEDEF(.AREA.,$,#553,7300.,200.);
#555=IFCAXIS2PLACEMENT3D(#3,$,$);
#556=IFCEXTRUDEDAREASOLID(#554,#555,#9,2700.);
#557=IFCSTYLEDITEM(#556,(#202),$);
#558=IFCSHAPEREPRESENTATION(#24,'Body','SweptSolid',(#556));
#559=IFCPRODUCTDEFINITIONSHAPE($,$,(#551,#558));
#560=IFCWALL('0dc_dU7Cj6aRLiY5JtJ$mk',#18,'Basic Wall:Generic - 200mm:1604734',$,'Basic Wall:Generic - 200mm',#548,#559,'1604734',.NOTDEFINED.);
#561=IFCPROPERTYSET('0vtHDXeBTNkDn7mAwoYqQe',#18,'Pset_EnvironmentalImpactIndicators',$,(#214));
#562=IFCPROPERTYSINGLEVALUE('Reference',$,IFCLABEL('Generic - 200mm'),$);
#563=IFCPROPERTYSET('1ttcS0ly1Q3E6Ktyi7RCfX',#18,'Pset_ReinforcementBarPitchOfWall',$,(#562));
#564=IFCPROPERTYSET('2WdkuVt5JaW4pwqHBFKCQN',#18,'Pset_WallCommon',$,(#214,#218,#219,#475));
#565=IFCRELDEFINESBYPROPERTIES('0qT1uS5IuhHiQdh$1QwDKG',#18,$,$,(#560),#561);
#566=IFCRELDEFINESBYPROPERTIES('1366AHYtrzQWyzE9T7CuPv',#18,$,$,(#560),#563);
#567=IFCRELDEFINESBYPROPERTIES('3EMAu78l6E$GxPLaEvsZ5b',#18,$,$,(#560),#564);
#568=IFCCARTESIANPOINT((7500.,4566.7786621288,0.));
#569=IFCAXIS2PLACEMENT3D(#568,#9,#6);
#570=IFCLOCALPLACEMENT(#34,#569);
#571=IFCCARTESIANPOINT((4731.98951361723,0.));
#572=IFCPOLYLINE((#4,#571));
#573=IFCSHAPEREPRESENTATION(#23,'Axis','Curve2D',(#572));
#574=IFCCARTESIANPOINT((2365.99475680862,7.8159700933611E-14));
#575=IFCAXIS2PLACEMENT2D(#574,#12);
#576=IFCRECTANGLEPROFILEDEF(.AREA.,$,#575,4731.98951361723,200.);
#577=IFCAXIS2PLACEMENT3D(#3,$,$);
#578=IFCEXTRUDEDAREASOLID(#576,#577,#9,2700.);
#579=IFCSTYLEDITEM(#578,(#202),$);
#580=IFCSHAPEREPRESENTATION(#24,'Body','SweptSolid',(#578));
#581=IFCPRODUCTDEFINITIONSHAPE($,$,(#573,#580));
#582=IFCWALL('0dc_dU7Cj6aRLiY5JtJ$op',#18,'Basic Wall:Generic - 200mm:1604835',$,'Basic Wall:Generic - 200mm',#570,#581,'1604835',.NOTDEFINED.);
#583=IFCPROPERTYSET('3mnsmkmvansB_ClImO1XeY',#18,'Pset_EnvironmentalImpactIndicators',$,(#214));
#584=IFCPROPERTYSINGLEVALUE('Reference',$,IFCLABEL('Generic - 200mm'),$);
#585=IFCPROPERTYSET('11RWynrzj2IxtBfvUqQXBw',#18,'Pset_ReinforcementBarPitchOfWall',$,(#584));
#586=IFCPROPERTYSET('2ET0OwYZNMSRU$_kVAEAjf',#18,'Pset_WallCommon',$,(#214,#218,#219,#475));
#587=IFCRELDEFINESBYPROPERTIES('2amFATNuGsKgr6bpcdz88P',#18,$,$,(#582),#583);
#588=IFCRELDEFINESBYPROPERTIES('1QxbmnRd0gSQHlA0MzP1av',#18,$,$,(#582),#585);
#589=IFCRELDEFINESBYPROPERTIES('0vxAmtQP5R75__p6q9C$iR',#18,$,$,(#582),#586);
#590=IFCCARTESIANPOINT((2868.01048638277,4666.77866212881,0.));
#591=IFCAXIS2PLACEMENT3D(#590,#9,#7);
#592=IFCLOCALPLACEMENT(#34,#591);
#593=IFCCARTESIANPOINT((3233.22133787121,0.));
#594=IFCPOLYLINE((#4,#593));
#595=IFCSHAPEREPRESENTATION(#23,'Axis','Curve2D',(#594));
#596=IFCCARTESIANPOINT((1616.6106689356,1.20792265079217E-13));
#597=IFCAXIS2PLACEMENT2D(#596,#12);
#598=IFCRECTANGLEPROFILEDEF(.AREA.,$,#597,3233.22133787121,200.);
#599=IFCAXIS2PLACEMENT3D(#3,$,$);
#600=IFCEXTRUDEDAREASOLID(#598,#599,#9,2700.);
#601=IFCSTYLEDITEM(#600,(#202),$);
#602=IFCSHAPEREPRESENTATION(#24,'Body','SweptSolid',(#600));
#603=IFCPRODUCTDEFINITIONSHAPE($,$,(#595,#602));
#604=IFCWALL('0dc_dU7Cj6aRLiY5JtJ$oq',#18,'Basic Wall:Generic - 200mm:1604836',$,'Basic Wall:Generic - 200mm',#592,#603,'1604836',.NOTDEFINED.);
#605=IFCPROPERTYSET('3AbQSokDym0f_hkk8emw0S',#18,'Pset_EnvironmentalImpactIndicators',$,(#214));
#606=IFCPROPERTYSINGLEVALUE('Reference',$,IFCLABEL('Generic - 200mm'),$);
#607=IFCPROPERTYSET('2gyAVulOfOKFNBOLVkYxtL',#18,'Pset_ReinforcementBarPitchOfWall',$,(#606));
#608=IFCPROPERTYSET('0ktj6ss_8_Qxude4nPPINe',#18,'Pset_WallCommon',$,(#214,#218,#219,#475));
#609=IFCRELDEFINESBYPROPERTIES('27szPblcfyN6bPfJMKZrYo',#18,$,$,(#604),#605);
#610=IFCRELDEFINESBYPROPERTIES('205NBDdj29bIWWKVrarFZ9',#18,$,$,(#604),#607);
#611=IFCRELDEFINESBYPROPERTIES('0pmUOl7xRKGGrvdDAmWPEC',#18,$,$,(#604),#608);
#612=IFCAXIS2PLACEMENT3D(#3,$,$);
#614=IFCCARTESIANPOINT((5.47117906535277E-13,5.47117906535277E-13));
#615=IFCAXIS2PLACEMENT2D(#614,#11);
#616=IFCRECTANGLEPROFILEDEF(.AREA.,'300 x 450mm',#615,200.,200.);
#617=IFCCARTESIANPOINT((5800.,6200.,3000.));
#618=IFCAXIS2PLACEMENT3D(#617,#9,#6);
#619=IFCEXTRUDEDAREASOLID(#616,#618,#9,3000.);
#620=IFCSTYLEDITEM(#619,(#343),$);
#621=IFCSHAPEREPRESENTATION(#24,'Body','SweptSolid',(#619));
#622=IFCAXIS2PLACEMENT3D(#3,$,$);
#623=IFCREPRESENTATIONMAP(#622,#621);
#624=IFCCOLUMNTYPE('0dc_dU7Cj6aRLiW5JtJ$qt',#18,'M_Concrete-Rectangular-Column:300 x 450mm',$,$,(#639),(#623),'1537404',$,.COLUMN.);
#625=IFCMAPPEDITEM(#623,#357);
#626=IFCSHAPEREPRESENTATION(#24,'Body','MappedRepresentation',(#625));
#627=IFCPRODUCTDEFINITIONSHAPE($,$,(#626));
#628=IFCCARTESIANPOINT((0.,0.,-3000.));
#629=IFCAXIS2PLACEMENT3D(#628,$,$);
#630=IFCLOCALPLACEMENT(#38,#629);
#631=IFCCOLUMN('0dc_dU7Cj6aRLiY5JtJ$qt',#18,'M_Concrete-Rectangular-Column:300 x 450mm:1604967',$,'M_Concrete-Rectangular-Column:300 x 450mm',#630,#627,'1604967',.COLUMN.);
#632=IFCPROPERTYSET('1Ek$SLvSpzb$Q$xx49ZA1O',#18,'Pset_ColumnCommon',$,(#45,#365,#366));
#633=IFCPROPERTYSET('2C1vbYPC9lPFrMnQpD896j',#18,'Pset_EnvironmentalImpactIndicators',$,(#365));
#634=IFCPROPERTYSINGLEVALUE('Reference',$,IFCLABEL('300 x 450mm'),$);
#635=IFCPROPERTYSET('1dMxswOa3bOdcQ8nCMkbxO',#18,'Pset_ReinforcementBarPitchOfColumn',$,(#634));
#636=IFCRELDEFINESBYPROPERTIES('16E4Jjxs0PUyVOTUwnCffG',#18,$,$,(#631),#632);
#637=IFCRELDEFINESBYPROPERTIES('3kPeFJJI$ZUvKnGdL2SSle',#18,$,$,(#631),#633);
#638=IFCRELDEFINESBYPROPERTIES('1mN5clhWs8RiFa3Vvu6HZK',#18,$,$,(#631),#635);
#639=IFCPROPERTYSET('3hOCoEalAcXYeephBMG55J',#18,'Pset_ColumnCommon',$,(#366));
#640=IFCAXIS2PLACEMENT3D(#3,$,$);
#642=IFCCARTESIANPOINT((-1.4210854715202E-13,5.47117906535277E-13));
#643=IFCAXIS2PLACEMENT2D(#642,#11);
#644=IFCRECTANGLEPROFILEDEF(.AREA.,'300 x 450mm',#643,200.,200.);
#645=IFCCARTESIANPOINT((1900.,6200.,3000.));
#646=IFCAXIS2PLACEMENT3D(#645,#9,#6);
#647=IFCEXTRUDEDAREASOLID(#644,#646,#9,3000.);
#648=IFCSTYLEDITEM(#647,(#343),$);
#649=IFCSHAPEREPRESENTATION(#24,'Body','SweptSolid',(#647));
#650=IFCAXIS2PLACEMENT3D(#3,$,$);
#651=IFCREPRESENTATIONMAP(#650,#649);
#652=IFCCOLUMNTYPE('0dc_dU7Cj6aRLiW5JtJ$t0',#18,'M_Concrete-Rectangular-Column:300 x 450mm',$,$,(#667),(#651),'1537404',$,.COLUMN.);
#653=IFCMAPPEDITEM(#651,#357);
#654=IFCSHAPEREPRESENTATION(#24,'Body','MappedRepresentation',(#653));
#655=IFCPRODUCTDEFINITIONSHAPE($,$,(#654));
#656=IFCCARTESIANPOINT((0.,0.,-3000.));
#657=IFCAXIS2PLACEMENT3D(#656,$,$);
#658=IFCLOCALPLACEMENT(#38,#657);
#659=IFCCOLUMN('0dc_dU7Cj6aRLiY5JtJ$t0',#18,'M_Concrete-Rectangular-Column:300 x 450mm:1605008',$,'M_Concrete-Rectangular-Column:300 x 450mm',#658,#655,'1605008',.COLUMN.);
#660=IFCPROPERTYSET('083FgQjr3ETEPTW_SZRu$t',#18,'Pset_ColumnCommon',$,(#45,#365,#366));
#661=IFCPROPERTYSET('0FgP5rSNz5ZwTGx8K6cTWA',#18,'Pset_EnvironmentalImpactIndicators',$,(#365));
#662=IFCPROPERTYSINGLEVALUE('Reference',$,IFCLABEL('300 x 450mm'),$);
#663=IFCPROPERTYSET('2abIbAzLcqpkBvydmOLx1E',#18,'Pset_ReinforcementBarPitchOfColumn',$,(#662));
#664=IFCRELDEFINESBYPROPERTIES('10LIWdHMJbscPP_IL5UHgx',#18,$,$,(#659),#660);
#665=IFCRELDEFINESBYPROPERTIES('2pnyULbEiT4Rp_tdadzcHt',#18,$,$,(#659),#661);
#666=IFCRELDEFINESBYPROPERTIES('3dG$7dJkCsa7OuEJCKF3n3',#18,$,$,(#659),#663);
#667=IFCPROPERTYSET('3UBsAulAU5AcrGQgl9YOCQ',#18,'Pset_ColumnCommon',$,(#366));
#668=IFCAXIS2PLACEMENT3D(#3,$,$);
#670=IFCCARTESIANPOINT((0.,0.));
#671=IFCAXIS2PLACEMENT2D(#670,#11);
#672=IFCRECTANGLEPROFILEDEF(.AREA.,'300 x 450mm',#671,200.,200.);
#673=IFCCARTESIANPOINT((2868.01048638277,2466.77866212882,-2500.));
#674=IFCAXIS2PLACEMENT3D(#673,#9,#6);
#675=IFCEXTRUDEDAREASOLID(#672,#674,#9,2195.2);
#676=IFCCARTESIANPOINT((0.,0.));
#677=IFCAXIS2PLACEMENT2D(#676,#11);
#678=IFCRECTANGLEPROFILEDEF(.AREA.,'300 x 450mm',#677,200.,200.);
#679=IFCCARTESIANPOINT((2868.01048638277,2466.77866212882,0.));
#680=IFCAXIS2PLACEMENT3D(#679,#9,#6);
#681=IFCEXTRUDEDAREASOLID(#678,#680,#9,2695.2);
#682=IFCSTYLEDITEM(#675,(#343),$);
#683=IFCSTYLEDITEM(#681,(#343),$);
#684=IFCSHAPEREPRESENTATION(#24,'Body','SweptSolid',(#675,#681));
#685=IFCAXIS2PLACEMENT3D(#3,$,$);
#686=IFCREPRESENTATIONMAP(#685,#684);
#687=IFCCOLUMNTYPE('0CGowky6PBXuUPxpf59ezk',#18,'M_Concrete-Rectangular-Column:300 x 450mm',$,$,(#701),(#686),'1537404',$,.COLUMN.);
#688=IFCMAPPEDITEM(#686,#357);
#689=IFCSHAPEREPRESENTATION(#24,'Body','MappedRepresentation',(#688));
#690=IFCPRODUCTDEFINITIONSHAPE($,$,(#689));
#691=IFCAXIS2PLACEMENT3D(#3,$,$);
#692=IFCLOCALPLACEMENT(#34,#691);
#693=IFCCOLUMN('0CGowky6PBXuUPvpf59ezk',#18,'M_Concrete-Rectangular-Column:300 x 450mm:1605084',$,'M_Concrete-Rectangular-Column:300 x 450mm',#692,#690,'1605084',.COLUMN.);
#694=IFCPROPERTYSET('1Ut3Bsd9S_NQQk7YcO9pjK',#18,'Pset_ColumnCommon',$,(#45,#365,#366));
#695=IFCPROPERTYSET('2qH3ELhEgZib_YZ7_zpcG4',#18,'Pset_EnvironmentalImpactIndicators',$,(#365));
#696=IFCPROPERTYSINGLEVALUE('Reference',$,IFCLABEL('300 x 450mm'),$);
#697=IFCPROPERTYSET('0tpOTq5$WdwFdLVc5cbP6T',#18,'Pset_ReinforcementBarPitchOfColumn',$,(#696));
#698=IFCRELDEFINESBYPROPERTIES('2t4iP$IdBNingk9GKInPc6',#18,$,$,(#693),#694);
#699=IFCRELDEFINESBYPROPERTIES('3Gc$kHMp$v5JrsotaA6S2z',#18,$,$,(#693),#695);
#700=IFCRELDEFINESBYPROPERTIES('2o6ImbVf3Dne3b2ljDHWrd',#18,$,$,(#693),#697);
#701=IFCPROPERTYSET('3DLIBEo$JsNiGsm4fm0F9Q',#18,'Pset_ColumnCommon',$,(#366));
#702=IFCPROPERTYSINGLEVALUE('Reference',$,IFCIDENTIFIER('8mm Head'),$);
#703=IFCPROPERTYSINGLEVALUE('AboveGround',$,IFCLOGICAL(.U.),$);
#704=IFCPROPERTYSET('16L50AfyZF4hYq5TGET4H4',#18,'Pset_BuildingStoreyCommon',$,(#702,#703));
#705=IFCPROPERTYSET('2J7ac_h5ujdwWuzVwBIIta',#18,'Pset_SpaceCommon',$,(#45,#702));
#706=IFCRELDEFINESBYPROPERTIES('2VdfSfkgzGoZi_3SgzE8$0',#18,$,$,(#35),#704);
#707=IFCRELDEFINESBYPROPERTIES('3$YdOpA8iaPobC8MDiWxoI',#18,$,$,(#35),#705);
#708=IFCRELCONTAINEDINSPATIALSTRUCTURE('2JF4e6axWHqu3u0C5FZlmi',#18,$,$,(#206,#254,#288,#321,#363,#393,#416,#582,#604,#693),#35);
#709=IFCPROPERTYSET('1n34enW33Z_3Qq2Pm1kjQZ',#18,'Pset_BuildingStoreyCommon',$,(#702,#703));
#710=IFCPROPERTYSET('0qNc4$IaPwTvoqOd7IlIE4',#18,'Pset_SpaceCommon',$,(#45,#702));
#711=IFCRELDEFINESBYPROPERTIES('36oM8gyLQ5_Z6XoGK5uP1E',#18,$,$,(#39),#709);
#712=IFCRELDEFINESBYPROPERTIES('0jA6Vdz$3CfPvu_I1iTL6J',#18,$,$,(#39),#710);
#713=IFCRELCONTAINEDINSPATIALSTRUCTURE('1ZGO8hrFCHqw0v0066FpFv',#18,$,$,(#448,#471,#494,#516,#538,#560,#631,#659),#39);
#714=IFCRELAGGREGATES('2KFB6YYWgXBmucZ8cm7uCP',#18,$,$,#27,(#42));
#715=IFCRELAGGREGATES('16_hfJTeCqU7LcG8m10BTS',#18,$,$,#42,(#32));
#716=IFCRELAGGREGATES('2JF4e6axWHqu3u0C9FZlmi',#18,$,$,#35,(#130,#169));
#717=IFCRELAGGREGATES('1yhDISh1T5aQqAoygxGIhP',#18,$,$,#32,(#35,#39));
#718=IFCPROPERTYSINGLEVALUE('NumberOfStoreys',$,IFCCOUNTMEASURE(2),$);
#719=IFCPROPERTYSINGLEVALUE('IsLandmarked',$,IFCLOGICAL(.U.),$);
#720=IFCPROPERTYSET('01y_GmllCupEYuBgfGbhkd',#18,'Pset_BuildingCommon',$,(#43,#718,#719));
#721=IFCPROPERTYSET('1rUR7OGyIAkZT62xvibLnd',#18,'Pset_BuildingElementProxyCommon',$,(#43,#45));
#722=IFCPROPERTYSET('2kFDjjfIaTsBi7MLK$i$Me',#18,'Pset_BuildingStoreyCommon',$,(#43,#703));
#723=IFCPROPERTYSET('1TYvb3FgH88mtl04iE5P1T',#18,'Pset_BuildingSystemCommon',$,(#43));
#724=IFCPROPERTYSET('2W94HCj5xfigmNGtkBMklk',#18,'Pset_SpaceCommon',$,(#43,#45));
#725=IFCRELDEFINESBYPROPERTIES('0vDjba2fshDEh0_KufwWht',#18,$,$,(#32),#720);
#726=IFCRELDEFINESBYPROPERTIES('1V6UQfELB4oPy3GPEaJMPw',#18,$,$,(#32),#721);
#727=IFCRELDEFINESBYPROPERTIES('0Vpd75HttOMIhzXutBGgCt',#18,$,$,(#32),#722);
#728=IFCRELDEFINESBYPROPERTIES('22VMRBFW9n6_S81yWIP225',#18,$,$,(#32),#723);
#729=IFCRELDEFINESBYPROPERTIES('2w3bzVlKnfBVjA3_BjG2II',#18,$,$,(#32),#724);
#730=IFCRELASSOCIATESMATERIAL('2YmqRJStaB6wCPJslvwj0o',#18,$,$,(#416),#424);
#731=IFCRELASSOCIATESMATERIAL('0dZgjlZTb6XdOSHZ7uKHaz',#18,$,$,(#448),#449);
#732=IFCRELASSOCIATESMATERIAL('22T9r9KB1F3JFgePfxkUGp',#18,$,$,(#206,#213,#254,#288,#321,#471,#494,#516,#538,#560,#582,#604),#212);
#733=IFCRELASSOCIATESMATERIAL('1LbUtHsXT_tA2PgohHsVpm',#18,$,$,(#348,#387,#624,#652,#687),#356);
#734=IFCRELASSOCIATESMATERIAL('0RkFpO4y91A56i7kETvvWZ',#18,$,$,(#417),#423);
#735=IFCRELDEFINESBYTYPE('0QdmBOFfhGiXDumSAendJq',#18,$,$,(#130),#131);
#736=IFCRELDEFINESBYTYPE('38WuJFUB5nni$2kXF9H0BU',#18,$,$,(#169),#170);
#737=IFCRELDEFINESBYTYPE('0MSq_ijuC5q4PUKv4QkOsA',#18,$,$,(#206,#254,#288,#321,#471,#494,#516,#538,#560,#582,#604),#213);
#738=IFCRELDEFINESBYTYPE('1xjnwE7Z8_HMNDxSU7wkFg',#18,$,$,(#363),#348);
#739=IFCRELDEFINESBYTYPE('2qw2vjlNyk$8jsDDUOGijH',#18,$,$,(#393),#387);
#740=IFCRELDEFINESBYTYPE('3AVJtbOHyTnujdziMMd$qq',#18,$,$,(#416,#448),#417);
#741=IFCRELDEFINESBYTYPE('0YiMO8H0ohOtvANvKbIcIh',#18,$,$,(#631),#624);
#742=IFCRELDEFINESBYTYPE('3kU3PSsufS8ORg3wkUCER9',#18,$,$,(#659),#652);
#743=IFCRELDEFINESBYTYPE('3zj$9V8$nYO5lGxlDTSwjB',#18,$,$,(#693),#687);
#744=IFCRELCONNECTSPATHELEMENTS('3ugK07sTRHPQgCANXzjPel',#18,'3Vyqk8cSj8TOuAk6zHUwAt|3Vyqk8cSj8TOuAk6zHUwNQ','Structural',$,#206,#321,(),(),.ATEND.,.ATSTART.);
#745=IFCRELCONNECTSPATHELEMENTS('23XeiboBqsTJYQlvX$RKBJ',#18,'3Vyqk8cSj8TOuAk6zHUwAt|3Vyqk8cSj8TOuAk6zHUwAc','Structural',$,#206,#254,(),(),.ATSTART.,.ATEND.);
#746=IFCRELCONNECTSPATHELEMENTS('3w3LufOHNrl72DM5FS5dUv',#18,'3Vyqk8cSj8TOuAk6zHUwAc|3Vyqk8cSj8TOuAk6zHUwMJ','Structural',$,#254,#288,(),(),.ATSTART.,.ATEND.);
#747=IFCRELCONNECTSPATHELEMENTS('0LaT41zAAAo8nacED5QZkK',#18,'3Vyqk8cSj8TOuAk6zHUwMJ|3Vyqk8cSj8TOuAk6zHUwNQ','Structural',$,#288,#321,(),(),.ATSTART.,.ATEND.);
#748=IFCRELCONNECTSPATHELEMENTS('158iFnSUv2DlzHWy2FloUv',#18,'0dc_dU7Cj6aRLiY5JtJ$gm|0dc_dU7Cj6aRLiY5JtJ$gq','Structural',$,#471,#538,(),(),.ATEND.,.ATSTART.);
#749=IFCRELCONNECTSPATHELEMENTS('0D204Zb0jL8XQctESkfzp8',#18,'0dc_dU7Cj6aRLiY5JtJ$gm|0dc_dU7Cj6aRLiY5JtJ$gn','Structural',$,#471,#494,(),(),.ATSTART.,.ATEND.);
#750=IFCRELCONNECTSPATHELEMENTS('2EjZpdlE_5IS8AMXgmfcqN',#18,'0dc_dU7Cj6aRLiY5JtJ$gn|0dc_dU7Cj6aRLiY5JtJ$gp','Structural',$,#494,#516,(),(),.ATSTART.,.ATEND.);
#751=IFCRELCONNECTSPATHELEMENTS('3UbNW4bi97P8w77wYU_br0',#18,'0dc_dU7Cj6aRLiY5JtJ$gp|0dc_dU7Cj6aRLiY5JtJ$gq','Structural',$,#516,#538,(),(),.ATSTART.,.ATEND.);
#752=IFCRELCONNECTSPATHELEMENTS('2Sno3eo9yH4dQ8_iLmS2vj',#18,'0dc_dU7Cj6aRLiY5JtJ$gp|0dc_dU7Cj6aRLiY5JtJ$mk','Structural',$,#516,#560,(),(),.ATSTART.,.ATPATH.);
#753=IFCRELCONNECTSPATHELEMENTS('26orj7XvpXMf4lBErd5_e_',#18,'0dc_dU7Cj6aRLiY5JtJ$gm|0dc_dU7Cj6aRLiY5JtJ$mk','Structural',$,#471,#560,(),(),.ATEND.,.ATPATH.);
#754=IFCRELCONNECTSPATHELEMENTS('0rDEmpGd1Qm3M1ti9icuyk',#18,'3Vyqk8cSj8TOuAk6zHUwMJ|0dc_dU7Cj6aRLiY5JtJ$op','Structural',$,#288,#582,(),(),.ATSTART.,.ATPATH.);
#755=IFCRELCONNECTSPATHELEMENTS('0tRPgkCnyvB0GRHAbfJ1vW',#18,'0dc_dU7Cj6aRLiY5JtJ$op|0dc_dU7Cj6aRLiY5JtJ$oq','Structural',$,#582,#604,(),(),.ATSTART.,.ATEND.);
#756=IFCRELCONNECTSPATHELEMENTS('2rM47ymjE5qnEUMQBEaMrW',#18,'3Vyqk8cSj8TOuAk6zHUwNQ|0dc_dU7Cj6aRLiY5JtJ$oq','Structural',$,#321,#604,(),(),.ATEND.,.ATPATH.);
#757=IFCPRESENTATIONLAYERASSIGNMENT('A-AREA-____-OTLN',$,(#127,#167),$);
#758=IFCPRESENTATIONLAYERASSIGNMENT('A-WALL-____-OTLN',$,(#181,#204,#233,#252,#267,#286,#301,#319,#462,#469,#485,#492,#507,#514,#529,#536,#551,#558,#573,#580,#595,#602),$);
#759=IFCPRESENTATIONLAYERASSIGNMENT('S-COLS-____-OTLN',$,(#345,#359,#384,#389,#621,#626,#649,#654,#684,#689),$);
#760=IFCPRESENTATIONLAYERASSIGNMENT('A-FLOR-____-OTLN',$,(#414,#446),$);
#761=IFCRELASSOCIATESCLASSIFICATION('2mNchzfGWDr_AK3qpy_v$I',#18,'Exterior Walls','Exterior Walls:B2010',(#206,#254,#288,#321,#471,#494,#516,#538,#560,#582,#604),#225);
#762=IFCRELASSOCIATESCLASSIFICATION('3vI84WJLA6v8SAADAMGrIc',#18,'Floor Construction','Floor Construction:B1010',(#416,#448),#434);
#763=IFCUNITASSIGNMENT((#19,#129,#340));
ENDSEC;
END-ISO-10303-21;
