ISO-10303-21;
HEADER;
FILE_DESCRIPTION(('ViewDefinition [CoordinationView]','RevitIdentifiers [ContentGUID: cbb0ae2e-6350-4225-8ca4-af668662c38d, VersionGUID: d7263022-40de-484f-83ab-bc2126dfeed3, NumberOfSaves: 25]','CoordinateReference [CoordinateBase: Shared Coordinates]'),'2;1');
FILE_NAME('01_03_001.ifc','2026-01-07T20:59:01+01:00',(''),(''),'ODA SDAI 24.6','Autodesk Revit 24.3.30.11 (ENU) - IFC 24.3.30.11','');
FILE_SCHEMA(('IFC4X3'));
ENDSEC;
DATA;
#1=IFCORGANIZATION($,'Autodesk Revit 2024 (ENU)',$,$,$);
#2=IFCAPPLICATION(#1,'2024','Autodesk Revit 2024 (ENU)','Revit');
#3=IFCCARTESIANPOINT((0.,0.,0.));
#4=IFCCARTESIANPOINT((0.,0.));
#5=IFCDIRECTION((1.,0.,0.));
#6=IFCDIRECTION((-1.,0.,0.));
#7=IFCDIRECTION((0.,1.,0.));
#8=IFCDIRECTION((0.,-1.,0.));
#9=IFCDIRECTION((0.,0.,1.));
#10=IFCDIRECTION((0.,0.,-1.));
#11=IFCDIRECTION((1.,0.));
#12=IFCDIRECTION((-1.,0.));
#13=IFCDIRECTION((0.,1.));
#14=IFCDIRECTION((0.,-1.));
#15=IFCPERSON($,'','h.helming',$,$,$,$,$);
#16=IFCORGANIZATION($,'Organization Name','Organization Description',$,$);
#17=IFCPERSONANDORGANIZATION(#15,#16,$);
#18=IFCOWNERHISTORY(#17,#2,$,.NOCHANGE.,$,$,$,1767803235);
#19=IFCSIUNIT(*,.LENGTHUNIT.,.MILLI.,.METRE.);
#20=IFCAXIS2PLACEMENT3D(#3,$,$);
#21=IFCDIRECTION((6.12303176911189E-17,1.));
#22=IFCGEOMETRICREPRESENTATIONCONTEXT($,'Model',3,0.01,#20,#21);
#23=IFCGEOMETRICREPRESENTATIONSUBCONTEXT('Axis','Model',*,*,*,*,#22,$,.GRAPH_VIEW.,$);
#24=IFCGEOMETRICREPRESENTATIONSUBCONTEXT('Body','Model',*,*,*,*,#22,$,.MODEL_VIEW.,$);
#25=IFCGEOMETRICREPRESENTATIONSUBCONTEXT('Box','Model',*,*,*,*,#22,$,.MODEL_VIEW.,$);
#26=IFCGEOMETRICREPRESENTATIONSUBCONTEXT('FootPrint','Model',*,*,*,*,#22,$,.MODEL_VIEW.,$);
#27=IFCPROJECT('3BiAukOr129OoahsPvdJnz',#18,'Project Number',$,$,'Project Name','Project Status',(#22),#381);
#28=IFCCLASSIFICATION('CSI (Construction Specifications Institute)','1998',$,'Uniformat','UniFormat Classification','https://www.csiresources.org/standards/uniformat',$);
#29=IFCAXIS2PLACEMENT3D(#3,$,$);
#30=IFCLOCALPLACEMENT(#41,#29);
#31=IFCPOSTALADDRESS($,$,$,$,('Enter address hereAddress Line 2'),$,'','Boston','','MA');
#32=IFCBUILDING('3BiAukOr129OoahsPvdJny',#18,'Building Name',$,$,#30,$,'Building Name',.ELEMENT.,$,$,#31);
#33=IFCAXIS2PLACEMENT3D(#3,$,$);
#34=IFCLOCALPLACEMENT(#30,#33);
#35=IFCBUILDINGSTOREY('2JF4e6axWHqu3u0C1FZlmi',#18,'L1',$,'Level:8mm Head',#34,$,'L1',.ELEMENT.,0.);
#36=IFCCARTESIANPOINT((0.,0.,3000.));
#37=IFCAXIS2PLACEMENT3D(#36,$,$);
#38=IFCLOCALPLACEMENT(#30,#37);
#39=IFCBUILDINGSTOREY('1ZGO8hrFCHqw0v0026FpFv',#18,'L2',$,'Level:8mm Head',#38,$,'L2',.ELEMENT.,3000.);
#40=IFCAXIS2PLACEMENT3D(#3,$,$);
#41=IFCLOCALPLACEMENT($,#40);
#42=IFCSITE('3BiAukOr129OoahsPvdJn$',#18,'Default',$,$,#41,$,$,.ELEMENT.,(42,21,31,401672),(-71,-3,-24,-345703),0.,$,$);
#43=IFCPROPERTYSINGLEVALUE('Reference',$,IFCIDENTIFIER('Project Information'),$);
#44=IFCPROPERTYSET('2mFJcO6I01h0OYRLOICO3c',#18,'Pset_SiteCommon',$,(#43));
#45=IFCPROPERTYSINGLEVALUE('IsExternal',$,IFCBOOLEAN(.F.),$);
#46=IFCPROPERTYSET('0O$B2PbAODr9jYnpcaZGJT',#18,'Pset_SpaceCommon',$,(#43,#45));
#47=IFCRELDEFINESBYPROPERTIES('2fDrcjst0HFayqQ3dY1cGQ',#18,$,$,(#42),#44);
#48=IFCRELDEFINESBYPROPERTIES('1lYkP70lXSGXnZeJnLC8MY',#18,$,$,(#42),#46);
#55=IFCAXIS2PLACEMENT3D(#3,$,$);
#56=IFCLOCALPLACEMENT(#34,#55);
#57=IFCCARTESIANPOINT((-2344.44444444444,-1777.77777777778));
#58=IFCCARTESIANPOINT((3155.55555555556,-1777.77777777778));
#59=IFCCARTESIANPOINT((3155.55555555555,2022.22222222222));
#60=IFCCARTESIANPOINT((-244.444444444448,2022.22222222222));
#61=IFCCARTESIANPOINT((-244.444444444446,422.222222222222));
#62=IFCCARTESIANPOINT((-244.444444444444,-777.777777777777));
#63=IFCCARTESIANPOINT((-444.444444444444,-777.777777777778));
#64=IFCCARTESIANPOINT((-444.444444444445,322.222222222222));
#65=IFCCARTESIANPOINT((-2344.44444444444,322.222222222223));
#66=IFCPOLYLINE((#57,#58,#59,#60,#61,#62,#63,#64,#65,#57));
#67=IFCARBITRARYCLOSEDPROFILEDEF(.AREA.,$,#66);
#68=IFCCARTESIANPOINT((4844.44444444445,1977.77777777776,0.));
#69=IFCAXIS2PLACEMENT3D(#68,$,$);
#70=IFCEXTRUDEDAREASOLID(#67,#69,#9,3000.);
#71=IFCSIUNIT(*,.PLANEANGLEUNIT.,$,.RADIAN.);
#72=IFCDIMENSIONALEXPONENTS(0,0,0,0,0,0,0);
#73=IFCMEASUREWITHUNIT(IFCPLANEANGLEMEASURE(0.0174532925199433),#71);
#74=IFCCONVERSIONBASEDUNIT(#72,.PLANEANGLEUNIT.,'DEGREE',#73);
#75=IFCSIUNIT(*,.AREAUNIT.,$,.SQUARE_METRE.);
#76=IFCSHAPEREPRESENTATION(#24,'Body','SweptSolid',(#70));
#77=IFCPRODUCTDEFINITIONSHAPE($,$,(#76));
#78=IFCSPACE('3N9Z0YGDv8JuEhl24cnvVA',#18,'132',$,$,#56,#77,'room',.ELEMENT.,.NOTDEFINED.,$);
#79=IFCSPACETYPE('3N9Z0YGDv8JuEhj24cnvVA',#18,'room 132:1603865',$,$,$,$,'1603865',$,.NOTDEFINED.,$);
#80=IFCPROPERTYSINGLEVALUE('Reference',$,IFCIDENTIFIER('room 132'),$);
#81=IFCPROPERTYSET('00b1HihGc2gRqr1IR9hS$Q',#18,'Pset_SpaceCommon',$,(#45,#80));
#82=IFCPROPERTYSET('3$A57RpYs0rKmRPonmObYM',#18,'Pset_SpaceHeaterTypeCommon',$,(#80));
#83=IFCRELDEFINESBYPROPERTIES('1GXu_m0WhgKFZbVJ4u$mFl',#18,$,$,(#78),#81);
#84=IFCRELDEFINESBYPROPERTIES('3XHYxggGAD_MXFpQySi87C',#18,$,$,(#78),#82);
#85=IFCAXIS2PLACEMENT3D(#3,$,$);
#86=IFCLOCALPLACEMENT(#34,#85);
#87=IFCCARTESIANPOINT((366.666666666667,-316.666666666666));
#88=IFCAXIS2PLACEMENT2D(#87,#11);
#89=IFCRECTANGLEPROFILEDEF(.AREA.,$,#88,4200.,3500.);
#90=IFCCARTESIANPOINT((2666.66666666667,3933.33333333333,0.));
#91=IFCAXIS2PLACEMENT3D(#90,#9,#6);
#92=IFCEXTRUDEDAREASOLID(#89,#91,#9,3000.);
#93=IFCSHAPEREPRESENTATION(#24,'Body','SweptSolid',(#92));
#94=IFCPRODUCTDEFINITIONSHAPE($,$,(#93));
#95=IFCSPACE('3N9Z0YGDv8JuEhl24cnvVF',#18,'133',$,$,#86,#94,'room',.ELEMENT.,.NOTDEFINED.,$);
#96=IFCSPACETYPE('3N9Z0YGDv8JuEhj24cnvVF',#18,'room 133:1603868',$,$,$,$,'1603868',$,.NOTDEFINED.,$);
#97=IFCPROPERTYSINGLEVALUE('Reference',$,IFCIDENTIFIER('room 133'),$);
#98=IFCPROPERTYSET('1AXEovbNP6_NMaUbGZ4VvT',#18,'Pset_SpaceCommon',$,(#45,#97));
#99=IFCPROPERTYSET('3gIGEwALs9X9zLqoJ185jR',#18,'Pset_SpaceHeaterTypeCommon',$,(#97));
#100=IFCRELDEFINESBYPROPERTIES('0Q05iV680RIZhsA4uX7dBN',#18,$,$,(#95),#98);
#101=IFCRELDEFINESBYPROPERTIES('39I1x11smaQRiI1yX7Sz_c',#18,$,$,(#95),#99);
#102=IFCAXIS2PLACEMENT3D(#3,$,$);
#103=IFCLOCALPLACEMENT(#34,#102);
#104=IFCCARTESIANPOINT((-2.27373675443232E-13,0.));
#105=IFCAXIS2PLACEMENT2D(#104,#11);
#106=IFCRECTANGLEPROFILEDEF(.AREA.,$,#105,2100.,2100.);
#107=IFCCARTESIANPOINT((1250.,1250.,0.));
#108=IFCAXIS2PLACEMENT3D(#107,$,$);
#109=IFCEXTRUDEDAREASOLID(#106,#108,#9,3000.);
#110=IFCSHAPEREPRESENTATION(#24,'Body','SweptSolid',(#109));
#111=IFCPRODUCTDEFINITIONSHAPE($,$,(#110));
#112=IFCSPACE('3N9Z0YGDv8JuEhl24cnvVC',#18,'134',$,$,#103,#111,'room',.ELEMENT.,.NOTDEFINED.,$);
#113=IFCSPACETYPE('3N9Z0YGDv8JuEhj24cnvVC',#18,'room 134:1603871',$,$,$,$,'1603871',$,.NOTDEFINED.,$);
#114=IFCPROPERTYSINGLEVALUE('Reference',$,IFCIDENTIFIER('room 134'),$);
#115=IFCPROPERTYSET('1bxofKpjE$oITamsTchxus',#18,'Pset_SpaceCommon',$,(#45,#114));
#116=IFCPROPERTYSET('2uJBGTyoUW8CK9e8txTBuv',#18,'Pset_SpaceHeaterTypeCommon',$,(#114));
#117=IFCRELDEFINESBYPROPERTIES('2ZJhoVLV26smh_yRsRvIte',#18,$,$,(#112),#115);
#118=IFCRELDEFINESBYPROPERTIES('0ATmi_snyQy8KKcrPkA8bm',#18,$,$,(#112),#116);
#119=IFCCARTESIANPOINT((8200.,100.,0.));
#120=IFCAXIS2PLACEMENT3D(#119,#9,#6);
#121=IFCLOCALPLACEMENT(#34,#120);
#122=IFCCARTESIANPOINT((8200.,0.));
#123=IFCPOLYLINE((#4,#122));
#124=IFCSHAPEREPRESENTATION(#23,'Axis','Curve2D',(#123));
#125=IFCCARTESIANPOINT((4100.,1.4210854715202E-14));
#126=IFCAXIS2PLACEMENT2D(#125,#12);
#127=IFCRECTANGLEPROFILEDEF(.AREA.,$,#126,8200.,200.);
#128=IFCAXIS2PLACEMENT3D(#3,$,$);
#129=IFCEXTRUDEDAREASOLID(#127,#128,#9,3000.);
#130=IFCCOLOURRGB($,0.752941176470588,0.752941176470588,0.752941176470588);
#131=IFCSURFACESTYLERENDERING(#130,0.,$,$,$,$,IFCNORMALISEDRATIOMEASURE(0.5),IFCSPECULAREXPONENT(10.),.NOTDEFINED.);
#132=IFCSURFACESTYLE('Default Wall',.BOTH.,(#131));
#133=IFCSTYLEDITEM(#129,(#132),$);
#134=IFCSHAPEREPRESENTATION(#24,'Body','SweptSolid',(#129));
#135=IFCPRODUCTDEFINITIONSHAPE($,$,(#124,#134));
#136=IFCWALL('3cmsjRvPb4wf9t15K203XR',#18,'Basic Wall:Generic - 200mm:1602421',$,'Basic Wall:Generic - 200mm',#121,#135,'1602421',.NOTDEFINED.);
#137=IFCMATERIAL('Default Wall',$,'Miscellaneous');
#138=IFCSTYLEDITEM($,(#132),$);
#139=IFCSTYLEDREPRESENTATION(#22,'Style','Material',(#138));
#140=IFCMATERIALDEFINITIONREPRESENTATION($,$,(#139),#137);
#141=IFCMATERIALLAYER(#137,200.,$,'Layer',$,'Miscellaneous',$);
#142=IFCMATERIALLAYERSET((#141),'Basic Wall:Generic - 200mm',$);
#143=IFCWALLTYPE('1xZrMVYp52mhf4uMzw11Hk',#18,'Basic Wall:Generic - 200mm',$,$,(#157),$,'441451',$,.STANDARD.);
#144=IFCPROPERTYSINGLEVALUE('Reference',$,IFCIDENTIFIER('Generic - 200mm'),$);
#145=IFCPROPERTYSET('2n5k7t7fOU81M1LShUbZ9e',#18,'Pset_EnvironmentalImpactIndicators',$,(#144));
#146=IFCPROPERTYSINGLEVALUE('Reference',$,IFCLABEL('Generic - 200mm'),$);
#147=IFCPROPERTYSET('1Zg$z9wfp_yn1qmVuaVJr4',#18,'Pset_ReinforcementBarPitchOfWall',$,(#146));
#148=IFCPROPERTYSINGLEVALUE('IsExternal',$,IFCBOOLEAN(.T.),$);
#149=IFCPROPERTYSINGLEVALUE('LoadBearing',$,IFCBOOLEAN(.F.),$);
#150=IFCPROPERTYSINGLEVALUE('ExtendToStructure',$,IFCBOOLEAN(.F.),$);
#151=IFCPROPERTYSET('0PuWgGrdUbxWiNNlrVKJ_B',#18,'Pset_WallCommon',$,(#144,#148,#149,#150));
#152=IFCRELDEFINESBYPROPERTIES('3l_fEKNAUVqBGitfyI_2CQ',#18,$,$,(#136),#145);
#153=IFCRELDEFINESBYPROPERTIES('2qxTWOqTUzWtxU0KW48fJ7',#18,$,$,(#136),#147);
#154=IFCRELDEFINESBYPROPERTIES('1rvpbG_zTte5EtDbtEQl9a',#18,$,$,(#136),#151);
#155=IFCCLASSIFICATIONREFERENCE('https://www.csiresources.org/standards/uniformat','B2010','Exterior Walls',#28,'',$);
#156=IFCPROPERTYSINGLEVALUE('Description',$,IFCTEXT('Generic Wall (Material By Category), 200mm thick'),$);
#157=IFCPROPERTYSET('2L7lvTstnIeeydfwzfZZLR',#18,'Pset_ReinforcementBarPitchOfWall',$,(#156));
#158=IFCCARTESIANPOINT((4600.,6100.,0.));
#159=IFCAXIS2PLACEMENT3D(#158,#9,#6);
#160=IFCLOCALPLACEMENT(#34,#159);
#161=IFCCARTESIANPOINT((4600.,0.));
#162=IFCPOLYLINE((#4,#161));
#163=IFCSHAPEREPRESENTATION(#23,'Axis','Curve2D',(#162));
#164=IFCCARTESIANPOINT((2300.,2.48689957516035E-13));
#165=IFCAXIS2PLACEMENT2D(#164,#12);
#166=IFCRECTANGLEPROFILEDEF(.AREA.,$,#165,4600.,200.);
#167=IFCAXIS2PLACEMENT3D(#3,$,$);
#168=IFCEXTRUDEDAREASOLID(#166,#167,#9,3000.);
#169=IFCSTYLEDITEM(#168,(#132),$);
#170=IFCSHAPEREPRESENTATION(#24,'Body','SweptSolid',(#168));
#171=IFCPRODUCTDEFINITIONSHAPE($,$,(#163,#170));
#172=IFCWALL('3cmsjRvPb4wf9t15K203_D',#18,'Basic Wall:Generic - 200mm:1602723',$,'Basic Wall:Generic - 200mm',#160,#171,'1602723',.NOTDEFINED.);
#173=IFCPROPERTYSET('1daWYlIRM0r0FyhKSlSET0',#18,'Pset_EnvironmentalImpactIndicators',$,(#144));
#174=IFCPROPERTYSINGLEVALUE('Reference',$,IFCLABEL('Generic - 200mm'),$);
#175=IFCPROPERTYSET('3ItXNEtxymo_u9isFNHJXK',#18,'Pset_ReinforcementBarPitchOfWall',$,(#174));
#176=IFCPROPERTYSET('0DelT2wCzoKCuw_UtDp7c5',#18,'Pset_WallCommon',$,(#144,#148,#149,#150));
#177=IFCRELDEFINESBYPROPERTIES('1Xgkw0864iyy_s$u3chNdN',#18,$,$,(#172),#173);
#178=IFCRELDEFINESBYPROPERTIES('0pdyOdfPqEtAbC$BJmgX8y',#18,$,$,(#172),#175);
#179=IFCRELDEFINESBYPROPERTIES('1YrYn3PfSifvs8PILrI4$a',#18,$,$,(#172),#176);
#180=IFCCARTESIANPOINT((100.,6000.,0.));
#181=IFCAXIS2PLACEMENT3D(#180,#9,#8);
#182=IFCLOCALPLACEMENT(#34,#181);
#183=IFCCARTESIANPOINT((5800.,-0.));
#184=IFCPOLYLINE((#4,#183));
#185=IFCSHAPEREPRESENTATION(#23,'Axis','Curve2D',(#184));
#186=IFCCARTESIANPOINT((2900.,2.1316282072803E-14));
#187=IFCAXIS2PLACEMENT2D(#186,#12);
#188=IFCRECTANGLEPROFILEDEF(.AREA.,$,#187,5800.,200.);
#189=IFCAXIS2PLACEMENT3D(#3,$,$);
#190=IFCEXTRUDEDAREASOLID(#188,#189,#9,3000.);
#191=IFCSTYLEDITEM(#190,(#132),$);
#192=IFCSHAPEREPRESENTATION(#24,'Body','SweptSolid',(#190));
#193=IFCPRODUCTDEFINITIONSHAPE($,$,(#185,#192));
#194=IFCWALL('3cmsjRvPb4wf9t15K203$P',#18,'Basic Wall:Generic - 200mm:1602807',$,'Basic Wall:Generic - 200mm',#182,#193,'1602807',.NOTDEFINED.);
#195=IFCPROPERTYSET('1QakD2m6vXifU0FyN_4IEX',#18,'Pset_EnvironmentalImpactIndicators',$,(#144));
#196=IFCPROPERTYSINGLEVALUE('Reference',$,IFCLABEL('Generic - 200mm'),$);
#197=IFCPROPERTYSET('3jifUz2uPf9c19G773rT5f',#18,'Pset_ReinforcementBarPitchOfWall',$,(#196));
#198=IFCPROPERTYSET('2zW4Rc5AXR6PmPvlVTCC3T',#18,'Pset_WallCommon',$,(#144,#148,#149,#150));
#199=IFCRELDEFINESBYPROPERTIES('2EitFPbohB1gwFTSwzYyW7',#18,$,$,(#194),#195);
#200=IFCRELDEFINESBYPROPERTIES('1uNEORk1PSqeeJTyRI3Fdh',#18,$,$,(#194),#197);
#201=IFCRELDEFINESBYPROPERTIES('3Fva5$VeQJCdp87HQmvngi',#18,$,$,(#194),#198);
#202=IFCCARTESIANPOINT((200.,2400.,0.));
#203=IFCAXIS2PLACEMENT3D(#202,$,$);
#204=IFCLOCALPLACEMENT(#34,#203);
#205=IFCCARTESIANPOINT((4200.,0.));
#206=IFCPOLYLINE((#4,#205));
#207=IFCSHAPEREPRESENTATION(#23,'Axis','Curve2D',(#206));
#208=IFCCARTESIANPOINT((2100.,7.8159700933611E-14));
#209=IFCAXIS2PLACEMENT2D(#208,#12);
#210=IFCRECTANGLEPROFILEDEF(.AREA.,$,#209,4200.,200.);
#211=IFCAXIS2PLACEMENT3D(#3,$,$);
#212=IFCEXTRUDEDAREASOLID(#210,#211,#9,3000.);
#213=IFCSTYLEDITEM(#212,(#132),$);
#214=IFCSHAPEREPRESENTATION(#24,'Body','SweptSolid',(#212));
#215=IFCPRODUCTDEFINITIONSHAPE($,$,(#207,#214));
#216=IFCWALL('3cmsjRvPb4wf9t15K203w_',#18,'Basic Wall:Generic - 200mm:1602960',$,'Basic Wall:Generic - 200mm',#204,#215,'1602960',.NOTDEFINED.);
#217=IFCPROPERTYSET('1v3Lhm8b1gv0W8J$OZK5ym',#18,'Pset_EnvironmentalImpactIndicators',$,(#144));
#218=IFCPROPERTYSINGLEVALUE('Reference',$,IFCLABEL('Generic - 200mm'),$);
#219=IFCPROPERTYSET('2PkFHUnGOdC90hi0BscHG0',#18,'Pset_ReinforcementBarPitchOfWall',$,(#218));
#220=IFCPROPERTYSET('0fFmLJYbP09D12F9qFJNsq',#18,'Pset_WallCommon',$,(#144,#148,#149,#150));
#221=IFCRELDEFINESBYPROPERTIES('2zfdbipIGKqpXapV0qKoRq',#18,$,$,(#216),#217);
#222=IFCRELDEFINESBYPROPERTIES('0zrk4Oy3L73KLay6XROItp',#18,$,$,(#216),#219);
#223=IFCRELDEFINESBYPROPERTIES('1Jr1q4HII$sT$hAH6i4Ru_',#18,$,$,(#216),#220);
#224=IFCCARTESIANPOINT((4500.,6000.,0.));
#225=IFCAXIS2PLACEMENT3D(#224,#9,#8);
#226=IFCLOCALPLACEMENT(#34,#225);
#227=IFCCARTESIANPOINT((2000.,-0.));
#228=IFCPOLYLINE((#4,#227));
#229=IFCSHAPEREPRESENTATION(#23,'Axis','Curve2D',(#228));
#230=IFCCARTESIANPOINT((1000.,-2.1316282072803E-14));
#231=IFCAXIS2PLACEMENT2D(#230,#12);
#232=IFCRECTANGLEPROFILEDEF(.AREA.,$,#231,2000.,200.);
#233=IFCAXIS2PLACEMENT3D(#3,$,$);
#234=IFCEXTRUDEDAREASOLID(#232,#233,#9,3000.);
#235=IFCSTYLEDITEM(#234,(#132),$);
#236=IFCSHAPEREPRESENTATION(#24,'Body','SweptSolid',(#234));
#237=IFCPRODUCTDEFINITIONSHAPE($,$,(#229,#236));
#238=IFCWALL('3cmsjRvPb4wf9t15K203xV',#18,'Basic Wall:Generic - 200mm:1603057',$,'Basic Wall:Generic - 200mm',#226,#237,'1603057',.NOTDEFINED.);
#239=IFCPROPERTYSET('3dgYOSqzGZJHEBgTbUoXF9',#18,'Pset_EnvironmentalImpactIndicators',$,(#144));
#240=IFCPROPERTYSINGLEVALUE('Reference',$,IFCLABEL('Generic - 200mm'),$);
#241=IFCPROPERTYSET('17BNS6qgrE3fjtMiS7m3RE',#18,'Pset_ReinforcementBarPitchOfWall',$,(#240));
#242=IFCPROPERTYSET('0ARZu$2JSGYfylnJPnJMf_',#18,'Pset_WallCommon',$,(#144,#148,#149,#150));
#243=IFCRELDEFINESBYPROPERTIES('2BAf49864z$NPcP6SxAJlc',#18,$,$,(#238),#239);
#244=IFCRELDEFINESBYPROPERTIES('13sSsJqCbOCNoMtpOgH9V3',#18,$,$,(#238),#241);
#245=IFCRELDEFINESBYPROPERTIES('38rFwJAD8yQlQoqydB0oy9',#18,$,$,(#238),#242);
#246=IFCCARTESIANPOINT((4600.,4100.,0.));
#247=IFCAXIS2PLACEMENT3D(#246,$,$);
#248=IFCLOCALPLACEMENT(#34,#247);
#249=IFCCARTESIANPOINT((3600.,0.));
#250=IFCPOLYLINE((#4,#249));
#251=IFCSHAPEREPRESENTATION(#23,'Axis','Curve2D',(#250));
#252=IFCCARTESIANPOINT((1800.00000000001,7.105427357601E-14));
#253=IFCAXIS2PLACEMENT2D(#252,#12);
#254=IFCRECTANGLEPROFILEDEF(.AREA.,$,#253,3600.00000000001,200.);
#255=IFCAXIS2PLACEMENT3D(#3,$,$);
#256=IFCEXTRUDEDAREASOLID(#254,#255,#9,3000.);
#257=IFCSTYLEDITEM(#256,(#132),$);
#258=IFCSHAPEREPRESENTATION(#24,'Body','SweptSolid',(#256));
#259=IFCPRODUCTDEFINITIONSHAPE($,$,(#251,#258));
#260=IFCWALL('3cmsjRvPb4wf9t15K203qB',#18,'Basic Wall:Generic - 200mm:1603109',$,'Basic Wall:Generic - 200mm',#248,#259,'1603109',.NOTDEFINED.);
#261=IFCPROPERTYSET('2XQ4S19dOKdcLGbL0MN3rF',#18,'Pset_EnvironmentalImpactIndicators',$,(#144));
#262=IFCPROPERTYSINGLEVALUE('Reference',$,IFCLABEL('Generic - 200mm'),$);
#263=IFCPROPERTYSET('3HFhm2RnYvPJ1hx5GbzjGz',#18,'Pset_ReinforcementBarPitchOfWall',$,(#262));
#264=IFCPROPERTYSET('3x1rvqAgMTZ8pLaVGZrYFb',#18,'Pset_WallCommon',$,(#144,#148,#149,#150));
#265=IFCRELDEFINESBYPROPERTIES('1w3JAcPQpdPkZ7PT3bdE1m',#18,$,$,(#260),#261);
#266=IFCRELDEFINESBYPROPERTIES('2edzlSRr39x0Hus$bL2ZAJ',#18,$,$,(#260),#263);
#267=IFCRELDEFINESBYPROPERTIES('1iFO4Nf9rvzSp5iaS_hZD$',#18,$,$,(#260),#264);
#268=IFCCARTESIANPOINT((4500.,1200.,0.));
#269=IFCAXIS2PLACEMENT3D(#268,#9,#7);
#270=IFCLOCALPLACEMENT(#34,#269);
#271=IFCCARTESIANPOINT((2800.,0.));
#272=IFCPOLYLINE((#4,#271));
#273=IFCSHAPEREPRESENTATION(#23,'Axis','Curve2D',(#272));
#274=IFCCARTESIANPOINT((1400.,7.8159700933611E-14));
#275=IFCAXIS2PLACEMENT2D(#274,#12);
#276=IFCRECTANGLEPROFILEDEF(.AREA.,$,#275,2800.,200.);
#277=IFCAXIS2PLACEMENT3D(#3,$,$);
#278=IFCEXTRUDEDAREASOLID(#276,#277,#9,3000.);
#279=IFCSTYLEDITEM(#278,(#132),$);
#280=IFCSHAPEREPRESENTATION(#24,'Body','SweptSolid',(#278));
#281=IFCPRODUCTDEFINITIONSHAPE($,$,(#273,#280));
#282=IFCWALL('3cmsjRvPb4wf9t15K203sD',#18,'Basic Wall:Generic - 200mm:1603235',$,'Basic Wall:Generic - 200mm',#270,#281,'1603235',.NOTDEFINED.);
#283=IFCPROPERTYSET('3HvA17wpJ5h4Sb$V1rk2XO',#18,'Pset_EnvironmentalImpactIndicators',$,(#144));
#284=IFCPROPERTYSINGLEVALUE('Reference',$,IFCLABEL('Generic - 200mm'),$);
#285=IFCPROPERTYSET('2b$Xp7qsOx1GHvpg89XvZH',#18,'Pset_ReinforcementBarPitchOfWall',$,(#284));
#286=IFCPROPERTYSET('3w9tUCokCq9r0wg84R6BUL',#18,'Pset_WallCommon',$,(#144,#148,#149,#150));
#287=IFCRELDEFINESBYPROPERTIES('1xgUZTxfigzsh_JfnWK7T0',#18,$,$,(#282),#283);
#288=IFCRELDEFINESBYPROPERTIES('0b79DAHv0_$nw30qyIlckY',#18,$,$,(#282),#285);
#289=IFCRELDEFINESBYPROPERTIES('02Q_3vOVMmVoyxBRyRYPMj',#18,$,$,(#282),#286);
#290=IFCCARTESIANPOINT((2400.,2300.,0.));
#291=IFCAXIS2PLACEMENT3D(#290,#9,#8);
#292=IFCLOCALPLACEMENT(#34,#291);
#293=IFCCARTESIANPOINT((2100.,-0.));
#294=IFCPOLYLINE((#4,#293));
#295=IFCSHAPEREPRESENTATION(#23,'Axis','Curve2D',(#294));
#296=IFCCARTESIANPOINT((1050.,-1.84741111297626E-13));
#297=IFCAXIS2PLACEMENT2D(#296,#12);
#298=IFCRECTANGLEPROFILEDEF(.AREA.,$,#297,2100.,200.);
#299=IFCAXIS2PLACEMENT3D(#3,$,$);
#300=IFCEXTRUDEDAREASOLID(#298,#299,#9,3000.);
#301=IFCSTYLEDITEM(#300,(#132),$);
#302=IFCSHAPEREPRESENTATION(#24,'Body','SweptSolid',(#300));
#303=IFCPRODUCTDEFINITIONSHAPE($,$,(#295,#302));
#304=IFCWALL('3cmsjRvPb4wf9t15K203Cj',#18,'Basic Wall:Generic - 200mm:1603587',$,'Basic Wall:Generic - 200mm',#292,#303,'1603587',.NOTDEFINED.);
#305=IFCPROPERTYSET('1zGz92aQ7tD58STFPDHzFc',#18,'Pset_EnvironmentalImpactIndicators',$,(#144));
#306=IFCPROPERTYSINGLEVALUE('Reference',$,IFCLABEL('Generic - 200mm'),$);
#307=IFCPROPERTYSET('0N1$nfcPMv2RiUvJJvwaJa',#18,'Pset_ReinforcementBarPitchOfWall',$,(#306));
#308=IFCPROPERTYSET('1RVKWP6dHf0uxA0ihFE7VD',#18,'Pset_WallCommon',$,(#144,#148,#149,#150));
#309=IFCRELDEFINESBYPROPERTIES('2yKH3YaOSS7DhmCQzCEmEs',#18,$,$,(#304),#305);
#310=IFCRELDEFINESBYPROPERTIES('3yRQZI5_dX_6GAuxiSzILO',#18,$,$,(#304),#307);
#311=IFCRELDEFINESBYPROPERTIES('2OWGsMOXKYipwpaGDHHA29',#18,$,$,(#304),#308);
#312=IFCCARTESIANPOINT((8100.,4000.,0.));
#313=IFCAXIS2PLACEMENT3D(#312,#9,#8);
#314=IFCLOCALPLACEMENT(#34,#313);
#315=IFCCARTESIANPOINT((3800.,-0.));
#316=IFCPOLYLINE((#4,#315));
#317=IFCSHAPEREPRESENTATION(#23,'Axis','Curve2D',(#316));
#318=IFCCARTESIANPOINT((1900.,-3.12638803734444E-13));
#319=IFCAXIS2PLACEMENT2D(#318,#12);
#320=IFCRECTANGLEPROFILEDEF(.AREA.,$,#319,3800.,200.);
#321=IFCAXIS2PLACEMENT3D(#3,$,$);
#322=IFCEXTRUDEDAREASOLID(#320,#321,#9,3000.);
#323=IFCSTYLEDITEM(#322,(#132),$);
#324=IFCSHAPEREPRESENTATION(#24,'Body','SweptSolid',(#322));
#325=IFCPRODUCTDEFINITIONSHAPE($,$,(#317,#324));
#326=IFCWALL('3cmsjRvPb4wf9t15K203Ef',#18,'Basic Wall:Generic - 200mm:1603719',$,'Basic Wall:Generic - 200mm',#314,#325,'1603719',.NOTDEFINED.);
#327=IFCPROPERTYSET('0vPqToQ2la$5wCk6Tj3TuS',#18,'Pset_EnvironmentalImpactIndicators',$,(#144));
#328=IFCPROPERTYSINGLEVALUE('Reference',$,IFCLABEL('Generic - 200mm'),$);
#329=IFCPROPERTYSET('2R$dqHDOzC_uZuyVrsTKe6',#18,'Pset_ReinforcementBarPitchOfWall',$,(#328));
#330=IFCPROPERTYSET('3gxbxkq9sxvH3ArcYQ5vVQ',#18,'Pset_WallCommon',$,(#144,#148,#149,#150));
#331=IFCRELDEFINESBYPROPERTIES('02wWbFpSLzmpkgbJMTgdqQ',#18,$,$,(#326),#327);
#332=IFCRELDEFINESBYPROPERTIES('2ISczXdp9w1mdmCmJ4xmpY',#18,$,$,(#326),#329);
#333=IFCRELDEFINESBYPROPERTIES('38V5R4zEqmTps2NrTwoAGN',#18,$,$,(#326),#330);
#334=IFCPROPERTYSINGLEVALUE('Reference',$,IFCIDENTIFIER('8mm Head'),$);
#335=IFCPROPERTYSINGLEVALUE('AboveGround',$,IFCLOGICAL(.U.),$);
#336=IFCPROPERTYSET('16L50AfyZF4hYq5TGET4H4',#18,'Pset_BuildingStoreyCommon',$,(#334,#335));
#337=IFCPROPERTYSET('2J7ac_h5ujdwWuzVwBIIta',#18,'Pset_SpaceCommon',$,(#45,#334));
#338=IFCRELDEFINESBYPROPERTIES('2VdfSfkgzGoZi_3SgzE8$0',#18,$,$,(#35),#336);
#339=IFCRELDEFINESBYPROPERTIES('3$YdOpA8iaPobC8MDiWxoI',#18,$,$,(#35),#337);
#340=IFCRELCONTAINEDINSPATIALSTRUCTURE('2JF4e6axWHqu3u0C5FZlmi',#18,$,$,(#136,#172,#194,#216,#238,#260,#282,#304,#326),#35);
#341=IFCPROPERTYSET('1n34enW33Z_3Qq2Pm1kjQZ',#18,'Pset_BuildingStoreyCommon',$,(#334,#335));
#342=IFCPROPERTYSET('0qNc4$IaPwTvoqOd7IlIE4',#18,'Pset_SpaceCommon',$,(#45,#334));
#343=IFCRELDEFINESBYPROPERTIES('36oM8gyLQ5_Z6XoGK5uP1E',#18,$,$,(#39),#341);
#344=IFCRELDEFINESBYPROPERTIES('0jA6Vdz$3CfPvu_I1iTL6J',#18,$,$,(#39),#342);
#345=IFCRELAGGREGATES('2KFB6YYWgXBmucZ8cm7uCP',#18,$,$,#27,(#42));
#346=IFCRELAGGREGATES('16_hfJTeCqU7LcG8m10BTS',#18,$,$,#42,(#32));
#347=IFCRELAGGREGATES('2JF4e6axWHqu3u0C9FZlmi',#18,$,$,#35,(#78,#95,#112));
#348=IFCRELAGGREGATES('1yhDISh1T5aQqAoygxGIhP',#18,$,$,#32,(#35,#39));
#349=IFCPROPERTYSINGLEVALUE('NumberOfStoreys',$,IFCCOUNTMEASURE(1),$);
#350=IFCPROPERTYSINGLEVALUE('IsLandmarked',$,IFCLOGICAL(.U.),$);
#351=IFCPROPERTYSET('01y_GmllCupEYuBgfGbhkd',#18,'Pset_BuildingCommon',$,(#43,#349,#350));
#352=IFCPROPERTYSET('1rUR7OGyIAkZT62xvibLnd',#18,'Pset_BuildingElementProxyCommon',$,(#43,#45));
#353=IFCPROPERTYSET('2kFDjjfIaTsBi7MLK$i$Me',#18,'Pset_BuildingStoreyCommon',$,(#43,#335));
#354=IFCPROPERTYSET('1TYvb3FgH88mtl04iE5P1T',#18,'Pset_BuildingSystemCommon',$,(#43));
#355=IFCPROPERTYSET('2W94HCj5xfigmNGtkBMklk',#18,'Pset_SpaceCommon',$,(#43,#45));
#356=IFCRELDEFINESBYPROPERTIES('0vDjba2fshDEh0_KufwWht',#18,$,$,(#32),#351);
#357=IFCRELDEFINESBYPROPERTIES('1V6UQfELB4oPy3GPEaJMPw',#18,$,$,(#32),#352);
#358=IFCRELDEFINESBYPROPERTIES('0Vpd75HttOMIhzXutBGgCt',#18,$,$,(#32),#353);
#359=IFCRELDEFINESBYPROPERTIES('22VMRBFW9n6_S81yWIP225',#18,$,$,(#32),#354);
#360=IFCRELDEFINESBYPROPERTIES('2w3bzVlKnfBVjA3_BjG2II',#18,$,$,(#32),#355);
#361=IFCRELASSOCIATESMATERIAL('22T9r9KB1F3JFgePfxkUGp',#18,$,$,(#136,#143,#172,#194,#216,#238,#260,#282,#304,#326),#142);
#362=IFCRELDEFINESBYTYPE('23eVHgyZ7zFb1TIu_kK7qm',#18,$,$,(#78),#79);
#363=IFCRELDEFINESBYTYPE('1tLc5IuhCypRTR4SzWWzeI',#18,$,$,(#95),#96);
#364=IFCRELDEFINESBYTYPE('2nqW943hIeR$28Zyg_JSjF',#18,$,$,(#112),#113);
#365=IFCRELDEFINESBYTYPE('0MSq_ijuC5q4PUKv4QkOsA',#18,$,$,(#136,#172,#194,#216,#238,#260,#282,#304,#326),#143);
#366=IFCRELCONNECTSPATHELEMENTS('3wMkp8ZspZ$k_DgvanaWdD',#18,'3cmsjRvPb4wf9t15K203XR|3cmsjRvPb4wf9t15K203Ef','Structural',$,#136,#326,(),(),.ATEND.,.ATSTART.);
#367=IFCRELCONNECTSPATHELEMENTS('3OTnJClAGM0zmX7B1qxlV7',#18,'3cmsjRvPb4wf9t15K203XR|3cmsjRvPb4wf9t15K203$P','Structural',$,#136,#194,(),(),.ATEND.,.ATEND.);
#368=IFCRELCONNECTSPATHELEMENTS('0cwwFypRok2LjZd7gQJRcL',#18,'3cmsjRvPb4wf9t15K203_D|3cmsjRvPb4wf9t15K203xV','Structural',$,#172,#238,(),(),.ATSTART.,.ATSTART.);
#369=IFCRELCONNECTSPATHELEMENTS('3ZZLazQYTu0NpchTvAVgxZ',#18,'3cmsjRvPb4wf9t15K203_D|3cmsjRvPb4wf9t15K203$P','Structural',$,#172,#194,(),(),.ATSTART.,.ATEND.);
#370=IFCRELCONNECTSPATHELEMENTS('3OSGH0IASwKg4ozA9Br2jX',#18,'3cmsjRvPb4wf9t15K203$P|3cmsjRvPb4wf9t15K203w_','Structural',$,#194,#216,(),(),.ATSTART.,.ATPATH.);
#371=IFCRELCONNECTSPATHELEMENTS('326r2K5jrCGqXgZNyjE0UY',#18,'3cmsjRvPb4wf9t15K203w_|3cmsjRvPb4wf9t15K203sD','Structural',$,#216,#282,(),(),.ATPATH.,.ATEND.);
#372=IFCRELCONNECTSPATHELEMENTS('12ypENso3q10TxhGC9AZ33',#18,'3cmsjRvPb4wf9t15K203xV|3cmsjRvPb4wf9t15K203qB','Structural',$,#238,#260,(),(),.ATSTART.,.ATEND.);
#373=IFCRELCONNECTSPATHELEMENTS('11uViMyf7eAX3DQfO7gWD8',#18,'3cmsjRvPb4wf9t15K203xV|3cmsjRvPb4wf9t15K203sD','Structural',$,#238,#282,(),(),.ATEND.,.ATEND.);
#374=IFCRELCONNECTSPATHELEMENTS('1KBk2XUlIQX8tGpH_Anx4l',#18,'3cmsjRvPb4wf9t15K203qB|3cmsjRvPb4wf9t15K203sD','Structural',$,#260,#282,(),(),.ATEND.,.ATSTART.);
#375=IFCRELCONNECTSPATHELEMENTS('27fW5PSe2W$3zyNGCzdblH',#18,'3cmsjRvPb4wf9t15K203qB|3cmsjRvPb4wf9t15K203Ef','Structural',$,#260,#326,(),(),.ATSTART.,.ATEND.);
#376=IFCRELCONNECTSPATHELEMENTS('0LuQwAC1Nc5$oZjdVumvza',#18,'3cmsjRvPb4wf9t15K203w_|3cmsjRvPb4wf9t15K203Cj','Structural',$,#216,#304,(),(),.ATSTART.,.ATPATH.);
#377=IFCRELCONNECTSPATHELEMENTS('3dome2OHElKqOIdBNPS3no',#18,'3cmsjRvPb4wf9t15K203XR|3cmsjRvPb4wf9t15K203Cj','Structural',$,#136,#304,(),(),.ATEND.,.ATPATH.);
#378=IFCPRESENTATIONLAYERASSIGNMENT('A-AREA-____-OTLN',$,(#76,#93,#110),$);
#379=IFCPRESENTATIONLAYERASSIGNMENT('A-WALL-____-OTLN',$,(#124,#134,#163,#170,#185,#192,#207,#214,#229,#236,#251,#258,#273,#280,#295,#302,#317,#324),$);
#380=IFCRELASSOCIATESCLASSIFICATION('26vUINWJpfv18vqOy_cSv4',#18,'Exterior Walls','Exterior Walls:B2010',(#136,#172,#194,#216,#238,#260,#282,#304,#326),#155);
#381=IFCUNITASSIGNMENT((#19,#74,#75));
ENDSEC;
END-ISO-10303-21;
