ISO-10303-21;
HEADER;
FILE_DESCRIPTION(('ViewDefinition [CoordinationView]','RevitIdentifiers [ContentGUID: cbb0ae2e-6350-4225-8ca4-af668662c38d, VersionGUID: bfc25727-f83e-41a5-95bd-5ab740cb49ea, NumberOfSaves: 28]','CoordinateReference [CoordinateBase: Shared Coordinates]'),'2;1');
FILE_NAME('01_02_009.ifc','2026-01-07T16:59:35+01:00',(''),(''),'ODA SDAI 24.6','Autodesk Revit 24.3.30.11 (ENU) - IFC 24.3.30.11','');
FILE_SCHEMA(('IFC4X3'));
ENDSEC;

DATA;
#1=IFCORGANIZATION($,'Autodesk Revit 2024 (ENU)',$,$,$);
#2=IFCAPPLICATION(#1,'2024','Autodesk Revit 2024 (ENU)','Revit');
#3=IFCCARTESIANPOINT((0.,0.,0.));
#4=IFCCARTESIANPOINT((0.,0.));
#5=IFCDIRECTION((1.,0.,0.));
#6=IFCDIRECTION((-1.,0.,0.));
#7=IFCDIRECTION((0.,1.,0.));
#8=IFCDIRECTION((0.,-1.,0.));
#9=IFCDIRECTION((0.,0.,1.));
#10=IFCDIRECTION((0.,0.,-1.));
#11=IFCDIRECTION((1.,0.));
#12=IFCDIRECTION((-1.,0.));
#13=IFCDIRECTION((0.,1.));
#14=IFCDIRECTION((0.,-1.));
#15=IFCPERSON($,'','h.helming',$,$,$,$,$);
#16=IFCORGANIZATION($,'Organization Name','Organization Description',$,$);
#17=IFCPERSONANDORGANIZATION(#15,#16,$);
#18=IFCOWNERHISTORY(#17,#2,$,.NOCHANGE.,$,$,$,1767701831);
#19=IFCSIUNIT(*,.LENGTHUNIT.,.MILLI.,.METRE.);
#20=IFCAXIS2PLACEMENT3D(#3,$,$);
#21=IFCDIRECTION((6.1230317691118863E-17,1.));
#22=IFCGEOMETRICREPRESENTATIONCONTEXT($,'Model',3,0.01,#20,#21);
#23=IFCGEOMETRICREPRESENTATIONSUBCONTEXT('Axis','Model',*,*,*,*,#22,$,.GRAPH_VIEW.,$);
#24=IFCGEOMETRICREPRESENTATIONSUBCONTEXT('Body','Model',*,*,*,*,#22,$,.MODEL_VIEW.,$);
#25=IFCGEOMETRICREPRESENTATIONSUBCONTEXT('Box','Model',*,*,*,*,#22,$,.MODEL_VIEW.,$);
#26=IFCGEOMETRICREPRESENTATIONSUBCONTEXT('FootPrint','Model',*,*,*,*,#22,$,.MODEL_VIEW.,$);
#27=IFCPROJECT('3BiAukOr129OoahsPvdJnz',#18,'Project Number',$,$,'Project Name','Project Status',(#22),#612);
#28=IFCCLASSIFICATION('CSI (Construction Specifications Institute)','1998',$,'Uniformat','UniFormat Classification','https://www.csiresources.org/standards/uniformat',$);
#29=IFCAXIS2PLACEMENT3D(#3,$,$);
#30=IFCLOCALPLACEMENT(#41,#29);
#31=IFCPOSTALADDRESS($,$,$,$,('Enter address hereAddress Line 2'),$,'','Boston','','MA');
#32=IFCBUILDING('3BiAukOr129OoahsPvdJny',#18,'Building Name',$,$,#30,$,'Building Name',.ELEMENT.,$,$,#31);
#33=IFCAXIS2PLACEMENT3D(#3,$,$);
#34=IFCLOCALPLACEMENT(#30,#33);
#35=IFCBUILDINGSTOREY('2JF4e6axWHqu3u0C1FZlmi',#18,'L1',$,'Level:8mm Head',#34,$,'L1',.ELEMENT.,0.);
#36=IFCCARTESIANPOINT((0.,0.,3000.));
#37=IFCAXIS2PLACEMENT3D(#36,$,$);
#38=IFCLOCALPLACEMENT(#30,#37);
#39=IFCBUILDINGSTOREY('1ZGO8hrFCHqw0v0026FpFv',#18,'L2',$,'Level:8mm Head',#38,$,'L2',.ELEMENT.,3000.);
#40=IFCAXIS2PLACEMENT3D(#3,$,$);
#41=IFCLOCALPLACEMENT($,#40);
#42=IFCSITE('3BiAukOr129OoahsPvdJn$',#18,'Default',$,$,#41,$,$,.ELEMENT.,(42,21,31,401672),(-71,-3,-24,-345703),0.,$,$);
#43=IFCPROPERTYSINGLEVALUE('Reference',$,IFCIDENTIFIER('Project Information'),$);
#44=IFCPROPERTYSET('2mFJcO6I01h0OYRLOICO3c',#18,'Pset_SiteCommon',$,(#43));
#45=IFCPROPERTYSINGLEVALUE('IsExternal',$,IFCBOOLEAN(.F.),$);
#46=IFCPROPERTYSET('0O$B2PbAODr9jYnpcaZGJT',#18,'Pset_SpaceCommon',$,(#43,#45));
#47=IFCRELDEFINESBYPROPERTIES('2fDrcjst0HFayqQ3dY1cGQ',#18,$,$,(#42),#44);
#48=IFCRELDEFINESBYPROPERTIES('1lYkP70lXSGXnZeJnLC8MY',#18,$,$,(#42),#46);
#55=IFCAXIS2PLACEMENT3D(#3,$,$);
#56=IFCLOCALPLACEMENT(#34,#55);
#57=IFCCARTESIANPOINT((200.,200.,0.));
#58=IFCCARTESIANPOINT((200.,4500.,0.));
#59=IFCCARTESIANPOINT((2900.,4500.,0.));
#60=IFCCARTESIANPOINT((4900.,4500.,0.));
#61=IFCCARTESIANPOINT((4900.,200.,0.));
#62=IFCPOLYLOOP((#57,#58,#59,#60,#61));
#63=IFCFACEOUTERBOUND(#62,.T.);
#64=IFCFACE((#63));
#65=IFCCARTESIANPOINT((200.,200.,2695.2000000000003));
#66=IFCCARTESIANPOINT((200.,4500.,2695.2000000000003));
#67=IFCPOLYLOOP((#58,#57,#65,#66));
#68=IFCFACEOUTERBOUND(#67,.T.);
#69=IFCFACE((#68));
#70=IFCCARTESIANPOINT((4900.,200.,2695.2000000000003));
#71=IFCPOLYLOOP((#57,#61,#70,#65));
#72=IFCFACEOUTERBOUND(#71,.T.);
#73=IFCFACE((#72));
#74=IFCCARTESIANPOINT((4900.,4500.,2695.2000000000003));
#75=IFCPOLYLOOP((#61,#60,#74,#70));
#76=IFCFACEOUTERBOUND(#75,.T.);
#77=IFCFACE((#76));
#78=IFCCARTESIANPOINT((2900.,4500.,2695.2000000000003));
#79=IFCPOLYLOOP((#60,#59,#78,#74));
#80=IFCFACEOUTERBOUND(#79,.T.);
#81=IFCFACE((#80));
#82=IFCPOLYLOOP((#59,#58,#66,#78));
#83=IFCFACEOUTERBOUND(#82,.T.);
#84=IFCFACE((#83));
#85=IFCPOLYLOOP((#66,#65,#70,#74,#78));
#86=IFCFACEOUTERBOUND(#85,.T.);
#87=IFCFACE((#86));
#88=IFCCLOSEDSHELL((#64,#69,#73,#77,#81,#84,#87));
#89=IFCFACETEDBREP(#88);
#90=IFCSHAPEREPRESENTATION(#24,'Body','Brep',(#89));
#91=IFCPRODUCTDEFINITIONSHAPE($,$,(#90));
#92=IFCSIUNIT(*,.AREAUNIT.,$,.SQUARE_METRE.);
#93=IFCSPACE('3Vyqk8cSj8TOuAk6zHUwK5',#18,'132',$,$,#56,#91,'room',.ELEMENT.,.NOTDEFINED.,$);
#94=IFCSPACETYPE('3Vyqk8cSj8TOuAi6zHUwK5',#18,'room 132:1602716',$,$,$,$,'1602716',$,.NOTDEFINED.,$);
#95=IFCPROPERTYSINGLEVALUE('Reference',$,IFCIDENTIFIER('room 132'),$);
#96=IFCPROPERTYSET('0J_IdRLxLVvfNMk755r9Bs',#18,'Pset_SpaceCommon',$,(#45,#95));
#97=IFCPROPERTYSET('0GYrmglhe3Mz0NFEw7FA1q',#18,'Pset_SpaceHeaterTypeCommon',$,(#95));
#98=IFCRELDEFINESBYPROPERTIES('1YQjvoT09lc6cQSZU4U1dH',#18,$,$,(#93),#96);
#99=IFCRELDEFINESBYPROPERTIES('3TpALxO0i09ljGyS98W9F1',#18,$,$,(#93),#97);
#102=IFCAXIS2PLACEMENT3D(#3,$,$);
#103=IFCLOCALPLACEMENT(#34,#102);
#104=IFCCARTESIANPOINT((-2.2737367544323206E-13,-5.6843418860808015E-13));
#105=IFCAXIS2PLACEMENT2D(#104,#11);
#106=IFCRECTANGLEPROFILEDEF(.AREA.,$,#105,4300.0000000000018,2400.);
#107=IFCCARTESIANPOINT((6300.,2350.,0.));
#108=IFCAXIS2PLACEMENT3D(#107,#9,#7);
#109=IFCEXTRUDEDAREASOLID(#106,#108,#9,2695.2000000000003);
#110=IFCSIUNIT(*,.PLANEANGLEUNIT.,$,.RADIAN.);
#111=IFCDIMENSIONALEXPONENTS(0,0,0,0,0,0,0);
#112=IFCMEASUREWITHUNIT(IFCPLANEANGLEMEASURE(0.017453292519943278),#110);
#113=IFCCONVERSIONBASEDUNIT(#111,.PLANEANGLEUNIT.,'DEGREE',#112);
#114=IFCSHAPEREPRESENTATION(#24,'Body','SweptSolid',(#109));
#115=IFCPRODUCTDEFINITIONSHAPE($,$,(#114));
#116=IFCSPACE('3Vyqk8cSj8TOuAk6zHUwKx',#18,'134',$,$,#103,#115,'room',.ELEMENT.,.NOTDEFINED.,$);
#117=IFCSPACETYPE('3Vyqk8cSj8TOuAi6zHUwKx',#18,'room 134:1602722',$,$,$,$,'1602722',$,.NOTDEFINED.,$);
#118=IFCPROPERTYSINGLEVALUE('Reference',$,IFCIDENTIFIER('room 134'),$);
#119=IFCPROPERTYSET('3uW5dlleFoBNCC0g3P7F9z',#18,'Pset_SpaceCommon',$,(#45,#118));
#120=IFCPROPERTYSET('3A5_TifwCaPPAZ3xLO5dKN',#18,'Pset_SpaceHeaterTypeCommon',$,(#118));
#121=IFCRELDEFINESBYPROPERTIES('26iZ90qSCWNjTwa6irVCsP',#18,$,$,(#116),#119);
#122=IFCRELDEFINESBYPROPERTIES('30iSZrcGy0rV7lEKYdAyVR',#18,$,$,(#116),#120);
#123=IFCAXIS2PLACEMENT3D(#3,$,$);
#124=IFCLOCALPLACEMENT(#34,#123);
#125=IFCCARTESIANPOINT((320.0000000000033,-49.999999999999545));
#126=IFCAXIS2PLACEMENT2D(#125,#11);
#127=IFCRECTANGLEPROFILEDEF(.AREA.,$,#126,3200.0000000000214,4500.0000000000009);
#128=IFCCARTESIANPOINT((5200.,5980.,0.));
#129=IFCAXIS2PLACEMENT3D(#128,#9,#7);
#130=IFCEXTRUDEDAREASOLID(#127,#129,#9,2695.2000000000003);
#131=IFCSHAPEREPRESENTATION(#24,'Body','SweptSolid',(#130));
#132=IFCPRODUCTDEFINITIONSHAPE($,$,(#131));
#133=IFCSPACE('3Vyqk8cSj8TOuAk6zHUwJB',#18,'135',$,$,#124,#132,'room',.ELEMENT.,.NOTDEFINED.,$);
#134=IFCSPACETYPE('3Vyqk8cSj8TOuAi6zHUwJB',#18,'room 135:1602898',$,$,$,$,'1602898',$,.NOTDEFINED.,$);
#135=IFCPROPERTYSINGLEVALUE('Reference',$,IFCIDENTIFIER('room 135'),$);
#136=IFCPROPERTYSET('3mpZ6jt2tbxdIDyLBZ7bSV',#18,'Pset_SpaceCommon',$,(#45,#135));
#137=IFCPROPERTYSET('25WMiLSR$qCd$WGyaFckb2',#18,'Pset_SpaceHeaterTypeCommon',$,(#135));
#138=IFCRELDEFINESBYPROPERTIES('3ZpWLR38_w7XA0kd$xPgtp',#18,$,$,(#133),#136);
#139=IFCRELDEFINESBYPROPERTIES('3Z3nzrqkaqS1rGzHMTgTQ$',#18,$,$,(#133),#137);
#140=IFCAXIS2PLACEMENT3D(#3,$,$);
#141=IFCLOCALPLACEMENT(#34,#140);
#142=IFCCARTESIANPOINT((200.,4700.,0.));
#143=IFCCARTESIANPOINT((200.,7900.,0.));
#144=IFCCARTESIANPOINT((2800.,7900.,0.));
#145=IFCCARTESIANPOINT((2800.,4700.,0.));
#146=IFCPOLYLOOP((#142,#143,#144,#145));
#147=IFCFACEOUTERBOUND(#146,.T.);
#148=IFCFACE((#147));
#149=IFCCARTESIANPOINT((200.,4700.,2695.2000000000003));
#150=IFCCARTESIANPOINT((200.,7900.,2695.2000000000003));
#151=IFCPOLYLOOP((#143,#142,#149,#150));
#152=IFCFACEOUTERBOUND(#151,.T.);
#153=IFCFACE((#152));
#154=IFCCARTESIANPOINT((2800.,4700.,2695.2000000000003));
#155=IFCPOLYLOOP((#142,#145,#154,#149));
#156=IFCFACEOUTERBOUND(#155,.T.);
#157=IFCFACE((#156));
#158=IFCCARTESIANPOINT((2800.,7900.,2695.2000000000003));
#159=IFCPOLYLOOP((#145,#144,#158,#154));
#160=IFCFACEOUTERBOUND(#159,.T.);
#161=IFCFACE((#160));
#162=IFCPOLYLOOP((#144,#143,#150,#158));
#163=IFCFACEOUTERBOUND(#162,.T.);
#164=IFCFACE((#163));
#165=IFCPOLYLOOP((#150,#149,#154,#158));
#166=IFCFACEOUTERBOUND(#165,.T.);
#167=IFCFACE((#166));
#168=IFCCLOSEDSHELL((#148,#153,#157,#161,#164,#167));
#169=IFCFACETEDBREP(#168);
#170=IFCSHAPEREPRESENTATION(#24,'Body','Brep',(#169));
#171=IFCPRODUCTDEFINITIONSHAPE($,$,(#170));
#172=IFCSPACE('1mbvTd20X72ePAvoaDnxNU',#18,'136',$,$,#141,#171,'room',.ELEMENT.,.NOTDEFINED.,$);
#173=IFCSPACETYPE('1mbvTd20X72ePAxoaDnxNU',#18,'room 136:1603756',$,$,$,$,'1603756',$,.NOTDEFINED.,$);
#174=IFCPROPERTYSINGLEVALUE('Reference',$,IFCIDENTIFIER('room 136'),$);
#175=IFCPROPERTYSET('1ctWwpT4HPLRJdSxzVDpJh',#18,'Pset_SpaceCommon',$,(#45,#174));
#176=IFCPROPERTYSET('13cJxdERVLh8mDqyBCx3gK',#18,'Pset_SpaceHeaterTypeCommon',$,(#174));
#177=IFCRELDEFINESBYPROPERTIES('3Dh3zfM333IeMZpL$zwV5V',#18,$,$,(#172),#175);
#178=IFCRELDEFINESBYPROPERTIES('0N5lVlzSF9zagBhNjAimcB',#18,$,$,(#172),#176);
#179=IFCCARTESIANPOINT((100.,8100.,0.));
#180=IFCAXIS2PLACEMENT3D(#179,#9,#8);
#181=IFCLOCALPLACEMENT(#34,#180);
#182=IFCCARTESIANPOINT((8100.,-0.));
#183=IFCPOLYLINE((#4,#182));
#184=IFCSHAPEREPRESENTATION(#23,'Axis','Curve2D',(#183));
#185=IFCCARTESIANPOINT((4050.0000000000127,-1.4210854715202004E-14));
#186=IFCAXIS2PLACEMENT2D(#185,#12);
#187=IFCRECTANGLEPROFILEDEF(.AREA.,$,#186,8100.0000000000255,200.00000000000003);
#188=IFCAXIS2PLACEMENT3D(#3,$,$);
#189=IFCEXTRUDEDAREASOLID(#187,#188,#9,2695.2000000000003);
#190=IFCCARTESIANPOINT((8100.,-0.));
#191=IFCCARTESIANPOINT((8100.,200.));
#192=IFCCARTESIANPOINT((7900.,200.));
#193=IFCCARTESIANPOINT((3600.,200.));
#194=IFCCARTESIANPOINT((3400.,200.));
#195=IFCCARTESIANPOINT((200.,200.));
#196=IFCCARTESIANPOINT((0.,200.));
#197=IFCPOLYLINE((#4,#190,#191,#192,#193,#194,#195,#196,#4));
#198=IFCCARTESIANPOINT((0.,-100.,2695.2000000000003));
#199=IFCAXIS2PLACEMENT3D(#198,#10,#7);
#200=IFCPLANE(#199);
#201=IFCCARTESIANPOINT((0.,-100.,2695.2000000000003));
#202=IFCAXIS2PLACEMENT3D(#201,$,$);
#203=IFCPOLYGONALBOUNDEDHALFSPACE(#200,.T.,#202,#197);
#204=IFCBOOLEANCLIPPINGRESULT(.DIFFERENCE.,#189,#203);
#205=IFCCOLOURRGB($,0.75294117647058822,0.75294117647058822,0.75294117647058822);
#206=IFCSURFACESTYLERENDERING(#205,0.,$,$,$,$,IFCNORMALISEDRATIOMEASURE(0.5),IFCSPECULAREXPONENT(10.),.NOTDEFINED.);
#207=IFCSURFACESTYLE('Default Wall',.BOTH.,(#206));
#208=IFCSTYLEDITEM(#189,(#207),$);
#209=IFCSHAPEREPRESENTATION(#24,'Body','Clipping',(#204));
#210=IFCPRODUCTDEFINITIONSHAPE($,$,(#184,#209));
#211=IFCWALL('3Vyqk8cSj8TOuAk6zHUwAt',#18,'Basic Wall:Generic - 200mm:1602350',$,'Basic Wall:Generic - 200mm',#181,#210,'1602350',.NOTDEFINED.);
#212=IFCMATERIAL('Default Wall',$,'Miscellaneous');
#213=IFCSTYLEDITEM($,(#207),$);
#214=IFCSTYLEDREPRESENTATION(#22,'Style','Material',(#213));
#215=IFCMATERIALDEFINITIONREPRESENTATION($,$,(#214),#212);
#216=IFCMATERIALLAYER(#212,200.,$,'Layer',$,'Miscellaneous',$);
#217=IFCMATERIALLAYERSET((#216),'Basic Wall:Generic - 200mm',$);
#218=IFCWALLTYPE('1xZrMVYp52mhf4uMzw11Hk',#18,'Basic Wall:Generic - 200mm',$,$,(#232),$,'441451',$,.STANDARD.);
#219=IFCPROPERTYSINGLEVALUE('Reference',$,IFCIDENTIFIER('Generic - 200mm'),$);
#220=IFCPROPERTYSET('0Km4zNM2MwGsg6uui573Gl',#18,'Pset_EnvironmentalImpactIndicators',$,(#219));
#221=IFCPROPERTYSINGLEVALUE('Reference',$,IFCLABEL('Generic - 200mm'),$);
#222=IFCPROPERTYSET('0ZXMEr5ajxWFHJMWoi4f9d',#18,'Pset_ReinforcementBarPitchOfWall',$,(#221));
#223=IFCPROPERTYSINGLEVALUE('IsExternal',$,IFCBOOLEAN(.T.),$);
#224=IFCPROPERTYSINGLEVALUE('LoadBearing',$,IFCBOOLEAN(.F.),$);
#225=IFCPROPERTYSINGLEVALUE('ExtendToStructure',$,IFCBOOLEAN(.T.),$);
#226=IFCPROPERTYSET('1zrfxTCt1bXMa1Ly5p70N1',#18,'Pset_WallCommon',$,(#219,#223,#224,#225));
#227=IFCRELDEFINESBYPROPERTIES('03npcsjKGgxiKm0v35mOCU',#18,$,$,(#211),#220);
#228=IFCRELDEFINESBYPROPERTIES('19PyAMlzR0yGXIwnh1vl8V',#18,$,$,(#211),#222);
#229=IFCRELDEFINESBYPROPERTIES('0Ch_H7bAOLrBCWJ9at5CY2',#18,$,$,(#211),#226);
#230=IFCCLASSIFICATIONREFERENCE('https://www.csiresources.org/standards/uniformat','B2010','Exterior Walls',#28,'',$);
#231=IFCPROPERTYSINGLEVALUE('Description',$,IFCTEXT('Generic Wall (Material By Category), 200mm thick'),$);
#232=IFCPROPERTYSET('2L7lvTstnIeeydfwzfZZLR',#18,'Pset_ReinforcementBarPitchOfWall',$,(#231));
#233=IFCCARTESIANPOINT((200.,100.,0.));
#234=IFCAXIS2PLACEMENT3D(#233,$,$);
#235=IFCLOCALPLACEMENT(#34,#234);
#236=IFCCARTESIANPOINT((7500.,0.));
#237=IFCPOLYLINE((#4,#236));
#238=IFCSHAPEREPRESENTATION(#23,'Axis','Curve2D',(#237));
#239=IFCCARTESIANPOINT((3750.0000000000009,0.));
#240=IFCAXIS2PLACEMENT2D(#239,#12);
#241=IFCRECTANGLEPROFILEDEF(.AREA.,$,#240,7500.0000000000018,200.);
#242=IFCAXIS2PLACEMENT3D(#3,$,$);
#243=IFCEXTRUDEDAREASOLID(#241,#242,#9,2695.2000000000003);
#244=IFCCARTESIANPOINT((4900.,0.));
#245=IFCCARTESIANPOINT((4900.,200.));
#246=IFCCARTESIANPOINT((4700.,200.));
#247=IFCCARTESIANPOINT((-0.,200.));
#248=IFCPOLYLINE((#4,#244,#245,#246,#247,#4));
#249=IFCCARTESIANPOINT((0.,-100.,2695.2000000000003));
#250=IFCAXIS2PLACEMENT3D(#249,#10,#5);
#251=IFCPLANE(#250);
#252=IFCCARTESIANPOINT((0.,-100.,2695.2000000000003));
#253=IFCAXIS2PLACEMENT3D(#252,$,$);
#254=IFCPOLYGONALBOUNDEDHALFSPACE(#251,.T.,#253,#248);
#255=IFCBOOLEANCLIPPINGRESULT(.DIFFERENCE.,#243,#254);
#256=IFCCARTESIANPOINT((2600.,0.));
#257=IFCCARTESIANPOINT((2600.,200.));
#258=IFCCARTESIANPOINT((2400.,200.));
#259=IFCCARTESIANPOINT((-0.,200.));
#260=IFCPOLYLINE((#4,#256,#257,#258,#259,#4));
#261=IFCCARTESIANPOINT((4900.,-100.,2695.2000000000003));
#262=IFCAXIS2PLACEMENT3D(#261,#10,#6);
#263=IFCPLANE(#262);
#264=IFCCARTESIANPOINT((4900.,-100.,2695.2000000000003));
#265=IFCAXIS2PLACEMENT3D(#264,$,$);
#266=IFCPOLYGONALBOUNDEDHALFSPACE(#263,.T.,#265,#260);
#267=IFCBOOLEANCLIPPINGRESULT(.DIFFERENCE.,#255,#266);
#268=IFCSTYLEDITEM(#243,(#207),$);
#269=IFCSHAPEREPRESENTATION(#24,'Body','Clipping',(#267));
#270=IFCPRODUCTDEFINITIONSHAPE($,$,(#238,#269));
#271=IFCWALL('3Vyqk8cSj8TOuAk6zHUwAc',#18,'Basic Wall:Generic - 200mm:1602367',$,'Basic Wall:Generic - 200mm',#235,#270,'1602367',.NOTDEFINED.);
#272=IFCPROPERTYSET('3JUIdSeVp_uwEbbZZ62q4s',#18,'Pset_EnvironmentalImpactIndicators',$,(#219));
#273=IFCPROPERTYSINGLEVALUE('Reference',$,IFCLABEL('Generic - 200mm'),$);
#274=IFCPROPERTYSET('2xt8_eWXQmZoGh92FUaf7C',#18,'Pset_ReinforcementBarPitchOfWall',$,(#273));
#275=IFCPROPERTYSET('1Qx33RkOMvlc106bCgkFYy',#18,'Pset_WallCommon',$,(#219,#223,#224,#225));
#276=IFCRELDEFINESBYPROPERTIES('0Cbozj_3TLDgtMpOD0_yYT',#18,$,$,(#271),#272);
#277=IFCRELDEFINESBYPROPERTIES('1Feha5xswcNTrZ$5QRM3b5',#18,$,$,(#271),#274);
#278=IFCRELDEFINESBYPROPERTIES('1olywbjtcxLyBnEbs_Cz$6',#18,$,$,(#271),#275);
#279=IFCCARTESIANPOINT((5000.,200.,0.));
#280=IFCAXIS2PLACEMENT3D(#279,#9,#7);
#281=IFCLOCALPLACEMENT(#34,#280);
#282=IFCCARTESIANPOINT((4300.,-0.));
#283=IFCPOLYLINE((#4,#282));
#284=IFCSHAPEREPRESENTATION(#23,'Axis','Curve2D',(#283));
#285=IFCCARTESIANPOINT((2150.0000000000009,-3.1974423109204508E-13));
#286=IFCAXIS2PLACEMENT2D(#285,#12);
#287=IFCRECTANGLEPROFILEDEF(.AREA.,$,#286,4300.0000000000018,200.);
#288=IFCAXIS2PLACEMENT3D(#3,$,$);
#289=IFCEXTRUDEDAREASOLID(#287,#288,#9,2695.2000000000003);
#290=IFCCARTESIANPOINT((4300.,-0.));
#291=IFCCARTESIANPOINT((4300.,200.));
#292=IFCCARTESIANPOINT((0.,200.));
#293=IFCPOLYLINE((#4,#290,#291,#292,#4));
#294=IFCCARTESIANPOINT((0.,-100.,2695.2000000000003));
#295=IFCAXIS2PLACEMENT3D(#294,#10,#8);
#296=IFCPLANE(#295);
#297=IFCCARTESIANPOINT((0.,-100.,2695.2000000000003));
#298=IFCAXIS2PLACEMENT3D(#297,$,$);
#299=IFCPOLYGONALBOUNDEDHALFSPACE(#296,.T.,#298,#293);
#300=IFCBOOLEANCLIPPINGRESULT(.DIFFERENCE.,#289,#299);
#301=IFCSTYLEDITEM(#289,(#207),$);
#302=IFCSHAPEREPRESENTATION(#24,'Body','Clipping',(#300));
#303=IFCPRODUCTDEFINITIONSHAPE($,$,(#284,#302));
#304=IFCWALL('3Vyqk8cSj8TOuAk6zHUwBs',#18,'Basic Wall:Generic - 200mm:1602415',$,'Basic Wall:Generic - 200mm',#281,#303,'1602415',.NOTDEFINED.);
#305=IFCPROPERTYSET('3zFZKkmoyjMir2XJPwM5K5',#18,'Pset_EnvironmentalImpactIndicators',$,(#219));
#306=IFCPROPERTYSINGLEVALUE('Reference',$,IFCLABEL('Generic - 200mm'),$);
#307=IFCPROPERTYSET('24rl2YIcyoi55ChyZCq2G8',#18,'Pset_ReinforcementBarPitchOfWall',$,(#306));
#308=IFCPROPERTYSET('1QO0ZFI0bba_x9VNyujEk0',#18,'Pset_WallCommon',$,(#219,#223,#224,#225));
#309=IFCRELDEFINESBYPROPERTIES('2a9nfObiFdFDL_xI6RB3zY',#18,$,$,(#304),#305);
#310=IFCRELDEFINESBYPROPERTIES('2lgnXdSixHWA271wBKXvqj',#18,$,$,(#304),#307);
#311=IFCRELDEFINESBYPROPERTIES('1XotYCV5aUozGnrkwTWOXu',#18,$,$,(#304),#308);
#312=IFCCARTESIANPOINT((7500.,4600.,0.));
#313=IFCAXIS2PLACEMENT3D(#312,#9,#6);
#314=IFCLOCALPLACEMENT(#34,#313);
#315=IFCCARTESIANPOINT((7300.,0.));
#316=IFCPOLYLINE((#4,#315));
#317=IFCSHAPEREPRESENTATION(#23,'Axis','Curve2D',(#316));
#318=IFCCARTESIANPOINT((3650.0000000000005,9.9475983006414026E-14));
#319=IFCAXIS2PLACEMENT2D(#318,#12);
#320=IFCRECTANGLEPROFILEDEF(.AREA.,$,#319,7300.0000000000009,200.);
#321=IFCAXIS2PLACEMENT3D(#3,$,$);
#322=IFCEXTRUDEDAREASOLID(#320,#321,#9,2695.2000000000003);
#323=IFCCARTESIANPOINT((2100.,0.));
#324=IFCCARTESIANPOINT((2300.,0.));
#325=IFCCARTESIANPOINT((4900.,0.));
#326=IFCCARTESIANPOINT((4900.,200.));
#327=IFCCARTESIANPOINT((200.,200.));
#328=IFCCARTESIANPOINT((-0.,200.));
#329=IFCPOLYLINE((#4,#323,#324,#325,#326,#327,#328,#4));
#330=IFCCARTESIANPOINT((2400.,-100.,2695.2000000000003));
#331=IFCAXIS2PLACEMENT3D(#330,#10,#6);
#332=IFCPLANE(#331);
#333=IFCCARTESIANPOINT((2400.,-100.,2695.2000000000003));
#334=IFCAXIS2PLACEMENT3D(#333,$,$);
#335=IFCPOLYGONALBOUNDEDHALFSPACE(#332,.T.,#334,#329);
#336=IFCBOOLEANCLIPPINGRESULT(.DIFFERENCE.,#322,#335);
#337=IFCCARTESIANPOINT((2400.,0.));
#338=IFCCARTESIANPOINT((2400.,200.));
#339=IFCCARTESIANPOINT((-0.,200.));
#340=IFCPOLYLINE((#4,#337,#338,#339,#4));
#341=IFCCARTESIANPOINT((0.,-100.,2695.2000000000003));
#342=IFCAXIS2PLACEMENT3D(#341,#10,#5);
#343=IFCPLANE(#342);
#344=IFCCARTESIANPOINT((0.,-100.,2695.2000000000003));
#345=IFCAXIS2PLACEMENT3D(#344,$,$);
#346=IFCPOLYGONALBOUNDEDHALFSPACE(#343,.T.,#345,#340);
#347=IFCBOOLEANCLIPPINGRESULT(.DIFFERENCE.,#336,#346);
#348=IFCSTYLEDITEM(#322,(#207),$);
#349=IFCSHAPEREPRESENTATION(#24,'Body','Clipping',(#347));
#350=IFCPRODUCTDEFINITIONSHAPE($,$,(#317,#349));
#351=IFCWALL('3Vyqk8cSj8TOuAk6zHUw89',#18,'Basic Wall:Generic - 200mm:1602448',$,'Basic Wall:Generic - 200mm',#314,#350,'1602448',.NOTDEFINED.);
#352=IFCPROPERTYSET('24uQ0xYWMb2iAICPORaANl',#18,'Pset_EnvironmentalImpactIndicators',$,(#219));
#353=IFCPROPERTYSINGLEVALUE('Reference',$,IFCLABEL('Generic - 200mm'),$);
#354=IFCPROPERTYSET('2NtOS$PXqyXyak0_SUhCNN',#18,'Pset_ReinforcementBarPitchOfWall',$,(#353));
#355=IFCPROPERTYSET('3bKdsx29_RVH62fNRmCncU',#18,'Pset_WallCommon',$,(#219,#223,#224,#225));
#356=IFCRELDEFINESBYPROPERTIES('2OpRam8jxvHM2_75mSf2IS',#18,$,$,(#351),#352);
#357=IFCRELDEFINESBYPROPERTIES('1q8YBDpLYRkwLX2j2Smoto',#18,$,$,(#351),#354);
#358=IFCRELDEFINESBYPROPERTIES('3tUA_y2$R1DIY4ctO4p7G7',#18,$,$,(#351),#355);
#359=IFCCARTESIANPOINT((7600.,200.,0.));
#360=IFCAXIS2PLACEMENT3D(#359,#9,#7);
#361=IFCLOCALPLACEMENT(#34,#360);
#362=IFCCARTESIANPOINT((7900.,-0.));
#363=IFCPOLYLINE((#4,#362));
#364=IFCSHAPEREPRESENTATION(#23,'Axis','Curve2D',(#363));
#365=IFCCARTESIANPOINT((3950.0000000000127,-1.5631940186722204E-13));
#366=IFCAXIS2PLACEMENT2D(#365,#12);
#367=IFCRECTANGLEPROFILEDEF(.AREA.,$,#366,7900.0000000000255,200.);
#368=IFCAXIS2PLACEMENT3D(#3,$,$);
#369=IFCEXTRUDEDAREASOLID(#367,#368,#9,2695.2000000000003);
#370=IFCCARTESIANPOINT((7900.,-0.));
#371=IFCCARTESIANPOINT((7900.,200.));
#372=IFCCARTESIANPOINT((7700.,200.));
#373=IFCCARTESIANPOINT((4500.,200.));
#374=IFCCARTESIANPOINT((4300.,200.));
#375=IFCCARTESIANPOINT((0.,200.));
#376=IFCPOLYLINE((#4,#370,#371,#372,#373,#374,#375,#4));
#377=IFCCARTESIANPOINT((0.,-100.,2695.2000000000003));
#378=IFCAXIS2PLACEMENT3D(#377,#10,#7);
#379=IFCPLANE(#378);
#380=IFCCARTESIANPOINT((0.,-100.,2695.2000000000003));
#381=IFCAXIS2PLACEMENT3D(#380,$,$);
#382=IFCPOLYGONALBOUNDEDHALFSPACE(#379,.T.,#381,#376);
#383=IFCBOOLEANCLIPPINGRESULT(.DIFFERENCE.,#369,#382);
#384=IFCSTYLEDITEM(#369,(#207),$);
#385=IFCSHAPEREPRESENTATION(#24,'Body','Clipping',(#383));
#386=IFCPRODUCTDEFINITIONSHAPE($,$,(#364,#385));
#387=IFCWALL('3Vyqk8cSj8TOuAk6zHUwMJ',#18,'Basic Wall:Generic - 200mm:1602570',$,'Basic Wall:Generic - 200mm',#361,#386,'1602570',.NOTDEFINED.);
#388=IFCPROPERTYSET('3lnIhEvOuHbjSaKDfZK8k9',#18,'Pset_EnvironmentalImpactIndicators',$,(#219));
#389=IFCPROPERTYSINGLEVALUE('Reference',$,IFCLABEL('Generic - 200mm'),$);
#390=IFCPROPERTYSET('04W1WwOvjm30inH1dChtfP',#18,'Pset_ReinforcementBarPitchOfWall',$,(#389));
#391=IFCPROPERTYSET('3KqX06vgGEOM$38ftOcyqA',#18,'Pset_WallCommon',$,(#219,#223,#224,#225));
#392=IFCRELDEFINESBYPROPERTIES('0S8aOnFU8WcFAwodE0ltd9',#18,$,$,(#387),#388);
#393=IFCRELDEFINESBYPROPERTIES('1tYLw8_V7aeyi7TVjsHYUw',#18,$,$,(#387),#390);
#394=IFCRELDEFINESBYPROPERTIES('1t2sWDc8aJN1HpxUM7WWie',#18,$,$,(#387),#391);
#395=IFCCARTESIANPOINT((7500.,8000.,0.));
#396=IFCAXIS2PLACEMENT3D(#395,#9,#6);
#397=IFCLOCALPLACEMENT(#34,#396);
#398=IFCCARTESIANPOINT((7300.,0.));
#399=IFCPOLYLINE((#4,#398));
#400=IFCSHAPEREPRESENTATION(#23,'Axis','Curve2D',(#399));
#401=IFCCARTESIANPOINT((3650.0000000000005,4.4053649617126212E-13));
#402=IFCAXIS2PLACEMENT2D(#401,#12);
#403=IFCRECTANGLEPROFILEDEF(.AREA.,$,#402,7300.0000000000009,200.);
#404=IFCAXIS2PLACEMENT3D(#3,$,$);
#405=IFCEXTRUDEDAREASOLID(#403,#404,#9,2695.2000000000003);
#406=IFCCARTESIANPOINT((2800.,0.));
#407=IFCCARTESIANPOINT((2800.,200.));
#408=IFCCARTESIANPOINT((200.,200.));
#409=IFCCARTESIANPOINT((0.,200.));
#410=IFCPOLYLINE((#4,#406,#407,#408,#409,#4));
#411=IFCCARTESIANPOINT((4500.,-100.,2695.2000000000003));
#412=IFCAXIS2PLACEMENT3D(#411,#10,#6);
#413=IFCPLANE(#412);
#414=IFCCARTESIANPOINT((4500.,-100.,2695.2000000000003));
#415=IFCAXIS2PLACEMENT3D(#414,$,$);
#416=IFCPOLYGONALBOUNDEDHALFSPACE(#413,.T.,#415,#410);
#417=IFCBOOLEANCLIPPINGRESULT(.DIFFERENCE.,#405,#416);
#418=IFCCARTESIANPOINT((4500.,0.));
#419=IFCCARTESIANPOINT((4500.,200.));
#420=IFCCARTESIANPOINT((0.,200.));
#421=IFCPOLYLINE((#4,#418,#419,#420,#4));
#422=IFCCARTESIANPOINT((0.,-100.,2695.2000000000003));
#423=IFCAXIS2PLACEMENT3D(#422,#10,#5);
#424=IFCPLANE(#423);
#425=IFCCARTESIANPOINT((0.,-100.,2695.2000000000003));
#426=IFCAXIS2PLACEMENT3D(#425,$,$);
#427=IFCPOLYGONALBOUNDEDHALFSPACE(#424,.T.,#426,#421);
#428=IFCBOOLEANCLIPPINGRESULT(.DIFFERENCE.,#417,#427);
#429=IFCSTYLEDITEM(#405,(#207),$);
#430=IFCSHAPEREPRESENTATION(#24,'Body','Clipping',(#428));
#431=IFCPRODUCTDEFINITIONSHAPE($,$,(#400,#430));
#432=IFCWALL('3Vyqk8cSj8TOuAk6zHUwNQ',#18,'Basic Wall:Generic - 200mm:1602627',$,'Basic Wall:Generic - 200mm',#397,#431,'1602627',.NOTDEFINED.);
#433=IFCPROPERTYSET('33VNddCdyWuRINW3IN$6wR',#18,'Pset_EnvironmentalImpactIndicators',$,(#219));
#434=IFCPROPERTYSINGLEVALUE('Reference',$,IFCLABEL('Generic - 200mm'),$);
#435=IFCPROPERTYSET('3fo6gcdchLdhUs9OMMjJcK',#18,'Pset_ReinforcementBarPitchOfWall',$,(#434));
#436=IFCPROPERTYSET('365dpoAGwqqh9R$iloiJ6Y',#18,'Pset_WallCommon',$,(#219,#223,#224,#225));
#437=IFCRELDEFINESBYPROPERTIES('2BzMAyBcbgIMAClUNVhX7C',#18,$,$,(#432),#433);
#438=IFCRELDEFINESBYPROPERTIES('2jcjj16uqcySZoq7QPRlFE',#18,$,$,(#432),#435);
#439=IFCRELDEFINESBYPROPERTIES('3JFaQDGEcQuJc$tDFSxPEn',#18,$,$,(#432),#436);
#440=IFCCARTESIANPOINT((2900.,4700.,0.));
#441=IFCAXIS2PLACEMENT3D(#440,#9,#7);
#442=IFCLOCALPLACEMENT(#34,#441);
#443=IFCCARTESIANPOINT((3200.,0.));
#444=IFCPOLYLINE((#4,#443));
#445=IFCSHAPEREPRESENTATION(#23,'Axis','Curve2D',(#444));
#446=IFCCARTESIANPOINT((1600.0000000000127,9.9475983006414026E-14));
#447=IFCAXIS2PLACEMENT2D(#446,#12);
#448=IFCRECTANGLEPROFILEDEF(.AREA.,$,#447,3200.0000000000255,200.);
#449=IFCAXIS2PLACEMENT3D(#3,$,$);
#450=IFCEXTRUDEDAREASOLID(#448,#449,#9,2695.2000000000003);
#451=IFCCARTESIANPOINT((3200.,0.));
#452=IFCCARTESIANPOINT((3200.,200.));
#453=IFCCARTESIANPOINT((0.,200.));
#454=IFCPOLYLINE((#4,#451,#452,#453,#4));
#455=IFCCARTESIANPOINT((0.,-100.,2695.2000000000003));
#456=IFCAXIS2PLACEMENT3D(#455,#10,#8);
#457=IFCPLANE(#456);
#458=IFCCARTESIANPOINT((0.,-100.,2695.2000000000003));
#459=IFCAXIS2PLACEMENT3D(#458,$,$);
#460=IFCPOLYGONALBOUNDEDHALFSPACE(#457,.T.,#459,#454);
#461=IFCBOOLEANCLIPPINGRESULT(.DIFFERENCE.,#450,#460);
#462=IFCSTYLEDITEM(#450,(#207),$);
#463=IFCSHAPEREPRESENTATION(#24,'Body','Clipping',(#461));
#464=IFCPRODUCTDEFINITIONSHAPE($,$,(#445,#463));
#465=IFCWALL('3Vyqk8cSj8TOuAk6zHUwIV',#18,'Basic Wall:Generic - 200mm:1602822',$,'Basic Wall:Generic - 200mm',#442,#464,'1602822',.NOTDEFINED.);
#466=IFCPROPERTYSET('3jiZGkAKUu2Am_YLPx8Ihp',#18,'Pset_EnvironmentalImpactIndicators',$,(#219));
#467=IFCPROPERTYSINGLEVALUE('Reference',$,IFCLABEL('Generic - 200mm'),$);
#468=IFCPROPERTYSET('0I2vFcCwzFIqXYuiAJMRoI',#18,'Pset_ReinforcementBarPitchOfWall',$,(#467));
#469=IFCPROPERTYSET('3oaDZ6ll2ApuPGw0$rKaRm',#18,'Pset_WallCommon',$,(#219,#223,#224,#225));
#470=IFCRELDEFINESBYPROPERTIES('3sUTm1e5PvbSM1LkCWEcnc',#18,$,$,(#465),#466);
#471=IFCRELDEFINESBYPROPERTIES('2PBm19nyIDk_wgMh7oZ7kn',#18,$,$,(#465),#468);
#472=IFCRELDEFINESBYPROPERTIES('1puf9ZxLtpuD$z2essXrIy',#18,$,$,(#465),#469);
#473=IFCAXIS2PLACEMENT3D(#3,$,$);
#474=IFCLOCALPLACEMENT(#34,#473);
#475=IFCCARTESIANPOINT((0.,0.));
#476=IFCAXIS2PLACEMENT2D(#475,#11);
#477=IFCRECTANGLEPROFILEDEF(.AREA.,$,#476,8099.9999999999991,7700.0000000000136);
#478=IFCCARTESIANPOINT((3850.,4050.,0.));
#479=IFCAXIS2PLACEMENT3D(#478,#10,#7);
#480=IFCEXTRUDEDAREASOLID(#477,#479,#9,304.80000000000001);
#481=IFCCOLOURRGB($,0.50196078431372548,0.50196078431372548,0.50196078431372548);
#482=IFCSURFACESTYLERENDERING(#481,0.,$,$,$,$,IFCNORMALISEDRATIOMEASURE(0.5),IFCSPECULAREXPONENT(10.),.NOTDEFINED.);
#483=IFCSURFACESTYLE('Default Floor',.BOTH.,(#482));
#484=IFCSTYLEDITEM(#480,(#483),$);
#485=IFCSHAPEREPRESENTATION(#24,'Body','SweptSolid',(#480));
#486=IFCPRODUCTDEFINITIONSHAPE($,$,(#485));
#487=IFCSLAB('1NO2FmQyX8Dx48Vy4bqK11',#18,'Floor:Generic - 12":1602941',$,'Floor:Generic - 12"',#474,#486,'1602941',.FLOOR.);
#488=IFCSLABTYPE('1xZrMVYp52mhf4uMzw11Hi',#18,'Floor:Generic - 12"',$,$,(#507),$,'441449',$,.FLOOR.);
#489=IFCMATERIAL('Default Floor',$,'Miscellaneous');
#490=IFCSTYLEDITEM($,(#483),$);
#491=IFCSTYLEDREPRESENTATION(#22,'Style','Material',(#490));
#492=IFCMATERIALDEFINITIONREPRESENTATION($,$,(#491),#489);
#493=IFCMATERIALLAYER(#489,304.80000000000001,$,'Layer',$,'Miscellaneous',$);
#494=IFCMATERIALLAYERSET((#493),'Floor:Generic - 12"',$);
#495=IFCMATERIALLAYERSETUSAGE(#494,.AXIS3.,.POSITIVE.,0.,$);
#496=IFCPROPERTYSINGLEVALUE('Reference',$,IFCIDENTIFIER('Generic - 12"'),$);
#497=IFCPROPERTYSET('3mrwFTtEdKsSiY3IGk3gpY',#18,'Pset_EnvironmentalImpactIndicators',$,(#496));
#498=IFCPROPERTYSINGLEVALUE('Reference',$,IFCLABEL('Generic - 12"'),$);
#499=IFCPROPERTYSET('0xTPq3rs32SvMmqChXGjxL',#18,'Pset_ReinforcementBarPitchOfSlab',$,(#498));
#500=IFCPROPERTYSINGLEVALUE('PitchAngle',$,IFCPLANEANGLEMEASURE(0.),$);
#501=IFCPROPERTYSET('3wko0GQwYGt3yBQWr2qHwd',#18,'Pset_SlabCommon',$,(#45,#224,#496,#500));
#502=IFCRELDEFINESBYPROPERTIES('0z9CfEoLTDAAj2hDzWAD74',#18,$,$,(#487),#497);
#503=IFCRELDEFINESBYPROPERTIES('0g4TnIVCHLqD0ZwgkXVq1d',#18,$,$,(#487),#499);
#504=IFCRELDEFINESBYPROPERTIES('3BHrDQGmWHtgR$Bb2joYpq',#18,$,$,(#487),#501);
#505=IFCCLASSIFICATIONREFERENCE('https://www.csiresources.org/standards/uniformat','B1010','Floor Construction',#28,'',$);
#506=IFCPROPERTYSINGLEVALUE('Description',$,IFCTEXT('Generic Floor (Material By Category), 12" thick'),$);
#507=IFCPROPERTYSET('08jeqqdMvr9oQ2sJw84keo',#18,'Pset_ReinforcementBarPitchOfSlab',$,(#506));
#508=IFCAXIS2PLACEMENT3D(#3,$,$);
#509=IFCLOCALPLACEMENT(#38,#508);
#510=IFCCARTESIANPOINT((-4266.6666666666697,-2700.));
#511=IFCCARTESIANPOINT((3833.3333333333549,-2700.));
#512=IFCCARTESIANPOINT((3833.3333333333499,300.));
#513=IFCCARTESIANPOINT((433.33333333332519,300.));
#514=IFCCARTESIANPOINT((433.3333333333216,2400.));
#515=IFCCARTESIANPOINT((-4266.6666666666779,2400.));
#516=IFCPOLYLINE((#510,#511,#512,#513,#514,#515,#510));
#517=IFCARBITRARYCLOSEDPROFILEDEF(.AREA.,$,#516);
#518=IFCCARTESIANPOINT((2700.,4266.6666666666652,0.));
#519=IFCAXIS2PLACEMENT3D(#518,#10,#7);
#520=IFCEXTRUDEDAREASOLID(#517,#519,#9,304.80000000000001);
#521=IFCSTYLEDITEM(#520,(#483),$);
#522=IFCSHAPEREPRESENTATION(#24,'Body','SweptSolid',(#520));
#523=IFCPRODUCTDEFINITIONSHAPE($,$,(#522));
#524=IFCSLAB('1NO2FmQyX8Dx48Vy4bqK2W',#18,'Floor:Generic - 12":1602972',$,'Floor:Generic - 12"',#509,#523,'1602972',.FLOOR.);
#525=IFCMATERIALLAYERSETUSAGE(#494,.AXIS3.,.POSITIVE.,0.,$);
#526=IFCPROPERTYSET('21pRGiEA9M0CSal06ch$K$',#18,'Pset_EnvironmentalImpactIndicators',$,(#496));
#527=IFCPROPERTYSINGLEVALUE('Reference',$,IFCLABEL('Generic - 12"'),$);
#528=IFCPROPERTYSET('3h9BQoYZm27dJ98NzHxaU_',#18,'Pset_ReinforcementBarPitchOfSlab',$,(#527));
#529=IFCPROPERTYSET('3$NEWDWFNAGrJ$SpYuOp4H',#18,'Pset_SlabCommon',$,(#45,#224,#496,#500));
#530=IFCRELDEFINESBYPROPERTIES('3pnO$8EXeCrI95aOksOV3L',#18,$,$,(#524),#526);
#531=IFCRELDEFINESBYPROPERTIES('1bdl8XCqmDJRPPdnhK8HLY',#18,$,$,(#524),#528);
#532=IFCRELDEFINESBYPROPERTIES('0BByF0gG_u8A1pIzno$Can',#18,$,$,(#524),#529);
#533=IFCAXIS2PLACEMENT3D(#3,$,$);
#534=IFCLOCALPLACEMENT(#38,#533);
#535=IFCCARTESIANPOINT((433.33333333332922,-2266.6666666666665));
#536=IFCCARTESIANPOINT((3833.3333333333535,-2266.6666666666665));
#537=IFCCARTESIANPOINT((3833.3333333333462,2433.3333333333339));
#538=IFCCARTESIANPOINT((-4266.6666666666779,2433.3333333333339));
#539=IFCCARTESIANPOINT((-4266.6666666666733,-166.66666666666637));
#540=IFCCARTESIANPOINT((433.33333333332553,-166.66666666666626));
#541=IFCPOLYLINE((#535,#536,#537,#538,#539,#540,#535));
#542=IFCARBITRARYCLOSEDPROFILEDEF(.AREA.,$,#541);
#543=IFCCARTESIANPOINT((5266.6666666666733,4266.666666666657,0.));
#544=IFCAXIS2PLACEMENT3D(#543,#10,#7);
#545=IFCEXTRUDEDAREASOLID(#542,#544,#9,304.80000000000001);
#546=IFCSTYLEDITEM(#545,(#483),$);
#547=IFCSHAPEREPRESENTATION(#24,'Body','SweptSolid',(#545));
#548=IFCPRODUCTDEFINITIONSHAPE($,$,(#547));
#549=IFCSLAB('1NO2FmQyX8Dx48Vy4bqK9m',#18,'Floor:Generic - 12":1603404',$,'Floor:Generic - 12"',#534,#548,'1603404',.FLOOR.);
#550=IFCMATERIALLAYERSETUSAGE(#494,.AXIS3.,.POSITIVE.,0.,$);
#551=IFCPROPERTYSET('1i46h7s3SPwtVmzcYeb3wq',#18,'Pset_EnvironmentalImpactIndicators',$,(#496));
#552=IFCPROPERTYSINGLEVALUE('Reference',$,IFCLABEL('Generic - 12"'),$);
#553=IFCPROPERTYSET('0KDA$Bp9htln5wQq_smXUh',#18,'Pset_ReinforcementBarPitchOfSlab',$,(#552));
#554=IFCPROPERTYSET('0HslAr$_pu6a48xZH8dUOO',#18,'Pset_SlabCommon',$,(#45,#224,#496,#500));
#555=IFCRELDEFINESBYPROPERTIES('0MvDbHtfJfZcGmCbYhq3Yw',#18,$,$,(#549),#551);
#556=IFCRELDEFINESBYPROPERTIES('021s4EtJ4TXgaFGjsY2cj4',#18,$,$,(#549),#553);
#557=IFCRELDEFINESBYPROPERTIES('1QSVuOYnwSr5AB23mOiXly',#18,$,$,(#549),#554);
#558=IFCPROPERTYSINGLEVALUE('Reference',$,IFCIDENTIFIER('8mm Head'),$);
#559=IFCPROPERTYSINGLEVALUE('AboveGround',$,IFCLOGICAL(.U.),$);
#560=IFCPROPERTYSET('16L50AfyZF4hYq5TGET4H4',#18,'Pset_BuildingStoreyCommon',$,(#558,#559));
#561=IFCPROPERTYSET('2J7ac_h5ujdwWuzVwBIIta',#18,'Pset_SpaceCommon',$,(#45,#558));
#562=IFCRELDEFINESBYPROPERTIES('2VdfSfkgzGoZi_3SgzE8$0',#18,$,$,(#35),#560);
#563=IFCRELDEFINESBYPROPERTIES('3$YdOpA8iaPobC8MDiWxoI',#18,$,$,(#35),#561);
#564=IFCRELCONTAINEDINSPATIALSTRUCTURE('2JF4e6axWHqu3u0C5FZlmi',#18,$,$,(#211,#271,#304,#351,#387,#432,#465,#487),#35);
#565=IFCPROPERTYSET('1n34enW33Z_3Qq2Pm1kjQZ',#18,'Pset_BuildingStoreyCommon',$,(#558,#559));
#566=IFCPROPERTYSET('0qNc4$IaPwTvoqOd7IlIE4',#18,'Pset_SpaceCommon',$,(#45,#558));
#567=IFCRELDEFINESBYPROPERTIES('36oM8gyLQ5_Z6XoGK5uP1E',#18,$,$,(#39),#565);
#568=IFCRELDEFINESBYPROPERTIES('0jA6Vdz$3CfPvu_I1iTL6J',#18,$,$,(#39),#566);
#569=IFCRELCONTAINEDINSPATIALSTRUCTURE('1ZGO8hrFCHqw0v0066FpFv',#18,$,$,(#524,#549),#39);
#570=IFCRELAGGREGATES('2KFB6YYWgXBmucZ8cm7uCP',#18,$,$,#27,(#42));
#571=IFCRELAGGREGATES('16_hfJTeCqU7LcG8m10BTS',#18,$,$,#42,(#32));
#572=IFCRELAGGREGATES('2JF4e6axWHqu3u0C9FZlmi',#18,$,$,#35,(#93,#116,#133,#172));
#573=IFCRELAGGREGATES('1yhDISh1T5aQqAoygxGIhP',#18,$,$,#32,(#35,#39));
#574=IFCPROPERTYSINGLEVALUE('NumberOfStoreys',$,IFCCOUNTMEASURE(2),$);
#575=IFCPROPERTYSINGLEVALUE('IsLandmarked',$,IFCLOGICAL(.U.),$);
#576=IFCPROPERTYSET('01y_GmllCupEYuBgfGbhkd',#18,'Pset_BuildingCommon',$,(#43,#574,#575));
#577=IFCPROPERTYSET('1rUR7OGyIAkZT62xvibLnd',#18,'Pset_BuildingElementProxyCommon',$,(#43,#45));
#578=IFCPROPERTYSET('2kFDjjfIaTsBi7MLK$i$Me',#18,'Pset_BuildingStoreyCommon',$,(#43,#559));
#579=IFCPROPERTYSET('1TYvb3FgH88mtl04iE5P1T',#18,'Pset_BuildingSystemCommon',$,(#43));
#580=IFCPROPERTYSET('2W94HCj5xfigmNGtkBMklk',#18,'Pset_SpaceCommon',$,(#43,#45));
#581=IFCRELDEFINESBYPROPERTIES('0vDjba2fshDEh0_KufwWht',#18,$,$,(#32),#576);
#582=IFCRELDEFINESBYPROPERTIES('1V6UQfELB4oPy3GPEaJMPw',#18,$,$,(#32),#577);
#583=IFCRELDEFINESBYPROPERTIES('0Vpd75HttOMIhzXutBGgCt',#18,$,$,(#32),#578);
#584=IFCRELDEFINESBYPROPERTIES('22VMRBFW9n6_S81yWIP225',#18,$,$,(#32),#579);
#585=IFCRELDEFINESBYPROPERTIES('2w3bzVlKnfBVjA3_BjG2II',#18,$,$,(#32),#580);
#586=IFCRELASSOCIATESMATERIAL('3MxUj7x09Qi02RHG49Ykix',#18,$,$,(#487),#495);
#587=IFCRELASSOCIATESMATERIAL('1MhwS9m0zQxA7CvRV2R6XQ',#18,$,$,(#524),#525);
#588=IFCRELASSOCIATESMATERIAL('3ALSy3KLl60GFBLDjHBZZD',#18,$,$,(#549),#550);
#589=IFCRELASSOCIATESMATERIAL('22T9r9KB1F3JFgePfxkUGp',#18,$,$,(#211,#218,#271,#304,#351,#387,#432,#465),#217);
#590=IFCRELASSOCIATESMATERIAL('0RkFpO4y91A56i7kETvvWZ',#18,$,$,(#488),#494);
#591=IFCRELDEFINESBYTYPE('0JdjezzMIlIvixrtf6pHxY',#18,$,$,(#93),#94);
#592=IFCRELDEFINESBYTYPE('3G1mVd269BjTZDPBR_Hu$r',#18,$,$,(#116),#117);
#593=IFCRELDEFINESBYTYPE('2v$fNUorBqpRD0e3xhQU6W',#18,$,$,(#133),#134);
#594=IFCRELDEFINESBYTYPE('2qjz9J6rMDE64Oz8md4HAf',#18,$,$,(#172),#173);
#595=IFCRELDEFINESBYTYPE('0MSq_ijuC5q4PUKv4QkOsA',#18,$,$,(#211,#271,#304,#351,#387,#432,#465),#218);
#596=IFCRELDEFINESBYTYPE('3AVJtbOHyTnujdziMMd$qq',#18,$,$,(#487,#524,#549),#488);
#597=IFCRELCONNECTSPATHELEMENTS('3ugK07sTRHPQgCANXzjPel',#18,'3Vyqk8cSj8TOuAk6zHUwAt|3Vyqk8cSj8TOuAk6zHUwNQ','Structural',$,#211,#432,(),(),.ATEND.,.ATSTART.);
#598=IFCRELCONNECTSPATHELEMENTS('23XeiboBqsTJYQlvX$RKBJ',#18,'3Vyqk8cSj8TOuAk6zHUwAt|3Vyqk8cSj8TOuAk6zHUwAc','Structural',$,#211,#271,(),(),.ATSTART.,.ATEND.);
#599=IFCRELCONNECTSPATHELEMENTS('3w3LufOHNrl72DM5FS5dUv',#18,'3Vyqk8cSj8TOuAk6zHUwAc|3Vyqk8cSj8TOuAk6zHUwMJ','Structural',$,#271,#387,(),(),.ATSTART.,.ATEND.);
#600=IFCRELCONNECTSPATHELEMENTS('3w2mhh8$Qd3TKIO$dCpCi4',#18,'3Vyqk8cSj8TOuAk6zHUwAc|3Vyqk8cSj8TOuAk6zHUwBs','Structural',$,#271,#304,(),(),.ATSTART.,.ATPATH.);
#601=IFCRELCONNECTSPATHELEMENTS('0_q_49R4Mso9ITEEZ476Ni',#18,'3Vyqk8cSj8TOuAk6zHUwBs|3Vyqk8cSj8TOuAk6zHUw89','Structural',$,#304,#351,(),(),.ATPATH.,.ATEND.);
#602=IFCRELCONNECTSPATHELEMENTS('2KmZM0_8Zn2586TzeqsUBp',#18,'3Vyqk8cSj8TOuAk6zHUw89|3Vyqk8cSj8TOuAk6zHUwMJ','Structural',$,#351,#387,(),(),.ATPATH.,.ATSTART.);
#603=IFCRELCONNECTSPATHELEMENTS('2mY4QFmqb2w1o1jMYZEnVH',#18,'3Vyqk8cSj8TOuAk6zHUwAt|3Vyqk8cSj8TOuAk6zHUw89','Structural',$,#211,#351,(),(),.ATEND.,.ATPATH.);
#604=IFCRELCONNECTSPATHELEMENTS('0LaT41zAAAo8nacED5QZkK',#18,'3Vyqk8cSj8TOuAk6zHUwMJ|3Vyqk8cSj8TOuAk6zHUwNQ','Structural',$,#387,#432,(),(),.ATSTART.,.ATEND.);
#605=IFCRELCONNECTSPATHELEMENTS('0NATxMS28PE$Ik$khM$Tla',#18,'3Vyqk8cSj8TOuAk6zHUw89|3Vyqk8cSj8TOuAk6zHUwIV','Structural',$,#351,#465,(),(),.ATSTART.,.ATPATH.);
#606=IFCRELCONNECTSPATHELEMENTS('3QFR4dIqUEv2wepHC$0Iqu',#18,'3Vyqk8cSj8TOuAk6zHUwNQ|3Vyqk8cSj8TOuAk6zHUwIV','Structural',$,#432,#465,(),(),.ATEND.,.ATPATH.);
#607=IFCPRESENTATIONLAYERASSIGNMENT('A-AREA-____-OTLN',$,(#90,#114,#131,#170),$);
#608=IFCPRESENTATIONLAYERASSIGNMENT('A-WALL-____-OTLN',$,(#184,#209,#238,#269,#284,#302,#317,#349,#364,#385,#400,#430,#445,#463),$);
#609=IFCPRESENTATIONLAYERASSIGNMENT('A-FLOR-____-OTLN',$,(#485,#522,#547),$);
#610=IFCRELASSOCIATESCLASSIFICATION('2mNchzfGWDr_AK3qpy_v$I',#18,'Exterior Walls','Exterior Walls:B2010',(#211,#271,#304,#351,#387,#432,#465),#230);
#611=IFCRELASSOCIATESCLASSIFICATION('1YpTxej1pxaV15vA5h7rUf',#18,'Floor Construction','Floor Construction:B1010',(#487,#524,#549),#505);
#612=IFCUNITASSIGNMENT((#19,#92,#113));
ENDSEC;

END-ISO-10303-21;