ISO-10303-21;
HEADER;
FILE_DESCRIPTION(('ViewDefinition [CoordinationView]','RevitIdentifiers [ContentGUID: cbb0ae2e-6350-4225-8ca4-af668662c38d, VersionGUID: da0e4982-b96b-49c1-ba93-e9f7aec6baca, NumberOfSaves: 21]','CoordinateReference [CoordinateBase: Shared Coordinates]'),'2;1');
FILE_NAME('01_013.ifc','2026-01-06T12:07:01+01:00',(''),(''),'ODA SDAI 24.6','Autodesk Revit 24.3.30.11 (ENU) - IFC 24.3.30.11','');
FILE_SCHEMA(('IFC4X3'));
ENDSEC;
DATA;
#1=IFCORGANIZATION($,'Autodesk Revit 2024 (ENU)',$,$,$);
#2=IFCAPPLICATION(#1,'2024','Autodesk Revit 2024 (ENU)','Revit');
#3=IFCCARTESIANPOINT((6.,0.,0.));
#4=IFCCARTESIANPOINT((0.,0.));
#5=IFCDIRECTION((1.,0.,0.));
#6=IFCDIRECTION((-1.,0.,0.));
#7=IFCDIRECTION((0.,1.,0.));
#8=IFCDIRECTION((0.,-1.,0.));
#9=IFCDIRECTION((0.,0.,1.));
#10=IFCDIRECTION((0.,0.,-1.));
#11=IFCDIRECTION((1.,0.));
#12=IFCDIRECTION((-1.,0.));
#13=IFCDIRECTION((0.,1.));
#14=IFCDIRECTION((0.,-1.));
#15=IFCPERSON($,'','h.helming',$,$,$,$,$);
#16=IFCORGANIZATION($,'Organization Name','Organization Description',$,$);
#17=IFCPERSONANDORGANIZATION(#15,#16,$);
#18=IFCOWNERHISTORY(#17,#2,$,.NOCHANGE.,$,$,$,1767617633);
#19=IFCSIUNIT(*,.LENGTHUNIT.,.MILLI.,.METRE.);
#20=IFCAXIS2PLACEMENT3D(#3,$,$);
#21=IFCDIRECTION((6.12303176911189E-17,1.));
#22=IFCGEOMETRICREPRESENTATIONCONTEXT($,'Model',3,0.01,#20,#21);
#23=IFCGEOMETRICREPRESENTATIONSUBCONTEXT('Axis','Model',*,*,*,*,#22,$,.GRAPH_VIEW.,$);
#24=IFCGEOMETRICREPRESENTATIONSUBCONTEXT('Body','Model',*,*,*,*,#22,$,.MODEL_VIEW.,$);
#25=IFCGEOMETRICREPRESENTATIONSUBCONTEXT('Box','Model',*,*,*,*,#22,$,.MODEL_VIEW.,$);
#26=IFCGEOMETRICREPRESENTATIONSUBCONTEXT('FootPrint','Model',*,*,*,*,#22,$,.MODEL_VIEW.,$);
#27=IFCPROJECT('3BiAukOr129OoahsPvdJnz',#18,'Project Number',$,$,'Project Name','Project Status',(#22),#1062);
#28=IFCCLASSIFICATION('CSI (Construction Specifications Institute)','1998',$,'Uniformat','UniFormat Classification','https://www.csiresources.org/standards/uniformat',$);
#29=IFCAXIS2PLACEMENT3D(#3,$,$);
#30=IFCLOCALPLACEMENT(#41,#29);
#31=IFCPOSTALADDRESS($,$,$,$,('Enter address hereAddress Line 2'),$,'','Boston','','MA');
#32=IFCBUILDING('3BiAukOr129OoahsPvdJny',#18,'Building Name',$,$,#30,$,'Building Name',.ELEMENT.,$,$,#31);
#33=IFCAXIS2PLACEMENT3D(#3,$,$);
#34=IFCLOCALPLACEMENT(#30,#33);
#35=IFCBUILDINGSTOREY('2JF4e6axWHqu3u0C1FZlmi',#18,'L1',$,'Level:8mm Head',#34,$,'L1',.ELEMENT.,0.);
#36=IFCCARTESIANPOINT((0.,0.,3000.));
#37=IFCAXIS2PLACEMENT3D(#36,$,$);
#38=IFCLOCALPLACEMENT(#30,#37);
#39=IFCBUILDINGSTOREY('1ZGO8hrFCHqw0v0026FpFv',#18,'L2',$,'Level:8mm Head',#38,$,'L2',.ELEMENT.,3000.);
#40=IFCAXIS2PLACEMENT3D(#3,$,$);
#41=IFCLOCALPLACEMENT($,#40);
#42=IFCSITE('3BiAukOr129OoahsPvdJn$',#18,'Default',$,$,#41,$,$,.ELEMENT.,(42,21,31,401672),(-71,-3,-24,-345703),0.,$,$);
#43=IFCPROPERTYSINGLEVALUE('Reference',$,IFCIDENTIFIER('Project Information'),$);
#44=IFCPROPERTYSET('2mFJcO6I01h0OYRLOICO3c',#18,'Pset_SiteCommon',$,(#43));
#45=IFCPROPERTYSINGLEVALUE('IsExternal',$,IFCBOOLEAN(.F.),$);
#46=IFCPROPERTYSET('0O$B2PbAODr9jYnpcaZGJT',#18,'Pset_SpaceCommon',$,(#43,#45));
#47=IFCRELDEFINESBYPROPERTIES('2fDrcjst0HFayqQ3dY1cGQ',#18,$,$,(#42),#44);
#48=IFCRELDEFINESBYPROPERTIES('1lYkP70lXSGXnZeJnLC8MY',#18,$,$,(#42),#46);
#55=IFCCARTESIANPOINT((0.,2600.,0.));
#56=IFCAXIS2PLACEMENT3D(#55,$,$);
#57=IFCLOCALPLACEMENT(#34,#56);
#58=IFCCARTESIANPOINT((10100.,0.));
#59=IFCPOLYLINE((#4,#58));
#60=IFCSHAPEREPRESENTATION(#23,'Axis','Curve2D',(#59));
#61=IFCSIUNIT(*,.AREAUNIT.,$,.SQUARE_METRE.);
#62=IFCCARTESIANPOINT((5050.,5.6843418860808E-14));
#63=IFCAXIS2PLACEMENT2D(#62,#12);
#64=IFCRECTANGLEPROFILEDEF(.AREA.,$,#63,10100.,200.);
#65=IFCAXIS2PLACEMENT3D(#3,$,$);
#66=IFCEXTRUDEDAREASOLID(#64,#65,#9,3000.);
#67=IFCCOLOURRGB($,0.752941176470588,0.752941176470588,0.752941176470588);
#68=IFCSURFACESTYLERENDERING(#67,0.,$,$,$,$,IFCNORMALISEDRATIOMEASURE(0.5),IFCSPECULAREXPONENT(10.),.NOTDEFINED.);
#69=IFCSURFACESTYLE('Default Wall',.BOTH.,(#68));
#70=IFCSTYLEDITEM(#66,(#69),$);
#71=IFCSHAPEREPRESENTATION(#24,'Body','SweptSolid',(#66));
#72=IFCPRODUCTDEFINITIONSHAPE($,$,(#60,#71));
#73=IFCWALL('2KbOAL4v52mv2YJ6fTqlOA',#18,'Basic Wall:Generic - 200mm:1602307',$,'Basic Wall:Generic - 200mm',#57,#72,'1602307',.NOTDEFINED.);
#74=IFCMATERIAL('Default Wall',$,'Miscellaneous');
#75=IFCSTYLEDITEM($,(#69),$);
#76=IFCSTYLEDREPRESENTATION(#22,'Style','Material',(#75));
#77=IFCMATERIALDEFINITIONREPRESENTATION($,$,(#76),#74);
#78=IFCMATERIALLAYER(#74,200.,$,'Layer',$,'Miscellaneous',$);
#79=IFCMATERIALLAYERSET((#78),'Basic Wall:Generic - 200mm',$);
#80=IFCWALLTYPE('1xZrMVYp52mhf4uMzw11Hk',#18,'Basic Wall:Generic - 200mm',$,$,(#94),$,'441451',$,.STANDARD.);
#81=IFCPROPERTYSINGLEVALUE('Reference',$,IFCIDENTIFIER('Generic - 200mm'),$);
#82=IFCPROPERTYSET('3KQ0pyS8hVkjlcC9H2OfNS',#18,'Pset_EnvironmentalImpactIndicators',$,(#81));
#83=IFCPROPERTYSINGLEVALUE('Reference',$,IFCLABEL('Generic - 200mm'),$);
#84=IFCPROPERTYSET('00MO2FFqdl0le02JdrcJD_',#18,'Pset_ReinforcementBarPitchOfWall',$,(#83));
#85=IFCPROPERTYSINGLEVALUE('IsExternal',$,IFCBOOLEAN(.T.),$);
#86=IFCPROPERTYSINGLEVALUE('LoadBearing',$,IFCBOOLEAN(.F.),$);
#87=IFCPROPERTYSINGLEVALUE('ExtendToStructure',$,IFCBOOLEAN(.F.),$);
#88=IFCPROPERTYSET('0ZzlsUVYt$TIGnn3JH_bml',#18,'Pset_WallCommon',$,(#81,#85,#86,#87));
#89=IFCRELDEFINESBYPROPERTIES('3QPWgbaRoqL1czw4YLpgvm',#18,$,$,(#73),#82);
#90=IFCRELDEFINESBYPROPERTIES('3O5Gg4Mlb0aG_GIwE62tFX',#18,$,$,(#73),#84);
#91=IFCRELDEFINESBYPROPERTIES('2hUbEc5AbUz_b4jY7g3evU',#18,$,$,(#73),#88);
#92=IFCCLASSIFICATIONREFERENCE('https://www.csiresources.org/standards/uniformat','B2010','Exterior Walls',#28,'',$);
#93=IFCPROPERTYSINGLEVALUE('Description',$,IFCTEXT('Generic Wall (Material By Category), 200mm thick'),$);
#94=IFCPROPERTYSET('2L7lvTstnIeeydfwzfZZLR',#18,'Pset_ReinforcementBarPitchOfWall',$,(#93));
#95=IFCCARTESIANPOINT((600.,104.749999999978,1500.));
#96=IFCCARTESIANPOINT((600.,219.049999999994,1500.));
#97=IFCCARTESIANPOINT((0.,219.049999999996,1500.));
#98=IFCCARTESIANPOINT((0.,104.74999999998,1500.));
#99=IFCPOLYLOOP((#95,#96,#97,#98));
#100=IFCFACEOUTERBOUND(#99,.T.);
#101=IFCFACE((#100));
#102=IFCCARTESIANPOINT((0.,219.049999999996,0.));
#103=IFCCARTESIANPOINT((0.,104.74999999998,0.));
#104=IFCPOLYLOOP((#98,#97,#102,#103));
#105=IFCFACEOUTERBOUND(#104,.T.);
#106=IFCFACE((#105));
#107=IFCCARTESIANPOINT((600.,219.049999999994,0.));
#108=IFCCARTESIANPOINT((600.,104.749999999978,0.));
#109=IFCPOLYLOOP((#103,#102,#107,#108));
#110=IFCFACEOUTERBOUND(#109,.T.);
#111=IFCFACE((#110));
#112=IFCCARTESIANPOINT((568.250000000064,104.749999999978,1468.25000000007));
#113=IFCCARTESIANPOINT((568.250000000064,104.749999999978,31.7499999999354));
#114=IFCCARTESIANPOINT((31.7499999999352,104.74999999998,31.7499999999354));
#115=IFCCARTESIANPOINT((31.7499999999352,104.74999999998,1468.25000000007));
#116=IFCPOLYLOOP((#98,#103,#108,#95));
#117=IFCFACEOUTERBOUND(#116,.T.);
#118=IFCPOLYLOOP((#112,#113,#114,#115));
#119=IFCFACEBOUND(#118,.T.);
#120=IFCFACE((#117,#119));
#121=IFCPOLYLOOP((#108,#107,#96,#95));
#122=IFCFACEOUTERBOUND(#121,.T.);
#123=IFCFACE((#122));
#124=IFCCARTESIANPOINT((12.6999999999989,219.049999999996,1487.30000000001));
#125=IFCCARTESIANPOINT((12.6999999999989,219.049999999996,12.6999999999986));
#126=IFCCARTESIANPOINT((587.300000000002,219.049999999994,12.6999999999987));
#127=IFCCARTESIANPOINT((587.300000000002,219.049999999994,1487.30000000001));
#128=IFCPOLYLOOP((#96,#107,#102,#97));
#129=IFCFACEOUTERBOUND(#128,.T.);
#130=IFCPOLYLOOP((#124,#125,#126,#127));
#131=IFCFACEBOUND(#130,.T.);
#132=IFCFACE((#129,#131));
#133=IFCCARTESIANPOINT((568.250000000065,168.249999999996,1468.25000000007));
#134=IFCCARTESIANPOINT((31.7499999999356,168.249999999998,1468.25000000007));
#135=IFCPOLYLOOP((#133,#112,#115,#134));
#136=IFCFACEOUTERBOUND(#135,.T.);
#137=IFCFACE((#136));
#138=IFCCARTESIANPOINT((587.300000000001,168.249999999996,1487.30000000001));
#139=IFCCARTESIANPOINT((12.6999999999992,168.249999999998,1487.30000000001));
#140=IFCPOLYLOOP((#127,#138,#139,#124));
#141=IFCFACEOUTERBOUND(#140,.T.);
#142=IFCFACE((#141));
#143=IFCCARTESIANPOINT((31.7499999999357,168.249999999998,31.7499999999357));
#144=IFCPOLYLOOP((#134,#115,#114,#143));
#145=IFCFACEOUTERBOUND(#144,.T.);
#146=IFCFACE((#145));
#147=IFCCARTESIANPOINT((12.699999999999,168.249999999998,12.699999999999));
#148=IFCPOLYLOOP((#124,#139,#147,#125));
#149=IFCFACEOUTERBOUND(#148,.T.);
#150=IFCFACE((#149));
#151=IFCCARTESIANPOINT((568.250000000064,168.249999999996,31.7499999999357));
#152=IFCPOLYLOOP((#143,#114,#113,#151));
#153=IFCFACEOUTERBOUND(#152,.T.);
#154=IFCFACE((#153));
#155=IFCCARTESIANPOINT((587.300000000001,168.249999999996,12.699999999999));
#156=IFCPOLYLOOP((#125,#147,#155,#126));
#157=IFCFACEOUTERBOUND(#156,.T.);
#158=IFCFACE((#157));
#159=IFCPOLYLOOP((#151,#113,#112,#133));
#160=IFCFACEOUTERBOUND(#159,.T.);
#161=IFCFACE((#160));
#162=IFCPOLYLOOP((#134,#143,#151,#133));
#163=IFCFACEBOUND(#162,.T.);
#164=IFCPOLYLOOP((#138,#155,#147,#139));
#165=IFCFACEOUTERBOUND(#164,.T.);
#166=IFCFACE((#163,#165));
#167=IFCPOLYLOOP((#126,#155,#138,#127));
#168=IFCFACEOUTERBOUND(#167,.T.);
#169=IFCFACE((#168));
#170=IFCCARTESIANPOINT((0.,0.,1500.));
#171=IFCCARTESIANPOINT((600.,0.,0.));
#172=IFCCARTESIANPOINT((600.,0.,1500.));
#173=IFCCARTESIANPOINT((587.29999999993,0.,1487.30000000005));
#174=IFCCARTESIANPOINT((587.29999999993,0.,12.7000000000069));
#175=IFCCARTESIANPOINT((12.6999999999097,0.,12.7000000000071));
#176=IFCCARTESIANPOINT((12.6999999999097,0.,1487.30000000005));
#177=IFCPOLYLOOP((#170,#3,#171,#172));
#178=IFCFACEOUTERBOUND(#177,.T.);
#179=IFCPOLYLOOP((#173,#174,#175,#176));
#180=IFCFACEBOUND(#179,.T.);
#181=IFCFACE((#178,#180));
#182=IFCCARTESIANPOINT((0.,104.75,1500.));
#183=IFCCARTESIANPOINT((600.,104.75,1500.));
#184=IFCCARTESIANPOINT((600.,104.75,0.));
#185=IFCCARTESIANPOINT((0.,104.75,0.));
#186=IFCCARTESIANPOINT((587.29999999993,104.75,1487.30000000005));
#187=IFCCARTESIANPOINT((12.6999999999097,104.75,1487.30000000005));
#188=IFCCARTESIANPOINT((12.6999999999097,104.75,12.7000000000071));
#189=IFCCARTESIANPOINT((587.29999999993,104.75,12.7000000000069));
#190=IFCPOLYLOOP((#182,#183,#184,#185));
#191=IFCFACEOUTERBOUND(#190,.T.);
#192=IFCPOLYLOOP((#186,#187,#188,#189));
#193=IFCFACEBOUND(#192,.T.);
#194=IFCFACE((#191,#193));
#195=IFCPOLYLOOP((#3,#170,#182,#185));
#196=IFCFACEOUTERBOUND(#195,.T.);
#197=IFCFACE((#196));
#198=IFCPOLYLOOP((#171,#3,#185,#184));
#199=IFCFACEOUTERBOUND(#198,.T.);
#200=IFCFACE((#199));
#201=IFCPOLYLOOP((#172,#171,#184,#183));
#202=IFCFACEOUTERBOUND(#201,.T.);
#203=IFCFACE((#202));
#204=IFCPOLYLOOP((#170,#172,#183,#182));
#205=IFCFACEOUTERBOUND(#204,.T.);
#206=IFCFACE((#205));
#207=IFCPOLYLOOP((#174,#173,#186,#189));
#208=IFCFACEOUTERBOUND(#207,.T.);
#209=IFCFACE((#208));
#210=IFCPOLYLOOP((#175,#174,#189,#188));
#211=IFCFACEOUTERBOUND(#210,.T.);
#212=IFCFACE((#211));
#213=IFCPOLYLOOP((#176,#175,#188,#187));
#214=IFCFACEOUTERBOUND(#213,.T.);
#215=IFCFACE((#214));
#216=IFCPOLYLOOP((#173,#176,#187,#186));
#217=IFCFACEOUTERBOUND(#216,.T.);
#218=IFCFACE((#217));
#219=IFCCARTESIANPOINT((561.899999999934,168.249999999996,38.1000000000032));
#220=IFCCARTESIANPOINT((561.899999999934,212.699999999996,38.1000000000031));
#221=IFCCARTESIANPOINT((38.0999999999055,212.699999999998,38.1000000000031));
#222=IFCCARTESIANPOINT((38.0999999999053,168.249999999998,38.1000000000032));
#223=IFCPOLYLOOP((#219,#220,#221,#222));
#224=IFCFACEOUTERBOUND(#223,.T.);
#225=IFCFACE((#224));
#226=IFCCARTESIANPOINT((587.299999999931,212.699999999996,12.7000000000066));
#227=IFCCARTESIANPOINT((587.29999999993,168.249999999996,12.7000000000066));
#228=IFCCARTESIANPOINT((12.6999999999088,168.249999999998,12.7000000000066));
#229=IFCCARTESIANPOINT((12.699999999909,212.699999999997,12.7000000000066));
#230=IFCPOLYLOOP((#226,#227,#228,#229));
#231=IFCFACEOUTERBOUND(#230,.T.);
#232=IFCFACE((#231));
#233=IFCCARTESIANPOINT((38.0999999999055,212.699999999998,1461.90000000006));
#234=IFCCARTESIANPOINT((38.0999999999053,168.249999999998,1461.90000000006));
#235=IFCPOLYLOOP((#222,#221,#233,#234));
#236=IFCFACEOUTERBOUND(#235,.T.);
#237=IFCFACE((#236));
#238=IFCCARTESIANPOINT((12.6999999999089,168.249999999998,1487.30000000005));
#239=IFCCARTESIANPOINT((12.699999999909,212.699999999997,1487.30000000005));
#240=IFCPOLYLOOP((#229,#228,#238,#239));
#241=IFCFACEOUTERBOUND(#240,.T.);
#242=IFCFACE((#241));
#243=IFCCARTESIANPOINT((561.899999999934,212.699999999996,1461.90000000006));
#244=IFCCARTESIANPOINT((561.899999999934,168.249999999996,1461.90000000006));
#245=IFCPOLYLOOP((#234,#233,#243,#244));
#246=IFCFACEOUTERBOUND(#245,.T.);
#247=IFCFACE((#246));
#248=IFCCARTESIANPOINT((587.299999999931,168.249999999996,1487.30000000005));
#249=IFCCARTESIANPOINT((587.29999999993,212.699999999996,1487.30000000005));
#250=IFCPOLYLOOP((#239,#238,#248,#249));
#251=IFCFACEOUTERBOUND(#250,.T.);
#252=IFCFACE((#251));
#253=IFCPOLYLOOP((#244,#243,#220,#219));
#254=IFCFACEOUTERBOUND(#253,.T.);
#255=IFCFACE((#254));
#256=IFCPOLYLOOP((#222,#234,#244,#219));
#257=IFCFACEBOUND(#256,.T.);
#258=IFCPOLYLOOP((#227,#248,#238,#228));
#259=IFCFACEOUTERBOUND(#258,.T.);
#260=IFCFACE((#257,#259));
#261=IFCPOLYLOOP((#249,#248,#227,#226));
#262=IFCFACEOUTERBOUND(#261,.T.);
#263=IFCFACE((#262));
#264=IFCPOLYLOOP((#229,#239,#249,#226));
#265=IFCFACEOUTERBOUND(#264,.T.);
#266=IFCPOLYLOOP((#220,#243,#233,#221));
#267=IFCFACEBOUND(#266,.T.);
#268=IFCFACE((#265,#267));
#269=IFCCARTESIANPOINT((561.899999999934,200.,1461.90000000005));
#270=IFCCARTESIANPOINT((38.0999999999053,200.,1461.90000000005));
#271=IFCCARTESIANPOINT((38.0999999999053,193.650000000109,1461.90000000005));
#272=IFCCARTESIANPOINT((561.899999999934,193.650000000109,1461.90000000005));
#273=IFCPOLYLOOP((#269,#270,#271,#272));
#274=IFCFACEOUTERBOUND(#273,.T.);
#275=IFCFACE((#274));
#276=IFCCARTESIANPOINT((561.899999999934,200.,38.0999999999961));
#277=IFCCARTESIANPOINT((38.0999999999053,200.,38.0999999999962));
#278=IFCPOLYLOOP((#270,#269,#276,#277));
#279=IFCFACEOUTERBOUND(#278,.T.);
#280=IFCFACE((#279));
#281=IFCCARTESIANPOINT((38.0999999999053,193.650000000109,38.0999999999962));
#282=IFCPOLYLOOP((#271,#270,#277,#281));
#283=IFCFACEOUTERBOUND(#282,.T.);
#284=IFCFACE((#283));
#285=IFCCARTESIANPOINT((561.899999999934,193.650000000109,38.0999999999962));
#286=IFCPOLYLOOP((#272,#271,#281,#285));
#287=IFCFACEOUTERBOUND(#286,.T.);
#288=IFCFACE((#287));
#289=IFCPOLYLOOP((#269,#272,#285,#276));
#290=IFCFACEOUTERBOUND(#289,.T.);
#291=IFCFACE((#290));
#292=IFCPOLYLOOP((#276,#285,#281,#277));
#293=IFCFACEOUTERBOUND(#292,.T.);
#294=IFCFACE((#293));
#295=IFCCARTESIANPOINT((38.0999999999054,180.949999999997,38.0999999999961));
#296=IFCCARTESIANPOINT((38.0999999999055,187.300000000092,38.0999999999961));
#297=IFCCARTESIANPOINT((561.899999999934,187.300000000092,38.0999999999961));
#298=IFCCARTESIANPOINT((561.899999999934,180.949999999997,38.0999999999961));
#299=IFCPOLYLOOP((#295,#296,#297,#298));
#300=IFCFACEOUTERBOUND(#299,.T.);
#301=IFCFACE((#300));
#302=IFCCARTESIANPOINT((561.899999999934,180.949999999997,1461.90000000005));
#303=IFCCARTESIANPOINT((38.0999999999054,180.949999999997,1461.90000000005));
#304=IFCPOLYLOOP((#302,#303,#295,#298));
#305=IFCFACEOUTERBOUND(#304,.T.);
#306=IFCFACE((#305));
#307=IFCCARTESIANPOINT((561.899999999934,187.300000000092,1461.90000000005));
#308=IFCPOLYLOOP((#307,#302,#298,#297));
#309=IFCFACEOUTERBOUND(#308,.T.);
#310=IFCFACE((#309));
#311=IFCCARTESIANPOINT((38.0999999999055,187.300000000092,1461.90000000005));
#312=IFCPOLYLOOP((#311,#307,#297,#296));
#313=IFCFACEOUTERBOUND(#312,.T.);
#314=IFCFACE((#313));
#315=IFCPOLYLOOP((#303,#311,#296,#295));
#316=IFCFACEOUTERBOUND(#315,.T.);
#317=IFCFACE((#316));
#318=IFCPOLYLOOP((#303,#302,#307,#311));
#319=IFCFACEOUTERBOUND(#318,.T.);
#320=IFCFACE((#319));
#321=IFCCLOSEDSHELL((#101,#106,#111,#120,#123,#132,#137,#142,#146,#150,#154,#158,#161,#166,#169));
#322=IFCFACETEDBREP(#321);
#323=IFCCOLOURRGB($,0.67843137254902,0.517647058823529,0.376470588235294);
#324=IFCSURFACESTYLERENDERING(#323,0.,$,$,$,$,IFCNORMALISEDRATIOMEASURE(0.5),IFCSPECULAREXPONENT(128.),.NOTDEFINED.);
#325=IFCSURFACESTYLE('Wood - Stained',.BOTH.,(#324));
#326=IFCSTYLEDITEM(#322,(#325),$);
#327=IFCCLOSEDSHELL((#181,#194,#197,#200,#203,#206,#209,#212,#215,#218));
#328=IFCFACETEDBREP(#327);
#329=IFCSTYLEDITEM(#328,(#325),$);
#330=IFCCLOSEDSHELL((#225,#232,#237,#242,#247,#252,#255,#260,#263,#268));
#331=IFCFACETEDBREP(#330);
#332=IFCSTYLEDITEM(#331,(#325),$);
#333=IFCCLOSEDSHELL((#275,#280,#284,#288,#291,#294));
#334=IFCFACETEDBREP(#333);
#335=IFCCOLOURRGB($,0.96078431372549,0.96078431372549,0.952941176470588);
#336=IFCSURFACESTYLERENDERING(#335,1.,$,$,$,$,IFCNORMALISEDRATIOMEASURE(0.5),IFCSPECULAREXPONENT(64.),.NOTDEFINED.);
#337=IFCSURFACESTYLE('Glass',.BOTH.,(#336));
#338=IFCSTYLEDITEM(#334,(#337),$);
#339=IFCCLOSEDSHELL((#301,#306,#310,#314,#317,#320));
#340=IFCFACETEDBREP(#339);
#341=IFCSTYLEDITEM(#340,(#337),$);
#342=IFCSHAPEREPRESENTATION(#24,'Body','Brep',(#322,#328,#331,#334,#340));
#343=IFCAXIS2PLACEMENT3D(#3,$,$);
#344=IFCREPRESENTATIONMAP(#343,#342);
#345=IFCWINDOWLININGPROPERTIES('2KbOAL4v52mv2YJ6jTqlOz',#18,'M_Window-Fixed:600 x 1500mm:1602356',$,$,$,$,$,$,$,$,$,$,$,$,$);
#346=IFCWINDOWTYPE('1rH_U2KFfREyB3OUpidX__',#18,'M_Window-Fixed:600 x 1500mm',$,$,(#345,#398),(#344),'1524693',$,.WINDOW.,.NOTDEFINED.,.F.,$);
#347=IFCMATERIAL('Wood - Stained',$,'Wood');
#348=IFCCOLOURRGB($,0.,0.,0.);
#349=IFCCURVESTYLEFONTPATTERN(211.582,1904.238);
#350=IFCCURVESTYLEFONT('Wood 1:1',(#349));
#351=IFCCURVESTYLE('Wood 1:1',#350,$,#348,$);
#352=IFCCARTESIANPOINT((1387.97788244437,1337.19829007417));
#353=IFCFILLAREASTYLEHATCHING(#351,IFCPOSITIVELENGTHMEASURE(84.6328),$,#352,216.8699);
#354=IFCCURVESTYLEFONTPATTERN(473.11183,473.11183);
#355=IFCCURVESTYLEFONT('Wood 1:2',(#354));
#356=IFCCURVESTYLE('Wood 1:2',#355,$,#348,$);
#357=IFCCARTESIANPOINT((-84.6326858105563,42.3159162143842));
#358=IFCFILLAREASTYLEHATCHING(#356,IFCPOSITIVELENGTHMEASURE(189.244859),$,#357,206.5651);
#359=IFCCURVESTYLEFONTPATTERN(267.632688,1070.529482);
#360=IFCCURVESTYLEFONT('Wood 1:3',(#359));
#361=IFCCURVESTYLE('Wood 1:3',#360,$,#348,$);
#362=IFCCARTESIANPOINT((-465.480602461083,-211.581226117823));
#363=IFCFILLAREASTYLEHATCHING(#361,IFCPOSITIVELENGTHMEASURE(133.8162932),$,#362,198.4349);
#364=IFCFILLAREASTYLE('Wood 1',(#353,#358,#363),$);
#365=IFCSTYLEDITEM($,(#325,#364),$);
#366=IFCSTYLEDREPRESENTATION(#22,'Style','Material and Cut Pattern',(#365));
#367=IFCMATERIALDEFINITIONREPRESENTATION($,$,(#366),#347);
#368=IFCMATERIAL('Glass',$,'Glass');
#369=IFCSTYLEDITEM($,(#337),$);
#370=IFCSTYLEDREPRESENTATION(#22,'Style','Material',(#369));
#371=IFCMATERIALDEFINITIONREPRESENTATION($,$,(#370),#368);
#372=IFCMATERIALCONSTITUENT('Frame/Mullion',$,#347,$,'Wood');
#373=IFCSHAPEREPRESENTATION(#24,'Body','Brep',(#322,#328,#331));
#374=IFCSHAPEASPECT((#373),'Frame/Mullion',$,.U.,#344);
#375=IFCMATERIALCONSTITUENT('Glass',$,#368,$,'Glass');
#376=IFCSHAPEREPRESENTATION(#24,'Body','Brep',(#334,#340));
#377=IFCSHAPEASPECT((#376),'Glass',$,.U.,#344);
#378=IFCMATERIALCONSTITUENTSET($,$,(#372,#375));
#379=IFCCARTESIANTRANSFORMATIONOPERATOR3D($,$,#3,1.,$);
#380=IFCMAPPEDITEM(#344,#379);
#381=IFCSHAPEREPRESENTATION(#24,'Body','MappedRepresentation',(#380));
#382=IFCPRODUCTDEFINITIONSHAPE($,$,(#381));
#383=IFCCARTESIANPOINT((3650.,2500.,900.));
#384=IFCAXIS2PLACEMENT3D(#383,$,$);
#386=IFCWINDOW('2KbOAL4v52mv2YJ6fTqlOz',#18,'M_Window-Fixed:600 x 1500mm:1602356',$,'M_Window-Fixed:600 x 1500mm',#1044,#382,'1602356',1500.,600.,.WINDOW.,.NOTDEFINED.,$);
#387=IFCMATERIALCONSTITUENT('Wood - Stained',$,#347,$,'Wood');
#388=IFCMATERIALCONSTITUENT('Glass',$,#368,$,'Glass');
#389=IFCMATERIALCONSTITUENTSET($,$,(#387,#388));
#390=IFCPROPERTYSINGLEVALUE('Reference',$,IFCIDENTIFIER('600 x 1500mm'),$);
#391=IFCPROPERTYSET('0zvzcj2g0k47l5Ptu$eNz0',#18,'Pset_EnvironmentalImpactIndicators',$,(#390));
#392=IFCPROPERTYSINGLEVALUE('FireRating',$,IFCLABEL('0.5h'),$);
#393=IFCPROPERTYSET('2CKFa8Qg6w8ozxvVD542pQ',#18,'Pset_WindowCommon',$,(#85,#390,#392));
#394=IFCRELDEFINESBYPROPERTIES('37ONexcbFeoJbowZC4UKBl',#18,$,$,(#386),#391);
#395=IFCRELDEFINESBYPROPERTIES('3aa2UWl333E2tInC9D0jc_',#18,$,$,(#386),#393);
#396=IFCCLASSIFICATIONREFERENCE('https://www.csiresources.org/standards/uniformat','B2020100','Windows',#28,'',$);
#397=IFCPROPERTYSINGLEVALUE('FireRating',$,IFCLABEL('0.5h'),$);
#398=IFCPROPERTYSET('0R3WyVkM6KSIXwposN7a9F',#18,'Pset_WindowCommon',$,(#397));
#399=IFCAXIS2PLACEMENT3D(#3,$,$);
#401=IFCCARTESIANPOINT((6.3500000000213,-6.3500000000303));
#402=IFCCARTESIANPOINT((711.899999999887,-6.3500000000303));
#403=IFCCARTESIANPOINT((711.899999999887,6.34999999996798));
#404=IFCCARTESIANPOINT((6.35000000003104,6.34999999996797));
#405=IFCCARTESIANPOINT((6.35000000003091,261.900000000015));
#406=IFCCARTESIANPOINT((-6.34999999996431,261.900000000015));
#407=IFCCARTESIANPOINT((-6.34999999996431,6.3499999999767));
#408=IFCCARTESIANPOINT((-711.899999999999,6.34999999997668));
#409=IFCCARTESIANPOINT((-711.899999999999,-6.35000000001263));
#410=IFCCARTESIANPOINT((-6.34999999997541,-6.35000000001263));
#411=IFCCARTESIANPOINT((-6.34999999997541,-261.899999999917));
#412=IFCCARTESIANPOINT((6.3500000000213,-261.899999999917));
#413=IFCPOLYLINE((#401,#402,#403,#404,#405,#406,#407,#408,#409,#410,#411,#412,#401));
#414=IFCARBITRARYCLOSEDPROFILEDEF(.AREA.,'M_Muntin Pattern_2x2',#413);
#415=IFCCARTESIANPOINT((0.,-22.2249999999994,711.899999999893));
#416=IFCAXIS2PLACEMENT3D(#415,#7,#9);
#417=IFCEXTRUDEDAREASOLID(#414,#416,#9,12.699999999996);
#418=IFCSIUNIT(*,.PLANEANGLEUNIT.,$,.RADIAN.);
#419=IFCDIMENSIONALEXPONENTS(0,0,0,0,0,0,0);
#420=IFCMEASUREWITHUNIT(IFCPLANEANGLEMEASURE(0.0174532925199433),#418);
#421=IFCCONVERSIONBASEDUNIT(#419,.PLANEANGLEUNIT.,'DEGREE',#420);
#422=IFCCARTESIANPOINT((6.35000000000993,-6.35000000002395));
#423=IFCCARTESIANPOINT((711.899999999987,-6.35000000002395));
#424=IFCCARTESIANPOINT((711.899999999987,6.34999999997425));
#425=IFCCARTESIANPOINT((6.35000000001223,6.34999999997425));
#426=IFCCARTESIANPOINT((6.35000000001209,261.900000000009));
#427=IFCCARTESIANPOINT((-6.34999999998719,261.900000000009));
#428=IFCCARTESIANPOINT((-6.34999999998719,6.34999999998274));
#429=IFCCARTESIANPOINT((-711.900000000032,6.34999999998274));
#430=IFCCARTESIANPOINT((-711.900000000032,-6.35000000001891));
#431=IFCCARTESIANPOINT((-6.34999999999057,-6.35000000001891));
#432=IFCCARTESIANPOINT((-6.34999999999057,-261.899999999923));
#433=IFCCARTESIANPOINT((6.35000000000993,-261.899999999923));
#434=IFCPOLYLINE((#422,#423,#424,#425,#426,#427,#428,#429,#430,#431,#432,#433,#422));
#435=IFCARBITRARYCLOSEDPROFILEDEF(.AREA.,'M_Muntin Pattern_2x2',#434);
#436=IFCCARTESIANPOINT((0.,9.52500000002024,711.90000000003));
#437=IFCAXIS2PLACEMENT3D(#436,#7,#9);
#438=IFCEXTRUDEDAREASOLID(#435,#437,#9,12.6999999999961);
#439=IFCCOLOURRGB($,0.96078431372549,0.96078431372549,0.952941176470588);
#440=IFCSURFACESTYLERENDERING(#439,0.,$,$,$,$,IFCNORMALISEDRATIOMEASURE(0.5),IFCSPECULAREXPONENT(128.),.NOTDEFINED.);
#441=IFCSURFACESTYLE('Clad - White',.BOTH.,(#440));
#442=IFCSTYLEDITEM(#417,(#441),$);
#443=IFCSTYLEDITEM(#438,(#325),$);
#444=IFCSHAPEREPRESENTATION(#24,'Body','SweptSolid',(#417,#438));
#445=IFCAXIS2PLACEMENT3D(#3,$,$);
#446=IFCREPRESENTATIONMAP(#445,#444);
#447=IFCBUILDINGELEMENTPROXYTYPE('11kJIqz$n2Jf_DfJV1SDaG',#18,'M_Muntin Pattern_2x2:M_Muntin Pattern_2x2',$,$,$,(#446),'1514602',$,.NOTDEFINED.);
#448=IFCMATERIAL('Clad - White',$,'Wood');
#449=IFCCOLOURRGB($,0.,0.,0.);
#450=IFCDRAUGHTINGPREDEFINEDCURVEFONT('continuous');
#451=IFCCURVESTYLE($,#450,$,#449,$);
#452=IFCFILLAREASTYLEHATCHING(#451,IFCPOSITIVELENGTHMEASURE(230.),$,#4,45.);
#453=IFCFILLAREASTYLE('Wood - Finish',(#452),$);
#454=IFCSTYLEDITEM($,(#441,#453),$);
#455=IFCSTYLEDREPRESENTATION(#22,'Style','Material and Cut Pattern',(#454));
#456=IFCMATERIALDEFINITIONREPRESENTATION($,$,(#455),#448);
#457=IFCMATERIALCONSTITUENT('Clad - White',$,#448,$,'Wood');
#458=IFCSHAPEREPRESENTATION(#24,'Body','SweptSolid',(#417));
#459=IFCSHAPEASPECT((#458),'Clad - White',$,.U.,#446);
#460=IFCMATERIALCONSTITUENT('Wood - Stained',$,#347,$,'Wood');
#461=IFCSHAPEREPRESENTATION(#24,'Body','SweptSolid',(#438));
#462=IFCSHAPEASPECT((#461),'Wood - Stained',$,.U.,#446);
#463=IFCMATERIALCONSTITUENTSET($,$,(#457,#460));
#464=IFCMAPPEDITEM(#446,#379);
#465=IFCSHAPEREPRESENTATION(#24,'Body','MappedRepresentation',(#464));
#466=IFCPRODUCTDEFINITIONSHAPE($,$,(#465));
#467=IFCCARTESIANPOINT((3950.,2690.47499999999,938.100000000037));
#468=IFCAXIS2PLACEMENT3D(#467,#9,#6);
#469=IFCLOCALPLACEMENT(#34,#468);
#470=IFCBUILDINGELEMENTPROXY('2KbOAL4v52mv2YJ6fTqlO_',#18,'M_Muntin Pattern_2x2:M_Muntin Pattern_2x2:1602359',$,'M_Muntin Pattern_2x2:M_Muntin Pattern_2x2',#469,#466,'1602359',.NOTDEFINED.);
#471=IFCMATERIALCONSTITUENT('Clad - White',$,#448,$,'Wood');
#472=IFCMATERIALCONSTITUENT('Wood - Stained',$,#347,$,'Wood');
#473=IFCMATERIALCONSTITUENTSET($,$,(#471,#472));
#474=IFCPROPERTYSINGLEVALUE('Reference',$,IFCIDENTIFIER('M_Muntin Pattern_2x2'),$);
#475=IFCPROPERTYSET('2Xfb2AyBT3Qgb1u$mmrz4Q',#18,'Pset_BuildingElementProxyCommon',$,(#45,#474));
#476=IFCPROPERTYSET('0Ir4COF2v1JWcTKBwZroUb',#18,'Pset_EnvironmentalImpactIndicators',$,(#474));
#477=IFCRELDEFINESBYPROPERTIES('02NOhXZdLFHZ5ZL03r_c9j',#18,$,$,(#470),#475);
#478=IFCRELDEFINESBYPROPERTIES('3iISwluK8dBMvH475VR95x',#18,$,$,(#470),#476);
#479=IFCAXIS2PLACEMENT3D(#3,$,$);
#481=IFCCARTESIANPOINT((-2.8421709430404E-14,1.36779476633819E-13));
#482=IFCAXIS2PLACEMENT2D(#481,#11);
#483=IFCRECTANGLEPROFILEDEF(.AREA.,'with Sill',#482,719.999999999999,60.0000000000002);
#484=IFCCARTESIANPOINT((0.,-1550.43237088473,0.));
#485=IFCAXIS2PLACEMENT3D(#484,#9,#6);
#486=IFCEXTRUDEDAREASOLID(#483,#485,#9,19.05);
#487=IFCCARTESIANPOINT((-19.0499999999924,-15.2395991020629));
#488=IFCCARTESIANPOINT((0.,-15.2395991020629));
#489=IFCCARTESIANPOINT((0.,-5.67196998677784));
#490=IFCCARTESIANPOINT((19.0499999999711,-5.67196998677784));
#491=IFCCARTESIANPOINT((19.0499999999711,14.7604008979359));
#492=IFCCARTESIANPOINT((0.,14.7604008979359));
#493=IFCCARTESIANPOINT((-19.0499999999924,12.3023363818102));
#494=IFCPOLYLINE((#487,#488,#489,#490,#491,#492,#493,#487));
#495=IFCARBITRARYCLOSEDPROFILEDEF(.AREA.,'with Sill',#494);
#496=IFCCARTESIANPOINT((-372.699999999993,-1514.76040089794,19.049999999973));
#497=IFCAXIS2PLACEMENT3D(#496,#5,#10);
#498=IFCEXTRUDEDAREASOLID(#495,#497,#9,745.400000000006);
#499=IFCCARTESIANPOINT((-795.,-360.));
#500=IFCCARTESIANPOINT((765.,-360.));
#501=IFCCARTESIANPOINT((765.,-300.));
#502=IFCCARTESIANPOINT((-735.,-300.));
#503=IFCCARTESIANPOINT((-735.,300.));
#504=IFCCARTESIANPOINT((765.,300.));
#505=IFCCARTESIANPOINT((765.,360.));
#506=IFCCARTESIANPOINT((-795.,360.));
#507=IFCPOLYLINE((#499,#500,#501,#502,#503,#504,#505,#506,#499));
#508=IFCARBITRARYCLOSEDPROFILEDEF(.AREA.,'with Sill',#507);
#509=IFCCARTESIANPOINT((0.,-735.,0.));
#510=IFCAXIS2PLACEMENT3D(#509,#9,#8);
#511=IFCEXTRUDEDAREASOLID(#508,#510,#9,19.05);
#512=IFCSTYLEDITEM(#486,(#441),$);
#513=IFCSTYLEDITEM(#498,(#441),$);
#514=IFCSTYLEDITEM(#511,(#441),$);
#515=IFCSHAPEREPRESENTATION(#24,'Body','SweptSolid',(#486,#498,#511));
#516=IFCAXIS2PLACEMENT3D(#3,$,$);
#517=IFCREPRESENTATIONMAP(#516,#515);
#518=IFCBUILDINGELEMENTPROXYTYPE('11kJIqz$n2Jf_DfJV1SDaV',#18,'M_Trim-Window-Exterior-Flat:with Sill',$,$,$,(#517),'1514612',$,.NOTDEFINED.);
#519=IFCMAPPEDITEM(#517,#379);
#520=IFCSHAPEREPRESENTATION(#24,'Body','MappedRepresentation',(#519));
#521=IFCPRODUCTDEFINITIONSHAPE($,$,(#520));
#522=IFCCARTESIANPOINT((3950.,2700.,2400.));
#523=IFCAXIS2PLACEMENT3D(#522,#7,#6);
#524=IFCLOCALPLACEMENT(#34,#523);
#525=IFCBUILDINGELEMENTPROXY('2KbOAL4v52mv2YJ6fTqlOn',#18,'M_Trim-Window-Exterior-Flat:with Sill:1602360',$,'M_Trim-Window-Exterior-Flat:with Sill',#524,#521,'1602360',.NOTDEFINED.);
#526=IFCPROPERTYSINGLEVALUE('Reference',$,IFCIDENTIFIER('with Sill'),$);
#527=IFCPROPERTYSET('3bDnI9ftZBdO$NyHcIy_yS',#18,'Pset_BuildingElementProxyCommon',$,(#45,#526));
#528=IFCPROPERTYSET('2fTyNcyOPxyRKIurDwrtpH',#18,'Pset_EnvironmentalImpactIndicators',$,(#526));
#529=IFCRELDEFINESBYPROPERTIES('0vDQOQ9w$Z9nIrdUxxa60e',#18,$,$,(#525),#527);
#530=IFCRELDEFINESBYPROPERTIES('0Yhu9NhqlJnP6XrZzrFanw',#18,$,$,(#525),#528);
#531=IFCAXIS2PLACEMENT3D(#3,$,$);
#533=IFCCARTESIANPOINT((-347.299999999999,-797.299999999994));
#534=IFCCARTESIANPOINT((347.299999999999,-797.299999999994));
#535=IFCCARTESIANPOINT((347.299999999999,797.299999999994));
#536=IFCCARTESIANPOINT((-347.299999999999,797.299999999994));
#537=IFCPOLYLINE((#533,#534,#535,#536,#533));
#538=IFCCARTESIANPOINT((-287.300000000002,-737.299999999992));
#539=IFCCARTESIANPOINT((-287.300000000002,737.299999999992));
#540=IFCCARTESIANPOINT((287.299999999998,737.299999999992));
#541=IFCCARTESIANPOINT((287.299999999998,-737.299999999992));
#542=IFCPOLYLINE((#538,#539,#540,#541,#538));
#543=IFCARBITRARYPROFILEDEFWITHVOIDS(.AREA.,'Picture Frame',#537,(#542));
#544=IFCCARTESIANPOINT((0.,-750.,0.));
#545=IFCAXIS2PLACEMENT3D(#544,#9,#6);
#546=IFCEXTRUDEDAREASOLID(#543,#545,#9,30.);
#547=IFCSTYLEDITEM(#546,(#325),$);
#548=IFCSHAPEREPRESENTATION(#24,'Body','SweptSolid',(#546));
#549=IFCAXIS2PLACEMENT3D(#3,$,$);
#550=IFCREPRESENTATIONMAP(#549,#548);
#551=IFCBUILDINGELEMENTPROXYTYPE('11kJIqz$n2Jf_DfJV1SDaU',#18,'M_Trim-Window-Interior-Flat:Picture Frame',$,$,$,(#550),'1514622',$,.NOTDEFINED.);
#552=IFCMAPPEDITEM(#550,#379);
#553=IFCSHAPEREPRESENTATION(#24,'Body','MappedRepresentation',(#552));
#554=IFCPRODUCTDEFINITIONSHAPE($,$,(#553));
#555=IFCCARTESIANPOINT((3950.,2500.,2400.));
#556=IFCAXIS2PLACEMENT3D(#555,#8,#5);
#557=IFCLOCALPLACEMENT(#34,#556);
#558=IFCBUILDINGELEMENTPROXY('2KbOAL4v52mv2YJ6fTqlOm',#18,'M_Trim-Window-Interior-Flat:Picture Frame:1602361',$,'M_Trim-Window-Interior-Flat:Picture Frame',#557,#554,'1602361',.NOTDEFINED.);
#559=IFCPROPERTYSINGLEVALUE('Reference',$,IFCIDENTIFIER('Picture Frame'),$);
#560=IFCPROPERTYSET('0k_ZxbzU0VNvKzKaoEDMGV',#18,'Pset_BuildingElementProxyCommon',$,(#45,#559));
#561=IFCPROPERTYSET('2$3q7loUcORuxnAEJ4Suon',#18,'Pset_EnvironmentalImpactIndicators',$,(#559));
#562=IFCRELDEFINESBYPROPERTIES('2KIDdSdKm_Ve9MZdaJ_4li',#18,$,$,(#558),#560);
#563=IFCRELDEFINESBYPROPERTIES('0Z0bekF8zSFdDZfcM9xCg1',#18,$,$,(#558),#561);
#564=IFCCARTESIANPOINT((1600.,104.749999999976,1500.));
#565=IFCCARTESIANPOINT((1600.,219.049999999993,1500.));
#566=IFCCARTESIANPOINT((0.,219.049999999998,1500.));
#567=IFCCARTESIANPOINT((0.,104.749999999982,1500.));
#568=IFCPOLYLOOP((#564,#565,#566,#567));
#569=IFCFACEOUTERBOUND(#568,.T.);
#570=IFCFACE((#569));
#571=IFCCARTESIANPOINT((0.,219.049999999998,0.));
#572=IFCCARTESIANPOINT((0.,104.749999999982,0.));
#573=IFCPOLYLOOP((#567,#566,#571,#572));
#574=IFCFACEOUTERBOUND(#573,.T.);
#575=IFCFACE((#574));
#576=IFCCARTESIANPOINT((1600.,219.049999999993,0.));
#577=IFCCARTESIANPOINT((1600.,104.749999999976,0.));
#578=IFCPOLYLOOP((#572,#571,#576,#577));
#579=IFCFACEOUTERBOUND(#578,.T.);
#580=IFCFACE((#579));
#581=IFCCARTESIANPOINT((1568.25000000006,104.749999999977,1468.25000000007));
#582=IFCCARTESIANPOINT((1568.25000000006,104.749999999977,31.7499999999359));
#583=IFCCARTESIANPOINT((31.7499999999359,104.749999999982,31.7499999999359));
#584=IFCCARTESIANPOINT((31.7499999999361,104.749999999982,1468.25000000007));
#585=IFCPOLYLOOP((#567,#572,#577,#564));
#586=IFCFACEOUTERBOUND(#585,.T.);
#587=IFCPOLYLOOP((#581,#582,#583,#584));
#588=IFCFACEBOUND(#587,.T.);
#589=IFCFACE((#586,#588));
#590=IFCPOLYLOOP((#577,#576,#565,#564));
#591=IFCFACEOUTERBOUND(#590,.T.);
#592=IFCFACE((#591));
#593=IFCCARTESIANPOINT((12.6999999999997,219.049999999997,1487.3));
#594=IFCCARTESIANPOINT((12.6999999999997,219.049999999997,12.6999999999991));
#595=IFCCARTESIANPOINT((1587.3,219.049999999993,12.6999999999993));
#596=IFCCARTESIANPOINT((1587.3,219.049999999993,1487.3));
#597=IFCPOLYLOOP((#565,#576,#571,#566));
#598=IFCFACEOUTERBOUND(#597,.T.);
#599=IFCPOLYLOOP((#593,#594,#595,#596));
#600=IFCFACEBOUND(#599,.T.);
#601=IFCFACE((#598,#600));
#602=IFCCARTESIANPOINT((1568.25000000006,168.249999999995,1468.25000000007));
#603=IFCCARTESIANPOINT((31.7499999999363,168.249999999999,1468.25000000007));
#604=IFCPOLYLOOP((#602,#581,#584,#603));
#605=IFCFACEOUTERBOUND(#604,.T.);
#606=IFCFACE((#605));
#607=IFCCARTESIANPOINT((1587.3,168.249999999995,1487.3));
#608=IFCCARTESIANPOINT((12.6999999999997,168.25,1487.3));
#609=IFCPOLYLOOP((#596,#607,#608,#593));
#610=IFCFACEOUTERBOUND(#609,.T.);
#611=IFCFACE((#610));
#612=IFCCARTESIANPOINT((31.7499999999365,168.249999999999,31.7499999999362));
#613=IFCPOLYLOOP((#603,#584,#583,#612));
#614=IFCFACEOUTERBOUND(#613,.T.);
#615=IFCFACE((#614));
#616=IFCCARTESIANPOINT((12.6999999999997,168.25,12.6999999999995));
#617=IFCPOLYLOOP((#593,#608,#616,#594));
#618=IFCFACEOUTERBOUND(#617,.T.);
#619=IFCFACE((#618));
#620=IFCCARTESIANPOINT((1568.25000000006,168.249999999995,31.7499999999362));
#621=IFCPOLYLOOP((#612,#583,#582,#620));
#622=IFCFACEOUTERBOUND(#621,.T.);
#623=IFCFACE((#622));
#624=IFCCARTESIANPOINT((1587.3,168.249999999995,12.6999999999995));
#625=IFCPOLYLOOP((#594,#616,#624,#595));
#626=IFCFACEOUTERBOUND(#625,.T.);
#627=IFCFACE((#626));
#628=IFCPOLYLOOP((#620,#582,#581,#602));
#629=IFCFACEOUTERBOUND(#628,.T.);
#630=IFCFACE((#629));
#631=IFCPOLYLOOP((#603,#612,#620,#602));
#632=IFCFACEBOUND(#631,.T.);
#633=IFCPOLYLOOP((#607,#624,#616,#608));
#634=IFCFACEOUTERBOUND(#633,.T.);
#635=IFCFACE((#632,#634));
#636=IFCPOLYLOOP((#595,#624,#607,#596));
#637=IFCFACEOUTERBOUND(#636,.T.);
#638=IFCFACE((#637));
#639=IFCCARTESIANPOINT((0.,0.,1500.));
#640=IFCCARTESIANPOINT((1600.,0.,0.));
#641=IFCCARTESIANPOINT((1600.,0.,1500.));
#642=IFCCARTESIANPOINT((1587.29999999993,0.,1487.30000000005));
#643=IFCCARTESIANPOINT((1587.29999999993,0.,12.7000000000069));
#644=IFCCARTESIANPOINT((12.6999999999044,0.,12.7000000000071));
#645=IFCCARTESIANPOINT((12.6999999999043,0.,1487.30000000005));
#646=IFCPOLYLOOP((#639,#3,#640,#641));
#647=IFCFACEOUTERBOUND(#646,.T.);
#648=IFCPOLYLOOP((#642,#643,#644,#645));
#649=IFCFACEBOUND(#648,.T.);
#650=IFCFACE((#647,#649));
#651=IFCCARTESIANPOINT((0.,104.75,1500.));
#652=IFCCARTESIANPOINT((1600.,104.75,1500.));
#653=IFCCARTESIANPOINT((1600.,104.75,0.));
#654=IFCCARTESIANPOINT((0.,104.75,0.));
#655=IFCCARTESIANPOINT((1587.29999999993,104.75,1487.30000000005));
#656=IFCCARTESIANPOINT((12.6999999999043,104.75,1487.30000000005));
#657=IFCCARTESIANPOINT((12.6999999999044,104.75,12.7000000000071));
#658=IFCCARTESIANPOINT((1587.29999999993,104.75,12.7000000000069));
#659=IFCPOLYLOOP((#651,#652,#653,#654));
#660=IFCFACEOUTERBOUND(#659,.T.);
#661=IFCPOLYLOOP((#655,#656,#657,#658));
#662=IFCFACEBOUND(#661,.T.);
#663=IFCFACE((#660,#662));
#664=IFCPOLYLOOP((#3,#639,#651,#654));
#665=IFCFACEOUTERBOUND(#664,.T.);
#666=IFCFACE((#665));
#667=IFCPOLYLOOP((#640,#3,#654,#653));
#668=IFCFACEOUTERBOUND(#667,.T.);
#669=IFCFACE((#668));
#670=IFCPOLYLOOP((#641,#640,#653,#652));
#671=IFCFACEOUTERBOUND(#670,.T.);
#672=IFCFACE((#671));
#673=IFCPOLYLOOP((#639,#641,#652,#651));
#674=IFCFACEOUTERBOUND(#673,.T.);
#675=IFCFACE((#674));
#676=IFCPOLYLOOP((#643,#642,#655,#658));
#677=IFCFACEOUTERBOUND(#676,.T.);
#678=IFCFACE((#677));
#679=IFCPOLYLOOP((#644,#643,#658,#657));
#680=IFCFACEOUTERBOUND(#679,.T.);
#681=IFCFACE((#680));
#682=IFCPOLYLOOP((#645,#644,#657,#656));
#683=IFCFACEOUTERBOUND(#682,.T.);
#684=IFCFACE((#683));
#685=IFCPOLYLOOP((#642,#645,#656,#655));
#686=IFCFACEOUTERBOUND(#685,.T.);
#687=IFCFACE((#686));
#688=IFCCARTESIANPOINT((1561.89999999993,168.249999999995,38.100000000003));
#689=IFCCARTESIANPOINT((1561.89999999993,212.699999999994,38.100000000003));
#690=IFCCARTESIANPOINT((38.0999999998997,212.699999999999,38.100000000003));
#691=IFCCARTESIANPOINT((38.0999999999001,168.25,38.100000000003));
#692=IFCPOLYLOOP((#688,#689,#690,#691));
#693=IFCFACEOUTERBOUND(#692,.T.);
#694=IFCFACE((#693));
#695=IFCCARTESIANPOINT((1587.29999999993,212.699999999994,12.7000000000066));
#696=IFCCARTESIANPOINT((1587.29999999993,168.249999999994,12.7000000000065));
#697=IFCCARTESIANPOINT((12.6999999999033,168.25,12.7000000000065));
#698=IFCCARTESIANPOINT((12.6999999999034,212.700000000001,12.7000000000063));
#699=IFCPOLYLOOP((#695,#696,#697,#698));
#700=IFCFACEOUTERBOUND(#699,.T.);
#701=IFCFACE((#700));
#702=IFCCARTESIANPOINT((38.0999999999,212.699999999999,1461.90000000006));
#703=IFCCARTESIANPOINT((38.0999999998998,168.25,1461.90000000006));
#704=IFCPOLYLOOP((#691,#690,#702,#703));
#705=IFCFACEOUTERBOUND(#704,.T.);
#706=IFCFACE((#705));
#707=IFCCARTESIANPOINT((12.6999999999033,168.25,1487.30000000005));
#708=IFCCARTESIANPOINT((12.6999999999034,212.700000000001,1487.30000000005));
#709=IFCPOLYLOOP((#698,#697,#707,#708));
#710=IFCFACEOUTERBOUND(#709,.T.);
#711=IFCFACE((#710));
#712=IFCCARTESIANPOINT((1561.89999999993,212.699999999994,1461.90000000006));
#713=IFCCARTESIANPOINT((1561.89999999993,168.249999999995,1461.90000000006));
#714=IFCPOLYLOOP((#703,#702,#712,#713));
#715=IFCFACEOUTERBOUND(#714,.T.);
#716=IFCFACE((#715));
#717=IFCCARTESIANPOINT((1587.29999999993,168.249999999994,1487.30000000005));
#718=IFCCARTESIANPOINT((1587.29999999993,212.699999999994,1487.30000000005));
#719=IFCPOLYLOOP((#708,#707,#717,#718));
#720=IFCFACEOUTERBOUND(#719,.T.);
#721=IFCFACE((#720));
#722=IFCPOLYLOOP((#713,#712,#689,#688));
#723=IFCFACEOUTERBOUND(#722,.T.);
#724=IFCFACE((#723));
#725=IFCPOLYLOOP((#691,#703,#713,#688));
#726=IFCFACEBOUND(#725,.T.);
#727=IFCPOLYLOOP((#696,#717,#707,#697));
#728=IFCFACEOUTERBOUND(#727,.T.);
#729=IFCFACE((#726,#728));
#730=IFCPOLYLOOP((#718,#717,#696,#695));
#731=IFCFACEOUTERBOUND(#730,.T.);
#732=IFCFACE((#731));
#733=IFCPOLYLOOP((#698,#708,#718,#695));
#734=IFCFACEOUTERBOUND(#733,.T.);
#735=IFCPOLYLOOP((#689,#712,#702,#690));
#736=IFCFACEBOUND(#735,.T.);
#737=IFCFACE((#734,#736));
#738=IFCCARTESIANPOINT((1561.89999999993,200.,1461.90000000005));
#739=IFCCARTESIANPOINT((38.0999999998997,200.,1461.90000000005));
#740=IFCCARTESIANPOINT((38.0999999998997,193.650000000109,1461.90000000005));
#741=IFCCARTESIANPOINT((1561.89999999993,193.650000000109,1461.90000000005));
#742=IFCPOLYLOOP((#738,#739,#740,#741));
#743=IFCFACEOUTERBOUND(#742,.T.);
#744=IFCFACE((#743));
#745=IFCCARTESIANPOINT((1561.89999999993,200.,38.0999999999961));
#746=IFCCARTESIANPOINT((38.0999999998997,200.,38.0999999999962));
#747=IFCPOLYLOOP((#739,#738,#745,#746));
#748=IFCFACEOUTERBOUND(#747,.T.);
#749=IFCFACE((#748));
#750=IFCCARTESIANPOINT((38.0999999998997,193.650000000109,38.0999999999962));
#751=IFCPOLYLOOP((#740,#739,#746,#750));
#752=IFCFACEOUTERBOUND(#751,.T.);
#753=IFCFACE((#752));
#754=IFCCARTESIANPOINT((1561.89999999993,193.650000000109,38.0999999999962));
#755=IFCPOLYLOOP((#741,#740,#750,#754));
#756=IFCFACEOUTERBOUND(#755,.T.);
#757=IFCFACE((#756));
#758=IFCPOLYLOOP((#738,#741,#754,#745));
#759=IFCFACEOUTERBOUND(#758,.T.);
#760=IFCFACE((#759));
#761=IFCPOLYLOOP((#745,#754,#750,#746));
#762=IFCFACEOUTERBOUND(#761,.T.);
#763=IFCFACE((#762));
#764=IFCCARTESIANPOINT((38.0999999998997,180.949999999997,38.0999999999961));
#765=IFCCARTESIANPOINT((38.0999999998998,187.300000000092,38.0999999999961));
#766=IFCCARTESIANPOINT((1561.89999999993,187.300000000092,38.0999999999961));
#767=IFCCARTESIANPOINT((1561.89999999993,180.949999999997,38.0999999999961));
#768=IFCPOLYLOOP((#764,#765,#766,#767));
#769=IFCFACEOUTERBOUND(#768,.T.);
#770=IFCFACE((#769));
#771=IFCCARTESIANPOINT((1561.89999999993,180.949999999997,1461.90000000005));
#772=IFCCARTESIANPOINT((38.0999999998997,180.949999999997,1461.90000000005));
#773=IFCPOLYLOOP((#771,#772,#764,#767));
#774=IFCFACEOUTERBOUND(#773,.T.);
#775=IFCFACE((#774));
#776=IFCCARTESIANPOINT((1561.89999999993,187.300000000092,1461.90000000005));
#777=IFCPOLYLOOP((#776,#771,#767,#766));
#778=IFCFACEOUTERBOUND(#777,.T.);
#779=IFCFACE((#778));
#780=IFCCARTESIANPOINT((38.0999999998997,187.300000000092,1461.90000000005));
#781=IFCPOLYLOOP((#780,#776,#766,#765));
#782=IFCFACEOUTERBOUND(#781,.T.);
#783=IFCFACE((#782));
#784=IFCPOLYLOOP((#772,#780,#765,#764));
#785=IFCFACEOUTERBOUND(#784,.T.);
#786=IFCFACE((#785));
#787=IFCPOLYLOOP((#772,#771,#776,#780));
#788=IFCFACEOUTERBOUND(#787,.T.);
#789=IFCFACE((#788));
#790=IFCCLOSEDSHELL((#570,#575,#580,#589,#592,#601,#606,#611,#615,#619,#623,#627,#630,#635,#638));
#791=IFCFACETEDBREP(#790);
#792=IFCSTYLEDITEM(#791,(#325),$);
#793=IFCCLOSEDSHELL((#650,#663,#666,#669,#672,#675,#678,#681,#684,#687));
#794=IFCFACETEDBREP(#793);
#795=IFCSTYLEDITEM(#794,(#325),$);
#796=IFCCLOSEDSHELL((#694,#701,#706,#711,#716,#721,#724,#729,#732,#737));
#797=IFCFACETEDBREP(#796);
#798=IFCSTYLEDITEM(#797,(#325),$);
#799=IFCCLOSEDSHELL((#744,#749,#753,#757,#760,#763));
#800=IFCFACETEDBREP(#799);
#801=IFCSTYLEDITEM(#800,(#337),$);
#802=IFCCLOSEDSHELL((#770,#775,#779,#783,#786,#789));
#803=IFCFACETEDBREP(#802);
#804=IFCSTYLEDITEM(#803,(#337),$);
#805=IFCSHAPEREPRESENTATION(#24,'Body','Brep',(#791,#794,#797,#800,#803));
#806=IFCAXIS2PLACEMENT3D(#3,$,$);
#807=IFCREPRESENTATIONMAP(#806,#805);
#808=IFCWINDOWLININGPROPERTIES('2KbOAL4v52mv2YJ6jTql5A',#18,'M_Window-Fixed:1500 x 1500mm:1602627',$,$,$,$,$,$,$,$,$,$,$,$,$);
#809=IFCWINDOWTYPE('0yeG_a8ozPKw5ITZ$GkxPM',#18,'M_Window-Fixed:1500 x 1500mm',$,$,(#808,#834),(#807),'1602715',$,.WINDOW.,.NOTDEFINED.,.F.,$);
#810=IFCMATERIALCONSTITUENT('Frame/Mullion',$,#347,$,'Wood');
#811=IFCSHAPEREPRESENTATION(#24,'Body','Brep',(#791,#794,#797));
#812=IFCSHAPEASPECT((#811),'Frame/Mullion',$,.U.,#807);
#813=IFCMATERIALCONSTITUENT('Glass',$,#368,$,'Glass');
#814=IFCSHAPEREPRESENTATION(#24,'Body','Brep',(#800,#803));
#815=IFCSHAPEASPECT((#814),'Glass',$,.U.,#807);
#816=IFCMATERIALCONSTITUENTSET($,$,(#810,#813));
#817=IFCMAPPEDITEM(#807,#379);
#818=IFCSHAPEREPRESENTATION(#24,'Body','MappedRepresentation',(#817));
#819=IFCPRODUCTDEFINITIONSHAPE($,$,(#818));
#820=IFCCARTESIANPOINT((1450.,2500.,900.));
#821=IFCAXIS2PLACEMENT3D(#820,$,$);
#823=IFCWINDOW('2KbOAL4v52mv2YJ6fTql5A',#18,'M_Window-Fixed:1500 x 1500mm:1602627',$,'M_Window-Fixed:1500 x 1500mm',#1059,#819,'1602627',1500.,1600.,.WINDOW.,.NOTDEFINED.,$);
#824=IFCMATERIALCONSTITUENT('Wood - Stained',$,#347,$,'Wood');
#825=IFCMATERIALCONSTITUENT('Glass',$,#368,$,'Glass');
#826=IFCMATERIALCONSTITUENTSET($,$,(#824,#825));
#827=IFCPROPERTYSINGLEVALUE('Reference',$,IFCIDENTIFIER('1500 x 1500mm'),$);
#828=IFCPROPERTYSET('2yHkSzxx0WT8UnRvwrTQS8',#18,'Pset_EnvironmentalImpactIndicators',$,(#827));
#829=IFCPROPERTYSINGLEVALUE('FireRating',$,IFCLABEL('0.5h'),$);
#830=IFCPROPERTYSET('1YjT0Y5hEBHTkwbU$lJ6Iy',#18,'Pset_WindowCommon',$,(#85,#827,#829));
#831=IFCRELDEFINESBYPROPERTIES('06fY33BAUK$ImfEC8tj3a4',#18,$,$,(#823),#828);
#832=IFCRELDEFINESBYPROPERTIES('3zfHU7EgsFKaAuOkVHrW0m',#18,$,$,(#823),#830);
#833=IFCPROPERTYSINGLEVALUE('FireRating',$,IFCLABEL('0.5h'),$);
#834=IFCPROPERTYSET('15w6yBhUMMzGP_tgkR2w1b',#18,'Pset_WindowCommon',$,(#833));
#835=IFCAXIS2PLACEMENT3D(#3,$,$);
#837=IFCCARTESIANPOINT((6.3500000000213,-6.35000000003041));
#838=IFCCARTESIANPOINT((711.899999999887,-6.35000000003041));
#839=IFCCARTESIANPOINT((711.899999999887,6.34999999996786));
#840=IFCCARTESIANPOINT((6.35000000003104,6.34999999996792));
#841=IFCCARTESIANPOINT((6.35000000003098,761.900000000011));
#842=IFCCARTESIANPOINT((-6.34999999996424,761.900000000011));
#843=IFCCARTESIANPOINT((-6.34999999996431,6.34999999997658));
#844=IFCCARTESIANPOINT((-711.899999999999,6.34999999997671));
#845=IFCCARTESIANPOINT((-711.899999999999,-6.35000000001261));
#846=IFCCARTESIANPOINT((-6.34999999997541,-6.35000000001267));
#847=IFCCARTESIANPOINT((-6.34999999997548,-761.899999999912));
#848=IFCCARTESIANPOINT((6.35000000002123,-761.899999999912));
#849=IFCPOLYLINE((#837,#838,#839,#840,#841,#842,#843,#844,#845,#846,#847,#848,#837));
#850=IFCARBITRARYCLOSEDPROFILEDEF(.AREA.,'M_Muntin Pattern_2x2',#849);
#851=IFCCARTESIANPOINT((0.,-22.2249999999994,711.899999999893));
#852=IFCAXIS2PLACEMENT3D(#851,#7,#9);
#853=IFCEXTRUDEDAREASOLID(#850,#852,#9,12.699999999996);
#854=IFCCARTESIANPOINT((6.35000000000993,-6.35000000002394));
#855=IFCCARTESIANPOINT((711.899999999987,-6.35000000002394));
#856=IFCCARTESIANPOINT((711.899999999987,6.34999999997426));
#857=IFCCARTESIANPOINT((6.35000000001223,6.34999999997426));
#858=IFCCARTESIANPOINT((6.35000000001209,761.900000000005));
#859=IFCCARTESIANPOINT((-6.34999999998719,761.900000000005));
#860=IFCCARTESIANPOINT((-6.34999999998719,6.34999999998279));
#861=IFCCARTESIANPOINT((-711.900000000032,6.34999999998279));
#862=IFCCARTESIANPOINT((-711.900000000032,-6.35000000001893));
#863=IFCCARTESIANPOINT((-6.34999999999057,-6.35000000001893));
#864=IFCCARTESIANPOINT((-6.34999999999057,-761.899999999919));
#865=IFCCARTESIANPOINT((6.35000000000993,-761.899999999919));
#866=IFCPOLYLINE((#854,#855,#856,#857,#858,#859,#860,#861,#862,#863,#864,#865,#854));
#867=IFCARBITRARYCLOSEDPROFILEDEF(.AREA.,'M_Muntin Pattern_2x2',#866);
#868=IFCCARTESIANPOINT((0.,9.52500000002024,711.90000000003));
#869=IFCAXIS2PLACEMENT3D(#868,#7,#9);
#870=IFCEXTRUDEDAREASOLID(#867,#869,#9,12.6999999999961);
#871=IFCSTYLEDITEM(#853,(#441),$);
#872=IFCSTYLEDITEM(#870,(#325),$);
#873=IFCSHAPEREPRESENTATION(#24,'Body','SweptSolid',(#853,#870));
#874=IFCAXIS2PLACEMENT3D(#3,$,$);
#875=IFCREPRESENTATIONMAP(#874,#873);
#876=IFCBUILDINGELEMENTPROXYTYPE('2KbOAL4v52mv2YJ6fTql2y',#18,'M_Muntin Pattern_2x2:M_Muntin Pattern_2x2',$,$,$,(#875),'1514602',$,.NOTDEFINED.);
#877=IFCMATERIALCONSTITUENT('Clad - White',$,#448,$,'Wood');
#878=IFCSHAPEREPRESENTATION(#24,'Body','SweptSolid',(#853));
#879=IFCSHAPEASPECT((#878),'Clad - White',$,.U.,#875);
#880=IFCMATERIALCONSTITUENT('Wood - Stained',$,#347,$,'Wood');
#881=IFCSHAPEREPRESENTATION(#24,'Body','SweptSolid',(#870));
#882=IFCSHAPEASPECT((#881),'Wood - Stained',$,.U.,#875);
#883=IFCMATERIALCONSTITUENTSET($,$,(#877,#880));
#884=IFCMAPPEDITEM(#875,#379);
#885=IFCSHAPEREPRESENTATION(#24,'Body','MappedRepresentation',(#884));
#886=IFCPRODUCTDEFINITIONSHAPE($,$,(#885));
#887=IFCCARTESIANPOINT((2250.,2690.475,938.100000000037));
#888=IFCAXIS2PLACEMENT3D(#887,#9,#6);
#889=IFCLOCALPLACEMENT(#34,#888);
#890=IFCBUILDINGELEMENTPROXY('2KbOAL4v52mv2YJ6fTql5D',#18,'M_Muntin Pattern_2x2:M_Muntin Pattern_2x2:1602628',$,'M_Muntin Pattern_2x2:M_Muntin Pattern_2x2',#889,#886,'1602628',.NOTDEFINED.);
#891=IFCMATERIALCONSTITUENT('Clad - White',$,#448,$,'Wood');
#892=IFCMATERIALCONSTITUENT('Wood - Stained',$,#347,$,'Wood');
#893=IFCMATERIALCONSTITUENTSET($,$,(#891,#892));
#894=IFCPROPERTYSET('1Hah$JLXt2IMmaNFgA1CYq',#18,'Pset_BuildingElementProxyCommon',$,(#45,#474));
#895=IFCPROPERTYSET('0aGsnA3iVDkFTP8MB_$q5y',#18,'Pset_EnvironmentalImpactIndicators',$,(#474));
#896=IFCRELDEFINESBYPROPERTIES('18g4nI2XukLUCBAJVgZ$ZF',#18,$,$,(#890),#894);
#897=IFCRELDEFINESBYPROPERTIES('1bMCBqk2_0iXHXYKfgQLSn',#18,$,$,(#890),#895);
#898=IFCAXIS2PLACEMENT3D(#3,$,$);
#900=IFCCARTESIANPOINT((0.,1.36779476633819E-13));
#901=IFCAXIS2PLACEMENT2D(#900,#11);
#902=IFCRECTANGLEPROFILEDEF(.AREA.,'with Sill',#901,1720.,60.0000000000002);
#903=IFCCARTESIANPOINT((0.,-1550.43237088473,0.));
#904=IFCAXIS2PLACEMENT3D(#903,#9,#6);
#905=IFCEXTRUDEDAREASOLID(#902,#904,#9,19.05);
#906=IFCCARTESIANPOINT((-19.0499999999924,-15.2395991020629));
#907=IFCCARTESIANPOINT((0.,-15.2395991020629));
#908=IFCCARTESIANPOINT((0.,-5.67196998677784));
#909=IFCCARTESIANPOINT((19.0499999999711,-5.67196998677784));
#910=IFCCARTESIANPOINT((19.0499999999711,14.7604008979359));
#911=IFCCARTESIANPOINT((0.,14.7604008979359));
#912=IFCCARTESIANPOINT((-19.0499999999924,12.3023363818102));
#913=IFCPOLYLINE((#906,#907,#908,#909,#910,#911,#912,#906));
#914=IFCARBITRARYCLOSEDPROFILEDEF(.AREA.,'with Sill',#913);
#915=IFCCARTESIANPOINT((-872.699999999992,-1514.76040089794,19.0499999999782));
#916=IFCAXIS2PLACEMENT3D(#915,#5,#10);
#917=IFCEXTRUDEDAREASOLID(#914,#916,#9,1745.40000000001);
#918=IFCCARTESIANPOINT((-795.,-860.));
#919=IFCCARTESIANPOINT((765.,-860.));
#920=IFCCARTESIANPOINT((765.,-800.));
#921=IFCCARTESIANPOINT((-735.,-800.));
#922=IFCCARTESIANPOINT((-735.,800.));
#923=IFCCARTESIANPOINT((765.,800.));
#924=IFCCARTESIANPOINT((765.,860.));
#925=IFCCARTESIANPOINT((-795.,860.));
#926=IFCPOLYLINE((#918,#919,#920,#921,#922,#923,#924,#925,#918));
#927=IFCARBITRARYCLOSEDPROFILEDEF(.AREA.,'with Sill',#926);
#928=IFCCARTESIANPOINT((0.,-735.,0.));
#929=IFCAXIS2PLACEMENT3D(#928,#9,#8);
#930=IFCEXTRUDEDAREASOLID(#927,#929,#9,19.05);
#931=IFCSTYLEDITEM(#905,(#441),$);
#932=IFCSTYLEDITEM(#917,(#441),$);
#933=IFCSTYLEDITEM(#930,(#441),$);
#934=IFCSHAPEREPRESENTATION(#24,'Body','SweptSolid',(#905,#917,#930));
#935=IFCAXIS2PLACEMENT3D(#3,$,$);
#936=IFCREPRESENTATIONMAP(#935,#934);
#937=IFCBUILDINGELEMENTPROXYTYPE('2KbOAL4v52mv2YJ6fTql2$',#18,'M_Trim-Window-Exterior-Flat:with Sill',$,$,$,(#936),'1514612',$,.NOTDEFINED.);
#938=IFCMAPPEDITEM(#936,#379);
#939=IFCSHAPEREPRESENTATION(#24,'Body','MappedRepresentation',(#938));
#940=IFCPRODUCTDEFINITIONSHAPE($,$,(#939));
#941=IFCCARTESIANPOINT((2250.,2700.,2400.));
#942=IFCAXIS2PLACEMENT3D(#941,#7,#6);
#943=IFCLOCALPLACEMENT(#34,#942);
#944=IFCBUILDINGELEMENTPROXY('2KbOAL4v52mv2YJ6fTql5C',#18,'M_Trim-Window-Exterior-Flat:with Sill:1602629',$,'M_Trim-Window-Exterior-Flat:with Sill',#943,#940,'1602629',.NOTDEFINED.);
#945=IFCPROPERTYSET('3pm1iB8ih7X$id_PBuHLX6',#18,'Pset_BuildingElementProxyCommon',$,(#45,#526));
#946=IFCPROPERTYSET('0u_vkoV44vzFVGiQi4D2Qi',#18,'Pset_EnvironmentalImpactIndicators',$,(#526));
#947=IFCRELDEFINESBYPROPERTIES('3LsbFJxKPRH8RiryUpYBZX',#18,$,$,(#944),#945);
#948=IFCRELDEFINESBYPROPERTIES('38bN2hDFW0jawUjUdeCooQ',#18,$,$,(#944),#946);
#949=IFCAXIS2PLACEMENT3D(#3,$,$);
#951=IFCCARTESIANPOINT((-847.299999999998,-797.299999999994));
#952=IFCCARTESIANPOINT((847.299999999998,-797.299999999994));
#953=IFCCARTESIANPOINT((847.299999999998,797.299999999994));
#954=IFCCARTESIANPOINT((-847.299999999998,797.299999999994));
#955=IFCPOLYLINE((#951,#952,#953,#954,#951));
#956=IFCCARTESIANPOINT((-787.300000000002,-737.299999999992));
#957=IFCCARTESIANPOINT((-787.300000000002,737.299999999992));
#958=IFCCARTESIANPOINT((787.299999999998,737.299999999992));
#959=IFCCARTESIANPOINT((787.299999999998,-737.299999999992));
#960=IFCPOLYLINE((#956,#957,#958,#959,#956));
#961=IFCARBITRARYPROFILEDEFWITHVOIDS(.AREA.,'Picture Frame',#955,(#960));
#962=IFCCARTESIANPOINT((0.,-750.,0.));
#963=IFCAXIS2PLACEMENT3D(#962,#9,#6);
#964=IFCEXTRUDEDAREASOLID(#961,#963,#9,30.);
#965=IFCSTYLEDITEM(#964,(#325),$);
#966=IFCSHAPEREPRESENTATION(#24,'Body','SweptSolid',(#964));
#967=IFCAXIS2PLACEMENT3D(#3,$,$);
#968=IFCREPRESENTATIONMAP(#967,#966);
#969=IFCBUILDINGELEMENTPROXYTYPE('2KbOAL4v52mv2YJ6fTql2_',#18,'M_Trim-Window-Interior-Flat:Picture Frame',$,$,$,(#968),'1514622',$,.NOTDEFINED.);
#970=IFCMAPPEDITEM(#968,#379);
#971=IFCSHAPEREPRESENTATION(#24,'Body','MappedRepresentation',(#970));
#972=IFCPRODUCTDEFINITIONSHAPE($,$,(#971));
#973=IFCCARTESIANPOINT((2250.,2500.,2400.));
#974=IFCAXIS2PLACEMENT3D(#973,#8,#5);
#975=IFCLOCALPLACEMENT(#34,#974);
#976=IFCBUILDINGELEMENTPROXY('2KbOAL4v52mv2YJ6fTql5F',#18,'M_Trim-Window-Interior-Flat:Picture Frame:1602630',$,'M_Trim-Window-Interior-Flat:Picture Frame',#975,#972,'1602630',.NOTDEFINED.);
#977=IFCPROPERTYSET('2hl9YlDQe8iBj7jGL0NHud',#18,'Pset_BuildingElementProxyCommon',$,(#45,#559));
#978=IFCPROPERTYSET('38lL4g4MEWlr1MYfWFfjfy',#18,'Pset_EnvironmentalImpactIndicators',$,(#559));
#979=IFCRELDEFINESBYPROPERTIES('030KTrRmik0C_DDk7BSR_R',#18,$,$,(#976),#977);
#980=IFCRELDEFINESBYPROPERTIES('0I6uU4tyxaFl4w2jvgEfzi',#18,$,$,(#976),#978);
#981=IFCPROPERTYSINGLEVALUE('Reference',$,IFCIDENTIFIER('8mm Head'),$);
#982=IFCPROPERTYSINGLEVALUE('AboveGround',$,IFCLOGICAL(.U.),$);
#983=IFCPROPERTYSET('16L50AfyZF4hYq5TGET4H4',#18,'Pset_BuildingStoreyCommon',$,(#981,#982));
#984=IFCPROPERTYSET('2J7ac_h5ujdwWuzVwBIIta',#18,'Pset_SpaceCommon',$,(#45,#981));
#985=IFCRELDEFINESBYPROPERTIES('2VdfSfkgzGoZi_3SgzE8$0',#18,$,$,(#35),#983);
#986=IFCRELDEFINESBYPROPERTIES('3$YdOpA8iaPobC8MDiWxoI',#18,$,$,(#35),#984);
#987=IFCRELCONTAINEDINSPATIALSTRUCTURE('2JF4e6axWHqu3u0C5FZlmi',#18,$,$,(#73,#386,#470,#525,#558,#823,#890,#944,#976),#35);
#988=IFCPROPERTYSET('1n34enW33Z_3Qq2Pm1kjQZ',#18,'Pset_BuildingStoreyCommon',$,(#981,#982));
#989=IFCPROPERTYSET('0qNc4$IaPwTvoqOd7IlIE4',#18,'Pset_SpaceCommon',$,(#45,#981));
#990=IFCRELDEFINESBYPROPERTIES('36oM8gyLQ5_Z6XoGK5uP1E',#18,$,$,(#39),#988);
#991=IFCRELDEFINESBYPROPERTIES('0jA6Vdz$3CfPvu_I1iTL6J',#18,$,$,(#39),#989);
#992=IFCRELAGGREGATES('2KFB6YYWgXBmucZ8cm7uCP',#18,$,$,#27,(#42));
#993=IFCRELAGGREGATES('16_hfJTeCqU7LcG8m10BTS',#18,$,$,#42,(#32));
#994=IFCRELAGGREGATES('1yhDISh1T5aQqAoygxGIhP',#18,$,$,#32,(#35,#39));
#995=IFCPROPERTYSINGLEVALUE('NumberOfStoreys',$,IFCCOUNTMEASURE(1),$);
#996=IFCPROPERTYSINGLEVALUE('IsLandmarked',$,IFCLOGICAL(.U.),$);
#997=IFCPROPERTYSET('01y_GmllCupEYuBgfGbhkd',#18,'Pset_BuildingCommon',$,(#43,#995,#996));
#998=IFCPROPERTYSET('1rUR7OGyIAkZT62xvibLnd',#18,'Pset_BuildingElementProxyCommon',$,(#43,#45));
#999=IFCPROPERTYSET('2kFDjjfIaTsBi7MLK$i$Me',#18,'Pset_BuildingStoreyCommon',$,(#43,#982));
#1000=IFCPROPERTYSET('1TYvb3FgH88mtl04iE5P1T',#18,'Pset_BuildingSystemCommon',$,(#43));
#1001=IFCPROPERTYSET('2W94HCj5xfigmNGtkBMklk',#18,'Pset_SpaceCommon',$,(#43,#45));
#1002=IFCRELDEFINESBYPROPERTIES('0vDjba2fshDEh0_KufwWht',#18,$,$,(#32),#997);
#1003=IFCRELDEFINESBYPROPERTIES('1V6UQfELB4oPy3GPEaJMPw',#18,$,$,(#32),#998);
#1004=IFCRELDEFINESBYPROPERTIES('0Vpd75HttOMIhzXutBGgCt',#18,$,$,(#32),#999);
#1005=IFCRELDEFINESBYPROPERTIES('22VMRBFW9n6_S81yWIP225',#18,$,$,(#32),#1000);
#1006=IFCRELDEFINESBYPROPERTIES('2w3bzVlKnfBVjA3_BjG2II',#18,$,$,(#32),#1001);
#1007=IFCRELASSOCIATESMATERIAL('2EGebWtrF4PJfKY1M1W0$8',#18,$,$,(#346),#378);
#1008=IFCRELASSOCIATESMATERIAL('1vWvOCeWDOIihoH2mf55bG',#18,$,$,(#386),#389);
#1009=IFCRELASSOCIATESMATERIAL('1p0jg4LTTe0lwujSE9xtza',#18,$,$,(#447),#463);
#1010=IFCRELASSOCIATESMATERIAL('2W7rj0d6eyA7jX65aNRza1',#18,$,$,(#470),#473);
#1011=IFCRELASSOCIATESMATERIAL('2zx$QISfVJOzZauYw_7dLf',#18,$,$,(#809),#816);
#1012=IFCRELASSOCIATESMATERIAL('0i1zqBz1IdORl0bwofjNA4',#18,$,$,(#823),#826);
#1013=IFCRELASSOCIATESMATERIAL('0SNtwIoYPi35q_bC6ExK9v',#18,$,$,(#876),#883);
#1014=IFCRELASSOCIATESMATERIAL('133aydmDJ8xujfarqS5_le',#18,$,$,(#890),#893);
#1015=IFCRELASSOCIATESMATERIAL('22T9r9KB1F3JFgePfxkUGp',#18,$,$,(#73,#80),#79);
#1016=IFCRELASSOCIATESMATERIAL('29Bp5OMMJjHNegq23Z6wnS',#18,$,$,(#551,#558,#969,#976),#347);
#1017=IFCRELASSOCIATESMATERIAL('0a20Dxgm9PgIzatkOj_0xF',#18,$,$,(#518,#525,#937,#944),#448);
#1018=IFCRELDEFINESBYTYPE('0MSq_ijuC5q4PUKv4QkOsA',#18,$,$,(#73),#80);
#1019=IFCRELDEFINESBYTYPE('2Syd3CN1K0M5aLimwVnPsJ',#18,$,$,(#386),#346);
#1020=IFCRELDEFINESBYTYPE('2y0zNXZDwaWlaRmpe81$EK',#18,$,$,(#470),#447);
#1021=IFCRELDEFINESBYTYPE('2TJUw7eIYhPwIYkHS9jdFd',#18,$,$,(#525),#518);
#1022=IFCRELDEFINESBYTYPE('1lhUbYICoTa5eCDX2lVwUo',#18,$,$,(#558),#551);
#1023=IFCRELDEFINESBYTYPE('2hYsVAVvfugFUL_qPtpoor',#18,$,$,(#823),#809);
#1024=IFCRELDEFINESBYTYPE('392Xv71pfY$8v6Hu5O81ew',#18,$,$,(#890),#876);
#1025=IFCRELDEFINESBYTYPE('2E00cXGDTTNGBGRLE5C3O1',#18,$,$,(#944),#937);
#1026=IFCRELDEFINESBYTYPE('020Znz6Cm5QS1C44O5DwEX',#18,$,$,(#976),#969);
#1027=IFCPRESENTATIONLAYERASSIGNMENT('A-WALL-____-OTLN',$,(#60,#71),$);
#1028=IFCPRESENTATIONLAYERASSIGNMENT('A-GLAZ-____-OTLN',$,(#342,#373,#376,#381,#805,#811,#814,#818),$);
#1029=IFCPRESENTATIONLAYERASSIGNMENT('A-GENM-____-OTLN',$,(#444,#458,#461,#465,#515,#520,#548,#553,#873,#878,#881,#885,#934,#939,#966,#971),$);
#1030=IFCCARTESIANPOINT((750.000000000002,300.));
#1031=IFCAXIS2PLACEMENT2D(#1030,#12);
#1032=IFCRECTANGLEPROFILEDEF(.AREA.,$,#1031,1500.,600.);
#1033=IFCAXIS2PLACEMENT3D(#3,#7,#9);
#1034=IFCEXTRUDEDAREASOLID(#1032,#1033,#9,200.);
#1035=IFCSHAPEREPRESENTATION(#24,'Body','SweptSolid',(#1034));
#1036=IFCPRODUCTDEFINITIONSHAPE($,$,(#1035));
#1037=IFCCARTESIANPOINT((3650.,-100.,900.));
#1038=IFCAXIS2PLACEMENT3D(#1037,$,$);
#1039=IFCLOCALPLACEMENT(#57,#1038);
#1040=IFCOPENINGELEMENT('2GJoUje5nL3kaGklEevVbI',#18,'M_Window-Fixed:600 x 1500mm:1602356:1',$,$,#1039,#1036,'1602356',.OPENING.);
#1041=IFCRELVOIDSELEMENT('2KbOAL4v52mv2YJ7vTqlOz',#18,$,$,#73,#1040);
#1042=IFCRELFILLSELEMENT('1EAiN9rgo6I0fX7HbAeXbW',#18,$,$,#1040,#386);
#1043=IFCAXIS2PLACEMENT3D(#3,$,$);
#1044=IFCLOCALPLACEMENT(#1039,#1043);
#1045=IFCCARTESIANPOINT((750.000000000002,800.));
#1046=IFCAXIS2PLACEMENT2D(#1045,#12);
#1047=IFCRECTANGLEPROFILEDEF(.AREA.,$,#1046,1500.,1600.);
#1048=IFCAXIS2PLACEMENT3D(#3,#7,#9);
#1049=IFCEXTRUDEDAREASOLID(#1047,#1048,#9,200.);
#1050=IFCSHAPEREPRESENTATION(#24,'Body','SweptSolid',(#1049));
#1051=IFCPRODUCTDEFINITIONSHAPE($,$,(#1050));
#1052=IFCCARTESIANPOINT((1450.,-100.,900.));
#1053=IFCAXIS2PLACEMENT3D(#1052,$,$);
#1054=IFCLOCALPLACEMENT(#57,#1053);
#1055=IFCOPENINGELEMENT('2FgYNxuD5JBSJ92imotdSQ',#18,'M_Window-Fixed:1500 x 1500mm:1602627:1',$,$,#1054,#1051,'1602627',.OPENING.);
#1056=IFCRELVOIDSELEMENT('2KbOAL4v52mv2YJ7vTql5A',#18,$,$,#73,#1055);
#1057=IFCRELFILLSELEMENT('2G9$EvP1Tp9ONITFWDfRj7',#18,$,$,#1055,#823);
#1058=IFCAXIS2PLACEMENT3D(#3,$,$);
#1059=IFCLOCALPLACEMENT(#1054,#1058);
#1060=IFCRELASSOCIATESCLASSIFICATION('1V_$b4Dm9CD56wR1_Phmqf',#18,'Exterior Walls','Exterior Walls:B2010',(#73),#92);
#1061=IFCRELASSOCIATESCLASSIFICATION('01r3DUFDY$poHHlzOLOYh_',#18,'Windows','Windows:B2020100',(#386,#823),#396);
#1062=IFCUNITASSIGNMENT((#19,#61,#421));
ENDSEC;
END-ISO-10303-21;
