ISO-10303-21;
HEADER;
FILE_DESCRIPTION(('ViewDefinition [CoordinationView]','RevitIdentifiers [ContentGUID: cbb0ae2e-6350-4225-8ca4-af668662c38d, VersionGUID: 4738aced-860f-4037-9a1c-f9a0cdbd4665, NumberOfSaves: 33]','CoordinateReference [CoordinateBase: Shared Coordinates]'),'2;1');
FILE_NAME('02_00_005.ifc','2026-01-19T15:45:34+01:00',(''),(''),'ODA SDAI 24.6','Autodesk Revit 24.3.30.11 (ENU) - IFC 24.3.30.11','');
FILE_SCHEMA(('IFC4X3'));
ENDSEC;

DATA;
#1=IFCORGANIZATION($,'Autodesk Revit 2024 (ENU)',$,$,$);
#2=IFCAPPLICATION(#1,'2024','Autodesk Revit 2024 (ENU)','Revit');
#3=IFCCARTESIANPOINT((0.,0.,0.));
#4=IFCCARTESIANPOINT((0.,0.));
#5=IFCDIRECTION((1.,0.,0.));
#6=IFCDIRECTION((-1.,0.,0.));
#7=IFCDIRECTION((0.,1.,0.));
#8=IFCDIRECTION((0.,-1.,0.));
#9=IFCDIRECTION((0.,0.,1.));
#10=IFCDIRECTION((0.,0.,-1.));
#11=IFCDIRECTION((1.,0.));
#12=IFCDIRECTION((-1.,0.));
#13=IFCDIRECTION((0.,1.));
#14=IFCDIRECTION((0.,-1.));
#15=IFCPERSON($,'','h.helming',$,$,$,$,$);
#16=IFCORGANIZATION($,'Organization Name','Organization Description',$,$);
#17=IFCPERSONANDORGANIZATION(#15,#16,$);
#18=IFCOWNERHISTORY(#17,#2,$,.NOCHANGE.,$,$,$,1767894447);
#19=IFCSIUNIT(*,.LENGTHUNIT.,.MILLI.,.METRE.);
#20=IFCAXIS2PLACEMENT3D(#3,$,$);
#21=IFCDIRECTION((6.1230317691118863E-17,1.));
#22=IFCGEOMETRICREPRESENTATIONCONTEXT($,'Model',3,0.01,#20,#21);
#23=IFCGEOMETRICREPRESENTATIONSUBCONTEXT('Axis','Model',*,*,*,*,#22,$,.GRAPH_VIEW.,$);
#24=IFCGEOMETRICREPRESENTATIONSUBCONTEXT('Body','Model',*,*,*,*,#22,$,.MODEL_VIEW.,$);
#25=IFCGEOMETRICREPRESENTATIONSUBCONTEXT('Box','Model',*,*,*,*,#22,$,.MODEL_VIEW.,$);
#26=IFCGEOMETRICREPRESENTATIONSUBCONTEXT('FootPrint','Model',*,*,*,*,#22,$,.MODEL_VIEW.,$);
#27=IFCPROJECT('3BiAukOr129OoahsPvdJnz',#18,'Project Number',$,$,'Project Name','Project Status',(#22),#466);
#28=IFCCLASSIFICATION('CSI (Construction Specifications Institute)','1998',$,'Uniformat','UniFormat Classification','https://www.csiresources.org/standards/uniformat',$);
#29=IFCAXIS2PLACEMENT3D(#3,$,$);
#30=IFCLOCALPLACEMENT(#41,#29);
#31=IFCPOSTALADDRESS($,$,$,$,('Enter address hereAddress Line 2'),$,'','Boston','','MA');
#32=IFCBUILDING('3BiAukOr129OoahsPvdJny',#18,'Building Name',$,$,#30,$,'Building Name',.ELEMENT.,$,$,#31);
#33=IFCAXIS2PLACEMENT3D(#3,$,$);
#34=IFCLOCALPLACEMENT(#30,#33);
#35=IFCBUILDINGSTOREY('2JF4e6axWHqu3u0C1FZlmi',#18,'L1',$,'Level:8mm Head',#34,$,'L1',.ELEMENT.,0.);
#36=IFCCARTESIANPOINT((0.,0.,3000.));
#37=IFCAXIS2PLACEMENT3D(#36,$,$);
#38=IFCLOCALPLACEMENT(#30,#37);
#39=IFCBUILDINGSTOREY('1ZGO8hrFCHqw0v0026FpFv',#18,'L2',$,'Level:8mm Head',#38,$,'L2',.ELEMENT.,3000.);
#40=IFCAXIS2PLACEMENT3D(#3,$,$);
#41=IFCLOCALPLACEMENT($,#40);
#42=IFCSITE('3BiAukOr129OoahsPvdJn$',#18,'Default',$,$,#41,$,$,.ELEMENT.,(42,21,31,401672),(-71,-3,-24,-345703),0.,$,$);
#43=IFCPROPERTYSINGLEVALUE('Reference',$,IFCIDENTIFIER('Project Information'),$);
#44=IFCPROPERTYSET('2mFJcO6I01h0OYRLOICO3c',#18,'Pset_SiteCommon',$,(#43));
#45=IFCPROPERTYSINGLEVALUE('IsExternal',$,IFCBOOLEAN(.F.),$);
#46=IFCPROPERTYSET('0O$B2PbAODr9jYnpcaZGJT',#18,'Pset_SpaceCommon',$,(#43,#45));
#47=IFCRELDEFINESBYPROPERTIES('2fDrcjst0HFayqQ3dY1cGQ',#18,$,$,(#42),#44);
#48=IFCRELDEFINESBYPROPERTIES('1lYkP70lXSGXnZeJnLC8MY',#18,$,$,(#42),#46);
#55=IFCAXIS2PLACEMENT3D(#3,$,$);
#56=IFCLOCALPLACEMENT(#34,#55);
#57=IFCCARTESIANPOINT((7400.,3500.,3048.));
#58=IFCCARTESIANPOINT((5700.,3500.,3048.));
#59=IFCCARTESIANPOINT((5700.,1200.,3048.));
#60=IFCCARTESIANPOINT((7400.,1200.,3048.));
#61=IFCPOLYLOOP((#57,#58,#59,#60));
#62=IFCFACEOUTERBOUND(#61,.T.);
#63=IFCFACE((#62));
#64=IFCCARTESIANPOINT((8900.,200.,0.));
#65=IFCCARTESIANPOINT((4200.,200.,0.));
#66=IFCCARTESIANPOINT((4200.,3500.,0.));
#67=IFCCARTESIANPOINT((4200.,4500.,0.));
#68=IFCCARTESIANPOINT((8900.,4500.,0.));
#69=IFCCARTESIANPOINT((8900.,1200.,0.));
#70=IFCPOLYLOOP((#64,#65,#66,#67,#68,#69));
#71=IFCFACEOUTERBOUND(#70,.T.);
#72=IFCFACE((#71));
#73=IFCCARTESIANPOINT((8900.,200.,2695.2000000000003));
#74=IFCCARTESIANPOINT((4200.,200.,2695.2000000000003));
#75=IFCPOLYLOOP((#65,#64,#73,#74));
#76=IFCFACEOUTERBOUND(#75,.T.);
#77=IFCFACE((#76));
#78=IFCCARTESIANPOINT((8900.,1200.,2695.2000000000003));
#79=IFCPOLYLOOP((#64,#69,#78,#73));
#80=IFCFACEOUTERBOUND(#79,.T.);
#81=IFCFACE((#80));
#82=IFCCARTESIANPOINT((8900.,4500.,2695.2000000000003));
#83=IFCPOLYLOOP((#69,#68,#82,#78));
#84=IFCFACEOUTERBOUND(#83,.T.);
#85=IFCFACE((#84));
#86=IFCCARTESIANPOINT((4200.,4500.,2695.2000000000003));
#87=IFCPOLYLOOP((#68,#67,#86,#82));
#88=IFCFACEOUTERBOUND(#87,.T.);
#89=IFCFACE((#88));
#90=IFCCARTESIANPOINT((4200.,3500.,2695.2000000000003));
#91=IFCPOLYLOOP((#67,#66,#90,#86));
#92=IFCFACEOUTERBOUND(#91,.T.);
#93=IFCFACE((#92));
#94=IFCPOLYLOOP((#66,#65,#74,#90));
#95=IFCFACEOUTERBOUND(#94,.T.);
#96=IFCFACE((#95));
#97=IFCCARTESIANPOINT((7400.,1200.,2695.2000000000003));
#98=IFCCARTESIANPOINT((7400.,3500.,2695.2000000000003));
#99=IFCPOLYLOOP((#97,#98,#57,#60));
#100=IFCFACEOUTERBOUND(#99,.T.);
#101=IFCFACE((#100));
#102=IFCCARTESIANPOINT((5700.,3500.,2695.2000000000003));
#103=IFCCARTESIANPOINT((5700.,1200.,2695.2000000000003));
#104=IFCPOLYLOOP((#102,#98,#97,#103));
#105=IFCFACEBOUND(#104,.T.);
#106=IFCPOLYLOOP((#74,#73,#78,#82,#86,#90));
#107=IFCFACEOUTERBOUND(#106,.T.);
#108=IFCFACE((#105,#107));
#109=IFCPOLYLOOP((#98,#102,#58,#57));
#110=IFCFACEOUTERBOUND(#109,.T.);
#111=IFCFACE((#110));
#112=IFCPOLYLOOP((#103,#97,#60,#59));
#113=IFCFACEOUTERBOUND(#112,.T.);
#114=IFCFACE((#113));
#115=IFCPOLYLOOP((#102,#103,#59,#58));
#116=IFCFACEOUTERBOUND(#115,.T.);
#117=IFCFACE((#116));
#118=IFCCLOSEDSHELL((#63,#72,#77,#81,#85,#89,#93,#96,#101,#108,#111,#114,#117));
#119=IFCFACETEDBREP(#118);
#120=IFCSHAPEREPRESENTATION(#24,'Body','Brep',(#119));
#121=IFCPRODUCTDEFINITIONSHAPE($,$,(#120));
#122=IFCSIUNIT(*,.AREAUNIT.,$,.SQUARE_METRE.);
#123=IFCSPACE('3BWdP87i9Ef9$qXUk0Qt5_',#18,'132',$,$,#56,#121,'room',.ELEMENT.,.NOTDEFINED.,$);
#124=IFCSPACETYPE('3BWdP87i9Ef9$qZUk0Qt5_',#18,'room 132:1612841',$,$,$,$,'1612841',$,.NOTDEFINED.,$);
#125=IFCPROPERTYSINGLEVALUE('Reference',$,IFCIDENTIFIER('room 132'),$);
#126=IFCPROPERTYSET('3pKBjU967l5MwYvUMLmL0R',#18,'Pset_SpaceCommon',$,(#45,#125));
#127=IFCPROPERTYSET('2MRn3RVfV1XtNtToRpFYQq',#18,'Pset_SpaceHeaterTypeCommon',$,(#125));
#128=IFCRELDEFINESBYPROPERTIES('2K5AHPLhqRFwARqi9lX5Cl',#18,$,$,(#123),#126);
#129=IFCRELDEFINESBYPROPERTIES('33ADVs97TQqyQDBRnR$Gjl',#18,$,$,(#123),#127);
#130=IFCAXIS2PLACEMENT3D(#3,$,$);
#131=IFCLOCALPLACEMENT(#34,#130);
#132=IFCCARTESIANPOINT((-2.2737367544323206E-13,3.1832314562052488E-12));
#133=IFCAXIS2PLACEMENT2D(#132,#11);
#134=IFCRECTANGLEPROFILEDEF(.AREA.,$,#133,4300.0000000000009,4699.9999999999827);
#135=IFCCARTESIANPOINT((-6550.,2350.,0.));
#136=IFCAXIS2PLACEMENT3D(#135,#9,#7);
#137=IFCEXTRUDEDAREASOLID(#134,#136,#9,2695.2000000000003);
#138=IFCSIUNIT(*,.PLANEANGLEUNIT.,$,.RADIAN.);
#139=IFCDIMENSIONALEXPONENTS(0,0,0,0,0,0,0);
#140=IFCMEASUREWITHUNIT(IFCPLANEANGLEMEASURE(0.017453292519943278),#138);
#141=IFCCONVERSIONBASEDUNIT(#139,.PLANEANGLEUNIT.,'DEGREE',#140);
#142=IFCSHAPEREPRESENTATION(#24,'Body','SweptSolid',(#137));
#143=IFCPRODUCTDEFINITIONSHAPE($,$,(#142));
#144=IFCSPACE('3BWdP87i9Ef9$qXUk0Qt7F',#18,'133',$,$,#131,#143,'room',.ELEMENT.,.NOTDEFINED.,$);
#145=IFCSPACETYPE('3BWdP87i9Ef9$qZUk0Qt7F',#18,'room 133:1612952',$,$,$,$,'1612952',$,.NOTDEFINED.,$);
#146=IFCPROPERTYSINGLEVALUE('Reference',$,IFCIDENTIFIER('room 133'),$);
#147=IFCPROPERTYSET('2qvF$W$nW_sXCMp9igF$Jt',#18,'Pset_SpaceCommon',$,(#45,#146));
#148=IFCPROPERTYSET('36mFFiLClyVOcmXLjPxZXi',#18,'Pset_SpaceHeaterTypeCommon',$,(#146));
#149=IFCRELDEFINESBYPROPERTIES('3kpxiiYK$nZ2jcda0loHuU',#18,$,$,(#144),#147);
#150=IFCRELDEFINESBYPROPERTIES('1XyURIowxh56yB_jZRMW4f',#18,$,$,(#144),#148);
#151=IFCCARTESIANPOINT((4000.,100.,0.));
#152=IFCAXIS2PLACEMENT3D(#151,$,$);
#153=IFCLOCALPLACEMENT(#34,#152);
#154=IFCCARTESIANPOINT((5100.,0.));
#155=IFCPOLYLINE((#4,#154));
#156=IFCSHAPEREPRESENTATION(#23,'Axis','Curve2D',(#155));
#157=IFCCARTESIANPOINT((2550.0000000000009,-2.1316282072803006E-14));
#158=IFCAXIS2PLACEMENT2D(#157,#12);
#159=IFCRECTANGLEPROFILEDEF(.AREA.,$,#158,5100.0000000000018,200.);
#160=IFCAXIS2PLACEMENT3D(#3,$,$);
#161=IFCEXTRUDEDAREASOLID(#159,#160,#9,2700.);
#162=IFCCOLOURRGB($,0.75294117647058822,0.75294117647058822,0.75294117647058822);
#163=IFCSURFACESTYLERENDERING(#162,0.,$,$,$,$,IFCNORMALISEDRATIOMEASURE(0.5),IFCSPECULAREXPONENT(10.),.NOTDEFINED.);
#164=IFCSURFACESTYLE('Default Wall',.BOTH.,(#163));
#165=IFCSTYLEDITEM(#161,(#164),$);
#166=IFCSHAPEREPRESENTATION(#24,'Body','SweptSolid',(#161));
#167=IFCPRODUCTDEFINITIONSHAPE($,$,(#156,#166));
#168=IFCWALL('3BWdP87i9Ef9$qXUk0QtZE',#18,'Basic Wall:Generic - 200mm:1611161',$,'Basic Wall:Generic - 200mm',#153,#167,'1611161',.NOTDEFINED.);
#169=IFCMATERIAL('Default Wall',$,'Miscellaneous');
#170=IFCSTYLEDITEM($,(#164),$);
#171=IFCSTYLEDREPRESENTATION(#22,'Style','Material',(#170));
#172=IFCMATERIALDEFINITIONREPRESENTATION($,$,(#171),#169);
#173=IFCMATERIALLAYER(#169,200.,$,'Layer',$,'Miscellaneous',$);
#174=IFCMATERIALLAYERSET((#173),'Basic Wall:Generic - 200mm',$);
#175=IFCWALLTYPE('1xZrMVYp52mhf4uMzw11Hk',#18,'Basic Wall:Generic - 200mm',$,$,(#189),$,'441451',$,.STANDARD.);
#176=IFCPROPERTYSINGLEVALUE('Reference',$,IFCIDENTIFIER('Generic - 200mm'),$);
#177=IFCPROPERTYSET('1735SIrQKwN2CGvfp1jRlu',#18,'Pset_EnvironmentalImpactIndicators',$,(#176));
#178=IFCPROPERTYSINGLEVALUE('Reference',$,IFCLABEL('Generic - 200mm'),$);
#179=IFCPROPERTYSET('2KVYgM5YsNhlsQDf7LOtIF',#18,'Pset_ReinforcementBarPitchOfWall',$,(#178));
#180=IFCPROPERTYSINGLEVALUE('IsExternal',$,IFCBOOLEAN(.T.),$);
#181=IFCPROPERTYSINGLEVALUE('LoadBearing',$,IFCBOOLEAN(.F.),$);
#182=IFCPROPERTYSINGLEVALUE('ExtendToStructure',$,IFCBOOLEAN(.F.),$);
#183=IFCPROPERTYSET('1pxbEQAuhkAUXIWRK_AMfp',#18,'Pset_WallCommon',$,(#176,#180,#181,#182));
#184=IFCRELDEFINESBYPROPERTIES('1cDiolv8m$N5hpboBG8XOl',#18,$,$,(#168),#177);
#185=IFCRELDEFINESBYPROPERTIES('261lE4m108YXaBLRMrKqNx',#18,$,$,(#168),#179);
#186=IFCRELDEFINESBYPROPERTIES('0HjrH_A8mocs7uv4zpa$2O',#18,$,$,(#168),#183);
#187=IFCCLASSIFICATIONREFERENCE('https://www.csiresources.org/standards/uniformat','B2010','Exterior Walls',#28,'',$);
#188=IFCPROPERTYSINGLEVALUE('Description',$,IFCTEXT('Generic Wall (Material By Category), 200mm thick'),$);
#189=IFCPROPERTYSET('2L7lvTstnIeeydfwzfZZLR',#18,'Pset_ReinforcementBarPitchOfWall',$,(#188));
#190=IFCCARTESIANPOINT((4100.,3500.,0.));
#191=IFCAXIS2PLACEMENT3D(#190,#9,#8);
#192=IFCLOCALPLACEMENT(#34,#191);
#193=IFCCARTESIANPOINT((3300.,-0.));
#194=IFCPOLYLINE((#4,#193));
#195=IFCSHAPEREPRESENTATION(#23,'Axis','Curve2D',(#194));
#196=IFCCARTESIANPOINT((1650.0000000000182,-3.5527136788005009E-14));
#197=IFCAXIS2PLACEMENT2D(#196,#12);
#198=IFCRECTANGLEPROFILEDEF(.AREA.,$,#197,3300.0000000000364,200.);
#199=IFCAXIS2PLACEMENT3D(#3,$,$);
#200=IFCEXTRUDEDAREASOLID(#198,#199,#9,2700.);
#201=IFCSTYLEDITEM(#200,(#164),$);
#202=IFCSHAPEREPRESENTATION(#24,'Body','SweptSolid',(#200));
#203=IFCPRODUCTDEFINITIONSHAPE($,$,(#195,#202));
#204=IFCWALL('3BWdP87i9Ef9$qXUk0QtfL',#18,'Basic Wall:Generic - 200mm:1611522',$,'Basic Wall:Generic - 200mm',#192,#203,'1611522',.NOTDEFINED.);
#205=IFCPROPERTYSET('2NCZln9z90jZ0ziND6iiTC',#18,'Pset_EnvironmentalImpactIndicators',$,(#176));
#206=IFCPROPERTYSINGLEVALUE('Reference',$,IFCLABEL('Generic - 200mm'),$);
#207=IFCPROPERTYSET('2B$8PrvvJraqTtvI1Ih96a',#18,'Pset_ReinforcementBarPitchOfWall',$,(#206));
#208=IFCPROPERTYSET('2NpMF0Ra$X5hs1NFpdGXra',#18,'Pset_WallCommon',$,(#176,#180,#181,#182));
#209=IFCRELDEFINESBYPROPERTIES('3Gr6VdzOV082jOXrfuM9rD',#18,$,$,(#204),#205);
#210=IFCRELDEFINESBYPROPERTIES('1_FohTNIcpSY2fHDq834ml',#18,$,$,(#204),#207);
#211=IFCRELDEFINESBYPROPERTIES('1eD23GFASbtZQf0X0xAR3w',#18,$,$,(#204),#208);
#212=IFCCARTESIANPOINT((9100.,4600.,0.));
#213=IFCAXIS2PLACEMENT3D(#212,#9,#6);
#214=IFCLOCALPLACEMENT(#34,#213);
#215=IFCCARTESIANPOINT((5100.,0.));
#216=IFCPOLYLINE((#4,#215));
#217=IFCSHAPEREPRESENTATION(#23,'Axis','Curve2D',(#216));
#218=IFCCARTESIANPOINT((2550.0000000000018,1.1368683772161603E-13));
#219=IFCAXIS2PLACEMENT2D(#218,#12);
#220=IFCRECTANGLEPROFILEDEF(.AREA.,$,#219,5100.0000000000036,200.);
#221=IFCAXIS2PLACEMENT3D(#3,$,$);
#222=IFCEXTRUDEDAREASOLID(#220,#221,#9,2700.);
#223=IFCSTYLEDITEM(#222,(#164),$);
#224=IFCSHAPEREPRESENTATION(#24,'Body','SweptSolid',(#222));
#225=IFCPRODUCTDEFINITIONSHAPE($,$,(#217,#224));
#226=IFCWALL('3BWdP87i9Ef9$qXUk0QtIo',#18,'Basic Wall:Generic - 200mm:1612261',$,'Basic Wall:Generic - 200mm',#214,#225,'1612261',.NOTDEFINED.);
#227=IFCPROPERTYSET('1Rnld6Rpmtn8siZk2CfvHf',#18,'Pset_EnvironmentalImpactIndicators',$,(#176));
#228=IFCPROPERTYSINGLEVALUE('Reference',$,IFCLABEL('Generic - 200mm'),$);
#229=IFCPROPERTYSET('0iTrBuc_KdTlme6cn3oGWs',#18,'Pset_ReinforcementBarPitchOfWall',$,(#228));
#230=IFCPROPERTYSET('2sQtwgsL1Df9PJCmL$4RbM',#18,'Pset_WallCommon',$,(#176,#180,#181,#182));
#231=IFCRELDEFINESBYPROPERTIES('0mC7e$Bdq6dfC3X0k$e4Su',#18,$,$,(#226),#227);
#232=IFCRELDEFINESBYPROPERTIES('0uCUXx3RV9X7iPx_e8ApOr',#18,$,$,(#226),#229);
#233=IFCRELDEFINESBYPROPERTIES('0jHV8fv59jA9U2YuTu7vs1',#18,$,$,(#226),#230);
#234=IFCCARTESIANPOINT((9000.,1200.,0.));
#235=IFCAXIS2PLACEMENT3D(#234,#9,#7);
#236=IFCLOCALPLACEMENT(#34,#235);
#237=IFCCARTESIANPOINT((3300.,0.));
#238=IFCPOLYLINE((#4,#237));
#239=IFCSHAPEREPRESENTATION(#23,'Axis','Curve2D',(#238));
#240=IFCCARTESIANPOINT((1649.9999999999998,1.4210854715202004E-13));
#241=IFCAXIS2PLACEMENT2D(#240,#12);
#242=IFCRECTANGLEPROFILEDEF(.AREA.,$,#241,3299.9999999999995,200.);
#243=IFCAXIS2PLACEMENT3D(#3,$,$);
#244=IFCEXTRUDEDAREASOLID(#242,#243,#9,2700.);
#245=IFCSTYLEDITEM(#244,(#164),$);
#246=IFCSHAPEREPRESENTATION(#24,'Body','SweptSolid',(#244));
#247=IFCPRODUCTDEFINITIONSHAPE($,$,(#239,#246));
#248=IFCWALL('3BWdP87i9Ef9$qXUk0QtIn',#18,'Basic Wall:Generic - 200mm:1612262',$,'Basic Wall:Generic - 200mm',#236,#247,'1612262',.NOTDEFINED.);
#249=IFCPROPERTYSET('1XKVunZ6pjd3JGdcnNLiUU',#18,'Pset_EnvironmentalImpactIndicators',$,(#176));
#250=IFCPROPERTYSINGLEVALUE('Reference',$,IFCLABEL('Generic - 200mm'),$);
#251=IFCPROPERTYSET('3D55CqpN1VW5s1MKuGe5$t',#18,'Pset_ReinforcementBarPitchOfWall',$,(#250));
#252=IFCPROPERTYSET('0RwYKLedftHjuT_nJEqX9J',#18,'Pset_WallCommon',$,(#176,#180,#181,#182));
#253=IFCRELDEFINESBYPROPERTIES('0IiMQ1IV7IatyUTYv2L9F4',#18,$,$,(#248),#249);
#254=IFCRELDEFINESBYPROPERTIES('35A5v6FIaoU3yCU6S03qKI',#18,$,$,(#248),#251);
#255=IFCRELDEFINESBYPROPERTIES('0tjyeAL3lLX5QxvBN3fqgp',#18,$,$,(#248),#252);
#256=IFCAXIS2PLACEMENT3D(#3,$,$);
#257=IFCLOCALPLACEMENT(#38,#256);
#258=IFCCARTESIANPOINT((0.,-4.5474735088646412E-13));
#259=IFCAXIS2PLACEMENT2D(#258,#11);
#260=IFCRECTANGLEPROFILEDEF(.AREA.,$,#259,4699.9999999999936,5100.0000000000091);
#261=IFCCARTESIANPOINT((6550.,2350.,0.));
#262=IFCAXIS2PLACEMENT3D(#261,#10,#7);
#263=IFCEXTRUDEDAREASOLID(#260,#262,#9,304.80000000000001);
#264=IFCCARTESIANPOINT((-1.1368683772161603E-13,1.6484591469634324E-12));
#265=IFCAXIS2PLACEMENT2D(#264,#11);
#266=IFCRECTANGLEPROFILEDEF(.AREA.,$,#265,2300.0000000000282,1699.9999999999893);
#267=IFCCARTESIANPOINT((6550.,2350.,-304.80000000000001));
#268=IFCAXIS2PLACEMENT3D(#267,#9,#7);
#269=IFCEXTRUDEDAREASOLID(#266,#268,#9,304.80000000000001);
#270=IFCBOOLEANRESULT(.DIFFERENCE.,#263,#269);
#271=IFCCOLOURRGB($,0.50196078431372548,0.50196078431372548,0.50196078431372548);
#272=IFCSURFACESTYLERENDERING(#271,0.,$,$,$,$,IFCNORMALISEDRATIOMEASURE(0.5),IFCSPECULAREXPONENT(10.),.NOTDEFINED.);
#273=IFCSURFACESTYLE('Default Floor',.BOTH.,(#272));
#274=IFCSTYLEDITEM(#263,(#273),$);
#275=IFCSHAPEREPRESENTATION(#24,'Body','SweptSolid',(#270));
#276=IFCPRODUCTDEFINITIONSHAPE($,$,(#275));
#277=IFCSLAB('3BWdP87i9Ef9$qXUk0Qt4B',#18,'Floor:Generic - 12":1612892',$,'Floor:Generic - 12"',#257,#276,'1612892',.FLOOR.);
#278=IFCCARTESIANPOINT((0.,0.));
#279=IFCAXIS2PLACEMENT2D(#278,#11);
#280=IFCRECTANGLEPROFILEDEF(.AREA.,$,#279,1699.9999999999925,2300.0000000000282);
#281=IFCCARTESIANPOINT((6550.,2350.,-304.80000000000001));
#282=IFCAXIS2PLACEMENT3D(#281,#9,#6);
#283=IFCEXTRUDEDAREASOLID(#280,#282,#9,304.80000000000001);
#284=IFCSHAPEREPRESENTATION(#24,'Body','SweptSolid',(#283));
#285=IFCPRODUCTDEFINITIONSHAPE($,$,(#284));
#286=IFCAXIS2PLACEMENT3D(#3,$,$);
#287=IFCLOCALPLACEMENT(#257,#286);
#288=IFCOPENINGELEMENT('2bXfzUGbnwYKidlvZeIg_b',#18,'Floor:Generic - 12":441449',$,$,#287,#285,'1614913',.OPENING.);
#289=IFCRELVOIDSELEMENT('3CsGsuX$S0IwnGAbWmXAie',#18,$,$,#277,#288);
#290=IFCSLABTYPE('1xZrMVYp52mhf4uMzw11Hi',#18,'Floor:Generic - 12"',$,$,(#314),$,'441449',$,.FLOOR.);
#291=IFCMATERIAL('Default Floor',$,'Miscellaneous');
#292=IFCSTYLEDITEM($,(#273),$);
#293=IFCSTYLEDREPRESENTATION(#22,'Style','Material',(#292));
#294=IFCMATERIALDEFINITIONREPRESENTATION($,$,(#293),#291);
#295=IFCMATERIALLAYER(#291,304.80000000000001,$,'Layer',$,'Miscellaneous',$);
#296=IFCMATERIALLAYERSET((#295),'Floor:Generic - 12"',$);
#297=IFCMATERIALLAYERSETUSAGE(#296,.AXIS3.,.POSITIVE.,0.,$);
#298=IFCPROPERTYSINGLEVALUE('Reference',$,IFCIDENTIFIER('Generic - 12"'),$);
#299=IFCPROPERTYSET('3$_wuj0wczexw0trzsz49l',#18,'Pset_EnvironmentalImpactIndicators',$,(#298));
#300=IFCPROPERTYSINGLEVALUE('Reference',$,IFCLABEL('Generic - 12"'),$);
#301=IFCPROPERTYSET('2tX5t5XWtOpLXmxA1BxgV4',#18,'Pset_ReinforcementBarPitchOfSlab',$,(#300));
#302=IFCPROPERTYSINGLEVALUE('PitchAngle',$,IFCPLANEANGLEMEASURE(0.),$);
#303=IFCPROPERTYSINGLEVALUE('LoadBearing',$,IFCBOOLEAN(.T.),$);
#304=IFCPROPERTYSET('1$ue$m6HJ$OvEHQh3YzhOB',#18,'Pset_SlabCommon',$,(#45,#298,#302,#303));
#305=IFCPROPERTYSET('1Pt9HjnPrIRsjWBpiIsh$D',#18,'Pset_EnvironmentalImpactIndicators',$,(#298));
#306=IFCPROPERTYSET('0YRuNp4G5k1xadWULSUG5R',#18,'Pset_OpeningElementCommon',$,(#298));
#307=IFCRELDEFINESBYPROPERTIES('2HIJTSuFAlnQrB63DixhGD',#18,$,$,(#277),#299);
#308=IFCRELDEFINESBYPROPERTIES('1BJivAdJLfJuG4WPL6fsoc',#18,$,$,(#277),#301);
#309=IFCRELDEFINESBYPROPERTIES('3IyREIARfzZjxvFx$CXtG1',#18,$,$,(#277),#304);
#310=IFCRELDEFINESBYPROPERTIES('3zZvtYLlutNrstA9JYJ9Bb',#18,$,$,(#288),#305);
#311=IFCRELDEFINESBYPROPERTIES('0kAptU83x$uSEANUspiDUz',#18,$,$,(#288),#306);
#312=IFCCLASSIFICATIONREFERENCE('https://www.csiresources.org/standards/uniformat','B1010','Floor Construction',#28,'',$);
#313=IFCPROPERTYSINGLEVALUE('Description',$,IFCTEXT('Generic Floor (Material By Category), 12" thick'),$);
#314=IFCPROPERTYSET('08jeqqdMvr9oQ2sJw84keo',#18,'Pset_ReinforcementBarPitchOfSlab',$,(#313));
#315=IFCCARTESIANPOINT((-7000.,100.,0.));
#316=IFCAXIS2PLACEMENT3D(#315,$,$);
#317=IFCLOCALPLACEMENT(#34,#316);
#318=IFCCARTESIANPOINT((5000.,0.));
#319=IFCPOLYLINE((#4,#318));
#320=IFCSHAPEREPRESENTATION(#23,'Axis','Curve2D',(#319));
#321=IFCCARTESIANPOINT((2500.0000000000009,-1.4210854715202004E-14));
#322=IFCAXIS2PLACEMENT2D(#321,#12);
#323=IFCRECTANGLEPROFILEDEF(.AREA.,$,#322,5000.0000000000018,200.);
#324=IFCAXIS2PLACEMENT3D(#3,$,$);
#325=IFCEXTRUDEDAREASOLID(#323,#324,#9,2700.);
#326=IFCSTYLEDITEM(#325,(#164),$);
#327=IFCSHAPEREPRESENTATION(#24,'Body','SweptSolid',(#325));
#328=IFCPRODUCTDEFINITIONSHAPE($,$,(#320,#327));
#329=IFCWALL('3BWdP87i9Ef9$qXUk0Qt75',#18,'Basic Wall:Generic - 200mm:1612946',$,'Basic Wall:Generic - 200mm',#317,#328,'1612946',.NOTDEFINED.);
#330=IFCPROPERTYSET('260uMArssRig1F2xmigb_M',#18,'Pset_EnvironmentalImpactIndicators',$,(#176));
#331=IFCPROPERTYSINGLEVALUE('Reference',$,IFCLABEL('Generic - 200mm'),$);
#332=IFCPROPERTYSET('08_hTn$DyCeoVCSJPv4NXE',#18,'Pset_ReinforcementBarPitchOfWall',$,(#331));
#333=IFCPROPERTYSET('1sSXsyaZZi3bJEbQCSMq$M',#18,'Pset_WallCommon',$,(#176,#180,#181,#182));
#334=IFCRELDEFINESBYPROPERTIES('00Yp$ihp$eKxSQGb$hw6S8',#18,$,$,(#329),#330);
#335=IFCRELDEFINESBYPROPERTIES('1PQ6FPCeLn2KNUQWYQsK7A',#18,$,$,(#329),#332);
#336=IFCRELDEFINESBYPROPERTIES('3jmzV3Ij2_5EoVev6iVnE_',#18,$,$,(#329),#333);
#337=IFCCARTESIANPOINT((-9000.,2600.,0.));
#338=IFCAXIS2PLACEMENT3D(#337,#9,#8);
#339=IFCLOCALPLACEMENT(#34,#338);
#340=IFCCARTESIANPOINT((2600.,-0.));
#341=IFCPOLYLINE((#4,#340));
#342=IFCSHAPEREPRESENTATION(#23,'Axis','Curve2D',(#341));
#343=IFCCARTESIANPOINT((1299.999999999998,-6.3948846218409017E-14));
#344=IFCAXIS2PLACEMENT2D(#343,#12);
#345=IFCRECTANGLEPROFILEDEF(.AREA.,$,#344,2599.9999999999955,200.);
#346=IFCAXIS2PLACEMENT3D(#3,$,$);
#347=IFCEXTRUDEDAREASOLID(#345,#346,#9,2700.);
#348=IFCSTYLEDITEM(#347,(#164),$);
#349=IFCSHAPEREPRESENTATION(#24,'Body','SweptSolid',(#347));
#350=IFCPRODUCTDEFINITIONSHAPE($,$,(#342,#349));
#351=IFCWALL('3BWdP87i9Ef9$qXUk0Qt74',#18,'Basic Wall:Generic - 200mm:1612947',$,'Basic Wall:Generic - 200mm',#339,#350,'1612947',.NOTDEFINED.);
#352=IFCPROPERTYSET('3GHi6Rgsh1CF5Ury1MX7g$',#18,'Pset_EnvironmentalImpactIndicators',$,(#176));
#353=IFCPROPERTYSINGLEVALUE('Reference',$,IFCLABEL('Generic - 200mm'),$);
#354=IFCPROPERTYSET('3ie$HOPyMS0t0KN8NThR46',#18,'Pset_ReinforcementBarPitchOfWall',$,(#353));
#355=IFCPROPERTYSET('3aBbZ4khP$s2kUCIuS6pL8',#18,'Pset_WallCommon',$,(#176,#180,#181,#182));
#356=IFCRELDEFINESBYPROPERTIES('1j1AW2$UR3i6WdmF7ESIO3',#18,$,$,(#351),#352);
#357=IFCRELDEFINESBYPROPERTIES('1ffxaxy3hX0nYpvAjc3qGG',#18,$,$,(#351),#354);
#358=IFCRELDEFINESBYPROPERTIES('3zhKIUsI33OZ0TadrETHgC',#18,$,$,(#351),#355);
#359=IFCCARTESIANPOINT((-6100.,4600.,0.));
#360=IFCAXIS2PLACEMENT3D(#359,#9,#6);
#361=IFCLOCALPLACEMENT(#34,#360);
#362=IFCCARTESIANPOINT((5000.,0.));
#363=IFCPOLYLINE((#4,#362));
#364=IFCSHAPEREPRESENTATION(#23,'Axis','Curve2D',(#363));
#365=IFCCARTESIANPOINT((2500.,1.7763568394002505E-13));
#366=IFCAXIS2PLACEMENT2D(#365,#12);
#367=IFCRECTANGLEPROFILEDEF(.AREA.,$,#366,5000.,200.);
#368=IFCAXIS2PLACEMENT3D(#3,$,$);
#369=IFCEXTRUDEDAREASOLID(#367,#368,#9,2700.);
#370=IFCSTYLEDITEM(#369,(#164),$);
#371=IFCSHAPEREPRESENTATION(#24,'Body','SweptSolid',(#369));
#372=IFCPRODUCTDEFINITIONSHAPE($,$,(#364,#371));
#373=IFCWALL('3BWdP87i9Ef9$qXUk0Qt73',#18,'Basic Wall:Generic - 200mm:1612948',$,'Basic Wall:Generic - 200mm',#361,#372,'1612948',.NOTDEFINED.);
#374=IFCPROPERTYSET('1W44uqbNMIlMyJFDRkO$eP',#18,'Pset_EnvironmentalImpactIndicators',$,(#176));
#375=IFCPROPERTYSINGLEVALUE('Reference',$,IFCLABEL('Generic - 200mm'),$);
#376=IFCPROPERTYSET('0TMwH1sm6US2yyc7FzmSUF',#18,'Pset_ReinforcementBarPitchOfWall',$,(#375));
#377=IFCPROPERTYSET('3gufgD3u_AIeaU0Z15h_Z1',#18,'Pset_WallCommon',$,(#176,#180,#181,#182));
#378=IFCRELDEFINESBYPROPERTIES('3K9ukou2n7xMKzVYZrg684',#18,$,$,(#373),#374);
#379=IFCRELDEFINESBYPROPERTIES('2sOr3JkbskZIzSuoXfJlBG',#18,$,$,(#373),#376);
#380=IFCRELDEFINESBYPROPERTIES('1sQ70e$uxI6jwoXRAGQOZK',#18,$,$,(#373),#377);
#381=IFCCARTESIANPOINT((-4100.,2100.,0.));
#382=IFCAXIS2PLACEMENT3D(#381,#9,#7);
#383=IFCLOCALPLACEMENT(#34,#382);
#384=IFCCARTESIANPOINT((2600.,0.));
#385=IFCPOLYLINE((#4,#384));
#386=IFCSHAPEREPRESENTATION(#23,'Axis','Curve2D',(#385));
#387=IFCCARTESIANPOINT((1300.0000000000007,5.6843418860808015E-14));
#388=IFCAXIS2PLACEMENT2D(#387,#12);
#389=IFCRECTANGLEPROFILEDEF(.AREA.,$,#388,2600.0000000000014,200.);
#390=IFCAXIS2PLACEMENT3D(#3,$,$);
#391=IFCEXTRUDEDAREASOLID(#389,#390,#9,2700.);
#392=IFCSTYLEDITEM(#391,(#164),$);
#393=IFCSHAPEREPRESENTATION(#24,'Body','SweptSolid',(#391));
#394=IFCPRODUCTDEFINITIONSHAPE($,$,(#386,#393));
#395=IFCWALL('3BWdP87i9Ef9$qXUk0Qt72',#18,'Basic Wall:Generic - 200mm:1612949',$,'Basic Wall:Generic - 200mm',#383,#394,'1612949',.NOTDEFINED.);
#396=IFCPROPERTYSET('3jHope0mWLAq_s5DPWVnCP',#18,'Pset_EnvironmentalImpactIndicators',$,(#176));
#397=IFCPROPERTYSINGLEVALUE('Reference',$,IFCLABEL('Generic - 200mm'),$);
#398=IFCPROPERTYSET('3h217RRpoR_87Sq55s3zC8',#18,'Pset_ReinforcementBarPitchOfWall',$,(#397));
#399=IFCPROPERTYSET('2naDa3jI4tKr4zj$LJSb4f',#18,'Pset_WallCommon',$,(#176,#180,#181,#182));
#400=IFCRELDEFINESBYPROPERTIES('1ifMQsqvSUNoUtWr4hGK89',#18,$,$,(#395),#396);
#401=IFCRELDEFINESBYPROPERTIES('130PrGR$DErqoV2be0G4j9',#18,$,$,(#395),#398);
#402=IFCRELDEFINESBYPROPERTIES('2y3$RMQ_opx3KZ$IHP4FER',#18,$,$,(#395),#399);
#403=IFCAXIS2PLACEMENT3D(#3,$,$);
#404=IFCLOCALPLACEMENT(#38,#403);
#405=IFCCARTESIANPOINT((0.,4.5474735088646412E-13));
#406=IFCAXIS2PLACEMENT2D(#405,#11);
#407=IFCRECTANGLEPROFILEDEF(.AREA.,$,#406,4699.9999999999936,5100.0000000000091);
#408=IFCCARTESIANPOINT((-6550.,2350.,0.));
#409=IFCAXIS2PLACEMENT3D(#408,#10,#7);
#410=IFCEXTRUDEDAREASOLID(#407,#409,#9,304.80000000000001);
#411=IFCSTYLEDITEM(#410,(#273),$);
#412=IFCSHAPEREPRESENTATION(#24,'Body','SweptSolid',(#410));
#413=IFCPRODUCTDEFINITIONSHAPE($,$,(#412));
#414=IFCSLAB('3BWdP87i9Ef9$qXUk0Qt1L',#18,'Floor:Generic - 12":1613058',$,'Floor:Generic - 12"',#404,#413,'1613058',.FLOOR.);
#415=IFCMATERIALLAYERSETUSAGE(#296,.AXIS3.,.POSITIVE.,0.,$);
#416=IFCPROPERTYSET('1IwU$BdG8DdcDYF6Qyj3nR',#18,'Pset_EnvironmentalImpactIndicators',$,(#298));
#417=IFCPROPERTYSINGLEVALUE('Reference',$,IFCLABEL('Generic - 12"'),$);
#418=IFCPROPERTYSET('0tCQxOJSh3owr3bAJjcwpI',#18,'Pset_ReinforcementBarPitchOfSlab',$,(#417));
#419=IFCPROPERTYSET('3xAvM5uCQDYgQYiUCefnIx',#18,'Pset_SlabCommon',$,(#45,#298,#302,#303));
#420=IFCRELDEFINESBYPROPERTIES('21d9wNTnfNwEAkNOb3zy9c',#18,$,$,(#414),#416);
#421=IFCRELDEFINESBYPROPERTIES('0KRqMkGPDq0JO00L4UJVLl',#18,$,$,(#414),#418);
#422=IFCRELDEFINESBYPROPERTIES('2Hv5ts0zu0DSKDbx5jADqn',#18,$,$,(#414),#419);
#423=IFCPROPERTYSINGLEVALUE('Reference',$,IFCIDENTIFIER('8mm Head'),$);
#424=IFCPROPERTYSINGLEVALUE('AboveGround',$,IFCLOGICAL(.U.),$);
#425=IFCPROPERTYSET('16L50AfyZF4hYq5TGET4H4',#18,'Pset_BuildingStoreyCommon',$,(#423,#424));
#426=IFCPROPERTYSET('2J7ac_h5ujdwWuzVwBIIta',#18,'Pset_SpaceCommon',$,(#45,#423));
#427=IFCRELDEFINESBYPROPERTIES('2VdfSfkgzGoZi_3SgzE8$0',#18,$,$,(#35),#425);
#428=IFCRELDEFINESBYPROPERTIES('3$YdOpA8iaPobC8MDiWxoI',#18,$,$,(#35),#426);
#429=IFCRELCONTAINEDINSPATIALSTRUCTURE('2JF4e6axWHqu3u0C5FZlmi',#18,$,$,(#168,#204,#226,#248,#329,#351,#373,#395),#35);
#430=IFCPROPERTYSET('1n34enW33Z_3Qq2Pm1kjQZ',#18,'Pset_BuildingStoreyCommon',$,(#423,#424));
#431=IFCPROPERTYSET('0qNc4$IaPwTvoqOd7IlIE4',#18,'Pset_SpaceCommon',$,(#45,#423));
#432=IFCRELDEFINESBYPROPERTIES('36oM8gyLQ5_Z6XoGK5uP1E',#18,$,$,(#39),#430);
#433=IFCRELDEFINESBYPROPERTIES('0jA6Vdz$3CfPvu_I1iTL6J',#18,$,$,(#39),#431);
#434=IFCRELCONTAINEDINSPATIALSTRUCTURE('1ZGO8hrFCHqw0v0066FpFv',#18,$,$,(#277,#414),#39);
#435=IFCRELAGGREGATES('2KFB6YYWgXBmucZ8cm7uCP',#18,$,$,#27,(#42));
#436=IFCRELAGGREGATES('16_hfJTeCqU7LcG8m10BTS',#18,$,$,#42,(#32));
#437=IFCRELAGGREGATES('2JF4e6axWHqu3u0C9FZlmi',#18,$,$,#35,(#123,#144));
#438=IFCRELAGGREGATES('1yhDISh1T5aQqAoygxGIhP',#18,$,$,#32,(#35,#39));
#439=IFCPROPERTYSINGLEVALUE('NumberOfStoreys',$,IFCCOUNTMEASURE(2),$);
#440=IFCPROPERTYSINGLEVALUE('IsLandmarked',$,IFCLOGICAL(.U.),$);
#441=IFCPROPERTYSET('01y_GmllCupEYuBgfGbhkd',#18,'Pset_BuildingCommon',$,(#43,#439,#440));
#442=IFCPROPERTYSET('1rUR7OGyIAkZT62xvibLnd',#18,'Pset_BuildingElementProxyCommon',$,(#43,#45));
#443=IFCPROPERTYSET('2kFDjjfIaTsBi7MLK$i$Me',#18,'Pset_BuildingStoreyCommon',$,(#43,#424));
#444=IFCPROPERTYSET('1TYvb3FgH88mtl04iE5P1T',#18,'Pset_BuildingSystemCommon',$,(#43));
#445=IFCPROPERTYSET('2W94HCj5xfigmNGtkBMklk',#18,'Pset_SpaceCommon',$,(#43,#45));
#446=IFCRELDEFINESBYPROPERTIES('0vDjba2fshDEh0_KufwWht',#18,$,$,(#32),#441);
#447=IFCRELDEFINESBYPROPERTIES('1V6UQfELB4oPy3GPEaJMPw',#18,$,$,(#32),#442);
#448=IFCRELDEFINESBYPROPERTIES('0Vpd75HttOMIhzXutBGgCt',#18,$,$,(#32),#443);
#449=IFCRELDEFINESBYPROPERTIES('22VMRBFW9n6_S81yWIP225',#18,$,$,(#32),#444);
#450=IFCRELDEFINESBYPROPERTIES('2w3bzVlKnfBVjA3_BjG2II',#18,$,$,(#32),#445);
#451=IFCRELASSOCIATESMATERIAL('14AnaxIMwUlICc$oKn0cGE',#18,$,$,(#277),#297);
#452=IFCRELASSOCIATESMATERIAL('31ODteGeqYe3mTR_$OKsSW',#18,$,$,(#414),#415);
#453=IFCRELASSOCIATESMATERIAL('22T9r9KB1F3JFgePfxkUGp',#18,$,$,(#168,#175,#204,#226,#248,#329,#351,#373,#395),#174);
#454=IFCRELASSOCIATESMATERIAL('0RkFpO4y91A56i7kETvvWZ',#18,$,$,(#290),#296);
#455=IFCRELDEFINESBYTYPE('1X3uvt60Y7I7mPakK1xm_g',#18,$,$,(#123),#124);
#456=IFCRELDEFINESBYTYPE('1meNlpW4dsBaPYRZev0qgj',#18,$,$,(#144),#145);
#457=IFCRELDEFINESBYTYPE('0MSq_ijuC5q4PUKv4QkOsA',#18,$,$,(#168,#204,#226,#248,#329,#351,#373,#395),#175);
#458=IFCRELDEFINESBYTYPE('3AVJtbOHyTnujdziMMd$qq',#18,$,$,(#277,#414),#290);
#459=IFCRELCONNECTSPATHELEMENTS('2tHZRVgx3S2k930weLkc_2',#18,'3BWdP87i9Ef9$qXUk0QtZE|3BWdP87i9Ef9$qXUk0QtfL','Structural',$,#168,#204,(),(),.ATEND.,.ATSTART.);
#460=IFCRELCONNECTSPATHELEMENTS('2_TZNXnelvIwEoSaDJ11kR',#18,'3BWdP87i9Ef9$qXUk0QtIo|3BWdP87i9Ef9$qXUk0QtIn','Structural',$,#226,#248,(),(),.ATEND.,.ATSTART.);
#461=IFCPRESENTATIONLAYERASSIGNMENT('A-AREA-____-OTLN',$,(#120,#142),$);
#462=IFCPRESENTATIONLAYERASSIGNMENT('A-WALL-____-OTLN',$,(#156,#166,#195,#202,#217,#224,#239,#246,#320,#327,#342,#349,#364,#371,#386,#393),$);
#463=IFCPRESENTATIONLAYERASSIGNMENT('A-FLOR-____-OTLN',$,(#275,#412),$);
#464=IFCRELASSOCIATESCLASSIFICATION('15kS_ZjgS4BJTf6DYycLwo',#18,'Exterior Walls','Exterior Walls:B2010',(#168,#204,#226,#248,#329,#351,#373,#395),#187);
#465=IFCRELASSOCIATESCLASSIFICATION('2cZ$Bx1iWPUSOa0UX1YlTc',#18,'Floor Construction','Floor Construction:B1010',(#277,#414),#312);
#466=IFCUNITASSIGNMENT((#19,#122,#141));
ENDSEC;

END-ISO-10303-21;