ISO-10303-21;
HEADER;
FILE_DESCRIPTION(('ViewDefinition [CoordinationView]','RevitIdentifiers [ContentGUID: cbb0ae2e-6350-4225-8ca4-af668662c38d, VersionGUID: 7eca4748-c685-4140-8de0-b312d22ae6ba, NumberOfSaves: 22]','CoordinateReference [CoordinateBase: Shared Coordinates]'),'2;1');
FILE_NAME('01_019.ifc','2026-01-06T12:12:45+01:00',(''),(''),'ODA SDAI 24.6','Autodesk Revit 24.3.30.11 (ENU) - IFC 24.3.30.11','');
FILE_SCHEMA(('IFC4X3'));
ENDSEC;

DATA;
#1=IFCORGANIZATION($,'Autodesk Revit 2024 (ENU)',$,$,$);
#2=IFCAPPLICATION(#1,'2024','Autodesk Revit 2024 (ENU)','Revit');
#3=IFCCARTESIANPOINT((0.,0.,0.));
#4=IFCCARTESIANPOINT((0.,0.));
#5=IFCDIRECTION((1.,0.,0.));
#6=IFCDIRECTION((-1.,0.,0.));
#7=IFCDIRECTION((0.,1.,0.));
#8=IFCDIRECTION((0.,-1.,0.));
#9=IFCDIRECTION((0.,0.,1.));
#10=IFCDIRECTION((0.,0.,-1.));
#11=IFCDIRECTION((1.,0.));
#12=IFCDIRECTION((-1.,0.));
#13=IFCDIRECTION((0.,1.));
#14=IFCDIRECTION((0.,-1.));
#15=IFCPERSON($,'','h.helming',$,$,$,$,$);
#16=IFCORGANIZATION($,'Organization Name','Organization Description',$,$);
#17=IFCPERSONANDORGANIZATION(#15,#16,$);
#18=IFCOWNERHISTORY(#17,#2,$,.NOCHANGE.,$,$,$,1767617715);
#19=IFCSIUNIT(*,.LENGTHUNIT.,.MILLI.,.METRE.);
#20=IFCAXIS2PLACEMENT3D(#3,$,$);
#21=IFCDIRECTION((6.1230317691118863E-17,1.));
#22=IFCGEOMETRICREPRESENTATIONCONTEXT($,'Model',3,0.01,#20,#21);
#23=IFCGEOMETRICREPRESENTATIONSUBCONTEXT('Axis','Model',*,*,*,*,#22,$,.GRAPH_VIEW.,$);
#24=IFCGEOMETRICREPRESENTATIONSUBCONTEXT('Body','Model',*,*,*,*,#22,$,.MODEL_VIEW.,$);
#25=IFCGEOMETRICREPRESENTATIONSUBCONTEXT('Box','Model',*,*,*,*,#22,$,.MODEL_VIEW.,$);
#26=IFCGEOMETRICREPRESENTATIONSUBCONTEXT('FootPrint','Model',*,*,*,*,#22,$,.MODEL_VIEW.,$);
#27=IFCPROJECT('3BiAukOr129OoahsPvdJnz',#18,'Project Number',$,$,'Project Name','Project Status',(#22),#1194);
#28=IFCCLASSIFICATION('CSI (Construction Specifications Institute)','1998',$,'Uniformat','UniFormat Classification','https://www.csiresources.org/standards/uniformat',$);
#29=IFCAXIS2PLACEMENT3D(#3,$,$);
#30=IFCLOCALPLACEMENT(#41,#29);
#31=IFCPOSTALADDRESS($,$,$,$,('Enter address hereAddress Line 2'),$,'','Boston','','MA');
#32=IFCBUILDING('3BiAukOr129OoahsPvdJny',#18,'Building Name',$,$,#30,$,'Building Name',.ELEMENT.,$,$,#31);
#33=IFCAXIS2PLACEMENT3D(#3,$,$);
#34=IFCLOCALPLACEMENT(#30,#33);
#35=IFCBUILDINGSTOREY('2JF4e6axWHqu3u0C1FZlmi',#18,'L1',$,'Level:8mm Head',#34,$,'L1',.ELEMENT.,0.);
#36=IFCCARTESIANPOINT((0.,0.,3000.));
#37=IFCAXIS2PLACEMENT3D(#36,$,$);
#38=IFCLOCALPLACEMENT(#30,#37);
#39=IFCBUILDINGSTOREY('1ZGO8hrFCHqw0v0026FpFv',#18,'L2',$,'Level:8mm Head',#38,$,'L2',.ELEMENT.,3000.);
#40=IFCAXIS2PLACEMENT3D(#3,$,$);
#41=IFCLOCALPLACEMENT($,#40);
#42=IFCSITE('3BiAukOr129OoahsPvdJn$',#18,'Default',$,$,#41,$,$,.ELEMENT.,(42,21,31,401672),(-71,-3,-24,-345703),0.,$,$);
#43=IFCPROPERTYSINGLEVALUE('Reference',$,IFCIDENTIFIER('Project Information'),$);
#44=IFCPROPERTYSET('2mFJcO6I01h0OYRLOICO3c',#18,'Pset_SiteCommon',$,(#43));
#45=IFCPROPERTYSINGLEVALUE('IsExternal',$,IFCBOOLEAN(.F.),$);
#46=IFCPROPERTYSET('0O$B2PbAODr9jYnpcaZGJT',#18,'Pset_SpaceCommon',$,(#43,#45));
#47=IFCRELDEFINESBYPROPERTIES('2fDrcjst0HFayqQ3dY1cGQ',#18,$,$,(#42),#44);
#48=IFCRELDEFINESBYPROPERTIES('1lYkP70lXSGXnZeJnLC8MY',#18,$,$,(#42),#46);
#55=IFCCARTESIANPOINT((100.,0.,0.));
#56=IFCAXIS2PLACEMENT3D(#55,#9,#8);
#57=IFCLOCALPLACEMENT(#34,#56);
#58=IFCCARTESIANPOINT((6900.,-0.));
#59=IFCPOLYLINE((#4,#58));
#60=IFCSHAPEREPRESENTATION(#23,'Axis','Curve2D',(#59));
#61=IFCSIUNIT(*,.AREAUNIT.,$,.SQUARE_METRE.);
#62=IFCCARTESIANPOINT((3450.0000000000014,0.));
#63=IFCAXIS2PLACEMENT2D(#62,#12);
#64=IFCRECTANGLEPROFILEDEF(.AREA.,$,#63,6900.0000000000027,200.);
#65=IFCAXIS2PLACEMENT3D(#3,$,$);
#66=IFCEXTRUDEDAREASOLID(#64,#65,#9,3000.);
#67=IFCCOLOURRGB($,0.75294117647058822,0.75294117647058822,0.75294117647058822);
#68=IFCSURFACESTYLERENDERING(#67,0.,$,$,$,$,IFCNORMALISEDRATIOMEASURE(0.5),IFCSPECULAREXPONENT(10.),.NOTDEFINED.);
#69=IFCSURFACESTYLE('Default Wall',.BOTH.,(#68));
#70=IFCSTYLEDITEM(#66,(#69),$);
#71=IFCSHAPEREPRESENTATION(#24,'Body','SweptSolid',(#66));
#72=IFCPRODUCTDEFINITIONSHAPE($,$,(#60,#71));
#73=IFCWALL('1mRYVM4YfFFBRkcbz1hHZ$',#18,'Basic Wall:Generic - 200mm:1602298',$,'Basic Wall:Generic - 200mm',#57,#72,'1602298',.NOTDEFINED.);
#74=IFCMATERIAL('Default Wall',$,'Miscellaneous');
#75=IFCSTYLEDITEM($,(#69),$);
#76=IFCSTYLEDREPRESENTATION(#22,'Style','Material',(#75));
#77=IFCMATERIALDEFINITIONREPRESENTATION($,$,(#76),#74);
#78=IFCMATERIALLAYER(#74,200.,$,'Layer',$,'Miscellaneous',$);
#79=IFCMATERIALLAYERSET((#78),'Basic Wall:Generic - 200mm',$);
#80=IFCWALLTYPE('1xZrMVYp52mhf4uMzw11Hk',#18,'Basic Wall:Generic - 200mm',$,$,(#94),$,'441451',$,.STANDARD.);
#81=IFCPROPERTYSINGLEVALUE('Reference',$,IFCIDENTIFIER('Generic - 200mm'),$);
#82=IFCPROPERTYSET('1I0TTt4AXcEqym4$ZoswMq',#18,'Pset_EnvironmentalImpactIndicators',$,(#81));
#83=IFCPROPERTYSINGLEVALUE('Reference',$,IFCLABEL('Generic - 200mm'),$);
#84=IFCPROPERTYSET('0BmZUMivTdpgi1bZPXdESi',#18,'Pset_ReinforcementBarPitchOfWall',$,(#83));
#85=IFCPROPERTYSINGLEVALUE('IsExternal',$,IFCBOOLEAN(.T.),$);
#86=IFCPROPERTYSINGLEVALUE('LoadBearing',$,IFCBOOLEAN(.F.),$);
#87=IFCPROPERTYSINGLEVALUE('ExtendToStructure',$,IFCBOOLEAN(.F.),$);
#88=IFCPROPERTYSET('0DVhIOhtj48LxOuziFsyyv',#18,'Pset_WallCommon',$,(#81,#85,#86,#87));
#89=IFCRELDEFINESBYPROPERTIES('3BmCvnUXaLpjjceQsNYVba',#18,$,$,(#73),#82);
#90=IFCRELDEFINESBYPROPERTIES('2zCeNjRZbWB2I0r8wpEFAG',#18,$,$,(#73),#84);
#91=IFCRELDEFINESBYPROPERTIES('06A09bBD21G7eUjWoSQoEG',#18,$,$,(#73),#88);
#92=IFCCLASSIFICATIONREFERENCE('https://www.csiresources.org/standards/uniformat','B2010','Exterior Walls',#28,'',$);
#93=IFCPROPERTYSINGLEVALUE('Description',$,IFCTEXT('Generic Wall (Material By Category), 200mm thick'),$);
#94=IFCPROPERTYSET('2L7lvTstnIeeydfwzfZZLR',#18,'Pset_ReinforcementBarPitchOfWall',$,(#93));
#95=IFCCARTESIANPOINT((200.,-6800.,0.));
#96=IFCAXIS2PLACEMENT3D(#95,$,$);
#97=IFCLOCALPLACEMENT(#34,#96);
#98=IFCCARTESIANPOINT((9000.,0.));
#99=IFCPOLYLINE((#4,#98));
#100=IFCSHAPEREPRESENTATION(#23,'Axis','Curve2D',(#99));
#101=IFCCARTESIANPOINT((4500.,0.));
#102=IFCAXIS2PLACEMENT2D(#101,#12);
#103=IFCRECTANGLEPROFILEDEF(.AREA.,$,#102,9000.,200.);
#104=IFCAXIS2PLACEMENT3D(#3,$,$);
#105=IFCEXTRUDEDAREASOLID(#103,#104,#9,3000.);
#106=IFCSTYLEDITEM(#105,(#69),$);
#107=IFCSHAPEREPRESENTATION(#24,'Body','SweptSolid',(#105));
#108=IFCPRODUCTDEFINITIONSHAPE($,$,(#100,#107));
#109=IFCWALL('1mRYVM4YfFFBRkcbz1hHaA',#18,'Basic Wall:Generic - 200mm:1602319',$,'Basic Wall:Generic - 200mm',#97,#108,'1602319',.NOTDEFINED.);
#110=IFCPROPERTYSET('1EfPmu0Yn6l2bQV7aU4PJO',#18,'Pset_EnvironmentalImpactIndicators',$,(#81));
#111=IFCPROPERTYSINGLEVALUE('Reference',$,IFCLABEL('Generic - 200mm'),$);
#112=IFCPROPERTYSET('3RHGbP7SMgGzD_ewsNn7pN',#18,'Pset_ReinforcementBarPitchOfWall',$,(#111));
#113=IFCPROPERTYSET('3k_PUFqeWTM_FOQQJCOj9T',#18,'Pset_WallCommon',$,(#81,#85,#86,#87));
#114=IFCRELDEFINESBYPROPERTIES('3IAqe7Wg2LB3jCA635Fqd9',#18,$,$,(#109),#110);
#115=IFCRELDEFINESBYPROPERTIES('3$SQl17YRVvrCETxJW3NZ0',#18,$,$,(#109),#112);
#116=IFCRELDEFINESBYPROPERTIES('29AFy4D5BE84XaG$76Wpsb',#18,$,$,(#109),#113);
#117=IFCCARTESIANPOINT((9100.,-6700.,0.));
#118=IFCAXIS2PLACEMENT3D(#117,#9,#7);
#119=IFCLOCALPLACEMENT(#34,#118);
#120=IFCCARTESIANPOINT((4000.,0.));
#121=IFCPOLYLINE((#4,#120));
#122=IFCSHAPEREPRESENTATION(#23,'Axis','Curve2D',(#121));
#123=IFCCARTESIANPOINT((1999.9999999999927,0.));
#124=IFCAXIS2PLACEMENT2D(#123,#12);
#125=IFCRECTANGLEPROFILEDEF(.AREA.,$,#124,3999.9999999999854,200.);
#126=IFCAXIS2PLACEMENT3D(#3,$,$);
#127=IFCEXTRUDEDAREASOLID(#125,#126,#9,3000.);
#128=IFCSTYLEDITEM(#127,(#69),$);
#129=IFCSHAPEREPRESENTATION(#24,'Body','SweptSolid',(#127));
#130=IFCPRODUCTDEFINITIONSHAPE($,$,(#122,#129));
#131=IFCWALL('1mRYVM4YfFFBRkcbz1hHa_',#18,'Basic Wall:Generic - 200mm:1602363',$,'Basic Wall:Generic - 200mm',#119,#130,'1602363',.NOTDEFINED.);
#132=IFCPROPERTYSET('3bj_7QWf72z3LKk8ODccSp',#18,'Pset_EnvironmentalImpactIndicators',$,(#81));
#133=IFCPROPERTYSINGLEVALUE('Reference',$,IFCLABEL('Generic - 200mm'),$);
#134=IFCPROPERTYSET('3XjWmKdrVKDnXT$7jhwmSs',#18,'Pset_ReinforcementBarPitchOfWall',$,(#133));
#135=IFCPROPERTYSET('0pmG$Vzk3pSe6Kg_ulys1J',#18,'Pset_WallCommon',$,(#81,#85,#86,#87));
#136=IFCRELDEFINESBYPROPERTIES('39mRiQUwAKh7xvYKsmuVt9',#18,$,$,(#131),#132);
#137=IFCRELDEFINESBYPROPERTIES('36hQfhuQsqURvz2z2T5qTl',#18,$,$,(#131),#134);
#138=IFCRELDEFINESBYPROPERTIES('2tLT6SUGHJQQPdTUVxDWpa',#18,$,$,(#131),#135);
#139=IFCCARTESIANPOINT((9000.,-2800.,0.));
#140=IFCAXIS2PLACEMENT3D(#139,#9,#6);
#141=IFCLOCALPLACEMENT(#34,#140);
#142=IFCCARTESIANPOINT((3700.,0.));
#143=IFCPOLYLINE((#4,#142));
#144=IFCSHAPEREPRESENTATION(#23,'Axis','Curve2D',(#143));
#145=IFCCARTESIANPOINT((1850.0000000000002,0.));
#146=IFCAXIS2PLACEMENT2D(#145,#12);
#147=IFCRECTANGLEPROFILEDEF(.AREA.,$,#146,3700.0000000000005,200.);
#148=IFCAXIS2PLACEMENT3D(#3,$,$);
#149=IFCEXTRUDEDAREASOLID(#147,#148,#9,3000.0000000000009);
#150=IFCSTYLEDITEM(#149,(#69),$);
#151=IFCSHAPEREPRESENTATION(#24,'Body','SweptSolid',(#149));
#152=IFCPRODUCTDEFINITIONSHAPE($,$,(#144,#151));
#153=IFCWALL('1mRYVM4YfFFBRkcbz1hHbM',#18,'Basic Wall:Generic - 200mm:1602387',$,'Basic Wall:Generic - 200mm',#141,#152,'1602387',.NOTDEFINED.);
#154=IFCPROPERTYSET('0tabx7p1zAkCZtarc5Lbb_',#18,'Pset_EnvironmentalImpactIndicators',$,(#81));
#155=IFCPROPERTYSINGLEVALUE('Reference',$,IFCLABEL('Generic - 200mm'),$);
#156=IFCPROPERTYSET('2gxy7q1QWI3IBVLRIBHwVh',#18,'Pset_ReinforcementBarPitchOfWall',$,(#155));
#157=IFCPROPERTYSET('15Jh1UKzc8BqQoZ9Bu_EA4',#18,'Pset_WallCommon',$,(#81,#85,#86,#87));
#158=IFCRELDEFINESBYPROPERTIES('1P0hNXzYe$BI6ij8i9RJ9E',#18,$,$,(#153),#154);
#159=IFCRELDEFINESBYPROPERTIES('1YgON3jL2iqmOiHPXjNlXZ',#18,$,$,(#153),#156);
#160=IFCRELDEFINESBYPROPERTIES('26bxUnBQt$GjNQ9kV$hUEa',#18,$,$,(#153),#157);
#161=IFCCARTESIANPOINT((5400.,-2700.,0.));
#162=IFCAXIS2PLACEMENT3D(#161,#9,#7);
#163=IFCLOCALPLACEMENT(#34,#162);
#164=IFCCARTESIANPOINT((2700.,0.));
#165=IFCPOLYLINE((#4,#164));
#166=IFCSHAPEREPRESENTATION(#23,'Axis','Curve2D',(#165));
#167=IFCCARTESIANPOINT((1349.9999999999986,1.9895196601282805E-13));
#168=IFCAXIS2PLACEMENT2D(#167,#12);
#169=IFCRECTANGLEPROFILEDEF(.AREA.,$,#168,2699.9999999999973,200.);
#170=IFCAXIS2PLACEMENT3D(#3,$,$);
#171=IFCEXTRUDEDAREASOLID(#169,#170,#9,3000.);
#172=IFCSTYLEDITEM(#171,(#69),$);
#173=IFCSHAPEREPRESENTATION(#24,'Body','SweptSolid',(#171));
#174=IFCPRODUCTDEFINITIONSHAPE($,$,(#166,#173));
#175=IFCWALL('1mRYVM4YfFFBRkcbz1hHbp',#18,'Basic Wall:Generic - 200mm:1602422',$,'Basic Wall:Generic - 200mm',#163,#174,'1602422',.NOTDEFINED.);
#176=IFCPROPERTYSET('0PE$NWN6AYraYPS3cXg4PX',#18,'Pset_EnvironmentalImpactIndicators',$,(#81));
#177=IFCPROPERTYSINGLEVALUE('Reference',$,IFCLABEL('Generic - 200mm'),$);
#178=IFCPROPERTYSET('0s5QTaeJE0YkgCANT5AfyH',#18,'Pset_ReinforcementBarPitchOfWall',$,(#177));
#179=IFCPROPERTYSET('138lOjwGsdU2tR56nFA_dZ',#18,'Pset_WallCommon',$,(#81,#85,#86,#87));
#180=IFCRELDEFINESBYPROPERTIES('0J3QfqWka6hvHxncoMX4lG',#18,$,$,(#175),#176);
#181=IFCRELDEFINESBYPROPERTIES('1ZtluQVelr$LmA0lUvGZNX',#18,$,$,(#175),#178);
#182=IFCRELDEFINESBYPROPERTIES('2lEilkalxGz_N3tS_M6iK5',#18,$,$,(#175),#179);
#183=IFCCARTESIANPOINT((5300.,-100.,0.));
#184=IFCAXIS2PLACEMENT3D(#183,#9,#6);
#185=IFCLOCALPLACEMENT(#34,#184);
#186=IFCCARTESIANPOINT((5100.,-0.));
#187=IFCPOLYLINE((#4,#186));
#188=IFCSHAPEREPRESENTATION(#23,'Axis','Curve2D',(#187));
#189=IFCCARTESIANPOINT((2549.9999999999973,0.));
#190=IFCAXIS2PLACEMENT2D(#189,#12);
#191=IFCRECTANGLEPROFILEDEF(.AREA.,$,#190,5099.9999999999945,200.);
#192=IFCAXIS2PLACEMENT3D(#3,$,$);
#193=IFCEXTRUDEDAREASOLID(#191,#192,#9,3000.);
#194=IFCSTYLEDITEM(#193,(#69),$);
#195=IFCSHAPEREPRESENTATION(#24,'Body','SweptSolid',(#193));
#196=IFCPRODUCTDEFINITIONSHAPE($,$,(#188,#195));
#197=IFCWALL('1mRYVM4YfFFBRkcbz1hHcs',#18,'Basic Wall:Generic - 200mm:1602483',$,'Basic Wall:Generic - 200mm',#185,#196,'1602483',.NOTDEFINED.);
#198=IFCPROPERTYSET('0jFWUmYzaEZnRCn9lzJJAd',#18,'Pset_EnvironmentalImpactIndicators',$,(#81));
#199=IFCPROPERTYSINGLEVALUE('Reference',$,IFCLABEL('Generic - 200mm'),$);
#200=IFCPROPERTYSET('1gfsm6W0qXkeo22MBOXN5R',#18,'Pset_ReinforcementBarPitchOfWall',$,(#199));
#201=IFCPROPERTYSET('2rg7M3aQc41$nb7QPUhwya',#18,'Pset_WallCommon',$,(#81,#85,#86,#87));
#202=IFCRELDEFINESBYPROPERTIES('0loADjRVSExO9roLlRJq7U',#18,$,$,(#197),#198);
#203=IFCRELDEFINESBYPROPERTIES('3CXtuXm_CdauAKiyvAASZb',#18,$,$,(#197),#200);
#204=IFCRELDEFINESBYPROPERTIES('0M_uJLoGhfROAy7LVzpfbc',#18,$,$,(#197),#201);
#205=IFCCARTESIANPOINT((900.,104.74999999997758,1200.));
#206=IFCCARTESIANPOINT((900.,219.04999999999393,1200.));
#207=IFCCARTESIANPOINT((0.,219.04999999999683,1200.));
#208=IFCCARTESIANPOINT((0.,104.74999999998045,1200.));
#209=IFCPOLYLOOP((#205,#206,#207,#208));
#210=IFCFACEOUTERBOUND(#209,.T.);
#211=IFCFACE((#210));
#212=IFCCARTESIANPOINT((0.,219.04999999999683,0.));
#213=IFCCARTESIANPOINT((0.,104.74999999998045,0.));
#214=IFCPOLYLOOP((#208,#207,#212,#213));
#215=IFCFACEOUTERBOUND(#214,.T.);
#216=IFCFACE((#215));
#217=IFCCARTESIANPOINT((900.,219.04999999999393,0.));
#218=IFCCARTESIANPOINT((900.,104.74999999997758,0.));
#219=IFCPOLYLOOP((#213,#212,#217,#218));
#220=IFCFACEOUTERBOUND(#219,.T.);
#221=IFCFACE((#220));
#222=IFCCARTESIANPOINT((868.25000000006401,104.7499999999777,1168.250000000068));
#223=IFCCARTESIANPOINT((868.25000000006412,104.7499999999777,31.749999999935525));
#224=IFCCARTESIANPOINT((31.749999999935525,104.74999999998039,31.749999999935525));
#225=IFCCARTESIANPOINT((31.749999999935188,104.74999999998039,1168.2500000000684));
#226=IFCPOLYLOOP((#208,#213,#218,#205));
#227=IFCFACEOUTERBOUND(#226,.T.);
#228=IFCPOLYLOOP((#222,#223,#224,#225));
#229=IFCFACEBOUND(#228,.T.);
#230=IFCFACE((#227,#229));
#231=IFCPOLYLOOP((#218,#217,#206,#205));
#232=IFCFACEOUTERBOUND(#231,.T.);
#233=IFCFACE((#232));
#234=IFCCARTESIANPOINT((12.699999999998941,219.04999999999629,1187.300000000005));
#235=IFCCARTESIANPOINT((12.699999999998941,219.04999999999629,12.699999999998601));
#236=IFCCARTESIANPOINT((887.30000000000132,219.04999999999393,12.699999999998736));
#237=IFCCARTESIANPOINT((887.30000000000155,219.04999999999393,1187.3000000000052));
#238=IFCPOLYLOOP((#206,#217,#212,#207));
#239=IFCFACEOUTERBOUND(#238,.T.);
#240=IFCPOLYLOOP((#234,#235,#236,#237));
#241=IFCFACEBOUND(#240,.T.);
#242=IFCFACE((#239,#241));
#243=IFCCARTESIANPOINT((868.25000000006412,168.24999999999574,1168.2500000000684));
#244=IFCCARTESIANPOINT((31.749999999935458,168.24999999999832,1168.2500000000684));
#245=IFCPOLYLOOP((#243,#222,#225,#244));
#246=IFCFACEOUTERBOUND(#245,.T.);
#247=IFCFACE((#246));
#248=IFCCARTESIANPOINT((887.30000000000109,168.24999999999565,1187.300000000005));
#249=IFCCARTESIANPOINT((12.699999999999143,168.24999999999849,1187.300000000005));
#250=IFCPOLYLOOP((#237,#248,#249,#234));
#251=IFCFACEOUTERBOUND(#250,.T.);
#252=IFCFACE((#251));
#253=IFCCARTESIANPOINT((31.749999999935795,168.24999999999832,31.74999999993566));
#254=IFCPOLYLOOP((#244,#225,#224,#253));
#255=IFCFACEOUTERBOUND(#254,.T.);
#256=IFCFACE((#255));
#257=IFCCARTESIANPOINT((12.699999999999211,168.24999999999849,12.699999999998873));
#258=IFCPOLYLOOP((#234,#249,#257,#235));
#259=IFCFACEOUTERBOUND(#258,.T.);
#260=IFCFACE((#259));
#261=IFCCARTESIANPOINT((868.25000000006423,168.24999999999574,31.749999999935525));
#262=IFCPOLYLOOP((#253,#224,#223,#261));
#263=IFCFACEOUTERBOUND(#262,.T.);
#264=IFCFACE((#263));
#265=IFCCARTESIANPOINT((887.30000000000086,168.24999999999568,12.699999999998873));
#266=IFCPOLYLOOP((#235,#257,#265,#236));
#267=IFCFACEOUTERBOUND(#266,.T.);
#268=IFCFACE((#267));
#269=IFCPOLYLOOP((#261,#223,#222,#243));
#270=IFCFACEOUTERBOUND(#269,.T.);
#271=IFCFACE((#270));
#272=IFCPOLYLOOP((#244,#253,#261,#243));
#273=IFCFACEBOUND(#272,.T.);
#274=IFCPOLYLOOP((#248,#265,#257,#249));
#275=IFCFACEOUTERBOUND(#274,.T.);
#276=IFCFACE((#273,#275));
#277=IFCPOLYLOOP((#236,#265,#248,#237));
#278=IFCFACEOUTERBOUND(#277,.T.);
#279=IFCFACE((#278));
#280=IFCCARTESIANPOINT((0.,0.,1200.));
#281=IFCCARTESIANPOINT((900.,0.,0.));
#282=IFCCARTESIANPOINT((900.,0.,1200.));
#283=IFCCARTESIANPOINT((887.29999999992594,0.,1187.3000000000525));
#284=IFCCARTESIANPOINT((887.29999999992594,0.,12.700000000006858));
#285=IFCCARTESIANPOINT((12.699999999904392,0.,12.700000000006858));
#286=IFCCARTESIANPOINT((12.699999999904392,0.,1187.3000000000525));
#287=IFCPOLYLOOP((#280,#3,#281,#282));
#288=IFCFACEOUTERBOUND(#287,.T.);
#289=IFCPOLYLOOP((#283,#284,#285,#286));
#290=IFCFACEBOUND(#289,.T.);
#291=IFCFACE((#288,#290));
#292=IFCCARTESIANPOINT((0.,104.75000000000001,1200.));
#293=IFCCARTESIANPOINT((900.,104.75000000000001,1200.));
#294=IFCCARTESIANPOINT((900.,104.75000000000001,0.));
#295=IFCCARTESIANPOINT((0.,104.75000000000001,0.));
#296=IFCCARTESIANPOINT((887.29999999992594,104.75000000000001,1187.3000000000525));
#297=IFCCARTESIANPOINT((12.699999999904392,104.75000000000001,1187.3000000000525));
#298=IFCCARTESIANPOINT((12.699999999904392,104.75000000000001,12.700000000006858));
#299=IFCCARTESIANPOINT((887.29999999992594,104.75000000000001,12.700000000006858));
#300=IFCPOLYLOOP((#292,#293,#294,#295));
#301=IFCFACEOUTERBOUND(#300,.T.);
#302=IFCPOLYLOOP((#296,#297,#298,#299));
#303=IFCFACEBOUND(#302,.T.);
#304=IFCFACE((#301,#303));
#305=IFCPOLYLOOP((#3,#280,#292,#295));
#306=IFCFACEOUTERBOUND(#305,.T.);
#307=IFCFACE((#306));
#308=IFCPOLYLOOP((#281,#3,#295,#294));
#309=IFCFACEOUTERBOUND(#308,.T.);
#310=IFCFACE((#309));
#311=IFCPOLYLOOP((#282,#281,#294,#293));
#312=IFCFACEOUTERBOUND(#311,.T.);
#313=IFCFACE((#312));
#314=IFCPOLYLOOP((#280,#282,#293,#292));
#315=IFCFACEOUTERBOUND(#314,.T.);
#316=IFCFACE((#315));
#317=IFCPOLYLOOP((#284,#283,#296,#299));
#318=IFCFACEOUTERBOUND(#317,.T.);
#319=IFCFACE((#318));
#320=IFCPOLYLOOP((#285,#284,#299,#298));
#321=IFCFACEOUTERBOUND(#320,.T.);
#322=IFCFACE((#321));
#323=IFCPOLYLOOP((#286,#285,#298,#297));
#324=IFCFACEOUTERBOUND(#323,.T.);
#325=IFCFACE((#324));
#326=IFCPOLYLOOP((#283,#286,#297,#296));
#327=IFCFACEOUTERBOUND(#326,.T.);
#328=IFCFACE((#327));
#329=IFCCARTESIANPOINT((861.89999999992915,168.24999999999574,38.100000000002979));
#330=IFCCARTESIANPOINT((861.89999999992926,212.6999999999955,38.100000000002979));
#331=IFCCARTESIANPOINT((38.099999999900106,212.69999999999814,38.100000000002979));
#332=IFCCARTESIANPOINT((38.099999999900106,168.24999999999847,38.100000000003114));
#333=IFCPOLYLOOP((#329,#330,#331,#332));
#334=IFCFACEOUTERBOUND(#333,.T.);
#335=IFCFACE((#334));
#336=IFCCARTESIANPOINT((887.29999999992583,212.69999999999544,12.700000000006588));
#337=IFCCARTESIANPOINT((887.2999999999256,168.24999999999565,12.700000000006588));
#338=IFCCARTESIANPOINT((12.699999999903715,168.24999999999844,12.700000000006588));
#339=IFCCARTESIANPOINT((12.699999999903783,212.69999999999777,12.700000000006588));
#340=IFCPOLYLOOP((#336,#337,#338,#339));
#341=IFCFACEOUTERBOUND(#340,.T.);
#342=IFCFACE((#341));
#343=IFCCARTESIANPOINT((38.099999999900106,212.69999999999814,1161.900000000056));
#344=IFCCARTESIANPOINT((38.099999999900241,168.24999999999847,1161.900000000056));
#345=IFCPOLYLOOP((#332,#331,#343,#344));
#346=IFCFACEOUTERBOUND(#345,.T.);
#347=IFCFACE((#346));
#348=IFCCARTESIANPOINT((12.699999999903648,168.24999999999844,1187.3000000000525));
#349=IFCCARTESIANPOINT((12.699999999903783,212.69999999999777,1187.3000000000527));
#350=IFCPOLYLOOP((#339,#338,#348,#349));
#351=IFCFACEOUTERBOUND(#350,.T.);
#352=IFCFACE((#351));
#353=IFCCARTESIANPOINT((861.89999999992915,212.6999999999955,1161.900000000056));
#354=IFCCARTESIANPOINT((861.89999999992904,168.24999999999574,1161.900000000056));
#355=IFCPOLYLOOP((#344,#343,#353,#354));
#356=IFCFACEOUTERBOUND(#355,.T.);
#357=IFCFACE((#356));
#358=IFCCARTESIANPOINT((887.2999999999256,168.24999999999565,1187.3000000000525));
#359=IFCCARTESIANPOINT((887.29999999992549,212.69999999999544,1187.3000000000525));
#360=IFCPOLYLOOP((#349,#348,#358,#359));
#361=IFCFACEOUTERBOUND(#360,.T.);
#362=IFCFACE((#361));
#363=IFCPOLYLOOP((#354,#353,#330,#329));
#364=IFCFACEOUTERBOUND(#363,.T.);
#365=IFCFACE((#364));
#366=IFCPOLYLOOP((#332,#344,#354,#329));
#367=IFCFACEBOUND(#366,.T.);
#368=IFCPOLYLOOP((#337,#358,#348,#338));
#369=IFCFACEOUTERBOUND(#368,.T.);
#370=IFCFACE((#367,#369));
#371=IFCPOLYLOOP((#359,#358,#337,#336));
#372=IFCFACEOUTERBOUND(#371,.T.);
#373=IFCFACE((#372));
#374=IFCPOLYLOOP((#339,#349,#359,#336));
#375=IFCFACEOUTERBOUND(#374,.T.);
#376=IFCPOLYLOOP((#330,#353,#343,#331));
#377=IFCFACEBOUND(#376,.T.);
#378=IFCFACE((#375,#377));
#379=IFCCARTESIANPOINT((861.89999999993017,200.,1161.9000000000478));
#380=IFCCARTESIANPOINT((38.099999999899907,200.,1161.9000000000478));
#381=IFCCARTESIANPOINT((38.099999999899971,193.65000000010971,1161.9000000000478));
#382=IFCCARTESIANPOINT((861.89999999993017,193.65000000010971,1161.9000000000478));
#383=IFCPOLYLOOP((#379,#380,#381,#382));
#384=IFCFACEOUTERBOUND(#383,.T.);
#385=IFCFACE((#384));
#386=IFCCARTESIANPOINT((861.89999999993017,200.,38.099999999995937));
#387=IFCCARTESIANPOINT((38.099999999899907,200.,38.099999999995937));
#388=IFCPOLYLOOP((#380,#379,#386,#387));
#389=IFCFACEOUTERBOUND(#388,.T.);
#390=IFCFACE((#389));
#391=IFCCARTESIANPOINT((38.099999999899971,193.65000000010971,38.099999999995937));
#392=IFCPOLYLOOP((#381,#380,#387,#391));
#393=IFCFACEOUTERBOUND(#392,.T.);
#394=IFCFACE((#393));
#395=IFCCARTESIANPOINT((861.89999999993017,193.65000000010971,38.099999999995937));
#396=IFCPOLYLOOP((#382,#381,#391,#395));
#397=IFCFACEOUTERBOUND(#396,.T.);
#398=IFCFACE((#397));
#399=IFCPOLYLOOP((#379,#382,#395,#386));
#400=IFCFACEOUTERBOUND(#399,.T.);
#401=IFCFACE((#400));
#402=IFCPOLYLOOP((#386,#395,#391,#387));
#403=IFCFACEOUTERBOUND(#402,.T.);
#404=IFCFACE((#403));
#405=IFCCARTESIANPOINT((38.099999999900106,180.94999999999737,38.099999999995937));
#406=IFCCARTESIANPOINT((38.099999999900106,187.30000000009292,38.099999999995937));
#407=IFCCARTESIANPOINT((861.89999999993017,187.30000000009292,38.099999999995937));
#408=IFCCARTESIANPOINT((861.89999999993017,180.94999999999737,38.099999999995937));
#409=IFCPOLYLOOP((#405,#406,#407,#408));
#410=IFCFACEOUTERBOUND(#409,.T.);
#411=IFCFACE((#410));
#412=IFCCARTESIANPOINT((861.89999999993017,180.94999999999737,1161.9000000000478));
#413=IFCCARTESIANPOINT((38.099999999900106,180.94999999999737,1161.9000000000478));
#414=IFCPOLYLOOP((#412,#413,#405,#408));
#415=IFCFACEOUTERBOUND(#414,.T.);
#416=IFCFACE((#415));
#417=IFCCARTESIANPOINT((861.89999999993017,187.30000000009292,1161.9000000000478));
#418=IFCPOLYLOOP((#417,#412,#408,#407));
#419=IFCFACEOUTERBOUND(#418,.T.);
#420=IFCFACE((#419));
#421=IFCCARTESIANPOINT((38.099999999900177,187.30000000009292,1161.9000000000478));
#422=IFCPOLYLOOP((#421,#417,#407,#406));
#423=IFCFACEOUTERBOUND(#422,.T.);
#424=IFCFACE((#423));
#425=IFCPOLYLOOP((#413,#421,#406,#405));
#426=IFCFACEOUTERBOUND(#425,.T.);
#427=IFCFACE((#426));
#428=IFCPOLYLOOP((#413,#412,#417,#421));
#429=IFCFACEOUTERBOUND(#428,.T.);
#430=IFCFACE((#429));
#431=IFCCLOSEDSHELL((#211,#216,#221,#230,#233,#242,#247,#252,#256,#260,#264,#268,#271,#276,#279));
#432=IFCFACETEDBREP(#431);
#433=IFCCOLOURRGB($,0.67843137254901964,0.51764705882352946,0.37647058823529411);
#434=IFCSURFACESTYLERENDERING(#433,0.,$,$,$,$,IFCNORMALISEDRATIOMEASURE(0.5),IFCSPECULAREXPONENT(128.),.NOTDEFINED.);
#435=IFCSURFACESTYLE('Wood - Stained',.BOTH.,(#434));
#436=IFCSTYLEDITEM(#432,(#435),$);
#437=IFCCLOSEDSHELL((#291,#304,#307,#310,#313,#316,#319,#322,#325,#328));
#438=IFCFACETEDBREP(#437);
#439=IFCSTYLEDITEM(#438,(#435),$);
#440=IFCCLOSEDSHELL((#335,#342,#347,#352,#357,#362,#365,#370,#373,#378));
#441=IFCFACETEDBREP(#440);
#442=IFCSTYLEDITEM(#441,(#435),$);
#443=IFCCLOSEDSHELL((#385,#390,#394,#398,#401,#404));
#444=IFCFACETEDBREP(#443);
#445=IFCCOLOURRGB($,0.96078431372549022,0.96078431372549022,0.95294117647058818);
#446=IFCSURFACESTYLERENDERING(#445,1.,$,$,$,$,IFCNORMALISEDRATIOMEASURE(0.5),IFCSPECULAREXPONENT(64.),.NOTDEFINED.);
#447=IFCSURFACESTYLE('Glass',.BOTH.,(#446));
#448=IFCSTYLEDITEM(#444,(#447),$);
#449=IFCCLOSEDSHELL((#411,#416,#420,#424,#427,#430));
#450=IFCFACETEDBREP(#449);
#451=IFCSTYLEDITEM(#450,(#447),$);
#452=IFCSHAPEREPRESENTATION(#24,'Body','Brep',(#432,#438,#441,#444,#450));
#453=IFCAXIS2PLACEMENT3D(#3,$,$);
#454=IFCREPRESENTATIONMAP(#453,#452);
#455=IFCWINDOWLININGPROPERTIES('1mRYVM4YfFFBRkcbv1hHvq',#18,'M_Window-Fixed:900 x 1200mm:1602673',$,$,$,$,$,$,$,$,$,$,$,$,$);
#456=IFCWINDOWTYPE('3FMGt0UryvERnb8EGWp3Zb',#18,'M_Window-Fixed:900 x 1200mm',$,$,(#455,#508),(#454),'1524699',$,.WINDOW.,.NOTDEFINED.,.F.,$);
#457=IFCMATERIAL('Wood - Stained',$,'Wood');
#458=IFCCOLOURRGB($,0.,0.,0.);
#459=IFCCURVESTYLEFONTPATTERN(211.58199999999999,1904.2380000000001);
#460=IFCCURVESTYLEFONT('Wood 1:1',(#459));
#461=IFCCURVESTYLE('Wood 1:1',#460,$,#458,$);
#462=IFCCARTESIANPOINT((1387.9778824443713,1337.1982900741696));
#463=IFCFILLAREASTYLEHATCHING(#461,IFCPOSITIVELENGTHMEASURE(84.632800000000003),$,#462,216.8699);
#464=IFCCURVESTYLEFONTPATTERN(473.11183,473.11183);
#465=IFCCURVESTYLEFONT('Wood 1:2',(#464));
#466=IFCCURVESTYLE('Wood 1:2',#465,$,#458,$);
#467=IFCCARTESIANPOINT((-84.632685810556325,42.315916214384231));
#468=IFCFILLAREASTYLEHATCHING(#466,IFCPOSITIVELENGTHMEASURE(189.24485899999999),$,#467,206.56510000000003);
#469=IFCCURVESTYLEFONTPATTERN(267.63268799999997,1070.5294819999999);
#470=IFCCURVESTYLEFONT('Wood 1:3',(#469));
#471=IFCCURVESTYLE('Wood 1:3',#470,$,#458,$);
#472=IFCCARTESIANPOINT((-465.48060246108253,-211.58122611782321));
#473=IFCFILLAREASTYLEHATCHING(#471,IFCPOSITIVELENGTHMEASURE(133.81629319999999),$,#472,198.4349);
#474=IFCFILLAREASTYLE('Wood 1',(#463,#468,#473),$);
#475=IFCSTYLEDITEM($,(#435,#474),$);
#476=IFCSTYLEDREPRESENTATION(#22,'Style','Material and Cut Pattern',(#475));
#477=IFCMATERIALDEFINITIONREPRESENTATION($,$,(#476),#457);
#478=IFCMATERIAL('Glass',$,'Glass');
#479=IFCSTYLEDITEM($,(#447),$);
#480=IFCSTYLEDREPRESENTATION(#22,'Style','Material',(#479));
#481=IFCMATERIALDEFINITIONREPRESENTATION($,$,(#480),#478);
#482=IFCMATERIALCONSTITUENT('Frame/Mullion',$,#457,$,'Wood');
#483=IFCSHAPEREPRESENTATION(#24,'Body','Brep',(#432,#438,#441));
#484=IFCSHAPEASPECT((#483),'Frame/Mullion',$,.U.,#454);
#485=IFCMATERIALCONSTITUENT('Glass',$,#478,$,'Glass');
#486=IFCSHAPEREPRESENTATION(#24,'Body','Brep',(#444,#450));
#487=IFCSHAPEASPECT((#486),'Glass',$,.U.,#454);
#488=IFCMATERIALCONSTITUENTSET($,$,(#482,#485));
#489=IFCCARTESIANTRANSFORMATIONOPERATOR3D($,$,#3,1.,$);
#490=IFCMAPPEDITEM(#454,#489);
#491=IFCSHAPEREPRESENTATION(#24,'Body','MappedRepresentation',(#490));
#492=IFCPRODUCTDEFINITIONSHAPE($,$,(#491));
#493=IFCCARTESIANPOINT((2100.,-6700.,900.));
#494=IFCAXIS2PLACEMENT3D(#493,#9,#6);
#496=IFCWINDOW('1mRYVM4YfFFBRkcbz1hHvq',#18,'M_Window-Fixed:900 x 1200mm:1602673',$,'M_Window-Fixed:900 x 1200mm',#1131,#492,'1602673',1200.0000000000036,899.99999999999966,.WINDOW.,.NOTDEFINED.,$);
#497=IFCMATERIALCONSTITUENT('Wood - Stained',$,#457,$,'Wood');
#498=IFCMATERIALCONSTITUENT('Glass',$,#478,$,'Glass');
#499=IFCMATERIALCONSTITUENTSET($,$,(#497,#498));
#500=IFCPROPERTYSINGLEVALUE('Reference',$,IFCIDENTIFIER('900 x 1200mm'),$);
#501=IFCPROPERTYSET('0ArKSwEc$fBYtnZo$8vPar',#18,'Pset_EnvironmentalImpactIndicators',$,(#500));
#502=IFCPROPERTYSINGLEVALUE('FireRating',$,IFCLABEL('0.5h'),$);
#503=IFCPROPERTYSET('2U_gZrcLkScj9rO0MfEXsi',#18,'Pset_WindowCommon',$,(#85,#500,#502));
#504=IFCRELDEFINESBYPROPERTIES('21_xCv75pl5bQpzkUr70Fg',#18,$,$,(#496),#501);
#505=IFCRELDEFINESBYPROPERTIES('2bWHCBJ_LNvY53xgkU4bo_',#18,$,$,(#496),#503);
#506=IFCCLASSIFICATIONREFERENCE('https://www.csiresources.org/standards/uniformat','B2020100','Windows',#28,'',$);
#507=IFCPROPERTYSINGLEVALUE('FireRating',$,IFCLABEL('0.5h'),$);
#508=IFCPROPERTYSET('2SxGyBxbn3V4pb$Nk3Q$Ws',#18,'Pset_WindowCommon',$,(#507));
#509=IFCAXIS2PLACEMENT3D(#3,$,$);
#511=IFCCARTESIANPOINT((6.3500000000212964,-6.3500000000302981));
#512=IFCCARTESIANPOINT((561.89999999988697,-6.3500000000302981));
#513=IFCCARTESIANPOINT((561.89999999988697,6.3499999999679764));
#514=IFCCARTESIANPOINT((6.3500000000309074,6.3499999999679719));
#515=IFCCARTESIANPOINT((6.3500000000309038,411.90000000001112));
#516=IFCCARTESIANPOINT((-6.3499999999643135,411.90000000001112));
#517=IFCCARTESIANPOINT((-6.3499999999643109,6.3499999999766956));
#518=IFCCARTESIANPOINT((-561.89999999999918,6.3499999999766832));
#519=IFCCARTESIANPOINT((-561.89999999999918,-6.3500000000126349));
#520=IFCCARTESIANPOINT((-6.3499999999754104,-6.3500000000126304));
#521=IFCCARTESIANPOINT((-6.3499999999754069,-411.89999999991278));
#522=IFCCARTESIANPOINT((6.3500000000212999,-411.89999999991278));
#523=IFCPOLYLINE((#511,#512,#513,#514,#515,#516,#517,#518,#519,#520,#521,#522,#511));
#524=IFCARBITRARYCLOSEDPROFILEDEF(.AREA.,'M_Muntin Pattern_2x2',#523);
#525=IFCCARTESIANPOINT((0.,-22.224999999997337,561.89999999989288));
#526=IFCAXIS2PLACEMENT3D(#525,#7,#9);
#527=IFCEXTRUDEDAREASOLID(#524,#526,#9,12.699999999996029);
#528=IFCSIUNIT(*,.PLANEANGLEUNIT.,$,.RADIAN.);
#529=IFCDIMENSIONALEXPONENTS(0,0,0,0,0,0,0);
#530=IFCMEASUREWITHUNIT(IFCPLANEANGLEMEASURE(0.017453292519943278),#528);
#531=IFCCONVERSIONBASEDUNIT(#529,.PLANEANGLEUNIT.,'DEGREE',#530);
#532=IFCCARTESIANPOINT((6.3500000000101293,-6.3500000000239698));
#533=IFCCARTESIANPOINT((561.89999999998668,-6.3500000000239698));
#534=IFCCARTESIANPOINT((561.89999999998668,6.3499999999742931));
#535=IFCCARTESIANPOINT((6.3500000000122272,6.3499999999742931));
#536=IFCCARTESIANPOINT((6.3500000000122272,411.90000000000475));
#537=IFCCARTESIANPOINT((-6.3499999999869834,411.90000000000475));
#538=IFCCARTESIANPOINT((-6.3499999999869834,6.349999999982753));
#539=IFCCARTESIANPOINT((-561.90000000003158,6.349999999982753));
#540=IFCCARTESIANPOINT((-561.90000000003158,-6.3500000000188939));
#541=IFCCARTESIANPOINT((-6.3499999999903673,-6.3500000000188939));
#542=IFCCARTESIANPOINT((-6.3499999999903673,-411.89999999991898));
#543=IFCCARTESIANPOINT((6.3500000000101293,-411.89999999991898));
#544=IFCPOLYLINE((#532,#533,#534,#535,#536,#537,#538,#539,#540,#541,#542,#543,#532));
#545=IFCARBITRARYCLOSEDPROFILEDEF(.AREA.,'M_Muntin Pattern_2x2',#544);
#546=IFCCARTESIANPOINT((0.,9.5250000000181636,561.90000000002954));
#547=IFCAXIS2PLACEMENT3D(#546,#7,#9);
#548=IFCEXTRUDEDAREASOLID(#545,#547,#9,12.699999999996066);
#549=IFCCOLOURRGB($,0.96078431372549022,0.96078431372549022,0.95294117647058818);
#550=IFCSURFACESTYLERENDERING(#549,0.,$,$,$,$,IFCNORMALISEDRATIOMEASURE(0.5),IFCSPECULAREXPONENT(128.),.NOTDEFINED.);
#551=IFCSURFACESTYLE('Clad - White',.BOTH.,(#550));
#552=IFCSTYLEDITEM(#527,(#551),$);
#553=IFCSTYLEDITEM(#548,(#435),$);
#554=IFCSHAPEREPRESENTATION(#24,'Body','SweptSolid',(#527,#548));
#555=IFCAXIS2PLACEMENT3D(#3,$,$);
#556=IFCREPRESENTATIONMAP(#555,#554);
#557=IFCBUILDINGELEMENTPROXYTYPE('1mRYVM4YfFFBRkcbz1hHyy',#18,'M_Muntin Pattern_2x2:M_Muntin Pattern_2x2',$,$,$,(#556),'1514602',$,.NOTDEFINED.);
#558=IFCMATERIAL('Clad - White',$,'Wood');
#559=IFCCOLOURRGB($,0.,0.,0.);
#560=IFCDRAUGHTINGPREDEFINEDCURVEFONT('continuous');
#561=IFCCURVESTYLE($,#560,$,#559,$);
#562=IFCFILLAREASTYLEHATCHING(#561,IFCPOSITIVELENGTHMEASURE(229.99999999999997),$,#4,45.);
#563=IFCFILLAREASTYLE('Wood - Finish',(#562),$);
#564=IFCSTYLEDITEM($,(#551,#563),$);
#565=IFCSTYLEDREPRESENTATION(#22,'Style','Material and Cut Pattern',(#564));
#566=IFCMATERIALDEFINITIONREPRESENTATION($,$,(#565),#558);
#567=IFCMATERIALCONSTITUENT('Clad - White',$,#558,$,'Wood');
#568=IFCSHAPEREPRESENTATION(#24,'Body','SweptSolid',(#527));
#569=IFCSHAPEASPECT((#568),'Clad - White',$,.U.,#556);
#570=IFCMATERIALCONSTITUENT('Wood - Stained',$,#457,$,'Wood');
#571=IFCSHAPEREPRESENTATION(#24,'Body','SweptSolid',(#548));
#572=IFCSHAPEASPECT((#571),'Wood - Stained',$,.U.,#556);
#573=IFCMATERIALCONSTITUENTSET($,$,(#567,#570));
#574=IFCMAPPEDITEM(#556,#489);
#575=IFCSHAPEREPRESENTATION(#24,'Body','MappedRepresentation',(#574));
#576=IFCPRODUCTDEFINITIONSHAPE($,$,(#575));
#577=IFCCARTESIANPOINT((1650.,-6890.4750000000049,938.10000000003629));
#578=IFCAXIS2PLACEMENT3D(#577,$,$);
#579=IFCLOCALPLACEMENT(#34,#578);
#580=IFCBUILDINGELEMENTPROXY('1mRYVM4YfFFBRkcbz1hHvn',#18,'M_Muntin Pattern_2x2:M_Muntin Pattern_2x2:1602676',$,'M_Muntin Pattern_2x2:M_Muntin Pattern_2x2',#579,#576,'1602676',.NOTDEFINED.);
#581=IFCMATERIALCONSTITUENT('Clad - White',$,#558,$,'Wood');
#582=IFCMATERIALCONSTITUENT('Wood - Stained',$,#457,$,'Wood');
#583=IFCMATERIALCONSTITUENTSET($,$,(#581,#582));
#584=IFCPROPERTYSINGLEVALUE('Reference',$,IFCIDENTIFIER('M_Muntin Pattern_2x2'),$);
#585=IFCPROPERTYSET('1ano1Bq5V72_q2dacRV0jX',#18,'Pset_BuildingElementProxyCommon',$,(#45,#584));
#586=IFCPROPERTYSET('0AoIZnQcTLXftDYD4Pl0t7',#18,'Pset_EnvironmentalImpactIndicators',$,(#584));
#587=IFCRELDEFINESBYPROPERTIES('2$dxDfmTS8XRvja$k0YUu_',#18,$,$,(#580),#585);
#588=IFCRELDEFINESBYPROPERTIES('0wRpyL8Clo1WUFQRgFKemS',#18,$,$,(#580),#586);
#589=IFCAXIS2PLACEMENT3D(#3,$,$);
#591=IFCCARTESIANPOINT((-2.8421709430404007E-14,1.3677947663381929E-13));
#592=IFCAXIS2PLACEMENT2D(#591,#11);
#593=IFCRECTANGLEPROFILEDEF(.AREA.,'with Sill',#592,1019.9999999999987,60.000000000000171);
#594=IFCCARTESIANPOINT((0.,-1250.4323708847257,0.));
#595=IFCAXIS2PLACEMENT3D(#594,#9,#6);
#596=IFCEXTRUDEDAREASOLID(#593,#595,#9,19.049999999999997);
#597=IFCCARTESIANPOINT((-19.049999999992426,-15.239599102063611));
#598=IFCCARTESIANPOINT((0.,-15.239599102063611));
#599=IFCCARTESIANPOINT((0.,-5.6719699867785121));
#600=IFCCARTESIANPOINT((19.049999999971075,-5.6719699867785121));
#601=IFCCARTESIANPOINT((19.049999999971075,14.760400897936744));
#602=IFCCARTESIANPOINT((0.,14.760400897936744));
#603=IFCCARTESIANPOINT((-19.049999999992423,12.302336381811029));
#604=IFCPOLYLINE((#597,#598,#599,#600,#601,#602,#603,#597));
#605=IFCARBITRARYCLOSEDPROFILEDEF(.AREA.,'with Sill',#604);
#606=IFCCARTESIANPOINT((-522.69999999999288,-1214.7604008979431,19.049999999974577));
#607=IFCAXIS2PLACEMENT3D(#606,#5,#10);
#608=IFCEXTRUDEDAREASOLID(#605,#607,#9,1045.4000000000067);
#609=IFCCARTESIANPOINT((-645.,-510.));
#610=IFCCARTESIANPOINT((615.,-510.));
#611=IFCCARTESIANPOINT((615.,-450.));
#612=IFCCARTESIANPOINT((-585.,-450.));
#613=IFCCARTESIANPOINT((-585.,450.));
#614=IFCCARTESIANPOINT((615.,450.));
#615=IFCCARTESIANPOINT((615.,510.));
#616=IFCCARTESIANPOINT((-645.,510.));
#617=IFCPOLYLINE((#609,#610,#611,#612,#613,#614,#615,#616,#609));
#618=IFCARBITRARYCLOSEDPROFILEDEF(.AREA.,'with Sill',#617);
#619=IFCCARTESIANPOINT((0.,-585.,0.));
#620=IFCAXIS2PLACEMENT3D(#619,#9,#8);
#621=IFCEXTRUDEDAREASOLID(#618,#620,#9,19.049999999999997);
#622=IFCSTYLEDITEM(#596,(#551),$);
#623=IFCSTYLEDITEM(#608,(#551),$);
#624=IFCSTYLEDITEM(#621,(#551),$);
#625=IFCSHAPEREPRESENTATION(#24,'Body','SweptSolid',(#596,#608,#621));
#626=IFCAXIS2PLACEMENT3D(#3,$,$);
#627=IFCREPRESENTATIONMAP(#626,#625);
#628=IFCBUILDINGELEMENTPROXYTYPE('1mRYVM4YfFFBRkcbz1hHy$',#18,'M_Trim-Window-Exterior-Flat:with Sill',$,$,$,(#627),'1514612',$,.NOTDEFINED.);
#629=IFCMAPPEDITEM(#627,#489);
#630=IFCSHAPEREPRESENTATION(#24,'Body','MappedRepresentation',(#629));
#631=IFCPRODUCTDEFINITIONSHAPE($,$,(#630));
#632=IFCCARTESIANPOINT((1650.,-6900.,2100.));
#633=IFCAXIS2PLACEMENT3D(#632,#8,#5);
#634=IFCLOCALPLACEMENT(#34,#633);
#635=IFCBUILDINGELEMENTPROXY('1mRYVM4YfFFBRkcbz1hHvm',#18,'M_Trim-Window-Exterior-Flat:with Sill:1602677',$,'M_Trim-Window-Exterior-Flat:with Sill',#634,#631,'1602677',.NOTDEFINED.);
#636=IFCPROPERTYSINGLEVALUE('Reference',$,IFCIDENTIFIER('with Sill'),$);
#637=IFCPROPERTYSET('0oTRGcnTXwdS0WufXUcJyj',#18,'Pset_BuildingElementProxyCommon',$,(#45,#636));
#638=IFCPROPERTYSET('3hnYMuJpxWwq$45l1OKB3z',#18,'Pset_EnvironmentalImpactIndicators',$,(#636));
#639=IFCRELDEFINESBYPROPERTIES('1F2PG7FAKfpO6Y7YQbv925',#18,$,$,(#635),#637);
#640=IFCRELDEFINESBYPROPERTIES('1wEF3LrwDEL6KR_Y1Sl9Ix',#18,$,$,(#635),#638);
#641=IFCAXIS2PLACEMENT3D(#3,$,$);
#643=IFCCARTESIANPOINT((-497.29999999999859,-647.29999999999416));
#644=IFCCARTESIANPOINT((497.29999999999859,-647.29999999999416));
#645=IFCCARTESIANPOINT((497.29999999999848,647.29999999999416));
#646=IFCCARTESIANPOINT((-497.29999999999859,647.29999999999416));
#647=IFCPOLYLINE((#643,#644,#645,#646,#643));
#648=IFCCARTESIANPOINT((-437.30000000000183,-587.29999999999188));
#649=IFCCARTESIANPOINT((-437.30000000000183,587.29999999999154));
#650=IFCCARTESIANPOINT((437.29999999999779,587.29999999999154));
#651=IFCCARTESIANPOINT((437.29999999999779,-587.29999999999188));
#652=IFCPOLYLINE((#648,#649,#650,#651,#648));
#653=IFCARBITRARYPROFILEDEFWITHVOIDS(.AREA.,'Picture Frame',#647,(#652));
#654=IFCCARTESIANPOINT((0.,-600.,0.));
#655=IFCAXIS2PLACEMENT3D(#654,#9,#6);
#656=IFCEXTRUDEDAREASOLID(#653,#655,#9,30.);
#657=IFCSTYLEDITEM(#656,(#435),$);
#658=IFCSHAPEREPRESENTATION(#24,'Body','SweptSolid',(#656));
#659=IFCAXIS2PLACEMENT3D(#3,$,$);
#660=IFCREPRESENTATIONMAP(#659,#658);
#661=IFCBUILDINGELEMENTPROXYTYPE('1mRYVM4YfFFBRkcbz1hHy_',#18,'M_Trim-Window-Interior-Flat:Picture Frame',$,$,$,(#660),'1514622',$,.NOTDEFINED.);
#662=IFCMAPPEDITEM(#660,#489);
#663=IFCSHAPEREPRESENTATION(#24,'Body','MappedRepresentation',(#662));
#664=IFCPRODUCTDEFINITIONSHAPE($,$,(#663));
#665=IFCCARTESIANPOINT((1650.,-6700.,2100.));
#666=IFCAXIS2PLACEMENT3D(#665,#7,#6);
#667=IFCLOCALPLACEMENT(#34,#666);
#668=IFCBUILDINGELEMENTPROXY('1mRYVM4YfFFBRkcbz1hHvp',#18,'M_Trim-Window-Interior-Flat:Picture Frame:1602678',$,'M_Trim-Window-Interior-Flat:Picture Frame',#667,#664,'1602678',.NOTDEFINED.);
#669=IFCPROPERTYSINGLEVALUE('Reference',$,IFCIDENTIFIER('Picture Frame'),$);
#670=IFCPROPERTYSET('0bxGV6Wlsb3cio0GE1TKBy',#18,'Pset_BuildingElementProxyCommon',$,(#45,#669));
#671=IFCPROPERTYSET('2p75D2fTqo6YQDTMqCGQjb',#18,'Pset_EnvironmentalImpactIndicators',$,(#669));
#672=IFCRELDEFINESBYPROPERTIES('3WwFWg43wvjBcp_ZiG1cxE',#18,$,$,(#668),#670);
#673=IFCRELDEFINESBYPROPERTIES('0cVs2mfmGBcbasP$8GtXiM',#18,$,$,(#668),#671);
#674=IFCMAPPEDITEM(#454,#489);
#675=IFCSHAPEREPRESENTATION(#24,'Body','MappedRepresentation',(#674));
#676=IFCPRODUCTDEFINITIONSHAPE($,$,(#675));
#677=IFCCARTESIANPOINT((3600.,-6700.,900.));
#678=IFCAXIS2PLACEMENT3D(#677,#9,#6);
#680=IFCWINDOW('1mRYVM4YfFFBRkcbz1hHz0',#18,'M_Window-Fixed:900 x 1200mm:1602885',$,'M_Window-Fixed:900 x 1200mm',#1146,#676,'1602885',1200.0000000000036,899.99999999999955,.WINDOW.,.NOTDEFINED.,$);
#681=IFCMATERIALCONSTITUENT('Wood - Stained',$,#457,$,'Wood');
#682=IFCMATERIALCONSTITUENT('Glass',$,#478,$,'Glass');
#683=IFCMATERIALCONSTITUENTSET($,$,(#681,#682));
#684=IFCPROPERTYSET('0tlpkAAJDb_cHkCC0a9Kry',#18,'Pset_EnvironmentalImpactIndicators',$,(#500));
#685=IFCPROPERTYSINGLEVALUE('FireRating',$,IFCLABEL('0.5h'),$);
#686=IFCPROPERTYSET('3jMZ7vacLTfNBqZwo61fDI',#18,'Pset_WindowCommon',$,(#85,#500,#685));
#687=IFCRELDEFINESBYPROPERTIES('2Mgo7HetajgOgAER4Ie7vv',#18,$,$,(#680),#684);
#688=IFCRELDEFINESBYPROPERTIES('04CAr3AWohndgzAgIjfV5l',#18,$,$,(#680),#686);
#689=IFCMAPPEDITEM(#556,#489);
#690=IFCSHAPEREPRESENTATION(#24,'Body','MappedRepresentation',(#689));
#691=IFCPRODUCTDEFINITIONSHAPE($,$,(#690));
#692=IFCCARTESIANPOINT((3150.,-6890.4750000000049,938.10000000003629));
#693=IFCAXIS2PLACEMENT3D(#692,$,$);
#694=IFCLOCALPLACEMENT(#34,#693);
#695=IFCBUILDINGELEMENTPROXY('1mRYVM4YfFFBRkcbz1hHzD',#18,'M_Muntin Pattern_2x2:M_Muntin Pattern_2x2:1602888',$,'M_Muntin Pattern_2x2:M_Muntin Pattern_2x2',#694,#691,'1602888',.NOTDEFINED.);
#696=IFCMATERIALCONSTITUENT('Clad - White',$,#558,$,'Wood');
#697=IFCMATERIALCONSTITUENT('Wood - Stained',$,#457,$,'Wood');
#698=IFCMATERIALCONSTITUENTSET($,$,(#696,#697));
#699=IFCPROPERTYSET('2LIbWQap04Bs$gkOFLhlIh',#18,'Pset_BuildingElementProxyCommon',$,(#45,#584));
#700=IFCPROPERTYSET('1Mp0ffn8s9Z1IdxfspWFJM',#18,'Pset_EnvironmentalImpactIndicators',$,(#584));
#701=IFCRELDEFINESBYPROPERTIES('1Y2y1k91UhW0MmVTb4Uiqc',#18,$,$,(#695),#699);
#702=IFCRELDEFINESBYPROPERTIES('23c2ve0cOvc9l5VdFxqQhF',#18,$,$,(#695),#700);
#703=IFCMAPPEDITEM(#627,#489);
#704=IFCSHAPEREPRESENTATION(#24,'Body','MappedRepresentation',(#703));
#705=IFCPRODUCTDEFINITIONSHAPE($,$,(#704));
#706=IFCCARTESIANPOINT((3150.,-6900.,2100.));
#707=IFCAXIS2PLACEMENT3D(#706,#8,#5);
#708=IFCLOCALPLACEMENT(#34,#707);
#709=IFCBUILDINGELEMENTPROXY('1mRYVM4YfFFBRkcbz1hHzC',#18,'M_Trim-Window-Exterior-Flat:with Sill:1602889',$,'M_Trim-Window-Exterior-Flat:with Sill',#708,#705,'1602889',.NOTDEFINED.);
#710=IFCPROPERTYSET('28rJfOUy0C7afzqOgU5VEB',#18,'Pset_BuildingElementProxyCommon',$,(#45,#636));
#711=IFCPROPERTYSET('3224X8rYKWcEn$vVTukn$V',#18,'Pset_EnvironmentalImpactIndicators',$,(#636));
#712=IFCRELDEFINESBYPROPERTIES('0DeNxRkQ__C3Qx$GcmfbVR',#18,$,$,(#709),#710);
#713=IFCRELDEFINESBYPROPERTIES('2y5geX9N0UmsHDIfxVb$24',#18,$,$,(#709),#711);
#714=IFCMAPPEDITEM(#660,#489);
#715=IFCSHAPEREPRESENTATION(#24,'Body','MappedRepresentation',(#714));
#716=IFCPRODUCTDEFINITIONSHAPE($,$,(#715));
#717=IFCCARTESIANPOINT((3150.,-6700.,2100.));
#718=IFCAXIS2PLACEMENT3D(#717,#7,#6);
#719=IFCLOCALPLACEMENT(#34,#718);
#720=IFCBUILDINGELEMENTPROXY('1mRYVM4YfFFBRkcbz1hHzF',#18,'M_Trim-Window-Interior-Flat:Picture Frame:1602890',$,'M_Trim-Window-Interior-Flat:Picture Frame',#719,#716,'1602890',.NOTDEFINED.);
#721=IFCPROPERTYSET('2wbW$2tOzrLHcKysH9B1fa',#18,'Pset_BuildingElementProxyCommon',$,(#45,#669));
#722=IFCPROPERTYSET('2nUBmxiKmZqIrb9ng8cMTX',#18,'Pset_EnvironmentalImpactIndicators',$,(#669));
#723=IFCRELDEFINESBYPROPERTIES('1nIE1_bDHjlJIz4nRQfc6A',#18,$,$,(#720),#721);
#724=IFCRELDEFINESBYPROPERTIES('2F4MOXZ2TiBipolMFLGBlj',#18,$,$,(#720),#722);
#725=IFCMAPPEDITEM(#454,#489);
#726=IFCSHAPEREPRESENTATION(#24,'Body','MappedRepresentation',(#725));
#727=IFCPRODUCTDEFINITIONSHAPE($,$,(#726));
#728=IFCCARTESIANPOINT((8400.,-6700.,900.));
#729=IFCAXIS2PLACEMENT3D(#728,#9,#6);
#731=IFCWINDOW('1mRYVM4YfFFBRkcbz1hH_L',#18,'M_Window-Fixed:900 x 1200mm:1602960',$,'M_Window-Fixed:900 x 1200mm',#1161,#727,'1602960',1200.0000000000036,900.00000000000011,.WINDOW.,.NOTDEFINED.,$);
#732=IFCMATERIALCONSTITUENT('Wood - Stained',$,#457,$,'Wood');
#733=IFCMATERIALCONSTITUENT('Glass',$,#478,$,'Glass');
#734=IFCMATERIALCONSTITUENTSET($,$,(#732,#733));
#735=IFCPROPERTYSET('2XwGuzThFD$sS5kXK7K2Am',#18,'Pset_EnvironmentalImpactIndicators',$,(#500));
#736=IFCPROPERTYSINGLEVALUE('FireRating',$,IFCLABEL('0.5h'),$);
#737=IFCPROPERTYSET('1YFR0VMShl0hOrTCPj7V$w',#18,'Pset_WindowCommon',$,(#85,#500,#736));
#738=IFCRELDEFINESBYPROPERTIES('3m9mvXiByy2q1rLdmYwvhf',#18,$,$,(#731),#735);
#739=IFCRELDEFINESBYPROPERTIES('0XJDZt34GIkZrjQEoP4DlL',#18,$,$,(#731),#737);
#740=IFCMAPPEDITEM(#556,#489);
#741=IFCSHAPEREPRESENTATION(#24,'Body','MappedRepresentation',(#740));
#742=IFCPRODUCTDEFINITIONSHAPE($,$,(#741));
#743=IFCCARTESIANPOINT((7950.,-6890.4750000000049,938.10000000003629));
#744=IFCAXIS2PLACEMENT3D(#743,$,$);
#745=IFCLOCALPLACEMENT(#34,#744);
#746=IFCBUILDINGELEMENTPROXY('1mRYVM4YfFFBRkcbz1hH_M',#18,'M_Muntin Pattern_2x2:M_Muntin Pattern_2x2:1602963',$,'M_Muntin Pattern_2x2:M_Muntin Pattern_2x2',#745,#742,'1602963',.NOTDEFINED.);
#747=IFCMATERIALCONSTITUENT('Clad - White',$,#558,$,'Wood');
#748=IFCMATERIALCONSTITUENT('Wood - Stained',$,#457,$,'Wood');
#749=IFCMATERIALCONSTITUENTSET($,$,(#747,#748));
#750=IFCPROPERTYSET('0BjZk2rjFvfF_wXi8zFrKU',#18,'Pset_BuildingElementProxyCommon',$,(#45,#584));
#751=IFCPROPERTYSET('0o4Th5k7jcgkhwaVBwcXcI',#18,'Pset_EnvironmentalImpactIndicators',$,(#584));
#752=IFCRELDEFINESBYPROPERTIES('3I2noRMGaakIeggYd7pv9q',#18,$,$,(#746),#750);
#753=IFCRELDEFINESBYPROPERTIES('1LDhr2ZsXbfKdCEw73FrLz',#18,$,$,(#746),#751);
#754=IFCMAPPEDITEM(#627,#489);
#755=IFCSHAPEREPRESENTATION(#24,'Body','MappedRepresentation',(#754));
#756=IFCPRODUCTDEFINITIONSHAPE($,$,(#755));
#757=IFCCARTESIANPOINT((7950.,-6900.,2100.));
#758=IFCAXIS2PLACEMENT3D(#757,#8,#5);
#759=IFCLOCALPLACEMENT(#34,#758);
#760=IFCBUILDINGELEMENTPROXY('1mRYVM4YfFFBRkcbz1hH_H',#18,'M_Trim-Window-Exterior-Flat:with Sill:1602964',$,'M_Trim-Window-Exterior-Flat:with Sill',#759,#756,'1602964',.NOTDEFINED.);
#761=IFCPROPERTYSET('2L7XpZ7c5px9wvCfVA3_Wu',#18,'Pset_BuildingElementProxyCommon',$,(#45,#636));
#762=IFCPROPERTYSET('37qAW_omIRIAWjp3QR$ALv',#18,'Pset_EnvironmentalImpactIndicators',$,(#636));
#763=IFCRELDEFINESBYPROPERTIES('3gfEbMGu7KxMbk1ax9gp9R',#18,$,$,(#760),#761);
#764=IFCRELDEFINESBYPROPERTIES('1y8iJG2BrhRI2n1qXWTXFD',#18,$,$,(#760),#762);
#765=IFCMAPPEDITEM(#660,#489);
#766=IFCSHAPEREPRESENTATION(#24,'Body','MappedRepresentation',(#765));
#767=IFCPRODUCTDEFINITIONSHAPE($,$,(#766));
#768=IFCCARTESIANPOINT((7950.,-6700.,2100.));
#769=IFCAXIS2PLACEMENT3D(#768,#7,#6);
#770=IFCLOCALPLACEMENT(#34,#769);
#771=IFCBUILDINGELEMENTPROXY('1mRYVM4YfFFBRkcbz1hH_G',#18,'M_Trim-Window-Interior-Flat:Picture Frame:1602965',$,'M_Trim-Window-Interior-Flat:Picture Frame',#770,#767,'1602965',.NOTDEFINED.);
#772=IFCPROPERTYSET('3nvH6NGjxHquDGY9E4sygE',#18,'Pset_BuildingElementProxyCommon',$,(#45,#669));
#773=IFCPROPERTYSET('1NvumnRWBNvBuiNfhBDfes',#18,'Pset_EnvironmentalImpactIndicators',$,(#669));
#774=IFCRELDEFINESBYPROPERTIES('1_E9j3m2_znmCaV$Qsx3Be',#18,$,$,(#771),#772);
#775=IFCRELDEFINESBYPROPERTIES('3YtIJ5e6znQRMTscMUhzIQ',#18,$,$,(#771),#773);
#776=IFCMAPPEDITEM(#454,#489);
#777=IFCSHAPEREPRESENTATION(#24,'Body','MappedRepresentation',(#776));
#778=IFCPRODUCTDEFINITIONSHAPE($,$,(#777));
#779=IFCCARTESIANPOINT((6800.,-6700.,900.));
#780=IFCAXIS2PLACEMENT3D(#779,#9,#6);
#782=IFCWINDOW('1mRYVM4YfFFBRkcbz1hH$2',#18,'M_Window-Fixed:900 x 1200mm:1603015',$,'M_Window-Fixed:900 x 1200mm',#1176,#778,'1603015',1200.0000000000036,900.00000000000011,.WINDOW.,.NOTDEFINED.,$);
#783=IFCMATERIALCONSTITUENT('Wood - Stained',$,#457,$,'Wood');
#784=IFCMATERIALCONSTITUENT('Glass',$,#478,$,'Glass');
#785=IFCMATERIALCONSTITUENTSET($,$,(#783,#784));
#786=IFCPROPERTYSET('2Crl2NXR_EOLcvs6t1DFeF',#18,'Pset_EnvironmentalImpactIndicators',$,(#500));
#787=IFCPROPERTYSINGLEVALUE('FireRating',$,IFCLABEL('0.5h'),$);
#788=IFCPROPERTYSET('3cGky49zHlKvNHz7yhTuj6',#18,'Pset_WindowCommon',$,(#85,#500,#787));
#789=IFCRELDEFINESBYPROPERTIES('2Kv2$SumXj5dCwFSkW0EhR',#18,$,$,(#782),#786);
#790=IFCRELDEFINESBYPROPERTIES('0Eo5j0r3EQfVPZDt2UzJpZ',#18,$,$,(#782),#788);
#791=IFCMAPPEDITEM(#556,#489);
#792=IFCSHAPEREPRESENTATION(#24,'Body','MappedRepresentation',(#791));
#793=IFCPRODUCTDEFINITIONSHAPE($,$,(#792));
#794=IFCCARTESIANPOINT((6350.,-6890.4750000000049,938.10000000003629));
#795=IFCAXIS2PLACEMENT3D(#794,$,$);
#796=IFCLOCALPLACEMENT(#34,#795);
#797=IFCBUILDINGELEMENTPROXY('1mRYVM4YfFFBRkcbz1hH$F',#18,'M_Muntin Pattern_2x2:M_Muntin Pattern_2x2:1603018',$,'M_Muntin Pattern_2x2:M_Muntin Pattern_2x2',#796,#793,'1603018',.NOTDEFINED.);
#798=IFCMATERIALCONSTITUENT('Clad - White',$,#558,$,'Wood');
#799=IFCMATERIALCONSTITUENT('Wood - Stained',$,#457,$,'Wood');
#800=IFCMATERIALCONSTITUENTSET($,$,(#798,#799));
#801=IFCPROPERTYSET('0N3xMEV3$777fNkfM5JWxk',#18,'Pset_BuildingElementProxyCommon',$,(#45,#584));
#802=IFCPROPERTYSET('07_GYaS6UQmamYg00sRoC_',#18,'Pset_EnvironmentalImpactIndicators',$,(#584));
#803=IFCRELDEFINESBYPROPERTIES('2KcZ7MQLP2g0YdEhcQpPzO',#18,$,$,(#797),#801);
#804=IFCRELDEFINESBYPROPERTIES('0M7HvxbS4CYMMPcfpTJepo',#18,$,$,(#797),#802);
#805=IFCMAPPEDITEM(#627,#489);
#806=IFCSHAPEREPRESENTATION(#24,'Body','MappedRepresentation',(#805));
#807=IFCPRODUCTDEFINITIONSHAPE($,$,(#806));
#808=IFCCARTESIANPOINT((6350.,-6900.,2100.));
#809=IFCAXIS2PLACEMENT3D(#808,#8,#5);
#810=IFCLOCALPLACEMENT(#34,#809);
#811=IFCBUILDINGELEMENTPROXY('1mRYVM4YfFFBRkcbz1hH$E',#18,'M_Trim-Window-Exterior-Flat:with Sill:1603019',$,'M_Trim-Window-Exterior-Flat:with Sill',#810,#807,'1603019',.NOTDEFINED.);
#812=IFCPROPERTYSET('0De_V9K5sK3b3LtFLyExgC',#18,'Pset_BuildingElementProxyCommon',$,(#45,#636));
#813=IFCPROPERTYSET('11Njmc1ywWOZbzfPXyX5pn',#18,'Pset_EnvironmentalImpactIndicators',$,(#636));
#814=IFCRELDEFINESBYPROPERTIES('20baK38DCz3wfZvJmR_p3K',#18,$,$,(#811),#812);
#815=IFCRELDEFINESBYPROPERTIES('105k8z48jNmqACmW_nEzGT',#18,$,$,(#811),#813);
#816=IFCMAPPEDITEM(#660,#489);
#817=IFCSHAPEREPRESENTATION(#24,'Body','MappedRepresentation',(#816));
#818=IFCPRODUCTDEFINITIONSHAPE($,$,(#817));
#819=IFCCARTESIANPOINT((6350.,-6700.,2100.));
#820=IFCAXIS2PLACEMENT3D(#819,#7,#6);
#821=IFCLOCALPLACEMENT(#34,#820);
#822=IFCBUILDINGELEMENTPROXY('1mRYVM4YfFFBRkcbz1hH$9',#18,'M_Trim-Window-Interior-Flat:Picture Frame:1603020',$,'M_Trim-Window-Interior-Flat:Picture Frame',#821,#818,'1603020',.NOTDEFINED.);
#823=IFCPROPERTYSET('028JkKudNrnJ9A8nhwjWxI',#18,'Pset_BuildingElementProxyCommon',$,(#45,#669));
#824=IFCPROPERTYSET('1qg$sCoeT24Vtoyf0EPMLz',#18,'Pset_EnvironmentalImpactIndicators',$,(#669));
#825=IFCRELDEFINESBYPROPERTIES('05hhKKGL9EylK2FHxlEQDR',#18,$,$,(#822),#823);
#826=IFCRELDEFINESBYPROPERTIES('0PezmroJTuct48d2wI11lh',#18,$,$,(#822),#824);
#827=IFCMAPPEDITEM(#454,#489);
#828=IFCSHAPEREPRESENTATION(#24,'Body','MappedRepresentation',(#827));
#829=IFCPRODUCTDEFINITIONSHAPE($,$,(#828));
#830=IFCCARTESIANPOINT((9000.,-3300.,900.));
#831=IFCAXIS2PLACEMENT3D(#830,#9,#8);
#833=IFCWINDOW('1mRYVM4YfFFBRkcbz1hH$v',#18,'M_Window-Fixed:900 x 1200mm:1603068',$,'M_Window-Fixed:900 x 1200mm',#1191,#829,'1603068',1200.0000000000036,899.99999999999955,.WINDOW.,.NOTDEFINED.,$);
#834=IFCMATERIALCONSTITUENT('Wood - Stained',$,#457,$,'Wood');
#835=IFCMATERIALCONSTITUENT('Glass',$,#478,$,'Glass');
#836=IFCMATERIALCONSTITUENTSET($,$,(#834,#835));
#837=IFCPROPERTYSET('2NjVTrE85xpKup0Vllc9um',#18,'Pset_EnvironmentalImpactIndicators',$,(#500));
#838=IFCPROPERTYSINGLEVALUE('FireRating',$,IFCLABEL('0.5h'),$);
#839=IFCPROPERTYSET('1jjofZNWFkeR$7W1jEWn5T',#18,'Pset_WindowCommon',$,(#85,#500,#838));
#840=IFCRELDEFINESBYPROPERTIES('2wi8RSRYQ_UMupo2su7e6y',#18,$,$,(#833),#837);
#841=IFCRELDEFINESBYPROPERTIES('0jXaoAmKQax22r2_1ndFQq',#18,$,$,(#833),#839);
#842=IFCMAPPEDITEM(#556,#489);
#843=IFCSHAPEREPRESENTATION(#24,'Body','MappedRepresentation',(#842));
#844=IFCPRODUCTDEFINITIONSHAPE($,$,(#843));
#845=IFCCARTESIANPOINT((9190.4749999999949,-3750.,938.10000000003629));
#846=IFCAXIS2PLACEMENT3D(#845,#9,#7);
#847=IFCLOCALPLACEMENT(#34,#846);
#848=IFCBUILDINGELEMENTPROXY('1mRYVM4YfFFBRkcbz1hH$w',#18,'M_Muntin Pattern_2x2:M_Muntin Pattern_2x2:1603071',$,'M_Muntin Pattern_2x2:M_Muntin Pattern_2x2',#847,#844,'1603071',.NOTDEFINED.);
#849=IFCMATERIALCONSTITUENT('Clad - White',$,#558,$,'Wood');
#850=IFCMATERIALCONSTITUENT('Wood - Stained',$,#457,$,'Wood');
#851=IFCMATERIALCONSTITUENTSET($,$,(#849,#850));
#852=IFCPROPERTYSET('38L7LBoIerLKknMlkwTFjh',#18,'Pset_BuildingElementProxyCommon',$,(#45,#584));
#853=IFCPROPERTYSET('0IFLmVvDZSE7Q1RzZO2Uqb',#18,'Pset_EnvironmentalImpactIndicators',$,(#584));
#854=IFCRELDEFINESBYPROPERTIES('0afz_9uhjp4XNC5RXTgI3u',#18,$,$,(#848),#852);
#855=IFCRELDEFINESBYPROPERTIES('3ZR$TPaumUPgcJ__5UbTW7',#18,$,$,(#848),#853);
#856=IFCMAPPEDITEM(#627,#489);
#857=IFCSHAPEREPRESENTATION(#24,'Body','MappedRepresentation',(#856));
#858=IFCPRODUCTDEFINITIONSHAPE($,$,(#857));
#859=IFCCARTESIANPOINT((9200.,-3750.,2100.));
#860=IFCAXIS2PLACEMENT3D(#859,#5,#7);
#861=IFCLOCALPLACEMENT(#34,#860);
#862=IFCBUILDINGELEMENTPROXY('1mRYVM4YfFFBRkcbz1hHm5',#18,'M_Trim-Window-Exterior-Flat:with Sill:1603072',$,'M_Trim-Window-Exterior-Flat:with Sill',#861,#858,'1603072',.NOTDEFINED.);
#863=IFCPROPERTYSET('2oOjNbUwV2KHalYAIG42B0',#18,'Pset_BuildingElementProxyCommon',$,(#45,#636));
#864=IFCPROPERTYSET('2wLrDaJy1s39Hbd3ADL2ix',#18,'Pset_EnvironmentalImpactIndicators',$,(#636));
#865=IFCRELDEFINESBYPROPERTIES('1nldPlnbx1n6f73RAuxRgs',#18,$,$,(#862),#863);
#866=IFCRELDEFINESBYPROPERTIES('0IvDgg4bwBfmAEVsXH6Mpv',#18,$,$,(#862),#864);
#867=IFCMAPPEDITEM(#660,#489);
#868=IFCSHAPEREPRESENTATION(#24,'Body','MappedRepresentation',(#867));
#869=IFCPRODUCTDEFINITIONSHAPE($,$,(#868));
#870=IFCCARTESIANPOINT((9000.,-3750.,2100.));
#871=IFCAXIS2PLACEMENT3D(#870,#6,#8);
#872=IFCLOCALPLACEMENT(#34,#871);
#873=IFCBUILDINGELEMENTPROXY('1mRYVM4YfFFBRkcbz1hHm4',#18,'M_Trim-Window-Interior-Flat:Picture Frame:1603073',$,'M_Trim-Window-Interior-Flat:Picture Frame',#872,#869,'1603073',.NOTDEFINED.);
#874=IFCPROPERTYSET('3jPibkyJu$jakhyG2jw54h',#18,'Pset_BuildingElementProxyCommon',$,(#45,#669));
#875=IFCPROPERTYSET('0eVL3tAk4NRIcsgnZIwDLs',#18,'Pset_EnvironmentalImpactIndicators',$,(#669));
#876=IFCRELDEFINESBYPROPERTIES('3Ifuf7RBBkSfCHwIx7s9OG',#18,$,$,(#873),#874);
#877=IFCRELDEFINESBYPROPERTIES('1ik2FsS7mWV5UPBdOZh8RB',#18,$,$,(#873),#875);
#878=IFCMAPPEDITEM(#454,#489);
#879=IFCSHAPEREPRESENTATION(#24,'Body','MappedRepresentation',(#878));
#880=IFCPRODUCTDEFINITIONSHAPE($,$,(#879));
#881=IFCCARTESIANPOINT((200.,-1700.,900.));
#882=IFCAXIS2PLACEMENT3D(#881,#9,#7);
#884=IFCWINDOW('1mRYVM4YfFFBRkcbz1hHo4',#18,'M_Window-Fixed:900 x 1200mm:1603201',$,'M_Window-Fixed:900 x 1200mm',#1101,#880,'1603201',1200.0000000000036,899.99999999999989,.WINDOW.,.NOTDEFINED.,$);
#885=IFCMATERIALCONSTITUENT('Wood - Stained',$,#457,$,'Wood');
#886=IFCMATERIALCONSTITUENT('Glass',$,#478,$,'Glass');
#887=IFCMATERIALCONSTITUENTSET($,$,(#885,#886));
#888=IFCPROPERTYSET('1wB$qzsd3xU5JKwpMOBKdJ',#18,'Pset_EnvironmentalImpactIndicators',$,(#500));
#889=IFCPROPERTYSINGLEVALUE('FireRating',$,IFCLABEL('0.5h'),$);
#890=IFCPROPERTYSET('2i_MWYDHCGbyCzfStpVoB1',#18,'Pset_WindowCommon',$,(#85,#500,#889));
#891=IFCRELDEFINESBYPROPERTIES('1vzd$EhGMDUy0rLDIVEyF$',#18,$,$,(#884),#888);
#892=IFCRELDEFINESBYPROPERTIES('3YIJe3vvIiXgxmL88c6zAs',#18,$,$,(#884),#890);
#893=IFCMAPPEDITEM(#556,#489);
#894=IFCSHAPEREPRESENTATION(#24,'Body','MappedRepresentation',(#893));
#895=IFCPRODUCTDEFINITIONSHAPE($,$,(#894));
#896=IFCCARTESIANPOINT((9.5249999999942307,-1250.,938.10000000003629));
#897=IFCAXIS2PLACEMENT3D(#896,#9,#8);
#898=IFCLOCALPLACEMENT(#34,#897);
#899=IFCBUILDINGELEMENTPROXY('1mRYVM4YfFFBRkcbz1hHo1',#18,'M_Muntin Pattern_2x2:M_Muntin Pattern_2x2:1603204',$,'M_Muntin Pattern_2x2:M_Muntin Pattern_2x2',#898,#895,'1603204',.NOTDEFINED.);
#900=IFCMATERIALCONSTITUENT('Clad - White',$,#558,$,'Wood');
#901=IFCMATERIALCONSTITUENT('Wood - Stained',$,#457,$,'Wood');
#902=IFCMATERIALCONSTITUENTSET($,$,(#900,#901));
#903=IFCPROPERTYSET('1diqteU2uZ4UsoSkP0cQwS',#18,'Pset_BuildingElementProxyCommon',$,(#45,#584));
#904=IFCPROPERTYSET('1WIWHfHaJYHVLZKgYRvrxZ',#18,'Pset_EnvironmentalImpactIndicators',$,(#584));
#905=IFCRELDEFINESBYPROPERTIES('2b5TaTxK62Bu7oflao7LgA',#18,$,$,(#899),#903);
#906=IFCRELDEFINESBYPROPERTIES('3a3etv6o6J3NylolvrbG8L',#18,$,$,(#899),#904);
#907=IFCMAPPEDITEM(#627,#489);
#908=IFCSHAPEREPRESENTATION(#24,'Body','MappedRepresentation',(#907));
#909=IFCPRODUCTDEFINITIONSHAPE($,$,(#908));
#910=IFCCARTESIANPOINT((0.,-1250.,2100.));
#911=IFCAXIS2PLACEMENT3D(#910,#6,#8);
#912=IFCLOCALPLACEMENT(#34,#911);
#913=IFCBUILDINGELEMENTPROXY('1mRYVM4YfFFBRkcbz1hHo0',#18,'M_Trim-Window-Exterior-Flat:with Sill:1603205',$,'M_Trim-Window-Exterior-Flat:with Sill',#912,#909,'1603205',.NOTDEFINED.);
#914=IFCPROPERTYSET('0fA7whQarnwDCVfANG8NXx',#18,'Pset_BuildingElementProxyCommon',$,(#45,#636));
#915=IFCPROPERTYSET('1nkj0QrZDi67yC4JNWyy6F',#18,'Pset_EnvironmentalImpactIndicators',$,(#636));
#916=IFCRELDEFINESBYPROPERTIES('021ZSUjF$BPmPcdhn9iFUL',#18,$,$,(#913),#914);
#917=IFCRELDEFINESBYPROPERTIES('3yhuJMyAqtlGK863MGY7PV',#18,$,$,(#913),#915);
#918=IFCMAPPEDITEM(#660,#489);
#919=IFCSHAPEREPRESENTATION(#24,'Body','MappedRepresentation',(#918));
#920=IFCPRODUCTDEFINITIONSHAPE($,$,(#919));
#921=IFCCARTESIANPOINT((200.,-1250.,2100.));
#922=IFCAXIS2PLACEMENT3D(#921,#5,#7);
#923=IFCLOCALPLACEMENT(#34,#922);
#924=IFCBUILDINGELEMENTPROXY('1mRYVM4YfFFBRkcbz1hHo3',#18,'M_Trim-Window-Interior-Flat:Picture Frame:1603206',$,'M_Trim-Window-Interior-Flat:Picture Frame',#923,#920,'1603206',.NOTDEFINED.);
#925=IFCPROPERTYSET('1H1BumuSVRqlQyVtHcxQ1S',#18,'Pset_BuildingElementProxyCommon',$,(#45,#669));
#926=IFCPROPERTYSET('127zlbkkrSDkMNF9LxI_DK',#18,'Pset_EnvironmentalImpactIndicators',$,(#669));
#927=IFCRELDEFINESBYPROPERTIES('1wAVj0I3SszpqE7KiCpLU8',#18,$,$,(#924),#925);
#928=IFCRELDEFINESBYPROPERTIES('06G6pi2lBBHTx5baQ7bWFe',#18,$,$,(#924),#926);
#929=IFCMAPPEDITEM(#454,#489);
#930=IFCSHAPEREPRESENTATION(#24,'Body','MappedRepresentation',(#929));
#931=IFCPRODUCTDEFINITIONSHAPE($,$,(#930));
#932=IFCCARTESIANPOINT((200.,-6400.,900.));
#933=IFCAXIS2PLACEMENT3D(#932,#9,#7);
#935=IFCWINDOW('1mRYVM4YfFFBRkcbz1hHpZ',#18,'M_Window-Fixed:900 x 1200mm:1603302',$,'M_Window-Fixed:900 x 1200mm',#1116,#931,'1603302',1200.0000000000036,900.00000000000011,.WINDOW.,.NOTDEFINED.,$);
#936=IFCMATERIALCONSTITUENT('Wood - Stained',$,#457,$,'Wood');
#937=IFCMATERIALCONSTITUENT('Glass',$,#478,$,'Glass');
#938=IFCMATERIALCONSTITUENTSET($,$,(#936,#937));
#939=IFCPROPERTYSET('3c29Eh2uaaW6i7V33ljF_t',#18,'Pset_EnvironmentalImpactIndicators',$,(#500));
#940=IFCPROPERTYSINGLEVALUE('FireRating',$,IFCLABEL('0.5h'),$);
#941=IFCPROPERTYSET('1cJfOMaMbLVTwP0Fw5swoh',#18,'Pset_WindowCommon',$,(#85,#500,#940));
#942=IFCRELDEFINESBYPROPERTIES('2HAK5ikOJoZvcpLCGhML_7',#18,$,$,(#935),#939);
#943=IFCRELDEFINESBYPROPERTIES('2q2La_ghrxbY16s_Dh9f4Y',#18,$,$,(#935),#941);
#944=IFCMAPPEDITEM(#556,#489);
#945=IFCSHAPEREPRESENTATION(#24,'Body','MappedRepresentation',(#944));
#946=IFCPRODUCTDEFINITIONSHAPE($,$,(#945));
#947=IFCCARTESIANPOINT((9.5249999999866848,-5950.,938.10000000003629));
#948=IFCAXIS2PLACEMENT3D(#947,#9,#8);
#949=IFCLOCALPLACEMENT(#34,#948);
#950=IFCBUILDINGELEMENTPROXY('1mRYVM4YfFFBRkcbz1hHpi',#18,'M_Muntin Pattern_2x2:M_Muntin Pattern_2x2:1603305',$,'M_Muntin Pattern_2x2:M_Muntin Pattern_2x2',#949,#946,'1603305',.NOTDEFINED.);
#951=IFCMATERIALCONSTITUENT('Clad - White',$,#558,$,'Wood');
#952=IFCMATERIALCONSTITUENT('Wood - Stained',$,#457,$,'Wood');
#953=IFCMATERIALCONSTITUENTSET($,$,(#951,#952));
#954=IFCPROPERTYSET('0kJ1obayD7b6BJLTwGrExt',#18,'Pset_BuildingElementProxyCommon',$,(#45,#584));
#955=IFCPROPERTYSET('0JsXPdYYt6a7ywH5TGyQ8b',#18,'Pset_EnvironmentalImpactIndicators',$,(#584));
#956=IFCRELDEFINESBYPROPERTIES('0$8MlVaR7rSRVTEugWeBu_',#18,$,$,(#950),#954);
#957=IFCRELDEFINESBYPROPERTIES('1gaERJokm4R$1kZoHOekrv',#18,$,$,(#950),#955);
#958=IFCMAPPEDITEM(#627,#489);
#959=IFCSHAPEREPRESENTATION(#24,'Body','MappedRepresentation',(#958));
#960=IFCPRODUCTDEFINITIONSHAPE($,$,(#959));
#961=IFCCARTESIANPOINT((0.,-5950.,2100.));
#962=IFCAXIS2PLACEMENT3D(#961,#6,#8);
#963=IFCLOCALPLACEMENT(#34,#962);
#964=IFCBUILDINGELEMENTPROXY('1mRYVM4YfFFBRkcbz1hHpl',#18,'M_Trim-Window-Exterior-Flat:with Sill:1603306',$,'M_Trim-Window-Exterior-Flat:with Sill',#963,#960,'1603306',.NOTDEFINED.);
#965=IFCPROPERTYSET('35wwO9ZjL5$H71XDnFaYZY',#18,'Pset_BuildingElementProxyCommon',$,(#45,#636));
#966=IFCPROPERTYSET('2BWW_P4K4ruCGBfslTq0n9',#18,'Pset_EnvironmentalImpactIndicators',$,(#636));
#967=IFCRELDEFINESBYPROPERTIES('0fvxRHP1bvvcHxmIySr$VY',#18,$,$,(#964),#965);
#968=IFCRELDEFINESBYPROPERTIES('0JxGgLguX6kVX$26LSdux9',#18,$,$,(#964),#966);
#969=IFCMAPPEDITEM(#660,#489);
#970=IFCSHAPEREPRESENTATION(#24,'Body','MappedRepresentation',(#969));
#971=IFCPRODUCTDEFINITIONSHAPE($,$,(#970));
#972=IFCCARTESIANPOINT((200.,-5950.,2100.));
#973=IFCAXIS2PLACEMENT3D(#972,#5,#7);
#974=IFCLOCALPLACEMENT(#34,#973);
#975=IFCBUILDINGELEMENTPROXY('1mRYVM4YfFFBRkcbz1hHpk',#18,'M_Trim-Window-Interior-Flat:Picture Frame:1603307',$,'M_Trim-Window-Interior-Flat:Picture Frame',#974,#971,'1603307',.NOTDEFINED.);
#976=IFCPROPERTYSET('3ikKOH8ATedSB7KaFqllNL',#18,'Pset_BuildingElementProxyCommon',$,(#45,#669));
#977=IFCPROPERTYSET('3u8_qfUgzNGhGs9FO9OH4K',#18,'Pset_EnvironmentalImpactIndicators',$,(#669));
#978=IFCRELDEFINESBYPROPERTIES('1kuLpmVOQPE7795P2BmQx3',#18,$,$,(#975),#976);
#979=IFCRELDEFINESBYPROPERTIES('3K$N9YeQzJpSqGv39UhUM7',#18,$,$,(#975),#977);
#980=IFCCARTESIANPOINT((200.,-2800.,0.));
#981=IFCAXIS2PLACEMENT3D(#980,$,$);
#982=IFCLOCALPLACEMENT(#34,#981);
#983=IFCCARTESIANPOINT((5100.,0.));
#984=IFCPOLYLINE((#4,#983));
#985=IFCSHAPEREPRESENTATION(#23,'Axis','Curve2D',(#984));
#986=IFCCARTESIANPOINT((2549.9999999999973,-2.1316282072803006E-14));
#987=IFCAXIS2PLACEMENT2D(#986,#12);
#988=IFCRECTANGLEPROFILEDEF(.AREA.,$,#987,5099.9999999999945,200.);
#989=IFCAXIS2PLACEMENT3D(#3,$,$);
#990=IFCEXTRUDEDAREASOLID(#988,#989,#9,3000.);
#991=IFCSTYLEDITEM(#990,(#69),$);
#992=IFCSHAPEREPRESENTATION(#24,'Body','SweptSolid',(#990));
#993=IFCPRODUCTDEFINITIONSHAPE($,$,(#985,#992));
#994=IFCWALL('1mRYVM4YfFFBRkcbz1hHAI',#18,'Basic Wall:Generic - 200mm:1603735',$,'Basic Wall:Generic - 200mm',#982,#993,'1603735',.NOTDEFINED.);
#995=IFCPROPERTYSET('0n385TLwafAfVdkXnj0ZJO',#18,'Pset_EnvironmentalImpactIndicators',$,(#81));
#996=IFCPROPERTYSINGLEVALUE('Reference',$,IFCLABEL('Generic - 200mm'),$);
#997=IFCPROPERTYSET('3D1i2VUx7UNH1gggbH2z$I',#18,'Pset_ReinforcementBarPitchOfWall',$,(#996));
#998=IFCPROPERTYSET('3ndFEJcLLBQYak5EOOfP9i',#18,'Pset_WallCommon',$,(#81,#85,#86,#87));
#999=IFCRELDEFINESBYPROPERTIES('0XAqyxcGtkY1_a2rZE93ei',#18,$,$,(#994),#995);
#1000=IFCRELDEFINESBYPROPERTIES('3aNFAcqK4eKwIMB$nwaZwq',#18,$,$,(#994),#997);
#1001=IFCRELDEFINESBYPROPERTIES('0iYjiTZiUy9YAIqGuVuw_C',#18,$,$,(#994),#998);
#1002=IFCCARTESIANPOINT((3500.,-2700.,0.));
#1003=IFCAXIS2PLACEMENT3D(#1002,#9,#7);
#1004=IFCLOCALPLACEMENT(#34,#1003);
#1005=IFCCARTESIANPOINT((2500.,0.));
#1006=IFCPOLYLINE((#4,#1005));
#1007=IFCSHAPEREPRESENTATION(#23,'Axis','Curve2D',(#1006));
#1008=IFCCARTESIANPOINT((1250.0000000000007,0.));
#1009=IFCAXIS2PLACEMENT2D(#1008,#12);
#1010=IFCRECTANGLEPROFILEDEF(.AREA.,$,#1009,2500.0000000000014,200.);
#1011=IFCAXIS2PLACEMENT3D(#3,$,$);
#1012=IFCEXTRUDEDAREASOLID(#1010,#1011,#9,3000.);
#1013=IFCSTYLEDITEM(#1012,(#69),$);
#1014=IFCSHAPEREPRESENTATION(#24,'Body','SweptSolid',(#1012));
#1015=IFCPRODUCTDEFINITIONSHAPE($,$,(#1007,#1014));
#1016=IFCWALL('1mRYVM4YfFFBRkcbz1hHCV',#18,'Basic Wall:Generic - 200mm:1603866',$,'Basic Wall:Generic - 200mm',#1004,#1015,'1603866',.NOTDEFINED.);
#1017=IFCPROPERTYSET('2aot2BnJJrEGY34_6H0Q5o',#18,'Pset_EnvironmentalImpactIndicators',$,(#81));
#1018=IFCPROPERTYSINGLEVALUE('Reference',$,IFCLABEL('Generic - 200mm'),$);
#1019=IFCPROPERTYSET('0SOwyoT7Vw51Pv79Pa9cXU',#18,'Pset_ReinforcementBarPitchOfWall',$,(#1018));
#1020=IFCPROPERTYSET('18JVumO4PNfpDk5UZv$t4n',#18,'Pset_WallCommon',$,(#81,#85,#86,#87));
#1021=IFCRELDEFINESBYPROPERTIES('20_1jY5P4$pr1AZWeZEQHs',#18,$,$,(#1016),#1017);
#1022=IFCRELDEFINESBYPROPERTIES('1I$sNQxcNylsGbTsgnfwTQ',#18,$,$,(#1016),#1019);
#1023=IFCRELDEFINESBYPROPERTIES('1zRU8$FyNM8CIB8KT$3vOx',#18,$,$,(#1016),#1020);
#1024=IFCPROPERTYSINGLEVALUE('Reference',$,IFCIDENTIFIER('8mm Head'),$);
#1025=IFCPROPERTYSINGLEVALUE('AboveGround',$,IFCLOGICAL(.U.),$);
#1026=IFCPROPERTYSET('16L50AfyZF4hYq5TGET4H4',#18,'Pset_BuildingStoreyCommon',$,(#1024,#1025));
#1027=IFCPROPERTYSET('2J7ac_h5ujdwWuzVwBIIta',#18,'Pset_SpaceCommon',$,(#45,#1024));
#1028=IFCRELDEFINESBYPROPERTIES('2VdfSfkgzGoZi_3SgzE8$0',#18,$,$,(#35),#1026);
#1029=IFCRELDEFINESBYPROPERTIES('3$YdOpA8iaPobC8MDiWxoI',#18,$,$,(#35),#1027);
#1030=IFCRELCONTAINEDINSPATIALSTRUCTURE('2JF4e6axWHqu3u0C5FZlmi',#18,$,$,(#73,#109,#131,#153,#175,#197,#496,#580,#635,#668,#680,#695,#709,#720,#731,#746,#760,#771,#782,#797,#811,#822,#833,#848,#862,#873,#884,#899,#913,#924,#935,#950,#964,#975,#994,#1016),#35);
#1031=IFCPROPERTYSET('1n34enW33Z_3Qq2Pm1kjQZ',#18,'Pset_BuildingStoreyCommon',$,(#1024,#1025));
#1032=IFCPROPERTYSET('0qNc4$IaPwTvoqOd7IlIE4',#18,'Pset_SpaceCommon',$,(#45,#1024));
#1033=IFCRELDEFINESBYPROPERTIES('36oM8gyLQ5_Z6XoGK5uP1E',#18,$,$,(#39),#1031);
#1034=IFCRELDEFINESBYPROPERTIES('0jA6Vdz$3CfPvu_I1iTL6J',#18,$,$,(#39),#1032);
#1035=IFCRELAGGREGATES('2KFB6YYWgXBmucZ8cm7uCP',#18,$,$,#27,(#42));
#1036=IFCRELAGGREGATES('16_hfJTeCqU7LcG8m10BTS',#18,$,$,#42,(#32));
#1037=IFCRELAGGREGATES('1yhDISh1T5aQqAoygxGIhP',#18,$,$,#32,(#35,#39));
#1038=IFCPROPERTYSINGLEVALUE('NumberOfStoreys',$,IFCCOUNTMEASURE(1),$);
#1039=IFCPROPERTYSINGLEVALUE('IsLandmarked',$,IFCLOGICAL(.U.),$);
#1040=IFCPROPERTYSET('01y_GmllCupEYuBgfGbhkd',#18,'Pset_BuildingCommon',$,(#43,#1038,#1039));
#1041=IFCPROPERTYSET('1rUR7OGyIAkZT62xvibLnd',#18,'Pset_BuildingElementProxyCommon',$,(#43,#45));
#1042=IFCPROPERTYSET('2kFDjjfIaTsBi7MLK$i$Me',#18,'Pset_BuildingStoreyCommon',$,(#43,#1025));
#1043=IFCPROPERTYSET('1TYvb3FgH88mtl04iE5P1T',#18,'Pset_BuildingSystemCommon',$,(#43));
#1044=IFCPROPERTYSET('2W94HCj5xfigmNGtkBMklk',#18,'Pset_SpaceCommon',$,(#43,#45));
#1045=IFCRELDEFINESBYPROPERTIES('0vDjba2fshDEh0_KufwWht',#18,$,$,(#32),#1040);
#1046=IFCRELDEFINESBYPROPERTIES('1V6UQfELB4oPy3GPEaJMPw',#18,$,$,(#32),#1041);
#1047=IFCRELDEFINESBYPROPERTIES('0Vpd75HttOMIhzXutBGgCt',#18,$,$,(#32),#1042);
#1048=IFCRELDEFINESBYPROPERTIES('22VMRBFW9n6_S81yWIP225',#18,$,$,(#32),#1043);
#1049=IFCRELDEFINESBYPROPERTIES('2w3bzVlKnfBVjA3_BjG2II',#18,$,$,(#32),#1044);
#1050=IFCRELASSOCIATESMATERIAL('1peUeYjvnB6no44Q38iFZX',#18,$,$,(#456),#488);
#1051=IFCRELASSOCIATESMATERIAL('1t1Uy$eLNedvJz0gOXo6oV',#18,$,$,(#496),#499);
#1052=IFCRELASSOCIATESMATERIAL('2AM9aUH9RBsTyDOd3To1rA',#18,$,$,(#557),#573);
#1053=IFCRELASSOCIATESMATERIAL('0tDEqgs0dAnQsDwAMi7FNe',#18,$,$,(#580),#583);
#1054=IFCRELASSOCIATESMATERIAL('0ZoZ8C8dloB45bxugeO0SD',#18,$,$,(#680),#683);
#1055=IFCRELASSOCIATESMATERIAL('30SOHp$konfJJ9hauFIjhr',#18,$,$,(#695),#698);
#1056=IFCRELASSOCIATESMATERIAL('2P94Gz0gtuecpXcyGr2XDU',#18,$,$,(#731),#734);
#1057=IFCRELASSOCIATESMATERIAL('0gQYNE331aLhs9Q5tRDW1D',#18,$,$,(#746),#749);
#1058=IFCRELASSOCIATESMATERIAL('2b2Y8K7MUxQAtjCDUM1tY9',#18,$,$,(#782),#785);
#1059=IFCRELASSOCIATESMATERIAL('0g9JD9oPUivlN5q0zw_QZb',#18,$,$,(#797),#800);
#1060=IFCRELASSOCIATESMATERIAL('3sFRQhRituEno$fraA0p8r',#18,$,$,(#833),#836);
#1061=IFCRELASSOCIATESMATERIAL('01x8mF_tuMSWAXfj7m7sSy',#18,$,$,(#848),#851);
#1062=IFCRELASSOCIATESMATERIAL('3uo0RrNd8DHcCx2ROx9Vkv',#18,$,$,(#884),#887);
#1063=IFCRELASSOCIATESMATERIAL('0$E5LxfClEXZZv3rsmuMWN',#18,$,$,(#899),#902);
#1064=IFCRELASSOCIATESMATERIAL('3fjjMX4tX6sS32JBb5PAA3',#18,$,$,(#935),#938);
#1065=IFCRELASSOCIATESMATERIAL('1yq1iWB5GdfY5OecOPAi_l',#18,$,$,(#950),#953);
#1066=IFCRELASSOCIATESMATERIAL('22T9r9KB1F3JFgePfxkUGp',#18,$,$,(#73,#80,#109,#131,#153,#175,#197,#994,#1016),#79);
#1067=IFCRELASSOCIATESMATERIAL('29Bp5OMMJjHNegq23Z6wnS',#18,$,$,(#661,#668,#720,#771,#822,#873,#924,#975),#457);
#1068=IFCRELASSOCIATESMATERIAL('0a20Dxgm9PgIzatkOj_0xF',#18,$,$,(#628,#635,#709,#760,#811,#862,#913,#964),#558);
#1069=IFCRELDEFINESBYTYPE('0MSq_ijuC5q4PUKv4QkOsA',#18,$,$,(#73,#109,#131,#153,#175,#197,#994,#1016),#80);
#1070=IFCRELDEFINESBYTYPE('0tCKdhmg0Lq_pG0gr2fhls',#18,$,$,(#496,#680,#731,#782,#833,#884,#935),#456);
#1071=IFCRELDEFINESBYTYPE('346L0lX0EyIxuIYTGHIwVL',#18,$,$,(#580,#695,#746,#797,#848,#899,#950),#557);
#1072=IFCRELDEFINESBYTYPE('3LjtG2EA_rYL3P$ncc5595',#18,$,$,(#635,#709,#760,#811,#862,#913,#964),#628);
#1073=IFCRELDEFINESBYTYPE('2C4H5IaouGA0qojxwp7drG',#18,$,$,(#668,#720,#771,#822,#873,#924,#975),#661);
#1074=IFCRELCONNECTSPATHELEMENTS('3rUDTz_$QOIB4hyJoDdSJP',#18,'1mRYVM4YfFFBRkcbz1hHZ$|1mRYVM4YfFFBRkcbz1hHcs','Structural',$,#73,#197,(),(),.ATEND.,.ATSTART.);
#1075=IFCRELCONNECTSPATHELEMENTS('2iwoPCu_8O$TCLGRyzTN7v',#18,'1mRYVM4YfFFBRkcbz1hHZ$|1mRYVM4YfFFBRkcbz1hHaA','Structural',$,#73,#109,(),(),.ATSTART.,.ATEND.);
#1076=IFCRELCONNECTSPATHELEMENTS('22KhOhUWKH651iKZC3E75r',#18,'1mRYVM4YfFFBRkcbz1hHaA|1mRYVM4YfFFBRkcbz1hHa_','Structural',$,#109,#131,(),(),.ATSTART.,.ATEND.);
#1077=IFCRELCONNECTSPATHELEMENTS('0LGnfJPiCALfoEGcFmwOC8',#18,'1mRYVM4YfFFBRkcbz1hHa_|1mRYVM4YfFFBRkcbz1hHbM','Structural',$,#131,#153,(),(),.ATSTART.,.ATEND.);
#1078=IFCRELCONNECTSPATHELEMENTS('3Arl8aWyJIS8irrfvqVt4O',#18,'1mRYVM4YfFFBRkcbz1hHbM|1mRYVM4YfFFBRkcbz1hHbp','Structural',$,#153,#175,(),(),.ATSTART.,.ATEND.);
#1079=IFCRELCONNECTSPATHELEMENTS('3Oj5$ONJZW3FJxZ1CBqCNq',#18,'1mRYVM4YfFFBRkcbz1hHbp|1mRYVM4YfFFBRkcbz1hHcs','Structural',$,#175,#197,(),(),.ATSTART.,.ATEND.);
#1080=IFCRELCONNECTSPATHELEMENTS('3fXdaBYR3a0QlAuF_TR20g',#18,'1mRYVM4YfFFBRkcbz1hHZ$|1mRYVM4YfFFBRkcbz1hHAI','Structural',$,#73,#994,(),(),.ATSTART.,.ATPATH.);
#1081=IFCRELCONNECTSPATHELEMENTS('2pbQTGiFjy4D5xfjUYkS4J',#18,'1mRYVM4YfFFBRkcbz1hHbp|1mRYVM4YfFFBRkcbz1hHAI','Structural',$,#175,#994,(),(),.ATEND.,.ATPATH.);
#1082=IFCRELCONNECTSPATHELEMENTS('28vti4zky_WeHuCy6mwldw',#18,'1mRYVM4YfFFBRkcbz1hHAI|1mRYVM4YfFFBRkcbz1hHCV','Structural',$,#994,#1016,(),(),.ATSTART.,.ATPATH.);
#1083=IFCRELCONNECTSPATHELEMENTS('2mWdZYUpy6pchmP_pr_YpQ',#18,'1mRYVM4YfFFBRkcbz1hHcs|1mRYVM4YfFFBRkcbz1hHCV','Structural',$,#197,#1016,(),(),.ATEND.,.ATPATH.);
#1084=IFCPRESENTATIONLAYERASSIGNMENT('A-WALL-____-OTLN',$,(#60,#71,#100,#107,#122,#129,#144,#151,#166,#173,#188,#195,#985,#992,#1007,#1014),$);
#1085=IFCPRESENTATIONLAYERASSIGNMENT('A-GLAZ-____-OTLN',$,(#452,#483,#486,#491,#675,#726,#777,#828,#879,#930),$);
#1086=IFCPRESENTATIONLAYERASSIGNMENT('A-GENM-____-OTLN',$,(#554,#568,#571,#575,#625,#630,#658,#663,#690,#704,#715,#741,#755,#766,#792,#806,#817,#843,#857,#868,#894,#908,#919,#945,#959,#970),$);
#1087=IFCCARTESIANPOINT((600.00000000000182,449.99999999999983));
#1088=IFCAXIS2PLACEMENT2D(#1087,#12);
#1089=IFCRECTANGLEPROFILEDEF(.AREA.,$,#1088,1200.0000000000036,899.99999999999966);
#1090=IFCAXIS2PLACEMENT3D(#3,#8,#9);
#1091=IFCEXTRUDEDAREASOLID(#1089,#1090,#9,200.);
#1092=IFCSHAPEREPRESENTATION(#24,'Body','SweptSolid',(#1091));
#1093=IFCPRODUCTDEFINITIONSHAPE($,$,(#1092));
#1094=IFCCARTESIANPOINT((1700.,100.,900.));
#1095=IFCAXIS2PLACEMENT3D(#1094,$,$);
#1096=IFCLOCALPLACEMENT(#57,#1095);
#1097=IFCOPENINGELEMENT('2d53Ma4Hc460dNhj8JlSQo',#18,'M_Window-Fixed:900 x 1200mm:1603201:1',$,$,#1096,#1093,'1603201',.OPENING.);
#1098=IFCRELVOIDSELEMENT('1mRYVM4YfFFBRkcaj1hHo4',#18,$,$,#73,#1097);
#1099=IFCRELFILLSELEMENT('1TRsoELfruHvmsxQ40js8q',#18,$,$,#1097,#884);
#1100=IFCAXIS2PLACEMENT3D(#3,#9,#6);
#1101=IFCLOCALPLACEMENT(#1096,#1100);
#1102=IFCCARTESIANPOINT((600.00000000000182,449.99999999999983));
#1103=IFCAXIS2PLACEMENT2D(#1102,#12);
#1104=IFCRECTANGLEPROFILEDEF(.AREA.,$,#1103,1200.0000000000036,899.99999999999966);
#1105=IFCAXIS2PLACEMENT3D(#3,#8,#9);
#1106=IFCEXTRUDEDAREASOLID(#1104,#1105,#9,200.);
#1107=IFCSHAPEREPRESENTATION(#24,'Body','SweptSolid',(#1106));
#1108=IFCPRODUCTDEFINITIONSHAPE($,$,(#1107));
#1109=IFCCARTESIANPOINT((6400.,100.,900.));
#1110=IFCAXIS2PLACEMENT3D(#1109,$,$);
#1111=IFCLOCALPLACEMENT(#57,#1110);
#1112=IFCOPENINGELEMENT('0glQxPaBwI0t3x8bVYfCFb',#18,'M_Window-Fixed:900 x 1200mm:1603302:1',$,$,#1111,#1108,'1603302',.OPENING.);
#1113=IFCRELVOIDSELEMENT('1mRYVM4YfFFBRkcaj1hHpZ',#18,$,$,#73,#1112);
#1114=IFCRELFILLSELEMENT('3kxcVN6Is1HlG57KHIR3VJ',#18,$,$,#1112,#935);
#1115=IFCAXIS2PLACEMENT3D(#3,#9,#6);
#1116=IFCLOCALPLACEMENT(#1111,#1115);
#1117=IFCCARTESIANPOINT((600.00000000000182,449.99999999999983));
#1118=IFCAXIS2PLACEMENT2D(#1117,#12);
#1119=IFCRECTANGLEPROFILEDEF(.AREA.,$,#1118,1200.0000000000036,899.99999999999966);
#1120=IFCAXIS2PLACEMENT3D(#3,#8,#9);
#1121=IFCEXTRUDEDAREASOLID(#1119,#1120,#9,200.);
#1122=IFCSHAPEREPRESENTATION(#24,'Body','SweptSolid',(#1121));
#1123=IFCPRODUCTDEFINITIONSHAPE($,$,(#1122));
#1124=IFCCARTESIANPOINT((1900.,100.,900.));
#1125=IFCAXIS2PLACEMENT3D(#1124,$,$);
#1126=IFCLOCALPLACEMENT(#97,#1125);
#1127=IFCOPENINGELEMENT('0$NPMRKlD2ipqMM9g4Qfid',#18,'M_Window-Fixed:900 x 1200mm:1602673:1',$,$,#1126,#1123,'1602673',.OPENING.);
#1128=IFCRELVOIDSELEMENT('1mRYVM4YfFFBRkcaj1hHvq',#18,$,$,#109,#1127);
#1129=IFCRELFILLSELEMENT('0KdgXMdT9NuentN_xkX9sF',#18,$,$,#1127,#496);
#1130=IFCAXIS2PLACEMENT3D(#3,#9,#6);
#1131=IFCLOCALPLACEMENT(#1126,#1130);
#1132=IFCCARTESIANPOINT((600.00000000000182,449.99999999999983));
#1133=IFCAXIS2PLACEMENT2D(#1132,#12);
#1134=IFCRECTANGLEPROFILEDEF(.AREA.,$,#1133,1200.0000000000036,899.99999999999966);
#1135=IFCAXIS2PLACEMENT3D(#3,#8,#9);
#1136=IFCEXTRUDEDAREASOLID(#1134,#1135,#9,200.);
#1137=IFCSHAPEREPRESENTATION(#24,'Body','SweptSolid',(#1136));
#1138=IFCPRODUCTDEFINITIONSHAPE($,$,(#1137));
#1139=IFCCARTESIANPOINT((3400.,100.,900.));
#1140=IFCAXIS2PLACEMENT3D(#1139,$,$);
#1141=IFCLOCALPLACEMENT(#97,#1140);
#1142=IFCOPENINGELEMENT('3mqMV3w_w987zRFQG9R6ur',#18,'M_Window-Fixed:900 x 1200mm:1602885:1',$,$,#1141,#1138,'1602885',.OPENING.);
#1143=IFCRELVOIDSELEMENT('1mRYVM4YfFFBRkcaj1hHz0',#18,$,$,#109,#1142);
#1144=IFCRELFILLSELEMENT('0Q_4PyX8udrB_k_bt7ERzo',#18,$,$,#1142,#680);
#1145=IFCAXIS2PLACEMENT3D(#3,#9,#6);
#1146=IFCLOCALPLACEMENT(#1141,#1145);
#1147=IFCCARTESIANPOINT((600.00000000000182,449.99999999999983));
#1148=IFCAXIS2PLACEMENT2D(#1147,#12);
#1149=IFCRECTANGLEPROFILEDEF(.AREA.,$,#1148,1200.0000000000036,899.99999999999966);
#1150=IFCAXIS2PLACEMENT3D(#3,#8,#9);
#1151=IFCEXTRUDEDAREASOLID(#1149,#1150,#9,200.);
#1152=IFCSHAPEREPRESENTATION(#24,'Body','SweptSolid',(#1151));
#1153=IFCPRODUCTDEFINITIONSHAPE($,$,(#1152));
#1154=IFCCARTESIANPOINT((8200.,100.,900.));
#1155=IFCAXIS2PLACEMENT3D(#1154,$,$);
#1156=IFCLOCALPLACEMENT(#97,#1155);
#1157=IFCOPENINGELEMENT('20UNRRDp_InaW8_dq7ad4F',#18,'M_Window-Fixed:900 x 1200mm:1602960:1',$,$,#1156,#1153,'1602960',.OPENING.);
#1158=IFCRELVOIDSELEMENT('1mRYVM4YfFFBRkcaj1hH_L',#18,$,$,#109,#1157);
#1159=IFCRELFILLSELEMENT('3aSFVGzPgv5xmVf2pZmiSj',#18,$,$,#1157,#731);
#1160=IFCAXIS2PLACEMENT3D(#3,#9,#6);
#1161=IFCLOCALPLACEMENT(#1156,#1160);
#1162=IFCCARTESIANPOINT((600.00000000000182,449.99999999999983));
#1163=IFCAXIS2PLACEMENT2D(#1162,#12);
#1164=IFCRECTANGLEPROFILEDEF(.AREA.,$,#1163,1200.0000000000036,899.99999999999966);
#1165=IFCAXIS2PLACEMENT3D(#3,#8,#9);
#1166=IFCEXTRUDEDAREASOLID(#1164,#1165,#9,200.);
#1167=IFCSHAPEREPRESENTATION(#24,'Body','SweptSolid',(#1166));
#1168=IFCPRODUCTDEFINITIONSHAPE($,$,(#1167));
#1169=IFCCARTESIANPOINT((6600.,100.,900.));
#1170=IFCAXIS2PLACEMENT3D(#1169,$,$);
#1171=IFCLOCALPLACEMENT(#97,#1170);
#1172=IFCOPENINGELEMENT('0Ub6rca1u_p5PdNYHvpRHV',#18,'M_Window-Fixed:900 x 1200mm:1603015:1',$,$,#1171,#1168,'1603015',.OPENING.);
#1173=IFCRELVOIDSELEMENT('1mRYVM4YfFFBRkcaj1hH$2',#18,$,$,#109,#1172);
#1174=IFCRELFILLSELEMENT('0pDBCy9uy7YKDlcqx_cUEs',#18,$,$,#1172,#782);
#1175=IFCAXIS2PLACEMENT3D(#3,#9,#6);
#1176=IFCLOCALPLACEMENT(#1171,#1175);
#1177=IFCCARTESIANPOINT((600.00000000000182,449.99999999999983));
#1178=IFCAXIS2PLACEMENT2D(#1177,#12);
#1179=IFCRECTANGLEPROFILEDEF(.AREA.,$,#1178,1200.0000000000036,899.99999999999966);
#1180=IFCAXIS2PLACEMENT3D(#3,#8,#9);
#1181=IFCEXTRUDEDAREASOLID(#1179,#1180,#9,200.);
#1182=IFCSHAPEREPRESENTATION(#24,'Body','SweptSolid',(#1181));
#1183=IFCPRODUCTDEFINITIONSHAPE($,$,(#1182));
#1184=IFCCARTESIANPOINT((3400.,100.,900.));
#1185=IFCAXIS2PLACEMENT3D(#1184,$,$);
#1186=IFCLOCALPLACEMENT(#119,#1185);
#1187=IFCOPENINGELEMENT('2uqjQk25XmTcRq6AABC8gG',#18,'M_Window-Fixed:900 x 1200mm:1603068:1',$,$,#1186,#1183,'1603068',.OPENING.);
#1188=IFCRELVOIDSELEMENT('1mRYVM4YfFFBRkcaj1hH$v',#18,$,$,#131,#1187);
#1189=IFCRELFILLSELEMENT('0mlJA9pNNd6zShzlTOXQ_5',#18,$,$,#1187,#833);
#1190=IFCAXIS2PLACEMENT3D(#3,#9,#6);
#1191=IFCLOCALPLACEMENT(#1186,#1190);
#1192=IFCRELASSOCIATESCLASSIFICATION('1hjVovsTU6Sv$4yb4LCfu1',#18,'Exterior Walls','Exterior Walls:B2010',(#73,#109,#131,#153,#175,#197,#994,#1016),#92);
#1193=IFCRELASSOCIATESCLASSIFICATION('1FWcDxrBKWQE6D_YUt5q9l',#18,'Windows','Windows:B2020100',(#496,#680,#731,#782,#833,#884,#935),#506);
#1194=IFCUNITASSIGNMENT((#19,#61,#531));
ENDSEC;

END-ISO-10303-21;