ISO-10303-21;
HEADER;
FILE_DESCRIPTION(('ViewDefinition [CoordinationView]','RevitIdentifiers [ContentGUID: cbb0ae2e-6350-4225-8ca4-af668662c38d, VersionGUID: a1c7e6b0-052f-4d91-a720-bc94c044346a, NumberOfSaves: 23]','CoordinateReference [CoordinateBase: Shared Coordinates]'),'2;1');
FILE_NAME('01_01_019.ifc','2026-01-19T16:35:37+01:00',(''),(''),'ODA SDAI 24.6','Autodesk Revit 24.3.30.11 (ENU) - IFC 24.3.30.11','');
FILE_SCHEMA(('IFC4X3'));
ENDSEC;
DATA;
#1=IFCORGANIZATION($,'Autodesk Revit 2024 (ENU)',$,$,$);
#2=IFCAPPLICATION(#1,'2024','Autodesk Revit 2024 (ENU)','Revit');
#3=IFCCARTESIANPOINT((0.,0.,0.));
#4=IFCCARTESIANPOINT((0.,0.));
#5=IFCDIRECTION((1.,0.,0.));
#6=IFCDIRECTION((-1.,0.,0.));
#7=IFCDIRECTION((0.,1.,0.));
#8=IFCDIRECTION((0.,-1.,0.));
#9=IFCDIRECTION((0.,0.,1.));
#10=IFCDIRECTION((0.,0.,-1.));
#11=IFCDIRECTION((1.,0.));
#12=IFCDIRECTION((-1.,0.));
#13=IFCDIRECTION((0.,1.));
#14=IFCDIRECTION((0.,-1.));
#15=IFCPERSON($,'','h.helming',$,$,$,$,$);
#16=IFCORGANIZATION($,'Organization Name','Organization Description',$,$);
#17=IFCPERSONANDORGANIZATION(#15,#16,$);
#18=IFCOWNERHISTORY(#17,#2,$,.NOCHANGE.,$,$,$,1767617715);
#19=IFCSIUNIT(*,.LENGTHUNIT.,.MILLI.,.METRE.);
#20=IFCAXIS2PLACEMENT3D(#3,$,$);
#21=IFCDIRECTION((6.12303176911189E-17,1.));
#22=IFCGEOMETRICREPRESENTATIONCONTEXT($,'Model',3,0.01,#20,#21);
#23=IFCGEOMETRICREPRESENTATIONSUBCONTEXT('Axis','Model',*,*,*,*,#22,$,.GRAPH_VIEW.,$);
#24=IFCGEOMETRICREPRESENTATIONSUBCONTEXT('Body','Model',*,*,*,*,#22,$,.MODEL_VIEW.,$);
#25=IFCGEOMETRICREPRESENTATIONSUBCONTEXT('Box','Model',*,*,*,*,#22,$,.MODEL_VIEW.,$);
#26=IFCGEOMETRICREPRESENTATIONSUBCONTEXT('FootPrint','Model',*,*,*,*,#22,$,.MODEL_VIEW.,$);
#27=IFCPROJECT('3BiAukOr129OoahsPvdJnz',#18,'Project Number',$,$,'Project Name','Project Status',(#22),#799);
#28=IFCCLASSIFICATION('CSI (Construction Specifications Institute)','1998',$,'Uniformat','UniFormat Classification','https://www.csiresources.org/standards/uniformat',$);
#29=IFCAXIS2PLACEMENT3D(#3,$,$);
#30=IFCLOCALPLACEMENT(#41,#29);
#31=IFCPOSTALADDRESS($,$,$,$,('Enter address hereAddress Line 2'),$,'','Boston','','MA');
#32=IFCBUILDING('3BiAukOr129OoahsPvdJny',#18,'Building Name',$,$,#30,$,'Building Name',.ELEMENT.,$,$,#31);
#33=IFCAXIS2PLACEMENT3D(#3,$,$);
#34=IFCLOCALPLACEMENT(#30,#33);
#35=IFCBUILDINGSTOREY('2JF4e6axWHqu3u0C1FZlmi',#18,'L1',$,'Level:8mm Head',#34,$,'L1',.ELEMENT.,0.);
#36=IFCCARTESIANPOINT((0.,0.,3000.));
#37=IFCAXIS2PLACEMENT3D(#36,$,$);
#38=IFCLOCALPLACEMENT(#30,#37);
#39=IFCBUILDINGSTOREY('1ZGO8hrFCHqw0v0026FpFv',#18,'L2',$,'Level:8mm Head',#38,$,'L2',.ELEMENT.,3000.);
#40=IFCAXIS2PLACEMENT3D(#3,$,$);
#41=IFCLOCALPLACEMENT($,#40);
#42=IFCSITE('3BiAukOr129OoahsPvdJn$',#18,'Default',$,$,#41,$,$,.ELEMENT.,(42,21,31,401672),(-71,-3,-24,-345703),0.,$,$);
#43=IFCPROPERTYSINGLEVALUE('Reference',$,IFCIDENTIFIER('Project Information'),$);
#44=IFCPROPERTYSET('2mFJcO6I01h0OYRLOICO3c',#18,'Pset_SiteCommon',$,(#43));
#45=IFCPROPERTYSINGLEVALUE('IsExternal',$,IFCBOOLEAN(.F.),$);
#46=IFCPROPERTYSET('0O$B2PbAODr9jYnpcaZGJT',#18,'Pset_SpaceCommon',$,(#43,#45));
#47=IFCRELDEFINESBYPROPERTIES('2fDrcjst0HFayqQ3dY1cGQ',#18,$,$,(#42),#44);
#48=IFCRELDEFINESBYPROPERTIES('1lYkP70lXSGXnZeJnLC8MY',#18,$,$,(#42),#46);
#55=IFCCARTESIANPOINT((100.,0.,0.));
#56=IFCAXIS2PLACEMENT3D(#55,#9,#8);
#57=IFCLOCALPLACEMENT(#34,#56);
#58=IFCCARTESIANPOINT((6900.,-0.));
#59=IFCPOLYLINE((#4,#58));
#60=IFCSHAPEREPRESENTATION(#23,'Axis','Curve2D',(#59));
#61=IFCSIUNIT(*,.AREAUNIT.,$,.SQUARE_METRE.);
#62=IFCCARTESIANPOINT((3450.,0.));
#63=IFCAXIS2PLACEMENT2D(#62,#12);
#64=IFCRECTANGLEPROFILEDEF(.AREA.,$,#63,6900.,200.);
#65=IFCAXIS2PLACEMENT3D(#3,$,$);
#66=IFCEXTRUDEDAREASOLID(#64,#65,#9,3000.);
#67=IFCCOLOURRGB($,0.752941176470588,0.752941176470588,0.752941176470588);
#68=IFCSURFACESTYLERENDERING(#67,0.,$,$,$,$,IFCNORMALISEDRATIOMEASURE(0.5),IFCSPECULAREXPONENT(10.),.NOTDEFINED.);
#69=IFCSURFACESTYLE('Default Wall',.BOTH.,(#68));
#70=IFCSTYLEDITEM(#66,(#69),$);
#71=IFCSHAPEREPRESENTATION(#24,'Body','SweptSolid',(#66));
#72=IFCPRODUCTDEFINITIONSHAPE($,$,(#60,#71));
#73=IFCWALL('1mRYVM4YfFFBRkcbz1hHZ$',#18,'Basic Wall:Generic - 200mm:1602298',$,'Basic Wall:Generic - 200mm',#57,#72,'1602298',.NOTDEFINED.);
#74=IFCMATERIAL('Default Wall',$,'Miscellaneous');
#75=IFCSTYLEDITEM($,(#69),$);
#76=IFCSTYLEDREPRESENTATION(#22,'Style','Material',(#75));
#77=IFCMATERIALDEFINITIONREPRESENTATION($,$,(#76),#74);
#78=IFCMATERIALLAYER(#74,200.,$,'Layer',$,'Miscellaneous',$);
#79=IFCMATERIALLAYERSET((#78),'Basic Wall:Generic - 200mm',$);
#80=IFCWALLTYPE('1xZrMVYp52mhf4uMzw11Hk',#18,'Basic Wall:Generic - 200mm',$,$,(#94),$,'441451',$,.STANDARD.);
#81=IFCPROPERTYSINGLEVALUE('Reference',$,IFCIDENTIFIER('Generic - 200mm'),$);
#82=IFCPROPERTYSET('1I0TTt4AXcEqym4$ZoswMq',#18,'Pset_EnvironmentalImpactIndicators',$,(#81));
#83=IFCPROPERTYSINGLEVALUE('Reference',$,IFCLABEL('Generic - 200mm'),$);
#84=IFCPROPERTYSET('0BmZUMivTdpgi1bZPXdESi',#18,'Pset_ReinforcementBarPitchOfWall',$,(#83));
#85=IFCPROPERTYSINGLEVALUE('IsExternal',$,IFCBOOLEAN(.T.),$);
#86=IFCPROPERTYSINGLEVALUE('LoadBearing',$,IFCBOOLEAN(.F.),$);
#87=IFCPROPERTYSINGLEVALUE('ExtendToStructure',$,IFCBOOLEAN(.F.),$);
#88=IFCPROPERTYSET('0DVhIOhtj48LxOuziFsyyv',#18,'Pset_WallCommon',$,(#81,#85,#86,#87));
#89=IFCRELDEFINESBYPROPERTIES('3BmCvnUXaLpjjceQsNYVba',#18,$,$,(#73),#82);
#90=IFCRELDEFINESBYPROPERTIES('2zCeNjRZbWB2I0r8wpEFAG',#18,$,$,(#73),#84);
#91=IFCRELDEFINESBYPROPERTIES('06A09bBD21G7eUjWoSQoEG',#18,$,$,(#73),#88);
#92=IFCCLASSIFICATIONREFERENCE('https://www.csiresources.org/standards/uniformat','B2010','Exterior Walls',#28,'',$);
#93=IFCPROPERTYSINGLEVALUE('Description',$,IFCTEXT('Generic Wall (Material By Category), 200mm thick'),$);
#94=IFCPROPERTYSET('2L7lvTstnIeeydfwzfZZLR',#18,'Pset_ReinforcementBarPitchOfWall',$,(#93));
#95=IFCCARTESIANPOINT((200.,-6800.,0.));
#96=IFCAXIS2PLACEMENT3D(#95,$,$);
#97=IFCLOCALPLACEMENT(#34,#96);
#98=IFCCARTESIANPOINT((9000.,0.));
#99=IFCPOLYLINE((#4,#98));
#100=IFCSHAPEREPRESENTATION(#23,'Axis','Curve2D',(#99));
#101=IFCCARTESIANPOINT((4500.,0.));
#102=IFCAXIS2PLACEMENT2D(#101,#12);
#103=IFCRECTANGLEPROFILEDEF(.AREA.,$,#102,9000.,200.);
#104=IFCAXIS2PLACEMENT3D(#3,$,$);
#105=IFCEXTRUDEDAREASOLID(#103,#104,#9,3000.);
#106=IFCSTYLEDITEM(#105,(#69),$);
#107=IFCSHAPEREPRESENTATION(#24,'Body','SweptSolid',(#105));
#108=IFCPRODUCTDEFINITIONSHAPE($,$,(#100,#107));
#109=IFCWALL('1mRYVM4YfFFBRkcbz1hHaA',#18,'Basic Wall:Generic - 200mm:1602319',$,'Basic Wall:Generic - 200mm',#97,#108,'1602319',.NOTDEFINED.);
#110=IFCPROPERTYSET('1EfPmu0Yn6l2bQV7aU4PJO',#18,'Pset_EnvironmentalImpactIndicators',$,(#81));
#111=IFCPROPERTYSINGLEVALUE('Reference',$,IFCLABEL('Generic - 200mm'),$);
#112=IFCPROPERTYSET('3RHGbP7SMgGzD_ewsNn7pN',#18,'Pset_ReinforcementBarPitchOfWall',$,(#111));
#113=IFCPROPERTYSET('3k_PUFqeWTM_FOQQJCOj9T',#18,'Pset_WallCommon',$,(#81,#85,#86,#87));
#114=IFCRELDEFINESBYPROPERTIES('3IAqe7Wg2LB3jCA635Fqd9',#18,$,$,(#109),#110);
#115=IFCRELDEFINESBYPROPERTIES('3$SQl17YRVvrCETxJW3NZ0',#18,$,$,(#109),#112);
#116=IFCRELDEFINESBYPROPERTIES('29AFy4D5BE84XaG$76Wpsb',#18,$,$,(#109),#113);
#117=IFCCARTESIANPOINT((9100.,-6700.,0.));
#118=IFCAXIS2PLACEMENT3D(#117,#9,#7);
#119=IFCLOCALPLACEMENT(#34,#118);
#120=IFCCARTESIANPOINT((4000.,0.));
#121=IFCPOLYLINE((#4,#120));
#122=IFCSHAPEREPRESENTATION(#23,'Axis','Curve2D',(#121));
#123=IFCCARTESIANPOINT((1999.99999999999,0.));
#124=IFCAXIS2PLACEMENT2D(#123,#12);
#125=IFCRECTANGLEPROFILEDEF(.AREA.,$,#124,3999.99999999999,200.);
#126=IFCAXIS2PLACEMENT3D(#3,$,$);
#127=IFCEXTRUDEDAREASOLID(#125,#126,#9,3000.);
#128=IFCSTYLEDITEM(#127,(#69),$);
#129=IFCSHAPEREPRESENTATION(#24,'Body','SweptSolid',(#127));
#130=IFCPRODUCTDEFINITIONSHAPE($,$,(#122,#129));
#131=IFCWALL('1mRYVM4YfFFBRkcbz1hHa_',#18,'Basic Wall:Generic - 200mm:1602363',$,'Basic Wall:Generic - 200mm',#119,#130,'1602363',.NOTDEFINED.);
#132=IFCPROPERTYSET('3bj_7QWf72z3LKk8ODccSp',#18,'Pset_EnvironmentalImpactIndicators',$,(#81));
#133=IFCPROPERTYSINGLEVALUE('Reference',$,IFCLABEL('Generic - 200mm'),$);
#134=IFCPROPERTYSET('3XjWmKdrVKDnXT$7jhwmSs',#18,'Pset_ReinforcementBarPitchOfWall',$,(#133));
#135=IFCPROPERTYSET('0pmG$Vzk3pSe6Kg_ulys1J',#18,'Pset_WallCommon',$,(#81,#85,#86,#87));
#136=IFCRELDEFINESBYPROPERTIES('39mRiQUwAKh7xvYKsmuVt9',#18,$,$,(#131),#132);
#137=IFCRELDEFINESBYPROPERTIES('36hQfhuQsqURvz2z2T5qTl',#18,$,$,(#131),#134);
#138=IFCRELDEFINESBYPROPERTIES('2tLT6SUGHJQQPdTUVxDWpa',#18,$,$,(#131),#135);
#139=IFCCARTESIANPOINT((9000.,-2800.,0.));
#140=IFCAXIS2PLACEMENT3D(#139,#9,#6);
#141=IFCLOCALPLACEMENT(#34,#140);
#142=IFCCARTESIANPOINT((3700.,0.));
#143=IFCPOLYLINE((#4,#142));
#144=IFCSHAPEREPRESENTATION(#23,'Axis','Curve2D',(#143));
#145=IFCCARTESIANPOINT((1850.,0.));
#146=IFCAXIS2PLACEMENT2D(#145,#12);
#147=IFCRECTANGLEPROFILEDEF(.AREA.,$,#146,3700.,200.);
#148=IFCAXIS2PLACEMENT3D(#3,$,$);
#149=IFCEXTRUDEDAREASOLID(#147,#148,#9,3000.);
#150=IFCSTYLEDITEM(#149,(#69),$);
#151=IFCSHAPEREPRESENTATION(#24,'Body','SweptSolid',(#149));
#152=IFCPRODUCTDEFINITIONSHAPE($,$,(#144,#151));
#153=IFCWALL('1mRYVM4YfFFBRkcbz1hHbM',#18,'Basic Wall:Generic - 200mm:1602387',$,'Basic Wall:Generic - 200mm',#141,#152,'1602387',.NOTDEFINED.);
#154=IFCPROPERTYSET('0tabx7p1zAkCZtarc5Lbb_',#18,'Pset_EnvironmentalImpactIndicators',$,(#81));
#155=IFCPROPERTYSINGLEVALUE('Reference',$,IFCLABEL('Generic - 200mm'),$);
#156=IFCPROPERTYSET('2gxy7q1QWI3IBVLRIBHwVh',#18,'Pset_ReinforcementBarPitchOfWall',$,(#155));
#157=IFCPROPERTYSET('15Jh1UKzc8BqQoZ9Bu_EA4',#18,'Pset_WallCommon',$,(#81,#85,#86,#87));
#158=IFCRELDEFINESBYPROPERTIES('1P0hNXzYe$BI6ij8i9RJ9E',#18,$,$,(#153),#154);
#159=IFCRELDEFINESBYPROPERTIES('1YgON3jL2iqmOiHPXjNlXZ',#18,$,$,(#153),#156);
#160=IFCRELDEFINESBYPROPERTIES('26bxUnBQt$GjNQ9kV$hUEa',#18,$,$,(#153),#157);
#161=IFCCARTESIANPOINT((5400.,-2700.,0.));
#162=IFCAXIS2PLACEMENT3D(#161,#9,#7);
#163=IFCLOCALPLACEMENT(#34,#162);
#164=IFCCARTESIANPOINT((2700.,0.));
#165=IFCPOLYLINE((#4,#164));
#166=IFCSHAPEREPRESENTATION(#23,'Axis','Curve2D',(#165));
#167=IFCCARTESIANPOINT((1350.,1.98951966012828E-13));
#168=IFCAXIS2PLACEMENT2D(#167,#12);
#169=IFCRECTANGLEPROFILEDEF(.AREA.,$,#168,2700.,200.);
#170=IFCAXIS2PLACEMENT3D(#3,$,$);
#171=IFCEXTRUDEDAREASOLID(#169,#170,#9,3000.);
#172=IFCSTYLEDITEM(#171,(#69),$);
#173=IFCSHAPEREPRESENTATION(#24,'Body','SweptSolid',(#171));
#174=IFCPRODUCTDEFINITIONSHAPE($,$,(#166,#173));
#175=IFCWALL('1mRYVM4YfFFBRkcbz1hHbp',#18,'Basic Wall:Generic - 200mm:1602422',$,'Basic Wall:Generic - 200mm',#163,#174,'1602422',.NOTDEFINED.);
#176=IFCPROPERTYSET('0PE$NWN6AYraYPS3cXg4PX',#18,'Pset_EnvironmentalImpactIndicators',$,(#81));
#177=IFCPROPERTYSINGLEVALUE('Reference',$,IFCLABEL('Generic - 200mm'),$);
#178=IFCPROPERTYSET('0s5QTaeJE0YkgCANT5AfyH',#18,'Pset_ReinforcementBarPitchOfWall',$,(#177));
#179=IFCPROPERTYSET('138lOjwGsdU2tR56nFA_dZ',#18,'Pset_WallCommon',$,(#81,#85,#86,#87));
#180=IFCRELDEFINESBYPROPERTIES('0J3QfqWka6hvHxncoMX4lG',#18,$,$,(#175),#176);
#181=IFCRELDEFINESBYPROPERTIES('1ZtluQVelr$LmA0lUvGZNX',#18,$,$,(#175),#178);
#182=IFCRELDEFINESBYPROPERTIES('2lEilkalxGz_N3tS_M6iK5',#18,$,$,(#175),#179);
#183=IFCCARTESIANPOINT((5300.,-100.,0.));
#184=IFCAXIS2PLACEMENT3D(#183,#9,#6);
#185=IFCLOCALPLACEMENT(#34,#184);
#186=IFCCARTESIANPOINT((5100.,-0.));
#187=IFCPOLYLINE((#4,#186));
#188=IFCSHAPEREPRESENTATION(#23,'Axis','Curve2D',(#187));
#189=IFCCARTESIANPOINT((2550.,0.));
#190=IFCAXIS2PLACEMENT2D(#189,#12);
#191=IFCRECTANGLEPROFILEDEF(.AREA.,$,#190,5099.99999999999,200.);
#192=IFCAXIS2PLACEMENT3D(#3,$,$);
#193=IFCEXTRUDEDAREASOLID(#191,#192,#9,3000.);
#194=IFCSTYLEDITEM(#193,(#69),$);
#195=IFCSHAPEREPRESENTATION(#24,'Body','SweptSolid',(#193));
#196=IFCPRODUCTDEFINITIONSHAPE($,$,(#188,#195));
#197=IFCWALL('1mRYVM4YfFFBRkcbz1hHcs',#18,'Basic Wall:Generic - 200mm:1602483',$,'Basic Wall:Generic - 200mm',#185,#196,'1602483',.NOTDEFINED.);
#198=IFCPROPERTYSET('0jFWUmYzaEZnRCn9lzJJAd',#18,'Pset_EnvironmentalImpactIndicators',$,(#81));
#199=IFCPROPERTYSINGLEVALUE('Reference',$,IFCLABEL('Generic - 200mm'),$);
#200=IFCPROPERTYSET('1gfsm6W0qXkeo22MBOXN5R',#18,'Pset_ReinforcementBarPitchOfWall',$,(#199));
#201=IFCPROPERTYSET('2rg7M3aQc41$nb7QPUhwya',#18,'Pset_WallCommon',$,(#81,#85,#86,#87));
#202=IFCRELDEFINESBYPROPERTIES('0loADjRVSExO9roLlRJq7U',#18,$,$,(#197),#198);
#203=IFCRELDEFINESBYPROPERTIES('3CXtuXm_CdauAKiyvAASZb',#18,$,$,(#197),#200);
#204=IFCRELDEFINESBYPROPERTIES('0M_uJLoGhfROAy7LVzpfbc',#18,$,$,(#197),#201);
#205=IFCCARTESIANPOINT((900.,104.749999999978,1200.));
#206=IFCCARTESIANPOINT((900.,219.049999999994,1200.));
#207=IFCCARTESIANPOINT((0.,219.049999999997,1200.));
#208=IFCCARTESIANPOINT((0.,104.74999999998,1200.));
#209=IFCPOLYLOOP((#205,#206,#207,#208));
#210=IFCFACEOUTERBOUND(#209,.T.);
#211=IFCFACE((#210));
#212=IFCCARTESIANPOINT((0.,219.049999999997,0.));
#213=IFCCARTESIANPOINT((0.,104.74999999998,0.));
#214=IFCPOLYLOOP((#208,#207,#212,#213));
#215=IFCFACEOUTERBOUND(#214,.T.);
#216=IFCFACE((#215));
#217=IFCCARTESIANPOINT((900.,219.049999999994,0.));
#218=IFCCARTESIANPOINT((900.,104.749999999978,0.));
#219=IFCPOLYLOOP((#213,#212,#217,#218));
#220=IFCFACEOUTERBOUND(#219,.T.);
#221=IFCFACE((#220));
#222=IFCCARTESIANPOINT((868.250000000064,104.749999999978,1168.25000000007));
#223=IFCCARTESIANPOINT((868.250000000064,104.749999999978,31.7499999999355));
#224=IFCCARTESIANPOINT((31.7499999999355,104.74999999998,31.7499999999355));
#225=IFCCARTESIANPOINT((31.7499999999352,104.74999999998,1168.25000000007));
#226=IFCPOLYLOOP((#208,#213,#218,#205));
#227=IFCFACEOUTERBOUND(#226,.T.);
#228=IFCPOLYLOOP((#222,#223,#224,#225));
#229=IFCFACEBOUND(#228,.T.);
#230=IFCFACE((#227,#229));
#231=IFCPOLYLOOP((#218,#217,#206,#205));
#232=IFCFACEOUTERBOUND(#231,.T.);
#233=IFCFACE((#232));
#234=IFCCARTESIANPOINT((12.6999999999989,219.049999999996,1187.3));
#235=IFCCARTESIANPOINT((12.6999999999989,219.049999999996,12.6999999999986));
#236=IFCCARTESIANPOINT((887.300000000001,219.049999999994,12.6999999999987));
#237=IFCCARTESIANPOINT((887.300000000002,219.049999999994,1187.30000000001));
#238=IFCPOLYLOOP((#206,#217,#212,#207));
#239=IFCFACEOUTERBOUND(#238,.T.);
#240=IFCPOLYLOOP((#234,#235,#236,#237));
#241=IFCFACEBOUND(#240,.T.);
#242=IFCFACE((#239,#241));
#243=IFCCARTESIANPOINT((868.250000000064,168.249999999996,1168.25000000007));
#244=IFCCARTESIANPOINT((31.7499999999355,168.249999999998,1168.25000000007));
#245=IFCPOLYLOOP((#243,#222,#225,#244));
#246=IFCFACEOUTERBOUND(#245,.T.);
#247=IFCFACE((#246));
#248=IFCCARTESIANPOINT((887.300000000001,168.249999999996,1187.3));
#249=IFCCARTESIANPOINT((12.6999999999991,168.249999999998,1187.3));
#250=IFCPOLYLOOP((#237,#248,#249,#234));
#251=IFCFACEOUTERBOUND(#250,.T.);
#252=IFCFACE((#251));
#253=IFCCARTESIANPOINT((31.7499999999358,168.249999999998,31.7499999999357));
#254=IFCPOLYLOOP((#244,#225,#224,#253));
#255=IFCFACEOUTERBOUND(#254,.T.);
#256=IFCFACE((#255));
#257=IFCCARTESIANPOINT((12.6999999999992,168.249999999998,12.6999999999989));
#258=IFCPOLYLOOP((#234,#249,#257,#235));
#259=IFCFACEOUTERBOUND(#258,.T.);
#260=IFCFACE((#259));
#261=IFCCARTESIANPOINT((868.250000000064,168.249999999996,31.7499999999355));
#262=IFCPOLYLOOP((#253,#224,#223,#261));
#263=IFCFACEOUTERBOUND(#262,.T.);
#264=IFCFACE((#263));
#265=IFCCARTESIANPOINT((887.300000000001,168.249999999996,12.6999999999989));
#266=IFCPOLYLOOP((#235,#257,#265,#236));
#267=IFCFACEOUTERBOUND(#266,.T.);
#268=IFCFACE((#267));
#269=IFCPOLYLOOP((#261,#223,#222,#243));
#270=IFCFACEOUTERBOUND(#269,.T.);
#271=IFCFACE((#270));
#272=IFCPOLYLOOP((#244,#253,#261,#243));
#273=IFCFACEBOUND(#272,.T.);
#274=IFCPOLYLOOP((#248,#265,#257,#249));
#275=IFCFACEOUTERBOUND(#274,.T.);
#276=IFCFACE((#273,#275));
#277=IFCPOLYLOOP((#236,#265,#248,#237));
#278=IFCFACEOUTERBOUND(#277,.T.);
#279=IFCFACE((#278));
#280=IFCCARTESIANPOINT((0.,0.,1200.));
#281=IFCCARTESIANPOINT((900.,0.,0.));
#282=IFCCARTESIANPOINT((900.,0.,1200.));
#283=IFCCARTESIANPOINT((887.299999999926,0.,1187.30000000005));
#284=IFCCARTESIANPOINT((887.299999999926,0.,12.7000000000069));
#285=IFCCARTESIANPOINT((12.6999999999044,0.,12.7000000000069));
#286=IFCCARTESIANPOINT((12.6999999999044,0.,1187.30000000005));
#287=IFCPOLYLOOP((#280,#3,#281,#282));
#288=IFCFACEOUTERBOUND(#287,.T.);
#289=IFCPOLYLOOP((#283,#284,#285,#286));
#290=IFCFACEBOUND(#289,.T.);
#291=IFCFACE((#288,#290));
#292=IFCCARTESIANPOINT((0.,104.75,1200.));
#293=IFCCARTESIANPOINT((900.,104.75,1200.));
#294=IFCCARTESIANPOINT((900.,104.75,0.));
#295=IFCCARTESIANPOINT((0.,104.75,0.));
#296=IFCCARTESIANPOINT((887.299999999926,104.75,1187.30000000005));
#297=IFCCARTESIANPOINT((12.6999999999044,104.75,1187.30000000005));
#298=IFCCARTESIANPOINT((12.6999999999044,104.75,12.7000000000069));
#299=IFCCARTESIANPOINT((887.299999999926,104.75,12.7000000000069));
#300=IFCPOLYLOOP((#292,#293,#294,#295));
#301=IFCFACEOUTERBOUND(#300,.T.);
#302=IFCPOLYLOOP((#296,#297,#298,#299));
#303=IFCFACEBOUND(#302,.T.);
#304=IFCFACE((#301,#303));
#305=IFCPOLYLOOP((#3,#280,#292,#295));
#306=IFCFACEOUTERBOUND(#305,.T.);
#307=IFCFACE((#306));
#308=IFCPOLYLOOP((#281,#3,#295,#294));
#309=IFCFACEOUTERBOUND(#308,.T.);
#310=IFCFACE((#309));
#311=IFCPOLYLOOP((#282,#281,#294,#293));
#312=IFCFACEOUTERBOUND(#311,.T.);
#313=IFCFACE((#312));
#314=IFCPOLYLOOP((#280,#282,#293,#292));
#315=IFCFACEOUTERBOUND(#314,.T.);
#316=IFCFACE((#315));
#317=IFCPOLYLOOP((#284,#283,#296,#299));
#318=IFCFACEOUTERBOUND(#317,.T.);
#319=IFCFACE((#318));
#320=IFCPOLYLOOP((#285,#284,#299,#298));
#321=IFCFACEOUTERBOUND(#320,.T.);
#322=IFCFACE((#321));
#323=IFCPOLYLOOP((#286,#285,#298,#297));
#324=IFCFACEOUTERBOUND(#323,.T.);
#325=IFCFACE((#324));
#326=IFCPOLYLOOP((#283,#286,#297,#296));
#327=IFCFACEOUTERBOUND(#326,.T.);
#328=IFCFACE((#327));
#329=IFCCARTESIANPOINT((861.899999999929,168.249999999996,38.100000000003));
#330=IFCCARTESIANPOINT((861.899999999929,212.699999999995,38.100000000003));
#331=IFCCARTESIANPOINT((38.0999999999001,212.699999999998,38.100000000003));
#332=IFCCARTESIANPOINT((38.0999999999001,168.249999999998,38.1000000000031));
#333=IFCPOLYLOOP((#329,#330,#331,#332));
#334=IFCFACEOUTERBOUND(#333,.T.);
#335=IFCFACE((#334));
#336=IFCCARTESIANPOINT((887.299999999926,212.699999999995,12.7000000000066));
#337=IFCCARTESIANPOINT((887.299999999926,168.249999999996,12.7000000000066));
#338=IFCCARTESIANPOINT((12.6999999999037,168.249999999998,12.7000000000066));
#339=IFCCARTESIANPOINT((12.6999999999038,212.699999999998,12.7000000000066));
#340=IFCPOLYLOOP((#336,#337,#338,#339));
#341=IFCFACEOUTERBOUND(#340,.T.);
#342=IFCFACE((#341));
#343=IFCCARTESIANPOINT((38.0999999999001,212.699999999998,1161.90000000006));
#344=IFCCARTESIANPOINT((38.0999999999002,168.249999999998,1161.90000000006));
#345=IFCPOLYLOOP((#332,#331,#343,#344));
#346=IFCFACEOUTERBOUND(#345,.T.);
#347=IFCFACE((#346));
#348=IFCCARTESIANPOINT((12.6999999999036,168.249999999998,1187.30000000005));
#349=IFCCARTESIANPOINT((12.6999999999038,212.699999999998,1187.30000000005));
#350=IFCPOLYLOOP((#339,#338,#348,#349));
#351=IFCFACEOUTERBOUND(#350,.T.);
#352=IFCFACE((#351));
#353=IFCCARTESIANPOINT((861.899999999929,212.699999999995,1161.90000000006));
#354=IFCCARTESIANPOINT((861.899999999929,168.249999999996,1161.90000000006));
#355=IFCPOLYLOOP((#344,#343,#353,#354));
#356=IFCFACEOUTERBOUND(#355,.T.);
#357=IFCFACE((#356));
#358=IFCCARTESIANPOINT((887.299999999926,168.249999999996,1187.30000000005));
#359=IFCCARTESIANPOINT((887.299999999925,212.699999999995,1187.30000000005));
#360=IFCPOLYLOOP((#349,#348,#358,#359));
#361=IFCFACEOUTERBOUND(#360,.T.);
#362=IFCFACE((#361));
#363=IFCPOLYLOOP((#354,#353,#330,#329));
#364=IFCFACEOUTERBOUND(#363,.T.);
#365=IFCFACE((#364));
#366=IFCPOLYLOOP((#332,#344,#354,#329));
#367=IFCFACEBOUND(#366,.T.);
#368=IFCPOLYLOOP((#337,#358,#348,#338));
#369=IFCFACEOUTERBOUND(#368,.T.);
#370=IFCFACE((#367,#369));
#371=IFCPOLYLOOP((#359,#358,#337,#336));
#372=IFCFACEOUTERBOUND(#371,.T.);
#373=IFCFACE((#372));
#374=IFCPOLYLOOP((#339,#349,#359,#336));
#375=IFCFACEOUTERBOUND(#374,.T.);
#376=IFCPOLYLOOP((#330,#353,#343,#331));
#377=IFCFACEBOUND(#376,.T.);
#378=IFCFACE((#375,#377));
#379=IFCCARTESIANPOINT((861.89999999993,200.,1161.90000000005));
#380=IFCCARTESIANPOINT((38.0999999998999,200.,1161.90000000005));
#381=IFCCARTESIANPOINT((38.0999999999,193.65000000011,1161.90000000005));
#382=IFCCARTESIANPOINT((861.89999999993,193.65000000011,1161.90000000005));
#383=IFCPOLYLOOP((#379,#380,#381,#382));
#384=IFCFACEOUTERBOUND(#383,.T.);
#385=IFCFACE((#384));
#386=IFCCARTESIANPOINT((861.89999999993,200.,38.0999999999959));
#387=IFCCARTESIANPOINT((38.0999999998999,200.,38.0999999999959));
#388=IFCPOLYLOOP((#380,#379,#386,#387));
#389=IFCFACEOUTERBOUND(#388,.T.);
#390=IFCFACE((#389));
#391=IFCCARTESIANPOINT((38.0999999999,193.65000000011,38.0999999999959));
#392=IFCPOLYLOOP((#381,#380,#387,#391));
#393=IFCFACEOUTERBOUND(#392,.T.);
#394=IFCFACE((#393));
#395=IFCCARTESIANPOINT((861.89999999993,193.65000000011,38.0999999999959));
#396=IFCPOLYLOOP((#382,#381,#391,#395));
#397=IFCFACEOUTERBOUND(#396,.T.);
#398=IFCFACE((#397));
#399=IFCPOLYLOOP((#379,#382,#395,#386));
#400=IFCFACEOUTERBOUND(#399,.T.);
#401=IFCFACE((#400));
#402=IFCPOLYLOOP((#386,#395,#391,#387));
#403=IFCFACEOUTERBOUND(#402,.T.);
#404=IFCFACE((#403));
#405=IFCCARTESIANPOINT((38.0999999999001,180.949999999997,38.0999999999959));
#406=IFCCARTESIANPOINT((38.0999999999001,187.300000000093,38.0999999999959));
#407=IFCCARTESIANPOINT((861.89999999993,187.300000000093,38.0999999999959));
#408=IFCCARTESIANPOINT((861.89999999993,180.949999999997,38.0999999999959));
#409=IFCPOLYLOOP((#405,#406,#407,#408));
#410=IFCFACEOUTERBOUND(#409,.T.);
#411=IFCFACE((#410));
#412=IFCCARTESIANPOINT((861.89999999993,180.949999999997,1161.90000000005));
#413=IFCCARTESIANPOINT((38.0999999999001,180.949999999997,1161.90000000005));
#414=IFCPOLYLOOP((#412,#413,#405,#408));
#415=IFCFACEOUTERBOUND(#414,.T.);
#416=IFCFACE((#415));
#417=IFCCARTESIANPOINT((861.89999999993,187.300000000093,1161.90000000005));
#418=IFCPOLYLOOP((#417,#412,#408,#407));
#419=IFCFACEOUTERBOUND(#418,.T.);
#420=IFCFACE((#419));
#421=IFCCARTESIANPOINT((38.0999999999002,187.300000000093,1161.90000000005));
#422=IFCPOLYLOOP((#421,#417,#407,#406));
#423=IFCFACEOUTERBOUND(#422,.T.);
#424=IFCFACE((#423));
#425=IFCPOLYLOOP((#413,#421,#406,#405));
#426=IFCFACEOUTERBOUND(#425,.T.);
#427=IFCFACE((#426));
#428=IFCPOLYLOOP((#413,#412,#417,#421));
#429=IFCFACEOUTERBOUND(#428,.T.);
#430=IFCFACE((#429));
#431=IFCCLOSEDSHELL((#211,#216,#221,#230,#233,#242,#247,#252,#256,#260,#264,#268,#271,#276,#279));
#432=IFCFACETEDBREP(#431);
#433=IFCCOLOURRGB($,0.67843137254902,0.517647058823529,0.376470588235294);
#434=IFCSURFACESTYLERENDERING(#433,0.,$,$,$,$,IFCNORMALISEDRATIOMEASURE(0.5),IFCSPECULAREXPONENT(128.),.NOTDEFINED.);
#435=IFCSURFACESTYLE('Wood - Stained',.BOTH.,(#434));
#436=IFCSTYLEDITEM(#432,(#435),$);
#437=IFCCLOSEDSHELL((#291,#304,#307,#310,#313,#316,#319,#322,#325,#328));
#438=IFCFACETEDBREP(#437);
#439=IFCSTYLEDITEM(#438,(#435),$);
#440=IFCCLOSEDSHELL((#335,#342,#347,#352,#357,#362,#365,#370,#373,#378));
#441=IFCFACETEDBREP(#440);
#442=IFCSTYLEDITEM(#441,(#435),$);
#443=IFCCLOSEDSHELL((#385,#390,#394,#398,#401,#404));
#444=IFCFACETEDBREP(#443);
#445=IFCCOLOURRGB($,0.96078431372549,0.96078431372549,0.952941176470588);
#446=IFCSURFACESTYLERENDERING(#445,1.,$,$,$,$,IFCNORMALISEDRATIOMEASURE(0.5),IFCSPECULAREXPONENT(64.),.NOTDEFINED.);
#447=IFCSURFACESTYLE('Glass',.BOTH.,(#446));
#448=IFCSTYLEDITEM(#444,(#447),$);
#449=IFCCLOSEDSHELL((#411,#416,#420,#424,#427,#430));
#450=IFCFACETEDBREP(#449);
#451=IFCSTYLEDITEM(#450,(#447),$);
#452=IFCSHAPEREPRESENTATION(#24,'Body','Brep',(#432,#438,#441,#444,#450));
#453=IFCAXIS2PLACEMENT3D(#3,$,$);
#454=IFCREPRESENTATIONMAP(#453,#452);
#455=IFCWINDOWLININGPROPERTIES('1mRYVM4YfFFBRkcbv1hHvq',#18,'M_Window-Fixed:900 x 1200mm:1602673',$,$,$,$,$,$,$,$,$,$,$,$,$);
#456=IFCWINDOWTYPE('2lZ7v5qL10FnEOMv5Whb2N',#18,'M_Window-Fixed:900 x 1200mm',$,$,(#455,#508),(#454),'1524699',$,.WINDOW.,.NOTDEFINED.,.F.,$);
#457=IFCMATERIAL('Wood - Stained',$,'Wood');
#458=IFCCOLOURRGB($,0.,0.,0.);
#459=IFCCURVESTYLEFONTPATTERN(211.582,1904.238);
#460=IFCCURVESTYLEFONT('Wood 1:1',(#459));
#461=IFCCURVESTYLE('Wood 1:1',#460,$,#458,$);
#462=IFCCARTESIANPOINT((1387.97788244437,1337.19829007417));
#463=IFCFILLAREASTYLEHATCHING(#461,IFCPOSITIVELENGTHMEASURE(84.6328),$,#462,216.8699);
#464=IFCCURVESTYLEFONTPATTERN(473.11183,473.11183);
#465=IFCCURVESTYLEFONT('Wood 1:2',(#464));
#466=IFCCURVESTYLE('Wood 1:2',#465,$,#458,$);
#467=IFCCARTESIANPOINT((-84.6326858105563,42.3159162143842));
#468=IFCFILLAREASTYLEHATCHING(#466,IFCPOSITIVELENGTHMEASURE(189.244859),$,#467,206.5651);
#469=IFCCURVESTYLEFONTPATTERN(267.632688,1070.529482);
#470=IFCCURVESTYLEFONT('Wood 1:3',(#469));
#471=IFCCURVESTYLE('Wood 1:3',#470,$,#458,$);
#472=IFCCARTESIANPOINT((-465.480602461083,-211.581226117823));
#473=IFCFILLAREASTYLEHATCHING(#471,IFCPOSITIVELENGTHMEASURE(133.8162932),$,#472,198.4349);
#474=IFCFILLAREASTYLE('Wood 1',(#463,#468,#473),$);
#475=IFCSTYLEDITEM($,(#435,#474),$);
#476=IFCSTYLEDREPRESENTATION(#22,'Style','Material and Cut Pattern',(#475));
#477=IFCMATERIALDEFINITIONREPRESENTATION($,$,(#476),#457);
#478=IFCMATERIAL('Glass',$,'Glass');
#479=IFCSTYLEDITEM($,(#447),$);
#480=IFCSTYLEDREPRESENTATION(#22,'Style','Material',(#479));
#481=IFCMATERIALDEFINITIONREPRESENTATION($,$,(#480),#478);
#482=IFCMATERIALCONSTITUENT('Frame/Mullion',$,#457,$,'Wood');
#483=IFCSHAPEREPRESENTATION(#24,'Body','Brep',(#432,#438,#441));
#484=IFCSHAPEASPECT((#483),'Frame/Mullion',$,.U.,#454);
#485=IFCMATERIALCONSTITUENT('Glass',$,#478,$,'Glass');
#486=IFCSHAPEREPRESENTATION(#24,'Body','Brep',(#444,#450));
#487=IFCSHAPEASPECT((#486),'Glass',$,.U.,#454);
#488=IFCMATERIALCONSTITUENTSET($,$,(#482,#485));
#489=IFCCARTESIANTRANSFORMATIONOPERATOR3D($,$,#3,1.,$);
#490=IFCMAPPEDITEM(#454,#489);
#491=IFCSHAPEREPRESENTATION(#24,'Body','MappedRepresentation',(#490));
#492=IFCPRODUCTDEFINITIONSHAPE($,$,(#491));
#493=IFCCARTESIANPOINT((2100.,-6700.,900.));
#494=IFCAXIS2PLACEMENT3D(#493,#9,#6);
#496=IFCWINDOW('1mRYVM4YfFFBRkcbz1hHvq',#18,'M_Window-Fixed:900 x 1200mm:1602673',$,'M_Window-Fixed:900 x 1200mm',#736,#492,'1602673',1200.,900.,.WINDOW.,.NOTDEFINED.,$);
#497=IFCMATERIALCONSTITUENT('Wood - Stained',$,#457,$,'Wood');
#498=IFCMATERIALCONSTITUENT('Glass',$,#478,$,'Glass');
#499=IFCMATERIALCONSTITUENTSET($,$,(#497,#498));
#500=IFCPROPERTYSINGLEVALUE('Reference',$,IFCIDENTIFIER('900 x 1200mm'),$);
#501=IFCPROPERTYSET('0ArKSwEc$fBYtnZo$8vPar',#18,'Pset_EnvironmentalImpactIndicators',$,(#500));
#502=IFCPROPERTYSINGLEVALUE('FireRating',$,IFCLABEL('0.5h'),$);
#503=IFCPROPERTYSET('2U_gZrcLkScj9rO0MfEXsi',#18,'Pset_WindowCommon',$,(#85,#500,#502));
#504=IFCRELDEFINESBYPROPERTIES('21_xCv75pl5bQpzkUr70Fg',#18,$,$,(#496),#501);
#505=IFCRELDEFINESBYPROPERTIES('2bWHCBJ_LNvY53xgkU4bo_',#18,$,$,(#496),#503);
#506=IFCCLASSIFICATIONREFERENCE('https://www.csiresources.org/standards/uniformat','B2020100','Windows',#28,'',$);
#507=IFCPROPERTYSINGLEVALUE('FireRating',$,IFCLABEL('0.5h'),$);
#508=IFCPROPERTYSET('2J87FBiwH4XqCNg8pZs6_3',#18,'Pset_WindowCommon',$,(#507));
#509=IFCMAPPEDITEM(#454,#489);
#510=IFCSHAPEREPRESENTATION(#24,'Body','MappedRepresentation',(#509));
#511=IFCPRODUCTDEFINITIONSHAPE($,$,(#510));
#512=IFCCARTESIANPOINT((3600.,-6700.,900.));
#513=IFCAXIS2PLACEMENT3D(#512,#9,#6);
#515=IFCWINDOW('1mRYVM4YfFFBRkcbz1hHz0',#18,'M_Window-Fixed:900 x 1200mm:1602885',$,'M_Window-Fixed:900 x 1200mm',#751,#511,'1602885',1200.,900.,.WINDOW.,.NOTDEFINED.,$);
#516=IFCMATERIALCONSTITUENT('Wood - Stained',$,#457,$,'Wood');
#517=IFCMATERIALCONSTITUENT('Glass',$,#478,$,'Glass');
#518=IFCMATERIALCONSTITUENTSET($,$,(#516,#517));
#519=IFCPROPERTYSET('0tlpkAAJDb_cHkCC0a9Kry',#18,'Pset_EnvironmentalImpactIndicators',$,(#500));
#520=IFCPROPERTYSINGLEVALUE('FireRating',$,IFCLABEL('0.5h'),$);
#521=IFCPROPERTYSET('3jMZ7vacLTfNBqZwo61fDI',#18,'Pset_WindowCommon',$,(#85,#500,#520));
#522=IFCRELDEFINESBYPROPERTIES('2Mgo7HetajgOgAER4Ie7vv',#18,$,$,(#515),#519);
#523=IFCRELDEFINESBYPROPERTIES('04CAr3AWohndgzAgIjfV5l',#18,$,$,(#515),#521);
#524=IFCMAPPEDITEM(#454,#489);
#525=IFCSHAPEREPRESENTATION(#24,'Body','MappedRepresentation',(#524));
#526=IFCPRODUCTDEFINITIONSHAPE($,$,(#525));
#527=IFCCARTESIANPOINT((8400.,-6700.,900.));
#528=IFCAXIS2PLACEMENT3D(#527,#9,#6);
#531=IFCMATERIALCONSTITUENT('Wood - Stained',$,#457,$,'Wood');
#532=IFCMATERIALCONSTITUENT('Glass',$,#478,$,'Glass');
#533=IFCMATERIALCONSTITUENTSET($,$,(#531,#532));
#534=IFCPROPERTYSET('2XwGuzThFD$sS5kXK7K2Am',#18,'Pset_EnvironmentalImpactIndicators',$,(#500));
#535=IFCPROPERTYSINGLEVALUE('FireRating',$,IFCLABEL('0.5h'),$);
#536=IFCPROPERTYSET('1YFR0VMShl0hOrTCPj7V$w',#18,'Pset_WindowCommon',$,(#85,#500,#535));
#537=IFCRELDEFINESBYPROPERTIES('3m9mvXiByy2q1rLdmYwvhf',#18,$,$,(),#534);
#538=IFCRELDEFINESBYPROPERTIES('0XJDZt34GIkZrjQEoP4DlL',#18,$,$,(),#536);
#539=IFCMAPPEDITEM(#454,#489);
#540=IFCSHAPEREPRESENTATION(#24,'Body','MappedRepresentation',(#539));
#541=IFCPRODUCTDEFINITIONSHAPE($,$,(#540));
#542=IFCCARTESIANPOINT((6800.,-6700.,900.));
#543=IFCAXIS2PLACEMENT3D(#542,#9,#6);
#546=IFCMATERIALCONSTITUENT('Wood - Stained',$,#457,$,'Wood');
#547=IFCMATERIALCONSTITUENT('Glass',$,#478,$,'Glass');
#548=IFCMATERIALCONSTITUENTSET($,$,(#546,#547));
#549=IFCPROPERTYSET('2Crl2NXR_EOLcvs6t1DFeF',#18,'Pset_EnvironmentalImpactIndicators',$,(#500));
#550=IFCPROPERTYSINGLEVALUE('FireRating',$,IFCLABEL('0.5h'),$);
#551=IFCPROPERTYSET('3cGky49zHlKvNHz7yhTuj6',#18,'Pset_WindowCommon',$,(#85,#500,#550));
#552=IFCRELDEFINESBYPROPERTIES('2Kv2$SumXj5dCwFSkW0EhR',#18,$,$,(),#549);
#553=IFCRELDEFINESBYPROPERTIES('0Eo5j0r3EQfVPZDt2UzJpZ',#18,$,$,(),#551);
#554=IFCMAPPEDITEM(#454,#489);
#555=IFCSHAPEREPRESENTATION(#24,'Body','MappedRepresentation',(#554));
#556=IFCPRODUCTDEFINITIONSHAPE($,$,(#555));
#557=IFCCARTESIANPOINT((9000.,-3300.,900.));
#558=IFCAXIS2PLACEMENT3D(#557,#9,#8);
#560=IFCWINDOW('1mRYVM4YfFFBRkcbz1hH$v',#18,'M_Window-Fixed:900 x 1200mm:1603068',$,'M_Window-Fixed:900 x 1200mm',#796,#556,'1603068',1200.,900.,.WINDOW.,.NOTDEFINED.,$);
#561=IFCMATERIALCONSTITUENT('Wood - Stained',$,#457,$,'Wood');
#562=IFCMATERIALCONSTITUENT('Glass',$,#478,$,'Glass');
#563=IFCMATERIALCONSTITUENTSET($,$,(#561,#562));
#564=IFCPROPERTYSET('2NjVTrE85xpKup0Vllc9um',#18,'Pset_EnvironmentalImpactIndicators',$,(#500));
#565=IFCPROPERTYSINGLEVALUE('FireRating',$,IFCLABEL('0.5h'),$);
#566=IFCPROPERTYSET('1jjofZNWFkeR$7W1jEWn5T',#18,'Pset_WindowCommon',$,(#85,#500,#565));
#567=IFCRELDEFINESBYPROPERTIES('2wi8RSRYQ_UMupo2su7e6y',#18,$,$,(#560),#564);
#568=IFCRELDEFINESBYPROPERTIES('0jXaoAmKQax22r2_1ndFQq',#18,$,$,(#560),#566);
#569=IFCMAPPEDITEM(#454,#489);
#570=IFCSHAPEREPRESENTATION(#24,'Body','MappedRepresentation',(#569));
#571=IFCPRODUCTDEFINITIONSHAPE($,$,(#570));
#572=IFCCARTESIANPOINT((200.,-1700.,900.));
#573=IFCAXIS2PLACEMENT3D(#572,#9,#7);
#575=IFCWINDOW('1mRYVM4YfFFBRkcbz1hHo4',#18,'M_Window-Fixed:900 x 1200mm:1603201',$,'M_Window-Fixed:900 x 1200mm',#706,#571,'1603201',1200.,900.,.WINDOW.,.NOTDEFINED.,$);
#576=IFCMATERIALCONSTITUENT('Wood - Stained',$,#457,$,'Wood');
#577=IFCMATERIALCONSTITUENT('Glass',$,#478,$,'Glass');
#578=IFCMATERIALCONSTITUENTSET($,$,(#576,#577));
#579=IFCPROPERTYSET('1wB$qzsd3xU5JKwpMOBKdJ',#18,'Pset_EnvironmentalImpactIndicators',$,(#500));
#580=IFCPROPERTYSINGLEVALUE('FireRating',$,IFCLABEL('0.5h'),$);
#581=IFCPROPERTYSET('2i_MWYDHCGbyCzfStpVoB1',#18,'Pset_WindowCommon',$,(#85,#500,#580));
#582=IFCRELDEFINESBYPROPERTIES('1vzd$EhGMDUy0rLDIVEyF$',#18,$,$,(#575),#579);
#583=IFCRELDEFINESBYPROPERTIES('3YIJe3vvIiXgxmL88c6zAs',#18,$,$,(#575),#581);
#584=IFCMAPPEDITEM(#454,#489);
#585=IFCSHAPEREPRESENTATION(#24,'Body','MappedRepresentation',(#584));
#586=IFCPRODUCTDEFINITIONSHAPE($,$,(#585));
#587=IFCCARTESIANPOINT((200.,-6400.,900.));
#588=IFCAXIS2PLACEMENT3D(#587,#9,#7);
#590=IFCWINDOW('1mRYVM4YfFFBRkcbz1hHpZ',#18,'M_Window-Fixed:900 x 1200mm:1603302',$,'M_Window-Fixed:900 x 1200mm',#721,#586,'1603302',1200.,900.,.WINDOW.,.NOTDEFINED.,$);
#591=IFCMATERIALCONSTITUENT('Wood - Stained',$,#457,$,'Wood');
#592=IFCMATERIALCONSTITUENT('Glass',$,#478,$,'Glass');
#593=IFCMATERIALCONSTITUENTSET($,$,(#591,#592));
#594=IFCPROPERTYSET('3c29Eh2uaaW6i7V33ljF_t',#18,'Pset_EnvironmentalImpactIndicators',$,(#500));
#595=IFCPROPERTYSINGLEVALUE('FireRating',$,IFCLABEL('0.5h'),$);
#596=IFCPROPERTYSET('1cJfOMaMbLVTwP0Fw5swoh',#18,'Pset_WindowCommon',$,(#85,#500,#595));
#597=IFCRELDEFINESBYPROPERTIES('2HAK5ikOJoZvcpLCGhML_7',#18,$,$,(#590),#594);
#598=IFCRELDEFINESBYPROPERTIES('2q2La_ghrxbY16s_Dh9f4Y',#18,$,$,(#590),#596);
#599=IFCCARTESIANPOINT((200.,-2800.,0.));
#600=IFCAXIS2PLACEMENT3D(#599,$,$);
#601=IFCLOCALPLACEMENT(#34,#600);
#602=IFCCARTESIANPOINT((5100.,0.));
#603=IFCPOLYLINE((#4,#602));
#604=IFCSHAPEREPRESENTATION(#23,'Axis','Curve2D',(#603));
#605=IFCCARTESIANPOINT((2550.,-2.1316282072803E-14));
#606=IFCAXIS2PLACEMENT2D(#605,#12);
#607=IFCRECTANGLEPROFILEDEF(.AREA.,$,#606,5099.99999999999,200.);
#608=IFCAXIS2PLACEMENT3D(#3,$,$);
#609=IFCEXTRUDEDAREASOLID(#607,#608,#9,3000.);
#610=IFCSTYLEDITEM(#609,(#69),$);
#611=IFCSHAPEREPRESENTATION(#24,'Body','SweptSolid',(#609));
#612=IFCPRODUCTDEFINITIONSHAPE($,$,(#604,#611));
#613=IFCWALL('1mRYVM4YfFFBRkcbz1hHAI',#18,'Basic Wall:Generic - 200mm:1603735',$,'Basic Wall:Generic - 200mm',#601,#612,'1603735',.NOTDEFINED.);
#614=IFCPROPERTYSET('0n385TLwafAfVdkXnj0ZJO',#18,'Pset_EnvironmentalImpactIndicators',$,(#81));
#615=IFCPROPERTYSINGLEVALUE('Reference',$,IFCLABEL('Generic - 200mm'),$);
#616=IFCPROPERTYSET('3D1i2VUx7UNH1gggbH2z$I',#18,'Pset_ReinforcementBarPitchOfWall',$,(#615));
#617=IFCPROPERTYSET('3ndFEJcLLBQYak5EOOfP9i',#18,'Pset_WallCommon',$,(#81,#85,#86,#87));
#618=IFCRELDEFINESBYPROPERTIES('0XAqyxcGtkY1_a2rZE93ei',#18,$,$,(#613),#614);
#619=IFCRELDEFINESBYPROPERTIES('3aNFAcqK4eKwIMB$nwaZwq',#18,$,$,(#613),#616);
#620=IFCRELDEFINESBYPROPERTIES('0iYjiTZiUy9YAIqGuVuw_C',#18,$,$,(#613),#617);
#621=IFCCARTESIANPOINT((3500.,-2700.,0.));
#622=IFCAXIS2PLACEMENT3D(#621,#9,#7);
#623=IFCLOCALPLACEMENT(#34,#622);
#624=IFCCARTESIANPOINT((2500.,0.));
#625=IFCPOLYLINE((#4,#624));
#626=IFCSHAPEREPRESENTATION(#23,'Axis','Curve2D',(#625));
#627=IFCCARTESIANPOINT((1250.,0.));
#628=IFCAXIS2PLACEMENT2D(#627,#12);
#629=IFCRECTANGLEPROFILEDEF(.AREA.,$,#628,2500.,200.);
#630=IFCAXIS2PLACEMENT3D(#3,$,$);
#631=IFCEXTRUDEDAREASOLID(#629,#630,#9,3000.);
#632=IFCSTYLEDITEM(#631,(#69),$);
#633=IFCSHAPEREPRESENTATION(#24,'Body','SweptSolid',(#631));
#634=IFCPRODUCTDEFINITIONSHAPE($,$,(#626,#633));
#635=IFCWALL('1mRYVM4YfFFBRkcbz1hHCV',#18,'Basic Wall:Generic - 200mm:1603866',$,'Basic Wall:Generic - 200mm',#623,#634,'1603866',.NOTDEFINED.);
#636=IFCPROPERTYSET('2aot2BnJJrEGY34_6H0Q5o',#18,'Pset_EnvironmentalImpactIndicators',$,(#81));
#637=IFCPROPERTYSINGLEVALUE('Reference',$,IFCLABEL('Generic - 200mm'),$);
#638=IFCPROPERTYSET('0SOwyoT7Vw51Pv79Pa9cXU',#18,'Pset_ReinforcementBarPitchOfWall',$,(#637));
#639=IFCPROPERTYSET('18JVumO4PNfpDk5UZv$t4n',#18,'Pset_WallCommon',$,(#81,#85,#86,#87));
#640=IFCRELDEFINESBYPROPERTIES('20_1jY5P4$pr1AZWeZEQHs',#18,$,$,(#635),#636);
#641=IFCRELDEFINESBYPROPERTIES('1I$sNQxcNylsGbTsgnfwTQ',#18,$,$,(#635),#638);
#642=IFCRELDEFINESBYPROPERTIES('1zRU8$FyNM8CIB8KT$3vOx',#18,$,$,(#635),#639);
#643=IFCPROPERTYSINGLEVALUE('Reference',$,IFCIDENTIFIER('8mm Head'),$);
#644=IFCPROPERTYSINGLEVALUE('AboveGround',$,IFCLOGICAL(.U.),$);
#645=IFCPROPERTYSET('16L50AfyZF4hYq5TGET4H4',#18,'Pset_BuildingStoreyCommon',$,(#643,#644));
#646=IFCPROPERTYSET('2J7ac_h5ujdwWuzVwBIIta',#18,'Pset_SpaceCommon',$,(#45,#643));
#647=IFCRELDEFINESBYPROPERTIES('2VdfSfkgzGoZi_3SgzE8$0',#18,$,$,(#35),#645);
#648=IFCRELDEFINESBYPROPERTIES('3$YdOpA8iaPobC8MDiWxoI',#18,$,$,(#35),#646);
#649=IFCRELCONTAINEDINSPATIALSTRUCTURE('2JF4e6axWHqu3u0C5FZlmi',#18,$,$,(#73,#109,#131,#153,#175,#197,#496,#515,#560,#575,#590,#613,#635),#35);
#650=IFCPROPERTYSET('1n34enW33Z_3Qq2Pm1kjQZ',#18,'Pset_BuildingStoreyCommon',$,(#643,#644));
#651=IFCPROPERTYSET('0qNc4$IaPwTvoqOd7IlIE4',#18,'Pset_SpaceCommon',$,(#45,#643));
#652=IFCRELDEFINESBYPROPERTIES('36oM8gyLQ5_Z6XoGK5uP1E',#18,$,$,(#39),#650);
#653=IFCRELDEFINESBYPROPERTIES('0jA6Vdz$3CfPvu_I1iTL6J',#18,$,$,(#39),#651);
#654=IFCRELAGGREGATES('2KFB6YYWgXBmucZ8cm7uCP',#18,$,$,#27,(#42));
#655=IFCRELAGGREGATES('16_hfJTeCqU7LcG8m10BTS',#18,$,$,#42,(#32));
#656=IFCRELAGGREGATES('1yhDISh1T5aQqAoygxGIhP',#18,$,$,#32,(#35,#39));
#657=IFCPROPERTYSINGLEVALUE('NumberOfStoreys',$,IFCCOUNTMEASURE(1),$);
#658=IFCPROPERTYSINGLEVALUE('IsLandmarked',$,IFCLOGICAL(.U.),$);
#659=IFCPROPERTYSET('01y_GmllCupEYuBgfGbhkd',#18,'Pset_BuildingCommon',$,(#43,#657,#658));
#660=IFCPROPERTYSET('1rUR7OGyIAkZT62xvibLnd',#18,'Pset_BuildingElementProxyCommon',$,(#43,#45));
#661=IFCPROPERTYSET('2kFDjjfIaTsBi7MLK$i$Me',#18,'Pset_BuildingStoreyCommon',$,(#43,#644));
#662=IFCPROPERTYSET('1TYvb3FgH88mtl04iE5P1T',#18,'Pset_BuildingSystemCommon',$,(#43));
#663=IFCPROPERTYSET('2W94HCj5xfigmNGtkBMklk',#18,'Pset_SpaceCommon',$,(#43,#45));
#664=IFCRELDEFINESBYPROPERTIES('0vDjba2fshDEh0_KufwWht',#18,$,$,(#32),#659);
#665=IFCRELDEFINESBYPROPERTIES('1V6UQfELB4oPy3GPEaJMPw',#18,$,$,(#32),#660);
#666=IFCRELDEFINESBYPROPERTIES('0Vpd75HttOMIhzXutBGgCt',#18,$,$,(#32),#661);
#667=IFCRELDEFINESBYPROPERTIES('22VMRBFW9n6_S81yWIP225',#18,$,$,(#32),#662);
#668=IFCRELDEFINESBYPROPERTIES('2w3bzVlKnfBVjA3_BjG2II',#18,$,$,(#32),#663);
#669=IFCRELASSOCIATESMATERIAL('2hBQZ_noSgSrkai3vAtwkM',#18,$,$,(#456),#488);
#670=IFCRELASSOCIATESMATERIAL('1t1Uy$eLNedvJz0gOXo6oV',#18,$,$,(#496),#499);
#671=IFCRELASSOCIATESMATERIAL('0ZoZ8C8dloB45bxugeO0SD',#18,$,$,(#515),#518);
#672=IFCRELASSOCIATESMATERIAL('2P94Gz0gtuecpXcyGr2XDU',#18,$,$,(),#533);
#673=IFCRELASSOCIATESMATERIAL('2b2Y8K7MUxQAtjCDUM1tY9',#18,$,$,(),#548);
#674=IFCRELASSOCIATESMATERIAL('3sFRQhRituEno$fraA0p8r',#18,$,$,(#560),#563);
#675=IFCRELASSOCIATESMATERIAL('3uo0RrNd8DHcCx2ROx9Vkv',#18,$,$,(#575),#578);
#676=IFCRELASSOCIATESMATERIAL('3fjjMX4tX6sS32JBb5PAA3',#18,$,$,(#590),#593);
#677=IFCRELASSOCIATESMATERIAL('22T9r9KB1F3JFgePfxkUGp',#18,$,$,(#73,#80,#109,#131,#153,#175,#197,#613,#635),#79);
#678=IFCRELDEFINESBYTYPE('0MSq_ijuC5q4PUKv4QkOsA',#18,$,$,(#73,#109,#131,#153,#175,#197,#613,#635),#80);
#679=IFCRELDEFINESBYTYPE('2bCYf4mME1UXDQABL3rObx',#18,$,$,(#496,#515,#560,#575,#590),#456);
#680=IFCRELCONNECTSPATHELEMENTS('3rUDTz_$QOIB4hyJoDdSJP',#18,'1mRYVM4YfFFBRkcbz1hHZ$|1mRYVM4YfFFBRkcbz1hHcs','Structural',$,#73,#197,(),(),.ATEND.,.ATSTART.);
#681=IFCRELCONNECTSPATHELEMENTS('2iwoPCu_8O$TCLGRyzTN7v',#18,'1mRYVM4YfFFBRkcbz1hHZ$|1mRYVM4YfFFBRkcbz1hHaA','Structural',$,#73,#109,(),(),.ATSTART.,.ATEND.);
#682=IFCRELCONNECTSPATHELEMENTS('22KhOhUWKH651iKZC3E75r',#18,'1mRYVM4YfFFBRkcbz1hHaA|1mRYVM4YfFFBRkcbz1hHa_','Structural',$,#109,#131,(),(),.ATSTART.,.ATEND.);
#683=IFCRELCONNECTSPATHELEMENTS('0LGnfJPiCALfoEGcFmwOC8',#18,'1mRYVM4YfFFBRkcbz1hHa_|1mRYVM4YfFFBRkcbz1hHbM','Structural',$,#131,#153,(),(),.ATSTART.,.ATEND.);
#684=IFCRELCONNECTSPATHELEMENTS('3Arl8aWyJIS8irrfvqVt4O',#18,'1mRYVM4YfFFBRkcbz1hHbM|1mRYVM4YfFFBRkcbz1hHbp','Structural',$,#153,#175,(),(),.ATSTART.,.ATEND.);
#685=IFCRELCONNECTSPATHELEMENTS('3Oj5$ONJZW3FJxZ1CBqCNq',#18,'1mRYVM4YfFFBRkcbz1hHbp|1mRYVM4YfFFBRkcbz1hHcs','Structural',$,#175,#197,(),(),.ATSTART.,.ATEND.);
#686=IFCRELCONNECTSPATHELEMENTS('3fXdaBYR3a0QlAuF_TR20g',#18,'1mRYVM4YfFFBRkcbz1hHZ$|1mRYVM4YfFFBRkcbz1hHAI','Structural',$,#73,#613,(),(),.ATSTART.,.ATPATH.);
#687=IFCRELCONNECTSPATHELEMENTS('2pbQTGiFjy4D5xfjUYkS4J',#18,'1mRYVM4YfFFBRkcbz1hHbp|1mRYVM4YfFFBRkcbz1hHAI','Structural',$,#175,#613,(),(),.ATEND.,.ATPATH.);
#688=IFCRELCONNECTSPATHELEMENTS('28vti4zky_WeHuCy6mwldw',#18,'1mRYVM4YfFFBRkcbz1hHAI|1mRYVM4YfFFBRkcbz1hHCV','Structural',$,#613,#635,(),(),.ATSTART.,.ATPATH.);
#689=IFCRELCONNECTSPATHELEMENTS('2mWdZYUpy6pchmP_pr_YpQ',#18,'1mRYVM4YfFFBRkcbz1hHcs|1mRYVM4YfFFBRkcbz1hHCV','Structural',$,#197,#635,(),(),.ATEND.,.ATPATH.);
#690=IFCPRESENTATIONLAYERASSIGNMENT('A-WALL-____-OTLN',$,(#60,#71,#100,#107,#122,#129,#144,#151,#166,#173,#188,#195,#604,#611,#626,#633),$);
#691=IFCPRESENTATIONLAYERASSIGNMENT('A-GLAZ-____-OTLN',$,(#452,#483,#486,#491,#510,#525,#540,#555,#570,#585),$);
#692=IFCCARTESIANPOINT((600.000000000002,450.));
#693=IFCAXIS2PLACEMENT2D(#692,#12);
#694=IFCRECTANGLEPROFILEDEF(.AREA.,$,#693,1200.,900.);
#695=IFCAXIS2PLACEMENT3D(#3,#8,#9);
#696=IFCEXTRUDEDAREASOLID(#694,#695,#9,200.);
#697=IFCSHAPEREPRESENTATION(#24,'Body','SweptSolid',(#696));
#698=IFCPRODUCTDEFINITIONSHAPE($,$,(#697));
#699=IFCCARTESIANPOINT((1700.,100.,900.));
#700=IFCAXIS2PLACEMENT3D(#699,$,$);
#701=IFCLOCALPLACEMENT(#57,#700);
#702=IFCOPENINGELEMENT('2d53Ma4Hc460dNhj8JlSQo',#18,'M_Window-Fixed:900 x 1200mm:1603201:1',$,$,#701,#698,'1603201',.OPENING.);
#703=IFCRELVOIDSELEMENT('1mRYVM4YfFFBRkcaj1hHo4',#18,$,$,#73,#702);
#704=IFCRELFILLSELEMENT('1TRsoELfruHvmsxQ40js8q',#18,$,$,#702,#575);
#705=IFCAXIS2PLACEMENT3D(#3,#9,#6);
#706=IFCLOCALPLACEMENT(#701,#705);
#707=IFCCARTESIANPOINT((600.000000000002,450.));
#708=IFCAXIS2PLACEMENT2D(#707,#12);
#709=IFCRECTANGLEPROFILEDEF(.AREA.,$,#708,1200.,900.);
#710=IFCAXIS2PLACEMENT3D(#3,#8,#9);
#711=IFCEXTRUDEDAREASOLID(#709,#710,#9,200.);
#712=IFCSHAPEREPRESENTATION(#24,'Body','SweptSolid',(#711));
#713=IFCPRODUCTDEFINITIONSHAPE($,$,(#712));
#714=IFCCARTESIANPOINT((6400.,100.,900.));
#715=IFCAXIS2PLACEMENT3D(#714,$,$);
#716=IFCLOCALPLACEMENT(#57,#715);
#717=IFCOPENINGELEMENT('0glQxPaBwI0t3x8bVYfCFb',#18,'M_Window-Fixed:900 x 1200mm:1603302:1',$,$,#716,#713,'1603302',.OPENING.);
#718=IFCRELVOIDSELEMENT('1mRYVM4YfFFBRkcaj1hHpZ',#18,$,$,#73,#717);
#719=IFCRELFILLSELEMENT('3kxcVN6Is1HlG57KHIR3VJ',#18,$,$,#717,#590);
#720=IFCAXIS2PLACEMENT3D(#3,#9,#6);
#721=IFCLOCALPLACEMENT(#716,#720);
#722=IFCCARTESIANPOINT((600.000000000002,450.));
#723=IFCAXIS2PLACEMENT2D(#722,#12);
#724=IFCRECTANGLEPROFILEDEF(.AREA.,$,#723,1200.,900.);
#725=IFCAXIS2PLACEMENT3D(#3,#8,#9);
#726=IFCEXTRUDEDAREASOLID(#724,#725,#9,200.);
#727=IFCSHAPEREPRESENTATION(#24,'Body','SweptSolid',(#726));
#728=IFCPRODUCTDEFINITIONSHAPE($,$,(#727));
#729=IFCCARTESIANPOINT((1900.,100.,900.));
#730=IFCAXIS2PLACEMENT3D(#729,$,$);
#731=IFCLOCALPLACEMENT(#97,#730);
#732=IFCOPENINGELEMENT('0$NPMRKlD2ipqMM9g4Qfid',#18,'M_Window-Fixed:900 x 1200mm:1602673:1',$,$,#731,#728,'1602673',.OPENING.);
#733=IFCRELVOIDSELEMENT('1mRYVM4YfFFBRkcaj1hHvq',#18,$,$,#109,#732);
#734=IFCRELFILLSELEMENT('0KdgXMdT9NuentN_xkX9sF',#18,$,$,#732,#496);
#735=IFCAXIS2PLACEMENT3D(#3,#9,#6);
#736=IFCLOCALPLACEMENT(#731,#735);
#737=IFCCARTESIANPOINT((600.000000000002,450.));
#738=IFCAXIS2PLACEMENT2D(#737,#12);
#739=IFCRECTANGLEPROFILEDEF(.AREA.,$,#738,1200.,900.);
#740=IFCAXIS2PLACEMENT3D(#3,#8,#9);
#741=IFCEXTRUDEDAREASOLID(#739,#740,#9,200.);
#742=IFCSHAPEREPRESENTATION(#24,'Body','SweptSolid',(#741));
#743=IFCPRODUCTDEFINITIONSHAPE($,$,(#742));
#744=IFCCARTESIANPOINT((3400.,100.,900.));
#745=IFCAXIS2PLACEMENT3D(#744,$,$);
#746=IFCLOCALPLACEMENT(#97,#745);
#747=IFCOPENINGELEMENT('3mqMV3w_w987zRFQG9R6ur',#18,'M_Window-Fixed:900 x 1200mm:1602885:1',$,$,#746,#743,'1602885',.OPENING.);
#748=IFCRELVOIDSELEMENT('1mRYVM4YfFFBRkcaj1hHz0',#18,$,$,#109,#747);
#749=IFCRELFILLSELEMENT('0Q_4PyX8udrB_k_bt7ERzo',#18,$,$,#747,#515);
#750=IFCAXIS2PLACEMENT3D(#3,#9,#6);
#751=IFCLOCALPLACEMENT(#746,#750);
#752=IFCCARTESIANPOINT((600.000000000002,450.));
#753=IFCAXIS2PLACEMENT2D(#752,#12);
#754=IFCRECTANGLEPROFILEDEF(.AREA.,$,#753,1200.,900.);
#755=IFCAXIS2PLACEMENT3D(#3,#8,#9);
#756=IFCEXTRUDEDAREASOLID(#754,#755,#9,200.);
#757=IFCSHAPEREPRESENTATION(#24,'Body','SweptSolid',(#756));
#758=IFCPRODUCTDEFINITIONSHAPE($,$,(#757));
#759=IFCCARTESIANPOINT((8200.,100.,900.));
#760=IFCAXIS2PLACEMENT3D(#759,$,$);
#761=IFCLOCALPLACEMENT(#97,#760);
#762=IFCOPENINGELEMENT('20UNRRDp_InaW8_dq7ad4F',#18,'M_Window-Fixed:900 x 1200mm:1602960:1',$,$,#761,#758,'1602960',.OPENING.);
#763=IFCRELVOIDSELEMENT('1mRYVM4YfFFBRkcaj1hH_L',#18,$,$,#109,#762);
#765=IFCAXIS2PLACEMENT3D(#3,#9,#6);
#766=IFCLOCALPLACEMENT(#761,#765);
#767=IFCCARTESIANPOINT((600.000000000002,450.));
#768=IFCAXIS2PLACEMENT2D(#767,#12);
#769=IFCRECTANGLEPROFILEDEF(.AREA.,$,#768,1200.,900.);
#770=IFCAXIS2PLACEMENT3D(#3,#8,#9);
#771=IFCEXTRUDEDAREASOLID(#769,#770,#9,200.);
#772=IFCSHAPEREPRESENTATION(#24,'Body','SweptSolid',(#771));
#773=IFCPRODUCTDEFINITIONSHAPE($,$,(#772));
#774=IFCCARTESIANPOINT((6600.,100.,900.));
#775=IFCAXIS2PLACEMENT3D(#774,$,$);
#776=IFCLOCALPLACEMENT(#97,#775);
#777=IFCOPENINGELEMENT('0Ub6rca1u_p5PdNYHvpRHV',#18,'M_Window-Fixed:900 x 1200mm:1603015:1',$,$,#776,#773,'1603015',.OPENING.);
#778=IFCRELVOIDSELEMENT('1mRYVM4YfFFBRkcaj1hH$2',#18,$,$,#109,#777);
#780=IFCAXIS2PLACEMENT3D(#3,#9,#6);
#781=IFCLOCALPLACEMENT(#776,#780);
#782=IFCCARTESIANPOINT((600.000000000002,450.));
#783=IFCAXIS2PLACEMENT2D(#782,#12);
#784=IFCRECTANGLEPROFILEDEF(.AREA.,$,#783,1200.,900.);
#785=IFCAXIS2PLACEMENT3D(#3,#8,#9);
#786=IFCEXTRUDEDAREASOLID(#784,#785,#9,200.);
#787=IFCSHAPEREPRESENTATION(#24,'Body','SweptSolid',(#786));
#788=IFCPRODUCTDEFINITIONSHAPE($,$,(#787));
#789=IFCCARTESIANPOINT((3400.,100.,900.));
#790=IFCAXIS2PLACEMENT3D(#789,$,$);
#791=IFCLOCALPLACEMENT(#119,#790);
#792=IFCOPENINGELEMENT('2uqjQk25XmTcRq6AABC8gG',#18,'M_Window-Fixed:900 x 1200mm:1603068:1',$,$,#791,#788,'1603068',.OPENING.);
#793=IFCRELVOIDSELEMENT('1mRYVM4YfFFBRkcaj1hH$v',#18,$,$,#131,#792);
#794=IFCRELFILLSELEMENT('0mlJA9pNNd6zShzlTOXQ_5',#18,$,$,#792,#560);
#795=IFCAXIS2PLACEMENT3D(#3,#9,#6);
#796=IFCLOCALPLACEMENT(#791,#795);
#797=IFCRELASSOCIATESCLASSIFICATION('1hjVovsTU6Sv$4yb4LCfu1',#18,'Exterior Walls','Exterior Walls:B2010',(#73,#109,#131,#153,#175,#197,#613,#635),#92);
#798=IFCRELASSOCIATESCLASSIFICATION('1FWcDxrBKWQE6D_YUt5q9l',#18,'Windows','Windows:B2020100',(#496,#515,#560,#575,#590),#506);
#799=IFCUNITASSIGNMENT((#19,#61));
ENDSEC;
END-ISO-10303-21;
