ISO-10303-21;
HEADER;
FILE_DESCRIPTION(('ViewDefinition [CoordinationView]','RevitIdentifiers [ContentGUID: cbb0ae2e-6350-4225-8ca4-af668662c38d, VersionGUID: ce55a8c0-1689-4345-9c19-13758bb44fdb, NumberOfSaves: 22]','CoordinateReference [CoordinateBase: Shared Coordinates]'),'2;1');
FILE_NAME('01_02_013.ifc','2026-01-07T17:03:08+01:00',(''),(''),'ODA SDAI 24.6','Autodesk Revit 24.3.30.11 (ENU) - IFC 24.3.30.11','');
FILE_SCHEMA(('IFC4X3'));
ENDSEC;

DATA;
#1=IFCORGANIZATION($,'Autodesk Revit 2024 (ENU)',$,$,$);
#2=IFCAPPLICATION(#1,'2024','Autodesk Revit 2024 (ENU)','Revit');
#3=IFCCARTESIANPOINT((0.,0.,0.));
#4=IFCCARTESIANPOINT((0.,0.));
#5=IFCDIRECTION((1.,0.,0.));
#6=IFCDIRECTION((-1.,0.,0.));
#7=IFCDIRECTION((0.,1.,0.));
#8=IFCDIRECTION((0.,-1.,0.));
#9=IFCDIRECTION((0.,0.,1.));
#10=IFCDIRECTION((0.,0.,-1.));
#11=IFCDIRECTION((1.,0.));
#12=IFCDIRECTION((-1.,0.));
#13=IFCDIRECTION((0.,1.));
#14=IFCDIRECTION((0.,-1.));
#15=IFCPERSON($,'','h.helming',$,$,$,$,$);
#16=IFCORGANIZATION($,'Organization Name','Organization Description',$,$);
#17=IFCPERSONANDORGANIZATION(#15,#16,$);
#18=IFCOWNERHISTORY(#17,#2,$,.NOCHANGE.,$,$,$,1767701907);
#19=IFCSIUNIT(*,.LENGTHUNIT.,.MILLI.,.METRE.);
#20=IFCAXIS2PLACEMENT3D(#3,$,$);
#21=IFCDIRECTION((6.1230317691118863E-17,1.));
#22=IFCGEOMETRICREPRESENTATIONCONTEXT($,'Model',3,0.01,#20,#21);
#23=IFCGEOMETRICREPRESENTATIONSUBCONTEXT('Axis','Model',*,*,*,*,#22,$,.GRAPH_VIEW.,$);
#24=IFCGEOMETRICREPRESENTATIONSUBCONTEXT('Body','Model',*,*,*,*,#22,$,.MODEL_VIEW.,$);
#25=IFCGEOMETRICREPRESENTATIONSUBCONTEXT('Box','Model',*,*,*,*,#22,$,.MODEL_VIEW.,$);
#26=IFCGEOMETRICREPRESENTATIONSUBCONTEXT('FootPrint','Model',*,*,*,*,#22,$,.MODEL_VIEW.,$);
#27=IFCPROJECT('3BiAukOr129OoahsPvdJnz',#18,'Project Number',$,$,'Project Name','Project Status',(#22),#760);
#28=IFCCLASSIFICATION('CSI (Construction Specifications Institute)','1998',$,'Uniformat','UniFormat Classification','https://www.csiresources.org/standards/uniformat',$);
#29=IFCAXIS2PLACEMENT3D(#3,$,$);
#30=IFCLOCALPLACEMENT(#41,#29);
#31=IFCPOSTALADDRESS($,$,$,$,('Enter address hereAddress Line 2'),$,'','Boston','','MA');
#32=IFCBUILDING('3BiAukOr129OoahsPvdJny',#18,'Building Name',$,$,#30,$,'Building Name',.ELEMENT.,$,$,#31);
#33=IFCAXIS2PLACEMENT3D(#3,$,$);
#34=IFCLOCALPLACEMENT(#30,#33);
#35=IFCBUILDINGSTOREY('2JF4e6axWHqu3u0C1FZlmi',#18,'L1',$,'Level:8mm Head',#34,$,'L1',.ELEMENT.,0.);
#36=IFCCARTESIANPOINT((0.,0.,3000.));
#37=IFCAXIS2PLACEMENT3D(#36,$,$);
#38=IFCLOCALPLACEMENT(#30,#37);
#39=IFCBUILDINGSTOREY('1ZGO8hrFCHqw0v0026FpFv',#18,'L2',$,'Level:8mm Head',#38,$,'L2',.ELEMENT.,3000.);
#40=IFCAXIS2PLACEMENT3D(#3,$,$);
#41=IFCLOCALPLACEMENT($,#40);
#42=IFCSITE('3BiAukOr129OoahsPvdJn$',#18,'Default',$,$,#41,$,$,.ELEMENT.,(42,21,31,401672),(-71,-3,-24,-345703),0.,$,$);
#43=IFCPROPERTYSINGLEVALUE('Reference',$,IFCIDENTIFIER('Project Information'),$);
#44=IFCPROPERTYSET('2mFJcO6I01h0OYRLOICO3c',#18,'Pset_SiteCommon',$,(#43));
#45=IFCPROPERTYSINGLEVALUE('IsExternal',$,IFCBOOLEAN(.F.),$);
#46=IFCPROPERTYSET('0O$B2PbAODr9jYnpcaZGJT',#18,'Pset_SpaceCommon',$,(#43,#45));
#47=IFCRELDEFINESBYPROPERTIES('2fDrcjst0HFayqQ3dY1cGQ',#18,$,$,(#42),#44);
#48=IFCRELDEFINESBYPROPERTIES('1lYkP70lXSGXnZeJnLC8MY',#18,$,$,(#42),#46);
#55=IFCCARTESIANPOINT((100.,0.,0.));
#56=IFCAXIS2PLACEMENT3D(#55,#9,#7);
#57=IFCLOCALPLACEMENT(#34,#56);
#58=IFCCARTESIANPOINT((4500.,-0.));
#59=IFCPOLYLINE((#4,#58));
#60=IFCSHAPEREPRESENTATION(#23,'Axis','Curve2D',(#59));
#61=IFCSIUNIT(*,.AREAUNIT.,$,.SQUARE_METRE.);
#62=IFCCARTESIANPOINT((2250.0000000000005,0.));
#63=IFCAXIS2PLACEMENT2D(#62,#12);
#64=IFCRECTANGLEPROFILEDEF(.AREA.,$,#63,4500.0000000000009,200.);
#65=IFCAXIS2PLACEMENT3D(#3,$,$);
#66=IFCEXTRUDEDAREASOLID(#64,#65,#9,3000.);
#67=IFCCOLOURRGB($,0.75294117647058822,0.75294117647058822,0.75294117647058822);
#68=IFCSURFACESTYLERENDERING(#67,0.,$,$,$,$,IFCNORMALISEDRATIOMEASURE(0.5),IFCSPECULAREXPONENT(10.),.NOTDEFINED.);
#69=IFCSURFACESTYLE('Default Wall',.BOTH.,(#68));
#70=IFCSTYLEDITEM(#66,(#69),$);
#71=IFCSHAPEREPRESENTATION(#24,'Body','SweptSolid',(#66));
#72=IFCPRODUCTDEFINITIONSHAPE($,$,(#60,#71));
#73=IFCWALL('0HbU4cYqD2SBtSJYoQ_eZD',#18,'Basic Wall:Generic - 200mm:1602328',$,'Basic Wall:Generic - 200mm',#57,#72,'1602328',.NOTDEFINED.);
#74=IFCMATERIAL('Default Wall',$,'Miscellaneous');
#75=IFCSTYLEDITEM($,(#69),$);
#76=IFCSTYLEDREPRESENTATION(#22,'Style','Material',(#75));
#77=IFCMATERIALDEFINITIONREPRESENTATION($,$,(#76),#74);
#78=IFCMATERIALLAYER(#74,200.,$,'Layer',$,'Miscellaneous',$);
#79=IFCMATERIALLAYERSET((#78),'Basic Wall:Generic - 200mm',$);
#80=IFCWALLTYPE('1xZrMVYp52mhf4uMzw11Hk',#18,'Basic Wall:Generic - 200mm',$,$,(#94),$,'441451',$,.STANDARD.);
#81=IFCPROPERTYSINGLEVALUE('Reference',$,IFCIDENTIFIER('Generic - 200mm'),$);
#82=IFCPROPERTYSET('3JXQ_3vQFu6IRNJGy4B$v$',#18,'Pset_EnvironmentalImpactIndicators',$,(#81));
#83=IFCPROPERTYSINGLEVALUE('Reference',$,IFCLABEL('Generic - 200mm'),$);
#84=IFCPROPERTYSET('0JXcE3JrfO9DRp0rARg2_w',#18,'Pset_ReinforcementBarPitchOfWall',$,(#83));
#85=IFCPROPERTYSINGLEVALUE('IsExternal',$,IFCBOOLEAN(.T.),$);
#86=IFCPROPERTYSINGLEVALUE('LoadBearing',$,IFCBOOLEAN(.F.),$);
#87=IFCPROPERTYSINGLEVALUE('ExtendToStructure',$,IFCBOOLEAN(.F.),$);
#88=IFCPROPERTYSET('1JevzCMQbDC219S0cb8V_I',#18,'Pset_WallCommon',$,(#81,#85,#86,#87));
#89=IFCRELDEFINESBYPROPERTIES('0GidwVj33qCMN1VbIR8jb$',#18,$,$,(#73),#82);
#90=IFCRELDEFINESBYPROPERTIES('2YxXrKQW_0b_XM26bPTtAk',#18,$,$,(#73),#84);
#91=IFCRELDEFINESBYPROPERTIES('0iBuq$seLmFB_y4jpOijHU',#18,$,$,(#73),#88);
#92=IFCCLASSIFICATIONREFERENCE('https://www.csiresources.org/standards/uniformat','B2010','Exterior Walls',#28,'',$);
#93=IFCPROPERTYSINGLEVALUE('Description',$,IFCTEXT('Generic Wall (Material By Category), 200mm thick'),$);
#94=IFCPROPERTYSET('2L7lvTstnIeeydfwzfZZLR',#18,'Pset_ReinforcementBarPitchOfWall',$,(#93));
#95=IFCCARTESIANPOINT((200.,4400.,0.));
#96=IFCAXIS2PLACEMENT3D(#95,$,$);
#97=IFCLOCALPLACEMENT(#34,#96);
#98=IFCCARTESIANPOINT((5050.,0.));
#99=IFCPOLYLINE((#4,#98));
#100=IFCSHAPEREPRESENTATION(#23,'Axis','Curve2D',(#99));
#101=IFCCARTESIANPOINT((2525.,-4.9737991503207013E-14));
#102=IFCAXIS2PLACEMENT2D(#101,#12);
#103=IFCRECTANGLEPROFILEDEF(.AREA.,$,#102,5050.,200.);
#104=IFCAXIS2PLACEMENT3D(#3,$,$);
#105=IFCEXTRUDEDAREASOLID(#103,#104,#9,3000.);
#106=IFCSTYLEDITEM(#105,(#69),$);
#107=IFCSHAPEREPRESENTATION(#24,'Body','SweptSolid',(#105));
#108=IFCPRODUCTDEFINITIONSHAPE($,$,(#100,#107));
#109=IFCWALL('0HbU4cYqD2SBtSJYoQ_eY6',#18,'Basic Wall:Generic - 200mm:1602387',$,'Basic Wall:Generic - 200mm',#97,#108,'1602387',.NOTDEFINED.);
#110=IFCPROPERTYSET('0ELHOVeODU85O8vrDIOlmN',#18,'Pset_EnvironmentalImpactIndicators',$,(#81));
#111=IFCPROPERTYSINGLEVALUE('Reference',$,IFCLABEL('Generic - 200mm'),$);
#112=IFCPROPERTYSET('04YeHn4dQO6aq01drN1Ggw',#18,'Pset_ReinforcementBarPitchOfWall',$,(#111));
#113=IFCPROPERTYSET('03DVxtfN$HBe2FQGJWA0R4',#18,'Pset_WallCommon',$,(#81,#85,#86,#87));
#114=IFCRELDEFINESBYPROPERTIES('1c272VnPngEY0hHiZWvh6W',#18,$,$,(#109),#110);
#115=IFCRELDEFINESBYPROPERTIES('2uwIfphnWf3oSBH7UvRMBH',#18,$,$,(#109),#112);
#116=IFCRELDEFINESBYPROPERTIES('04CqFJw633dFVL1S1x17Xu',#18,$,$,(#109),#113);
#117=IFCCARTESIANPOINT((5150.,4300.,0.));
#118=IFCAXIS2PLACEMENT3D(#117,#9,#8);
#119=IFCLOCALPLACEMENT(#34,#118);
#120=IFCCARTESIANPOINT((4300.,-0.));
#121=IFCPOLYLINE((#4,#120));
#122=IFCSHAPEREPRESENTATION(#23,'Axis','Curve2D',(#121));
#123=IFCCARTESIANPOINT((2150.0000000000005,-1.7053025658242404E-13));
#124=IFCAXIS2PLACEMENT2D(#123,#12);
#125=IFCRECTANGLEPROFILEDEF(.AREA.,$,#124,4300.0000000000009,200.);
#126=IFCAXIS2PLACEMENT3D(#3,$,$);
#127=IFCEXTRUDEDAREASOLID(#125,#126,#9,3000.);
#128=IFCSTYLEDITEM(#127,(#69),$);
#129=IFCSHAPEREPRESENTATION(#24,'Body','SweptSolid',(#127));
#130=IFCPRODUCTDEFINITIONSHAPE($,$,(#122,#129));
#131=IFCWALL('0HbU4cYqD2SBtSJYoQ_eXK',#18,'Basic Wall:Generic - 200mm:1602433',$,'Basic Wall:Generic - 200mm',#119,#130,'1602433',.NOTDEFINED.);
#132=IFCPROPERTYSET('0VXZCj95p2cRKgtDOTjOlX',#18,'Pset_EnvironmentalImpactIndicators',$,(#81));
#133=IFCPROPERTYSINGLEVALUE('Reference',$,IFCLABEL('Generic - 200mm'),$);
#134=IFCPROPERTYSET('0dAfybg6V8EBhSLFrw_iDx',#18,'Pset_ReinforcementBarPitchOfWall',$,(#133));
#135=IFCPROPERTYSET('3sy9Y_wYtY1x2IaqdC$OAF',#18,'Pset_WallCommon',$,(#81,#85,#86,#87));
#136=IFCRELDEFINESBYPROPERTIES('0yHQXf0e9bYuE1uarAQjbC',#18,$,$,(#131),#132);
#137=IFCRELDEFINESBYPROPERTIES('1wl6Hj3JfwdnD8Pel2mKYz',#18,$,$,(#131),#134);
#138=IFCRELDEFINESBYPROPERTIES('1JiOpUUEvLPAycfNFYJk_6',#18,$,$,(#131),#135);
#139=IFCCARTESIANPOINT((5050.,100.,0.));
#140=IFCAXIS2PLACEMENT3D(#139,#9,#6);
#141=IFCLOCALPLACEMENT(#34,#140);
#142=IFCCARTESIANPOINT((4850.,0.));
#143=IFCPOLYLINE((#4,#142));
#144=IFCSHAPEREPRESENTATION(#23,'Axis','Curve2D',(#143));
#145=IFCCARTESIANPOINT((2424.9999999999995,0.));
#146=IFCAXIS2PLACEMENT2D(#145,#12);
#147=IFCRECTANGLEPROFILEDEF(.AREA.,$,#146,4849.9999999999991,200.);
#148=IFCAXIS2PLACEMENT3D(#3,$,$);
#149=IFCEXTRUDEDAREASOLID(#147,#148,#9,3000.);
#150=IFCSTYLEDITEM(#149,(#69),$);
#151=IFCSHAPEREPRESENTATION(#24,'Body','SweptSolid',(#149));
#152=IFCPRODUCTDEFINITIONSHAPE($,$,(#144,#151));
#153=IFCWALL('0HbU4cYqD2SBtSJYoQ_eXy',#18,'Basic Wall:Generic - 200mm:1602473',$,'Basic Wall:Generic - 200mm',#141,#152,'1602473',.NOTDEFINED.);
#154=IFCPROPERTYSET('0XapNJ2fv8dMere7TkDJzy',#18,'Pset_EnvironmentalImpactIndicators',$,(#81));
#155=IFCPROPERTYSINGLEVALUE('Reference',$,IFCLABEL('Generic - 200mm'),$);
#156=IFCPROPERTYSET('2ucnCeYnumtUaAr$SXtsfL',#18,'Pset_ReinforcementBarPitchOfWall',$,(#155));
#157=IFCPROPERTYSET('15ekh7G$XoPoZR2VrRBikm',#18,'Pset_WallCommon',$,(#81,#85,#86,#87));
#158=IFCRELDEFINESBYPROPERTIES('24nyIvJ3Cc$CvCADUEXEmD',#18,$,$,(#153),#154);
#159=IFCRELDEFINESBYPROPERTIES('34a7wFaf5Hgn8ciQm_c50l',#18,$,$,(#153),#156);
#160=IFCRELDEFINESBYPROPERTIES('2pyZwZebAnkPVE5O2kfpl_',#18,$,$,(#153),#157);
#161=IFCCARTESIANPOINT((900.,104.74999999997758,1200.));
#162=IFCCARTESIANPOINT((900.,219.04999999999393,1200.));
#163=IFCCARTESIANPOINT((0.,219.04999999999683,1200.));
#164=IFCCARTESIANPOINT((0.,104.74999999998045,1200.));
#165=IFCPOLYLOOP((#161,#162,#163,#164));
#166=IFCFACEOUTERBOUND(#165,.T.);
#167=IFCFACE((#166));
#168=IFCCARTESIANPOINT((0.,219.04999999999683,0.));
#169=IFCCARTESIANPOINT((0.,104.74999999998045,0.));
#170=IFCPOLYLOOP((#164,#163,#168,#169));
#171=IFCFACEOUTERBOUND(#170,.T.);
#172=IFCFACE((#171));
#173=IFCCARTESIANPOINT((900.,219.04999999999393,0.));
#174=IFCCARTESIANPOINT((900.,104.74999999997758,0.));
#175=IFCPOLYLOOP((#169,#168,#173,#174));
#176=IFCFACEOUTERBOUND(#175,.T.);
#177=IFCFACE((#176));
#178=IFCCARTESIANPOINT((868.25000000006401,104.7499999999777,1168.250000000068));
#179=IFCCARTESIANPOINT((868.25000000006412,104.7499999999777,31.749999999935525));
#180=IFCCARTESIANPOINT((31.749999999935525,104.74999999998039,31.749999999935525));
#181=IFCCARTESIANPOINT((31.749999999935188,104.74999999998039,1168.2500000000684));
#182=IFCPOLYLOOP((#164,#169,#174,#161));
#183=IFCFACEOUTERBOUND(#182,.T.);
#184=IFCPOLYLOOP((#178,#179,#180,#181));
#185=IFCFACEBOUND(#184,.T.);
#186=IFCFACE((#183,#185));
#187=IFCPOLYLOOP((#174,#173,#162,#161));
#188=IFCFACEOUTERBOUND(#187,.T.);
#189=IFCFACE((#188));
#190=IFCCARTESIANPOINT((12.699999999998941,219.04999999999629,1187.300000000005));
#191=IFCCARTESIANPOINT((12.699999999998941,219.04999999999629,12.699999999998601));
#192=IFCCARTESIANPOINT((887.30000000000132,219.04999999999393,12.699999999998736));
#193=IFCCARTESIANPOINT((887.30000000000155,219.04999999999393,1187.3000000000052));
#194=IFCPOLYLOOP((#162,#173,#168,#163));
#195=IFCFACEOUTERBOUND(#194,.T.);
#196=IFCPOLYLOOP((#190,#191,#192,#193));
#197=IFCFACEBOUND(#196,.T.);
#198=IFCFACE((#195,#197));
#199=IFCCARTESIANPOINT((868.25000000006412,168.24999999999574,1168.2500000000684));
#200=IFCCARTESIANPOINT((31.749999999935458,168.24999999999832,1168.2500000000684));
#201=IFCPOLYLOOP((#199,#178,#181,#200));
#202=IFCFACEOUTERBOUND(#201,.T.);
#203=IFCFACE((#202));
#204=IFCCARTESIANPOINT((887.30000000000109,168.24999999999565,1187.300000000005));
#205=IFCCARTESIANPOINT((12.699999999999143,168.24999999999849,1187.300000000005));
#206=IFCPOLYLOOP((#193,#204,#205,#190));
#207=IFCFACEOUTERBOUND(#206,.T.);
#208=IFCFACE((#207));
#209=IFCCARTESIANPOINT((31.749999999935795,168.24999999999832,31.74999999993566));
#210=IFCPOLYLOOP((#200,#181,#180,#209));
#211=IFCFACEOUTERBOUND(#210,.T.);
#212=IFCFACE((#211));
#213=IFCCARTESIANPOINT((12.699999999999211,168.24999999999849,12.699999999998873));
#214=IFCPOLYLOOP((#190,#205,#213,#191));
#215=IFCFACEOUTERBOUND(#214,.T.);
#216=IFCFACE((#215));
#217=IFCCARTESIANPOINT((868.25000000006423,168.24999999999574,31.749999999935525));
#218=IFCPOLYLOOP((#209,#180,#179,#217));
#219=IFCFACEOUTERBOUND(#218,.T.);
#220=IFCFACE((#219));
#221=IFCCARTESIANPOINT((887.30000000000086,168.24999999999568,12.699999999998873));
#222=IFCPOLYLOOP((#191,#213,#221,#192));
#223=IFCFACEOUTERBOUND(#222,.T.);
#224=IFCFACE((#223));
#225=IFCPOLYLOOP((#217,#179,#178,#199));
#226=IFCFACEOUTERBOUND(#225,.T.);
#227=IFCFACE((#226));
#228=IFCPOLYLOOP((#200,#209,#217,#199));
#229=IFCFACEBOUND(#228,.T.);
#230=IFCPOLYLOOP((#204,#221,#213,#205));
#231=IFCFACEOUTERBOUND(#230,.T.);
#232=IFCFACE((#229,#231));
#233=IFCPOLYLOOP((#192,#221,#204,#193));
#234=IFCFACEOUTERBOUND(#233,.T.);
#235=IFCFACE((#234));
#236=IFCCARTESIANPOINT((0.,0.,1200.));
#237=IFCCARTESIANPOINT((900.,0.,0.));
#238=IFCCARTESIANPOINT((900.,0.,1200.));
#239=IFCCARTESIANPOINT((887.29999999992594,0.,1187.3000000000525));
#240=IFCCARTESIANPOINT((887.29999999992594,0.,12.700000000006858));
#241=IFCCARTESIANPOINT((12.699999999904392,0.,12.700000000006858));
#242=IFCCARTESIANPOINT((12.699999999904392,0.,1187.3000000000525));
#243=IFCPOLYLOOP((#236,#3,#237,#238));
#244=IFCFACEOUTERBOUND(#243,.T.);
#245=IFCPOLYLOOP((#239,#240,#241,#242));
#246=IFCFACEBOUND(#245,.T.);
#247=IFCFACE((#244,#246));
#248=IFCCARTESIANPOINT((0.,104.75000000000001,1200.));
#249=IFCCARTESIANPOINT((900.,104.75000000000001,1200.));
#250=IFCCARTESIANPOINT((900.,104.75000000000001,0.));
#251=IFCCARTESIANPOINT((0.,104.75000000000001,0.));
#252=IFCCARTESIANPOINT((887.29999999992594,104.75000000000001,1187.3000000000525));
#253=IFCCARTESIANPOINT((12.699999999904392,104.75000000000001,1187.3000000000525));
#254=IFCCARTESIANPOINT((12.699999999904392,104.75000000000001,12.700000000006858));
#255=IFCCARTESIANPOINT((887.29999999992594,104.75000000000001,12.700000000006858));
#256=IFCPOLYLOOP((#248,#249,#250,#251));
#257=IFCFACEOUTERBOUND(#256,.T.);
#258=IFCPOLYLOOP((#252,#253,#254,#255));
#259=IFCFACEBOUND(#258,.T.);
#260=IFCFACE((#257,#259));
#261=IFCPOLYLOOP((#3,#236,#248,#251));
#262=IFCFACEOUTERBOUND(#261,.T.);
#263=IFCFACE((#262));
#264=IFCPOLYLOOP((#237,#3,#251,#250));
#265=IFCFACEOUTERBOUND(#264,.T.);
#266=IFCFACE((#265));
#267=IFCPOLYLOOP((#238,#237,#250,#249));
#268=IFCFACEOUTERBOUND(#267,.T.);
#269=IFCFACE((#268));
#270=IFCPOLYLOOP((#236,#238,#249,#248));
#271=IFCFACEOUTERBOUND(#270,.T.);
#272=IFCFACE((#271));
#273=IFCPOLYLOOP((#240,#239,#252,#255));
#274=IFCFACEOUTERBOUND(#273,.T.);
#275=IFCFACE((#274));
#276=IFCPOLYLOOP((#241,#240,#255,#254));
#277=IFCFACEOUTERBOUND(#276,.T.);
#278=IFCFACE((#277));
#279=IFCPOLYLOOP((#242,#241,#254,#253));
#280=IFCFACEOUTERBOUND(#279,.T.);
#281=IFCFACE((#280));
#282=IFCPOLYLOOP((#239,#242,#253,#252));
#283=IFCFACEOUTERBOUND(#282,.T.);
#284=IFCFACE((#283));
#285=IFCCARTESIANPOINT((861.89999999992915,168.24999999999574,38.100000000002979));
#286=IFCCARTESIANPOINT((861.89999999992926,212.6999999999955,38.100000000002979));
#287=IFCCARTESIANPOINT((38.099999999900106,212.69999999999814,38.100000000002979));
#288=IFCCARTESIANPOINT((38.099999999900106,168.24999999999847,38.100000000003114));
#289=IFCPOLYLOOP((#285,#286,#287,#288));
#290=IFCFACEOUTERBOUND(#289,.T.);
#291=IFCFACE((#290));
#292=IFCCARTESIANPOINT((887.29999999992583,212.69999999999544,12.700000000006588));
#293=IFCCARTESIANPOINT((887.2999999999256,168.24999999999565,12.700000000006588));
#294=IFCCARTESIANPOINT((12.699999999903715,168.24999999999844,12.700000000006588));
#295=IFCCARTESIANPOINT((12.699999999903783,212.69999999999777,12.700000000006588));
#296=IFCPOLYLOOP((#292,#293,#294,#295));
#297=IFCFACEOUTERBOUND(#296,.T.);
#298=IFCFACE((#297));
#299=IFCCARTESIANPOINT((38.099999999900106,212.69999999999814,1161.900000000056));
#300=IFCCARTESIANPOINT((38.099999999900241,168.24999999999847,1161.900000000056));
#301=IFCPOLYLOOP((#288,#287,#299,#300));
#302=IFCFACEOUTERBOUND(#301,.T.);
#303=IFCFACE((#302));
#304=IFCCARTESIANPOINT((12.699999999903648,168.24999999999844,1187.3000000000525));
#305=IFCCARTESIANPOINT((12.699999999903783,212.69999999999777,1187.3000000000527));
#306=IFCPOLYLOOP((#295,#294,#304,#305));
#307=IFCFACEOUTERBOUND(#306,.T.);
#308=IFCFACE((#307));
#309=IFCCARTESIANPOINT((861.89999999992915,212.6999999999955,1161.900000000056));
#310=IFCCARTESIANPOINT((861.89999999992904,168.24999999999574,1161.900000000056));
#311=IFCPOLYLOOP((#300,#299,#309,#310));
#312=IFCFACEOUTERBOUND(#311,.T.);
#313=IFCFACE((#312));
#314=IFCCARTESIANPOINT((887.2999999999256,168.24999999999565,1187.3000000000525));
#315=IFCCARTESIANPOINT((887.29999999992549,212.69999999999544,1187.3000000000525));
#316=IFCPOLYLOOP((#305,#304,#314,#315));
#317=IFCFACEOUTERBOUND(#316,.T.);
#318=IFCFACE((#317));
#319=IFCPOLYLOOP((#310,#309,#286,#285));
#320=IFCFACEOUTERBOUND(#319,.T.);
#321=IFCFACE((#320));
#322=IFCPOLYLOOP((#288,#300,#310,#285));
#323=IFCFACEBOUND(#322,.T.);
#324=IFCPOLYLOOP((#293,#314,#304,#294));
#325=IFCFACEOUTERBOUND(#324,.T.);
#326=IFCFACE((#323,#325));
#327=IFCPOLYLOOP((#315,#314,#293,#292));
#328=IFCFACEOUTERBOUND(#327,.T.);
#329=IFCFACE((#328));
#330=IFCPOLYLOOP((#295,#305,#315,#292));
#331=IFCFACEOUTERBOUND(#330,.T.);
#332=IFCPOLYLOOP((#286,#309,#299,#287));
#333=IFCFACEBOUND(#332,.T.);
#334=IFCFACE((#331,#333));
#335=IFCCARTESIANPOINT((861.89999999993017,200.,1161.9000000000478));
#336=IFCCARTESIANPOINT((38.099999999899907,200.,1161.9000000000478));
#337=IFCCARTESIANPOINT((38.099999999899971,193.65000000010971,1161.9000000000478));
#338=IFCCARTESIANPOINT((861.89999999993017,193.65000000010971,1161.9000000000478));
#339=IFCPOLYLOOP((#335,#336,#337,#338));
#340=IFCFACEOUTERBOUND(#339,.T.);
#341=IFCFACE((#340));
#342=IFCCARTESIANPOINT((861.89999999993017,200.,38.099999999995937));
#343=IFCCARTESIANPOINT((38.099999999899907,200.,38.099999999995937));
#344=IFCPOLYLOOP((#336,#335,#342,#343));
#345=IFCFACEOUTERBOUND(#344,.T.);
#346=IFCFACE((#345));
#347=IFCCARTESIANPOINT((38.099999999899971,193.65000000010971,38.099999999995937));
#348=IFCPOLYLOOP((#337,#336,#343,#347));
#349=IFCFACEOUTERBOUND(#348,.T.);
#350=IFCFACE((#349));
#351=IFCCARTESIANPOINT((861.89999999993017,193.65000000010971,38.099999999995937));
#352=IFCPOLYLOOP((#338,#337,#347,#351));
#353=IFCFACEOUTERBOUND(#352,.T.);
#354=IFCFACE((#353));
#355=IFCPOLYLOOP((#335,#338,#351,#342));
#356=IFCFACEOUTERBOUND(#355,.T.);
#357=IFCFACE((#356));
#358=IFCPOLYLOOP((#342,#351,#347,#343));
#359=IFCFACEOUTERBOUND(#358,.T.);
#360=IFCFACE((#359));
#361=IFCCARTESIANPOINT((38.099999999900106,180.94999999999737,38.099999999995937));
#362=IFCCARTESIANPOINT((38.099999999900106,187.30000000009292,38.099999999995937));
#363=IFCCARTESIANPOINT((861.89999999993017,187.30000000009292,38.099999999995937));
#364=IFCCARTESIANPOINT((861.89999999993017,180.94999999999737,38.099999999995937));
#365=IFCPOLYLOOP((#361,#362,#363,#364));
#366=IFCFACEOUTERBOUND(#365,.T.);
#367=IFCFACE((#366));
#368=IFCCARTESIANPOINT((861.89999999993017,180.94999999999737,1161.9000000000478));
#369=IFCCARTESIANPOINT((38.099999999900106,180.94999999999737,1161.9000000000478));
#370=IFCPOLYLOOP((#368,#369,#361,#364));
#371=IFCFACEOUTERBOUND(#370,.T.);
#372=IFCFACE((#371));
#373=IFCCARTESIANPOINT((861.89999999993017,187.30000000009292,1161.9000000000478));
#374=IFCPOLYLOOP((#373,#368,#364,#363));
#375=IFCFACEOUTERBOUND(#374,.T.);
#376=IFCFACE((#375));
#377=IFCCARTESIANPOINT((38.099999999900177,187.30000000009292,1161.9000000000478));
#378=IFCPOLYLOOP((#377,#373,#363,#362));
#379=IFCFACEOUTERBOUND(#378,.T.);
#380=IFCFACE((#379));
#381=IFCPOLYLOOP((#369,#377,#362,#361));
#382=IFCFACEOUTERBOUND(#381,.T.);
#383=IFCFACE((#382));
#384=IFCPOLYLOOP((#369,#368,#373,#377));
#385=IFCFACEOUTERBOUND(#384,.T.);
#386=IFCFACE((#385));
#387=IFCCLOSEDSHELL((#167,#172,#177,#186,#189,#198,#203,#208,#212,#216,#220,#224,#227,#232,#235));
#388=IFCFACETEDBREP(#387);
#389=IFCCOLOURRGB($,0.67843137254901964,0.51764705882352946,0.37647058823529411);
#390=IFCSURFACESTYLERENDERING(#389,0.,$,$,$,$,IFCNORMALISEDRATIOMEASURE(0.5),IFCSPECULAREXPONENT(128.),.NOTDEFINED.);
#391=IFCSURFACESTYLE('Wood - Stained',.BOTH.,(#390));
#392=IFCSTYLEDITEM(#388,(#391),$);
#393=IFCCLOSEDSHELL((#247,#260,#263,#266,#269,#272,#275,#278,#281,#284));
#394=IFCFACETEDBREP(#393);
#395=IFCSTYLEDITEM(#394,(#391),$);
#396=IFCCLOSEDSHELL((#291,#298,#303,#308,#313,#318,#321,#326,#329,#334));
#397=IFCFACETEDBREP(#396);
#398=IFCSTYLEDITEM(#397,(#391),$);
#399=IFCCLOSEDSHELL((#341,#346,#350,#354,#357,#360));
#400=IFCFACETEDBREP(#399);
#401=IFCCOLOURRGB($,0.96078431372549022,0.96078431372549022,0.95294117647058818);
#402=IFCSURFACESTYLERENDERING(#401,1.,$,$,$,$,IFCNORMALISEDRATIOMEASURE(0.5),IFCSPECULAREXPONENT(64.),.NOTDEFINED.);
#403=IFCSURFACESTYLE('Glass',.BOTH.,(#402));
#404=IFCSTYLEDITEM(#400,(#403),$);
#405=IFCCLOSEDSHELL((#367,#372,#376,#380,#383,#386));
#406=IFCFACETEDBREP(#405);
#407=IFCSTYLEDITEM(#406,(#403),$);
#408=IFCSHAPEREPRESENTATION(#24,'Body','Brep',(#388,#394,#397,#400,#406));
#409=IFCAXIS2PLACEMENT3D(#3,$,$);
#410=IFCREPRESENTATIONMAP(#409,#408);
#411=IFCWINDOWLININGPROPERTIES('0HbU4cYqD2SBtSJYsQ_eW1',#18,'M_Window-Fixed:900 x 1200mm:1602516',$,$,$,$,$,$,$,$,$,$,$,$,$);
#412=IFCWINDOWTYPE('2eySHCW5n7U$cjhyKwHz6T',#18,'M_Window-Fixed:900 x 1200mm',$,$,(#411,#464),(#410),'1524699',$,.WINDOW.,.NOTDEFINED.,.F.,$);
#413=IFCMATERIAL('Wood - Stained',$,'Wood');
#414=IFCCOLOURRGB($,0.,0.,0.);
#415=IFCCURVESTYLEFONTPATTERN(211.58199999999999,1904.2380000000001);
#416=IFCCURVESTYLEFONT('Wood 1:1',(#415));
#417=IFCCURVESTYLE('Wood 1:1',#416,$,#414,$);
#418=IFCCARTESIANPOINT((1387.9778824443713,1337.1982900741696));
#419=IFCFILLAREASTYLEHATCHING(#417,IFCPOSITIVELENGTHMEASURE(84.632800000000003),$,#418,216.8699);
#420=IFCCURVESTYLEFONTPATTERN(473.11183,473.11183);
#421=IFCCURVESTYLEFONT('Wood 1:2',(#420));
#422=IFCCURVESTYLE('Wood 1:2',#421,$,#414,$);
#423=IFCCARTESIANPOINT((-84.632685810556325,42.315916214384231));
#424=IFCFILLAREASTYLEHATCHING(#422,IFCPOSITIVELENGTHMEASURE(189.24485899999999),$,#423,206.56510000000003);
#425=IFCCURVESTYLEFONTPATTERN(267.63268799999997,1070.5294819999999);
#426=IFCCURVESTYLEFONT('Wood 1:3',(#425));
#427=IFCCURVESTYLE('Wood 1:3',#426,$,#414,$);
#428=IFCCARTESIANPOINT((-465.48060246108253,-211.58122611782321));
#429=IFCFILLAREASTYLEHATCHING(#427,IFCPOSITIVELENGTHMEASURE(133.81629319999999),$,#428,198.4349);
#430=IFCFILLAREASTYLE('Wood 1',(#419,#424,#429),$);
#431=IFCSTYLEDITEM($,(#391,#430),$);
#432=IFCSTYLEDREPRESENTATION(#22,'Style','Material and Cut Pattern',(#431));
#433=IFCMATERIALDEFINITIONREPRESENTATION($,$,(#432),#413);
#434=IFCMATERIAL('Glass',$,'Glass');
#435=IFCSTYLEDITEM($,(#403),$);
#436=IFCSTYLEDREPRESENTATION(#22,'Style','Material',(#435));
#437=IFCMATERIALDEFINITIONREPRESENTATION($,$,(#436),#434);
#438=IFCMATERIALCONSTITUENT('Frame/Mullion',$,#413,$,'Wood');
#439=IFCSHAPEREPRESENTATION(#24,'Body','Brep',(#388,#394,#397));
#440=IFCSHAPEASPECT((#439),'Frame/Mullion',$,.U.,#410);
#441=IFCMATERIALCONSTITUENT('Glass',$,#434,$,'Glass');
#442=IFCSHAPEREPRESENTATION(#24,'Body','Brep',(#400,#406));
#443=IFCSHAPEASPECT((#442),'Glass',$,.U.,#410);
#444=IFCMATERIALCONSTITUENTSET($,$,(#438,#441));
#445=IFCCARTESIANTRANSFORMATIONOPERATOR3D($,$,#3,1.,$);
#446=IFCMAPPEDITEM(#410,#445);
#447=IFCSHAPEREPRESENTATION(#24,'Body','MappedRepresentation',(#446));
#448=IFCPRODUCTDEFINITIONSHAPE($,$,(#447));
#449=IFCCARTESIANPOINT((5050.,1600.,900.));
#450=IFCAXIS2PLACEMENT3D(#449,#9,#8);
#452=IFCWINDOW('0HbU4cYqD2SBtSJYoQ_eW1',#18,'M_Window-Fixed:900 x 1200mm:1602516',$,'M_Window-Fixed:900 x 1200mm',#742,#448,'1602516',1200.0000000000036,899.99999999999966,.WINDOW.,.NOTDEFINED.,$);
#453=IFCMATERIALCONSTITUENT('Wood - Stained',$,#413,$,'Wood');
#454=IFCMATERIALCONSTITUENT('Glass',$,#434,$,'Glass');
#455=IFCMATERIALCONSTITUENTSET($,$,(#453,#454));
#456=IFCPROPERTYSINGLEVALUE('Reference',$,IFCIDENTIFIER('900 x 1200mm'),$);
#457=IFCPROPERTYSET('0Ke_yuN2H6WsZRU7BPUIi7',#18,'Pset_EnvironmentalImpactIndicators',$,(#456));
#458=IFCPROPERTYSINGLEVALUE('FireRating',$,IFCLABEL('0.5h'),$);
#459=IFCPROPERTYSET('0okFzmaP7JZXItirtDfwQI',#18,'Pset_WindowCommon',$,(#85,#456,#458));
#460=IFCRELDEFINESBYPROPERTIES('0nC0iAvHxPoV7h05Zy$hGe',#18,$,$,(#452),#457);
#461=IFCRELDEFINESBYPROPERTIES('0eIGdJkEQHzVSOOvXWshbN',#18,$,$,(#452),#459);
#462=IFCCLASSIFICATIONREFERENCE('https://www.csiresources.org/standards/uniformat','B2020100','Windows',#28,'',$);
#463=IFCPROPERTYSINGLEVALUE('FireRating',$,IFCLABEL('0.5h'),$);
#464=IFCPROPERTYSET('13av_ePN5$lPAwCZkB1aso',#18,'Pset_WindowCommon',$,(#463));
#465=IFCAXIS2PLACEMENT3D(#3,$,$);
#467=IFCCARTESIANPOINT((6.3500000000212964,-6.3500000000302981));
#468=IFCCARTESIANPOINT((561.89999999988697,-6.3500000000302981));
#469=IFCCARTESIANPOINT((561.89999999988697,6.3499999999679764));
#470=IFCCARTESIANPOINT((6.3500000000309074,6.3499999999679719));
#471=IFCCARTESIANPOINT((6.3500000000309038,411.90000000001112));
#472=IFCCARTESIANPOINT((-6.3499999999643135,411.90000000001112));
#473=IFCCARTESIANPOINT((-6.3499999999643109,6.3499999999766956));
#474=IFCCARTESIANPOINT((-561.89999999999918,6.3499999999766832));
#475=IFCCARTESIANPOINT((-561.89999999999918,-6.3500000000126349));
#476=IFCCARTESIANPOINT((-6.3499999999754104,-6.3500000000126304));
#477=IFCCARTESIANPOINT((-6.3499999999754069,-411.89999999991278));
#478=IFCCARTESIANPOINT((6.3500000000212999,-411.89999999991278));
#479=IFCPOLYLINE((#467,#468,#469,#470,#471,#472,#473,#474,#475,#476,#477,#478,#467));
#480=IFCARBITRARYCLOSEDPROFILEDEF(.AREA.,'M_Muntin Pattern_2x2',#479);
#481=IFCCARTESIANPOINT((0.,-22.224999999997337,561.89999999989288));
#482=IFCAXIS2PLACEMENT3D(#481,#7,#9);
#483=IFCEXTRUDEDAREASOLID(#480,#482,#9,12.699999999996029);
#484=IFCSIUNIT(*,.PLANEANGLEUNIT.,$,.RADIAN.);
#485=IFCDIMENSIONALEXPONENTS(0,0,0,0,0,0,0);
#486=IFCMEASUREWITHUNIT(IFCPLANEANGLEMEASURE(0.017453292519943278),#484);
#487=IFCCONVERSIONBASEDUNIT(#485,.PLANEANGLEUNIT.,'DEGREE',#486);
#488=IFCCARTESIANPOINT((6.3500000000101293,-6.3500000000239698));
#489=IFCCARTESIANPOINT((561.89999999998668,-6.3500000000239698));
#490=IFCCARTESIANPOINT((561.89999999998668,6.3499999999742931));
#491=IFCCARTESIANPOINT((6.3500000000122272,6.3499999999742931));
#492=IFCCARTESIANPOINT((6.3500000000122272,411.90000000000475));
#493=IFCCARTESIANPOINT((-6.3499999999869834,411.90000000000475));
#494=IFCCARTESIANPOINT((-6.3499999999869834,6.349999999982753));
#495=IFCCARTESIANPOINT((-561.90000000003158,6.349999999982753));
#496=IFCCARTESIANPOINT((-561.90000000003158,-6.3500000000188939));
#497=IFCCARTESIANPOINT((-6.3499999999903673,-6.3500000000188939));
#498=IFCCARTESIANPOINT((-6.3499999999903673,-411.89999999991898));
#499=IFCCARTESIANPOINT((6.3500000000101293,-411.89999999991898));
#500=IFCPOLYLINE((#488,#489,#490,#491,#492,#493,#494,#495,#496,#497,#498,#499,#488));
#501=IFCARBITRARYCLOSEDPROFILEDEF(.AREA.,'M_Muntin Pattern_2x2',#500);
#502=IFCCARTESIANPOINT((0.,9.5250000000181636,561.90000000002954));
#503=IFCAXIS2PLACEMENT3D(#502,#7,#9);
#504=IFCEXTRUDEDAREASOLID(#501,#503,#9,12.699999999996066);
#505=IFCCOLOURRGB($,0.96078431372549022,0.96078431372549022,0.95294117647058818);
#506=IFCSURFACESTYLERENDERING(#505,0.,$,$,$,$,IFCNORMALISEDRATIOMEASURE(0.5),IFCSPECULAREXPONENT(128.),.NOTDEFINED.);
#507=IFCSURFACESTYLE('Clad - White',.BOTH.,(#506));
#508=IFCSTYLEDITEM(#483,(#507),$);
#509=IFCSTYLEDITEM(#504,(#391),$);
#510=IFCSHAPEREPRESENTATION(#24,'Body','SweptSolid',(#483,#504));
#511=IFCAXIS2PLACEMENT3D(#3,$,$);
#512=IFCREPRESENTATIONMAP(#511,#510);
#513=IFCBUILDINGELEMENTPROXYTYPE('0HbU4cYqD2SBtSJYoQ_e$r',#18,'M_Muntin Pattern_2x2:M_Muntin Pattern_2x2',$,$,$,(#512),'1514602',$,.NOTDEFINED.);
#514=IFCMATERIAL('Clad - White',$,'Wood');
#515=IFCCOLOURRGB($,0.,0.,0.);
#516=IFCDRAUGHTINGPREDEFINEDCURVEFONT('continuous');
#517=IFCCURVESTYLE($,#516,$,#515,$);
#518=IFCFILLAREASTYLEHATCHING(#517,IFCPOSITIVELENGTHMEASURE(229.99999999999997),$,#4,45.);
#519=IFCFILLAREASTYLE('Wood - Finish',(#518),$);
#520=IFCSTYLEDITEM($,(#507,#519),$);
#521=IFCSTYLEDREPRESENTATION(#22,'Style','Material and Cut Pattern',(#520));
#522=IFCMATERIALDEFINITIONREPRESENTATION($,$,(#521),#514);
#523=IFCMATERIALCONSTITUENT('Clad - White',$,#514,$,'Wood');
#524=IFCSHAPEREPRESENTATION(#24,'Body','SweptSolid',(#483));
#525=IFCSHAPEASPECT((#524),'Clad - White',$,.U.,#512);
#526=IFCMATERIALCONSTITUENT('Wood - Stained',$,#413,$,'Wood');
#527=IFCSHAPEREPRESENTATION(#24,'Body','SweptSolid',(#504));
#528=IFCSHAPEASPECT((#527),'Wood - Stained',$,.U.,#512);
#529=IFCMATERIALCONSTITUENTSET($,$,(#523,#526));
#530=IFCMAPPEDITEM(#512,#445);
#531=IFCSHAPEREPRESENTATION(#24,'Body','MappedRepresentation',(#530));
#532=IFCPRODUCTDEFINITIONSHAPE($,$,(#531));
#533=IFCCARTESIANPOINT((5240.4750000000067,1150.,938.10000000003629));
#534=IFCAXIS2PLACEMENT3D(#533,#9,#7);
#535=IFCLOCALPLACEMENT(#34,#534);
#536=IFCBUILDINGELEMENTPROXY('0HbU4cYqD2SBtSJYoQ_eW2',#18,'M_Muntin Pattern_2x2:M_Muntin Pattern_2x2:1602519',$,'M_Muntin Pattern_2x2:M_Muntin Pattern_2x2',#535,#532,'1602519',.NOTDEFINED.);
#537=IFCMATERIALCONSTITUENT('Clad - White',$,#514,$,'Wood');
#538=IFCMATERIALCONSTITUENT('Wood - Stained',$,#413,$,'Wood');
#539=IFCMATERIALCONSTITUENTSET($,$,(#537,#538));
#540=IFCPROPERTYSINGLEVALUE('Reference',$,IFCIDENTIFIER('M_Muntin Pattern_2x2'),$);
#541=IFCPROPERTYSET('2JpnnJWV7GjANPvE1DoNe3',#18,'Pset_BuildingElementProxyCommon',$,(#45,#540));
#542=IFCPROPERTYSET('0cY0tH2N$2_NbBGqofq$NN',#18,'Pset_EnvironmentalImpactIndicators',$,(#540));
#543=IFCRELDEFINESBYPROPERTIES('0QCdH0LfRlWRUKzJUESqmC',#18,$,$,(#536),#541);
#544=IFCRELDEFINESBYPROPERTIES('1sCImv3$LbO$PbxOtnPz40',#18,$,$,(#536),#542);
#545=IFCAXIS2PLACEMENT3D(#3,$,$);
#547=IFCCARTESIANPOINT((-2.8421709430404007E-14,1.3677947663381929E-13));
#548=IFCAXIS2PLACEMENT2D(#547,#11);
#549=IFCRECTANGLEPROFILEDEF(.AREA.,'with Sill',#548,1019.9999999999987,60.000000000000171);
#550=IFCCARTESIANPOINT((0.,-1250.4323708847257,0.));
#551=IFCAXIS2PLACEMENT3D(#550,#9,#6);
#552=IFCEXTRUDEDAREASOLID(#549,#551,#9,19.049999999999997);
#553=IFCCARTESIANPOINT((-19.049999999992426,-15.239599102063611));
#554=IFCCARTESIANPOINT((0.,-15.239599102063611));
#555=IFCCARTESIANPOINT((0.,-5.6719699867785121));
#556=IFCCARTESIANPOINT((19.049999999971075,-5.6719699867785121));
#557=IFCCARTESIANPOINT((19.049999999971075,14.760400897936744));
#558=IFCCARTESIANPOINT((0.,14.760400897936744));
#559=IFCCARTESIANPOINT((-19.049999999992423,12.302336381811029));
#560=IFCPOLYLINE((#553,#554,#555,#556,#557,#558,#559,#553));
#561=IFCARBITRARYCLOSEDPROFILEDEF(.AREA.,'with Sill',#560);
#562=IFCCARTESIANPOINT((-522.69999999999288,-1214.7604008979431,19.049999999974577));
#563=IFCAXIS2PLACEMENT3D(#562,#5,#10);
#564=IFCEXTRUDEDAREASOLID(#561,#563,#9,1045.4000000000067);
#565=IFCCARTESIANPOINT((-645.,-510.));
#566=IFCCARTESIANPOINT((615.,-510.));
#567=IFCCARTESIANPOINT((615.,-450.));
#568=IFCCARTESIANPOINT((-585.,-450.));
#569=IFCCARTESIANPOINT((-585.,450.));
#570=IFCCARTESIANPOINT((615.,450.));
#571=IFCCARTESIANPOINT((615.,510.));
#572=IFCCARTESIANPOINT((-645.,510.));
#573=IFCPOLYLINE((#565,#566,#567,#568,#569,#570,#571,#572,#565));
#574=IFCARBITRARYCLOSEDPROFILEDEF(.AREA.,'with Sill',#573);
#575=IFCCARTESIANPOINT((0.,-585.,0.));
#576=IFCAXIS2PLACEMENT3D(#575,#9,#8);
#577=IFCEXTRUDEDAREASOLID(#574,#576,#9,19.049999999999997);
#578=IFCSTYLEDITEM(#552,(#507),$);
#579=IFCSTYLEDITEM(#564,(#507),$);
#580=IFCSTYLEDITEM(#577,(#507),$);
#581=IFCSHAPEREPRESENTATION(#24,'Body','SweptSolid',(#552,#564,#577));
#582=IFCAXIS2PLACEMENT3D(#3,$,$);
#583=IFCREPRESENTATIONMAP(#582,#581);
#584=IFCBUILDINGELEMENTPROXYTYPE('0HbU4cYqD2SBtSJYoQ_e$q',#18,'M_Trim-Window-Exterior-Flat:with Sill',$,$,$,(#583),'1514612',$,.NOTDEFINED.);
#585=IFCMAPPEDITEM(#583,#445);
#586=IFCSHAPEREPRESENTATION(#24,'Body','MappedRepresentation',(#585));
#587=IFCPRODUCTDEFINITIONSHAPE($,$,(#586));
#588=IFCCARTESIANPOINT((5250.,1150.,2100.));
#589=IFCAXIS2PLACEMENT3D(#588,#5,#7);
#590=IFCLOCALPLACEMENT(#34,#589);
#591=IFCBUILDINGELEMENTPROXY('0HbU4cYqD2SBtSJYoQ_eWD',#18,'M_Trim-Window-Exterior-Flat:with Sill:1602520',$,'M_Trim-Window-Exterior-Flat:with Sill',#590,#587,'1602520',.NOTDEFINED.);
#592=IFCPROPERTYSINGLEVALUE('Reference',$,IFCIDENTIFIER('with Sill'),$);
#593=IFCPROPERTYSET('0444bc3l0FkktQrysIIF9X',#18,'Pset_BuildingElementProxyCommon',$,(#45,#592));
#594=IFCPROPERTYSET('0f_LgmI8CnlroTfpCifXcN',#18,'Pset_EnvironmentalImpactIndicators',$,(#592));
#595=IFCRELDEFINESBYPROPERTIES('2NwqKA9$yGMyK0hRDUEkGy',#18,$,$,(#591),#593);
#596=IFCRELDEFINESBYPROPERTIES('1eL0di1bV7$2beRiEm7H4e',#18,$,$,(#591),#594);
#597=IFCAXIS2PLACEMENT3D(#3,$,$);
#599=IFCCARTESIANPOINT((-497.29999999999859,-647.29999999999416));
#600=IFCCARTESIANPOINT((497.29999999999859,-647.29999999999416));
#601=IFCCARTESIANPOINT((497.29999999999848,647.29999999999416));
#602=IFCCARTESIANPOINT((-497.29999999999859,647.29999999999416));
#603=IFCPOLYLINE((#599,#600,#601,#602,#599));
#604=IFCCARTESIANPOINT((-437.30000000000183,-587.29999999999188));
#605=IFCCARTESIANPOINT((-437.30000000000183,587.29999999999154));
#606=IFCCARTESIANPOINT((437.29999999999779,587.29999999999154));
#607=IFCCARTESIANPOINT((437.29999999999779,-587.29999999999188));
#608=IFCPOLYLINE((#604,#605,#606,#607,#604));
#609=IFCARBITRARYPROFILEDEFWITHVOIDS(.AREA.,'Picture Frame',#603,(#608));
#610=IFCCARTESIANPOINT((0.,-600.,0.));
#611=IFCAXIS2PLACEMENT3D(#610,#9,#6);
#612=IFCEXTRUDEDAREASOLID(#609,#611,#9,30.);
#613=IFCSTYLEDITEM(#612,(#391),$);
#614=IFCSHAPEREPRESENTATION(#24,'Body','SweptSolid',(#612));
#615=IFCAXIS2PLACEMENT3D(#3,$,$);
#616=IFCREPRESENTATIONMAP(#615,#614);
#617=IFCBUILDINGELEMENTPROXYTYPE('0HbU4cYqD2SBtSJYoQ_e$t',#18,'M_Trim-Window-Interior-Flat:Picture Frame',$,$,$,(#616),'1514622',$,.NOTDEFINED.);
#618=IFCMAPPEDITEM(#616,#445);
#619=IFCSHAPEREPRESENTATION(#24,'Body','MappedRepresentation',(#618));
#620=IFCPRODUCTDEFINITIONSHAPE($,$,(#619));
#621=IFCCARTESIANPOINT((5050.,1150.,2100.));
#622=IFCAXIS2PLACEMENT3D(#621,#6,#8);
#623=IFCLOCALPLACEMENT(#34,#622);
#624=IFCBUILDINGELEMENTPROXY('0HbU4cYqD2SBtSJYoQ_eWC',#18,'M_Trim-Window-Interior-Flat:Picture Frame:1602521',$,'M_Trim-Window-Interior-Flat:Picture Frame',#623,#620,'1602521',.NOTDEFINED.);
#625=IFCPROPERTYSINGLEVALUE('Reference',$,IFCIDENTIFIER('Picture Frame'),$);
#626=IFCPROPERTYSET('349KdPrw1gMpEx_DVPlstt',#18,'Pset_BuildingElementProxyCommon',$,(#45,#625));
#627=IFCPROPERTYSET('20A0SkJSRk0S2WArqQfvaO',#18,'Pset_EnvironmentalImpactIndicators',$,(#625));
#628=IFCRELDEFINESBYPROPERTIES('2M1PfG0Ej79heANtqLAeE1',#18,$,$,(#624),#626);
#629=IFCRELDEFINESBYPROPERTIES('3kZ6uobqVFCO0lmiqz0vPW',#18,$,$,(#624),#627);
#630=IFCMAPPEDITEM(#410,#445);
#631=IFCSHAPEREPRESENTATION(#24,'Body','MappedRepresentation',(#630));
#632=IFCPRODUCTDEFINITIONSHAPE($,$,(#631));
#633=IFCCARTESIANPOINT((5050.,3000.,900.));
#634=IFCAXIS2PLACEMENT3D(#633,#9,#8);
#636=IFCWINDOW('0HbU4cYqD2SBtSJYoQ_e_d',#18,'M_Window-Fixed:900 x 1200mm:1602674',$,'M_Window-Fixed:900 x 1200mm',#757,#632,'1602674',1200.0000000000036,899.99999999999955,.WINDOW.,.NOTDEFINED.,$);
#637=IFCMATERIALCONSTITUENT('Wood - Stained',$,#413,$,'Wood');
#638=IFCMATERIALCONSTITUENT('Glass',$,#434,$,'Glass');
#639=IFCMATERIALCONSTITUENTSET($,$,(#637,#638));
#640=IFCPROPERTYSET('3j9na$tCqv4tZZsI7I4nEA',#18,'Pset_EnvironmentalImpactIndicators',$,(#456));
#641=IFCPROPERTYSINGLEVALUE('FireRating',$,IFCLABEL('0.5h'),$);
#642=IFCPROPERTYSET('2ews2bsAk$iACkRp5CGDGS',#18,'Pset_WindowCommon',$,(#85,#456,#641));
#643=IFCRELDEFINESBYPROPERTIES('2wqyyH$MKCaEnr0co4OFWS',#18,$,$,(#636),#640);
#644=IFCRELDEFINESBYPROPERTIES('0pNvhtbfjPgL$sI1mInQvn',#18,$,$,(#636),#642);
#645=IFCMAPPEDITEM(#512,#445);
#646=IFCSHAPEREPRESENTATION(#24,'Body','MappedRepresentation',(#645));
#647=IFCPRODUCTDEFINITIONSHAPE($,$,(#646));
#648=IFCCARTESIANPOINT((5240.4750000000085,2550.,938.10000000003629));
#649=IFCAXIS2PLACEMENT3D(#648,#9,#7);
#650=IFCLOCALPLACEMENT(#34,#649);
#651=IFCBUILDINGELEMENTPROXY('0HbU4cYqD2SBtSJYoQ_e_c',#18,'M_Muntin Pattern_2x2:M_Muntin Pattern_2x2:1602675',$,'M_Muntin Pattern_2x2:M_Muntin Pattern_2x2',#650,#647,'1602675',.NOTDEFINED.);
#652=IFCMATERIALCONSTITUENT('Clad - White',$,#514,$,'Wood');
#653=IFCMATERIALCONSTITUENT('Wood - Stained',$,#413,$,'Wood');
#654=IFCMATERIALCONSTITUENTSET($,$,(#652,#653));
#655=IFCPROPERTYSET('2Dc7T419p3DTukuPyVVLwF',#18,'Pset_BuildingElementProxyCommon',$,(#45,#540));
#656=IFCPROPERTYSET('2GcK18RfnfeBMEjOMSOQy4',#18,'Pset_EnvironmentalImpactIndicators',$,(#540));
#657=IFCRELDEFINESBYPROPERTIES('2dja3BJhowxGytyxoZMNm3',#18,$,$,(#651),#655);
#658=IFCRELDEFINESBYPROPERTIES('32WL2AiOuDL1_sc8TE2uVW',#18,$,$,(#651),#656);
#659=IFCMAPPEDITEM(#583,#445);
#660=IFCSHAPEREPRESENTATION(#24,'Body','MappedRepresentation',(#659));
#661=IFCPRODUCTDEFINITIONSHAPE($,$,(#660));
#662=IFCCARTESIANPOINT((5250.,2550.,2100.));
#663=IFCAXIS2PLACEMENT3D(#662,#5,#7);
#664=IFCLOCALPLACEMENT(#34,#663);
#665=IFCBUILDINGELEMENTPROXY('0HbU4cYqD2SBtSJYoQ_e_X',#18,'M_Trim-Window-Exterior-Flat:with Sill:1602676',$,'M_Trim-Window-Exterior-Flat:with Sill',#664,#661,'1602676',.NOTDEFINED.);
#666=IFCPROPERTYSET('02Crep7a53PtpOZKm24Ym$',#18,'Pset_BuildingElementProxyCommon',$,(#45,#592));
#667=IFCPROPERTYSET('05y4f$xcxRSV0agVkfL4xz',#18,'Pset_EnvironmentalImpactIndicators',$,(#592));
#668=IFCRELDEFINESBYPROPERTIES('3dD5GZYRmhUJgVMVNOppOO',#18,$,$,(#665),#666);
#669=IFCRELDEFINESBYPROPERTIES('2X8xRVXJbaaboCSqFER806',#18,$,$,(#665),#667);
#670=IFCMAPPEDITEM(#616,#445);
#671=IFCSHAPEREPRESENTATION(#24,'Body','MappedRepresentation',(#670));
#672=IFCPRODUCTDEFINITIONSHAPE($,$,(#671));
#673=IFCCARTESIANPOINT((5050.,2550.,2100.));
#674=IFCAXIS2PLACEMENT3D(#673,#6,#8);
#675=IFCLOCALPLACEMENT(#34,#674);
#676=IFCBUILDINGELEMENTPROXY('0HbU4cYqD2SBtSJYoQ_e_W',#18,'M_Trim-Window-Interior-Flat:Picture Frame:1602677',$,'M_Trim-Window-Interior-Flat:Picture Frame',#675,#672,'1602677',.NOTDEFINED.);
#677=IFCPROPERTYSET('1kpScNGBu7CpC4UG4EMG7j',#18,'Pset_BuildingElementProxyCommon',$,(#45,#625));
#678=IFCPROPERTYSET('02cCvB9l0INs0Y7L6DTLXz',#18,'Pset_EnvironmentalImpactIndicators',$,(#625));
#679=IFCRELDEFINESBYPROPERTIES('0oytENewhoU5G91MSDurFA',#18,$,$,(#676),#677);
#680=IFCRELDEFINESBYPROPERTIES('1JoH2qH0PhQtm6HTzhYpEU',#18,$,$,(#676),#678);
#681=IFCPROPERTYSINGLEVALUE('Reference',$,IFCIDENTIFIER('8mm Head'),$);
#682=IFCPROPERTYSINGLEVALUE('AboveGround',$,IFCLOGICAL(.U.),$);
#683=IFCPROPERTYSET('16L50AfyZF4hYq5TGET4H4',#18,'Pset_BuildingStoreyCommon',$,(#681,#682));
#684=IFCPROPERTYSET('2J7ac_h5ujdwWuzVwBIIta',#18,'Pset_SpaceCommon',$,(#45,#681));
#685=IFCRELDEFINESBYPROPERTIES('2VdfSfkgzGoZi_3SgzE8$0',#18,$,$,(#35),#683);
#686=IFCRELDEFINESBYPROPERTIES('3$YdOpA8iaPobC8MDiWxoI',#18,$,$,(#35),#684);
#687=IFCRELCONTAINEDINSPATIALSTRUCTURE('2JF4e6axWHqu3u0C5FZlmi',#18,$,$,(#73,#109,#131,#153,#452,#536,#591,#624,#636,#651,#665,#676),#35);
#688=IFCPROPERTYSET('1n34enW33Z_3Qq2Pm1kjQZ',#18,'Pset_BuildingStoreyCommon',$,(#681,#682));
#689=IFCPROPERTYSET('0qNc4$IaPwTvoqOd7IlIE4',#18,'Pset_SpaceCommon',$,(#45,#681));
#690=IFCRELDEFINESBYPROPERTIES('36oM8gyLQ5_Z6XoGK5uP1E',#18,$,$,(#39),#688);
#691=IFCRELDEFINESBYPROPERTIES('0jA6Vdz$3CfPvu_I1iTL6J',#18,$,$,(#39),#689);
#692=IFCRELAGGREGATES('2KFB6YYWgXBmucZ8cm7uCP',#18,$,$,#27,(#42));
#693=IFCRELAGGREGATES('16_hfJTeCqU7LcG8m10BTS',#18,$,$,#42,(#32));
#694=IFCRELAGGREGATES('1yhDISh1T5aQqAoygxGIhP',#18,$,$,#32,(#35,#39));
#695=IFCPROPERTYSINGLEVALUE('NumberOfStoreys',$,IFCCOUNTMEASURE(1),$);
#696=IFCPROPERTYSINGLEVALUE('IsLandmarked',$,IFCLOGICAL(.U.),$);
#697=IFCPROPERTYSET('01y_GmllCupEYuBgfGbhkd',#18,'Pset_BuildingCommon',$,(#43,#695,#696));
#698=IFCPROPERTYSET('1rUR7OGyIAkZT62xvibLnd',#18,'Pset_BuildingElementProxyCommon',$,(#43,#45));
#699=IFCPROPERTYSET('2kFDjjfIaTsBi7MLK$i$Me',#18,'Pset_BuildingStoreyCommon',$,(#43,#682));
#700=IFCPROPERTYSET('1TYvb3FgH88mtl04iE5P1T',#18,'Pset_BuildingSystemCommon',$,(#43));
#701=IFCPROPERTYSET('2W94HCj5xfigmNGtkBMklk',#18,'Pset_SpaceCommon',$,(#43,#45));
#702=IFCRELDEFINESBYPROPERTIES('0vDjba2fshDEh0_KufwWht',#18,$,$,(#32),#697);
#703=IFCRELDEFINESBYPROPERTIES('1V6UQfELB4oPy3GPEaJMPw',#18,$,$,(#32),#698);
#704=IFCRELDEFINESBYPROPERTIES('0Vpd75HttOMIhzXutBGgCt',#18,$,$,(#32),#699);
#705=IFCRELDEFINESBYPROPERTIES('22VMRBFW9n6_S81yWIP225',#18,$,$,(#32),#700);
#706=IFCRELDEFINESBYPROPERTIES('2w3bzVlKnfBVjA3_BjG2II',#18,$,$,(#32),#701);
#707=IFCRELASSOCIATESMATERIAL('33TRedyykklRQeXKbk1u1a',#18,$,$,(#412),#444);
#708=IFCRELASSOCIATESMATERIAL('1WPOZWH1XSCQrVO9wE9icr',#18,$,$,(#452),#455);
#709=IFCRELASSOCIATESMATERIAL('0hzXmjXO8XV75cTSUvJkvG',#18,$,$,(#513),#529);
#710=IFCRELASSOCIATESMATERIAL('38pjqkzSIYWXiSYXciHrmw',#18,$,$,(#536),#539);
#711=IFCRELASSOCIATESMATERIAL('3kLXbWAf5QLkfNgfHxEzqL',#18,$,$,(#636),#639);
#712=IFCRELASSOCIATESMATERIAL('2PjFWpoMYxTX9OdSBnVP9Y',#18,$,$,(#651),#654);
#713=IFCRELASSOCIATESMATERIAL('22T9r9KB1F3JFgePfxkUGp',#18,$,$,(#73,#80,#109,#131,#153),#79);
#714=IFCRELASSOCIATESMATERIAL('29Bp5OMMJjHNegq23Z6wnS',#18,$,$,(#617,#624,#676),#413);
#715=IFCRELASSOCIATESMATERIAL('0a20Dxgm9PgIzatkOj_0xF',#18,$,$,(#584,#591,#665),#514);
#716=IFCRELDEFINESBYTYPE('0MSq_ijuC5q4PUKv4QkOsA',#18,$,$,(#73,#109,#131,#153),#80);
#717=IFCRELDEFINESBYTYPE('1mf6JIa9g1hHclQnWDSJTa',#18,$,$,(#452,#636),#412);
#718=IFCRELDEFINESBYTYPE('3P6nW6$2Yjph$6_4lEsslt',#18,$,$,(#536,#651),#513);
#719=IFCRELDEFINESBYTYPE('0g43VBpUGW7k2nsVvd_LOZ',#18,$,$,(#591,#665),#584);
#720=IFCRELDEFINESBYTYPE('2X$7dfgplsQC$a4avtbCSi',#18,$,$,(#624,#676),#617);
#721=IFCRELCONNECTSPATHELEMENTS('21DgII86YleiGtrnIW5I7A',#18,'0HbU4cYqD2SBtSJYoQ_eZD|0HbU4cYqD2SBtSJYoQ_eXy','Structural',$,#73,#153,(),(),.ATEND.,.ATSTART.);
#722=IFCRELCONNECTSPATHELEMENTS('0oIhHPd0xyKsC9iMLvoyZJ',#18,'0HbU4cYqD2SBtSJYoQ_eZD|0HbU4cYqD2SBtSJYoQ_eY6','Structural',$,#73,#109,(),(),.ATSTART.,.ATEND.);
#723=IFCRELCONNECTSPATHELEMENTS('0WfDP57n3_v0LqkqE4euit',#18,'0HbU4cYqD2SBtSJYoQ_eY6|0HbU4cYqD2SBtSJYoQ_eXK','Structural',$,#109,#131,(),(),.ATSTART.,.ATEND.);
#724=IFCRELCONNECTSPATHELEMENTS('3qRX8ketnJeROnCtEd5c6Q',#18,'0HbU4cYqD2SBtSJYoQ_eXK|0HbU4cYqD2SBtSJYoQ_eXy','Structural',$,#131,#153,(),(),.ATSTART.,.ATEND.);
#725=IFCPRESENTATIONLAYERASSIGNMENT('A-WALL-____-OTLN',$,(#60,#71,#100,#107,#122,#129,#144,#151),$);
#726=IFCPRESENTATIONLAYERASSIGNMENT('A-GLAZ-____-OTLN',$,(#408,#439,#442,#447,#631),$);
#727=IFCPRESENTATIONLAYERASSIGNMENT('A-GENM-____-OTLN',$,(#510,#524,#527,#531,#581,#586,#614,#619,#646,#660,#671),$);
#728=IFCCARTESIANPOINT((600.00000000000182,449.99999999999983));
#729=IFCAXIS2PLACEMENT2D(#728,#12);
#730=IFCRECTANGLEPROFILEDEF(.AREA.,$,#729,1200.0000000000036,899.99999999999966);
#731=IFCAXIS2PLACEMENT3D(#3,#7,#9);
#732=IFCEXTRUDEDAREASOLID(#730,#731,#9,200.);
#733=IFCSHAPEREPRESENTATION(#24,'Body','SweptSolid',(#732));
#734=IFCPRODUCTDEFINITIONSHAPE($,$,(#733));
#735=IFCCARTESIANPOINT((2700.,-100.,900.));
#736=IFCAXIS2PLACEMENT3D(#735,$,$);
#737=IFCLOCALPLACEMENT(#119,#736);
#738=IFCOPENINGELEMENT('20j92qBts3O4RCVgXHhWzj',#18,'M_Window-Fixed:900 x 1200mm:1602516:1',$,$,#737,#734,'1602516',.OPENING.);
#739=IFCRELVOIDSELEMENT('0HbU4cYqD2SBtSJZYQ_eW1',#18,$,$,#131,#738);
#740=IFCRELFILLSELEMENT('3U8tHK1LgPCGIQo7Jnb0Cl',#18,$,$,#738,#452);
#741=IFCAXIS2PLACEMENT3D(#3,$,$);
#742=IFCLOCALPLACEMENT(#737,#741);
#743=IFCCARTESIANPOINT((600.00000000000182,449.99999999999983));
#744=IFCAXIS2PLACEMENT2D(#743,#12);
#745=IFCRECTANGLEPROFILEDEF(.AREA.,$,#744,1200.0000000000036,899.99999999999966);
#746=IFCAXIS2PLACEMENT3D(#3,#7,#9);
#747=IFCEXTRUDEDAREASOLID(#745,#746,#9,200.);
#748=IFCSHAPEREPRESENTATION(#24,'Body','SweptSolid',(#747));
#749=IFCPRODUCTDEFINITIONSHAPE($,$,(#748));
#750=IFCCARTESIANPOINT((1300.,-100.,900.));
#751=IFCAXIS2PLACEMENT3D(#750,$,$);
#752=IFCLOCALPLACEMENT(#119,#751);
#753=IFCOPENINGELEMENT('2jXz39b5R3FlZ2d_lwjyAy',#18,'M_Window-Fixed:900 x 1200mm:1602674:1',$,$,#752,#749,'1602674',.OPENING.);
#754=IFCRELVOIDSELEMENT('0HbU4cYqD2SBtSJZYQ_e_d',#18,$,$,#131,#753);
#755=IFCRELFILLSELEMENT('0csQHwIHeHBgH0Mhccsl3I',#18,$,$,#753,#636);
#756=IFCAXIS2PLACEMENT3D(#3,$,$);
#757=IFCLOCALPLACEMENT(#752,#756);
#758=IFCRELASSOCIATESCLASSIFICATION('328bOfV0pFOiBw2WZ83ohz',#18,'Exterior Walls','Exterior Walls:B2010',(#73,#109,#131,#153),#92);
#759=IFCRELASSOCIATESCLASSIFICATION('0htd2WLSkQoqylrnqesx4n',#18,'Windows','Windows:B2020100',(#452,#636),#462);
#760=IFCUNITASSIGNMENT((#19,#61,#487));
ENDSEC;

END-ISO-10303-21;