ISO-10303-21;
HEADER;
FILE_DESCRIPTION(('ViewDefinition [CoordinationView]','RevitIdentifiers [ContentGUID: cbb0ae2e-6350-4225-8ca4-af668662c38d, VersionGUID: 791b7833-bcf7-4218-883a-418f422f3847, NumberOfSaves: 40]','CoordinateReference [CoordinateBase: Shared Coordinates]'),'2;1');
FILE_NAME('01_03_014.ifc','2026-01-13T10:08:25+01:00',(''),(''),'ODA SDAI 24.6','Autodesk Revit 24.3.30.11 (ENU) - IFC 24.3.30.11','');
FILE_SCHEMA(('IFC4X3'));
ENDSEC;

DATA;
#1=IFCORGANIZATION($,'Autodesk Revit 2024 (ENU)',$,$,$);
#2=IFCAPPLICATION(#1,'2024','Autodesk Revit 2024 (ENU)','Revit');
#3=IFCCARTESIANPOINT((0.,0.,0.));
#4=IFCCARTESIANPOINT((0.,0.));
#5=IFCDIRECTION((1.,0.,0.));
#6=IFCDIRECTION((-1.,0.,0.));
#7=IFCDIRECTION((0.,1.,0.));
#8=IFCDIRECTION((0.,-1.,0.));
#9=IFCDIRECTION((0.,0.,1.));
#10=IFCDIRECTION((0.,0.,-1.));
#11=IFCDIRECTION((1.,0.));
#12=IFCDIRECTION((-1.,0.));
#13=IFCDIRECTION((0.,1.));
#14=IFCDIRECTION((0.,-1.));
#15=IFCPERSON($,'','h.helming',$,$,$,$,$);
#16=IFCORGANIZATION($,'Organization Name','Organization Description',$,$);
#17=IFCPERSONANDORGANIZATION(#15,#16,$);
#18=IFCOWNERHISTORY(#17,#2,$,.NOCHANGE.,$,$,$,1767812309);
#19=IFCSIUNIT(*,.LENGTHUNIT.,.MILLI.,.METRE.);
#20=IFCAXIS2PLACEMENT3D(#3,$,$);
#21=IFCDIRECTION((6.1230317691118863E-17,1.));
#22=IFCGEOMETRICREPRESENTATIONCONTEXT($,'Model',3,0.01,#20,#21);
#23=IFCGEOMETRICREPRESENTATIONSUBCONTEXT('Axis','Model',*,*,*,*,#22,$,.GRAPH_VIEW.,$);
#24=IFCGEOMETRICREPRESENTATIONSUBCONTEXT('Body','Model',*,*,*,*,#22,$,.MODEL_VIEW.,$);
#25=IFCGEOMETRICREPRESENTATIONSUBCONTEXT('Box','Model',*,*,*,*,#22,$,.MODEL_VIEW.,$);
#26=IFCGEOMETRICREPRESENTATIONSUBCONTEXT('FootPrint','Model',*,*,*,*,#22,$,.MODEL_VIEW.,$);
#27=IFCPROJECT('3BiAukOr129OoahsPvdJnz',#18,'Project Number',$,$,'Project Name','Project Status',(#22),#507);
#28=IFCCLASSIFICATION('CSI (Construction Specifications Institute)','1998',$,'Uniformat','UniFormat Classification','https://www.csiresources.org/standards/uniformat',$);
#29=IFCAXIS2PLACEMENT3D(#3,$,$);
#30=IFCLOCALPLACEMENT(#41,#29);
#31=IFCPOSTALADDRESS($,$,$,$,('Enter address hereAddress Line 2'),$,'','Boston','','MA');
#32=IFCBUILDING('3BiAukOr129OoahsPvdJny',#18,'Building Name',$,$,#30,$,'Building Name',.ELEMENT.,$,$,#31);
#33=IFCAXIS2PLACEMENT3D(#3,$,$);
#34=IFCLOCALPLACEMENT(#30,#33);
#35=IFCBUILDINGSTOREY('2JF4e6axWHqu3u0C1FZlmi',#18,'L1',$,'Level:8mm Head',#34,$,'L1',.ELEMENT.,0.);
#36=IFCCARTESIANPOINT((0.,0.,3000.));
#37=IFCAXIS2PLACEMENT3D(#36,$,$);
#38=IFCLOCALPLACEMENT(#30,#37);
#39=IFCBUILDINGSTOREY('1ZGO8hrFCHqw0v0026FpFv',#18,'L2',$,'Level:8mm Head',#38,$,'L2',.ELEMENT.,3000.);
#40=IFCAXIS2PLACEMENT3D(#3,$,$);
#41=IFCLOCALPLACEMENT($,#40);
#42=IFCSITE('3BiAukOr129OoahsPvdJn$',#18,'Default',$,$,#41,$,$,.ELEMENT.,(42,21,31,401672),(-71,-3,-24,-345703),0.,$,$);
#43=IFCPROPERTYSINGLEVALUE('Reference',$,IFCIDENTIFIER('Project Information'),$);
#44=IFCPROPERTYSET('2mFJcO6I01h0OYRLOICO3c',#18,'Pset_SiteCommon',$,(#43));
#45=IFCPROPERTYSINGLEVALUE('IsExternal',$,IFCBOOLEAN(.F.),$);
#46=IFCPROPERTYSET('0O$B2PbAODr9jYnpcaZGJT',#18,'Pset_SpaceCommon',$,(#43,#45));
#47=IFCRELDEFINESBYPROPERTIES('2fDrcjst0HFayqQ3dY1cGQ',#18,$,$,(#42),#44);
#48=IFCRELDEFINESBYPROPERTIES('1lYkP70lXSGXnZeJnLC8MY',#18,$,$,(#42),#46);
#55=IFCCARTESIANPOINT((100.,0.,0.));
#56=IFCAXIS2PLACEMENT3D(#55,#9,#7);
#57=IFCLOCALPLACEMENT(#34,#56);
#58=IFCCARTESIANPOINT((6500.,-0.));
#59=IFCPOLYLINE((#4,#58));
#60=IFCSHAPEREPRESENTATION(#23,'Axis','Curve2D',(#59));
#61=IFCSIUNIT(*,.AREAUNIT.,$,.SQUARE_METRE.);
#62=IFCCARTESIANPOINT((3250.0000000000018,1.4210854715202004E-14));
#63=IFCAXIS2PLACEMENT2D(#62,#12);
#64=IFCRECTANGLEPROFILEDEF(.AREA.,$,#63,6500.0000000000036,200.);
#65=IFCAXIS2PLACEMENT3D(#3,$,$);
#66=IFCEXTRUDEDAREASOLID(#64,#65,#9,2700.);
#67=IFCCARTESIANPOINT((200.,-0.));
#68=IFCCARTESIANPOINT((6300.,0.));
#69=IFCCARTESIANPOINT((6500.,0.));
#70=IFCCARTESIANPOINT((6500.,200.));
#71=IFCCARTESIANPOINT((0.,200.));
#72=IFCPOLYLINE((#4,#67,#68,#69,#70,#71,#4));
#73=IFCCARTESIANPOINT((-0.,-100.,2700.));
#74=IFCAXIS2PLACEMENT3D(#73,#10,#8);
#75=IFCPLANE(#74);
#76=IFCCARTESIANPOINT((-0.,-100.,2700.));
#77=IFCAXIS2PLACEMENT3D(#76,$,$);
#78=IFCPOLYGONALBOUNDEDHALFSPACE(#75,.T.,#77,#72);
#79=IFCBOOLEANCLIPPINGRESULT(.DIFFERENCE.,#66,#78);
#80=IFCCOLOURRGB($,0.75294117647058822,0.75294117647058822,0.75294117647058822);
#81=IFCSURFACESTYLERENDERING(#80,0.,$,$,$,$,IFCNORMALISEDRATIOMEASURE(0.5),IFCSPECULAREXPONENT(10.),.NOTDEFINED.);
#82=IFCSURFACESTYLE('Default Wall',.BOTH.,(#81));
#83=IFCSTYLEDITEM(#66,(#82),$);
#84=IFCSHAPEREPRESENTATION(#24,'Body','Clipping',(#79));
#85=IFCPRODUCTDEFINITIONSHAPE($,$,(#60,#84));
#86=IFCWALL('1YYXjRkjn7ywhxb576N3eK',#18,'Basic Wall:Generic - 200mm:1602385',$,'Basic Wall:Generic - 200mm',#57,#85,'1602385',.NOTDEFINED.);
#87=IFCMATERIAL('Default Wall',$,'Miscellaneous');
#88=IFCSTYLEDITEM($,(#82),$);
#89=IFCSTYLEDREPRESENTATION(#22,'Style','Material',(#88));
#90=IFCMATERIALDEFINITIONREPRESENTATION($,$,(#89),#87);
#91=IFCMATERIALLAYER(#87,200.,$,'Layer',$,'Miscellaneous',$);
#92=IFCMATERIALLAYERSET((#91),'Basic Wall:Generic - 200mm',$);
#93=IFCWALLTYPE('1xZrMVYp52mhf4uMzw11Hk',#18,'Basic Wall:Generic - 200mm',$,$,(#107),$,'441451',$,.STANDARD.);
#94=IFCPROPERTYSINGLEVALUE('Reference',$,IFCIDENTIFIER('Generic - 200mm'),$);
#95=IFCPROPERTYSET('0juZ2zVTtOUVHL25Qgbt_I',#18,'Pset_EnvironmentalImpactIndicators',$,(#94));
#96=IFCPROPERTYSINGLEVALUE('Reference',$,IFCLABEL('Generic - 200mm'),$);
#97=IFCPROPERTYSET('2OqcSaxiEjZzlPjzKgka_8',#18,'Pset_ReinforcementBarPitchOfWall',$,(#96));
#98=IFCPROPERTYSINGLEVALUE('IsExternal',$,IFCBOOLEAN(.T.),$);
#99=IFCPROPERTYSINGLEVALUE('LoadBearing',$,IFCBOOLEAN(.F.),$);
#100=IFCPROPERTYSINGLEVALUE('ExtendToStructure',$,IFCBOOLEAN(.T.),$);
#101=IFCPROPERTYSET('1IzhE5aHgeynMp0lTpnK3h',#18,'Pset_WallCommon',$,(#94,#98,#99,#100));
#102=IFCRELDEFINESBYPROPERTIES('2nTGj5xRSolTF2p0fJUMgi',#18,$,$,(#86),#95);
#103=IFCRELDEFINESBYPROPERTIES('0mRif1AcXeVF0qzpmbKDS2',#18,$,$,(#86),#97);
#104=IFCRELDEFINESBYPROPERTIES('2_iiiInavkyT5cC6v9Q9oc',#18,$,$,(#86),#101);
#105=IFCCLASSIFICATIONREFERENCE('https://www.csiresources.org/standards/uniformat','B2010','Exterior Walls',#28,'',$);
#106=IFCPROPERTYSINGLEVALUE('Description',$,IFCTEXT('Generic Wall (Material By Category), 200mm thick'),$);
#107=IFCPROPERTYSET('2L7lvTstnIeeydfwzfZZLR',#18,'Pset_ReinforcementBarPitchOfWall',$,(#106));
#108=IFCCARTESIANPOINT((200.,6400.,0.));
#109=IFCAXIS2PLACEMENT3D(#108,$,$);
#110=IFCLOCALPLACEMENT(#34,#109);
#111=IFCCARTESIANPOINT((3100.,0.));
#112=IFCPOLYLINE((#4,#111));
#113=IFCSHAPEREPRESENTATION(#23,'Axis','Curve2D',(#112));
#114=IFCCARTESIANPOINT((1550.0000000000005,1.4210854715202004E-14));
#115=IFCAXIS2PLACEMENT2D(#114,#12);
#116=IFCRECTANGLEPROFILEDEF(.AREA.,$,#115,3100.0000000000009,200.);
#117=IFCAXIS2PLACEMENT3D(#3,$,$);
#118=IFCEXTRUDEDAREASOLID(#116,#117,#9,2700.);
#119=IFCCARTESIANPOINT((2900.,0.));
#120=IFCCARTESIANPOINT((3100.,0.));
#121=IFCCARTESIANPOINT((3100.,200.));
#122=IFCCARTESIANPOINT((-0.,200.));
#123=IFCPOLYLINE((#4,#119,#120,#121,#122,#4));
#124=IFCCARTESIANPOINT((0.,-100.,2700.));
#125=IFCAXIS2PLACEMENT3D(#124,#10,#5);
#126=IFCPLANE(#125);
#127=IFCCARTESIANPOINT((0.,-100.,2700.));
#128=IFCAXIS2PLACEMENT3D(#127,$,$);
#129=IFCPOLYGONALBOUNDEDHALFSPACE(#126,.T.,#128,#123);
#130=IFCBOOLEANCLIPPINGRESULT(.DIFFERENCE.,#118,#129);
#131=IFCSTYLEDITEM(#118,(#82),$);
#132=IFCSHAPEREPRESENTATION(#24,'Body','Clipping',(#130));
#133=IFCPRODUCTDEFINITIONSHAPE($,$,(#113,#132));
#134=IFCWALL('1YYXjRkjn7ywhxb576N3hM',#18,'Basic Wall:Generic - 200mm:1602451',$,'Basic Wall:Generic - 200mm',#110,#133,'1602451',.NOTDEFINED.);
#135=IFCAXIS2PLACEMENT3D(#148,$,$);
#137=IFCCARTESIANPOINT((0.,2.2737367544323206E-13));
#138=IFCAXIS2PLACEMENT2D(#137,#11);
#139=IFCRECTANGLEPROFILEDEF(.AREA.,$,#138,1600.,2399.9999999999995);
#140=IFCCARTESIANPOINT((1200.,0.,800.));
#141=IFCAXIS2PLACEMENT3D(#140,#7,#10);
#142=IFCEXTRUDEDAREASOLID(#139,#141,#9,200.);
#143=IFCSIUNIT(*,.PLANEANGLEUNIT.,$,.RADIAN.);
#144=IFCDIMENSIONALEXPONENTS(0,0,0,0,0,0,0);
#145=IFCMEASUREWITHUNIT(IFCPLANEANGLEMEASURE(0.017453292519943278),#143);
#146=IFCCONVERSIONBASEDUNIT(#144,.PLANEANGLEUNIT.,'DEGREE',#145);
#147=IFCSHAPEREPRESENTATION(#24,'Body','SweptSolid',(#142));
#148=IFCCARTESIANPOINT((240.,-100.,900.));
#149=IFCPRODUCTDEFINITIONSHAPE($,$,(#147));
#150=IFCCARTESIANPOINT((240.,-100.,900.));
#151=IFCAXIS2PLACEMENT3D(#150,$,$);
#152=IFCLOCALPLACEMENT(#110,#151);
#153=IFCOPENINGELEMENT('0bZ1dmlPcQkDiPF2ebFTcu',#18,'Basic Wall:Generic - 200mm:1602451',$,$,#152,#149,'1604424',.OPENING.);
#154=IFCRELVOIDSELEMENT('0lXr1u7fwNegdIDkUGV7$M',#18,$,$,#134,#153);
#155=IFCPROPERTYSET('3uu3GJMidLCcA4F6Hv6BG9',#18,'Pset_EnvironmentalImpactIndicators',$,(#94));
#156=IFCPROPERTYSINGLEVALUE('Reference',$,IFCLABEL('Generic - 200mm'),$);
#157=IFCPROPERTYSET('0Fq4d35XNi$pPQoixngibh',#18,'Pset_ReinforcementBarPitchOfWall',$,(#156));
#158=IFCPROPERTYSET('2uz4Zj0E3PezheMaz1kRZH',#18,'Pset_WallCommon',$,(#94,#98,#99,#100));
#159=IFCPROPERTYSET('2wy8dg_3F_tZ0kxmPOz7u6',#18,'Pset_EnvironmentalImpactIndicators',$,(#94));
#160=IFCPROPERTYSET('3nZtyvZeHrTX9B8q5y4BEb',#18,'Pset_OpeningElementCommon',$,(#94));
#161=IFCRELDEFINESBYPROPERTIES('0zGAwizVghrvuhTdkWAi9$',#18,$,$,(#134),#155);
#162=IFCRELDEFINESBYPROPERTIES('0$OuxHvwzb2bcsgwKYIqml',#18,$,$,(#134),#157);
#163=IFCRELDEFINESBYPROPERTIES('2BWN7stCl8tPRiZmOC2Gi2',#18,$,$,(#134),#158);
#164=IFCRELDEFINESBYPROPERTIES('31yMRtoJNtJQiufvkEbOLT',#18,$,$,(#153),#159);
#165=IFCRELDEFINESBYPROPERTIES('1B5WWoTxXaF_Tt3HCnsX_9',#18,$,$,(#153),#160);
#166=IFCCARTESIANPOINT((5400.,3500.,0.));
#167=IFCAXIS2PLACEMENT3D(#166,#9,#8);
#168=IFCLOCALPLACEMENT(#34,#167);
#169=IFCCARTESIANPOINT((3500.,0.));
#170=IFCPOLYLINE((#4,#169));
#171=IFCSHAPEREPRESENTATION(#23,'Axis','Curve2D',(#170));
#172=IFCCARTESIANPOINT((1750.0000000000011,2.1316282072803006E-13));
#173=IFCAXIS2PLACEMENT2D(#172,#12);
#174=IFCRECTANGLEPROFILEDEF(.AREA.,$,#173,3500.0000000000023,200.);
#175=IFCAXIS2PLACEMENT3D(#3,$,$);
#176=IFCEXTRUDEDAREASOLID(#174,#175,#9,2700.);
#177=IFCCARTESIANPOINT((200.,0.));
#178=IFCCARTESIANPOINT((3300.,0.));
#179=IFCCARTESIANPOINT((3500.,0.));
#180=IFCCARTESIANPOINT((3500.,200.));
#181=IFCCARTESIANPOINT((0.,200.));
#182=IFCPOLYLINE((#4,#177,#178,#179,#180,#181,#4));
#183=IFCCARTESIANPOINT((0.,-100.,2700.));
#184=IFCAXIS2PLACEMENT3D(#183,#10,#7);
#185=IFCPLANE(#184);
#186=IFCCARTESIANPOINT((0.,-100.,2700.));
#187=IFCAXIS2PLACEMENT3D(#186,$,$);
#188=IFCPOLYGONALBOUNDEDHALFSPACE(#185,.T.,#187,#182);
#189=IFCBOOLEANCLIPPINGRESULT(.DIFFERENCE.,#176,#188);
#190=IFCSTYLEDITEM(#176,(#82),$);
#191=IFCSHAPEREPRESENTATION(#24,'Body','Clipping',(#189));
#192=IFCPRODUCTDEFINITIONSHAPE($,$,(#171,#191));
#193=IFCWALL('1YYXjRkjn7ywhxb576N3gT',#18,'Basic Wall:Generic - 200mm:1602520',$,'Basic Wall:Generic - 200mm',#168,#192,'1602520',.NOTDEFINED.);
#194=IFCAXIS2PLACEMENT3D(#203,$,$);
#196=IFCCARTESIANPOINT((0.,0.));
#197=IFCAXIS2PLACEMENT2D(#196,#11);
#198=IFCRECTANGLEPROFILEDEF(.AREA.,$,#197,2000.0000000000002,999.99999999999898);
#199=IFCCARTESIANPOINT((-500.,0.,1000.));
#200=IFCAXIS2PLACEMENT3D(#199,#7,#10);
#201=IFCEXTRUDEDAREASOLID(#198,#200,#9,200.);
#202=IFCSHAPEREPRESENTATION(#24,'Body','SweptSolid',(#201));
#203=IFCCARTESIANPOINT((2900.,-100.,500.));
#204=IFCPRODUCTDEFINITIONSHAPE($,$,(#202));
#205=IFCCARTESIANPOINT((2900.,-100.,500.));
#206=IFCAXIS2PLACEMENT3D(#205,$,$);
#207=IFCLOCALPLACEMENT(#168,#206);
#208=IFCOPENINGELEMENT('2J3JLNWw7PEAyUkF6rwTIF',#18,'Basic Wall:Generic - 200mm:1602520',$,$,#207,#204,'1604795',.OPENING.);
#209=IFCRELVOIDSELEMENT('1YsQlLFI9nJwjzE5wS$csb',#18,$,$,#193,#208);
#210=IFCPROPERTYSET('13hzfV$A2z3mo7bielgzBw',#18,'Pset_EnvironmentalImpactIndicators',$,(#94));
#211=IFCPROPERTYSINGLEVALUE('Reference',$,IFCLABEL('Generic - 200mm'),$);
#212=IFCPROPERTYSET('0$SVSPVBLoQeaLXt4UpGeB',#18,'Pset_ReinforcementBarPitchOfWall',$,(#211));
#213=IFCPROPERTYSET('1GfUufRn87WWk1lXFWSQJX',#18,'Pset_WallCommon',$,(#94,#98,#99,#100));
#214=IFCPROPERTYSET('2MrV95jmqWKbnyO6T1CNHT',#18,'Pset_EnvironmentalImpactIndicators',$,(#94));
#215=IFCPROPERTYSET('33XGLKSI7HhwF0icPaxDKB',#18,'Pset_OpeningElementCommon',$,(#94));
#216=IFCRELDEFINESBYPROPERTIES('3tnFyv4t940k10g2YzRyPv',#18,$,$,(#193),#210);
#217=IFCRELDEFINESBYPROPERTIES('3BPNnVG$gi0clX2YAt484E',#18,$,$,(#193),#212);
#218=IFCRELDEFINESBYPROPERTIES('1dfThfdLOitLpVO6TgBS8K',#18,$,$,(#193),#213);
#219=IFCRELDEFINESBYPROPERTIES('2E_3yxAuOE0zPXcz07$v0Y',#18,$,$,(#208),#214);
#220=IFCRELDEFINESBYPROPERTIES('3v62$pdcHEMCvC$ltcBVuj',#18,$,$,(#208),#215);
#221=IFCCARTESIANPOINT((5300.,100.,0.));
#222=IFCAXIS2PLACEMENT3D(#221,#9,#6);
#223=IFCLOCALPLACEMENT(#34,#222);
#224=IFCCARTESIANPOINT((5100.,0.));
#225=IFCPOLYLINE((#4,#224));
#226=IFCSHAPEREPRESENTATION(#23,'Axis','Curve2D',(#225));
#227=IFCCARTESIANPOINT((2550.,1.4210854715202004E-14));
#228=IFCAXIS2PLACEMENT2D(#227,#12);
#229=IFCRECTANGLEPROFILEDEF(.AREA.,$,#228,5100.,200.);
#230=IFCAXIS2PLACEMENT3D(#3,$,$);
#231=IFCEXTRUDEDAREASOLID(#229,#230,#9,2700.);
#232=IFCCARTESIANPOINT((5100.,0.));
#233=IFCCARTESIANPOINT((5100.,200.));
#234=IFCCARTESIANPOINT((-0.,200.));
#235=IFCPOLYLINE((#4,#232,#233,#234,#4));
#236=IFCCARTESIANPOINT((0.,-100.,2700.));
#237=IFCAXIS2PLACEMENT3D(#236,#10,#6);
#238=IFCPLANE(#237);
#239=IFCCARTESIANPOINT((0.,-100.,2700.));
#240=IFCAXIS2PLACEMENT3D(#239,$,$);
#241=IFCPOLYGONALBOUNDEDHALFSPACE(#238,.T.,#240,#235);
#242=IFCBOOLEANCLIPPINGRESULT(.DIFFERENCE.,#231,#241);
#243=IFCSTYLEDITEM(#231,(#82),$);
#244=IFCSHAPEREPRESENTATION(#24,'Body','Clipping',(#242));
#245=IFCPRODUCTDEFINITIONSHAPE($,$,(#226,#244));
#246=IFCWALL('1YYXjRkjn7ywhxb576N3rZ',#18,'Basic Wall:Generic - 200mm:1602598',$,'Basic Wall:Generic - 200mm',#223,#245,'1602598',.NOTDEFINED.);
#247=IFCPROPERTYSET('2wUNWj0dn9keOIgz2eUTeA',#18,'Pset_EnvironmentalImpactIndicators',$,(#94));
#248=IFCPROPERTYSINGLEVALUE('Reference',$,IFCLABEL('Generic - 200mm'),$);
#249=IFCPROPERTYSET('2aZLjBxptCBRrQWpev6$DL',#18,'Pset_ReinforcementBarPitchOfWall',$,(#248));
#250=IFCPROPERTYSET('21kuThpxjEnNsqaOt3N_BO',#18,'Pset_WallCommon',$,(#94,#98,#99,#100));
#251=IFCRELDEFINESBYPROPERTIES('3$9AG9UXDadw3TGMymydrJ',#18,$,$,(#246),#247);
#252=IFCRELDEFINESBYPROPERTIES('3$4YQWN3pU9664G6AdAqPT',#18,$,$,(#246),#249);
#253=IFCRELDEFINESBYPROPERTIES('1_xXbtea8BBckKrMj7q53$',#18,$,$,(#246),#250);
#254=IFCCARTESIANPOINT((3200.,6300.,0.));
#255=IFCAXIS2PLACEMENT3D(#254,#9,#8);
#256=IFCLOCALPLACEMENT(#34,#255);
#257=IFCCARTESIANPOINT((3000.,0.));
#258=IFCPOLYLINE((#4,#257));
#259=IFCSHAPEREPRESENTATION(#23,'Axis','Curve2D',(#258));
#260=IFCCARTESIANPOINT((1500.0000000000007,1.2789769243681803E-13));
#261=IFCAXIS2PLACEMENT2D(#260,#12);
#262=IFCRECTANGLEPROFILEDEF(.AREA.,$,#261,3000.0000000000014,200.);
#263=IFCAXIS2PLACEMENT3D(#3,$,$);
#264=IFCEXTRUDEDAREASOLID(#262,#263,#9,2700.);
#265=IFCCARTESIANPOINT((2800.,0.));
#266=IFCCARTESIANPOINT((3000.,0.));
#267=IFCCARTESIANPOINT((3000.,200.));
#268=IFCCARTESIANPOINT((2800.,200.));
#269=IFCCARTESIANPOINT((0.,200.));
#270=IFCPOLYLINE((#4,#265,#266,#267,#268,#269,#4));
#271=IFCCARTESIANPOINT((0.,-100.,2700.));
#272=IFCAXIS2PLACEMENT3D(#271,#10,#7);
#273=IFCPLANE(#272);
#274=IFCCARTESIANPOINT((0.,-100.,2700.));
#275=IFCAXIS2PLACEMENT3D(#274,$,$);
#276=IFCPOLYGONALBOUNDEDHALFSPACE(#273,.T.,#275,#270);
#277=IFCBOOLEANCLIPPINGRESULT(.DIFFERENCE.,#264,#276);
#278=IFCSTYLEDITEM(#264,(#82),$);
#279=IFCSHAPEREPRESENTATION(#24,'Body','Clipping',(#277));
#280=IFCPRODUCTDEFINITIONSHAPE($,$,(#259,#279));
#281=IFCWALL('1YYXjRkjn7ywhxb576N3nB',#18,'Basic Wall:Generic - 200mm:1602830',$,'Basic Wall:Generic - 200mm',#256,#280,'1602830',.NOTDEFINED.);
#282=IFCPROPERTYSET('1o$8fgywgJTY2eDHr6N7ZE',#18,'Pset_EnvironmentalImpactIndicators',$,(#94));
#283=IFCPROPERTYSINGLEVALUE('Reference',$,IFCLABEL('Generic - 200mm'),$);
#284=IFCPROPERTYSET('3X0oX5hLjpCKLv3i2zjoO8',#18,'Pset_ReinforcementBarPitchOfWall',$,(#283));
#285=IFCPROPERTYSET('1lrGgbv4Ms7g0qUr4mFjIZ',#18,'Pset_WallCommon',$,(#94,#98,#99,#100));
#286=IFCRELDEFINESBYPROPERTIES('32lyAoLLpwfijO_jKITn92',#18,$,$,(#281),#282);
#287=IFCRELDEFINESBYPROPERTIES('2N8o4tsX7gS0jUHRAgrisa',#18,$,$,(#281),#284);
#288=IFCRELDEFINESBYPROPERTIES('3VFBCV3b0ApNNecL6W7uEo',#18,$,$,(#281),#285);
#289=IFCCARTESIANPOINT((3300.,3400.,0.));
#290=IFCAXIS2PLACEMENT3D(#289,$,$);
#291=IFCLOCALPLACEMENT(#34,#290);
#292=IFCCARTESIANPOINT((2000.,0.));
#293=IFCPOLYLINE((#4,#292));
#294=IFCSHAPEREPRESENTATION(#23,'Axis','Curve2D',(#293));
#295=IFCCARTESIANPOINT((1000.0000000000007,-1.8474111129762605E-13));
#296=IFCAXIS2PLACEMENT2D(#295,#12);
#297=IFCRECTANGLEPROFILEDEF(.AREA.,$,#296,2000.0000000000014,200.);
#298=IFCAXIS2PLACEMENT3D(#3,$,$);
#299=IFCEXTRUDEDAREASOLID(#297,#298,#9,2700.);
#300=IFCCARTESIANPOINT((2000.,0.));
#301=IFCCARTESIANPOINT((2000.,200.));
#302=IFCCARTESIANPOINT((-0.,200.));
#303=IFCPOLYLINE((#4,#300,#301,#302,#4));
#304=IFCCARTESIANPOINT((0.,-100.,2700.));
#305=IFCAXIS2PLACEMENT3D(#304,#10,#5);
#306=IFCPLANE(#305);
#307=IFCCARTESIANPOINT((0.,-100.,2700.));
#308=IFCAXIS2PLACEMENT3D(#307,$,$);
#309=IFCPOLYGONALBOUNDEDHALFSPACE(#306,.T.,#308,#303);
#310=IFCBOOLEANCLIPPINGRESULT(.DIFFERENCE.,#299,#309);
#311=IFCSTYLEDITEM(#299,(#82),$);
#312=IFCSHAPEREPRESENTATION(#24,'Body','Clipping',(#310));
#313=IFCPRODUCTDEFINITIONSHAPE($,$,(#294,#312));
#314=IFCWALL('1YYXjRkjn7ywhxb576N3m0',#18,'Basic Wall:Generic - 200mm:1602885',$,'Basic Wall:Generic - 200mm',#291,#313,'1602885',.NOTDEFINED.);
#315=IFCAXIS2PLACEMENT3D(#324,$,$);
#317=IFCCARTESIANPOINT((0.,-2.2737367544323206E-13));
#318=IFCAXIS2PLACEMENT2D(#317,#11);
#319=IFCRECTANGLEPROFILEDEF(.AREA.,$,#318,2000.0000000000002,1199.9999999999995);
#320=IFCCARTESIANPOINT((600.,0.,1000.));
#321=IFCAXIS2PLACEMENT3D(#320,#7,#10);
#322=IFCEXTRUDEDAREASOLID(#319,#321,#9,200.);
#323=IFCSHAPEREPRESENTATION(#24,'Body','SweptSolid',(#322));
#324=IFCCARTESIANPOINT((500.,-100.,500.));
#325=IFCPRODUCTDEFINITIONSHAPE($,$,(#323));
#326=IFCCARTESIANPOINT((500.,-100.,500.));
#327=IFCAXIS2PLACEMENT3D(#326,$,$);
#328=IFCLOCALPLACEMENT(#291,#327);
#329=IFCOPENINGELEMENT('0DzwLfHOrleAFhgt_Ph39G',#18,'Basic Wall:Generic - 200mm:1602885',$,$,#328,#325,'1604759',.OPENING.);
#330=IFCRELVOIDSELEMENT('1X$4sMG0hf_hY815qH8FRU',#18,$,$,#314,#329);
#331=IFCPROPERTYSET('0BAJQMI$xjKMVIU7mjI1fR',#18,'Pset_EnvironmentalImpactIndicators',$,(#94));
#332=IFCPROPERTYSINGLEVALUE('Reference',$,IFCLABEL('Generic - 200mm'),$);
#333=IFCPROPERTYSET('16X_jS_tfBFjIYfBBrvl5X',#18,'Pset_ReinforcementBarPitchOfWall',$,(#332));
#334=IFCPROPERTYSET('0v0LHlQn1vR1ecT5vLSje6',#18,'Pset_WallCommon',$,(#94,#98,#99,#100));
#335=IFCPROPERTYSET('230qySxuEeeqI1NDUnttYP',#18,'Pset_EnvironmentalImpactIndicators',$,(#94));
#336=IFCPROPERTYSET('1EJKUK1t4QLpe$3Kki0Nvb',#18,'Pset_OpeningElementCommon',$,(#94));
#337=IFCRELDEFINESBYPROPERTIES('03oUzuCu9USkFn0AXEH19S',#18,$,$,(#314),#331);
#338=IFCRELDEFINESBYPROPERTIES('2wIC17dfYeLwc8LNyiGJhG',#18,$,$,(#314),#333);
#339=IFCRELDEFINESBYPROPERTIES('0_osT$KZbRASzG_Yw1jHTb',#18,$,$,(#314),#334);
#340=IFCRELDEFINESBYPROPERTIES('2CuWRIB0bmthbs7EGPxIIx',#18,$,$,(#329),#335);
#341=IFCRELDEFINESBYPROPERTIES('25DhTp4ElBHlFE0m1Z11ek',#18,$,$,(#329),#336);
#342=IFCCARTESIANPOINT((3100.,3400.,0.));
#343=IFCAXIS2PLACEMENT3D(#342,#9,#6);
#344=IFCLOCALPLACEMENT(#34,#343);
#345=IFCCARTESIANPOINT((1100.,0.));
#346=IFCPOLYLINE((#4,#345));
#347=IFCSHAPEREPRESENTATION(#23,'Axis','Curve2D',(#346));
#348=IFCCARTESIANPOINT((550.00000000000114,1.2079226507921703E-13));
#349=IFCAXIS2PLACEMENT2D(#348,#12);
#350=IFCRECTANGLEPROFILEDEF(.AREA.,$,#349,1100.0000000000014,200.);
#351=IFCAXIS2PLACEMENT3D(#3,$,$);
#352=IFCEXTRUDEDAREASOLID(#350,#351,#9,2700.);
#353=IFCCARTESIANPOINT((1100.,0.));
#354=IFCCARTESIANPOINT((1100.,200.));
#355=IFCCARTESIANPOINT((0.,200.));
#356=IFCPOLYLINE((#4,#353,#354,#355,#4));
#357=IFCCARTESIANPOINT((0.,-100.,2700.));
#358=IFCAXIS2PLACEMENT3D(#357,#10,#6);
#359=IFCPLANE(#358);
#360=IFCCARTESIANPOINT((0.,-100.,2700.));
#361=IFCAXIS2PLACEMENT3D(#360,$,$);
#362=IFCPOLYGONALBOUNDEDHALFSPACE(#359,.T.,#361,#356);
#363=IFCBOOLEANCLIPPINGRESULT(.DIFFERENCE.,#352,#362);
#364=IFCSTYLEDITEM(#352,(#82),$);
#365=IFCSHAPEREPRESENTATION(#24,'Body','Clipping',(#363));
#366=IFCPRODUCTDEFINITIONSHAPE($,$,(#347,#365));
#367=IFCWALL('2DM19d52z3gAPlkXPTpJnG',#18,'Basic Wall:Generic - 200mm:1606094',$,'Basic Wall:Generic - 200mm',#344,#366,'1606094',.NOTDEFINED.);
#368=IFCPROPERTYSET('07wyEGhfvXFp9pY4YdgaoR',#18,'Pset_EnvironmentalImpactIndicators',$,(#94));
#369=IFCPROPERTYSINGLEVALUE('Reference',$,IFCLABEL('Generic - 200mm'),$);
#370=IFCPROPERTYSET('1VTtuCTwY51$4MzFbg0PGx',#18,'Pset_ReinforcementBarPitchOfWall',$,(#369));
#371=IFCPROPERTYSET('0pXcBu3XAyv4qIuuvf6Y9W',#18,'Pset_WallCommon',$,(#94,#98,#99,#100));
#372=IFCRELDEFINESBYPROPERTIES('20TXV6LzIbJeED71HR$MBE',#18,$,$,(#367),#368);
#373=IFCRELDEFINESBYPROPERTIES('2YMCmGpIKnBafydFk05mqF',#18,$,$,(#367),#370);
#374=IFCRELDEFINESBYPROPERTIES('1QR$uLVE_YJqM8bPZ5Xcrj',#18,$,$,(#367),#371);
#375=IFCAXIS2PLACEMENT3D(#3,$,$);
#376=IFCLOCALPLACEMENT(#38,#375);
#377=IFCCARTESIANPOINT((-3333.3333333333298,-2933.333333333333));
#378=IFCCARTESIANPOINT((3166.6666666666729,-2933.333333333333));
#379=IFCCARTESIANPOINT((3166.6666666666674,366.66666666666697));
#380=IFCCARTESIANPOINT((166.66666666666728,366.66666666666697));
#381=IFCCARTESIANPOINT((166.66666666666382,2566.6666666666674));
#382=IFCCARTESIANPOINT((-3333.333333333338,2566.6666666666674));
#383=IFCPOLYLINE((#377,#378,#379,#380,#381,#382,#377));
#384=IFCARBITRARYCLOSEDPROFILEDEF(.AREA.,$,#383);
#385=IFCCARTESIANPOINT((2933.3333333333385,3333.3333333333239,0.));
#386=IFCAXIS2PLACEMENT3D(#385,#10,#7);
#387=IFCEXTRUDEDAREASOLID(#384,#386,#9,300.);
#388=IFCCARTESIANPOINT((7.9580786405131221E-13,7.9580786405131221E-13));
#389=IFCAXIS2PLACEMENT2D(#388,#11);
#390=IFCRECTANGLEPROFILEDEF(.AREA.,$,#389,1249.9999999999991,2899.9999999999977);
#391=IFCCARTESIANPOINT((1650.,4125.,-300.));
#392=IFCAXIS2PLACEMENT3D(#391,#9,#7);
#393=IFCEXTRUDEDAREASOLID(#390,#392,#9,300.);
#394=IFCBOOLEANRESULT(.DIFFERENCE.,#387,#393);
#395=IFCCOLOURRGB($,0.50196078431372548,0.50196078431372548,0.50196078431372548);
#396=IFCSURFACESTYLERENDERING(#395,0.,$,$,$,$,IFCNORMALISEDRATIOMEASURE(0.5),IFCSPECULAREXPONENT(10.),.NOTDEFINED.);
#397=IFCSURFACESTYLE('Default Floor',.BOTH.,(#396));
#398=IFCSTYLEDITEM(#387,(#397),$);
#399=IFCSHAPEREPRESENTATION(#24,'Body','SweptSolid',(#394));
#400=IFCPRODUCTDEFINITIONSHAPE($,$,(#399));
#401=IFCSLAB('3IVn6KwFj83grW3cy2PbrE',#18,'Floor:Generic 300mm:1609066',$,'Floor:Generic 300mm',#376,#400,'1609066',.FLOOR.);
#402=IFCCARTESIANPOINT((-4.5474735088646412E-13,5.6843418860808015E-13));
#403=IFCAXIS2PLACEMENT2D(#402,#11);
#404=IFCRECTANGLEPROFILEDEF(.AREA.,$,#403,2900.0000000000009,1249.9999999999991);
#405=IFCCARTESIANPOINT((1650.,4125.,-300.));
#406=IFCAXIS2PLACEMENT3D(#405,#9,#6);
#407=IFCEXTRUDEDAREASOLID(#404,#406,#9,300.);
#408=IFCSHAPEREPRESENTATION(#24,'Body','SweptSolid',(#407));
#409=IFCPRODUCTDEFINITIONSHAPE($,$,(#408));
#410=IFCAXIS2PLACEMENT3D(#3,$,$);
#411=IFCLOCALPLACEMENT(#376,#410);
#412=IFCOPENINGELEMENT('09QqT8b2i$9ezoLMTHvaH3',#18,'Floor:Generic 300mm:1439244',$,$,#411,#409,'1610760',.OPENING.);
#413=IFCRELVOIDSELEMENT('16L7WXBkFwNjzZLJd1dsmU',#18,$,$,#401,#412);
#414=IFCSLABTYPE('2G9mo_Rg17ee$DE9j_ga52',#18,'Floor:Generic 300mm',$,$,(#437),$,'1439244',$,.FLOOR.);
#415=IFCMATERIAL('Default Floor',$,'Miscellaneous');
#416=IFCSTYLEDITEM($,(#397),$);
#417=IFCSTYLEDREPRESENTATION(#22,'Style','Material',(#416));
#418=IFCMATERIALDEFINITIONREPRESENTATION($,$,(#417),#415);
#419=IFCMATERIALLAYER(#415,299.99999999999994,$,'Layer',$,'Miscellaneous',$);
#420=IFCMATERIALLAYERSET((#419),'Floor:Generic 300mm',$);
#421=IFCMATERIALLAYERSETUSAGE(#420,.AXIS3.,.POSITIVE.,0.,$);
#422=IFCPROPERTYSINGLEVALUE('Reference',$,IFCIDENTIFIER('Generic 300mm'),$);
#423=IFCPROPERTYSET('0ud4Daoe$HF6$GpxuVSd28',#18,'Pset_EnvironmentalImpactIndicators',$,(#422));
#424=IFCPROPERTYSINGLEVALUE('Reference',$,IFCLABEL('Generic 300mm'),$);
#425=IFCPROPERTYSET('0IfT6QxwI3HLf1nsam0PFv',#18,'Pset_ReinforcementBarPitchOfSlab',$,(#424));
#426=IFCPROPERTYSINGLEVALUE('PitchAngle',$,IFCPLANEANGLEMEASURE(0.),$);
#427=IFCPROPERTYSINGLEVALUE('LoadBearing',$,IFCBOOLEAN(.T.),$);
#428=IFCPROPERTYSET('0LPuUWVXX7R8dhe6tElrrp',#18,'Pset_SlabCommon',$,(#45,#422,#426,#427));
#429=IFCPROPERTYSET('0bRGCl8H2wgIhZaB8Kyiz6',#18,'Pset_EnvironmentalImpactIndicators',$,(#422));
#430=IFCPROPERTYSET('1BO2gsPzBn8Q5wQVHj8zcU',#18,'Pset_OpeningElementCommon',$,(#422));
#431=IFCRELDEFINESBYPROPERTIES('2g7VHO3odg9JAJ7Vo_TQ47',#18,$,$,(#401),#423);
#432=IFCRELDEFINESBYPROPERTIES('16AFzIxoLJjwiV3nqyEmPH',#18,$,$,(#401),#425);
#433=IFCRELDEFINESBYPROPERTIES('3QkvpT3rH4Com3N2mi$A3O',#18,$,$,(#401),#428);
#434=IFCRELDEFINESBYPROPERTIES('2l4xoPsuVLwhHqN6aj5dOp',#18,$,$,(#412),#429);
#435=IFCRELDEFINESBYPROPERTIES('1xNIRUQHU07ottUOimDgoQ',#18,$,$,(#412),#430);
#436=IFCPROPERTYSINGLEVALUE('Description',$,IFCTEXT('Generic Floor (Material By Category), 300mm thick'),$);
#437=IFCPROPERTYSET('0ch2Rz4MMxlBDWQKk_uOQt',#18,'Pset_ReinforcementBarPitchOfSlab',$,(#436));
#438=IFCAXIS2PLACEMENT3D(#3,$,$);
#439=IFCLOCALPLACEMENT(#34,#438);
#440=IFCCARTESIANPOINT((-3333.3333333333298,-2933.333333333333));
#441=IFCCARTESIANPOINT((3166.6666666666729,-2933.333333333333));
#442=IFCCARTESIANPOINT((3166.6666666666674,366.66666666666697));
#443=IFCCARTESIANPOINT((166.66666666666728,366.66666666666697));
#444=IFCCARTESIANPOINT((166.66666666666382,2566.6666666666674));
#445=IFCCARTESIANPOINT((-3333.333333333338,2566.6666666666674));
#446=IFCPOLYLINE((#440,#441,#442,#443,#444,#445,#440));
#447=IFCARBITRARYCLOSEDPROFILEDEF(.AREA.,$,#446);
#448=IFCCARTESIANPOINT((2933.3333333333385,3333.3333333333239,0.));
#449=IFCAXIS2PLACEMENT3D(#448,#10,#7);
#450=IFCEXTRUDEDAREASOLID(#447,#449,#9,299.99999999999994);
#451=IFCSTYLEDITEM(#450,(#397),$);
#452=IFCSHAPEREPRESENTATION(#24,'Body','SweptSolid',(#450));
#453=IFCPRODUCTDEFINITIONSHAPE($,$,(#452));
#454=IFCSLAB('14mKo9XerBABKfN_q4I3DJ',#18,'Floor:Generic 300mm:1610550',$,'Floor:Generic 300mm',#439,#453,'1610550',.FLOOR.);
#455=IFCMATERIALLAYERSETUSAGE(#420,.AXIS3.,.POSITIVE.,0.,$);
#456=IFCPROPERTYSET('27OTG2pKOwxqElPmEWSHk$',#18,'Pset_EnvironmentalImpactIndicators',$,(#422));
#457=IFCPROPERTYSINGLEVALUE('Reference',$,IFCLABEL('Generic 300mm'),$);
#458=IFCPROPERTYSET('3$6uScqJ1SQ87pcAu$1U9c',#18,'Pset_ReinforcementBarPitchOfSlab',$,(#457));
#459=IFCPROPERTYSET('1K2nORpSGvZAklsFfNGE3F',#18,'Pset_SlabCommon',$,(#45,#422,#426,#427));
#460=IFCRELDEFINESBYPROPERTIES('2mj_wA8eo3R$h_c$X_2$2o',#18,$,$,(#454),#456);
#461=IFCRELDEFINESBYPROPERTIES('3I_TgZMHS0uJjeS_vxXdsj',#18,$,$,(#454),#458);
#462=IFCRELDEFINESBYPROPERTIES('3ReTPOx1QNbyh7JideoL8d',#18,$,$,(#454),#459);
#463=IFCPROPERTYSINGLEVALUE('Reference',$,IFCIDENTIFIER('8mm Head'),$);
#464=IFCPROPERTYSINGLEVALUE('AboveGround',$,IFCLOGICAL(.U.),$);
#465=IFCPROPERTYSET('16L50AfyZF4hYq5TGET4H4',#18,'Pset_BuildingStoreyCommon',$,(#463,#464));
#466=IFCPROPERTYSET('2J7ac_h5ujdwWuzVwBIIta',#18,'Pset_SpaceCommon',$,(#45,#463));
#467=IFCRELDEFINESBYPROPERTIES('2VdfSfkgzGoZi_3SgzE8$0',#18,$,$,(#35),#465);
#468=IFCRELDEFINESBYPROPERTIES('3$YdOpA8iaPobC8MDiWxoI',#18,$,$,(#35),#466);
#469=IFCRELCONTAINEDINSPATIALSTRUCTURE('2JF4e6axWHqu3u0C5FZlmi',#18,$,$,(#86,#134,#193,#246,#281,#314,#367,#454),#35);
#470=IFCPROPERTYSET('1n34enW33Z_3Qq2Pm1kjQZ',#18,'Pset_BuildingStoreyCommon',$,(#463,#464));
#471=IFCPROPERTYSET('0qNc4$IaPwTvoqOd7IlIE4',#18,'Pset_SpaceCommon',$,(#45,#463));
#472=IFCRELDEFINESBYPROPERTIES('36oM8gyLQ5_Z6XoGK5uP1E',#18,$,$,(#39),#470);
#473=IFCRELDEFINESBYPROPERTIES('0jA6Vdz$3CfPvu_I1iTL6J',#18,$,$,(#39),#471);
#474=IFCRELCONTAINEDINSPATIALSTRUCTURE('1ZGO8hrFCHqw0v0066FpFv',#18,$,$,(#401),#39);
#475=IFCRELAGGREGATES('2KFB6YYWgXBmucZ8cm7uCP',#18,$,$,#27,(#42));
#476=IFCRELAGGREGATES('16_hfJTeCqU7LcG8m10BTS',#18,$,$,#42,(#32));
#477=IFCRELAGGREGATES('1yhDISh1T5aQqAoygxGIhP',#18,$,$,#32,(#35,#39));
#478=IFCPROPERTYSINGLEVALUE('NumberOfStoreys',$,IFCCOUNTMEASURE(2),$);
#479=IFCPROPERTYSINGLEVALUE('IsLandmarked',$,IFCLOGICAL(.U.),$);
#480=IFCPROPERTYSET('01y_GmllCupEYuBgfGbhkd',#18,'Pset_BuildingCommon',$,(#43,#478,#479));
#481=IFCPROPERTYSET('1rUR7OGyIAkZT62xvibLnd',#18,'Pset_BuildingElementProxyCommon',$,(#43,#45));
#482=IFCPROPERTYSET('2kFDjjfIaTsBi7MLK$i$Me',#18,'Pset_BuildingStoreyCommon',$,(#43,#464));
#483=IFCPROPERTYSET('1TYvb3FgH88mtl04iE5P1T',#18,'Pset_BuildingSystemCommon',$,(#43));
#484=IFCPROPERTYSET('2W94HCj5xfigmNGtkBMklk',#18,'Pset_SpaceCommon',$,(#43,#45));
#485=IFCRELDEFINESBYPROPERTIES('0vDjba2fshDEh0_KufwWht',#18,$,$,(#32),#480);
#486=IFCRELDEFINESBYPROPERTIES('1V6UQfELB4oPy3GPEaJMPw',#18,$,$,(#32),#481);
#487=IFCRELDEFINESBYPROPERTIES('0Vpd75HttOMIhzXutBGgCt',#18,$,$,(#32),#482);
#488=IFCRELDEFINESBYPROPERTIES('22VMRBFW9n6_S81yWIP225',#18,$,$,(#32),#483);
#489=IFCRELDEFINESBYPROPERTIES('2w3bzVlKnfBVjA3_BjG2II',#18,$,$,(#32),#484);
#490=IFCRELASSOCIATESMATERIAL('2QFCKnOK6apDe5DLeYm8dd',#18,$,$,(#401),#421);
#491=IFCRELASSOCIATESMATERIAL('1GdrrdkTIiSCOtdVnuc_Or',#18,$,$,(#454),#455);
#492=IFCRELASSOCIATESMATERIAL('22T9r9KB1F3JFgePfxkUGp',#18,$,$,(#86,#93,#134,#193,#246,#281,#314,#367),#92);
#493=IFCRELASSOCIATESMATERIAL('0QfjMRWx0N0AraD35Xcprq',#18,$,$,(#414),#420);
#494=IFCRELDEFINESBYTYPE('0MSq_ijuC5q4PUKv4QkOsA',#18,$,$,(#86,#134,#193,#246,#281,#314,#367),#93);
#495=IFCRELDEFINESBYTYPE('1bgurferyyrfEx97ISVVLa',#18,$,$,(#401,#454),#414);
#496=IFCRELCONNECTSPATHELEMENTS('207KMVTAMGM9zlvI67GZe1',#18,'1YYXjRkjn7ywhxb576N3eK|1YYXjRkjn7ywhxb576N3rZ','Structural',$,#86,#246,(),(),.ATEND.,.ATSTART.);
#497=IFCRELCONNECTSPATHELEMENTS('2EimxnMpo6uTr94H1lfji3',#18,'1YYXjRkjn7ywhxb576N3eK|1YYXjRkjn7ywhxb576N3hM','Structural',$,#86,#134,(),(),.ATSTART.,.ATEND.);
#498=IFCRELCONNECTSPATHELEMENTS('2g1OFC2v3rbCUpYilu3fyf',#18,'1YYXjRkjn7ywhxb576N3hM|1YYXjRkjn7ywhxb576N3nB','Structural',$,#134,#281,(),(),.ATSTART.,.ATEND.);
#499=IFCRELCONNECTSPATHELEMENTS('1nXUqEQhjADy3Mj7AuC27K',#18,'1YYXjRkjn7ywhxb576N3gT|1YYXjRkjn7ywhxb576N3m0','Structural',$,#193,#314,(),(),.ATEND.,.ATSTART.);
#500=IFCRELCONNECTSPATHELEMENTS('2lLuxMoMFfdpbWPX2FUPM1',#18,'1YYXjRkjn7ywhxb576N3gT|1YYXjRkjn7ywhxb576N3rZ','Structural',$,#193,#246,(),(),.ATSTART.,.ATEND.);
#501=IFCRELCONNECTSPATHELEMENTS('13uUT0JXvEshrYZBtG8D21',#18,'1YYXjRkjn7ywhxb576N3nB|1YYXjRkjn7ywhxb576N3m0','Structural',$,#281,#314,(),(),.ATSTART.,.ATEND.);
#502=IFCRELCONNECTSPATHELEMENTS('1nlTzqYZWthhlynX7RWlv8',#18,'1YYXjRkjn7ywhxb576N3nB|2DM19d52z3gAPlkXPTpJnG','Structural',$,#281,#367,(),(),.ATSTART.,.ATEND.);
#503=IFCRELCONNECTSPATHELEMENTS('1TOGYn_aSdug27pFYfDzG3',#18,'1YYXjRkjn7ywhxb576N3m0|2DM19d52z3gAPlkXPTpJnG','Structural',$,#314,#367,(),(),.ATSTART.,.ATSTART.);
#504=IFCPRESENTATIONLAYERASSIGNMENT('A-WALL-____-OTLN',$,(#60,#84,#113,#132,#171,#191,#226,#244,#259,#279,#294,#312,#347,#365),$);
#505=IFCPRESENTATIONLAYERASSIGNMENT('A-FLOR-____-OTLN',$,(#399,#452),$);
#506=IFCRELASSOCIATESCLASSIFICATION('13dcyAXW0RZVXX7X2I0PW7',#18,'Exterior Walls','Exterior Walls:B2010',(#86,#134,#193,#246,#281,#314,#367),#105);
#507=IFCUNITASSIGNMENT((#19,#61,#146));
ENDSEC;

END-ISO-10303-21;