ISO-10303-21;
HEADER;
FILE_DESCRIPTION(('ViewDefinition [CoordinationView_V2.0]','RevitIdentifiers [ContentGUID: cbb0ae2e-6350-4225-8ca4-af668662c38d, VersionGUID: 2113ff98-dfa1-4739-8d14-4081ca3d781a, NumberOfSaves: 37]','CoordinateReference [CoordinateBase: Shared Coordinates]'),'2;1');
FILE_NAME('01_03_015.ifc','2026-01-13T10:06:30+01:00',(''),(''),'ODA SDAI 24.6','Autodesk Revit 24.3.30.11 (ENU) - IFC 24.3.30.11','');
FILE_SCHEMA(('IFC2X3'));
ENDSEC;

DATA;
#1=IFCORGANIZATION($,'Autodesk Revit 2024 (ENU)',$,$,$);
#2=IFCAPPLICATION(#1,'2024','Autodesk Revit 2024 (ENU)','Revit');
#3=IFCCARTESIANPOINT((0.,0.,0.));
#4=IFCCARTESIANPOINT((0.,0.));
#5=IFCDIRECTION((1.,0.,0.));
#6=IFCDIRECTION((-1.,0.,0.));
#7=IFCDIRECTION((0.,1.,0.));
#8=IFCDIRECTION((0.,-1.,0.));
#9=IFCDIRECTION((0.,0.,1.));
#10=IFCDIRECTION((0.,0.,-1.));
#11=IFCDIRECTION((1.,0.));
#12=IFCDIRECTION((-1.,0.));
#13=IFCDIRECTION((0.,1.));
#14=IFCDIRECTION((0.,-1.));
#15=IFCPERSON($,'','h.helming',$,$,$,$,$);
#16=IFCORGANIZATION($,'Organization Name','Organization Description',$,$);
#17=IFCPERSONANDORGANIZATION(#15,#16,$);
#18=IFCOWNERHISTORY(#17,#2,$,.NOCHANGE.,$,$,$,1767812977);
#19=IFCSIUNIT(*,.LENGTHUNIT.,.MILLI.,.METRE.);
#20=IFCAXIS2PLACEMENT3D(#3,$,$);
#21=IFCDIRECTION((6.1230317691118863E-17,1.));
#22=IFCGEOMETRICREPRESENTATIONCONTEXT($,'Model',3,0.01,#20,#21);
#23=IFCGEOMETRICREPRESENTATIONSUBCONTEXT('Axis','Model',*,*,*,*,#22,$,.GRAPH_VIEW.,$);
#24=IFCGEOMETRICREPRESENTATIONSUBCONTEXT('Body','Model',*,*,*,*,#22,$,.MODEL_VIEW.,$);
#25=IFCGEOMETRICREPRESENTATIONSUBCONTEXT('Box','Model',*,*,*,*,#22,$,.MODEL_VIEW.,$);
#26=IFCGEOMETRICREPRESENTATIONSUBCONTEXT('FootPrint','Model',*,*,*,*,#22,$,.MODEL_VIEW.,$);
#27=IFCPROJECT('3BiAukOr129OoahsPvdJnz',#18,'Project Number',$,$,'Project Name','Project Status',(#22),#507);
#28=IFCCLASSIFICATION('CSI (Construction Specifications Institute)','1998',$,'Uniformat');
#29=IFCAXIS2PLACEMENT3D(#3,$,$);
#30=IFCLOCALPLACEMENT(#41,#29);
#31=IFCPOSTALADDRESS($,$,$,$,('Enter address hereAddress Line 2'),$,'','Boston','','MA');
#32=IFCBUILDING('3BiAukOr129OoahsPvdJny',#18,'Building Name',$,$,#30,$,'Building Name',.ELEMENT.,$,$,#31);
#33=IFCAXIS2PLACEMENT3D(#3,$,$);
#34=IFCLOCALPLACEMENT(#30,#33);
#35=IFCBUILDINGSTOREY('2JF4e6axWHqu3u0C1FZlmi',#18,'L1',$,'Level:8mm Head',#34,$,'L1',.ELEMENT.,0.);
#36=IFCCARTESIANPOINT((0.,0.,3000.));
#37=IFCAXIS2PLACEMENT3D(#36,$,$);
#38=IFCLOCALPLACEMENT(#30,#37);
#39=IFCBUILDINGSTOREY('1ZGO8hrFCHqw0v0026FpFv',#18,'L2',$,'Level:8mm Head',#38,$,'L2',.ELEMENT.,3000.);
#40=IFCAXIS2PLACEMENT3D(#3,$,$);
#41=IFCLOCALPLACEMENT($,#40);
#42=IFCSITE('3BiAukOr129OoahsPvdJn$',#18,'Default',$,$,#41,$,$,.ELEMENT.,(42,21,31,401672),(-71,-3,-24,-345703),0.,$,$);
#49=IFCCARTESIANPOINT((100.,0.,0.));
#50=IFCAXIS2PLACEMENT3D(#49,#9,#7);
#51=IFCLOCALPLACEMENT(#34,#50);
#52=IFCCARTESIANPOINT((6500.,-0.));
#53=IFCPOLYLINE((#4,#52));
#54=IFCSHAPEREPRESENTATION(#23,'Axis','Curve2D',(#53));
#55=IFCSIUNIT(*,.AREAUNIT.,$,.SQUARE_METRE.);
#56=IFCCARTESIANPOINT((3250.0000000000018,1.4210854715202004E-14));
#57=IFCAXIS2PLACEMENT2D(#56,#12);
#58=IFCRECTANGLEPROFILEDEF(.AREA.,$,#57,6500.0000000000036,200.);
#59=IFCAXIS2PLACEMENT3D(#3,$,$);
#60=IFCEXTRUDEDAREASOLID(#58,#59,#9,2695.2000000000003);
#61=IFCCARTESIANPOINT((200.,-0.));
#62=IFCCARTESIANPOINT((6300.,0.));
#63=IFCCARTESIANPOINT((6500.,0.));
#64=IFCCARTESIANPOINT((6500.,200.));
#65=IFCCARTESIANPOINT((0.,200.));
#66=IFCPOLYLINE((#4,#61,#62,#63,#64,#65,#4));
#67=IFCCARTESIANPOINT((-0.,-100.,2695.2000000000003));
#68=IFCAXIS2PLACEMENT3D(#67,#10,#8);
#69=IFCPLANE(#68);
#70=IFCCARTESIANPOINT((-0.,-100.,2695.2000000000003));
#71=IFCAXIS2PLACEMENT3D(#70,$,$);
#72=IFCPOLYGONALBOUNDEDHALFSPACE(#69,.T.,#71,#66);
#73=IFCBOOLEANCLIPPINGRESULT(.DIFFERENCE.,#60,#72);
#74=IFCCOLOURRGB($,0.75294117647058822,0.75294117647058822,0.75294117647058822);
#75=IFCSURFACESTYLERENDERING(#74,0.,$,$,$,$,IFCNORMALISEDRATIOMEASURE(0.5),IFCSPECULAREXPONENT(10.),.NOTDEFINED.);
#76=IFCSURFACESTYLE('Default Wall',.BOTH.,(#75));
#77=IFCPRESENTATIONSTYLEASSIGNMENT((#76));
#78=IFCSTYLEDITEM(#60,(#77),$);
#79=IFCSHAPEREPRESENTATION(#24,'Body','Clipping',(#73));
#80=IFCPRODUCTDEFINITIONSHAPE($,$,(#54,#79));
#81=IFCWALLSTANDARDCASE('1YYXjRkjn7ywhxb576N3eK',#18,'Basic Wall:Generic - 200mm:1602385',$,'Basic Wall:Generic - 200mm',#51,#80,'1602385');
#82=IFCMATERIAL('Default Wall');
#83=IFCPRESENTATIONSTYLEASSIGNMENT((#76));
#84=IFCSTYLEDITEM($,(#83),$);
#85=IFCSTYLEDREPRESENTATION(#22,'Style','Material',(#84));
#86=IFCMATERIALDEFINITIONREPRESENTATION($,$,(#85),#82);
#87=IFCMATERIALLAYER(#82,200.,$);
#88=IFCMATERIALLAYERSET((#87),'Basic Wall:Generic - 200mm');
#89=IFCMATERIALLAYERSETUSAGE(#88,.AXIS2.,.NEGATIVE.,100.);
#90=IFCWALLTYPE('1xZrMVYp52mhf4uMzw11Hk',#18,'Basic Wall:Generic - 200mm',$,$,(#104),$,'441451',$,.STANDARD.);
#91=IFCPROPERTYSINGLEVALUE('Reference',$,IFCIDENTIFIER('Generic - 200mm'),$);
#92=IFCPROPERTYSET('3qVKaNKr5tfvZuS3EPEBTS',#18,'Pset_QuantityTakeOff',$,(#91));
#93=IFCPROPERTYSINGLEVALUE('Reference',$,IFCLABEL('Generic - 200mm'),$);
#94=IFCPROPERTYSET('2OqcSaxiEjZzlPjzKgka_8',#18,'Pset_ReinforcementBarPitchOfWall',$,(#93));
#95=IFCPROPERTYSINGLEVALUE('IsExternal',$,IFCBOOLEAN(.T.),$);
#96=IFCPROPERTYSINGLEVALUE('ExtendToStructure',$,IFCBOOLEAN(.T.),$);
#97=IFCPROPERTYSINGLEVALUE('LoadBearing',$,IFCBOOLEAN(.F.),$);
#98=IFCPROPERTYSET('1IzhE5aHgeynMp0lTpnK3h',#18,'Pset_WallCommon',$,(#91,#95,#96,#97));
#99=IFCRELDEFINESBYPROPERTIES('0_atJQ7Eto31txqfSrmLx$',#18,$,$,(#81),#92);
#100=IFCRELDEFINESBYPROPERTIES('0mRif1AcXeVF0qzpmbKDS2',#18,$,$,(#81),#94);
#101=IFCRELDEFINESBYPROPERTIES('2_iiiInavkyT5cC6v9Q9oc',#18,$,$,(#81),#98);
#102=IFCCLASSIFICATIONREFERENCE('https://www.csiresources.org/standards/uniformat','B2010','Exterior Walls',#28);
#103=IFCPROPERTYSINGLEVALUE('Description',$,IFCTEXT('Generic Wall (Material By Category), 200mm thick'),$);
#104=IFCPROPERTYSET('2L7lvTstnIeeydfwzfZZLR',#18,'Pset_ReinforcementBarPitchOfWall',$,(#103));
#105=IFCCARTESIANPOINT((200.,6400.,0.));
#106=IFCAXIS2PLACEMENT3D(#105,$,$);
#107=IFCLOCALPLACEMENT(#34,#106);
#108=IFCCARTESIANPOINT((3100.,0.));
#109=IFCPOLYLINE((#4,#108));
#110=IFCSHAPEREPRESENTATION(#23,'Axis','Curve2D',(#109));
#111=IFCCARTESIANPOINT((1550.0000000000005,1.4210854715202004E-14));
#112=IFCAXIS2PLACEMENT2D(#111,#12);
#113=IFCRECTANGLEPROFILEDEF(.AREA.,$,#112,3100.0000000000009,200.);
#114=IFCAXIS2PLACEMENT3D(#3,$,$);
#115=IFCEXTRUDEDAREASOLID(#113,#114,#9,2695.2000000000003);
#116=IFCCARTESIANPOINT((2900.,0.));
#117=IFCCARTESIANPOINT((3100.,0.));
#118=IFCCARTESIANPOINT((3100.,200.));
#119=IFCCARTESIANPOINT((-0.,200.));
#120=IFCPOLYLINE((#4,#116,#117,#118,#119,#4));
#121=IFCCARTESIANPOINT((0.,-100.,2695.2000000000003));
#122=IFCAXIS2PLACEMENT3D(#121,#10,#5);
#123=IFCPLANE(#122);
#124=IFCCARTESIANPOINT((0.,-100.,2695.2000000000003));
#125=IFCAXIS2PLACEMENT3D(#124,$,$);
#126=IFCPOLYGONALBOUNDEDHALFSPACE(#123,.T.,#125,#120);
#127=IFCBOOLEANCLIPPINGRESULT(.DIFFERENCE.,#115,#126);
#128=IFCSTYLEDITEM(#115,(#77),$);
#129=IFCSHAPEREPRESENTATION(#24,'Body','Clipping',(#127));
#130=IFCPRODUCTDEFINITIONSHAPE($,$,(#110,#129));
#131=IFCWALLSTANDARDCASE('1YYXjRkjn7ywhxb576N3hM',#18,'Basic Wall:Generic - 200mm:1602451',$,'Basic Wall:Generic - 200mm',#107,#130,'1602451');
#132=IFCAXIS2PLACEMENT3D(#3,$,$);
#134=IFCCARTESIANPOINT((0.,2.2737367544323206E-13));
#135=IFCAXIS2PLACEMENT2D(#134,#11);
#136=IFCRECTANGLEPROFILEDEF(.AREA.,$,#135,1600.,2399.9999999999995);
#137=IFCCARTESIANPOINT((1440.,-100.,1700.));
#138=IFCAXIS2PLACEMENT3D(#137,#7,#10);
#139=IFCEXTRUDEDAREASOLID(#136,#138,#9,200.);
#140=IFCSIUNIT(*,.PLANEANGLEUNIT.,$,.RADIAN.);
#141=IFCDIMENSIONALEXPONENTS(0,0,0,0,0,0,0);
#142=IFCMEASUREWITHUNIT(IFCPLANEANGLEMEASURE(0.017453292519943278),#140);
#143=IFCCONVERSIONBASEDUNIT(#141,.PLANEANGLEUNIT.,'DEGREE',#142);
#144=IFCSHAPEREPRESENTATION(#24,'Body','SweptSolid',(#139));
#145=IFCPRODUCTDEFINITIONSHAPE($,$,(#144));
#146=IFCAXIS2PLACEMENT3D(#3,$,$);
#147=IFCLOCALPLACEMENT(#107,#146);
#148=IFCOPENINGELEMENT('0bZ1dmlPcQkDiPF2ebFTcu',#18,'Basic Wall:Generic - 200mm:1602451',$,'Opening',#147,#145,'1604424');
#149=IFCRELVOIDSELEMENT('0lXr1u7fwNegdIDkUGV7$M',#18,$,$,#131,#148);
#150=IFCMATERIALLAYERSETUSAGE(#88,.AXIS2.,.NEGATIVE.,100.);
#151=IFCPROPERTYSET('2QDaXjCqnM2lwDnT4YZKOG',#18,'Pset_QuantityTakeOff',$,(#91));
#152=IFCPROPERTYSINGLEVALUE('Reference',$,IFCLABEL('Generic - 200mm'),$);
#153=IFCPROPERTYSET('0Fq4d35XNi$pPQoixngibh',#18,'Pset_ReinforcementBarPitchOfWall',$,(#152));
#154=IFCPROPERTYSET('2uz4Zj0E3PezheMaz1kRZH',#18,'Pset_WallCommon',$,(#91,#95,#96,#97));
#155=IFCPROPERTYSET('3nZtyvZeHrTX9B8q5y4BEb',#18,'Pset_OpeningElementCommon',$,(#91));
#156=IFCPROPERTYSET('1wMjEw983n80paQKIFQCee',#18,'Pset_QuantityTakeOff',$,(#91));
#157=IFCRELDEFINESBYPROPERTIES('0RvKvgANma63Mw0FuKRjim',#18,$,$,(#131),#151);
#158=IFCRELDEFINESBYPROPERTIES('0$OuxHvwzb2bcsgwKYIqml',#18,$,$,(#131),#153);
#159=IFCRELDEFINESBYPROPERTIES('2BWN7stCl8tPRiZmOC2Gi2',#18,$,$,(#131),#154);
#160=IFCRELDEFINESBYPROPERTIES('1B5WWoTxXaF_Tt3HCnsX_9',#18,$,$,(#148),#155);
#161=IFCRELDEFINESBYPROPERTIES('2fm8Oe2_Aa$M$GWdlXhBaj',#18,$,$,(#148),#156);
#162=IFCCARTESIANPOINT((5400.,3500.,0.));
#163=IFCAXIS2PLACEMENT3D(#162,#9,#8);
#164=IFCLOCALPLACEMENT(#34,#163);
#165=IFCCARTESIANPOINT((3500.,0.));
#166=IFCPOLYLINE((#4,#165));
#167=IFCSHAPEREPRESENTATION(#23,'Axis','Curve2D',(#166));
#168=IFCCARTESIANPOINT((1750.0000000000011,2.1316282072803006E-13));
#169=IFCAXIS2PLACEMENT2D(#168,#12);
#170=IFCRECTANGLEPROFILEDEF(.AREA.,$,#169,3500.0000000000023,200.);
#171=IFCAXIS2PLACEMENT3D(#3,$,$);
#172=IFCEXTRUDEDAREASOLID(#170,#171,#9,2695.2000000000003);
#173=IFCCARTESIANPOINT((200.,0.));
#174=IFCCARTESIANPOINT((3300.,0.));
#175=IFCCARTESIANPOINT((3500.,0.));
#176=IFCCARTESIANPOINT((3500.,200.));
#177=IFCCARTESIANPOINT((0.,200.));
#178=IFCPOLYLINE((#4,#173,#174,#175,#176,#177,#4));
#179=IFCCARTESIANPOINT((0.,-100.,2695.2000000000003));
#180=IFCAXIS2PLACEMENT3D(#179,#10,#7);
#181=IFCPLANE(#180);
#182=IFCCARTESIANPOINT((0.,-100.,2695.2000000000003));
#183=IFCAXIS2PLACEMENT3D(#182,$,$);
#184=IFCPOLYGONALBOUNDEDHALFSPACE(#181,.T.,#183,#178);
#185=IFCBOOLEANCLIPPINGRESULT(.DIFFERENCE.,#172,#184);
#186=IFCSTYLEDITEM(#172,(#77),$);
#187=IFCSHAPEREPRESENTATION(#24,'Body','Clipping',(#185));
#188=IFCPRODUCTDEFINITIONSHAPE($,$,(#167,#187));
#189=IFCWALLSTANDARDCASE('1YYXjRkjn7ywhxb576N3gT',#18,'Basic Wall:Generic - 200mm:1602520',$,'Basic Wall:Generic - 200mm',#164,#188,'1602520');
#190=IFCAXIS2PLACEMENT3D(#3,$,$);
#192=IFCCARTESIANPOINT((0.,0.));
#193=IFCAXIS2PLACEMENT2D(#192,#11);
#194=IFCRECTANGLEPROFILEDEF(.AREA.,$,#193,2000.0000000000002,999.99999999999898);
#195=IFCCARTESIANPOINT((2400.,-100.,1500.));
#196=IFCAXIS2PLACEMENT3D(#195,#7,#10);
#197=IFCEXTRUDEDAREASOLID(#194,#196,#9,200.);
#198=IFCSHAPEREPRESENTATION(#24,'Body','SweptSolid',(#197));
#199=IFCPRODUCTDEFINITIONSHAPE($,$,(#198));
#200=IFCAXIS2PLACEMENT3D(#3,$,$);
#201=IFCLOCALPLACEMENT(#164,#200);
#202=IFCOPENINGELEMENT('2J3JLNWw7PEAyUkF6rwTIF',#18,'Basic Wall:Generic - 200mm:1602520',$,'Opening',#201,#199,'1604795');
#203=IFCRELVOIDSELEMENT('1YsQlLFI9nJwjzE5wS$csb',#18,$,$,#189,#202);
#204=IFCAXIS2PLACEMENT3D(#3,$,$);
#206=IFCCARTESIANPOINT((0.,0.));
#207=IFCAXIS2PLACEMENT2D(#206,#11);
#208=IFCRECTANGLEPROFILEDEF(.AREA.,$,#207,2000.0000000000002,900.00000000000011);
#209=IFCCARTESIANPOINT((1150.,-100.,1500.));
#210=IFCAXIS2PLACEMENT3D(#209,#7,#10);
#211=IFCEXTRUDEDAREASOLID(#208,#210,#9,200.);
#212=IFCSHAPEREPRESENTATION(#24,'Body','SweptSolid',(#211));
#213=IFCPRODUCTDEFINITIONSHAPE($,$,(#212));
#214=IFCAXIS2PLACEMENT3D(#3,$,$);
#215=IFCLOCALPLACEMENT(#164,#214);
#216=IFCOPENINGELEMENT('1ReehR597rkDvZr7TfoodP',#18,'Basic Wall:Generic - 200mm:1602520',$,'Opening',#215,#213,'1611689');
#217=IFCRELVOIDSELEMENT('0HMs0f_UIZmTGmsw7sj_mn',#18,$,$,#189,#216);
#218=IFCMATERIALLAYERSETUSAGE(#88,.AXIS2.,.NEGATIVE.,100.);
#219=IFCPROPERTYSET('1SJdZV0S_OrZrhUQq06tqY',#18,'Pset_QuantityTakeOff',$,(#91));
#220=IFCPROPERTYSINGLEVALUE('Reference',$,IFCLABEL('Generic - 200mm'),$);
#221=IFCPROPERTYSET('0$SVSPVBLoQeaLXt4UpGeB',#18,'Pset_ReinforcementBarPitchOfWall',$,(#220));
#222=IFCPROPERTYSET('1GfUufRn87WWk1lXFWSQJX',#18,'Pset_WallCommon',$,(#91,#95,#96,#97));
#223=IFCPROPERTYSET('33XGLKSI7HhwF0icPaxDKB',#18,'Pset_OpeningElementCommon',$,(#91));
#224=IFCPROPERTYSET('1WDQ7jHNRASBi3Hg5620uQ',#18,'Pset_QuantityTakeOff',$,(#91));
#225=IFCPROPERTYSET('0ryIWPV7V2GNxhSZ$xx11t',#18,'Pset_OpeningElementCommon',$,(#91));
#226=IFCPROPERTYSET('2kKXDAOA4hT5A9ATtAWLpC',#18,'Pset_QuantityTakeOff',$,(#91));
#227=IFCRELDEFINESBYPROPERTIES('3cHZWkAiNPZCzyvSAYUoyw',#18,$,$,(#189),#219);
#228=IFCRELDEFINESBYPROPERTIES('3BPNnVG$gi0clX2YAt484E',#18,$,$,(#189),#221);
#229=IFCRELDEFINESBYPROPERTIES('1dfThfdLOitLpVO6TgBS8K',#18,$,$,(#189),#222);
#230=IFCRELDEFINESBYPROPERTIES('3v62$pdcHEMCvC$ltcBVuj',#18,$,$,(#202),#223);
#231=IFCRELDEFINESBYPROPERTIES('15bP_Iz4f2pQ7Ze3sNU7d2',#18,$,$,(#202),#224);
#232=IFCRELDEFINESBYPROPERTIES('2QYcaZPXcmys2$hD1_dIPm',#18,$,$,(#216),#225);
#233=IFCRELDEFINESBYPROPERTIES('2dJJU24_$xqxBtnnGWsepc',#18,$,$,(#216),#226);
#234=IFCCARTESIANPOINT((5300.,100.,0.));
#235=IFCAXIS2PLACEMENT3D(#234,#9,#6);
#236=IFCLOCALPLACEMENT(#34,#235);
#237=IFCCARTESIANPOINT((5100.,0.));
#238=IFCPOLYLINE((#4,#237));
#239=IFCSHAPEREPRESENTATION(#23,'Axis','Curve2D',(#238));
#240=IFCCARTESIANPOINT((2550.,1.4210854715202004E-14));
#241=IFCAXIS2PLACEMENT2D(#240,#12);
#242=IFCRECTANGLEPROFILEDEF(.AREA.,$,#241,5100.,200.);
#243=IFCAXIS2PLACEMENT3D(#3,$,$);
#244=IFCEXTRUDEDAREASOLID(#242,#243,#9,2695.2000000000003);
#245=IFCCARTESIANPOINT((5100.,0.));
#246=IFCCARTESIANPOINT((5100.,200.));
#247=IFCCARTESIANPOINT((-0.,200.));
#248=IFCPOLYLINE((#4,#245,#246,#247,#4));
#249=IFCCARTESIANPOINT((0.,-100.,2695.2000000000003));
#250=IFCAXIS2PLACEMENT3D(#249,#10,#6);
#251=IFCPLANE(#250);
#252=IFCCARTESIANPOINT((0.,-100.,2695.2000000000003));
#253=IFCAXIS2PLACEMENT3D(#252,$,$);
#254=IFCPOLYGONALBOUNDEDHALFSPACE(#251,.T.,#253,#248);
#255=IFCBOOLEANCLIPPINGRESULT(.DIFFERENCE.,#244,#254);
#256=IFCSTYLEDITEM(#244,(#77),$);
#257=IFCSHAPEREPRESENTATION(#24,'Body','Clipping',(#255));
#258=IFCPRODUCTDEFINITIONSHAPE($,$,(#239,#257));
#259=IFCWALLSTANDARDCASE('1YYXjRkjn7ywhxb576N3rZ',#18,'Basic Wall:Generic - 200mm:1602598',$,'Basic Wall:Generic - 200mm',#236,#258,'1602598');
#260=IFCMATERIALLAYERSETUSAGE(#88,.AXIS2.,.NEGATIVE.,100.);
#261=IFCPROPERTYSET('1TsoFTu01BnsyIP1UevqVC',#18,'Pset_QuantityTakeOff',$,(#91));
#262=IFCPROPERTYSINGLEVALUE('Reference',$,IFCLABEL('Generic - 200mm'),$);
#263=IFCPROPERTYSET('2aZLjBxptCBRrQWpev6$DL',#18,'Pset_ReinforcementBarPitchOfWall',$,(#262));
#264=IFCPROPERTYSET('21kuThpxjEnNsqaOt3N_BO',#18,'Pset_WallCommon',$,(#91,#95,#96,#97));
#265=IFCRELDEFINESBYPROPERTIES('2gTm0oMmshVlxxR3aY1f_I',#18,$,$,(#259),#261);
#266=IFCRELDEFINESBYPROPERTIES('3$4YQWN3pU9664G6AdAqPT',#18,$,$,(#259),#263);
#267=IFCRELDEFINESBYPROPERTIES('1_xXbtea8BBckKrMj7q53$',#18,$,$,(#259),#264);
#268=IFCCARTESIANPOINT((3200.,6300.,0.));
#269=IFCAXIS2PLACEMENT3D(#268,#9,#8);
#270=IFCLOCALPLACEMENT(#34,#269);
#271=IFCCARTESIANPOINT((3000.,0.));
#272=IFCPOLYLINE((#4,#271));
#273=IFCSHAPEREPRESENTATION(#23,'Axis','Curve2D',(#272));
#274=IFCCARTESIANPOINT((1500.0000000000007,1.2789769243681803E-13));
#275=IFCAXIS2PLACEMENT2D(#274,#12);
#276=IFCRECTANGLEPROFILEDEF(.AREA.,$,#275,3000.0000000000014,200.);
#277=IFCAXIS2PLACEMENT3D(#3,$,$);
#278=IFCEXTRUDEDAREASOLID(#276,#277,#9,2695.2000000000003);
#279=IFCCARTESIANPOINT((2800.,0.));
#280=IFCCARTESIANPOINT((3000.,0.));
#281=IFCCARTESIANPOINT((3000.,200.));
#282=IFCCARTESIANPOINT((2800.,200.));
#283=IFCCARTESIANPOINT((0.,200.));
#284=IFCPOLYLINE((#4,#279,#280,#281,#282,#283,#4));
#285=IFCCARTESIANPOINT((0.,-100.,2695.2000000000003));
#286=IFCAXIS2PLACEMENT3D(#285,#10,#7);
#287=IFCPLANE(#286);
#288=IFCCARTESIANPOINT((0.,-100.,2695.2000000000003));
#289=IFCAXIS2PLACEMENT3D(#288,$,$);
#290=IFCPOLYGONALBOUNDEDHALFSPACE(#287,.T.,#289,#284);
#291=IFCBOOLEANCLIPPINGRESULT(.DIFFERENCE.,#278,#290);
#292=IFCSTYLEDITEM(#278,(#77),$);
#293=IFCSHAPEREPRESENTATION(#24,'Body','Clipping',(#291));
#294=IFCPRODUCTDEFINITIONSHAPE($,$,(#273,#293));
#295=IFCWALLSTANDARDCASE('1YYXjRkjn7ywhxb576N3nB',#18,'Basic Wall:Generic - 200mm:1602830',$,'Basic Wall:Generic - 200mm',#270,#294,'1602830');
#296=IFCMATERIALLAYERSETUSAGE(#88,.AXIS2.,.NEGATIVE.,100.);
#297=IFCPROPERTYSET('3ntllzzmWP5y68Jc0PF_WJ',#18,'Pset_QuantityTakeOff',$,(#91));
#298=IFCPROPERTYSINGLEVALUE('Reference',$,IFCLABEL('Generic - 200mm'),$);
#299=IFCPROPERTYSET('3X0oX5hLjpCKLv3i2zjoO8',#18,'Pset_ReinforcementBarPitchOfWall',$,(#298));
#300=IFCPROPERTYSET('1lrGgbv4Ms7g0qUr4mFjIZ',#18,'Pset_WallCommon',$,(#91,#95,#96,#97));
#301=IFCRELDEFINESBYPROPERTIES('3UxVardKoTIYsgeLoMO$42',#18,$,$,(#295),#297);
#302=IFCRELDEFINESBYPROPERTIES('2N8o4tsX7gS0jUHRAgrisa',#18,$,$,(#295),#299);
#303=IFCRELDEFINESBYPROPERTIES('3VFBCV3b0ApNNecL6W7uEo',#18,$,$,(#295),#300);
#304=IFCCARTESIANPOINT((3300.,3400.,0.));
#305=IFCAXIS2PLACEMENT3D(#304,$,$);
#306=IFCLOCALPLACEMENT(#34,#305);
#307=IFCCARTESIANPOINT((2000.,0.));
#308=IFCPOLYLINE((#4,#307));
#309=IFCSHAPEREPRESENTATION(#23,'Axis','Curve2D',(#308));
#310=IFCCARTESIANPOINT((1000.0000000000007,-1.8474111129762605E-13));
#311=IFCAXIS2PLACEMENT2D(#310,#12);
#312=IFCRECTANGLEPROFILEDEF(.AREA.,$,#311,2000.0000000000014,200.);
#313=IFCAXIS2PLACEMENT3D(#3,$,$);
#314=IFCEXTRUDEDAREASOLID(#312,#313,#9,2695.2000000000003);
#315=IFCCARTESIANPOINT((2000.,0.));
#316=IFCCARTESIANPOINT((2000.,200.));
#317=IFCCARTESIANPOINT((-0.,200.));
#318=IFCPOLYLINE((#4,#315,#316,#317,#4));
#319=IFCCARTESIANPOINT((0.,-100.,2695.2000000000003));
#320=IFCAXIS2PLACEMENT3D(#319,#10,#5);
#321=IFCPLANE(#320);
#322=IFCCARTESIANPOINT((0.,-100.,2695.2000000000003));
#323=IFCAXIS2PLACEMENT3D(#322,$,$);
#324=IFCPOLYGONALBOUNDEDHALFSPACE(#321,.T.,#323,#318);
#325=IFCBOOLEANCLIPPINGRESULT(.DIFFERENCE.,#314,#324);
#326=IFCSTYLEDITEM(#314,(#77),$);
#327=IFCSHAPEREPRESENTATION(#24,'Body','Clipping',(#325));
#328=IFCPRODUCTDEFINITIONSHAPE($,$,(#309,#327));
#329=IFCWALLSTANDARDCASE('1YYXjRkjn7ywhxb576N3m0',#18,'Basic Wall:Generic - 200mm:1602885',$,'Basic Wall:Generic - 200mm',#306,#328,'1602885');
#330=IFCAXIS2PLACEMENT3D(#3,$,$);
#332=IFCCARTESIANPOINT((0.,-2.2737367544323206E-13));
#333=IFCAXIS2PLACEMENT2D(#332,#11);
#334=IFCRECTANGLEPROFILEDEF(.AREA.,$,#333,2000.0000000000002,1199.9999999999995);
#335=IFCCARTESIANPOINT((1100.,-100.,1500.));
#336=IFCAXIS2PLACEMENT3D(#335,#7,#10);
#337=IFCEXTRUDEDAREASOLID(#334,#336,#9,200.);
#338=IFCSHAPEREPRESENTATION(#24,'Body','SweptSolid',(#337));
#339=IFCPRODUCTDEFINITIONSHAPE($,$,(#338));
#340=IFCAXIS2PLACEMENT3D(#3,$,$);
#341=IFCLOCALPLACEMENT(#306,#340);
#342=IFCOPENINGELEMENT('0DzwLfHOrleAFhgt_Ph39G',#18,'Basic Wall:Generic - 200mm:1602885',$,'Opening',#341,#339,'1604759');
#343=IFCRELVOIDSELEMENT('1X$4sMG0hf_hY815qH8FRU',#18,$,$,#329,#342);
#344=IFCMATERIALLAYERSETUSAGE(#88,.AXIS2.,.NEGATIVE.,100.);
#345=IFCPROPERTYSET('3XiQkqy3kQORh2uSlJKdE4',#18,'Pset_QuantityTakeOff',$,(#91));
#346=IFCPROPERTYSINGLEVALUE('Reference',$,IFCLABEL('Generic - 200mm'),$);
#347=IFCPROPERTYSET('16X_jS_tfBFjIYfBBrvl5X',#18,'Pset_ReinforcementBarPitchOfWall',$,(#346));
#348=IFCPROPERTYSET('0v0LHlQn1vR1ecT5vLSje6',#18,'Pset_WallCommon',$,(#91,#95,#96,#97));
#349=IFCPROPERTYSET('1EJKUK1t4QLpe$3Kki0Nvb',#18,'Pset_OpeningElementCommon',$,(#91));
#350=IFCPROPERTYSET('2l9vbmD51HAGdHQ_K8rNh8',#18,'Pset_QuantityTakeOff',$,(#91));
#351=IFCRELDEFINESBYPROPERTIES('3XWBopP2kdH7hivtYPu5e0',#18,$,$,(#329),#345);
#352=IFCRELDEFINESBYPROPERTIES('2wIC17dfYeLwc8LNyiGJhG',#18,$,$,(#329),#347);
#353=IFCRELDEFINESBYPROPERTIES('0_osT$KZbRASzG_Yw1jHTb',#18,$,$,(#329),#348);
#354=IFCRELDEFINESBYPROPERTIES('25DhTp4ElBHlFE0m1Z11ek',#18,$,$,(#342),#349);
#355=IFCRELDEFINESBYPROPERTIES('2eR$akyk5HrXpihDv62MeZ',#18,$,$,(#342),#350);
#356=IFCCARTESIANPOINT((3100.,3400.,0.));
#357=IFCAXIS2PLACEMENT3D(#356,#9,#6);
#358=IFCLOCALPLACEMENT(#34,#357);
#359=IFCCARTESIANPOINT((1100.,0.));
#360=IFCPOLYLINE((#4,#359));
#361=IFCSHAPEREPRESENTATION(#23,'Axis','Curve2D',(#360));
#362=IFCCARTESIANPOINT((550.00000000000114,1.2079226507921703E-13));
#363=IFCAXIS2PLACEMENT2D(#362,#12);
#364=IFCRECTANGLEPROFILEDEF(.AREA.,$,#363,1100.0000000000014,200.);
#365=IFCAXIS2PLACEMENT3D(#3,$,$);
#366=IFCEXTRUDEDAREASOLID(#364,#365,#9,2695.2000000000003);
#367=IFCCARTESIANPOINT((1100.,0.));
#368=IFCCARTESIANPOINT((1100.,200.));
#369=IFCCARTESIANPOINT((0.,200.));
#370=IFCPOLYLINE((#4,#367,#368,#369,#4));
#371=IFCCARTESIANPOINT((0.,-100.,2695.2000000000003));
#372=IFCAXIS2PLACEMENT3D(#371,#10,#6);
#373=IFCPLANE(#372);
#374=IFCCARTESIANPOINT((0.,-100.,2695.2000000000003));
#375=IFCAXIS2PLACEMENT3D(#374,$,$);
#376=IFCPOLYGONALBOUNDEDHALFSPACE(#373,.T.,#375,#370);
#377=IFCBOOLEANCLIPPINGRESULT(.DIFFERENCE.,#366,#376);
#378=IFCSTYLEDITEM(#366,(#77),$);
#379=IFCSHAPEREPRESENTATION(#24,'Body','Clipping',(#377));
#380=IFCPRODUCTDEFINITIONSHAPE($,$,(#361,#379));
#381=IFCWALLSTANDARDCASE('2DM19d52z3gAPlkXPTpJnG',#18,'Basic Wall:Generic - 200mm:1606094',$,'Basic Wall:Generic - 200mm',#358,#380,'1606094');
#382=IFCMATERIALLAYERSETUSAGE(#88,.AXIS2.,.NEGATIVE.,100.);
#383=IFCPROPERTYSET('3I2K0mAiM0jKAAPRqVGIvK',#18,'Pset_QuantityTakeOff',$,(#91));
#384=IFCPROPERTYSINGLEVALUE('Reference',$,IFCLABEL('Generic - 200mm'),$);
#385=IFCPROPERTYSET('1VTtuCTwY51$4MzFbg0PGx',#18,'Pset_ReinforcementBarPitchOfWall',$,(#384));
#386=IFCPROPERTYSET('0pXcBu3XAyv4qIuuvf6Y9W',#18,'Pset_WallCommon',$,(#91,#95,#96,#97));
#387=IFCRELDEFINESBYPROPERTIES('1IYRN$kYcddzOXl$6md$nm',#18,$,$,(#381),#383);
#388=IFCRELDEFINESBYPROPERTIES('2YMCmGpIKnBafydFk05mqF',#18,$,$,(#381),#385);
#389=IFCRELDEFINESBYPROPERTIES('1QR$uLVE_YJqM8bPZ5Xcrj',#18,$,$,(#381),#386);
#390=IFCAXIS2PLACEMENT3D(#3,$,$);
#391=IFCLOCALPLACEMENT(#38,#390);
#392=IFCCARTESIANPOINT((-3333.3333333333298,-2933.333333333333));
#393=IFCCARTESIANPOINT((3166.6666666666729,-2933.333333333333));
#394=IFCCARTESIANPOINT((3166.6666666666674,366.66666666666697));
#395=IFCCARTESIANPOINT((166.66666666666728,366.66666666666697));
#396=IFCCARTESIANPOINT((166.66666666666382,2566.6666666666674));
#397=IFCCARTESIANPOINT((-3333.333333333338,2566.6666666666674));
#398=IFCPOLYLINE((#392,#393,#394,#395,#396,#397,#392));
#399=IFCARBITRARYCLOSEDPROFILEDEF(.AREA.,$,#398);
#400=IFCCARTESIANPOINT((2933.3333333333385,3333.3333333333239,0.));
#401=IFCAXIS2PLACEMENT3D(#400,#10,#7);
#402=IFCEXTRUDEDAREASOLID(#399,#401,#9,304.80000000000001);
#403=IFCCARTESIANPOINT((-2.8421709430404007E-13,4.5474735088646412E-13));
#404=IFCAXIS2PLACEMENT2D(#403,#11);
#405=IFCRECTANGLEPROFILEDEF(.AREA.,$,#404,1500.,2399.9999999999995);
#406=IFCCARTESIANPOINT((3200.,1750.,-304.80000000000001));
#407=IFCAXIS2PLACEMENT3D(#406,#9,#7);
#408=IFCEXTRUDEDAREASOLID(#405,#407,#9,304.80000000000001);
#409=IFCBOOLEANRESULT(.DIFFERENCE.,#402,#408);
#410=IFCCOLOURRGB($,0.50196078431372548,0.50196078431372548,0.50196078431372548);
#411=IFCSURFACESTYLERENDERING(#410,0.,$,$,$,$,IFCNORMALISEDRATIOMEASURE(0.5),IFCSPECULAREXPONENT(10.),.NOTDEFINED.);
#412=IFCSURFACESTYLE('Default Floor',.BOTH.,(#411));
#413=IFCPRESENTATIONSTYLEASSIGNMENT((#412));
#414=IFCSTYLEDITEM(#402,(#413),$);
#415=IFCSHAPEREPRESENTATION(#24,'Body','SweptSolid',(#409));
#416=IFCPRODUCTDEFINITIONSHAPE($,$,(#415));
#417=IFCSLAB('3IVn6KwFj83grW3cy2PbrE',#18,'Floor:Generic - 12":1609066',$,'Floor:Generic - 12"',#391,#416,'1609066',.FLOOR.);
#418=IFCCARTESIANPOINT((-6.8212102632969618E-13,0.));
#419=IFCAXIS2PLACEMENT2D(#418,#11);
#420=IFCRECTANGLEPROFILEDEF(.AREA.,$,#419,2400.0000000000018,1500.);
#421=IFCCARTESIANPOINT((3200.,1750.,-304.80000000000001));
#422=IFCAXIS2PLACEMENT3D(#421,#9,#6);
#423=IFCEXTRUDEDAREASOLID(#420,#422,#9,304.80000000000001);
#424=IFCSHAPEREPRESENTATION(#24,'Body','SweptSolid',(#423));
#425=IFCPRODUCTDEFINITIONSHAPE($,$,(#424));
#426=IFCAXIS2PLACEMENT3D(#3,$,$);
#427=IFCLOCALPLACEMENT(#391,#426);
#428=IFCOPENINGELEMENT('0jUlYYgyc3g7uppZXDDHs2',#18,'Floor:Generic - 12":441449',$,'Opening',#427,#425,'1610550');
#429=IFCRELVOIDSELEMENT('2GtOaZQcaTOrfudQfwtF1Y',#18,$,$,#417,#428);
#430=IFCSLABTYPE('1xZrMVYp52mhf4uMzw11Hi',#18,'Floor:Generic - 12"',$,$,(#456),$,'441449',$,.FLOOR.);
#431=IFCMATERIAL('Default Floor');
#432=IFCPRESENTATIONSTYLEASSIGNMENT((#412));
#433=IFCSTYLEDITEM($,(#432),$);
#434=IFCSTYLEDREPRESENTATION(#22,'Style','Material',(#433));
#435=IFCMATERIALDEFINITIONREPRESENTATION($,$,(#434),#431);
#436=IFCMATERIALLAYER(#431,304.80000000000001,$);
#437=IFCMATERIALLAYERSET((#436),'Floor:Generic - 12"');
#438=IFCMATERIALLAYERSETUSAGE(#437,.AXIS3.,.POSITIVE.,0.);
#439=IFCPROPERTYSINGLEVALUE('Reference',$,IFCIDENTIFIER('Generic - 12"'),$);
#440=IFCPROPERTYSET('2xrqGzwSprBWL0TiVmKLP$',#18,'Pset_QuantityTakeOff',$,(#439));
#441=IFCPROPERTYSINGLEVALUE('Reference',$,IFCLABEL('Generic - 12"'),$);
#442=IFCPROPERTYSET('0IfT6QxwI3HLf1nsam0PFv',#18,'Pset_ReinforcementBarPitchOfSlab',$,(#441));
#443=IFCPROPERTYSINGLEVALUE('IsExternal',$,IFCBOOLEAN(.F.),$);
#444=IFCPROPERTYSINGLEVALUE('LoadBearing',$,IFCBOOLEAN(.T.),$);
#445=IFCPROPERTYSINGLEVALUE('PitchAngle',$,IFCPLANEANGLEMEASURE(0.),$);
#446=IFCPROPERTYSET('0LPuUWVXX7R8dhe6tElrrp',#18,'Pset_SlabCommon',$,(#439,#443,#444,#445));
#447=IFCPROPERTYSET('1gSSQk$TNxquVxeWTtPnpg',#18,'Pset_OpeningElementCommon',$,(#439));
#448=IFCPROPERTYSET('26nSi_Qc_XHs0qXrYKPOrk',#18,'Pset_QuantityTakeOff',$,(#439));
#449=IFCRELDEFINESBYPROPERTIES('1pz36m848_n2YHMH0fw4FX',#18,$,$,(#417),#440);
#450=IFCRELDEFINESBYPROPERTIES('16AFzIxoLJjwiV3nqyEmPH',#18,$,$,(#417),#442);
#451=IFCRELDEFINESBYPROPERTIES('3QkvpT3rH4Com3N2mi$A3O',#18,$,$,(#417),#446);
#452=IFCRELDEFINESBYPROPERTIES('3LdXA1PMGiYbH2SMpjQf9l',#18,$,$,(#428),#447);
#453=IFCRELDEFINESBYPROPERTIES('3hDc4px8dlLCEUYKdlhXjI',#18,$,$,(#428),#448);
#454=IFCCLASSIFICATIONREFERENCE('https://www.csiresources.org/standards/uniformat','B1010','Floor Construction',#28);
#455=IFCPROPERTYSINGLEVALUE('Description',$,IFCTEXT('Generic Floor (Material By Category), 12" thick'),$);
#456=IFCPROPERTYSET('08jeqqdMvr9oQ2sJw84keo',#18,'Pset_ReinforcementBarPitchOfSlab',$,(#455));
#457=IFCPROPERTYSINGLEVALUE('Name',$,IFCLABEL('L1'),$);
#458=IFCPROPERTYSET('2l4vqu11LCaZAypUbzwyea',#18,'Pset_AirSideSystemInformation',$,(#457));
#459=IFCPROPERTYSINGLEVALUE('AboveGround',$,IFCLOGICAL(.U.),$);
#460=IFCPROPERTYSET('16L50AfyZF4hYq5TGET4H4',#18,'Pset_BuildingStoreyCommon',$,(#459));
#461=IFCPROPERTYSINGLEVALUE('Name',$,IFCLABEL('L1'),$);
#462=IFCPROPERTYSET('0Fxv$pCHYe$d1NPq668uup',#18,'Pset_ProductRequirements',$,(#461));
#463=IFCRELDEFINESBYPROPERTIES('3NFes7CBV81H0RHVpWu5ZF',#18,$,$,(#35),#458);
#464=IFCRELDEFINESBYPROPERTIES('2VdfSfkgzGoZi_3SgzE8$0',#18,$,$,(#35),#460);
#465=IFCRELDEFINESBYPROPERTIES('0Vxl9G1EBUZpUdM$cyum7J',#18,$,$,(#35),#462);
#466=IFCRELCONTAINEDINSPATIALSTRUCTURE('2JF4e6axWHqu3u0C5FZlmi',#18,$,$,(#81,#131,#189,#259,#295,#329,#381),#35);
#467=IFCPROPERTYSINGLEVALUE('Name',$,IFCLABEL('L2'),$);
#468=IFCPROPERTYSET('2rmMSkA7gc4STb1LnLF8UH',#18,'Pset_AirSideSystemInformation',$,(#467));
#469=IFCPROPERTYSET('1n34enW33Z_3Qq2Pm1kjQZ',#18,'Pset_BuildingStoreyCommon',$,(#459));
#470=IFCPROPERTYSINGLEVALUE('Name',$,IFCLABEL('L2'),$);
#471=IFCPROPERTYSET('3b2aIDv9vaOvbWU0hVWzaG',#18,'Pset_ProductRequirements',$,(#470));
#472=IFCRELDEFINESBYPROPERTIES('1kaSOYlg8iono8iflzrHRz',#18,$,$,(#39),#468);
#473=IFCRELDEFINESBYPROPERTIES('36oM8gyLQ5_Z6XoGK5uP1E',#18,$,$,(#39),#469);
#474=IFCRELDEFINESBYPROPERTIES('2r$5AllCk4VpjESRla$JzH',#18,$,$,(#39),#471);
#475=IFCRELCONTAINEDINSPATIALSTRUCTURE('1ZGO8hrFCHqw0v0066FpFv',#18,$,$,(#417),#39);
#476=IFCRELAGGREGATES('2KFB6YYWgXBmucZ8cm7uCP',#18,$,$,#27,(#42));
#477=IFCRELAGGREGATES('16_hfJTeCqU7LcG8m10BTS',#18,$,$,#42,(#32));
#478=IFCRELAGGREGATES('1yhDISh1T5aQqAoygxGIhP',#18,$,$,#32,(#35,#39));
#479=IFCPROPERTYSINGLEVALUE('NumberOfStoreys',$,IFCINTEGER(2),$);
#480=IFCPROPERTYSINGLEVALUE('IsLandmarked',$,IFCLOGICAL(.U.),$);
#481=IFCPROPERTYSET('01y_GmllCupEYuBgfGbhkd',#18,'Pset_BuildingCommon',$,(#479,#480));
#482=IFCRELDEFINESBYPROPERTIES('0vDjba2fshDEh0_KufwWht',#18,$,$,(#32),#481);
#483=IFCRELASSOCIATESMATERIAL('2J$i_JfCmXYcYeAgHVcpkX',#18,$,$,(#81),#89);
#484=IFCRELASSOCIATESMATERIAL('3WrdzChjRQ_0dTpbyvImoh',#18,$,$,(#131),#150);
#485=IFCRELASSOCIATESMATERIAL('2hmdYphWCD9nPeI237GA3F',#18,$,$,(#189),#218);
#486=IFCRELASSOCIATESMATERIAL('1uSHNnvggi1fcptQzGNL8q',#18,$,$,(#259),#260);
#487=IFCRELASSOCIATESMATERIAL('1xqRUZXyh2VGweaueQXSxi',#18,$,$,(#295),#296);
#488=IFCRELASSOCIATESMATERIAL('29EhewTtCkaOETyMoDCcgY',#18,$,$,(#329),#344);
#489=IFCRELASSOCIATESMATERIAL('14cwh6ZHH5iti$ltuU3LpU',#18,$,$,(#381),#382);
#490=IFCRELASSOCIATESMATERIAL('2QFCKnOK6apDe5DLeYm8dd',#18,$,$,(#417),#438);
#491=IFCRELASSOCIATESMATERIAL('22T9r9KB1F3JFgePfxkUGp',#18,$,$,(#90),#88);
#492=IFCRELASSOCIATESMATERIAL('0RkFpO4y91A56i7kETvvWZ',#18,$,$,(#430),#437);
#493=IFCRELDEFINESBYTYPE('0MSq_ijuC5q4PUKv4QkOsA',#18,$,$,(#81,#131,#189,#259,#295,#329,#381),#90);
#494=IFCRELDEFINESBYTYPE('3AVJtbOHyTnujdziMMd$qq',#18,$,$,(#417),#430);
#495=IFCRELCONNECTSPATHELEMENTS('207KMVTAMGM9zlvI67GZe1',#18,'1YYXjRkjn7ywhxb576N3eK|1YYXjRkjn7ywhxb576N3rZ','Structural',$,#81,#259,(),(),.ATEND.,.ATSTART.);
#496=IFCRELCONNECTSPATHELEMENTS('2EimxnMpo6uTr94H1lfji3',#18,'1YYXjRkjn7ywhxb576N3eK|1YYXjRkjn7ywhxb576N3hM','Structural',$,#81,#131,(),(),.ATSTART.,.ATEND.);
#497=IFCRELCONNECTSPATHELEMENTS('2g1OFC2v3rbCUpYilu3fyf',#18,'1YYXjRkjn7ywhxb576N3hM|1YYXjRkjn7ywhxb576N3nB','Structural',$,#131,#295,(),(),.ATSTART.,.ATEND.);
#498=IFCRELCONNECTSPATHELEMENTS('1nXUqEQhjADy3Mj7AuC27K',#18,'1YYXjRkjn7ywhxb576N3gT|1YYXjRkjn7ywhxb576N3m0','Structural',$,#189,#329,(),(),.ATEND.,.ATSTART.);
#499=IFCRELCONNECTSPATHELEMENTS('2lLuxMoMFfdpbWPX2FUPM1',#18,'1YYXjRkjn7ywhxb576N3gT|1YYXjRkjn7ywhxb576N3rZ','Structural',$,#189,#259,(),(),.ATSTART.,.ATEND.);
#500=IFCRELCONNECTSPATHELEMENTS('13uUT0JXvEshrYZBtG8D21',#18,'1YYXjRkjn7ywhxb576N3nB|1YYXjRkjn7ywhxb576N3m0','Structural',$,#295,#329,(),(),.ATSTART.,.ATEND.);
#501=IFCRELCONNECTSPATHELEMENTS('1nlTzqYZWthhlynX7RWlv8',#18,'1YYXjRkjn7ywhxb576N3nB|2DM19d52z3gAPlkXPTpJnG','Structural',$,#295,#381,(),(),.ATSTART.,.ATEND.);
#502=IFCRELCONNECTSPATHELEMENTS('1TOGYn_aSdug27pFYfDzG3',#18,'1YYXjRkjn7ywhxb576N3m0|2DM19d52z3gAPlkXPTpJnG','Structural',$,#329,#381,(),(),.ATSTART.,.ATSTART.);
#503=IFCPRESENTATIONLAYERASSIGNMENT('A-WALL-____-OTLN',$,(#54,#79,#110,#129,#167,#187,#239,#257,#273,#293,#309,#327,#361,#379),$);
#504=IFCPRESENTATIONLAYERASSIGNMENT('A-FLOR-____-OTLN',$,(#415),$);
#505=IFCRELASSOCIATESCLASSIFICATION('13dcyAXW0RZVXX7X2I0PW7',#18,'Exterior Walls','Exterior Walls:B2010',(#81,#131,#189,#259,#295,#329,#381),#102);
#506=IFCRELASSOCIATESCLASSIFICATION('2OmgKb8ano_LOvxKHev5kN',#18,'Floor Construction','Floor Construction:B1010',(#417),#454);
#507=IFCUNITASSIGNMENT((#19,#55,#143));
ENDSEC;

END-ISO-10303-21;