ISO-10303-21;
HEADER;
FILE_DESCRIPTION(('ViewDefinition [CoordinationView]','RevitIdentifiers [ContentGUID: cbb0ae2e-6350-4225-8ca4-af668662c38d, VersionGUID: 48c7dccf-9198-4daf-929c-b04ce332672e, NumberOfSaves: 29]','CoordinateReference [CoordinateBase: Shared Coordinates]'),'2;1');
FILE_NAME('01_03_002.ifc','2026-01-07T20:58:09+01:00',(''),(''),'ODA SDAI 24.6','Autodesk Revit 24.3.30.11 (ENU) - IFC 24.3.30.11','');
FILE_SCHEMA(('IFC4X3'));
ENDSEC;

DATA;
#1=IFCORGANIZATION($,'Autodesk Revit 2024 (ENU)',$,$,$);
#2=IFCAPPLICATION(#1,'2024','Autodesk Revit 2024 (ENU)','Revit');
#3=IFCCARTESIANPOINT((0.,0.,0.));
#4=IFCCARTESIANPOINT((0.,0.));
#5=IFCDIRECTION((1.,0.,0.));
#6=IFCDIRECTION((-1.,0.,0.));
#7=IFCDIRECTION((0.,1.,0.));
#8=IFCDIRECTION((0.,-1.,0.));
#9=IFCDIRECTION((0.,0.,1.));
#10=IFCDIRECTION((0.,0.,-1.));
#11=IFCDIRECTION((1.,0.));
#12=IFCDIRECTION((-1.,0.));
#13=IFCDIRECTION((0.,1.));
#14=IFCDIRECTION((0.,-1.));
#15=IFCPERSON($,'','h.helming',$,$,$,$,$);
#16=IFCORGANIZATION($,'Organization Name','Organization Description',$,$);
#17=IFCPERSONANDORGANIZATION(#15,#16,$);
#18=IFCOWNERHISTORY(#17,#2,$,.NOCHANGE.,$,$,$,1767804069);
#19=IFCSIUNIT(*,.LENGTHUNIT.,.MILLI.,.METRE.);
#20=IFCAXIS2PLACEMENT3D(#3,$,$);
#21=IFCDIRECTION((6.1230317691118863E-17,1.));
#22=IFCGEOMETRICREPRESENTATIONCONTEXT($,'Model',3,0.01,#20,#21);
#23=IFCGEOMETRICREPRESENTATIONSUBCONTEXT('Axis','Model',*,*,*,*,#22,$,.GRAPH_VIEW.,$);
#24=IFCGEOMETRICREPRESENTATIONSUBCONTEXT('Body','Model',*,*,*,*,#22,$,.MODEL_VIEW.,$);
#25=IFCGEOMETRICREPRESENTATIONSUBCONTEXT('Box','Model',*,*,*,*,#22,$,.MODEL_VIEW.,$);
#26=IFCGEOMETRICREPRESENTATIONSUBCONTEXT('FootPrint','Model',*,*,*,*,#22,$,.MODEL_VIEW.,$);
#27=IFCPROJECT('3BiAukOr129OoahsPvdJnz',#18,'Project Number',$,$,'Project Name','Project Status',(#22),#363);
#28=IFCCLASSIFICATION('CSI (Construction Specifications Institute)','1998',$,'Uniformat','UniFormat Classification','https://www.csiresources.org/standards/uniformat',$);
#29=IFCAXIS2PLACEMENT3D(#3,$,$);
#30=IFCLOCALPLACEMENT(#41,#29);
#31=IFCPOSTALADDRESS($,$,$,$,('Enter address hereAddress Line 2'),$,'','Boston','','MA');
#32=IFCBUILDING('3BiAukOr129OoahsPvdJny',#18,'Building Name',$,$,#30,$,'Building Name',.ELEMENT.,$,$,#31);
#33=IFCAXIS2PLACEMENT3D(#3,$,$);
#34=IFCLOCALPLACEMENT(#30,#33);
#35=IFCBUILDINGSTOREY('2JF4e6axWHqu3u0C1FZlmi',#18,'L1',$,'Level:8mm Head',#34,$,'L1',.ELEMENT.,0.);
#36=IFCCARTESIANPOINT((0.,0.,3000.));
#37=IFCAXIS2PLACEMENT3D(#36,$,$);
#38=IFCLOCALPLACEMENT(#30,#37);
#39=IFCBUILDINGSTOREY('1ZGO8hrFCHqw0v0026FpFv',#18,'L2',$,'Level:8mm Head',#38,$,'L2',.ELEMENT.,3000.);
#40=IFCAXIS2PLACEMENT3D(#3,$,$);
#41=IFCLOCALPLACEMENT($,#40);
#42=IFCSITE('3BiAukOr129OoahsPvdJn$',#18,'Default',$,$,#41,$,$,.ELEMENT.,(42,21,31,401672),(-71,-3,-24,-345703),0.,$,$);
#43=IFCPROPERTYSINGLEVALUE('Reference',$,IFCIDENTIFIER('Project Information'),$);
#44=IFCPROPERTYSET('2mFJcO6I01h0OYRLOICO3c',#18,'Pset_SiteCommon',$,(#43));
#45=IFCPROPERTYSINGLEVALUE('IsExternal',$,IFCBOOLEAN(.F.),$);
#46=IFCPROPERTYSET('0O$B2PbAODr9jYnpcaZGJT',#18,'Pset_SpaceCommon',$,(#43,#45));
#47=IFCRELDEFINESBYPROPERTIES('2fDrcjst0HFayqQ3dY1cGQ',#18,$,$,(#42),#44);
#48=IFCRELDEFINESBYPROPERTIES('1lYkP70lXSGXnZeJnLC8MY',#18,$,$,(#42),#46);
#55=IFCAXIS2PLACEMENT3D(#3,$,$);
#56=IFCLOCALPLACEMENT(#34,#55);
#57=IFCCARTESIANPOINT((-2344.4444444444412,-1777.7777777777787));
#58=IFCCARTESIANPOINT((3155.5555555555597,-1777.7777777777787));
#59=IFCCARTESIANPOINT((3155.5555555555534,2022.2222222222229));
#60=IFCCARTESIANPOINT((-244.44444444444829,2022.2222222222226));
#61=IFCCARTESIANPOINT((-244.44444444444582,422.22222222222223));
#62=IFCCARTESIANPOINT((-244.44444444444412,-777.77777777777726));
#63=IFCCARTESIANPOINT((-444.44444444444412,-777.77777777777771));
#64=IFCCARTESIANPOINT((-444.44444444444548,322.22222222222217));
#65=IFCCARTESIANPOINT((-2344.4444444444448,322.22222222222251));
#66=IFCPOLYLINE((#57,#58,#59,#60,#61,#62,#63,#64,#65,#57));
#67=IFCARBITRARYCLOSEDPROFILEDEF(.AREA.,$,#66);
#68=IFCCARTESIANPOINT((4844.4444444444489,1977.7777777777628,0.));
#69=IFCAXIS2PLACEMENT3D(#68,$,$);
#70=IFCEXTRUDEDAREASOLID(#67,#69,#9,3000.);
#71=IFCSIUNIT(*,.PLANEANGLEUNIT.,$,.RADIAN.);
#72=IFCDIMENSIONALEXPONENTS(0,0,0,0,0,0,0);
#73=IFCMEASUREWITHUNIT(IFCPLANEANGLEMEASURE(0.017453292519943278),#71);
#74=IFCCONVERSIONBASEDUNIT(#72,.PLANEANGLEUNIT.,'DEGREE',#73);
#75=IFCSIUNIT(*,.AREAUNIT.,$,.SQUARE_METRE.);
#76=IFCSHAPEREPRESENTATION(#24,'Body','SweptSolid',(#70));
#77=IFCPRODUCTDEFINITIONSHAPE($,$,(#76));
#78=IFCSPACE('3N9Z0YGDv8JuEhl24cnvVA',#18,'132',$,$,#56,#77,'room',.ELEMENT.,.NOTDEFINED.,$);
#79=IFCSPACETYPE('3N9Z0YGDv8JuEhj24cnvVA',#18,'room 132:1603865',$,$,$,$,'1603865',$,.NOTDEFINED.,$);
#80=IFCPROPERTYSINGLEVALUE('Reference',$,IFCIDENTIFIER('room 132'),$);
#81=IFCPROPERTYSET('00b1HihGc2gRqr1IR9hS$Q',#18,'Pset_SpaceCommon',$,(#45,#80));
#82=IFCPROPERTYSET('3$A57RpYs0rKmRPonmObYM',#18,'Pset_SpaceHeaterTypeCommon',$,(#80));
#83=IFCRELDEFINESBYPROPERTIES('1GXu_m0WhgKFZbVJ4u$mFl',#18,$,$,(#78),#81);
#84=IFCRELDEFINESBYPROPERTIES('3XHYxggGAD_MXFpQySi87C',#18,$,$,(#78),#82);
#85=IFCAXIS2PLACEMENT3D(#3,$,$);
#86=IFCLOCALPLACEMENT(#34,#85);
#87=IFCCARTESIANPOINT((-4057.142857142856,-2014.2857142857144));
#88=IFCCARTESIANPOINT((3742.8571428571468,-2014.2857142857144));
#89=IFCCARTESIANPOINT((3742.8571428571408,1485.7142857142858));
#90=IFCCARTESIANPOINT((1542.8571428571386,1485.7142857142856));
#91=IFCCARTESIANPOINT((-457.14285714285938,1485.7142857142853));
#92=IFCCARTESIANPOINT((-457.14285714285643,-214.28571428571527));
#93=IFCCARTESIANPOINT((-4057.1428571428587,-214.28571428571536));
#94=IFCPOLYLINE((#87,#88,#89,#90,#91,#92,#93,#87));
#95=IFCARBITRARYCLOSEDPROFILEDEF(.AREA.,$,#94);
#96=IFCCARTESIANPOINT((3942.8571428571499,3985.7142857142735,0.));
#97=IFCAXIS2PLACEMENT3D(#96,#9,#6);
#98=IFCEXTRUDEDAREASOLID(#95,#97,#9,3000.);
#99=IFCSHAPEREPRESENTATION(#24,'Body','SweptSolid',(#98));
#100=IFCPRODUCTDEFINITIONSHAPE($,$,(#99));
#101=IFCSPACE('3N9Z0YGDv8JuEhl24cnvVF',#18,'133',$,$,#86,#100,'room',.ELEMENT.,.NOTDEFINED.,$);
#102=IFCSPACETYPE('3N9Z0YGDv8JuEhj24cnvVF',#18,'room 133:1603868',$,$,$,$,'1603868',$,.NOTDEFINED.,$);
#103=IFCPROPERTYSINGLEVALUE('Reference',$,IFCIDENTIFIER('room 133'),$);
#104=IFCPROPERTYSET('1AXEovbNP6_NMaUbGZ4VvT',#18,'Pset_SpaceCommon',$,(#45,#103));
#105=IFCPROPERTYSET('3gIGEwALs9X9zLqoJ185jR',#18,'Pset_SpaceHeaterTypeCommon',$,(#103));
#106=IFCRELDEFINESBYPROPERTIES('0Q05iV680RIZhsA4uX7dBN',#18,$,$,(#101),#104);
#107=IFCRELDEFINESBYPROPERTIES('39I1x11smaQRiI1yX7Sz_c',#18,$,$,(#101),#105);
#108=IFCAXIS2PLACEMENT3D(#3,$,$);
#109=IFCLOCALPLACEMENT(#34,#108);
#110=IFCCARTESIANPOINT((-2.2737367544323206E-13,0.));
#111=IFCAXIS2PLACEMENT2D(#110,#11);
#112=IFCRECTANGLEPROFILEDEF(.AREA.,$,#111,2100.0000000000027,2100.0000000000009);
#113=IFCCARTESIANPOINT((1250.,1250.,0.));
#114=IFCAXIS2PLACEMENT3D(#113,$,$);
#115=IFCEXTRUDEDAREASOLID(#112,#114,#9,3000.);
#116=IFCSHAPEREPRESENTATION(#24,'Body','SweptSolid',(#115));
#117=IFCPRODUCTDEFINITIONSHAPE($,$,(#116));
#118=IFCSPACE('3N9Z0YGDv8JuEhl24cnvVC',#18,'134',$,$,#109,#117,'room',.ELEMENT.,.NOTDEFINED.,$);
#119=IFCSPACETYPE('3N9Z0YGDv8JuEhj24cnvVC',#18,'room 134:1603871',$,$,$,$,'1603871',$,.NOTDEFINED.,$);
#120=IFCPROPERTYSINGLEVALUE('Reference',$,IFCIDENTIFIER('room 134'),$);
#121=IFCPROPERTYSET('1bxofKpjE$oITamsTchxus',#18,'Pset_SpaceCommon',$,(#45,#120));
#122=IFCPROPERTYSET('2uJBGTyoUW8CK9e8txTBuv',#18,'Pset_SpaceHeaterTypeCommon',$,(#120));
#123=IFCRELDEFINESBYPROPERTIES('2ZJhoVLV26smh_yRsRvIte',#18,$,$,(#118),#121);
#124=IFCRELDEFINESBYPROPERTIES('0ATmi_snyQy8KKcrPkA8bm',#18,$,$,(#118),#122);
#125=IFCCARTESIANPOINT((8200.,100.,0.));
#126=IFCAXIS2PLACEMENT3D(#125,#9,#6);
#127=IFCLOCALPLACEMENT(#34,#126);
#128=IFCCARTESIANPOINT((8200.,0.));
#129=IFCPOLYLINE((#4,#128));
#130=IFCSHAPEREPRESENTATION(#23,'Axis','Curve2D',(#129));
#131=IFCCARTESIANPOINT((4100.0000000000009,1.4210854715202004E-14));
#132=IFCAXIS2PLACEMENT2D(#131,#12);
#133=IFCRECTANGLEPROFILEDEF(.AREA.,$,#132,8200.0000000000018,199.99999999999997);
#134=IFCAXIS2PLACEMENT3D(#3,$,$);
#135=IFCEXTRUDEDAREASOLID(#133,#134,#9,3000.);
#136=IFCCOLOURRGB($,0.75294117647058822,0.75294117647058822,0.75294117647058822);
#137=IFCSURFACESTYLERENDERING(#136,0.,$,$,$,$,IFCNORMALISEDRATIOMEASURE(0.5),IFCSPECULAREXPONENT(10.),.NOTDEFINED.);
#138=IFCSURFACESTYLE('Default Wall',.BOTH.,(#137));
#139=IFCSTYLEDITEM(#135,(#138),$);
#140=IFCSHAPEREPRESENTATION(#24,'Body','SweptSolid',(#135));
#141=IFCPRODUCTDEFINITIONSHAPE($,$,(#130,#140));
#142=IFCWALL('3cmsjRvPb4wf9t15K203XR',#18,'Basic Wall:Generic - 200mm:1602421',$,'Basic Wall:Generic - 200mm',#127,#141,'1602421',.NOTDEFINED.);
#143=IFCMATERIAL('Default Wall',$,'Miscellaneous');
#144=IFCSTYLEDITEM($,(#138),$);
#145=IFCSTYLEDREPRESENTATION(#22,'Style','Material',(#144));
#146=IFCMATERIALDEFINITIONREPRESENTATION($,$,(#145),#143);
#147=IFCMATERIALLAYER(#143,200.,$,'Layer',$,'Miscellaneous',$);
#148=IFCMATERIALLAYERSET((#147),'Basic Wall:Generic - 200mm',$);
#149=IFCWALLTYPE('1xZrMVYp52mhf4uMzw11Hk',#18,'Basic Wall:Generic - 200mm',$,$,(#163),$,'441451',$,.STANDARD.);
#150=IFCPROPERTYSINGLEVALUE('Reference',$,IFCIDENTIFIER('Generic - 200mm'),$);
#151=IFCPROPERTYSET('2n5k7t7fOU81M1LShUbZ9e',#18,'Pset_EnvironmentalImpactIndicators',$,(#150));
#152=IFCPROPERTYSINGLEVALUE('Reference',$,IFCLABEL('Generic - 200mm'),$);
#153=IFCPROPERTYSET('1Zg$z9wfp_yn1qmVuaVJr4',#18,'Pset_ReinforcementBarPitchOfWall',$,(#152));
#154=IFCPROPERTYSINGLEVALUE('IsExternal',$,IFCBOOLEAN(.T.),$);
#155=IFCPROPERTYSINGLEVALUE('LoadBearing',$,IFCBOOLEAN(.F.),$);
#156=IFCPROPERTYSINGLEVALUE('ExtendToStructure',$,IFCBOOLEAN(.F.),$);
#157=IFCPROPERTYSET('0PuWgGrdUbxWiNNlrVKJ_B',#18,'Pset_WallCommon',$,(#150,#154,#155,#156));
#158=IFCRELDEFINESBYPROPERTIES('3l_fEKNAUVqBGitfyI_2CQ',#18,$,$,(#142),#151);
#159=IFCRELDEFINESBYPROPERTIES('2qxTWOqTUzWtxU0KW48fJ7',#18,$,$,(#142),#153);
#160=IFCRELDEFINESBYPROPERTIES('1rvpbG_zTte5EtDbtEQl9a',#18,$,$,(#142),#157);
#161=IFCCLASSIFICATIONREFERENCE('https://www.csiresources.org/standards/uniformat','B2010','Exterior Walls',#28,'',$);
#162=IFCPROPERTYSINGLEVALUE('Description',$,IFCTEXT('Generic Wall (Material By Category), 200mm thick'),$);
#163=IFCPROPERTYSET('2L7lvTstnIeeydfwzfZZLR',#18,'Pset_ReinforcementBarPitchOfWall',$,(#162));
#164=IFCCARTESIANPOINT((8200.,6100.,0.));
#165=IFCAXIS2PLACEMENT3D(#164,#9,#6);
#166=IFCLOCALPLACEMENT(#34,#165);
#167=IFCCARTESIANPOINT((8200.,0.));
#168=IFCPOLYLINE((#4,#167));
#169=IFCSHAPEREPRESENTATION(#23,'Axis','Curve2D',(#168));
#170=IFCCARTESIANPOINT((4100.0000000000009,-1.4210854715202004E-14));
#171=IFCAXIS2PLACEMENT2D(#170,#12);
#172=IFCRECTANGLEPROFILEDEF(.AREA.,$,#171,8200.0000000000018,200.);
#173=IFCAXIS2PLACEMENT3D(#3,$,$);
#174=IFCEXTRUDEDAREASOLID(#172,#173,#9,3000.);
#175=IFCSTYLEDITEM(#174,(#138),$);
#176=IFCSHAPEREPRESENTATION(#24,'Body','SweptSolid',(#174));
#177=IFCPRODUCTDEFINITIONSHAPE($,$,(#169,#176));
#178=IFCWALL('3cmsjRvPb4wf9t15K203_D',#18,'Basic Wall:Generic - 200mm:1602723',$,'Basic Wall:Generic - 200mm',#166,#177,'1602723',.NOTDEFINED.);
#179=IFCPROPERTYSET('1daWYlIRM0r0FyhKSlSET0',#18,'Pset_EnvironmentalImpactIndicators',$,(#150));
#180=IFCPROPERTYSINGLEVALUE('Reference',$,IFCLABEL('Generic - 200mm'),$);
#181=IFCPROPERTYSET('3ItXNEtxymo_u9isFNHJXK',#18,'Pset_ReinforcementBarPitchOfWall',$,(#180));
#182=IFCPROPERTYSET('0DelT2wCzoKCuw_UtDp7c5',#18,'Pset_WallCommon',$,(#150,#154,#155,#156));
#183=IFCRELDEFINESBYPROPERTIES('1Xgkw0864iyy_s$u3chNdN',#18,$,$,(#178),#179);
#184=IFCRELDEFINESBYPROPERTIES('0pdyOdfPqEtAbC$BJmgX8y',#18,$,$,(#178),#181);
#185=IFCRELDEFINESBYPROPERTIES('1YrYn3PfSifvs8PILrI4$a',#18,$,$,(#178),#182);
#186=IFCCARTESIANPOINT((100.,6000.,0.));
#187=IFCAXIS2PLACEMENT3D(#186,#9,#8);
#188=IFCLOCALPLACEMENT(#34,#187);
#189=IFCCARTESIANPOINT((5800.,-0.));
#190=IFCPOLYLINE((#4,#189));
#191=IFCSHAPEREPRESENTATION(#23,'Axis','Curve2D',(#190));
#192=IFCCARTESIANPOINT((2900.0000000000009,2.1316282072803006E-14));
#193=IFCAXIS2PLACEMENT2D(#192,#12);
#194=IFCRECTANGLEPROFILEDEF(.AREA.,$,#193,5800.0000000000018,200.00000000000003);
#195=IFCAXIS2PLACEMENT3D(#3,$,$);
#196=IFCEXTRUDEDAREASOLID(#194,#195,#9,3000.);
#197=IFCSTYLEDITEM(#196,(#138),$);
#198=IFCSHAPEREPRESENTATION(#24,'Body','SweptSolid',(#196));
#199=IFCPRODUCTDEFINITIONSHAPE($,$,(#191,#198));
#200=IFCWALL('3cmsjRvPb4wf9t15K203$P',#18,'Basic Wall:Generic - 200mm:1602807',$,'Basic Wall:Generic - 200mm',#188,#199,'1602807',.NOTDEFINED.);
#201=IFCPROPERTYSET('1QakD2m6vXifU0FyN_4IEX',#18,'Pset_EnvironmentalImpactIndicators',$,(#150));
#202=IFCPROPERTYSINGLEVALUE('Reference',$,IFCLABEL('Generic - 200mm'),$);
#203=IFCPROPERTYSET('3jifUz2uPf9c19G773rT5f',#18,'Pset_ReinforcementBarPitchOfWall',$,(#202));
#204=IFCPROPERTYSET('2zW4Rc5AXR6PmPvlVTCC3T',#18,'Pset_WallCommon',$,(#150,#154,#155,#156));
#205=IFCRELDEFINESBYPROPERTIES('2EitFPbohB1gwFTSwzYyW7',#18,$,$,(#200),#201);
#206=IFCRELDEFINESBYPROPERTIES('1uNEORk1PSqeeJTyRI3Fdh',#18,$,$,(#200),#203);
#207=IFCRELDEFINESBYPROPERTIES('3Fva5$VeQJCdp87HQmvngi',#18,$,$,(#200),#204);
#208=IFCCARTESIANPOINT((200.,2400.,0.));
#209=IFCAXIS2PLACEMENT3D(#208,$,$);
#210=IFCLOCALPLACEMENT(#34,#209);
#211=IFCCARTESIANPOINT((4200.,0.));
#212=IFCPOLYLINE((#4,#211));
#213=IFCSHAPEREPRESENTATION(#23,'Axis','Curve2D',(#212));
#214=IFCCARTESIANPOINT((2100.0000000000005,7.815970093361102E-14));
#215=IFCAXIS2PLACEMENT2D(#214,#12);
#216=IFCRECTANGLEPROFILEDEF(.AREA.,$,#215,4200.0000000000009,200.00000000000028);
#217=IFCAXIS2PLACEMENT3D(#3,$,$);
#218=IFCEXTRUDEDAREASOLID(#216,#217,#9,3000.);
#219=IFCSTYLEDITEM(#218,(#138),$);
#220=IFCSHAPEREPRESENTATION(#24,'Body','SweptSolid',(#218));
#221=IFCPRODUCTDEFINITIONSHAPE($,$,(#213,#220));
#222=IFCWALL('3cmsjRvPb4wf9t15K203w_',#18,'Basic Wall:Generic - 200mm:1602960',$,'Basic Wall:Generic - 200mm',#210,#221,'1602960',.NOTDEFINED.);
#223=IFCPROPERTYSET('1v3Lhm8b1gv0W8J$OZK5ym',#18,'Pset_EnvironmentalImpactIndicators',$,(#150));
#224=IFCPROPERTYSINGLEVALUE('Reference',$,IFCLABEL('Generic - 200mm'),$);
#225=IFCPROPERTYSET('2PkFHUnGOdC90hi0BscHG0',#18,'Pset_ReinforcementBarPitchOfWall',$,(#224));
#226=IFCPROPERTYSET('0fFmLJYbP09D12F9qFJNsq',#18,'Pset_WallCommon',$,(#150,#154,#155,#156));
#227=IFCRELDEFINESBYPROPERTIES('2zfdbipIGKqpXapV0qKoRq',#18,$,$,(#222),#223);
#228=IFCRELDEFINESBYPROPERTIES('0zrk4Oy3L73KLay6XROItp',#18,$,$,(#222),#225);
#229=IFCRELDEFINESBYPROPERTIES('1Jr1q4HII$sT$hAH6i4Ru_',#18,$,$,(#222),#226);
#230=IFCCARTESIANPOINT((4400.,4100.,0.));
#231=IFCAXIS2PLACEMENT3D(#230,$,$);
#232=IFCLOCALPLACEMENT(#34,#231);
#233=IFCCARTESIANPOINT((3600.,0.));
#234=IFCPOLYLINE((#4,#233));
#235=IFCSHAPEREPRESENTATION(#23,'Axis','Curve2D',(#234));
#236=IFCCARTESIANPOINT((1800.0000000000016,7.1054273576010019E-14));
#237=IFCAXIS2PLACEMENT2D(#236,#12);
#238=IFCRECTANGLEPROFILEDEF(.AREA.,$,#237,3600.0000000000018,200.);
#239=IFCAXIS2PLACEMENT3D(#3,$,$);
#240=IFCEXTRUDEDAREASOLID(#238,#239,#9,3000.);
#241=IFCSTYLEDITEM(#240,(#138),$);
#242=IFCSHAPEREPRESENTATION(#24,'Body','SweptSolid',(#240));
#243=IFCPRODUCTDEFINITIONSHAPE($,$,(#235,#242));
#244=IFCWALL('3cmsjRvPb4wf9t15K203qB',#18,'Basic Wall:Generic - 200mm:1603109',$,'Basic Wall:Generic - 200mm',#232,#243,'1603109',.NOTDEFINED.);
#245=IFCPROPERTYSET('2XQ4S19dOKdcLGbL0MN3rF',#18,'Pset_EnvironmentalImpactIndicators',$,(#150));
#246=IFCPROPERTYSINGLEVALUE('Reference',$,IFCLABEL('Generic - 200mm'),$);
#247=IFCPROPERTYSET('3HFhm2RnYvPJ1hx5GbzjGz',#18,'Pset_ReinforcementBarPitchOfWall',$,(#246));
#248=IFCPROPERTYSET('3x1rvqAgMTZ8pLaVGZrYFb',#18,'Pset_WallCommon',$,(#150,#154,#155,#156));
#249=IFCRELDEFINESBYPROPERTIES('1w3JAcPQpdPkZ7PT3bdE1m',#18,$,$,(#244),#245);
#250=IFCRELDEFINESBYPROPERTIES('2edzlSRr39x0Hus$bL2ZAJ',#18,$,$,(#244),#247);
#251=IFCRELDEFINESBYPROPERTIES('1iFO4Nf9rvzSp5iaS_hZD$',#18,$,$,(#244),#248);
#252=IFCCARTESIANPOINT((4500.,1200.,0.));
#253=IFCAXIS2PLACEMENT3D(#252,#9,#7);
#254=IFCLOCALPLACEMENT(#34,#253);
#255=IFCCARTESIANPOINT((2800.,0.));
#256=IFCPOLYLINE((#4,#255));
#257=IFCSHAPEREPRESENTATION(#23,'Axis','Curve2D',(#256));
#258=IFCCARTESIANPOINT((1400.,7.815970093361102E-14));
#259=IFCAXIS2PLACEMENT2D(#258,#12);
#260=IFCRECTANGLEPROFILEDEF(.AREA.,$,#259,2800.,200.);
#261=IFCAXIS2PLACEMENT3D(#3,$,$);
#262=IFCEXTRUDEDAREASOLID(#260,#261,#9,3000.);
#263=IFCSTYLEDITEM(#262,(#138),$);
#264=IFCSHAPEREPRESENTATION(#24,'Body','SweptSolid',(#262));
#265=IFCPRODUCTDEFINITIONSHAPE($,$,(#257,#264));
#266=IFCWALL('3cmsjRvPb4wf9t15K203sD',#18,'Basic Wall:Generic - 200mm:1603235',$,'Basic Wall:Generic - 200mm',#254,#265,'1603235',.NOTDEFINED.);
#267=IFCPROPERTYSET('3HvA17wpJ5h4Sb$V1rk2XO',#18,'Pset_EnvironmentalImpactIndicators',$,(#150));
#268=IFCPROPERTYSINGLEVALUE('Reference',$,IFCLABEL('Generic - 200mm'),$);
#269=IFCPROPERTYSET('2b$Xp7qsOx1GHvpg89XvZH',#18,'Pset_ReinforcementBarPitchOfWall',$,(#268));
#270=IFCPROPERTYSET('3w9tUCokCq9r0wg84R6BUL',#18,'Pset_WallCommon',$,(#150,#154,#155,#156));
#271=IFCRELDEFINESBYPROPERTIES('1xgUZTxfigzsh_JfnWK7T0',#18,$,$,(#266),#267);
#272=IFCRELDEFINESBYPROPERTIES('0b79DAHv0_$nw30qyIlckY',#18,$,$,(#266),#269);
#273=IFCRELDEFINESBYPROPERTIES('02Q_3vOVMmVoyxBRyRYPMj',#18,$,$,(#266),#270);
#274=IFCCARTESIANPOINT((2400.,2300.,0.));
#275=IFCAXIS2PLACEMENT3D(#274,#9,#8);
#276=IFCLOCALPLACEMENT(#34,#275);
#277=IFCCARTESIANPOINT((2100.,-0.));
#278=IFCPOLYLINE((#4,#277));
#279=IFCSHAPEREPRESENTATION(#23,'Axis','Curve2D',(#278));
#280=IFCCARTESIANPOINT((1050.0000000000005,-1.8474111129762605E-13));
#281=IFCAXIS2PLACEMENT2D(#280,#12);
#282=IFCRECTANGLEPROFILEDEF(.AREA.,$,#281,2100.0000000000009,199.99999999999974);
#283=IFCAXIS2PLACEMENT3D(#3,$,$);
#284=IFCEXTRUDEDAREASOLID(#282,#283,#9,3000.);
#285=IFCSTYLEDITEM(#284,(#138),$);
#286=IFCSHAPEREPRESENTATION(#24,'Body','SweptSolid',(#284));
#287=IFCPRODUCTDEFINITIONSHAPE($,$,(#279,#286));
#288=IFCWALL('3cmsjRvPb4wf9t15K203Cj',#18,'Basic Wall:Generic - 200mm:1603587',$,'Basic Wall:Generic - 200mm',#276,#287,'1603587',.NOTDEFINED.);
#289=IFCPROPERTYSET('1zGz92aQ7tD58STFPDHzFc',#18,'Pset_EnvironmentalImpactIndicators',$,(#150));
#290=IFCPROPERTYSINGLEVALUE('Reference',$,IFCLABEL('Generic - 200mm'),$);
#291=IFCPROPERTYSET('0N1$nfcPMv2RiUvJJvwaJa',#18,'Pset_ReinforcementBarPitchOfWall',$,(#290));
#292=IFCPROPERTYSET('1RVKWP6dHf0uxA0ihFE7VD',#18,'Pset_WallCommon',$,(#150,#154,#155,#156));
#293=IFCRELDEFINESBYPROPERTIES('2yKH3YaOSS7DhmCQzCEmEs',#18,$,$,(#288),#289);
#294=IFCRELDEFINESBYPROPERTIES('3yRQZI5_dX_6GAuxiSzILO',#18,$,$,(#288),#291);
#295=IFCRELDEFINESBYPROPERTIES('2OWGsMOXKYipwpaGDHHA29',#18,$,$,(#288),#292);
#296=IFCCARTESIANPOINT((8100.,6000.,0.));
#297=IFCAXIS2PLACEMENT3D(#296,#9,#8);
#298=IFCLOCALPLACEMENT(#34,#297);
#299=IFCCARTESIANPOINT((5800.,-0.));
#300=IFCPOLYLINE((#4,#299));
#301=IFCSHAPEREPRESENTATION(#23,'Axis','Curve2D',(#300));
#302=IFCCARTESIANPOINT((2900.0000000000014,-3.836930773104541E-13));
#303=IFCAXIS2PLACEMENT2D(#302,#12);
#304=IFCRECTANGLEPROFILEDEF(.AREA.,$,#303,5800.0000000000027,200.);
#305=IFCAXIS2PLACEMENT3D(#3,$,$);
#306=IFCEXTRUDEDAREASOLID(#304,#305,#9,3000.);
#307=IFCSTYLEDITEM(#306,(#138),$);
#308=IFCSHAPEREPRESENTATION(#24,'Body','SweptSolid',(#306));
#309=IFCPRODUCTDEFINITIONSHAPE($,$,(#301,#308));
#310=IFCWALL('3cmsjRvPb4wf9t15K203Ef',#18,'Basic Wall:Generic - 200mm:1603719',$,'Basic Wall:Generic - 200mm',#298,#309,'1603719',.NOTDEFINED.);
#311=IFCPROPERTYSET('0vPqToQ2la$5wCk6Tj3TuS',#18,'Pset_EnvironmentalImpactIndicators',$,(#150));
#312=IFCPROPERTYSINGLEVALUE('Reference',$,IFCLABEL('Generic - 200mm'),$);
#313=IFCPROPERTYSET('2R$dqHDOzC_uZuyVrsTKe6',#18,'Pset_ReinforcementBarPitchOfWall',$,(#312));
#314=IFCPROPERTYSET('3gxbxkq9sxvH3ArcYQ5vVQ',#18,'Pset_WallCommon',$,(#150,#154,#155,#156));
#315=IFCRELDEFINESBYPROPERTIES('02wWbFpSLzmpkgbJMTgdqQ',#18,$,$,(#310),#311);
#316=IFCRELDEFINESBYPROPERTIES('2ISczXdp9w1mdmCmJ4xmpY',#18,$,$,(#310),#313);
#317=IFCRELDEFINESBYPROPERTIES('38V5R4zEqmTps2NrTwoAGN',#18,$,$,(#310),#314);
#318=IFCPROPERTYSINGLEVALUE('Reference',$,IFCIDENTIFIER('8mm Head'),$);
#319=IFCPROPERTYSINGLEVALUE('AboveGround',$,IFCLOGICAL(.U.),$);
#320=IFCPROPERTYSET('16L50AfyZF4hYq5TGET4H4',#18,'Pset_BuildingStoreyCommon',$,(#318,#319));
#321=IFCPROPERTYSET('2J7ac_h5ujdwWuzVwBIIta',#18,'Pset_SpaceCommon',$,(#45,#318));
#322=IFCRELDEFINESBYPROPERTIES('2VdfSfkgzGoZi_3SgzE8$0',#18,$,$,(#35),#320);
#323=IFCRELDEFINESBYPROPERTIES('3$YdOpA8iaPobC8MDiWxoI',#18,$,$,(#35),#321);
#324=IFCRELCONTAINEDINSPATIALSTRUCTURE('2JF4e6axWHqu3u0C5FZlmi',#18,$,$,(#142,#178,#200,#222,#244,#266,#288,#310),#35);
#325=IFCPROPERTYSET('1n34enW33Z_3Qq2Pm1kjQZ',#18,'Pset_BuildingStoreyCommon',$,(#318,#319));
#326=IFCPROPERTYSET('0qNc4$IaPwTvoqOd7IlIE4',#18,'Pset_SpaceCommon',$,(#45,#318));
#327=IFCRELDEFINESBYPROPERTIES('36oM8gyLQ5_Z6XoGK5uP1E',#18,$,$,(#39),#325);
#328=IFCRELDEFINESBYPROPERTIES('0jA6Vdz$3CfPvu_I1iTL6J',#18,$,$,(#39),#326);
#329=IFCRELAGGREGATES('2KFB6YYWgXBmucZ8cm7uCP',#18,$,$,#27,(#42));
#330=IFCRELAGGREGATES('16_hfJTeCqU7LcG8m10BTS',#18,$,$,#42,(#32));
#331=IFCRELAGGREGATES('2JF4e6axWHqu3u0C9FZlmi',#18,$,$,#35,(#78,#101,#118));
#332=IFCRELAGGREGATES('1yhDISh1T5aQqAoygxGIhP',#18,$,$,#32,(#35,#39));
#333=IFCPROPERTYSINGLEVALUE('NumberOfStoreys',$,IFCCOUNTMEASURE(1),$);
#334=IFCPROPERTYSINGLEVALUE('IsLandmarked',$,IFCLOGICAL(.U.),$);
#335=IFCPROPERTYSET('01y_GmllCupEYuBgfGbhkd',#18,'Pset_BuildingCommon',$,(#43,#333,#334));
#336=IFCPROPERTYSET('1rUR7OGyIAkZT62xvibLnd',#18,'Pset_BuildingElementProxyCommon',$,(#43,#45));
#337=IFCPROPERTYSET('2kFDjjfIaTsBi7MLK$i$Me',#18,'Pset_BuildingStoreyCommon',$,(#43,#319));
#338=IFCPROPERTYSET('1TYvb3FgH88mtl04iE5P1T',#18,'Pset_BuildingSystemCommon',$,(#43));
#339=IFCPROPERTYSET('2W94HCj5xfigmNGtkBMklk',#18,'Pset_SpaceCommon',$,(#43,#45));
#340=IFCRELDEFINESBYPROPERTIES('0vDjba2fshDEh0_KufwWht',#18,$,$,(#32),#335);
#341=IFCRELDEFINESBYPROPERTIES('1V6UQfELB4oPy3GPEaJMPw',#18,$,$,(#32),#336);
#342=IFCRELDEFINESBYPROPERTIES('0Vpd75HttOMIhzXutBGgCt',#18,$,$,(#32),#337);
#343=IFCRELDEFINESBYPROPERTIES('22VMRBFW9n6_S81yWIP225',#18,$,$,(#32),#338);
#344=IFCRELDEFINESBYPROPERTIES('2w3bzVlKnfBVjA3_BjG2II',#18,$,$,(#32),#339);
#345=IFCRELASSOCIATESMATERIAL('22T9r9KB1F3JFgePfxkUGp',#18,$,$,(#142,#149,#178,#200,#222,#244,#266,#288,#310),#148);
#346=IFCRELDEFINESBYTYPE('23eVHgyZ7zFb1TIu_kK7qm',#18,$,$,(#78),#79);
#347=IFCRELDEFINESBYTYPE('1tLc5IuhCypRTR4SzWWzeI',#18,$,$,(#101),#102);
#348=IFCRELDEFINESBYTYPE('2nqW943hIeR$28Zyg_JSjF',#18,$,$,(#118),#119);
#349=IFCRELDEFINESBYTYPE('0MSq_ijuC5q4PUKv4QkOsA',#18,$,$,(#142,#178,#200,#222,#244,#266,#288,#310),#149);
#350=IFCRELCONNECTSPATHELEMENTS('3wMkp8ZspZ$k_DgvanaWdD',#18,'3cmsjRvPb4wf9t15K203XR|3cmsjRvPb4wf9t15K203Ef','Structural',$,#142,#310,(),(),.ATEND.,.ATSTART.);
#351=IFCRELCONNECTSPATHELEMENTS('3OTnJClAGM0zmX7B1qxlV7',#18,'3cmsjRvPb4wf9t15K203XR|3cmsjRvPb4wf9t15K203$P','Structural',$,#142,#200,(),(),.ATEND.,.ATEND.);
#352=IFCRELCONNECTSPATHELEMENTS('1lB9BLXG4owEi7uhsYc_dU',#18,'3cmsjRvPb4wf9t15K203_D|3cmsjRvPb4wf9t15K203Ef','Structural',$,#178,#310,(),(),.ATSTART.,.ATSTART.);
#353=IFCRELCONNECTSPATHELEMENTS('3ZZLazQYTu0NpchTvAVgxZ',#18,'3cmsjRvPb4wf9t15K203_D|3cmsjRvPb4wf9t15K203$P','Structural',$,#178,#200,(),(),.ATSTART.,.ATEND.);
#354=IFCRELCONNECTSPATHELEMENTS('3OSGH0IASwKg4ozA9Br2jX',#18,'3cmsjRvPb4wf9t15K203$P|3cmsjRvPb4wf9t15K203w_','Structural',$,#200,#222,(),(),.ATSTART.,.ATPATH.);
#355=IFCRELCONNECTSPATHELEMENTS('326r2K5jrCGqXgZNyjE0UY',#18,'3cmsjRvPb4wf9t15K203w_|3cmsjRvPb4wf9t15K203sD','Structural',$,#222,#266,(),(),.ATPATH.,.ATEND.);
#356=IFCRELCONNECTSPATHELEMENTS('1KBk2XUlIQX8tGpH_Anx4l',#18,'3cmsjRvPb4wf9t15K203qB|3cmsjRvPb4wf9t15K203sD','Structural',$,#244,#266,(),(),.ATEND.,.ATSTART.);
#357=IFCRELCONNECTSPATHELEMENTS('28uiPfHkXbPO4ePqmQ6VyQ',#18,'3cmsjRvPb4wf9t15K203qB|3cmsjRvPb4wf9t15K203Ef','Structural',$,#244,#310,(),(),.ATPATH.,.ATEND.);
#358=IFCRELCONNECTSPATHELEMENTS('0LuQwAC1Nc5$oZjdVumvza',#18,'3cmsjRvPb4wf9t15K203w_|3cmsjRvPb4wf9t15K203Cj','Structural',$,#222,#288,(),(),.ATSTART.,.ATPATH.);
#359=IFCRELCONNECTSPATHELEMENTS('3dome2OHElKqOIdBNPS3no',#18,'3cmsjRvPb4wf9t15K203XR|3cmsjRvPb4wf9t15K203Cj','Structural',$,#142,#288,(),(),.ATEND.,.ATPATH.);
#360=IFCPRESENTATIONLAYERASSIGNMENT('A-AREA-____-OTLN',$,(#76,#99,#116),$);
#361=IFCPRESENTATIONLAYERASSIGNMENT('A-WALL-____-OTLN',$,(#130,#140,#169,#176,#191,#198,#213,#220,#235,#242,#257,#264,#279,#286,#301,#308),$);
#362=IFCRELASSOCIATESCLASSIFICATION('26vUINWJpfv18vqOy_cSv4',#18,'Exterior Walls','Exterior Walls:B2010',(#142,#178,#200,#222,#244,#266,#288,#310),#161);
#363=IFCUNITASSIGNMENT((#19,#74,#75));
ENDSEC;

END-ISO-10303-21;