ISO-10303-21;
HEADER;
FILE_DESCRIPTION(('ViewDefinition [CoordinationView]','RevitIdentifiers [ContentGUID: cbb0ae2e-6350-4225-8ca4-af668662c38d, VersionGUID: 50fceb7a-05dc-421d-bd9e-81a41c23ac37, NumberOfSaves: 23]','CoordinateReference [CoordinateBase: Shared Coordinates]'),'2;1');
FILE_NAME('01_017.ifc','2026-01-06T12:10:41+01:00',(''),(''),'ODA SDAI 24.6','Autodesk Revit 24.3.30.11 (ENU) - IFC 24.3.30.11','');
FILE_SCHEMA(('IFC4X3'));
ENDSEC;
DATA;
#1=IFCORGANIZATION($,'Autodesk Revit 2024 (ENU)',$,$,$);
#2=IFCAPPLICATION(#1,'2024','Autodesk Revit 2024 (ENU)','Revit');
#3=IFCCARTESIANPOINT((0.,0.,0.));
#4=IFCCARTESIANPOINT((0.,0.));
#5=IFCDIRECTION((1.,0.,0.));
#6=IFCDIRECTION((-1.,0.,0.));
#7=IFCDIRECTION((0.,1.,0.));
#8=IFCDIRECTION((0.,-1.,0.));
#9=IFCDIRECTION((0.,0.,1.));
#10=IFCDIRECTION((0.,0.,-1.));
#11=IFCDIRECTION((1.,0.));
#12=IFCDIRECTION((-1.,0.));
#13=IFCDIRECTION((0.,1.));
#14=IFCDIRECTION((0.,-1.));
#15=IFCPERSON($,'','h.helming',$,$,$,$,$);
#16=IFCORGANIZATION($,'Organization Name','Organization Description',$,$);
#17=IFCPERSONANDORGANIZATION(#15,#16,$);
#18=IFCOWNERHISTORY(#17,#2,$,.NOCHANGE.,$,$,$,1767617691);
#19=IFCSIUNIT(*,.LENGTHUNIT.,.MILLI.,.METRE.);
#20=IFCAXIS2PLACEMENT3D(#3,$,$);
#21=IFCDIRECTION((6.12303176911189E-17,1.));
#22=IFCGEOMETRICREPRESENTATIONCONTEXT($,'Model',3,0.01,#20,#21);
#23=IFCGEOMETRICREPRESENTATIONSUBCONTEXT('Axis','Model',*,*,*,*,#22,$,.GRAPH_VIEW.,$);
#24=IFCGEOMETRICREPRESENTATIONSUBCONTEXT('Body','Model',*,*,*,*,#22,$,.MODEL_VIEW.,$);
#25=IFCGEOMETRICREPRESENTATIONSUBCONTEXT('Box','Model',*,*,*,*,#22,$,.MODEL_VIEW.,$);
#26=IFCGEOMETRICREPRESENTATIONSUBCONTEXT('FootPrint','Model',*,*,*,*,#22,$,.MODEL_VIEW.,$);
#27=IFCPROJECT('3BiAukOr129OoahsPvdJnz',#18,'Project Number',$,$,'Project Name','Project Status',(#22),#502);
#28=IFCCLASSIFICATION('CSI (Construction Specifications Institute)','1998',$,'Uniformat','UniFormat Classification','https://www.csiresources.org/standards/uniformat',$);
#29=IFCAXIS2PLACEMENT3D(#3,$,$);
#30=IFCLOCALPLACEMENT(#41,#29);
#31=IFCPOSTALADDRESS($,$,$,$,('Enter address hereAddress Line 2'),$,'','Boston','','MA');
#32=IFCBUILDING('3BiAukOr129OoahsPvdJny',#18,'Building Name',$,$,#30,$,'Building Name',.ELEMENT.,$,$,#31);
#33=IFCAXIS2PLACEMENT3D(#3,$,$);
#34=IFCLOCALPLACEMENT(#30,#33);
#35=IFCBUILDINGSTOREY('2JF4e6axWHqu3u0C1FZlmi',#18,'L1',$,'Level:8mm Head',#34,$,'L1',.ELEMENT.,0.);
#36=IFCCARTESIANPOINT((0.,0.,3000.));
#37=IFCAXIS2PLACEMENT3D(#36,$,$);
#38=IFCLOCALPLACEMENT(#30,#37);
#39=IFCBUILDINGSTOREY('1ZGO8hrFCHqw0v0026FpFv',#18,'L2',$,'Level:8mm Head',#38,$,'L2',.ELEMENT.,3000.00000000019);
#40=IFCAXIS2PLACEMENT3D(#3,$,$);
#41=IFCLOCALPLACEMENT($,#40);
#42=IFCSITE('3BiAukOr129OoahsPvdJn$',#18,'Default',$,$,#41,$,$,.ELEMENT.,(42,21,31,401672),(-71,-3,-24,-345703),0.,$,$);
#43=IFCPROPERTYSINGLEVALUE('Reference',$,IFCIDENTIFIER('Project Information'),$);
#44=IFCPROPERTYSET('2mFJcO6I01h0OYRLOICO3c',#18,'Pset_SiteCommon',$,(#43));
#45=IFCPROPERTYSINGLEVALUE('IsExternal',$,IFCBOOLEAN(.F.),$);
#46=IFCPROPERTYSET('0O$B2PbAODr9jYnpcaZGJT',#18,'Pset_SpaceCommon',$,(#43,#45));
#47=IFCRELDEFINESBYPROPERTIES('2fDrcjst0HFayqQ3dY1cGQ',#18,$,$,(#42),#44);
#48=IFCRELDEFINESBYPROPERTIES('1lYkP70lXSGXnZeJnLC8MY',#18,$,$,(#42),#46);
#55=IFCCARTESIANPOINT((100.,0.,0.));
#56=IFCAXIS2PLACEMENT3D(#55,#9,#7);
#57=IFCLOCALPLACEMENT(#34,#56);
#58=IFCCARTESIANPOINT((10750.,0.));
#59=IFCPOLYLINE((#4,#58));
#60=IFCSHAPEREPRESENTATION(#23,'Axis','Curve2D',(#59));
#61=IFCSIUNIT(*,.AREAUNIT.,$,.SQUARE_METRE.);
#62=IFCCARTESIANPOINT((5374.99999999999,0.));
#63=IFCAXIS2PLACEMENT2D(#62,#12);
#64=IFCRECTANGLEPROFILEDEF(.AREA.,$,#63,10750.,200.);
#65=IFCAXIS2PLACEMENT3D(#3,$,$);
#66=IFCEXTRUDEDAREASOLID(#64,#65,#9,3000.00000000019);
#67=IFCCOLOURRGB($,0.752941176470588,0.752941176470588,0.752941176470588);
#68=IFCSURFACESTYLERENDERING(#67,0.,$,$,$,$,IFCNORMALISEDRATIOMEASURE(0.5),IFCSPECULAREXPONENT(10.),.NOTDEFINED.);
#69=IFCSURFACESTYLE('Default Wall',.BOTH.,(#68));
#70=IFCSTYLEDITEM(#66,(#69),$);
#71=IFCSHAPEREPRESENTATION(#24,'Body','SweptSolid',(#66));
#72=IFCPRODUCTDEFINITIONSHAPE($,$,(#60,#71));
#73=IFCWALL('1u4oG4Ltr15fMWjwJ4pNV8',#18,'Basic Wall:Generic - 200mm:1602214',$,'Basic Wall:Generic - 200mm',#57,#72,'1602214',.NOTDEFINED.);
#74=IFCMATERIAL('Default Wall',$,'Miscellaneous');
#75=IFCSTYLEDITEM($,(#69),$);
#76=IFCSTYLEDREPRESENTATION(#22,'Style','Material',(#75));
#77=IFCMATERIALDEFINITIONREPRESENTATION($,$,(#76),#74);
#78=IFCMATERIALLAYER(#74,200.,$,'Layer',$,'Miscellaneous',$);
#79=IFCMATERIALLAYERSET((#78),'Basic Wall:Generic - 200mm',$);
#80=IFCWALLTYPE('1xZrMVYp52mhf4uMzw11Hk',#18,'Basic Wall:Generic - 200mm',$,$,(#94),$,'441451',$,.STANDARD.);
#81=IFCPROPERTYSINGLEVALUE('Reference',$,IFCIDENTIFIER('Generic - 200mm'),$);
#82=IFCPROPERTYSET('2W0OPosU1WHeeQagaA$GWj',#18,'Pset_EnvironmentalImpactIndicators',$,(#81));
#83=IFCPROPERTYSINGLEVALUE('Reference',$,IFCLABEL('Generic - 200mm'),$);
#84=IFCPROPERTYSET('21fIcAAACeQZyYaVZmUQiC',#18,'Pset_ReinforcementBarPitchOfWall',$,(#83));
#85=IFCPROPERTYSINGLEVALUE('IsExternal',$,IFCBOOLEAN(.T.),$);
#86=IFCPROPERTYSINGLEVALUE('LoadBearing',$,IFCBOOLEAN(.F.),$);
#87=IFCPROPERTYSINGLEVALUE('ExtendToStructure',$,IFCBOOLEAN(.F.),$);
#88=IFCPROPERTYSET('0kcDj1SwPmyxwpCgXOXbpn',#18,'Pset_WallCommon',$,(#81,#85,#86,#87));
#89=IFCRELDEFINESBYPROPERTIES('3m50VvYz$fvs1OPX4FiNHn',#18,$,$,(#73),#82);
#90=IFCRELDEFINESBYPROPERTIES('3H23EtPoL_M3$Ez$KzefDc',#18,$,$,(#73),#84);
#91=IFCRELDEFINESBYPROPERTIES('1NzZ1fa4HnPgrDU3KJdeuO',#18,$,$,(#73),#88);
#92=IFCCLASSIFICATIONREFERENCE('https://www.csiresources.org/standards/uniformat','B2010','Exterior Walls',#28,'',$);
#93=IFCPROPERTYSINGLEVALUE('Description',$,IFCTEXT('Generic Wall (Material By Category), 200mm thick'),$);
#94=IFCPROPERTYSET('2L7lvTstnIeeydfwzfZZLR',#18,'Pset_ReinforcementBarPitchOfWall',$,(#93));
#95=IFCCARTESIANPOINT((200.,10650.,0.));
#96=IFCAXIS2PLACEMENT3D(#95,$,$);
#97=IFCLOCALPLACEMENT(#34,#96);
#98=IFCCARTESIANPOINT((13200.,0.));
#99=IFCPOLYLINE((#4,#98));
#100=IFCSHAPEREPRESENTATION(#23,'Axis','Curve2D',(#99));
#101=IFCCARTESIANPOINT((6600.,1.63424829224823E-13));
#102=IFCAXIS2PLACEMENT2D(#101,#12);
#103=IFCRECTANGLEPROFILEDEF(.AREA.,$,#102,13200.,199.999999999998);
#104=IFCAXIS2PLACEMENT3D(#3,$,$);
#105=IFCEXTRUDEDAREASOLID(#103,#104,#9,3000.00000000019);
#106=IFCSTYLEDITEM(#105,(#69),$);
#107=IFCSHAPEREPRESENTATION(#24,'Body','SweptSolid',(#105));
#108=IFCPRODUCTDEFINITIONSHAPE($,$,(#100,#107));
#109=IFCWALL('1u4oG4Ltr15fMWjwJ4pNUQ',#18,'Basic Wall:Generic - 200mm:1602292',$,'Basic Wall:Generic - 200mm',#97,#108,'1602292',.NOTDEFINED.);
#110=IFCPROPERTYSET('3XqqCGIcM1fqZulASWrrI4',#18,'Pset_EnvironmentalImpactIndicators',$,(#81));
#111=IFCPROPERTYSINGLEVALUE('Reference',$,IFCLABEL('Generic - 200mm'),$);
#112=IFCPROPERTYSET('0Q9NRHHy4Y4fgP9nvWvBDa',#18,'Pset_ReinforcementBarPitchOfWall',$,(#111));
#113=IFCPROPERTYSET('0c4T$75hXboFkFu0Yn8CUy',#18,'Pset_WallCommon',$,(#81,#85,#86,#87));
#114=IFCRELDEFINESBYPROPERTIES('0j$BdxHTIHv7UiIFIyuhR5',#18,$,$,(#109),#110);
#115=IFCRELDEFINESBYPROPERTIES('3jbGqo_dYJesBn26oHYvY$',#18,$,$,(#109),#112);
#116=IFCRELDEFINESBYPROPERTIES('2qCRgxP2J5PSYA2L8L2Ujp',#18,$,$,(#109),#113);
#117=IFCCARTESIANPOINT((13300.,10550.,0.));
#118=IFCAXIS2PLACEMENT3D(#117,#9,#8);
#119=IFCLOCALPLACEMENT(#34,#118);
#120=IFCCARTESIANPOINT((7100.,0.));
#121=IFCPOLYLINE((#4,#120));
#122=IFCSHAPEREPRESENTATION(#23,'Axis','Curve2D',(#121));
#123=IFCCARTESIANPOINT((3550.00000000001,5.82645043323282E-13));
#124=IFCAXIS2PLACEMENT2D(#123,#12);
#125=IFCRECTANGLEPROFILEDEF(.AREA.,$,#124,7100.00000000002,199.999999999998);
#126=IFCAXIS2PLACEMENT3D(#3,$,$);
#127=IFCEXTRUDEDAREASOLID(#125,#126,#9,3000.00000000019);
#128=IFCSTYLEDITEM(#127,(#69),$);
#129=IFCSHAPEREPRESENTATION(#24,'Body','SweptSolid',(#127));
#130=IFCPRODUCTDEFINITIONSHAPE($,$,(#122,#129));
#131=IFCWALL('1u4oG4Ltr15fMWjwJ4pNPJ',#18,'Basic Wall:Generic - 200mm:1602365',$,'Basic Wall:Generic - 200mm',#119,#130,'1602365',.NOTDEFINED.);
#132=IFCPROPERTYSET('0fTNRoX7R$lFXowyXaq2V2',#18,'Pset_EnvironmentalImpactIndicators',$,(#81));
#133=IFCPROPERTYSINGLEVALUE('Reference',$,IFCLABEL('Generic - 200mm'),$);
#134=IFCPROPERTYSET('31ffiztTHeSNQ2BzVHjxgQ',#18,'Pset_ReinforcementBarPitchOfWall',$,(#133));
#135=IFCPROPERTYSET('0JkE4KY2Ye0FJ3vPmU9Q$v',#18,'Pset_WallCommon',$,(#81,#85,#86,#87));
#136=IFCRELDEFINESBYPROPERTIES('0iLaN3on5Qp5y2nMDjRYHQ',#18,$,$,(#131),#132);
#137=IFCRELDEFINESBYPROPERTIES('1ru0t2dzXzhA7iCUp5OHoE',#18,$,$,(#131),#134);
#138=IFCRELDEFINESBYPROPERTIES('2vI59B2PBONaf_RDL9BzdV',#18,$,$,(#131),#135);
#139=IFCCARTESIANPOINT((6400.,100.,0.));
#140=IFCAXIS2PLACEMENT3D(#139,#9,#6);
#141=IFCLOCALPLACEMENT(#34,#140);
#142=IFCCARTESIANPOINT((6200.,0.));
#143=IFCPOLYLINE((#4,#142));
#144=IFCSHAPEREPRESENTATION(#23,'Axis','Curve2D',(#143));
#145=IFCCARTESIANPOINT((3100.,7.105427357601E-15));
#146=IFCAXIS2PLACEMENT2D(#145,#12);
#147=IFCRECTANGLEPROFILEDEF(.AREA.,$,#146,6200.,200.);
#148=IFCAXIS2PLACEMENT3D(#3,$,$);
#149=IFCEXTRUDEDAREASOLID(#147,#148,#9,3000.00000000019);
#150=IFCSTYLEDITEM(#149,(#69),$);
#151=IFCSHAPEREPRESENTATION(#24,'Body','SweptSolid',(#149));
#152=IFCPRODUCTDEFINITIONSHAPE($,$,(#144,#151));
#153=IFCWALL('1u4oG4Ltr15fMWjwJ4pNOG',#18,'Basic Wall:Generic - 200mm:1602430',$,'Basic Wall:Generic - 200mm',#141,#152,'1602430',.NOTDEFINED.);
#154=IFCPROPERTYSET('3YyaI0PRXQtw0Yef94j5Qs',#18,'Pset_EnvironmentalImpactIndicators',$,(#81));
#155=IFCPROPERTYSINGLEVALUE('Reference',$,IFCLABEL('Generic - 200mm'),$);
#156=IFCPROPERTYSET('0t0Tne1Edmy0fXLdL4d1rM',#18,'Pset_ReinforcementBarPitchOfWall',$,(#155));
#157=IFCPROPERTYSET('1b4mPuzA4lUgRJbOD$swe1',#18,'Pset_WallCommon',$,(#81,#85,#86,#87));
#158=IFCRELDEFINESBYPROPERTIES('2V60Cpn59INNRE_yZ4e2Is',#18,$,$,(#153),#154);
#159=IFCRELDEFINESBYPROPERTIES('1ga$4q2yZBLM3ooUpsoMeb',#18,$,$,(#153),#156);
#160=IFCRELDEFINESBYPROPERTIES('14mfTcubrXKpcYJ2MJ4Lom',#18,$,$,(#153),#157);
#161=IFCCARTESIANPOINT((6300.,200.,0.));
#162=IFCAXIS2PLACEMENT3D(#161,#9,#7);
#163=IFCLOCALPLACEMENT(#34,#162);
#164=IFCCARTESIANPOINT((3450.,0.));
#165=IFCPOLYLINE((#4,#164));
#166=IFCSHAPEREPRESENTATION(#23,'Axis','Curve2D',(#165));
#167=IFCCARTESIANPOINT((1725.,8.5265128291212E-14));
#168=IFCAXIS2PLACEMENT2D(#167,#12);
#169=IFCRECTANGLEPROFILEDEF(.AREA.,$,#168,3450.,200.);
#170=IFCAXIS2PLACEMENT3D(#3,$,$);
#171=IFCEXTRUDEDAREASOLID(#169,#170,#9,3000.00000000019);
#172=IFCSTYLEDITEM(#171,(#69),$);
#173=IFCSHAPEREPRESENTATION(#24,'Body','SweptSolid',(#171));
#174=IFCPRODUCTDEFINITIONSHAPE($,$,(#166,#173));
#175=IFCWALL('1u4oG4Ltr15fMWjwJ4pN5R',#18,'Basic Wall:Generic - 200mm:1602613',$,'Basic Wall:Generic - 200mm',#163,#174,'1602613',.NOTDEFINED.);
#176=IFCPROPERTYSET('0D1$IEu4tO1DDKO_b1bDKl',#18,'Pset_EnvironmentalImpactIndicators',$,(#81));
#177=IFCPROPERTYSINGLEVALUE('Reference',$,IFCLABEL('Generic - 200mm'),$);
#178=IFCPROPERTYSET('3CZzLzltfDisKhJO7bm0Jj',#18,'Pset_ReinforcementBarPitchOfWall',$,(#177));
#179=IFCPROPERTYSET('1UpvsG$$X4wlv1HIWJk5lu',#18,'Pset_WallCommon',$,(#81,#85,#86,#87));
#180=IFCRELDEFINESBYPROPERTIES('1n7IAGJU60XRRGJ1mCH$8C',#18,$,$,(#175),#176);
#181=IFCRELDEFINESBYPROPERTIES('2NdxcY$I8M0D8Sqv_fFgPL',#18,$,$,(#175),#178);
#182=IFCRELDEFINESBYPROPERTIES('2sf1GbwyN5YzXRc20NsL_p',#18,$,$,(#175),#179);
#183=IFCCARTESIANPOINT((6400.,3550.,0.));
#184=IFCAXIS2PLACEMENT3D(#183,$,$);
#185=IFCLOCALPLACEMENT(#34,#184);
#186=IFCCARTESIANPOINT((6800.,0.));
#187=IFCPOLYLINE((#4,#186));
#188=IFCSHAPEREPRESENTATION(#23,'Axis','Curve2D',(#187));
#189=IFCCARTESIANPOINT((3400.,2.8421709430404E-14));
#190=IFCAXIS2PLACEMENT2D(#189,#12);
#191=IFCRECTANGLEPROFILEDEF(.AREA.,$,#190,6800.,200.);
#192=IFCAXIS2PLACEMENT3D(#3,$,$);
#193=IFCEXTRUDEDAREASOLID(#191,#192,#9,3000.00000000019);
#194=IFCSTYLEDITEM(#193,(#69),$);
#195=IFCSHAPEREPRESENTATION(#24,'Body','SweptSolid',(#193));
#196=IFCPRODUCTDEFINITIONSHAPE($,$,(#188,#195));
#197=IFCWALL('1u4oG4Ltr15fMWjwJ4pN4F',#18,'Basic Wall:Generic - 200mm:1602657',$,'Basic Wall:Generic - 200mm',#185,#196,'1602657',.NOTDEFINED.);
#198=IFCPROPERTYSET('2iLRMV7SmPVSwQsouj3Eh3',#18,'Pset_EnvironmentalImpactIndicators',$,(#81));
#199=IFCPROPERTYSINGLEVALUE('Reference',$,IFCLABEL('Generic - 200mm'),$);
#200=IFCPROPERTYSET('3__X9zBZVubPkRteiq3$wm',#18,'Pset_ReinforcementBarPitchOfWall',$,(#199));
#201=IFCPROPERTYSET('3jO06SKVCQtxY1NjmO8qTh',#18,'Pset_WallCommon',$,(#81,#85,#86,#87));
#202=IFCRELDEFINESBYPROPERTIES('0nnI6F6RbZRRCHsqW0H3sg',#18,$,$,(#197),#198);
#203=IFCRELDEFINESBYPROPERTIES('1PGiG7OWEJq7gTNhVgojbf',#18,$,$,(#197),#200);
#204=IFCRELDEFINESBYPROPERTIES('2MqGN1FW3gPQnksAapDe4v',#18,$,$,(#197),#201);
#205=IFCCARTESIANPOINT((6200.,6350.,0.));
#206=IFCAXIS2PLACEMENT3D(#205,#9,#6);
#207=IFCLOCALPLACEMENT(#34,#206);
#208=IFCCARTESIANPOINT((6000.,0.));
#209=IFCPOLYLINE((#4,#208));
#210=IFCSHAPEREPRESENTATION(#23,'Axis','Curve2D',(#209));
#211=IFCCARTESIANPOINT((3000.,0.));
#212=IFCAXIS2PLACEMENT2D(#211,#12);
#213=IFCRECTANGLEPROFILEDEF(.AREA.,$,#212,6000.,200.);
#214=IFCAXIS2PLACEMENT3D(#3,$,$);
#215=IFCEXTRUDEDAREASOLID(#213,#214,#9,3000.00000000019);
#216=IFCSTYLEDITEM(#215,(#69),$);
#217=IFCSHAPEREPRESENTATION(#24,'Body','SweptSolid',(#215));
#218=IFCPRODUCTDEFINITIONSHAPE($,$,(#210,#217));
#219=IFCWALL('1u4oG4Ltr15fMWjwJ4pN3B',#18,'Basic Wall:Generic - 200mm:1602981',$,'Basic Wall:Generic - 200mm',#207,#218,'1602981',.NOTDEFINED.);
#220=IFCPROPERTYSET('3K50826YHsDciXVi7N5zhJ',#18,'Pset_EnvironmentalImpactIndicators',$,(#81));
#221=IFCPROPERTYSINGLEVALUE('Reference',$,IFCLABEL('Generic - 200mm'),$);
#222=IFCPROPERTYSET('37jzwGDmAP9BpRlbJBaEhG',#18,'Pset_ReinforcementBarPitchOfWall',$,(#221));
#223=IFCPROPERTYSET('0kvJd5TgHCQa2xSuxgRD9I',#18,'Pset_WallCommon',$,(#81,#85,#86,#87));
#224=IFCRELDEFINESBYPROPERTIES('00mN5OOJo8QzblFj_rVs6O',#18,$,$,(#219),#220);
#225=IFCRELDEFINESBYPROPERTIES('0qosqTpY_$jFjeJvGPlrqw',#18,$,$,(#219),#222);
#226=IFCRELDEFINESBYPROPERTIES('2xfiXQaJ1TROujEaDyZWk_',#18,$,$,(#219),#223);
#227=IFCCARTESIANPOINT((3850.,6250.,0.));
#228=IFCAXIS2PLACEMENT3D(#227,#9,#8);
#229=IFCLOCALPLACEMENT(#34,#228);
#230=IFCCARTESIANPOINT((6050.,0.));
#231=IFCPOLYLINE((#4,#230));
#232=IFCSHAPEREPRESENTATION(#23,'Axis','Curve2D',(#231));
#233=IFCCARTESIANPOINT((3025.,1.20792265079217E-13));
#234=IFCAXIS2PLACEMENT2D(#233,#12);
#235=IFCRECTANGLEPROFILEDEF(.AREA.,$,#234,6050.,200.);
#236=IFCAXIS2PLACEMENT3D(#3,$,$);
#237=IFCEXTRUDEDAREASOLID(#235,#236,#9,3000.00000000019);
#238=IFCSTYLEDITEM(#237,(#69),$);
#239=IFCSHAPEREPRESENTATION(#24,'Body','SweptSolid',(#237));
#240=IFCPRODUCTDEFINITIONSHAPE($,$,(#232,#239));
#241=IFCWALL('1u4oG4Ltr15fMWjwJ4pNDB',#18,'Basic Wall:Generic - 200mm:1603109',$,'Basic Wall:Generic - 200mm',#229,#240,'1603109',.NOTDEFINED.);
#242=IFCPROPERTYSET('1s$jI7xdgMLAz8azR4eCNT',#18,'Pset_EnvironmentalImpactIndicators',$,(#81));
#243=IFCPROPERTYSINGLEVALUE('Reference',$,IFCLABEL('Generic - 200mm'),$);
#244=IFCPROPERTYSET('1HeuCd_Y89HyJKZTWwxb7O',#18,'Pset_ReinforcementBarPitchOfWall',$,(#243));
#245=IFCPROPERTYSET('2LzOK2Ribxudi9obiFMV62',#18,'Pset_WallCommon',$,(#81,#85,#86,#87));
#246=IFCRELDEFINESBYPROPERTIES('2ij93DgAUsTmNgicfYFL26',#18,$,$,(#241),#242);
#247=IFCRELDEFINESBYPROPERTIES('3WkfQQS_fdIQQP1Q4YS8nq',#18,$,$,(#241),#244);
#248=IFCRELDEFINESBYPROPERTIES('3F3PsskD36zky7Drz_KSfa',#18,$,$,(#241),#245);
#249=IFCCARTESIANPOINT((3750.,3550.,0.));
#250=IFCAXIS2PLACEMENT3D(#249,#9,#6);
#251=IFCLOCALPLACEMENT(#34,#250);
#252=IFCCARTESIANPOINT((3550.,0.));
#253=IFCPOLYLINE((#4,#252));
#254=IFCSHAPEREPRESENTATION(#23,'Axis','Curve2D',(#253));
#255=IFCCARTESIANPOINT((1775.,-1.56319401867222E-13));
#256=IFCAXIS2PLACEMENT2D(#255,#12);
#257=IFCRECTANGLEPROFILEDEF(.AREA.,$,#256,3550.,200.);
#258=IFCAXIS2PLACEMENT3D(#3,$,$);
#259=IFCEXTRUDEDAREASOLID(#257,#258,#9,3000.00000000019);
#260=IFCSTYLEDITEM(#259,(#69),$);
#261=IFCSHAPEREPRESENTATION(#24,'Body','SweptSolid',(#259));
#262=IFCPRODUCTDEFINITIONSHAPE($,$,(#254,#261));
#263=IFCWALL('1u4oG4Ltr15fMWjwJ4pNFH',#18,'Basic Wall:Generic - 200mm:1603263',$,'Basic Wall:Generic - 200mm',#251,#262,'1603263',.NOTDEFINED.);
#264=IFCPROPERTYSET('1nf9Ll6v1sU_dnnHCBU$o3',#18,'Pset_EnvironmentalImpactIndicators',$,(#81));
#265=IFCPROPERTYSINGLEVALUE('Reference',$,IFCLABEL('Generic - 200mm'),$);
#266=IFCPROPERTYSET('3lkqR3zUyDyCG3zUfypoOv',#18,'Pset_ReinforcementBarPitchOfWall',$,(#265));
#267=IFCPROPERTYSET('3ospvkwIr58T0$iRI$F6RA',#18,'Pset_WallCommon',$,(#81,#85,#86,#87));
#268=IFCRELDEFINESBYPROPERTIES('2QpvIa98jxVLg1vlwiXdjO',#18,$,$,(#263),#264);
#269=IFCRELDEFINESBYPROPERTIES('3zi8cd2Po541HIzhxaH4vN',#18,$,$,(#263),#266);
#270=IFCRELDEFINESBYPROPERTIES('3JaQ2kNbmZyOq5f8NANs32',#18,$,$,(#263),#267);
#271=IFCCARTESIANPOINT((6300.,3650.,0.));
#272=IFCAXIS2PLACEMENT3D(#271,#9,#7);
#273=IFCLOCALPLACEMENT(#34,#272);
#274=IFCCARTESIANPOINT((6900.,0.));
#275=IFCPOLYLINE((#4,#274));
#276=IFCSHAPEREPRESENTATION(#23,'Axis','Curve2D',(#275));
#277=IFCCARTESIANPOINT((3450.,1.4210854715202E-14));
#278=IFCAXIS2PLACEMENT2D(#277,#12);
#279=IFCRECTANGLEPROFILEDEF(.AREA.,$,#278,6900.,200.);
#280=IFCAXIS2PLACEMENT3D(#3,$,$);
#281=IFCEXTRUDEDAREASOLID(#279,#280,#9,3000.00000000019);
#282=IFCSTYLEDITEM(#281,(#69),$);
#283=IFCSHAPEREPRESENTATION(#24,'Body','SweptSolid',(#281));
#284=IFCPRODUCTDEFINITIONSHAPE($,$,(#276,#283));
#285=IFCWALL('1u4oG4Ltr15fMWjwJ4pNrL',#18,'Basic Wall:Generic - 200mm:1603643',$,'Basic Wall:Generic - 200mm',#273,#284,'1603643',.NOTDEFINED.);
#286=IFCPROPERTYSET('0avCQvzwkoU$ude7ezNtWC',#18,'Pset_EnvironmentalImpactIndicators',$,(#81));
#287=IFCPROPERTYSINGLEVALUE('Reference',$,IFCLABEL('Generic - 200mm'),$);
#288=IFCPROPERTYSET('12DtfHFJO7OqVsfvlyXHuX',#18,'Pset_ReinforcementBarPitchOfWall',$,(#287));
#289=IFCPROPERTYSET('0jKslwnmKNBrGJQD3fyTEH',#18,'Pset_WallCommon',$,(#81,#85,#86,#87));
#290=IFCRELDEFINESBYPROPERTIES('2j6R$g6Q5ic02$Hgggexlc',#18,$,$,(#285),#286);
#291=IFCRELDEFINESBYPROPERTIES('0ERKGF8G0ljKA7CzGSOhT7',#18,$,$,(#285),#288);
#292=IFCRELDEFINESBYPROPERTIES('0vJbBa5imV40TI16G7FJRJ',#18,$,$,(#285),#289);
#293=IFCCARTESIANPOINT((100.,0.,0.));
#294=IFCAXIS2PLACEMENT3D(#293,#9,#7);
#295=IFCLOCALPLACEMENT(#38,#294);
#296=IFCCARTESIANPOINT((10750.,0.));
#297=IFCPOLYLINE((#4,#296));
#298=IFCSHAPEREPRESENTATION(#23,'Axis','Curve2D',(#297));
#299=IFCCARTESIANPOINT((5374.99999999999,0.));
#300=IFCAXIS2PLACEMENT2D(#299,#12);
#301=IFCRECTANGLEPROFILEDEF(.AREA.,$,#300,10750.,200.);
#302=IFCAXIS2PLACEMENT3D(#3,$,$);
#303=IFCEXTRUDEDAREASOLID(#301,#302,#9,3000.00000000019);
#304=IFCSTYLEDITEM(#303,(#69),$);
#305=IFCSHAPEREPRESENTATION(#24,'Body','SweptSolid',(#303));
#306=IFCPRODUCTDEFINITIONSHAPE($,$,(#298,#305));
#307=IFCWALL('1G$Ejw1Tn27RsUWQGSEz59',#18,'Basic Wall:Generic - 200mm:1604990',$,'Basic Wall:Generic - 200mm',#295,#306,'1604990',.NOTDEFINED.);
#308=IFCPROPERTYSET('0rT7yBk44d_aMP$sSxcBXP',#18,'Pset_EnvironmentalImpactIndicators',$,(#81));
#309=IFCPROPERTYSINGLEVALUE('Reference',$,IFCLABEL('Generic - 200mm'),$);
#310=IFCPROPERTYSET('31IIGTPY0WYtN_PGqv9L9x',#18,'Pset_ReinforcementBarPitchOfWall',$,(#309));
#311=IFCPROPERTYSET('3RRyg3XIgjodhe$EoOoCjS',#18,'Pset_WallCommon',$,(#81,#85,#86,#87));
#312=IFCRELDEFINESBYPROPERTIES('25tq8EjA6o4UhYDHv_Ugbf',#18,$,$,(#307),#308);
#313=IFCRELDEFINESBYPROPERTIES('1Co306TQIAIGhg0bAA$Iwb',#18,$,$,(#307),#310);
#314=IFCRELDEFINESBYPROPERTIES('1CHRXFHmlzY5X$vjAdhsaD',#18,$,$,(#307),#311);
#315=IFCCARTESIANPOINT((200.,10650.,0.));
#316=IFCAXIS2PLACEMENT3D(#315,$,$);
#317=IFCLOCALPLACEMENT(#38,#316);
#318=IFCCARTESIANPOINT((6200.,0.));
#319=IFCPOLYLINE((#4,#318));
#320=IFCSHAPEREPRESENTATION(#23,'Axis','Curve2D',(#319));
#321=IFCCARTESIANPOINT((3100.,-4.9737991503207E-13));
#322=IFCAXIS2PLACEMENT2D(#321,#12);
#323=IFCRECTANGLEPROFILEDEF(.AREA.,$,#322,6200.,199.999999999998);
#324=IFCAXIS2PLACEMENT3D(#3,$,$);
#325=IFCEXTRUDEDAREASOLID(#323,#324,#9,3000.00000000019);
#326=IFCSTYLEDITEM(#325,(#69),$);
#327=IFCSHAPEREPRESENTATION(#24,'Body','SweptSolid',(#325));
#328=IFCPRODUCTDEFINITIONSHAPE($,$,(#320,#327));
#329=IFCWALL('1G$Ejw1Tn27RsUWQGSEz58',#18,'Basic Wall:Generic - 200mm:1604991',$,'Basic Wall:Generic - 200mm',#317,#328,'1604991',.NOTDEFINED.);
#330=IFCPROPERTYSET('1w3$qvJXsGBq94kUiNCTDq',#18,'Pset_EnvironmentalImpactIndicators',$,(#81));
#331=IFCPROPERTYSINGLEVALUE('Reference',$,IFCLABEL('Generic - 200mm'),$);
#332=IFCPROPERTYSET('1kyyr2yVc3zjX3FMubI5tz',#18,'Pset_ReinforcementBarPitchOfWall',$,(#331));
#333=IFCPROPERTYSET('3CEW8Wk0AP4aIXXQdqAxa2',#18,'Pset_WallCommon',$,(#81,#85,#86,#87));
#334=IFCRELDEFINESBYPROPERTIES('1hzdxM3TZQ889yb_QBgoc9',#18,$,$,(#329),#330);
#335=IFCRELDEFINESBYPROPERTIES('3c9G1HDskAOvVwq4iK1xEU',#18,$,$,(#329),#332);
#336=IFCRELDEFINESBYPROPERTIES('2IgICPIFzxkWv6GRrnV3_8',#18,$,$,(#329),#333);
#337=IFCCARTESIANPOINT((6400.,100.,0.));
#338=IFCAXIS2PLACEMENT3D(#337,#9,#6);
#339=IFCLOCALPLACEMENT(#38,#338);
#340=IFCCARTESIANPOINT((6200.,0.));
#341=IFCPOLYLINE((#4,#340));
#342=IFCSHAPEREPRESENTATION(#23,'Axis','Curve2D',(#341));
#343=IFCCARTESIANPOINT((3100.,7.105427357601E-15));
#344=IFCAXIS2PLACEMENT2D(#343,#12);
#345=IFCRECTANGLEPROFILEDEF(.AREA.,$,#344,6200.,200.);
#346=IFCAXIS2PLACEMENT3D(#3,$,$);
#347=IFCEXTRUDEDAREASOLID(#345,#346,#9,3000.00000000019);
#348=IFCSTYLEDITEM(#347,(#69),$);
#349=IFCSHAPEREPRESENTATION(#24,'Body','SweptSolid',(#347));
#350=IFCPRODUCTDEFINITIONSHAPE($,$,(#342,#349));
#351=IFCWALL('1G$Ejw1Tn27RsUWQGSEz6s',#18,'Basic Wall:Generic - 200mm:1604993',$,'Basic Wall:Generic - 200mm',#339,#350,'1604993',.NOTDEFINED.);
#352=IFCPROPERTYSET('3wHFlEPRF4nrPF9cI9tYjT',#18,'Pset_EnvironmentalImpactIndicators',$,(#81));
#353=IFCPROPERTYSINGLEVALUE('Reference',$,IFCLABEL('Generic - 200mm'),$);
#354=IFCPROPERTYSET('38GeHk2FY8gKQ2es5$F1Ye',#18,'Pset_ReinforcementBarPitchOfWall',$,(#353));
#355=IFCPROPERTYSET('2q70vmKekKnrngnV1J302j',#18,'Pset_WallCommon',$,(#81,#85,#86,#87));
#356=IFCRELDEFINESBYPROPERTIES('1n3S$Ri$lu5RkHwtRnGcQk',#18,$,$,(#351),#352);
#357=IFCRELDEFINESBYPROPERTIES('0QUsV8WUkWla8$tr4P6$0p',#18,$,$,(#351),#354);
#358=IFCRELDEFINESBYPROPERTIES('2BD3xAXEy7ch7OJcsD6XnK',#18,$,$,(#351),#355);
#359=IFCCARTESIANPOINT((6300.,200.,0.));
#360=IFCAXIS2PLACEMENT3D(#359,#9,#7);
#361=IFCLOCALPLACEMENT(#38,#360);
#362=IFCCARTESIANPOINT((10350.,-0.));
#363=IFCPOLYLINE((#4,#362));
#364=IFCSHAPEREPRESENTATION(#23,'Axis','Curve2D',(#363));
#365=IFCCARTESIANPOINT((5175.,-2.91322521661641E-13));
#366=IFCAXIS2PLACEMENT2D(#365,#12);
#367=IFCRECTANGLEPROFILEDEF(.AREA.,$,#366,10350.,200.);
#368=IFCAXIS2PLACEMENT3D(#3,$,$);
#369=IFCEXTRUDEDAREASOLID(#367,#368,#9,3000.00000000019);
#370=IFCSTYLEDITEM(#369,(#69),$);
#371=IFCSHAPEREPRESENTATION(#24,'Body','SweptSolid',(#369));
#372=IFCPRODUCTDEFINITIONSHAPE($,$,(#364,#371));
#373=IFCWALL('1G$Ejw1Tn27RsUWQGSEz6r',#18,'Basic Wall:Generic - 200mm:1604994',$,'Basic Wall:Generic - 200mm',#361,#372,'1604994',.NOTDEFINED.);
#374=IFCPROPERTYSET('1f1QCvnY94xiZZT_PP2BAg',#18,'Pset_EnvironmentalImpactIndicators',$,(#81));
#375=IFCPROPERTYSINGLEVALUE('Reference',$,IFCLABEL('Generic - 200mm'),$);
#376=IFCPROPERTYSET('3k7JhfckhP3Zuu6jC$fXxj',#18,'Pset_ReinforcementBarPitchOfWall',$,(#375));
#377=IFCPROPERTYSET('2SFqmMObFr2J4pYvoig37c',#18,'Pset_WallCommon',$,(#81,#85,#86,#87));
#378=IFCRELDEFINESBYPROPERTIES('11081UNwlbSXtCERpC$CzO',#18,$,$,(#373),#374);
#379=IFCRELDEFINESBYPROPERTIES('32rnVgsNoiXH1L3yBZ88Kh',#18,$,$,(#373),#376);
#380=IFCRELDEFINESBYPROPERTIES('0aTamBCGyWl$gRfjXAYMGr',#18,$,$,(#373),#377);
#381=IFCCARTESIANPOINT((3850.,200.,0.));
#382=IFCAXIS2PLACEMENT3D(#381,#9,#7);
#383=IFCLOCALPLACEMENT(#38,#382);
#384=IFCCARTESIANPOINT((6050.,0.));
#385=IFCPOLYLINE((#4,#384));
#386=IFCSHAPEREPRESENTATION(#23,'Axis','Curve2D',(#385));
#387=IFCCARTESIANPOINT((3025.,0.));
#388=IFCAXIS2PLACEMENT2D(#387,#12);
#389=IFCRECTANGLEPROFILEDEF(.AREA.,$,#388,6050.00000000001,200.);
#390=IFCAXIS2PLACEMENT3D(#3,$,$);
#391=IFCEXTRUDEDAREASOLID(#389,#390,#9,3000.00000000019);
#392=IFCSTYLEDITEM(#391,(#69),$);
#393=IFCSHAPEREPRESENTATION(#24,'Body','SweptSolid',(#391));
#394=IFCPRODUCTDEFINITIONSHAPE($,$,(#386,#393));
#395=IFCWALL('1G$Ejw1Tn27RsUWQGSEzEq',#18,'Basic Wall:Generic - 200mm:1605507',$,'Basic Wall:Generic - 200mm',#383,#394,'1605507',.NOTDEFINED.);
#396=IFCPROPERTYSET('3cTXNrgNmUy0v1tXZEW9el',#18,'Pset_EnvironmentalImpactIndicators',$,(#81));
#397=IFCPROPERTYSINGLEVALUE('Reference',$,IFCLABEL('Generic - 200mm'),$);
#398=IFCPROPERTYSET('1v_HbtUfyTZPsygqppHPeV',#18,'Pset_ReinforcementBarPitchOfWall',$,(#397));
#399=IFCPROPERTYSET('2ZLb9qzf$kxu4M3$2JRX8Q',#18,'Pset_WallCommon',$,(#81,#85,#86,#87));
#400=IFCRELDEFINESBYPROPERTIES('03WohIpKTZklp4ZgeR_xln',#18,$,$,(#395),#396);
#401=IFCRELDEFINESBYPROPERTIES('20kxHTfIA8QvSTErnPWfoF',#18,$,$,(#395),#398);
#402=IFCRELDEFINESBYPROPERTIES('27EMqLSMtwszMG7wg5dhPm',#18,$,$,(#395),#399);
#403=IFCCARTESIANPOINT((6200.,6350.,0.));
#404=IFCAXIS2PLACEMENT3D(#403,#9,#6);
#405=IFCLOCALPLACEMENT(#38,#404);
#406=IFCCARTESIANPOINT((6000.,0.));
#407=IFCPOLYLINE((#4,#406));
#408=IFCSHAPEREPRESENTATION(#23,'Axis','Curve2D',(#407));
#409=IFCCARTESIANPOINT((3000.,0.));
#410=IFCAXIS2PLACEMENT2D(#409,#12);
#411=IFCRECTANGLEPROFILEDEF(.AREA.,$,#410,6000.,200.);
#412=IFCAXIS2PLACEMENT3D(#3,$,$);
#413=IFCEXTRUDEDAREASOLID(#411,#412,#9,3000.00000000019);
#414=IFCSTYLEDITEM(#413,(#69),$);
#415=IFCSHAPEREPRESENTATION(#24,'Body','SweptSolid',(#413));
#416=IFCPRODUCTDEFINITIONSHAPE($,$,(#408,#415));
#417=IFCWALL('1G$Ejw1Tn27RsUWQGSEzFQ',#18,'Basic Wall:Generic - 200mm:1605613',$,'Basic Wall:Generic - 200mm',#405,#416,'1605613',.NOTDEFINED.);
#418=IFCPROPERTYSET('1HKFugosp2RcNg1wirfC0J',#18,'Pset_EnvironmentalImpactIndicators',$,(#81));
#419=IFCPROPERTYSINGLEVALUE('Reference',$,IFCLABEL('Generic - 200mm'),$);
#420=IFCPROPERTYSET('2JbFqMK3JiUXcxGvNqD7d2',#18,'Pset_ReinforcementBarPitchOfWall',$,(#419));
#421=IFCPROPERTYSET('14VmO2C57_DxQG8MOWXWXa',#18,'Pset_WallCommon',$,(#81,#85,#86,#87));
#422=IFCRELDEFINESBYPROPERTIES('20MQaJR4J0_LoSK9YaGRZJ',#18,$,$,(#417),#418);
#423=IFCRELDEFINESBYPROPERTIES('2B_vNGOjdAN3Dh7xzPtgNI',#18,$,$,(#417),#420);
#424=IFCRELDEFINESBYPROPERTIES('13azkPoS8jVKeoIU1yBn2l',#18,$,$,(#417),#421);
#425=IFCCARTESIANPOINT((3750.,3550.,0.));
#426=IFCAXIS2PLACEMENT3D(#425,#9,#6);
#427=IFCLOCALPLACEMENT(#38,#426);
#428=IFCCARTESIANPOINT((3550.,0.));
#429=IFCPOLYLINE((#4,#428));
#430=IFCSHAPEREPRESENTATION(#23,'Axis','Curve2D',(#429));
#431=IFCCARTESIANPOINT((1775.,0.));
#432=IFCAXIS2PLACEMENT2D(#431,#12);
#433=IFCRECTANGLEPROFILEDEF(.AREA.,$,#432,3550.,200.);
#434=IFCAXIS2PLACEMENT3D(#3,$,$);
#435=IFCEXTRUDEDAREASOLID(#433,#434,#9,3000.00000000019);
#436=IFCSTYLEDITEM(#435,(#69),$);
#437=IFCSHAPEREPRESENTATION(#24,'Body','SweptSolid',(#435));
#438=IFCPRODUCTDEFINITIONSHAPE($,$,(#430,#437));
#439=IFCWALL('1G$Ejw1Tn27RsUWQGSEonI',#18,'Basic Wall:Generic - 200mm:1605733',$,'Basic Wall:Generic - 200mm',#427,#438,'1605733',.NOTDEFINED.);
#440=IFCPROPERTYSET('3XFkk$vdA5_ASUNIfaTad_',#18,'Pset_EnvironmentalImpactIndicators',$,(#81));
#441=IFCPROPERTYSINGLEVALUE('Reference',$,IFCLABEL('Generic - 200mm'),$);
#442=IFCPROPERTYSET('3Vd3iC5af7JDb8ts_XNJQI',#18,'Pset_ReinforcementBarPitchOfWall',$,(#441));
#443=IFCPROPERTYSET('1xh$CeS_EdaNhShRxqNhMm',#18,'Pset_WallCommon',$,(#81,#85,#86,#87));
#444=IFCRELDEFINESBYPROPERTIES('1f9kAxXWAGuW3joUN5T_In',#18,$,$,(#439),#440);
#445=IFCRELDEFINESBYPROPERTIES('3usjB_l$TjV_Foxj6mjNK5',#18,$,$,(#439),#442);
#446=IFCRELDEFINESBYPROPERTIES('034vVzjtEen3Oa4r$GGKx5',#18,$,$,(#439),#443);
#447=IFCPROPERTYSINGLEVALUE('Reference',$,IFCIDENTIFIER('8mm Head'),$);
#448=IFCPROPERTYSINGLEVALUE('AboveGround',$,IFCLOGICAL(.U.),$);
#449=IFCPROPERTYSET('16L50AfyZF4hYq5TGET4H4',#18,'Pset_BuildingStoreyCommon',$,(#447,#448));
#450=IFCPROPERTYSET('2J7ac_h5ujdwWuzVwBIIta',#18,'Pset_SpaceCommon',$,(#45,#447));
#451=IFCRELDEFINESBYPROPERTIES('2VdfSfkgzGoZi_3SgzE8$0',#18,$,$,(#35),#449);
#452=IFCRELDEFINESBYPROPERTIES('3$YdOpA8iaPobC8MDiWxoI',#18,$,$,(#35),#450);
#453=IFCRELCONTAINEDINSPATIALSTRUCTURE('2JF4e6axWHqu3u0C5FZlmi',#18,$,$,(#73,#109,#131,#153,#175,#197,#219,#241,#263,#285),#35);
#454=IFCPROPERTYSET('1n34enW33Z_3Qq2Pm1kjQZ',#18,'Pset_BuildingStoreyCommon',$,(#447,#448));
#455=IFCPROPERTYSET('0qNc4$IaPwTvoqOd7IlIE4',#18,'Pset_SpaceCommon',$,(#45,#447));
#456=IFCRELDEFINESBYPROPERTIES('36oM8gyLQ5_Z6XoGK5uP1E',#18,$,$,(#39),#454);
#457=IFCRELDEFINESBYPROPERTIES('0jA6Vdz$3CfPvu_I1iTL6J',#18,$,$,(#39),#455);
#458=IFCRELCONTAINEDINSPATIALSTRUCTURE('1ZGO8hrFCHqw0v0066FpFv',#18,$,$,(#307,#329,#351,#373,#395,#417,#439),#39);
#459=IFCRELAGGREGATES('2KFB6YYWgXBmucZ8cm7uCP',#18,$,$,#27,(#42));
#460=IFCRELAGGREGATES('16_hfJTeCqU7LcG8m10BTS',#18,$,$,#42,(#32));
#461=IFCRELAGGREGATES('1yhDISh1T5aQqAoygxGIhP',#18,$,$,#32,(#35,#39));
#462=IFCPROPERTYSINGLEVALUE('NumberOfStoreys',$,IFCCOUNTMEASURE(2),$);
#463=IFCPROPERTYSINGLEVALUE('IsLandmarked',$,IFCLOGICAL(.U.),$);
#464=IFCPROPERTYSET('01y_GmllCupEYuBgfGbhkd',#18,'Pset_BuildingCommon',$,(#43,#462,#463));
#465=IFCPROPERTYSET('1rUR7OGyIAkZT62xvibLnd',#18,'Pset_BuildingElementProxyCommon',$,(#43,#45));
#466=IFCPROPERTYSET('2kFDjjfIaTsBi7MLK$i$Me',#18,'Pset_BuildingStoreyCommon',$,(#43,#448));
#467=IFCPROPERTYSET('1TYvb3FgH88mtl04iE5P1T',#18,'Pset_BuildingSystemCommon',$,(#43));
#468=IFCPROPERTYSET('2W94HCj5xfigmNGtkBMklk',#18,'Pset_SpaceCommon',$,(#43,#45));
#469=IFCRELDEFINESBYPROPERTIES('0vDjba2fshDEh0_KufwWht',#18,$,$,(#32),#464);
#470=IFCRELDEFINESBYPROPERTIES('1V6UQfELB4oPy3GPEaJMPw',#18,$,$,(#32),#465);
#471=IFCRELDEFINESBYPROPERTIES('0Vpd75HttOMIhzXutBGgCt',#18,$,$,(#32),#466);
#472=IFCRELDEFINESBYPROPERTIES('22VMRBFW9n6_S81yWIP225',#18,$,$,(#32),#467);
#473=IFCRELDEFINESBYPROPERTIES('2w3bzVlKnfBVjA3_BjG2II',#18,$,$,(#32),#468);
#474=IFCRELASSOCIATESMATERIAL('22T9r9KB1F3JFgePfxkUGp',#18,$,$,(#73,#80,#109,#131,#153,#175,#197,#219,#241,#263,#285,#307,#329,#351,#373,#395,#417,#439),#79);
#475=IFCRELDEFINESBYTYPE('0MSq_ijuC5q4PUKv4QkOsA',#18,$,$,(#73,#109,#131,#153,#175,#197,#219,#241,#263,#285,#307,#329,#351,#373,#395,#417,#439),#80);
#476=IFCRELCONNECTSPATHELEMENTS('0o$QJ5gQ7jHUaUDfpl8Yu9',#18,'1u4oG4Ltr15fMWjwJ4pNV8|1u4oG4Ltr15fMWjwJ4pNOG','Structural',$,#73,#153,(),(),.ATEND.,.ATSTART.);
#477=IFCRELCONNECTSPATHELEMENTS('0PCxsUi71v6bsCeLnI5Xzf',#18,'1u4oG4Ltr15fMWjwJ4pNV8|1u4oG4Ltr15fMWjwJ4pNUQ','Structural',$,#73,#109,(),(),.ATSTART.,.ATEND.);
#478=IFCRELCONNECTSPATHELEMENTS('08PQ_rVezqNvP68wLCcksu',#18,'1u4oG4Ltr15fMWjwJ4pNUQ|1u4oG4Ltr15fMWjwJ4pNPJ','Structural',$,#109,#131,(),(),.ATSTART.,.ATEND.);
#479=IFCRELCONNECTSPATHELEMENTS('1zHQ_IRxHUpSLKgeiWlXxx',#18,'1u4oG4Ltr15fMWjwJ4pNPJ|1u4oG4Ltr15fMWjwJ4pN4F','Structural',$,#131,#197,(),(),.ATEND.,.ATEND.);
#480=IFCRELCONNECTSPATHELEMENTS('0GL4PXhWmnQ_ZMFF6W1tWh',#18,'1u4oG4Ltr15fMWjwJ4pNOG|1u4oG4Ltr15fMWjwJ4pN5R','Structural',$,#153,#175,(),(),.ATSTART.,.ATSTART.);
#481=IFCRELCONNECTSPATHELEMENTS('1sy$f7pGWfD6LvKU9ojFIZ',#18,'1u4oG4Ltr15fMWjwJ4pN5R|1u4oG4Ltr15fMWjwJ4pN4F','Structural',$,#175,#197,(),(),.ATSTART.,.ATEND.);
#482=IFCRELCONNECTSPATHELEMENTS('0IgFXErJenQtCYJkOK0eTW',#18,'1u4oG4Ltr15fMWjwJ4pN3B|1u4oG4Ltr15fMWjwJ4pNrL','Structural',$,#219,#285,(),(),.ATPATH.,.ATSTART.);
#483=IFCRELCONNECTSPATHELEMENTS('0DkB$QTXHf1VDCyoI80Hrt',#18,'1u4oG4Ltr15fMWjwJ4pNV8|1u4oG4Ltr15fMWjwJ4pN3B','Structural',$,#73,#219,(),(),.ATEND.,.ATPATH.);
#484=IFCRELCONNECTSPATHELEMENTS('2wmswMD_Cq7cjqo5_LDSOd',#18,'1u4oG4Ltr15fMWjwJ4pN3B|1u4oG4Ltr15fMWjwJ4pNDB','Structural',$,#219,#241,(),(),.ATSTART.,.ATPATH.);
#485=IFCRELCONNECTSPATHELEMENTS('2lFxvXgVZLBw_8SUiyA90o',#18,'1u4oG4Ltr15fMWjwJ4pNOG|1u4oG4Ltr15fMWjwJ4pNDB','Structural',$,#153,#241,(),(),.ATEND.,.ATPATH.);
#486=IFCRELCONNECTSPATHELEMENTS('0IFBUl7k1erQo_AItSfbwU',#18,'1u4oG4Ltr15fMWjwJ4pNDB|1u4oG4Ltr15fMWjwJ4pNFH','Structural',$,#241,#263,(),(),.ATSTART.,.ATPATH.);
#487=IFCRELCONNECTSPATHELEMENTS('0cJl8jZyxaWxvLD$wsxp2i',#18,'1u4oG4Ltr15fMWjwJ4pNV8|1u4oG4Ltr15fMWjwJ4pNFH','Structural',$,#73,#263,(),(),.ATEND.,.ATPATH.);
#488=IFCRELCONNECTSPATHELEMENTS('2A8FzIfq_4xZShmuiheyXP',#18,'1u4oG4Ltr15fMWjwJ4pN4F|1u4oG4Ltr15fMWjwJ4pNrL','Structural',$,#197,#285,(),(),.ATSTART.,.ATPATH.);
#489=IFCRELCONNECTSPATHELEMENTS('0PZfgdj0bzYyU$NknBV8iI',#18,'1u4oG4Ltr15fMWjwJ4pNUQ|1u4oG4Ltr15fMWjwJ4pNrL','Structural',$,#109,#285,(),(),.ATEND.,.ATPATH.);
#490=IFCRELCONNECTSPATHELEMENTS('3WoRMTuDyrV9$KKOHGPyvU',#18,'1G$Ejw1Tn27RsUWQGSEz59|1G$Ejw1Tn27RsUWQGSEz6s','Structural',$,#307,#351,(),(),.ATEND.,.ATSTART.);
#491=IFCRELCONNECTSPATHELEMENTS('3IPLgLg0DPIdo5hjCdRyNw',#18,'1G$Ejw1Tn27RsUWQGSEz59|1G$Ejw1Tn27RsUWQGSEz58','Structural',$,#307,#329,(),(),.ATSTART.,.ATEND.);
#492=IFCRELCONNECTSPATHELEMENTS('2qkQYnMFjFlLb5RGBjn3Ef',#18,'1G$Ejw1Tn27RsUWQGSEz58|1G$Ejw1Tn27RsUWQGSEz6r','Structural',$,#329,#373,(),(),.ATEND.,.ATEND.);
#493=IFCRELCONNECTSPATHELEMENTS('2vpf4_zTB8bS0qm3NSNSw4',#18,'1G$Ejw1Tn27RsUWQGSEz6s|1G$Ejw1Tn27RsUWQGSEz6r','Structural',$,#351,#373,(),(),.ATSTART.,.ATSTART.);
#494=IFCRELCONNECTSPATHELEMENTS('3suMUKWeCEgBBWS0Vl55oQ',#18,'1G$Ejw1Tn27RsUWQGSEz6s|1G$Ejw1Tn27RsUWQGSEzEq','Structural',$,#351,#395,(),(),.ATSTART.,.ATPATH.);
#495=IFCRELCONNECTSPATHELEMENTS('1hzXKgUj7CB4YHR0hlnVRL',#18,'1G$Ejw1Tn27RsUWQGSEzEq|1G$Ejw1Tn27RsUWQGSEzFQ','Structural',$,#395,#417,(),(),.ATPATH.,.ATEND.);
#496=IFCRELCONNECTSPATHELEMENTS('1fYs$VxsIOJnaeKul33XGb',#18,'1G$Ejw1Tn27RsUWQGSEz6r|1G$Ejw1Tn27RsUWQGSEzFQ','Structural',$,#373,#417,(),(),.ATSTART.,.ATPATH.);
#497=IFCRELCONNECTSPATHELEMENTS('1OD9Ufdpy2I5Uc0neAAsGZ',#18,'1G$Ejw1Tn27RsUWQGSEz59|1G$Ejw1Tn27RsUWQGSEzFQ','Structural',$,#307,#417,(),(),.ATEND.,.ATPATH.);
#498=IFCRELCONNECTSPATHELEMENTS('3DFlKO97yXBVi2QyauhVQA',#18,'1G$Ejw1Tn27RsUWQGSEzEq|1G$Ejw1Tn27RsUWQGSEonI','Structural',$,#395,#439,(),(),.ATSTART.,.ATPATH.);
#499=IFCRELCONNECTSPATHELEMENTS('2Jj1rS$nT6$v0EOEVLivRl',#18,'1G$Ejw1Tn27RsUWQGSEz59|1G$Ejw1Tn27RsUWQGSEonI','Structural',$,#307,#439,(),(),.ATEND.,.ATPATH.);
#500=IFCPRESENTATIONLAYERASSIGNMENT('A-WALL-____-OTLN',$,(#60,#71,#100,#107,#122,#129,#144,#151,#166,#173,#188,#195,#210,#217,#232,#239,#254,#261,#276,#283,#298,#305,#320,#327,#342,#349,#364,#371,#386,#393,#408,#415,#430,#437),$);
#501=IFCRELASSOCIATESCLASSIFICATION('2_BipfrdABL0CmxXTlAItJ',#18,'Exterior Walls','Exterior Walls:B2010',(#73,#109,#131,#153,#175,#197,#219,#241,#263,#285,#307,#329,#351,#373,#395,#417,#439),#92);
#502=IFCUNITASSIGNMENT((#19,#61));
ENDSEC;
END-ISO-10303-21;
