ISO-10303-21;
HEADER;
FILE_DESCRIPTION(('ViewDefinition [CoordinationView]','RevitIdentifiers [ContentGUID: cbb0ae2e-6350-4225-8ca4-af668662c38d, VersionGUID: 5fb973cd-8672-44ac-90f5-54004b3f83e1, NumberOfSaves: 33]','CoordinateReference [CoordinateBase: Shared Coordinates]'),'2;1');
FILE_NAME('01_02_011.ifc','2026-01-07T17:01:31+01:00',(''),(''),'ODA SDAI 24.6','Autodesk Revit 24.3.30.11 (ENU) - IFC 24.3.30.11','');
FILE_SCHEMA(('IFC4X3'));
ENDSEC;
DATA;
#1=IFCORGANIZATION($,'Autodesk Revit 2024 (ENU)',$,$,$);
#2=IFCAPPLICATION(#1,'2024','Autodesk Revit 2024 (ENU)','Revit');
#3=IFCCARTESIANPOINT((0.,0.,0.));
#4=IFCCARTESIANPOINT((0.,0.));
#5=IFCDIRECTION((1.,0.,0.));
#6=IFCDIRECTION((-1.,0.,0.));
#7=IFCDIRECTION((0.,1.,0.));
#8=IFCDIRECTION((0.,-1.,0.));
#9=IFCDIRECTION((0.,0.,1.));
#10=IFCDIRECTION((0.,0.,-1.));
#11=IFCDIRECTION((1.,0.));
#12=IFCDIRECTION((-1.,0.));
#13=IFCDIRECTION((0.,1.));
#14=IFCDIRECTION((0.,-1.));
#15=IFCPERSON($,'','h.helming',$,$,$,$,$);
#16=IFCORGANIZATION($,'Organization Name','Organization Description',$,$);
#17=IFCPERSONANDORGANIZATION(#15,#16,$);
#18=IFCOWNERHISTORY(#17,#2,$,.NOCHANGE.,$,$,$,1767701854);
#19=IFCSIUNIT(*,.LENGTHUNIT.,.MILLI.,.METRE.);
#20=IFCAXIS2PLACEMENT3D(#3,$,$);
#21=IFCDIRECTION((6.12303176911189E-17,1.));
#22=IFCGEOMETRICREPRESENTATIONCONTEXT($,'Model',3,0.01,#20,#21);
#23=IFCGEOMETRICREPRESENTATIONSUBCONTEXT('Axis','Model',*,*,*,*,#22,$,.GRAPH_VIEW.,$);
#24=IFCGEOMETRICREPRESENTATIONSUBCONTEXT('Body','Model',*,*,*,*,#22,$,.MODEL_VIEW.,$);
#25=IFCGEOMETRICREPRESENTATIONSUBCONTEXT('Box','Model',*,*,*,*,#22,$,.MODEL_VIEW.,$);
#26=IFCGEOMETRICREPRESENTATIONSUBCONTEXT('FootPrint','Model',*,*,*,*,#22,$,.MODEL_VIEW.,$);
#27=IFCPROJECT('3BiAukOr129OoahsPvdJnz',#18,'Project Number',$,$,'Project Name','Project Status',(#22),#596);
#28=IFCCLASSIFICATION('CSI (Construction Specifications Institute)','1998',$,'Uniformat','UniFormat Classification','https://www.csiresources.org/standards/uniformat',$);
#29=IFCAXIS2PLACEMENT3D(#3,$,$);
#30=IFCLOCALPLACEMENT(#41,#29);
#31=IFCPOSTALADDRESS($,$,$,$,('Enter address hereAddress Line 2'),$,'','Boston','','MA');
#32=IFCBUILDING('3BiAukOr129OoahsPvdJny',#18,'Building Name',$,$,#30,$,'Building Name',.ELEMENT.,$,$,#31);
#33=IFCAXIS2PLACEMENT3D(#3,$,$);
#34=IFCLOCALPLACEMENT(#30,#33);
#35=IFCBUILDINGSTOREY('2JF4e6axWHqu3u0C1FZlmi',#18,'L1',$,'Level:8mm Head',#34,$,'L1',.ELEMENT.,0.);
#36=IFCCARTESIANPOINT((0.,0.,3000.));
#37=IFCAXIS2PLACEMENT3D(#36,$,$);
#38=IFCLOCALPLACEMENT(#30,#37);
#39=IFCBUILDINGSTOREY('1ZGO8hrFCHqw0v0026FpFv',#18,'L2',$,'Level:8mm Head',#38,$,'L2',.ELEMENT.,3000.);
#40=IFCAXIS2PLACEMENT3D(#3,$,$);
#41=IFCLOCALPLACEMENT($,#40);
#42=IFCSITE('3BiAukOr129OoahsPvdJn$',#18,'Default',$,$,#41,$,$,.ELEMENT.,(42,21,31,401672),(-71,-3,-24,-345703),0.,$,$);
#43=IFCPROPERTYSINGLEVALUE('Reference',$,IFCIDENTIFIER('Project Information'),$);
#44=IFCPROPERTYSET('2mFJcO6I01h0OYRLOICO3c',#18,'Pset_SiteCommon',$,(#43));
#45=IFCPROPERTYSINGLEVALUE('IsExternal',$,IFCBOOLEAN(.F.),$);
#46=IFCPROPERTYSET('0O$B2PbAODr9jYnpcaZGJT',#18,'Pset_SpaceCommon',$,(#43,#45));
#47=IFCRELDEFINESBYPROPERTIES('2fDrcjst0HFayqQ3dY1cGQ',#18,$,$,(#42),#44);
#48=IFCRELDEFINESBYPROPERTIES('1lYkP70lXSGXnZeJnLC8MY',#18,$,$,(#42),#46);
#63=IFCAXIS2PLACEMENT3D(#3,$,$);
#64=IFCLOCALPLACEMENT(#34,#63);
#65=IFCCARTESIANPOINT((200.,4700.,0.));
#66=IFCCARTESIANPOINT((200.,7900.,0.));
#67=IFCCARTESIANPOINT((7500.,7900.,0.));
#68=IFCCARTESIANPOINT((7500.,4700.,0.));
#69=IFCCARTESIANPOINT((4900.,4700.,0.));
#70=IFCCARTESIANPOINT((4900.,200.,0.));
#71=IFCCARTESIANPOINT((200.,200.,0.));
#72=IFCCARTESIANPOINT((200.,4500.,0.));
#73=IFCCARTESIANPOINT((3000.,4500.,0.));
#74=IFCCARTESIANPOINT((3000.,4700.,0.));
#75=IFCPOLYLOOP((#65,#66,#67,#68,#69,#70,#71,#72,#73,#74));
#76=IFCFACEOUTERBOUND(#75,.T.);
#77=IFCFACE((#76));
#78=IFCCARTESIANPOINT((200.,4700.,2695.2));
#79=IFCCARTESIANPOINT((200.,7900.,2695.2));
#80=IFCPOLYLOOP((#66,#65,#78,#79));
#81=IFCFACEOUTERBOUND(#80,.T.);
#82=IFCFACE((#81));
#83=IFCCARTESIANPOINT((3000.,4700.,2695.2));
#84=IFCPOLYLOOP((#65,#74,#83,#78));
#85=IFCFACEOUTERBOUND(#84,.T.);
#86=IFCFACE((#85));
#87=IFCCARTESIANPOINT((3000.,4500.,2695.2));
#88=IFCPOLYLOOP((#74,#73,#87,#83));
#89=IFCFACEOUTERBOUND(#88,.T.);
#90=IFCFACE((#89));
#91=IFCCARTESIANPOINT((200.,4500.,2695.2));
#92=IFCPOLYLOOP((#73,#72,#91,#87));
#93=IFCFACEOUTERBOUND(#92,.T.);
#94=IFCFACE((#93));
#95=IFCCARTESIANPOINT((200.,200.,2695.2));
#96=IFCPOLYLOOP((#72,#71,#95,#91));
#97=IFCFACEOUTERBOUND(#96,.T.);
#98=IFCFACE((#97));
#99=IFCCARTESIANPOINT((4900.,200.,2695.2));
#100=IFCPOLYLOOP((#71,#70,#99,#95));
#101=IFCFACEOUTERBOUND(#100,.T.);
#102=IFCFACE((#101));
#103=IFCCARTESIANPOINT((4900.,4700.,2695.2));
#104=IFCPOLYLOOP((#70,#69,#103,#99));
#105=IFCFACEOUTERBOUND(#104,.T.);
#106=IFCFACE((#105));
#107=IFCCARTESIANPOINT((7500.,4700.,2695.2));
#108=IFCPOLYLOOP((#69,#68,#107,#103));
#109=IFCFACEOUTERBOUND(#108,.T.);
#110=IFCFACE((#109));
#111=IFCCARTESIANPOINT((7500.,7900.,2695.2));
#112=IFCPOLYLOOP((#68,#67,#111,#107));
#113=IFCFACEOUTERBOUND(#112,.T.);
#114=IFCFACE((#113));
#115=IFCPOLYLOOP((#67,#66,#79,#111));
#116=IFCFACEOUTERBOUND(#115,.T.);
#117=IFCFACE((#116));
#118=IFCPOLYLOOP((#79,#78,#83,#87,#91,#95,#99,#103,#107,#111));
#119=IFCFACEOUTERBOUND(#118,.T.);
#120=IFCFACE((#119));
#121=IFCCLOSEDSHELL((#77,#82,#86,#90,#94,#98,#102,#106,#110,#114,#117,#120));
#122=IFCFACETEDBREP(#121);
#123=IFCSHAPEREPRESENTATION(#24,'Body','Brep',(#122));
#124=IFCPRODUCTDEFINITIONSHAPE($,$,(#123));
#125=IFCSIUNIT(*,.AREAUNIT.,$,.SQUARE_METRE.);
#126=IFCSPACE('0rTWnvc$TEcxPkiz6YVMXL',#18,'136',$,$,#64,#124,'room',.ELEMENT.,.NOTDEFINED.,$);
#127=IFCSPACETYPE('0rTWnvc$TEcxPkkz6YVMXL',#18,'room 136:1603652',$,$,$,$,'1603652',$,.NOTDEFINED.,$);
#128=IFCPROPERTYSINGLEVALUE('Reference',$,IFCIDENTIFIER('room 136'),$);
#129=IFCPROPERTYSET('1yVNq8JvERFUCk0SSWqd4A',#18,'Pset_SpaceCommon',$,(#45,#128));
#130=IFCPROPERTYSET('0QcwjV1aNu_kJC2C2O71zH',#18,'Pset_SpaceHeaterTypeCommon',$,(#128));
#131=IFCRELDEFINESBYPROPERTIES('0JR70OPg3py8LvB24F8w$O',#18,$,$,(#126),#129);
#132=IFCRELDEFINESBYPROPERTIES('0foiP_lU9u$o9U3S4mN6cJ',#18,$,$,(#126),#130);
#135=IFCAXIS2PLACEMENT3D(#3,$,$);
#136=IFCLOCALPLACEMENT(#34,#135);
#137=IFCCARTESIANPOINT((5100.,0.,0.));
#138=IFCCARTESIANPOINT((5100.,4500.,0.));
#139=IFCCARTESIANPOINT((7700.,4500.,0.));
#140=IFCCARTESIANPOINT((7700.,0.,0.));
#141=IFCPOLYLOOP((#137,#138,#139,#140));
#142=IFCFACEOUTERBOUND(#141,.T.);
#143=IFCFACE((#142));
#144=IFCCARTESIANPOINT((5100.,0.,2695.2));
#145=IFCCARTESIANPOINT((5100.,4500.,2695.2));
#146=IFCPOLYLOOP((#138,#137,#144,#145));
#147=IFCFACEOUTERBOUND(#146,.T.);
#148=IFCFACE((#147));
#149=IFCCARTESIANPOINT((7700.,0.,2695.2));
#150=IFCPOLYLOOP((#137,#140,#149,#144));
#151=IFCFACEOUTERBOUND(#150,.T.);
#152=IFCFACE((#151));
#153=IFCCARTESIANPOINT((7700.,4500.,2695.2));
#154=IFCPOLYLOOP((#140,#139,#153,#149));
#155=IFCFACEOUTERBOUND(#154,.T.);
#156=IFCFACE((#155));
#157=IFCPOLYLOOP((#139,#138,#145,#153));
#158=IFCFACEOUTERBOUND(#157,.T.);
#159=IFCFACE((#158));
#160=IFCPOLYLOOP((#145,#144,#149,#153));
#161=IFCFACEOUTERBOUND(#160,.T.);
#162=IFCFACE((#161));
#163=IFCCLOSEDSHELL((#143,#148,#152,#156,#159,#162));
#164=IFCFACETEDBREP(#163);
#165=IFCSHAPEREPRESENTATION(#24,'Body','Brep',(#164));
#166=IFCPRODUCTDEFINITIONSHAPE($,$,(#165));
#167=IFCSPACE('0rTWnvc$TEcxPkiz6YVMaY',#18,'138',$,$,#136,#166,'room',.ELEMENT.,.NOTDEFINED.,$);
#168=IFCSPACETYPE('0rTWnvc$TEcxPkkz6YVMaY',#18,'room 138:1603891',$,$,$,$,'1603891',$,.NOTDEFINED.,$);
#169=IFCPROPERTYSINGLEVALUE('Reference',$,IFCIDENTIFIER('room 138'),$);
#170=IFCPROPERTYSET('3pNI8VuQiIqd0g7RWjjTkw',#18,'Pset_SpaceCommon',$,(#45,#169));
#171=IFCPROPERTYSET('2lVnMMOOcGI2GieugydxK1',#18,'Pset_SpaceHeaterTypeCommon',$,(#169));
#172=IFCRELDEFINESBYPROPERTIES('20Le2jMKwfU36Tp832hsK1',#18,$,$,(#167),#170);
#173=IFCRELDEFINESBYPROPERTIES('1UVZWMa1HFw_wO6a4M0U_c',#18,$,$,(#167),#171);
#174=IFCCARTESIANPOINT((100.,8100.,0.));
#175=IFCAXIS2PLACEMENT3D(#174,#9,#8);
#176=IFCLOCALPLACEMENT(#34,#175);
#177=IFCCARTESIANPOINT((8100.,-0.));
#178=IFCPOLYLINE((#4,#177));
#179=IFCSHAPEREPRESENTATION(#23,'Axis','Curve2D',(#178));
#180=IFCCARTESIANPOINT((4050.00000000001,-1.4210854715202E-14));
#181=IFCAXIS2PLACEMENT2D(#180,#12);
#182=IFCRECTANGLEPROFILEDEF(.AREA.,$,#181,8100.00000000003,200.);
#183=IFCAXIS2PLACEMENT3D(#3,$,$);
#184=IFCEXTRUDEDAREASOLID(#182,#183,#9,2695.2);
#185=IFCCARTESIANPOINT((8100.,-0.));
#186=IFCCARTESIANPOINT((8100.,200.));
#187=IFCCARTESIANPOINT((7900.,200.));
#188=IFCCARTESIANPOINT((3600.,200.));
#189=IFCCARTESIANPOINT((3400.,200.));
#190=IFCCARTESIANPOINT((200.,200.));
#191=IFCCARTESIANPOINT((0.,200.));
#192=IFCPOLYLINE((#4,#185,#186,#187,#188,#189,#190,#191,#4));
#193=IFCCARTESIANPOINT((0.,-100.,2695.2));
#194=IFCAXIS2PLACEMENT3D(#193,#10,#8);
#195=IFCPLANE(#194);
#196=IFCCARTESIANPOINT((0.,-100.,2695.2));
#197=IFCAXIS2PLACEMENT3D(#196,$,$);
#198=IFCPOLYGONALBOUNDEDHALFSPACE(#195,.T.,#197,#192);
#199=IFCBOOLEANCLIPPINGRESULT(.DIFFERENCE.,#184,#198);
#200=IFCCOLOURRGB($,0.752941176470588,0.752941176470588,0.752941176470588);
#201=IFCSURFACESTYLERENDERING(#200,0.,$,$,$,$,IFCNORMALISEDRATIOMEASURE(0.5),IFCSPECULAREXPONENT(10.),.NOTDEFINED.);
#202=IFCSURFACESTYLE('Default Wall',.BOTH.,(#201));
#203=IFCSTYLEDITEM(#184,(#202),$);
#204=IFCSHAPEREPRESENTATION(#24,'Body','Clipping',(#199));
#205=IFCPRODUCTDEFINITIONSHAPE($,$,(#179,#204));
#206=IFCWALL('3Vyqk8cSj8TOuAk6zHUwAt',#18,'Basic Wall:Generic - 200mm:1602350',$,'Basic Wall:Generic - 200mm',#176,#205,'1602350',.NOTDEFINED.);
#207=IFCMATERIAL('Default Wall',$,'Miscellaneous');
#208=IFCSTYLEDITEM($,(#202),$);
#209=IFCSTYLEDREPRESENTATION(#22,'Style','Material',(#208));
#210=IFCMATERIALDEFINITIONREPRESENTATION($,$,(#209),#207);
#211=IFCMATERIALLAYER(#207,200.,$,'Layer',$,'Miscellaneous',$);
#212=IFCMATERIALLAYERSET((#211),'Basic Wall:Generic - 200mm',$);
#213=IFCWALLTYPE('1xZrMVYp52mhf4uMzw11Hk',#18,'Basic Wall:Generic - 200mm',$,$,(#227),$,'441451',$,.STANDARD.);
#214=IFCPROPERTYSINGLEVALUE('Reference',$,IFCIDENTIFIER('Generic - 200mm'),$);
#215=IFCPROPERTYSET('0Km4zNM2MwGsg6uui573Gl',#18,'Pset_EnvironmentalImpactIndicators',$,(#214));
#216=IFCPROPERTYSINGLEVALUE('Reference',$,IFCLABEL('Generic - 200mm'),$);
#217=IFCPROPERTYSET('0ZXMEr5ajxWFHJMWoi4f9d',#18,'Pset_ReinforcementBarPitchOfWall',$,(#216));
#218=IFCPROPERTYSINGLEVALUE('IsExternal',$,IFCBOOLEAN(.T.),$);
#219=IFCPROPERTYSINGLEVALUE('LoadBearing',$,IFCBOOLEAN(.F.),$);
#220=IFCPROPERTYSINGLEVALUE('ExtendToStructure',$,IFCBOOLEAN(.T.),$);
#221=IFCPROPERTYSET('1zrfxTCt1bXMa1Ly5p70N1',#18,'Pset_WallCommon',$,(#214,#218,#219,#220));
#222=IFCRELDEFINESBYPROPERTIES('03npcsjKGgxiKm0v35mOCU',#18,$,$,(#206),#215);
#223=IFCRELDEFINESBYPROPERTIES('19PyAMlzR0yGXIwnh1vl8V',#18,$,$,(#206),#217);
#224=IFCRELDEFINESBYPROPERTIES('0Ch_H7bAOLrBCWJ9at5CY2',#18,$,$,(#206),#221);
#225=IFCCLASSIFICATIONREFERENCE('https://www.csiresources.org/standards/uniformat','B2010','Exterior Walls',#28,'',$);
#226=IFCPROPERTYSINGLEVALUE('Description',$,IFCTEXT('Generic Wall (Material By Category), 200mm thick'),$);
#227=IFCPROPERTYSET('2L7lvTstnIeeydfwzfZZLR',#18,'Pset_ReinforcementBarPitchOfWall',$,(#226));
#228=IFCCARTESIANPOINT((200.,100.,0.));
#229=IFCAXIS2PLACEMENT3D(#228,$,$);
#230=IFCLOCALPLACEMENT(#34,#229);
#231=IFCCARTESIANPOINT((4700.,0.));
#232=IFCPOLYLINE((#4,#231));
#233=IFCSHAPEREPRESENTATION(#23,'Axis','Curve2D',(#232));
#234=IFCCARTESIANPOINT((2350.,0.));
#235=IFCAXIS2PLACEMENT2D(#234,#12);
#236=IFCRECTANGLEPROFILEDEF(.AREA.,$,#235,4700.,200.);
#237=IFCAXIS2PLACEMENT3D(#3,$,$);
#238=IFCEXTRUDEDAREASOLID(#236,#237,#9,2695.2);
#239=IFCCARTESIANPOINT((4700.,0.));
#240=IFCCARTESIANPOINT((4700.,200.));
#241=IFCCARTESIANPOINT((0.,200.));
#242=IFCPOLYLINE((#4,#239,#240,#241,#4));
#243=IFCCARTESIANPOINT((0.,-100.,2695.2));
#244=IFCAXIS2PLACEMENT3D(#243,#10,#6);
#245=IFCPLANE(#244);
#246=IFCCARTESIANPOINT((0.,-100.,2695.2));
#247=IFCAXIS2PLACEMENT3D(#246,$,$);
#248=IFCPOLYGONALBOUNDEDHALFSPACE(#245,.T.,#247,#242);
#249=IFCBOOLEANCLIPPINGRESULT(.DIFFERENCE.,#238,#248);
#250=IFCSTYLEDITEM(#238,(#202),$);
#251=IFCSHAPEREPRESENTATION(#24,'Body','Clipping',(#249));
#252=IFCPRODUCTDEFINITIONSHAPE($,$,(#233,#251));
#253=IFCWALL('3Vyqk8cSj8TOuAk6zHUwAc',#18,'Basic Wall:Generic - 200mm:1602367',$,'Basic Wall:Generic - 200mm',#230,#252,'1602367',.NOTDEFINED.);
#254=IFCPROPERTYSET('3JUIdSeVp_uwEbbZZ62q4s',#18,'Pset_EnvironmentalImpactIndicators',$,(#214));
#255=IFCPROPERTYSINGLEVALUE('Reference',$,IFCLABEL('Generic - 200mm'),$);
#256=IFCPROPERTYSET('2xt8_eWXQmZoGh92FUaf7C',#18,'Pset_ReinforcementBarPitchOfWall',$,(#255));
#257=IFCPROPERTYSET('1Qx33RkOMvlc106bCgkFYy',#18,'Pset_WallCommon',$,(#214,#218,#219,#220));
#258=IFCRELDEFINESBYPROPERTIES('0Cbozj_3TLDgtMpOD0_yYT',#18,$,$,(#253),#254);
#259=IFCRELDEFINESBYPROPERTIES('1Feha5xswcNTrZ$5QRM3b5',#18,$,$,(#253),#256);
#260=IFCRELDEFINESBYPROPERTIES('1olywbjtcxLyBnEbs_Cz$6',#18,$,$,(#253),#257);
#261=IFCCARTESIANPOINT((5000.,0.,0.));
#262=IFCAXIS2PLACEMENT3D(#261,#9,#7);
#263=IFCLOCALPLACEMENT(#34,#262);
#264=IFCCARTESIANPOINT((4500.,-0.));
#265=IFCPOLYLINE((#4,#264));
#266=IFCSHAPEREPRESENTATION(#23,'Axis','Curve2D',(#265));
#267=IFCCARTESIANPOINT((2250.,-1.56319401867222E-13));
#268=IFCAXIS2PLACEMENT2D(#267,#12);
#269=IFCRECTANGLEPROFILEDEF(.AREA.,$,#268,4500.,200.);
#270=IFCAXIS2PLACEMENT3D(#3,$,$);
#271=IFCEXTRUDEDAREASOLID(#269,#270,#9,2695.2);
#272=IFCCARTESIANPOINT((4500.,-0.));
#273=IFCCARTESIANPOINT((4500.,200.));
#274=IFCCARTESIANPOINT((200.,200.));
#275=IFCCARTESIANPOINT((-0.,200.));
#276=IFCPOLYLINE((#4,#272,#273,#274,#275,#4));
#277=IFCCARTESIANPOINT((0.,-100.,2695.2));
#278=IFCAXIS2PLACEMENT3D(#277,#10,#7);
#279=IFCPLANE(#278);
#280=IFCCARTESIANPOINT((0.,-100.,2695.2));
#281=IFCAXIS2PLACEMENT3D(#280,$,$);
#282=IFCPOLYGONALBOUNDEDHALFSPACE(#279,.T.,#281,#276);
#283=IFCBOOLEANCLIPPINGRESULT(.DIFFERENCE.,#271,#282);
#284=IFCSTYLEDITEM(#271,(#202),$);
#285=IFCSHAPEREPRESENTATION(#24,'Body','Clipping',(#283));
#286=IFCPRODUCTDEFINITIONSHAPE($,$,(#266,#285));
#287=IFCWALL('3Vyqk8cSj8TOuAk6zHUwBs',#18,'Basic Wall:Generic - 200mm:1602415',$,'Basic Wall:Generic - 200mm',#263,#286,'1602415',.NOTDEFINED.);
#288=IFCPROPERTYSET('3zFZKkmoyjMir2XJPwM5K5',#18,'Pset_EnvironmentalImpactIndicators',$,(#214));
#289=IFCPROPERTYSINGLEVALUE('Reference',$,IFCLABEL('Generic - 200mm'),$);
#290=IFCPROPERTYSET('24rl2YIcyoi55ChyZCq2G8',#18,'Pset_ReinforcementBarPitchOfWall',$,(#289));
#291=IFCPROPERTYSET('1QO0ZFI0bba_x9VNyujEk0',#18,'Pset_WallCommon',$,(#214,#218,#219,#220));
#292=IFCRELDEFINESBYPROPERTIES('2a9nfObiFdFDL_xI6RB3zY',#18,$,$,(#287),#288);
#293=IFCRELDEFINESBYPROPERTIES('2lgnXdSixHWA271wBKXvqj',#18,$,$,(#287),#290);
#294=IFCRELDEFINESBYPROPERTIES('1XotYCV5aUozGnrkwTWOXu',#18,$,$,(#287),#291);
#295=IFCCARTESIANPOINT((7500.,4600.,0.));
#296=IFCAXIS2PLACEMENT3D(#295,#9,#6);
#297=IFCLOCALPLACEMENT(#34,#296);
#298=IFCCARTESIANPOINT((2600.,0.));
#299=IFCPOLYLINE((#4,#298));
#300=IFCSHAPEREPRESENTATION(#23,'Axis','Curve2D',(#299));
#301=IFCCARTESIANPOINT((1300.,7.105427357601E-14));
#302=IFCAXIS2PLACEMENT2D(#301,#12);
#303=IFCRECTANGLEPROFILEDEF(.AREA.,$,#302,2600.,200.);
#304=IFCAXIS2PLACEMENT3D(#3,$,$);
#305=IFCEXTRUDEDAREASOLID(#303,#304,#9,2695.2);
#306=IFCCARTESIANPOINT((2600.,0.));
#307=IFCCARTESIANPOINT((2600.,200.));
#308=IFCCARTESIANPOINT((2400.,200.));
#309=IFCCARTESIANPOINT((-0.,200.));
#310=IFCPOLYLINE((#4,#306,#307,#308,#309,#4));
#311=IFCCARTESIANPOINT((0.,-100.,2695.2));
#312=IFCAXIS2PLACEMENT3D(#311,#10,#5);
#313=IFCPLANE(#312);
#314=IFCCARTESIANPOINT((0.,-100.,2695.2));
#315=IFCAXIS2PLACEMENT3D(#314,$,$);
#316=IFCPOLYGONALBOUNDEDHALFSPACE(#313,.T.,#315,#310);
#317=IFCBOOLEANCLIPPINGRESULT(.DIFFERENCE.,#305,#316);
#318=IFCSTYLEDITEM(#305,(#202),$);
#319=IFCSHAPEREPRESENTATION(#24,'Body','Clipping',(#317));
#320=IFCPRODUCTDEFINITIONSHAPE($,$,(#300,#319));
#321=IFCWALL('3Vyqk8cSj8TOuAk6zHUw89',#18,'Basic Wall:Generic - 200mm:1602448',$,'Basic Wall:Generic - 200mm',#297,#320,'1602448',.NOTDEFINED.);
#322=IFCPROPERTYSET('24uQ0xYWMb2iAICPORaANl',#18,'Pset_EnvironmentalImpactIndicators',$,(#214));
#323=IFCPROPERTYSINGLEVALUE('Reference',$,IFCLABEL('Generic - 200mm'),$);
#324=IFCPROPERTYSET('2NtOS$PXqyXyak0_SUhCNN',#18,'Pset_ReinforcementBarPitchOfWall',$,(#323));
#325=IFCPROPERTYSET('3bKdsx29_RVH62fNRmCncU',#18,'Pset_WallCommon',$,(#214,#218,#219,#220));
#326=IFCRELDEFINESBYPROPERTIES('2OpRam8jxvHM2_75mSf2IS',#18,$,$,(#321),#322);
#327=IFCRELDEFINESBYPROPERTIES('1q8YBDpLYRkwLX2j2Smoto',#18,$,$,(#321),#324);
#328=IFCRELDEFINESBYPROPERTIES('3tUA_y2$R1DIY4ctO4p7G7',#18,$,$,(#321),#325);
#329=IFCCARTESIANPOINT((7600.,4500.,0.));
#330=IFCAXIS2PLACEMENT3D(#329,#9,#7);
#331=IFCLOCALPLACEMENT(#34,#330);
#332=IFCCARTESIANPOINT((3600.,0.));
#333=IFCPOLYLINE((#4,#332));
#334=IFCSHAPEREPRESENTATION(#23,'Axis','Curve2D',(#333));
#335=IFCCARTESIANPOINT((1800.00000000001,1.77635683940025E-13));
#336=IFCAXIS2PLACEMENT2D(#335,#12);
#337=IFCRECTANGLEPROFILEDEF(.AREA.,$,#336,3600.00000000002,200.);
#338=IFCAXIS2PLACEMENT3D(#3,$,$);
#339=IFCEXTRUDEDAREASOLID(#337,#338,#9,2695.2);
#340=IFCCARTESIANPOINT((3600.,0.));
#341=IFCCARTESIANPOINT((3600.,200.));
#342=IFCCARTESIANPOINT((3400.,200.));
#343=IFCCARTESIANPOINT((200.,200.));
#344=IFCCARTESIANPOINT((0.,200.));
#345=IFCPOLYLINE((#4,#340,#341,#342,#343,#344,#4));
#346=IFCCARTESIANPOINT((0.,-100.,2695.2));
#347=IFCAXIS2PLACEMENT3D(#346,#10,#7);
#348=IFCPLANE(#347);
#349=IFCCARTESIANPOINT((0.,-100.,2695.2));
#350=IFCAXIS2PLACEMENT3D(#349,$,$);
#351=IFCPOLYGONALBOUNDEDHALFSPACE(#348,.T.,#350,#345);
#352=IFCBOOLEANCLIPPINGRESULT(.DIFFERENCE.,#339,#351);
#353=IFCSTYLEDITEM(#339,(#202),$);
#354=IFCSHAPEREPRESENTATION(#24,'Body','Clipping',(#352));
#355=IFCPRODUCTDEFINITIONSHAPE($,$,(#334,#354));
#356=IFCWALL('3Vyqk8cSj8TOuAk6zHUwMJ',#18,'Basic Wall:Generic - 200mm:1602570',$,'Basic Wall:Generic - 200mm',#331,#355,'1602570',.NOTDEFINED.);
#357=IFCPROPERTYSET('3lnIhEvOuHbjSaKDfZK8k9',#18,'Pset_EnvironmentalImpactIndicators',$,(#214));
#358=IFCPROPERTYSINGLEVALUE('Reference',$,IFCLABEL('Generic - 200mm'),$);
#359=IFCPROPERTYSET('04W1WwOvjm30inH1dChtfP',#18,'Pset_ReinforcementBarPitchOfWall',$,(#358));
#360=IFCPROPERTYSET('3KqX06vgGEOM$38ftOcyqA',#18,'Pset_WallCommon',$,(#214,#218,#219,#220));
#361=IFCRELDEFINESBYPROPERTIES('0S8aOnFU8WcFAwodE0ltd9',#18,$,$,(#356),#357);
#362=IFCRELDEFINESBYPROPERTIES('1tYLw8_V7aeyi7TVjsHYUw',#18,$,$,(#356),#359);
#363=IFCRELDEFINESBYPROPERTIES('1t2sWDc8aJN1HpxUM7WWie',#18,$,$,(#356),#360);
#364=IFCCARTESIANPOINT((7500.,8000.,0.));
#365=IFCAXIS2PLACEMENT3D(#364,#9,#6);
#366=IFCLOCALPLACEMENT(#34,#365);
#367=IFCCARTESIANPOINT((7300.,0.));
#368=IFCPOLYLINE((#4,#367));
#369=IFCSHAPEREPRESENTATION(#23,'Axis','Curve2D',(#368));
#370=IFCCARTESIANPOINT((3650.,4.40536496171262E-13));
#371=IFCAXIS2PLACEMENT2D(#370,#12);
#372=IFCRECTANGLEPROFILEDEF(.AREA.,$,#371,7300.,200.);
#373=IFCAXIS2PLACEMENT3D(#3,$,$);
#374=IFCEXTRUDEDAREASOLID(#372,#373,#9,2695.2);
#375=IFCCARTESIANPOINT((7300.,0.));
#376=IFCCARTESIANPOINT((7300.,200.));
#377=IFCCARTESIANPOINT((0.,200.));
#378=IFCPOLYLINE((#4,#375,#376,#377,#4));
#379=IFCCARTESIANPOINT((0.,-100.,2695.2));
#380=IFCAXIS2PLACEMENT3D(#379,#10,#5);
#381=IFCPLANE(#380);
#382=IFCCARTESIANPOINT((0.,-100.,2695.2));
#383=IFCAXIS2PLACEMENT3D(#382,$,$);
#384=IFCPOLYGONALBOUNDEDHALFSPACE(#381,.T.,#383,#378);
#385=IFCBOOLEANCLIPPINGRESULT(.DIFFERENCE.,#374,#384);
#386=IFCSTYLEDITEM(#374,(#202),$);
#387=IFCSHAPEREPRESENTATION(#24,'Body','Clipping',(#385));
#388=IFCPRODUCTDEFINITIONSHAPE($,$,(#369,#387));
#389=IFCWALL('3Vyqk8cSj8TOuAk6zHUwNQ',#18,'Basic Wall:Generic - 200mm:1602627',$,'Basic Wall:Generic - 200mm',#366,#388,'1602627',.NOTDEFINED.);
#390=IFCPROPERTYSET('33VNddCdyWuRINW3IN$6wR',#18,'Pset_EnvironmentalImpactIndicators',$,(#214));
#391=IFCPROPERTYSINGLEVALUE('Reference',$,IFCLABEL('Generic - 200mm'),$);
#392=IFCPROPERTYSET('3fo6gcdchLdhUs9OMMjJcK',#18,'Pset_ReinforcementBarPitchOfWall',$,(#391));
#393=IFCPROPERTYSET('365dpoAGwqqh9R$iloiJ6Y',#18,'Pset_WallCommon',$,(#214,#218,#219,#220));
#394=IFCRELDEFINESBYPROPERTIES('2BzMAyBcbgIMAClUNVhX7C',#18,$,$,(#389),#390);
#395=IFCRELDEFINESBYPROPERTIES('2jcjj16uqcySZoq7QPRlFE',#18,$,$,(#389),#392);
#396=IFCRELDEFINESBYPROPERTIES('3JFaQDGEcQuJc$tDFSxPEn',#18,$,$,(#389),#393);
#397=IFCCARTESIANPOINT((3000.,4600.,0.));
#398=IFCAXIS2PLACEMENT3D(#397,#9,#6);
#399=IFCLOCALPLACEMENT(#34,#398);
#400=IFCCARTESIANPOINT((2800.,0.));
#401=IFCPOLYLINE((#4,#400));
#402=IFCSHAPEREPRESENTATION(#23,'Axis','Curve2D',(#401));
#403=IFCCARTESIANPOINT((1400.,0.));
#404=IFCAXIS2PLACEMENT2D(#403,#12);
#405=IFCRECTANGLEPROFILEDEF(.AREA.,$,#404,2800.,200.);
#406=IFCAXIS2PLACEMENT3D(#3,$,$);
#407=IFCEXTRUDEDAREASOLID(#405,#406,#9,2695.2);
#408=IFCCARTESIANPOINT((2800.,0.));
#409=IFCCARTESIANPOINT((2800.,200.));
#410=IFCCARTESIANPOINT((-0.,200.));
#411=IFCPOLYLINE((#4,#408,#409,#410,#4));
#412=IFCCARTESIANPOINT((0.,-100.,2695.2));
#413=IFCAXIS2PLACEMENT3D(#412,#10,#5);
#414=IFCPLANE(#413);
#415=IFCCARTESIANPOINT((0.,-100.,2695.2));
#416=IFCAXIS2PLACEMENT3D(#415,$,$);
#417=IFCPOLYGONALBOUNDEDHALFSPACE(#414,.T.,#416,#411);
#418=IFCBOOLEANCLIPPINGRESULT(.DIFFERENCE.,#407,#417);
#419=IFCSTYLEDITEM(#407,(#202),$);
#420=IFCSHAPEREPRESENTATION(#24,'Body','Clipping',(#418));
#421=IFCPRODUCTDEFINITIONSHAPE($,$,(#402,#420));
#422=IFCWALL('3Vyqk8cSj8TOuAk6zHUwIV',#18,'Basic Wall:Generic - 200mm:1602822',$,'Basic Wall:Generic - 200mm',#399,#421,'1602822',.NOTDEFINED.);
#423=IFCPROPERTYSET('3jiZGkAKUu2Am_YLPx8Ihp',#18,'Pset_EnvironmentalImpactIndicators',$,(#214));
#424=IFCPROPERTYSINGLEVALUE('Reference',$,IFCLABEL('Generic - 200mm'),$);
#425=IFCPROPERTYSET('0I2vFcCwzFIqXYuiAJMRoI',#18,'Pset_ReinforcementBarPitchOfWall',$,(#424));
#426=IFCPROPERTYSET('3oaDZ6ll2ApuPGw0$rKaRm',#18,'Pset_WallCommon',$,(#214,#218,#219,#220));
#427=IFCRELDEFINESBYPROPERTIES('3sUTm1e5PvbSM1LkCWEcnc',#18,$,$,(#422),#423);
#428=IFCRELDEFINESBYPROPERTIES('2PBm19nyIDk_wgMh7oZ7kn',#18,$,$,(#422),#425);
#429=IFCRELDEFINESBYPROPERTIES('1puf9ZxLtpuD$z2essXrIy',#18,$,$,(#422),#426);
#430=IFCAXIS2PLACEMENT3D(#3,$,$);
#431=IFCLOCALPLACEMENT(#34,#430);
#432=IFCCARTESIANPOINT((0.,0.));
#433=IFCAXIS2PLACEMENT2D(#432,#11);
#434=IFCRECTANGLEPROFILEDEF(.AREA.,$,#433,8100.,7700.00000000001);
#435=IFCCARTESIANPOINT((3850.,4050.,0.));
#436=IFCAXIS2PLACEMENT3D(#435,#10,#7);
#437=IFCEXTRUDEDAREASOLID(#434,#436,#9,304.8);
#438=IFCCOLOURRGB($,0.501960784313725,0.501960784313725,0.501960784313725);
#439=IFCSURFACESTYLERENDERING(#438,0.,$,$,$,$,IFCNORMALISEDRATIOMEASURE(0.5),IFCSPECULAREXPONENT(10.),.NOTDEFINED.);
#440=IFCSURFACESTYLE('Default Floor',.BOTH.,(#439));
#441=IFCSTYLEDITEM(#437,(#440),$);
#442=IFCSHAPEREPRESENTATION(#24,'Body','SweptSolid',(#437));
#443=IFCSIUNIT(*,.PLANEANGLEUNIT.,$,.RADIAN.);
#444=IFCDIMENSIONALEXPONENTS(0,0,0,0,0,0,0);
#445=IFCMEASUREWITHUNIT(IFCPLANEANGLEMEASURE(0.0174532925199433),#443);
#446=IFCCONVERSIONBASEDUNIT(#444,.PLANEANGLEUNIT.,'DEGREE',#445);
#447=IFCPRODUCTDEFINITIONSHAPE($,$,(#442));
#448=IFCSLAB('0dxtXCDSn2mfP92h$AiPNt',#18,'Floor:Generic - 12":1603513',$,'Floor:Generic - 12"',#431,#447,'1603513',.FLOOR.);
#449=IFCSLABTYPE('1xZrMVYp52mhf4uMzw11Hi',#18,'Floor:Generic - 12"',$,$,(#468),$,'441449',$,.FLOOR.);
#450=IFCMATERIAL('Default Floor',$,'Miscellaneous');
#451=IFCSTYLEDITEM($,(#440),$);
#452=IFCSTYLEDREPRESENTATION(#22,'Style','Material',(#451));
#453=IFCMATERIALDEFINITIONREPRESENTATION($,$,(#452),#450);
#454=IFCMATERIALLAYER(#450,304.8,$,'Layer',$,'Miscellaneous',$);
#455=IFCMATERIALLAYERSET((#454),'Floor:Generic - 12"',$);
#456=IFCMATERIALLAYERSETUSAGE(#455,.AXIS3.,.POSITIVE.,0.,$);
#457=IFCPROPERTYSINGLEVALUE('Reference',$,IFCIDENTIFIER('Generic - 12"'),$);
#458=IFCPROPERTYSET('2WrTm3aPy3BIbKc6XtXVrh',#18,'Pset_EnvironmentalImpactIndicators',$,(#457));
#459=IFCPROPERTYSINGLEVALUE('Reference',$,IFCLABEL('Generic - 12"'),$);
#460=IFCPROPERTYSET('0wUBDx6kDVbd2xy1P3gXJf',#18,'Pset_ReinforcementBarPitchOfSlab',$,(#459));
#461=IFCPROPERTYSINGLEVALUE('PitchAngle',$,IFCPLANEANGLEMEASURE(0.),$);
#462=IFCPROPERTYSET('2FpGr__1Pq1BThqRSA3oX5',#18,'Pset_SlabCommon',$,(#45,#219,#457,#461));
#463=IFCRELDEFINESBYPROPERTIES('2$ow_FWnc4oBF1YIvgCc32',#18,$,$,(#448),#458);
#464=IFCRELDEFINESBYPROPERTIES('3hptuPTkvy0K3xpzilXQpJ',#18,$,$,(#448),#460);
#465=IFCRELDEFINESBYPROPERTIES('3SAQiH1PVh8_oNSN1Eb0zh',#18,$,$,(#448),#462);
#466=IFCCLASSIFICATIONREFERENCE('https://www.csiresources.org/standards/uniformat','B1010','Floor Construction',#28,'',$);
#467=IFCPROPERTYSINGLEVALUE('Description',$,IFCTEXT('Generic Floor (Material By Category), 12" thick'),$);
#468=IFCPROPERTYSET('08jeqqdMvr9oQ2sJw84keo',#18,'Pset_ReinforcementBarPitchOfSlab',$,(#467));
#469=IFCAXIS2PLACEMENT3D(#3,$,$);
#470=IFCLOCALPLACEMENT(#38,#469);
#471=IFCCARTESIANPOINT((0.,0.));
#472=IFCAXIS2PLACEMENT2D(#471,#11);
#473=IFCRECTANGLEPROFILEDEF(.AREA.,$,#472,8100.,7700.00000000001);
#474=IFCCARTESIANPOINT((3850.,4050.,0.));
#475=IFCAXIS2PLACEMENT3D(#474,#10,#7);
#476=IFCEXTRUDEDAREASOLID(#473,#475,#9,304.8);
#477=IFCSTYLEDITEM(#476,(#440),$);
#478=IFCSHAPEREPRESENTATION(#24,'Body','SweptSolid',(#476));
#479=IFCPRODUCTDEFINITIONSHAPE($,$,(#478));
#480=IFCSLAB('0dxtXCDSn2mfP92h$AiPMM',#18,'Floor:Generic - 12":1603544',$,'Floor:Generic - 12"',#470,#479,'1603544',.FLOOR.);
#481=IFCMATERIALLAYERSETUSAGE(#455,.AXIS3.,.POSITIVE.,0.,$);
#482=IFCPROPERTYSET('1wLMRM1$4YVZsNBnBFFMd0',#18,'Pset_EnvironmentalImpactIndicators',$,(#457));
#483=IFCPROPERTYSINGLEVALUE('Reference',$,IFCLABEL('Generic - 12"'),$);
#484=IFCPROPERTYSET('0MAwAjFK5YfUgoTwoUwFYB',#18,'Pset_ReinforcementBarPitchOfSlab',$,(#483));
#485=IFCPROPERTYSET('2cTekeecQBqnrL694FiKsF',#18,'Pset_SlabCommon',$,(#45,#219,#457,#461));
#486=IFCRELDEFINESBYPROPERTIES('0DnK1k68zYJCBnBui8ZMIM',#18,$,$,(#480),#482);
#487=IFCRELDEFINESBYPROPERTIES('3UHBtfnBoDufUAm5_Sdzc6',#18,$,$,(#480),#484);
#488=IFCRELDEFINESBYPROPERTIES('3QyWHLykxi$VkbAGG93T0c',#18,$,$,(#480),#485);
#489=IFCAXIS2PLACEMENT3D(#3,$,$);
#491=IFCCARTESIANPOINT((0.,0.));
#492=IFCAXIS2PLACEMENT2D(#491,#11);
#493=IFCRECTANGLEPROFILEDEF(.AREA.,'300 x 450mm',#492,200.,200.);
#494=IFCAXIS2PLACEMENT3D(#3,#9,#6);
#495=IFCEXTRUDEDAREASOLID(#493,#494,#9,1500.);
#496=IFCCOLOURRGB($,0.,0.,0.);
#497=IFCSURFACESTYLERENDERING(#496,0.,$,$,$,$,IFCNORMALISEDRATIOMEASURE(0.5),IFCSPECULAREXPONENT(64.),.NOTDEFINED.);
#498=IFCSURFACESTYLE('Concrete, Cast-in-Place gray',.BOTH.,(#497));
#499=IFCSTYLEDITEM(#495,(#498),$);
#500=IFCSHAPEREPRESENTATION(#24,'Body','SweptSolid',(#495));
#501=IFCAXIS2PLACEMENT3D(#3,$,$);
#502=IFCREPRESENTATIONMAP(#501,#500);
#503=IFCCOLUMNTYPE('0n4qMSuxfEFA0BeEfapSJq',#18,'M_Concrete-Rectangular-Column:300 x 450mm',$,$,(#530),(#502),'1537404',$,.COLUMN.);
#504=IFCMATERIAL('Concrete, Cast-in-Place gray',$,'Concrete');
#505=IFCCOLOURRGB($,1.,1.,1.);
#506=IFCFILLAREASTYLE('<Solid fill>',(#505),$);
#507=IFCSTYLEDITEM($,(#498,#506),$);
#508=IFCSTYLEDREPRESENTATION(#22,'Style','Material and Cut Pattern',(#507));
#509=IFCMATERIALDEFINITIONREPRESENTATION($,$,(#508),#504);
#510=IFCMATERIALPROFILE('300 x 450mm',$,#504,#493,$,$);
#511=IFCMATERIALPROFILESET('300 x 450mm',$,(#510),$);
#512=IFCCARTESIANTRANSFORMATIONOPERATOR3D($,$,#3,1.,$);
#513=IFCMAPPEDITEM(#502,#512);
#514=IFCSHAPEREPRESENTATION(#24,'Body','MappedRepresentation',(#513));
#515=IFCPRODUCTDEFINITIONSHAPE($,$,(#514));
#516=IFCCARTESIANPOINT((7600.,87.3571971653727,0.));
#517=IFCAXIS2PLACEMENT3D(#516,$,$);
#518=IFCLOCALPLACEMENT(#34,#517);
#519=IFCCOLUMN('0n4qMSuxfEFA0BeEfapSQB',#18,'M_Concrete-Rectangular-Column:300 x 450mm:1603988',$,'M_Concrete-Rectangular-Column:300 x 450mm',#518,#515,'1603988',.COLUMN.);
#520=IFCMATERIALPROFILESETUSAGE(#511,$,$);
#521=IFCPROPERTYSINGLEVALUE('Reference',$,IFCIDENTIFIER('300 x 450mm'),$);
#522=IFCPROPERTYSINGLEVALUE('LoadBearing',$,IFCBOOLEAN(.T.),$);
#523=IFCPROPERTYSET('3uXK8swOT38MgdZ4NtOgBZ',#18,'Pset_ColumnCommon',$,(#45,#521,#522));
#524=IFCPROPERTYSET('0k8MVEOBS_92cJAQvP8ZWU',#18,'Pset_EnvironmentalImpactIndicators',$,(#521));
#525=IFCPROPERTYSINGLEVALUE('Reference',$,IFCLABEL('300 x 450mm'),$);
#526=IFCPROPERTYSET('3yUyHFv1yPy2o6Y28b$DGC',#18,'Pset_ReinforcementBarPitchOfColumn',$,(#525));
#527=IFCRELDEFINESBYPROPERTIES('0ZAJT2DDGctVnopxtgbxlL',#18,$,$,(#519),#523);
#528=IFCRELDEFINESBYPROPERTIES('3gCCzm811R4VqNJhLeNDlJ',#18,$,$,(#519),#524);
#529=IFCRELDEFINESBYPROPERTIES('02a$$NXkQD6wTdQy7ddPlu',#18,$,$,(#519),#526);
#530=IFCPROPERTYSET('3QNeEZsOwT6UKtqYD850yK',#18,'Pset_ColumnCommon',$,(#522));
#531=IFCMAPPEDITEM(#502,#512);
#532=IFCSHAPEREPRESENTATION(#24,'Body','MappedRepresentation',(#531));
#533=IFCPRODUCTDEFINITIONSHAPE($,$,(#532));
#534=IFCCARTESIANPOINT((2900.,4600.,0.));
#535=IFCAXIS2PLACEMENT3D(#534,$,$);
#536=IFCLOCALPLACEMENT(#34,#535);
#537=IFCCOLUMN('0n4qMSuxfEFA0BeEfapSHZ',#18,'M_Concrete-Rectangular-Column:300 x 450mm:1604476',$,'M_Concrete-Rectangular-Column:300 x 450mm',#536,#533,'1604476',.COLUMN.);
#538=IFCPROPERTYSET('117onGxsDDcpyLYD8Bttnq',#18,'Pset_ColumnCommon',$,(#45,#521,#522));
#539=IFCPROPERTYSET('1eFdd9XNCkGLHcCa_Hmb$L',#18,'Pset_EnvironmentalImpactIndicators',$,(#521));
#540=IFCPROPERTYSINGLEVALUE('Reference',$,IFCLABEL('300 x 450mm'),$);
#541=IFCPROPERTYSET('2pNJ4og14zRi$KAukCc_Lf',#18,'Pset_ReinforcementBarPitchOfColumn',$,(#540));
#542=IFCRELDEFINESBYPROPERTIES('2fKrir24axBsr7tTlZ9yST',#18,$,$,(#537),#538);
#543=IFCRELDEFINESBYPROPERTIES('18u5EHBBuNuFjC7odaI36b',#18,$,$,(#537),#539);
#544=IFCRELDEFINESBYPROPERTIES('1tcpw5boYBLK7yQh7iJNnk',#18,$,$,(#537),#541);
#545=IFCPROPERTYSINGLEVALUE('Reference',$,IFCIDENTIFIER('8mm Head'),$);
#546=IFCPROPERTYSINGLEVALUE('AboveGround',$,IFCLOGICAL(.U.),$);
#547=IFCPROPERTYSET('16L50AfyZF4hYq5TGET4H4',#18,'Pset_BuildingStoreyCommon',$,(#545,#546));
#548=IFCPROPERTYSET('2J7ac_h5ujdwWuzVwBIIta',#18,'Pset_SpaceCommon',$,(#45,#545));
#549=IFCRELDEFINESBYPROPERTIES('2VdfSfkgzGoZi_3SgzE8$0',#18,$,$,(#35),#547);
#550=IFCRELDEFINESBYPROPERTIES('3$YdOpA8iaPobC8MDiWxoI',#18,$,$,(#35),#548);
#551=IFCRELCONTAINEDINSPATIALSTRUCTURE('2JF4e6axWHqu3u0C5FZlmi',#18,$,$,(#206,#253,#287,#321,#356,#389,#422,#448,#519,#537),#35);
#552=IFCPROPERTYSET('1n34enW33Z_3Qq2Pm1kjQZ',#18,'Pset_BuildingStoreyCommon',$,(#545,#546));
#553=IFCPROPERTYSET('0qNc4$IaPwTvoqOd7IlIE4',#18,'Pset_SpaceCommon',$,(#45,#545));
#554=IFCRELDEFINESBYPROPERTIES('36oM8gyLQ5_Z6XoGK5uP1E',#18,$,$,(#39),#552);
#555=IFCRELDEFINESBYPROPERTIES('0jA6Vdz$3CfPvu_I1iTL6J',#18,$,$,(#39),#553);
#556=IFCRELCONTAINEDINSPATIALSTRUCTURE('1ZGO8hrFCHqw0v0066FpFv',#18,$,$,(#480),#39);
#557=IFCRELAGGREGATES('2KFB6YYWgXBmucZ8cm7uCP',#18,$,$,#27,(#42));
#558=IFCRELAGGREGATES('16_hfJTeCqU7LcG8m10BTS',#18,$,$,#42,(#32));
#559=IFCRELAGGREGATES('2JF4e6axWHqu3u0C9FZlmi',#18,$,$,#35,(#126,#167));
#560=IFCRELAGGREGATES('1yhDISh1T5aQqAoygxGIhP',#18,$,$,#32,(#35,#39));
#561=IFCPROPERTYSINGLEVALUE('NumberOfStoreys',$,IFCCOUNTMEASURE(2),$);
#562=IFCPROPERTYSINGLEVALUE('IsLandmarked',$,IFCLOGICAL(.U.),$);
#563=IFCPROPERTYSET('01y_GmllCupEYuBgfGbhkd',#18,'Pset_BuildingCommon',$,(#43,#561,#562));
#564=IFCPROPERTYSET('1rUR7OGyIAkZT62xvibLnd',#18,'Pset_BuildingElementProxyCommon',$,(#43,#45));
#565=IFCPROPERTYSET('2kFDjjfIaTsBi7MLK$i$Me',#18,'Pset_BuildingStoreyCommon',$,(#43,#546));
#566=IFCPROPERTYSET('1TYvb3FgH88mtl04iE5P1T',#18,'Pset_BuildingSystemCommon',$,(#43));
#567=IFCPROPERTYSET('2W94HCj5xfigmNGtkBMklk',#18,'Pset_SpaceCommon',$,(#43,#45));
#568=IFCRELDEFINESBYPROPERTIES('0vDjba2fshDEh0_KufwWht',#18,$,$,(#32),#563);
#569=IFCRELDEFINESBYPROPERTIES('1V6UQfELB4oPy3GPEaJMPw',#18,$,$,(#32),#564);
#570=IFCRELDEFINESBYPROPERTIES('0Vpd75HttOMIhzXutBGgCt',#18,$,$,(#32),#565);
#571=IFCRELDEFINESBYPROPERTIES('22VMRBFW9n6_S81yWIP225',#18,$,$,(#32),#566);
#572=IFCRELDEFINESBYPROPERTIES('2w3bzVlKnfBVjA3_BjG2II',#18,$,$,(#32),#567);
#573=IFCRELASSOCIATESMATERIAL('09vdmREdTxn9CHkKQLCmva',#18,$,$,(#448),#456);
#574=IFCRELASSOCIATESMATERIAL('3F3FWvFIiue83dGwwuAFoT',#18,$,$,(#480),#481);
#575=IFCRELASSOCIATESMATERIAL('22T9r9KB1F3JFgePfxkUGp',#18,$,$,(#206,#213,#253,#287,#321,#356,#389,#422),#212);
#576=IFCRELASSOCIATESMATERIAL('0RkFpO4y91A56i7kETvvWZ',#18,$,$,(#449),#455);
#577=IFCRELASSOCIATESMATERIAL('1LbUtHsXT_tA2PgohHsVpm',#18,$,$,(#503),#511);
#578=IFCRELDEFINESBYTYPE('1n7Z8mdHOnANZygC0WDgJu',#18,$,$,(#126),#127);
#579=IFCRELDEFINESBYTYPE('3ujABtKeT4Z6qIrSc7gAkX',#18,$,$,(#167),#168);
#580=IFCRELDEFINESBYTYPE('0MSq_ijuC5q4PUKv4QkOsA',#18,$,$,(#206,#253,#287,#321,#356,#389,#422),#213);
#581=IFCRELDEFINESBYTYPE('3AVJtbOHyTnujdziMMd$qq',#18,$,$,(#448,#480),#449);
#582=IFCRELDEFINESBYTYPE('2dKXgvx3VOvoM_b4AFbItl',#18,$,$,(#519,#537),#503);
#583=IFCRELCONNECTSPATHELEMENTS('3ugK07sTRHPQgCANXzjPel',#18,'3Vyqk8cSj8TOuAk6zHUwAt|3Vyqk8cSj8TOuAk6zHUwNQ','Structural',$,#206,#389,(),(),.ATEND.,.ATSTART.);
#584=IFCRELCONNECTSPATHELEMENTS('23XeiboBqsTJYQlvX$RKBJ',#18,'3Vyqk8cSj8TOuAk6zHUwAt|3Vyqk8cSj8TOuAk6zHUwAc','Structural',$,#206,#253,(),(),.ATSTART.,.ATEND.);
#585=IFCRELCONNECTSPATHELEMENTS('0hwcEfuQJy_u5BVmulnPou',#18,'3Vyqk8cSj8TOuAk6zHUwAc|3Vyqk8cSj8TOuAk6zHUwBs','Structural',$,#253,#287,(),(),.ATSTART.,.ATEND.);
#586=IFCRELCONNECTSPATHELEMENTS('0_q_49R4Mso9ITEEZ476Ni',#18,'3Vyqk8cSj8TOuAk6zHUwBs|3Vyqk8cSj8TOuAk6zHUw89','Structural',$,#287,#321,(),(),.ATPATH.,.ATEND.);
#587=IFCRELCONNECTSPATHELEMENTS('1vNx1Mi$BxGTeQ1xXXnA7E',#18,'3Vyqk8cSj8TOuAk6zHUw89|3Vyqk8cSj8TOuAk6zHUwMJ','Structural',$,#321,#356,(),(),.ATSTART.,.ATSTART.);
#588=IFCRELCONNECTSPATHELEMENTS('0LaT41zAAAo8nacED5QZkK',#18,'3Vyqk8cSj8TOuAk6zHUwMJ|3Vyqk8cSj8TOuAk6zHUwNQ','Structural',$,#356,#389,(),(),.ATSTART.,.ATEND.);
#589=IFCRELCONNECTSPATHELEMENTS('3D3Z_aFFnxYLlGarnZzDCc',#18,'3Vyqk8cSj8TOuAk6zHUwAt|3Vyqk8cSj8TOuAk6zHUwIV','Structural',$,#206,#422,(),(),.ATEND.,.ATPATH.);
#590=IFCPRESENTATIONLAYERASSIGNMENT('A-AREA-____-OTLN',$,(#123,#165),$);
#591=IFCPRESENTATIONLAYERASSIGNMENT('A-WALL-____-OTLN',$,(#179,#204,#233,#251,#266,#285,#300,#319,#334,#354,#369,#387,#402,#420),$);
#592=IFCPRESENTATIONLAYERASSIGNMENT('A-FLOR-____-OTLN',$,(#442,#478),$);
#593=IFCPRESENTATIONLAYERASSIGNMENT('S-COLS-____-OTLN',$,(#500,#514,#532),$);
#594=IFCRELASSOCIATESCLASSIFICATION('2mNchzfGWDr_AK3qpy_v$I',#18,'Exterior Walls','Exterior Walls:B2010',(#206,#253,#287,#321,#356,#389,#422),#225);
#595=IFCRELASSOCIATESCLASSIFICATION('1sPZ7RnmtJXsu_N19h72IC',#18,'Floor Construction','Floor Construction:B1010',(#448,#480),#466);
#596=IFCUNITASSIGNMENT((#19,#125,#446));
ENDSEC;
END-ISO-10303-21;
