ISO-10303-21;
HEADER;
FILE_DESCRIPTION(('ViewDefinition [CoordinationView]','RevitIdentifiers [ContentGUID: cbb0ae2e-6350-4225-8ca4-af668662c38d, VersionGUID: 6da8d662-42a6-412d-b1f6-52effa4791c3, NumberOfSaves: 36]','CoordinateReference [CoordinateBase: Shared Coordinates]'),'2;1');
FILE_NAME('01_02_012.ifc','2026-01-07T17:02:20+01:00',(''),(''),'ODA SDAI 24.6','Autodesk Revit 24.3.30.11 (ENU) - IFC 24.3.30.11','');
FILE_SCHEMA(('IFC4X3'));
ENDSEC;
DATA;
#1=IFCORGANIZATION($,'Autodesk Revit 2024 (ENU)',$,$,$);
#2=IFCAPPLICATION(#1,'2024','Autodesk Revit 2024 (ENU)','Revit');
#3=IFCCARTESIANPOINT((0.,0.,0.));
#4=IFCCARTESIANPOINT((0.,0.));
#5=IFCDIRECTION((1.,0.,0.));
#6=IFCDIRECTION((-1.,0.,0.));
#7=IFCDIRECTION((0.,1.,0.));
#8=IFCDIRECTION((0.,-1.,0.));
#9=IFCDIRECTION((0.,0.,1.));
#10=IFCDIRECTION((0.,0.,-1.));
#11=IFCDIRECTION((1.,0.));
#12=IFCDIRECTION((-1.,0.));
#13=IFCDIRECTION((0.,1.));
#14=IFCDIRECTION((0.,-1.));
#15=IFCPERSON($,'','h.helming',$,$,$,$,$);
#16=IFCORGANIZATION($,'Organization Name','Organization Description',$,$);
#17=IFCPERSONANDORGANIZATION(#15,#16,$);
#18=IFCOWNERHISTORY(#17,#2,$,.NOCHANGE.,$,$,$,1767701897);
#19=IFCSIUNIT(*,.LENGTHUNIT.,.MILLI.,.METRE.);
#20=IFCAXIS2PLACEMENT3D(#3,$,$);
#21=IFCDIRECTION((6.12303176911189E-17,1.));
#22=IFCGEOMETRICREPRESENTATIONCONTEXT($,'Model',3,0.01,#20,#21);
#23=IFCGEOMETRICREPRESENTATIONSUBCONTEXT('Axis','Model',*,*,*,*,#22,$,.GRAPH_VIEW.,$);
#24=IFCGEOMETRICREPRESENTATIONSUBCONTEXT('Body','Model',*,*,*,*,#22,$,.MODEL_VIEW.,$);
#25=IFCGEOMETRICREPRESENTATIONSUBCONTEXT('Box','Model',*,*,*,*,#22,$,.MODEL_VIEW.,$);
#26=IFCGEOMETRICREPRESENTATIONSUBCONTEXT('FootPrint','Model',*,*,*,*,#22,$,.MODEL_VIEW.,$);
#27=IFCPROJECT('3BiAukOr129OoahsPvdJnz',#18,'Project Number',$,$,'Project Name','Project Status',(#22),#581);
#28=IFCCLASSIFICATION('CSI (Construction Specifications Institute)','1998',$,'Uniformat','UniFormat Classification','https://www.csiresources.org/standards/uniformat',$);
#29=IFCAXIS2PLACEMENT3D(#3,$,$);
#30=IFCLOCALPLACEMENT(#41,#29);
#31=IFCPOSTALADDRESS($,$,$,$,('Enter address hereAddress Line 2'),$,'','Boston','','MA');
#32=IFCBUILDING('3BiAukOr129OoahsPvdJny',#18,'Building Name',$,$,#30,$,'Building Name',.ELEMENT.,$,$,#31);
#33=IFCAXIS2PLACEMENT3D(#3,$,$);
#34=IFCLOCALPLACEMENT(#30,#33);
#35=IFCBUILDINGSTOREY('2JF4e6axWHqu3u0C1FZlmi',#18,'L1',$,'Level:8mm Head',#34,$,'L1',.ELEMENT.,0.);
#36=IFCCARTESIANPOINT((0.,0.,3000.));
#37=IFCAXIS2PLACEMENT3D(#36,$,$);
#38=IFCLOCALPLACEMENT(#30,#37);
#39=IFCBUILDINGSTOREY('1ZGO8hrFCHqw0v0026FpFv',#18,'L2',$,'Level:8mm Head',#38,$,'L2',.ELEMENT.,3000.);
#40=IFCAXIS2PLACEMENT3D(#3,$,$);
#41=IFCLOCALPLACEMENT($,#40);
#42=IFCSITE('3BiAukOr129OoahsPvdJn$',#18,'Default',$,$,#41,$,$,.ELEMENT.,(42,21,31,401672),(-71,-3,-24,-345703),0.,$,$);
#43=IFCPROPERTYSINGLEVALUE('Reference',$,IFCIDENTIFIER('Project Information'),$);
#44=IFCPROPERTYSET('2mFJcO6I01h0OYRLOICO3c',#18,'Pset_SiteCommon',$,(#43));
#45=IFCPROPERTYSINGLEVALUE('IsExternal',$,IFCBOOLEAN(.F.),$);
#46=IFCPROPERTYSET('0O$B2PbAODr9jYnpcaZGJT',#18,'Pset_SpaceCommon',$,(#43,#45));
#47=IFCRELDEFINESBYPROPERTIES('2fDrcjst0HFayqQ3dY1cGQ',#18,$,$,(#42),#44);
#48=IFCRELDEFINESBYPROPERTIES('1lYkP70lXSGXnZeJnLC8MY',#18,$,$,(#42),#46);
#63=IFCAXIS2PLACEMENT3D(#3,$,$);
#64=IFCLOCALPLACEMENT(#34,#63);
#65=IFCCARTESIANPOINT((200.,4700.,0.));
#66=IFCCARTESIANPOINT((200.,7900.,0.));
#67=IFCCARTESIANPOINT((7500.,7900.,0.));
#68=IFCCARTESIANPOINT((7500.,4700.,0.));
#69=IFCCARTESIANPOINT((4900.,4700.,0.));
#70=IFCCARTESIANPOINT((4900.,200.,0.));
#71=IFCCARTESIANPOINT((200.,200.,0.));
#72=IFCCARTESIANPOINT((200.,4500.,0.));
#73=IFCCARTESIANPOINT((3000.,4500.,0.));
#74=IFCCARTESIANPOINT((3000.,4700.,0.));
#75=IFCPOLYLOOP((#65,#66,#67,#68,#69,#70,#71,#72,#73,#74));
#76=IFCFACEOUTERBOUND(#75,.T.);
#77=IFCFACE((#76));
#78=IFCCARTESIANPOINT((200.,4700.,2695.2));
#79=IFCCARTESIANPOINT((200.,7900.,2695.2));
#80=IFCPOLYLOOP((#66,#65,#78,#79));
#81=IFCFACEOUTERBOUND(#80,.T.);
#82=IFCFACE((#81));
#83=IFCCARTESIANPOINT((3000.,4700.,2695.2));
#84=IFCPOLYLOOP((#65,#74,#83,#78));
#85=IFCFACEOUTERBOUND(#84,.T.);
#86=IFCFACE((#85));
#87=IFCCARTESIANPOINT((3000.,4500.,2695.2));
#88=IFCPOLYLOOP((#74,#73,#87,#83));
#89=IFCFACEOUTERBOUND(#88,.T.);
#90=IFCFACE((#89));
#91=IFCCARTESIANPOINT((200.,4500.,2695.2));
#92=IFCPOLYLOOP((#73,#72,#91,#87));
#93=IFCFACEOUTERBOUND(#92,.T.);
#94=IFCFACE((#93));
#95=IFCCARTESIANPOINT((200.,200.,2695.2));
#96=IFCPOLYLOOP((#72,#71,#95,#91));
#97=IFCFACEOUTERBOUND(#96,.T.);
#98=IFCFACE((#97));
#99=IFCCARTESIANPOINT((4900.,200.,2695.2));
#100=IFCPOLYLOOP((#71,#70,#99,#95));
#101=IFCFACEOUTERBOUND(#100,.T.);
#102=IFCFACE((#101));
#103=IFCCARTESIANPOINT((4900.,4700.,2695.2));
#104=IFCPOLYLOOP((#70,#69,#103,#99));
#105=IFCFACEOUTERBOUND(#104,.T.);
#106=IFCFACE((#105));
#107=IFCCARTESIANPOINT((7500.,4700.,2695.2));
#108=IFCPOLYLOOP((#69,#68,#107,#103));
#109=IFCFACEOUTERBOUND(#108,.T.);
#110=IFCFACE((#109));
#111=IFCCARTESIANPOINT((7500.,7900.,2695.2));
#112=IFCPOLYLOOP((#68,#67,#111,#107));
#113=IFCFACEOUTERBOUND(#112,.T.);
#114=IFCFACE((#113));
#115=IFCPOLYLOOP((#67,#66,#79,#111));
#116=IFCFACEOUTERBOUND(#115,.T.);
#117=IFCFACE((#116));
#118=IFCPOLYLOOP((#79,#78,#83,#87,#91,#95,#99,#103,#107,#111));
#119=IFCFACEOUTERBOUND(#118,.T.);
#120=IFCFACE((#119));
#121=IFCCLOSEDSHELL((#77,#82,#86,#90,#94,#98,#102,#106,#110,#114,#117,#120));
#122=IFCFACETEDBREP(#121);
#123=IFCSHAPEREPRESENTATION(#24,'Body','Brep',(#122));
#124=IFCPRODUCTDEFINITIONSHAPE($,$,(#123));
#125=IFCSIUNIT(*,.AREAUNIT.,$,.SQUARE_METRE.);
#126=IFCSPACE('0rTWnvc$TEcxPkiz6YVMXL',#18,'136',$,$,#64,#124,'room',.ELEMENT.,.NOTDEFINED.,$);
#127=IFCSPACETYPE('0rTWnvc$TEcxPkkz6YVMXL',#18,'room 136:1603652',$,$,$,$,'1603652',$,.NOTDEFINED.,$);
#128=IFCPROPERTYSINGLEVALUE('Reference',$,IFCIDENTIFIER('room 136'),$);
#129=IFCPROPERTYSET('1yVNq8JvERFUCk0SSWqd4A',#18,'Pset_SpaceCommon',$,(#45,#128));
#130=IFCPROPERTYSET('0QcwjV1aNu_kJC2C2O71zH',#18,'Pset_SpaceHeaterTypeCommon',$,(#128));
#131=IFCRELDEFINESBYPROPERTIES('0JR70OPg3py8LvB24F8w$O',#18,$,$,(#126),#129);
#132=IFCRELDEFINESBYPROPERTIES('0foiP_lU9u$o9U3S4mN6cJ',#18,$,$,(#126),#130);
#137=IFCCARTESIANPOINT((100.,8100.,0.));
#138=IFCAXIS2PLACEMENT3D(#137,#9,#8);
#139=IFCLOCALPLACEMENT(#34,#138);
#140=IFCCARTESIANPOINT((8100.,-0.));
#141=IFCPOLYLINE((#4,#140));
#142=IFCSHAPEREPRESENTATION(#23,'Axis','Curve2D',(#141));
#143=IFCCARTESIANPOINT((4050.00000000001,-1.4210854715202E-14));
#144=IFCAXIS2PLACEMENT2D(#143,#12);
#145=IFCRECTANGLEPROFILEDEF(.AREA.,$,#144,8100.00000000003,200.);
#146=IFCAXIS2PLACEMENT3D(#3,$,$);
#147=IFCEXTRUDEDAREASOLID(#145,#146,#9,2695.2);
#148=IFCCARTESIANPOINT((8100.,-0.));
#149=IFCCARTESIANPOINT((8100.,200.));
#150=IFCCARTESIANPOINT((7900.,200.));
#151=IFCCARTESIANPOINT((3600.,200.));
#152=IFCCARTESIANPOINT((3400.,200.));
#153=IFCCARTESIANPOINT((200.,200.));
#154=IFCCARTESIANPOINT((0.,200.));
#155=IFCPOLYLINE((#4,#148,#149,#150,#151,#152,#153,#154,#4));
#156=IFCCARTESIANPOINT((0.,-100.,2695.2));
#157=IFCAXIS2PLACEMENT3D(#156,#10,#8);
#158=IFCPLANE(#157);
#159=IFCCARTESIANPOINT((0.,-100.,2695.2));
#160=IFCAXIS2PLACEMENT3D(#159,$,$);
#161=IFCPOLYGONALBOUNDEDHALFSPACE(#158,.T.,#160,#155);
#162=IFCBOOLEANCLIPPINGRESULT(.DIFFERENCE.,#147,#161);
#163=IFCCOLOURRGB($,0.752941176470588,0.752941176470588,0.752941176470588);
#164=IFCSURFACESTYLERENDERING(#163,0.,$,$,$,$,IFCNORMALISEDRATIOMEASURE(0.5),IFCSPECULAREXPONENT(10.),.NOTDEFINED.);
#165=IFCSURFACESTYLE('Default Wall',.BOTH.,(#164));
#166=IFCSTYLEDITEM(#147,(#165),$);
#167=IFCSHAPEREPRESENTATION(#24,'Body','Clipping',(#162));
#168=IFCPRODUCTDEFINITIONSHAPE($,$,(#142,#167));
#169=IFCWALL('3Vyqk8cSj8TOuAk6zHUwAt',#18,'Basic Wall:Generic - 200mm:1602350',$,'Basic Wall:Generic - 200mm',#139,#168,'1602350',.NOTDEFINED.);
#170=IFCMATERIAL('Default Wall',$,'Miscellaneous');
#171=IFCSTYLEDITEM($,(#165),$);
#172=IFCSTYLEDREPRESENTATION(#22,'Style','Material',(#171));
#173=IFCMATERIALDEFINITIONREPRESENTATION($,$,(#172),#170);
#174=IFCMATERIALLAYER(#170,200.,$,'Layer',$,'Miscellaneous',$);
#175=IFCMATERIALLAYERSET((#174),'Basic Wall:Generic - 200mm',$);
#176=IFCWALLTYPE('1xZrMVYp52mhf4uMzw11Hk',#18,'Basic Wall:Generic - 200mm',$,$,(#190),$,'441451',$,.STANDARD.);
#177=IFCPROPERTYSINGLEVALUE('Reference',$,IFCIDENTIFIER('Generic - 200mm'),$);
#178=IFCPROPERTYSET('0Km4zNM2MwGsg6uui573Gl',#18,'Pset_EnvironmentalImpactIndicators',$,(#177));
#179=IFCPROPERTYSINGLEVALUE('Reference',$,IFCLABEL('Generic - 200mm'),$);
#180=IFCPROPERTYSET('0ZXMEr5ajxWFHJMWoi4f9d',#18,'Pset_ReinforcementBarPitchOfWall',$,(#179));
#181=IFCPROPERTYSINGLEVALUE('IsExternal',$,IFCBOOLEAN(.T.),$);
#182=IFCPROPERTYSINGLEVALUE('LoadBearing',$,IFCBOOLEAN(.F.),$);
#183=IFCPROPERTYSINGLEVALUE('ExtendToStructure',$,IFCBOOLEAN(.T.),$);
#184=IFCPROPERTYSET('1zrfxTCt1bXMa1Ly5p70N1',#18,'Pset_WallCommon',$,(#177,#181,#182,#183));
#185=IFCRELDEFINESBYPROPERTIES('03npcsjKGgxiKm0v35mOCU',#18,$,$,(#169),#178);
#186=IFCRELDEFINESBYPROPERTIES('19PyAMlzR0yGXIwnh1vl8V',#18,$,$,(#169),#180);
#187=IFCRELDEFINESBYPROPERTIES('0Ch_H7bAOLrBCWJ9at5CY2',#18,$,$,(#169),#184);
#188=IFCCLASSIFICATIONREFERENCE('https://www.csiresources.org/standards/uniformat','B2010','Exterior Walls',#28,'',$);
#189=IFCPROPERTYSINGLEVALUE('Description',$,IFCTEXT('Generic Wall (Material By Category), 200mm thick'),$);
#190=IFCPROPERTYSET('2L7lvTstnIeeydfwzfZZLR',#18,'Pset_ReinforcementBarPitchOfWall',$,(#189));
#191=IFCCARTESIANPOINT((200.,100.,0.));
#192=IFCAXIS2PLACEMENT3D(#191,$,$);
#193=IFCLOCALPLACEMENT(#34,#192);
#194=IFCCARTESIANPOINT((4700.,0.));
#195=IFCPOLYLINE((#4,#194));
#196=IFCSHAPEREPRESENTATION(#23,'Axis','Curve2D',(#195));
#197=IFCCARTESIANPOINT((2350.,0.));
#198=IFCAXIS2PLACEMENT2D(#197,#12);
#199=IFCRECTANGLEPROFILEDEF(.AREA.,$,#198,4700.,200.);
#200=IFCAXIS2PLACEMENT3D(#3,$,$);
#201=IFCEXTRUDEDAREASOLID(#199,#200,#9,2695.2);
#202=IFCCARTESIANPOINT((4700.,0.));
#203=IFCCARTESIANPOINT((4700.,200.));
#204=IFCCARTESIANPOINT((0.,200.));
#205=IFCPOLYLINE((#4,#202,#203,#204,#4));
#206=IFCCARTESIANPOINT((0.,-100.,2695.2));
#207=IFCAXIS2PLACEMENT3D(#206,#10,#6);
#208=IFCPLANE(#207);
#209=IFCCARTESIANPOINT((0.,-100.,2695.2));
#210=IFCAXIS2PLACEMENT3D(#209,$,$);
#211=IFCPOLYGONALBOUNDEDHALFSPACE(#208,.T.,#210,#205);
#212=IFCBOOLEANCLIPPINGRESULT(.DIFFERENCE.,#201,#211);
#213=IFCSTYLEDITEM(#201,(#165),$);
#214=IFCSHAPEREPRESENTATION(#24,'Body','Clipping',(#212));
#215=IFCPRODUCTDEFINITIONSHAPE($,$,(#196,#214));
#216=IFCWALL('3Vyqk8cSj8TOuAk6zHUwAc',#18,'Basic Wall:Generic - 200mm:1602367',$,'Basic Wall:Generic - 200mm',#193,#215,'1602367',.NOTDEFINED.);
#217=IFCPROPERTYSET('3JUIdSeVp_uwEbbZZ62q4s',#18,'Pset_EnvironmentalImpactIndicators',$,(#177));
#218=IFCPROPERTYSINGLEVALUE('Reference',$,IFCLABEL('Generic - 200mm'),$);
#219=IFCPROPERTYSET('2xt8_eWXQmZoGh92FUaf7C',#18,'Pset_ReinforcementBarPitchOfWall',$,(#218));
#220=IFCPROPERTYSET('1Qx33RkOMvlc106bCgkFYy',#18,'Pset_WallCommon',$,(#177,#181,#182,#183));
#221=IFCRELDEFINESBYPROPERTIES('0Cbozj_3TLDgtMpOD0_yYT',#18,$,$,(#216),#217);
#222=IFCRELDEFINESBYPROPERTIES('1Feha5xswcNTrZ$5QRM3b5',#18,$,$,(#216),#219);
#223=IFCRELDEFINESBYPROPERTIES('1olywbjtcxLyBnEbs_Cz$6',#18,$,$,(#216),#220);
#224=IFCCARTESIANPOINT((5000.,0.,0.));
#225=IFCAXIS2PLACEMENT3D(#224,#9,#7);
#226=IFCLOCALPLACEMENT(#34,#225);
#227=IFCCARTESIANPOINT((4500.,-0.));
#228=IFCPOLYLINE((#4,#227));
#229=IFCSHAPEREPRESENTATION(#23,'Axis','Curve2D',(#228));
#230=IFCCARTESIANPOINT((2250.,-1.56319401867222E-13));
#231=IFCAXIS2PLACEMENT2D(#230,#12);
#232=IFCRECTANGLEPROFILEDEF(.AREA.,$,#231,4500.,200.);
#233=IFCAXIS2PLACEMENT3D(#3,$,$);
#234=IFCEXTRUDEDAREASOLID(#232,#233,#9,2695.2);
#235=IFCCARTESIANPOINT((4500.,-0.));
#236=IFCCARTESIANPOINT((4500.,200.));
#237=IFCCARTESIANPOINT((200.,200.));
#238=IFCCARTESIANPOINT((-0.,200.));
#239=IFCPOLYLINE((#4,#235,#236,#237,#238,#4));
#240=IFCCARTESIANPOINT((0.,-100.,2695.2));
#241=IFCAXIS2PLACEMENT3D(#240,#10,#7);
#242=IFCPLANE(#241);
#243=IFCCARTESIANPOINT((0.,-100.,2695.2));
#244=IFCAXIS2PLACEMENT3D(#243,$,$);
#245=IFCPOLYGONALBOUNDEDHALFSPACE(#242,.T.,#244,#239);
#246=IFCBOOLEANCLIPPINGRESULT(.DIFFERENCE.,#234,#245);
#247=IFCSTYLEDITEM(#234,(#165),$);
#248=IFCSHAPEREPRESENTATION(#24,'Body','Clipping',(#246));
#249=IFCPRODUCTDEFINITIONSHAPE($,$,(#229,#248));
#250=IFCWALL('3Vyqk8cSj8TOuAk6zHUwBs',#18,'Basic Wall:Generic - 200mm:1602415',$,'Basic Wall:Generic - 200mm',#226,#249,'1602415',.NOTDEFINED.);
#251=IFCPROPERTYSET('3zFZKkmoyjMir2XJPwM5K5',#18,'Pset_EnvironmentalImpactIndicators',$,(#177));
#252=IFCPROPERTYSINGLEVALUE('Reference',$,IFCLABEL('Generic - 200mm'),$);
#253=IFCPROPERTYSET('24rl2YIcyoi55ChyZCq2G8',#18,'Pset_ReinforcementBarPitchOfWall',$,(#252));
#254=IFCPROPERTYSET('1QO0ZFI0bba_x9VNyujEk0',#18,'Pset_WallCommon',$,(#177,#181,#182,#183));
#255=IFCRELDEFINESBYPROPERTIES('2a9nfObiFdFDL_xI6RB3zY',#18,$,$,(#250),#251);
#256=IFCRELDEFINESBYPROPERTIES('2lgnXdSixHWA271wBKXvqj',#18,$,$,(#250),#253);
#257=IFCRELDEFINESBYPROPERTIES('1XotYCV5aUozGnrkwTWOXu',#18,$,$,(#250),#254);
#258=IFCCARTESIANPOINT((7500.,4600.,0.));
#259=IFCAXIS2PLACEMENT3D(#258,#9,#6);
#260=IFCLOCALPLACEMENT(#34,#259);
#261=IFCCARTESIANPOINT((2600.,0.));
#262=IFCPOLYLINE((#4,#261));
#263=IFCSHAPEREPRESENTATION(#23,'Axis','Curve2D',(#262));
#264=IFCCARTESIANPOINT((1300.,7.105427357601E-14));
#265=IFCAXIS2PLACEMENT2D(#264,#12);
#266=IFCRECTANGLEPROFILEDEF(.AREA.,$,#265,2600.,200.);
#267=IFCAXIS2PLACEMENT3D(#3,$,$);
#268=IFCEXTRUDEDAREASOLID(#266,#267,#9,2695.2);
#269=IFCCARTESIANPOINT((2600.,0.));
#270=IFCCARTESIANPOINT((2600.,200.));
#271=IFCCARTESIANPOINT((2400.,200.));
#272=IFCCARTESIANPOINT((-0.,200.));
#273=IFCPOLYLINE((#4,#269,#270,#271,#272,#4));
#274=IFCCARTESIANPOINT((0.,-100.,2695.2));
#275=IFCAXIS2PLACEMENT3D(#274,#10,#5);
#276=IFCPLANE(#275);
#277=IFCCARTESIANPOINT((0.,-100.,2695.2));
#278=IFCAXIS2PLACEMENT3D(#277,$,$);
#279=IFCPOLYGONALBOUNDEDHALFSPACE(#276,.T.,#278,#273);
#280=IFCBOOLEANCLIPPINGRESULT(.DIFFERENCE.,#268,#279);
#281=IFCSTYLEDITEM(#268,(#165),$);
#282=IFCSHAPEREPRESENTATION(#24,'Body','Clipping',(#280));
#283=IFCPRODUCTDEFINITIONSHAPE($,$,(#263,#282));
#284=IFCWALL('3Vyqk8cSj8TOuAk6zHUw89',#18,'Basic Wall:Generic - 200mm:1602448',$,'Basic Wall:Generic - 200mm',#260,#283,'1602448',.NOTDEFINED.);
#285=IFCPROPERTYSET('24uQ0xYWMb2iAICPORaANl',#18,'Pset_EnvironmentalImpactIndicators',$,(#177));
#286=IFCPROPERTYSINGLEVALUE('Reference',$,IFCLABEL('Generic - 200mm'),$);
#287=IFCPROPERTYSET('2NtOS$PXqyXyak0_SUhCNN',#18,'Pset_ReinforcementBarPitchOfWall',$,(#286));
#288=IFCPROPERTYSET('3bKdsx29_RVH62fNRmCncU',#18,'Pset_WallCommon',$,(#177,#181,#182,#183));
#289=IFCRELDEFINESBYPROPERTIES('2OpRam8jxvHM2_75mSf2IS',#18,$,$,(#284),#285);
#290=IFCRELDEFINESBYPROPERTIES('1q8YBDpLYRkwLX2j2Smoto',#18,$,$,(#284),#287);
#291=IFCRELDEFINESBYPROPERTIES('3tUA_y2$R1DIY4ctO4p7G7',#18,$,$,(#284),#288);
#292=IFCCARTESIANPOINT((7600.,4500.,0.));
#293=IFCAXIS2PLACEMENT3D(#292,#9,#7);
#294=IFCLOCALPLACEMENT(#34,#293);
#295=IFCCARTESIANPOINT((3600.,0.));
#296=IFCPOLYLINE((#4,#295));
#297=IFCSHAPEREPRESENTATION(#23,'Axis','Curve2D',(#296));
#298=IFCCARTESIANPOINT((1800.00000000001,1.77635683940025E-13));
#299=IFCAXIS2PLACEMENT2D(#298,#12);
#300=IFCRECTANGLEPROFILEDEF(.AREA.,$,#299,3600.00000000002,200.);
#301=IFCAXIS2PLACEMENT3D(#3,$,$);
#302=IFCEXTRUDEDAREASOLID(#300,#301,#9,2695.2);
#303=IFCCARTESIANPOINT((3600.,0.));
#304=IFCCARTESIANPOINT((3600.,200.));
#305=IFCCARTESIANPOINT((3400.,200.));
#306=IFCCARTESIANPOINT((200.,200.));
#307=IFCCARTESIANPOINT((0.,200.));
#308=IFCPOLYLINE((#4,#303,#304,#305,#306,#307,#4));
#309=IFCCARTESIANPOINT((0.,-100.,2695.2));
#310=IFCAXIS2PLACEMENT3D(#309,#10,#7);
#311=IFCPLANE(#310);
#312=IFCCARTESIANPOINT((0.,-100.,2695.2));
#313=IFCAXIS2PLACEMENT3D(#312,$,$);
#314=IFCPOLYGONALBOUNDEDHALFSPACE(#311,.T.,#313,#308);
#315=IFCBOOLEANCLIPPINGRESULT(.DIFFERENCE.,#302,#314);
#316=IFCSTYLEDITEM(#302,(#165),$);
#317=IFCSHAPEREPRESENTATION(#24,'Body','Clipping',(#315));
#318=IFCPRODUCTDEFINITIONSHAPE($,$,(#297,#317));
#319=IFCWALL('3Vyqk8cSj8TOuAk6zHUwMJ',#18,'Basic Wall:Generic - 200mm:1602570',$,'Basic Wall:Generic - 200mm',#294,#318,'1602570',.NOTDEFINED.);
#320=IFCPROPERTYSET('3lnIhEvOuHbjSaKDfZK8k9',#18,'Pset_EnvironmentalImpactIndicators',$,(#177));
#321=IFCPROPERTYSINGLEVALUE('Reference',$,IFCLABEL('Generic - 200mm'),$);
#322=IFCPROPERTYSET('04W1WwOvjm30inH1dChtfP',#18,'Pset_ReinforcementBarPitchOfWall',$,(#321));
#323=IFCPROPERTYSET('3KqX06vgGEOM$38ftOcyqA',#18,'Pset_WallCommon',$,(#177,#181,#182,#183));
#324=IFCRELDEFINESBYPROPERTIES('0S8aOnFU8WcFAwodE0ltd9',#18,$,$,(#319),#320);
#325=IFCRELDEFINESBYPROPERTIES('1tYLw8_V7aeyi7TVjsHYUw',#18,$,$,(#319),#322);
#326=IFCRELDEFINESBYPROPERTIES('1t2sWDc8aJN1HpxUM7WWie',#18,$,$,(#319),#323);
#327=IFCCARTESIANPOINT((7500.,8000.,0.));
#328=IFCAXIS2PLACEMENT3D(#327,#9,#6);
#329=IFCLOCALPLACEMENT(#34,#328);
#330=IFCCARTESIANPOINT((7300.,0.));
#331=IFCPOLYLINE((#4,#330));
#332=IFCSHAPEREPRESENTATION(#23,'Axis','Curve2D',(#331));
#333=IFCCARTESIANPOINT((3650.,4.40536496171262E-13));
#334=IFCAXIS2PLACEMENT2D(#333,#12);
#335=IFCRECTANGLEPROFILEDEF(.AREA.,$,#334,7300.,200.);
#336=IFCAXIS2PLACEMENT3D(#3,$,$);
#337=IFCEXTRUDEDAREASOLID(#335,#336,#9,2695.2);
#338=IFCCARTESIANPOINT((7300.,0.));
#339=IFCCARTESIANPOINT((7300.,200.));
#340=IFCCARTESIANPOINT((0.,200.));
#341=IFCPOLYLINE((#4,#338,#339,#340,#4));
#342=IFCCARTESIANPOINT((0.,-100.,2695.2));
#343=IFCAXIS2PLACEMENT3D(#342,#10,#5);
#344=IFCPLANE(#343);
#345=IFCCARTESIANPOINT((0.,-100.,2695.2));
#346=IFCAXIS2PLACEMENT3D(#345,$,$);
#347=IFCPOLYGONALBOUNDEDHALFSPACE(#344,.T.,#346,#341);
#348=IFCBOOLEANCLIPPINGRESULT(.DIFFERENCE.,#337,#347);
#349=IFCSTYLEDITEM(#337,(#165),$);
#350=IFCSHAPEREPRESENTATION(#24,'Body','Clipping',(#348));
#351=IFCPRODUCTDEFINITIONSHAPE($,$,(#332,#350));
#352=IFCWALL('3Vyqk8cSj8TOuAk6zHUwNQ',#18,'Basic Wall:Generic - 200mm:1602627',$,'Basic Wall:Generic - 200mm',#329,#351,'1602627',.NOTDEFINED.);
#353=IFCPROPERTYSET('33VNddCdyWuRINW3IN$6wR',#18,'Pset_EnvironmentalImpactIndicators',$,(#177));
#354=IFCPROPERTYSINGLEVALUE('Reference',$,IFCLABEL('Generic - 200mm'),$);
#355=IFCPROPERTYSET('3fo6gcdchLdhUs9OMMjJcK',#18,'Pset_ReinforcementBarPitchOfWall',$,(#354));
#356=IFCPROPERTYSET('365dpoAGwqqh9R$iloiJ6Y',#18,'Pset_WallCommon',$,(#177,#181,#182,#183));
#357=IFCRELDEFINESBYPROPERTIES('2BzMAyBcbgIMAClUNVhX7C',#18,$,$,(#352),#353);
#358=IFCRELDEFINESBYPROPERTIES('2jcjj16uqcySZoq7QPRlFE',#18,$,$,(#352),#355);
#359=IFCRELDEFINESBYPROPERTIES('3JFaQDGEcQuJc$tDFSxPEn',#18,$,$,(#352),#356);
#360=IFCCARTESIANPOINT((3000.,4600.,0.));
#361=IFCAXIS2PLACEMENT3D(#360,#9,#6);
#362=IFCLOCALPLACEMENT(#34,#361);
#363=IFCCARTESIANPOINT((2800.,0.));
#364=IFCPOLYLINE((#4,#363));
#365=IFCSHAPEREPRESENTATION(#23,'Axis','Curve2D',(#364));
#366=IFCCARTESIANPOINT((1400.,0.));
#367=IFCAXIS2PLACEMENT2D(#366,#12);
#368=IFCRECTANGLEPROFILEDEF(.AREA.,$,#367,2800.,200.);
#369=IFCAXIS2PLACEMENT3D(#3,$,$);
#370=IFCEXTRUDEDAREASOLID(#368,#369,#9,2695.2);
#371=IFCCARTESIANPOINT((2800.,0.));
#372=IFCCARTESIANPOINT((2800.,200.));
#373=IFCCARTESIANPOINT((-0.,200.));
#374=IFCPOLYLINE((#4,#371,#372,#373,#4));
#375=IFCCARTESIANPOINT((0.,-100.,2695.2));
#376=IFCAXIS2PLACEMENT3D(#375,#10,#5);
#377=IFCPLANE(#376);
#378=IFCCARTESIANPOINT((0.,-100.,2695.2));
#379=IFCAXIS2PLACEMENT3D(#378,$,$);
#380=IFCPOLYGONALBOUNDEDHALFSPACE(#377,.T.,#379,#374);
#381=IFCBOOLEANCLIPPINGRESULT(.DIFFERENCE.,#370,#380);
#382=IFCSTYLEDITEM(#370,(#165),$);
#383=IFCSHAPEREPRESENTATION(#24,'Body','Clipping',(#381));
#384=IFCPRODUCTDEFINITIONSHAPE($,$,(#365,#383));
#385=IFCWALL('3Vyqk8cSj8TOuAk6zHUwIV',#18,'Basic Wall:Generic - 200mm:1602822',$,'Basic Wall:Generic - 200mm',#362,#384,'1602822',.NOTDEFINED.);
#386=IFCPROPERTYSET('3jiZGkAKUu2Am_YLPx8Ihp',#18,'Pset_EnvironmentalImpactIndicators',$,(#177));
#387=IFCPROPERTYSINGLEVALUE('Reference',$,IFCLABEL('Generic - 200mm'),$);
#388=IFCPROPERTYSET('0I2vFcCwzFIqXYuiAJMRoI',#18,'Pset_ReinforcementBarPitchOfWall',$,(#387));
#389=IFCPROPERTYSET('3oaDZ6ll2ApuPGw0$rKaRm',#18,'Pset_WallCommon',$,(#177,#181,#182,#183));
#390=IFCRELDEFINESBYPROPERTIES('3sUTm1e5PvbSM1LkCWEcnc',#18,$,$,(#385),#386);
#391=IFCRELDEFINESBYPROPERTIES('2PBm19nyIDk_wgMh7oZ7kn',#18,$,$,(#385),#388);
#392=IFCRELDEFINESBYPROPERTIES('1puf9ZxLtpuD$z2essXrIy',#18,$,$,(#385),#389);
#393=IFCAXIS2PLACEMENT3D(#3,$,$);
#394=IFCLOCALPLACEMENT(#34,#393);
#395=IFCCARTESIANPOINT((0.,0.));
#396=IFCAXIS2PLACEMENT2D(#395,#11);
#397=IFCRECTANGLEPROFILEDEF(.AREA.,$,#396,8100.,7700.00000000001);
#398=IFCCARTESIANPOINT((3850.,4050.,0.));
#399=IFCAXIS2PLACEMENT3D(#398,#10,#7);
#400=IFCEXTRUDEDAREASOLID(#397,#399,#9,304.8);
#401=IFCCOLOURRGB($,0.501960784313725,0.501960784313725,0.501960784313725);
#402=IFCSURFACESTYLERENDERING(#401,0.,$,$,$,$,IFCNORMALISEDRATIOMEASURE(0.5),IFCSPECULAREXPONENT(10.),.NOTDEFINED.);
#403=IFCSURFACESTYLE('Default Floor',.BOTH.,(#402));
#404=IFCSTYLEDITEM(#400,(#403),$);
#405=IFCSHAPEREPRESENTATION(#24,'Body','SweptSolid',(#400));
#406=IFCSIUNIT(*,.PLANEANGLEUNIT.,$,.RADIAN.);
#407=IFCDIMENSIONALEXPONENTS(0,0,0,0,0,0,0);
#408=IFCMEASUREWITHUNIT(IFCPLANEANGLEMEASURE(0.0174532925199433),#406);
#409=IFCCONVERSIONBASEDUNIT(#407,.PLANEANGLEUNIT.,'DEGREE',#408);
#410=IFCPRODUCTDEFINITIONSHAPE($,$,(#405));
#411=IFCSLAB('0dxtXCDSn2mfP92h$AiPNt',#18,'Floor:Generic - 12":1603513',$,'Floor:Generic - 12"',#394,#410,'1603513',.FLOOR.);
#412=IFCSLABTYPE('1xZrMVYp52mhf4uMzw11Hi',#18,'Floor:Generic - 12"',$,$,(#431),$,'441449',$,.FLOOR.);
#413=IFCMATERIAL('Default Floor',$,'Miscellaneous');
#414=IFCSTYLEDITEM($,(#403),$);
#415=IFCSTYLEDREPRESENTATION(#22,'Style','Material',(#414));
#416=IFCMATERIALDEFINITIONREPRESENTATION($,$,(#415),#413);
#417=IFCMATERIALLAYER(#413,304.8,$,'Layer',$,'Miscellaneous',$);
#418=IFCMATERIALLAYERSET((#417),'Floor:Generic - 12"',$);
#419=IFCMATERIALLAYERSETUSAGE(#418,.AXIS3.,.POSITIVE.,0.,$);
#420=IFCPROPERTYSINGLEVALUE('Reference',$,IFCIDENTIFIER('Generic - 12"'),$);
#421=IFCPROPERTYSET('2WrTm3aPy3BIbKc6XtXVrh',#18,'Pset_EnvironmentalImpactIndicators',$,(#420));
#422=IFCPROPERTYSINGLEVALUE('Reference',$,IFCLABEL('Generic - 12"'),$);
#423=IFCPROPERTYSET('0wUBDx6kDVbd2xy1P3gXJf',#18,'Pset_ReinforcementBarPitchOfSlab',$,(#422));
#424=IFCPROPERTYSINGLEVALUE('PitchAngle',$,IFCPLANEANGLEMEASURE(0.),$);
#425=IFCPROPERTYSET('2FpGr__1Pq1BThqRSA3oX5',#18,'Pset_SlabCommon',$,(#45,#182,#420,#424));
#426=IFCRELDEFINESBYPROPERTIES('2$ow_FWnc4oBF1YIvgCc32',#18,$,$,(#411),#421);
#427=IFCRELDEFINESBYPROPERTIES('3hptuPTkvy0K3xpzilXQpJ',#18,$,$,(#411),#423);
#428=IFCRELDEFINESBYPROPERTIES('3SAQiH1PVh8_oNSN1Eb0zh',#18,$,$,(#411),#425);
#429=IFCCLASSIFICATIONREFERENCE('https://www.csiresources.org/standards/uniformat','B1010','Floor Construction',#28,'',$);
#430=IFCPROPERTYSINGLEVALUE('Description',$,IFCTEXT('Generic Floor (Material By Category), 12" thick'),$);
#431=IFCPROPERTYSET('08jeqqdMvr9oQ2sJw84keo',#18,'Pset_ReinforcementBarPitchOfSlab',$,(#430));
#432=IFCAXIS2PLACEMENT3D(#3,$,$);
#433=IFCLOCALPLACEMENT(#38,#432);
#434=IFCCARTESIANPOINT((0.,0.));
#435=IFCAXIS2PLACEMENT2D(#434,#11);
#436=IFCRECTANGLEPROFILEDEF(.AREA.,$,#435,8100.,7700.00000000001);
#437=IFCCARTESIANPOINT((3850.,4050.,0.));
#438=IFCAXIS2PLACEMENT3D(#437,#10,#7);
#439=IFCEXTRUDEDAREASOLID(#436,#438,#9,304.8);
#440=IFCSTYLEDITEM(#439,(#403),$);
#441=IFCSHAPEREPRESENTATION(#24,'Body','SweptSolid',(#439));
#442=IFCPRODUCTDEFINITIONSHAPE($,$,(#441));
#443=IFCSLAB('0dxtXCDSn2mfP92h$AiPMM',#18,'Floor:Generic - 12":1603544',$,'Floor:Generic - 12"',#433,#442,'1603544',.FLOOR.);
#444=IFCMATERIALLAYERSETUSAGE(#418,.AXIS3.,.POSITIVE.,0.,$);
#445=IFCPROPERTYSET('1wLMRM1$4YVZsNBnBFFMd0',#18,'Pset_EnvironmentalImpactIndicators',$,(#420));
#446=IFCPROPERTYSINGLEVALUE('Reference',$,IFCLABEL('Generic - 12"'),$);
#447=IFCPROPERTYSET('0MAwAjFK5YfUgoTwoUwFYB',#18,'Pset_ReinforcementBarPitchOfSlab',$,(#446));
#448=IFCPROPERTYSET('2cTekeecQBqnrL694FiKsF',#18,'Pset_SlabCommon',$,(#45,#182,#420,#424));
#449=IFCRELDEFINESBYPROPERTIES('0DnK1k68zYJCBnBui8ZMIM',#18,$,$,(#443),#445);
#450=IFCRELDEFINESBYPROPERTIES('3UHBtfnBoDufUAm5_Sdzc6',#18,$,$,(#443),#447);
#451=IFCRELDEFINESBYPROPERTIES('3QyWHLykxi$VkbAGG93T0c',#18,$,$,(#443),#448);
#452=IFCAXIS2PLACEMENT3D(#3,$,$);
#454=IFCCARTESIANPOINT((0.,0.));
#455=IFCAXIS2PLACEMENT2D(#454,#11);
#456=IFCRECTANGLEPROFILEDEF(.AREA.,'300 x 450mm',#455,200.,200.);
#457=IFCAXIS2PLACEMENT3D(#3,#9,#6);
#458=IFCEXTRUDEDAREASOLID(#456,#457,#9,2700.);
#459=IFCCOLOURRGB($,0.,0.,0.);
#460=IFCSURFACESTYLERENDERING(#459,0.,$,$,$,$,IFCNORMALISEDRATIOMEASURE(0.5),IFCSPECULAREXPONENT(64.),.NOTDEFINED.);
#461=IFCSURFACESTYLE('Concrete, Cast-in-Place gray',.BOTH.,(#460));
#462=IFCSTYLEDITEM(#458,(#461),$);
#463=IFCSHAPEREPRESENTATION(#24,'Body','SweptSolid',(#458));
#464=IFCAXIS2PLACEMENT3D(#3,$,$);
#465=IFCREPRESENTATIONMAP(#464,#463);
#466=IFCCOLUMNTYPE('2c8iwp2JP1ox_Asrwk4CXI',#18,'M_Concrete-Rectangular-Column:300 x 450mm',$,$,(#493),(#465),'1537404',$,.COLUMN.);
#467=IFCMATERIAL('Concrete, Cast-in-Place gray',$,'Concrete');
#468=IFCCOLOURRGB($,1.,1.,1.);
#469=IFCFILLAREASTYLE('<Solid fill>',(#468),$);
#470=IFCSTYLEDITEM($,(#461,#469),$);
#471=IFCSTYLEDREPRESENTATION(#22,'Style','Material and Cut Pattern',(#470));
#472=IFCMATERIALDEFINITIONREPRESENTATION($,$,(#471),#467);
#473=IFCMATERIALPROFILE('300 x 450mm',$,#467,#456,$,$);
#474=IFCMATERIALPROFILESET('300 x 450mm',$,(#473),$);
#475=IFCCARTESIANTRANSFORMATIONOPERATOR3D($,$,#3,1.,$);
#476=IFCMAPPEDITEM(#465,#475);
#477=IFCSHAPEREPRESENTATION(#24,'Body','MappedRepresentation',(#476));
#478=IFCPRODUCTDEFINITIONSHAPE($,$,(#477));
#479=IFCCARTESIANPOINT((7600.,87.3571971653727,0.));
#480=IFCAXIS2PLACEMENT3D(#479,$,$);
#481=IFCLOCALPLACEMENT(#34,#480);
#482=IFCCOLUMN('0n4qMSuxfEFA0BeEfapSQB',#18,'M_Concrete-Rectangular-Column:300 x 450mm:1603988',$,'M_Concrete-Rectangular-Column:300 x 450mm',#481,#478,'1603988',.COLUMN.);
#483=IFCMATERIALPROFILESETUSAGE(#474,$,$);
#484=IFCPROPERTYSINGLEVALUE('Reference',$,IFCIDENTIFIER('300 x 450mm'),$);
#485=IFCPROPERTYSINGLEVALUE('LoadBearing',$,IFCBOOLEAN(.T.),$);
#486=IFCPROPERTYSET('3uXK8swOT38MgdZ4NtOgBZ',#18,'Pset_ColumnCommon',$,(#45,#484,#485));
#487=IFCPROPERTYSET('0k8MVEOBS_92cJAQvP8ZWU',#18,'Pset_EnvironmentalImpactIndicators',$,(#484));
#488=IFCPROPERTYSINGLEVALUE('Reference',$,IFCLABEL('300 x 450mm'),$);
#489=IFCPROPERTYSET('3yUyHFv1yPy2o6Y28b$DGC',#18,'Pset_ReinforcementBarPitchOfColumn',$,(#488));
#490=IFCRELDEFINESBYPROPERTIES('0ZAJT2DDGctVnopxtgbxlL',#18,$,$,(#482),#486);
#491=IFCRELDEFINESBYPROPERTIES('3gCCzm811R4VqNJhLeNDlJ',#18,$,$,(#482),#487);
#492=IFCRELDEFINESBYPROPERTIES('02a$$NXkQD6wTdQy7ddPlu',#18,$,$,(#482),#489);
#493=IFCPROPERTYSET('1V_uRHUA_PhHZ2amMKnEvY',#18,'Pset_ColumnCommon',$,(#485));
#494=IFCMAPPEDITEM(#465,#475);
#495=IFCSHAPEREPRESENTATION(#24,'Body','MappedRepresentation',(#494));
#496=IFCPRODUCTDEFINITIONSHAPE($,$,(#495));
#497=IFCCARTESIANPOINT((2900.,4600.,0.));
#498=IFCAXIS2PLACEMENT3D(#497,$,$);
#499=IFCLOCALPLACEMENT(#34,#498);
#500=IFCCOLUMN('0n4qMSuxfEFA0BeEfapSHZ',#18,'M_Concrete-Rectangular-Column:300 x 450mm:1604476',$,'M_Concrete-Rectangular-Column:300 x 450mm',#499,#496,'1604476',.COLUMN.);
#501=IFCPROPERTYSET('117onGxsDDcpyLYD8Bttnq',#18,'Pset_ColumnCommon',$,(#45,#484,#485));
#502=IFCPROPERTYSET('1eFdd9XNCkGLHcCa_Hmb$L',#18,'Pset_EnvironmentalImpactIndicators',$,(#484));
#503=IFCPROPERTYSINGLEVALUE('Reference',$,IFCLABEL('300 x 450mm'),$);
#504=IFCPROPERTYSET('2pNJ4og14zRi$KAukCc_Lf',#18,'Pset_ReinforcementBarPitchOfColumn',$,(#503));
#505=IFCRELDEFINESBYPROPERTIES('2fKrir24axBsr7tTlZ9yST',#18,$,$,(#500),#501);
#506=IFCRELDEFINESBYPROPERTIES('18u5EHBBuNuFjC7odaI36b',#18,$,$,(#500),#502);
#507=IFCRELDEFINESBYPROPERTIES('1tcpw5boYBLK7yQh7iJNnk',#18,$,$,(#500),#504);
#508=IFCCARTESIANPOINT((7600.,187.357197165373,0.));
#509=IFCAXIS2PLACEMENT3D(#508,#9,#7);
#510=IFCLOCALPLACEMENT(#34,#509);
#511=IFCCARTESIANPOINT((2000.,0.));
#512=IFCPOLYLINE((#4,#511));
#513=IFCSHAPEREPRESENTATION(#23,'Axis','Curve2D',(#512));
#514=IFCCARTESIANPOINT((1000.,0.));
#515=IFCAXIS2PLACEMENT2D(#514,#12);
#516=IFCRECTANGLEPROFILEDEF(.AREA.,$,#515,2000.,200.);
#517=IFCAXIS2PLACEMENT3D(#3,$,$);
#518=IFCEXTRUDEDAREASOLID(#516,#517,#9,2699.);
#519=IFCSTYLEDITEM(#518,(#165),$);
#520=IFCSHAPEREPRESENTATION(#24,'Body','SweptSolid',(#518));
#521=IFCPRODUCTDEFINITIONSHAPE($,$,(#513,#520));
#522=IFCWALL('2c8iwp2JP1ox_Asrwk4CZr',#18,'Basic Wall:Generic - 200mm:1604909',$,'Basic Wall:Generic - 200mm',#510,#521,'1604909',.NOTDEFINED.);
#523=IFCPROPERTYSET('2_hBVh5k73GSe3UatlX2dd',#18,'Pset_EnvironmentalImpactIndicators',$,(#177));
#524=IFCPROPERTYSINGLEVALUE('Reference',$,IFCLABEL('Generic - 200mm'),$);
#525=IFCPROPERTYSET('2$N06iWZeR8X6FoSSlyfbK',#18,'Pset_ReinforcementBarPitchOfWall',$,(#524));
#526=IFCPROPERTYSINGLEVALUE('ExtendToStructure',$,IFCBOOLEAN(.F.),$);
#527=IFCPROPERTYSET('2pjJQVRcmVXw$M$$CNbP9X',#18,'Pset_WallCommon',$,(#177,#181,#182,#526));
#528=IFCRELDEFINESBYPROPERTIES('1FZrjxve8rZXRsuSnBiG0P',#18,$,$,(#522),#523);
#529=IFCRELDEFINESBYPROPERTIES('0Ov9NNsYHeRoe4GFULXZYW',#18,$,$,(#522),#525);
#530=IFCRELDEFINESBYPROPERTIES('07cPjtU$vp6M0c$FQyNhVd',#18,$,$,(#522),#527);
#531=IFCPROPERTYSINGLEVALUE('Reference',$,IFCIDENTIFIER('8mm Head'),$);
#532=IFCPROPERTYSINGLEVALUE('AboveGround',$,IFCLOGICAL(.U.),$);
#533=IFCPROPERTYSET('16L50AfyZF4hYq5TGET4H4',#18,'Pset_BuildingStoreyCommon',$,(#531,#532));
#534=IFCPROPERTYSET('2J7ac_h5ujdwWuzVwBIIta',#18,'Pset_SpaceCommon',$,(#45,#531));
#535=IFCRELDEFINESBYPROPERTIES('2VdfSfkgzGoZi_3SgzE8$0',#18,$,$,(#35),#533);
#536=IFCRELDEFINESBYPROPERTIES('3$YdOpA8iaPobC8MDiWxoI',#18,$,$,(#35),#534);
#537=IFCRELCONTAINEDINSPATIALSTRUCTURE('2JF4e6axWHqu3u0C5FZlmi',#18,$,$,(#169,#216,#250,#284,#319,#352,#385,#411,#482,#500,#522),#35);
#538=IFCPROPERTYSET('1n34enW33Z_3Qq2Pm1kjQZ',#18,'Pset_BuildingStoreyCommon',$,(#531,#532));
#539=IFCPROPERTYSET('0qNc4$IaPwTvoqOd7IlIE4',#18,'Pset_SpaceCommon',$,(#45,#531));
#540=IFCRELDEFINESBYPROPERTIES('36oM8gyLQ5_Z6XoGK5uP1E',#18,$,$,(#39),#538);
#541=IFCRELDEFINESBYPROPERTIES('0jA6Vdz$3CfPvu_I1iTL6J',#18,$,$,(#39),#539);
#542=IFCRELCONTAINEDINSPATIALSTRUCTURE('1ZGO8hrFCHqw0v0066FpFv',#18,$,$,(#443),#39);
#543=IFCRELAGGREGATES('2KFB6YYWgXBmucZ8cm7uCP',#18,$,$,#27,(#42));
#544=IFCRELAGGREGATES('16_hfJTeCqU7LcG8m10BTS',#18,$,$,#42,(#32));
#545=IFCRELAGGREGATES('2JF4e6axWHqu3u0C9FZlmi',#18,$,$,#35,(#126));
#546=IFCRELAGGREGATES('1yhDISh1T5aQqAoygxGIhP',#18,$,$,#32,(#35,#39));
#547=IFCPROPERTYSINGLEVALUE('NumberOfStoreys',$,IFCCOUNTMEASURE(2),$);
#548=IFCPROPERTYSINGLEVALUE('IsLandmarked',$,IFCLOGICAL(.U.),$);
#549=IFCPROPERTYSET('01y_GmllCupEYuBgfGbhkd',#18,'Pset_BuildingCommon',$,(#43,#547,#548));
#550=IFCPROPERTYSET('1rUR7OGyIAkZT62xvibLnd',#18,'Pset_BuildingElementProxyCommon',$,(#43,#45));
#551=IFCPROPERTYSET('2kFDjjfIaTsBi7MLK$i$Me',#18,'Pset_BuildingStoreyCommon',$,(#43,#532));
#552=IFCPROPERTYSET('1TYvb3FgH88mtl04iE5P1T',#18,'Pset_BuildingSystemCommon',$,(#43));
#553=IFCPROPERTYSET('2W94HCj5xfigmNGtkBMklk',#18,'Pset_SpaceCommon',$,(#43,#45));
#554=IFCRELDEFINESBYPROPERTIES('0vDjba2fshDEh0_KufwWht',#18,$,$,(#32),#549);
#555=IFCRELDEFINESBYPROPERTIES('1V6UQfELB4oPy3GPEaJMPw',#18,$,$,(#32),#550);
#556=IFCRELDEFINESBYPROPERTIES('0Vpd75HttOMIhzXutBGgCt',#18,$,$,(#32),#551);
#557=IFCRELDEFINESBYPROPERTIES('22VMRBFW9n6_S81yWIP225',#18,$,$,(#32),#552);
#558=IFCRELDEFINESBYPROPERTIES('2w3bzVlKnfBVjA3_BjG2II',#18,$,$,(#32),#553);
#559=IFCRELASSOCIATESMATERIAL('09vdmREdTxn9CHkKQLCmva',#18,$,$,(#411),#419);
#560=IFCRELASSOCIATESMATERIAL('3F3FWvFIiue83dGwwuAFoT',#18,$,$,(#443),#444);
#561=IFCRELASSOCIATESMATERIAL('22T9r9KB1F3JFgePfxkUGp',#18,$,$,(#169,#176,#216,#250,#284,#319,#352,#385,#522),#175);
#562=IFCRELASSOCIATESMATERIAL('0RkFpO4y91A56i7kETvvWZ',#18,$,$,(#412),#418);
#563=IFCRELASSOCIATESMATERIAL('1LbUtHsXT_tA2PgohHsVpm',#18,$,$,(#466),#474);
#564=IFCRELDEFINESBYTYPE('1n7Z8mdHOnANZygC0WDgJu',#18,$,$,(#126),#127);
#565=IFCRELDEFINESBYTYPE('0MSq_ijuC5q4PUKv4QkOsA',#18,$,$,(#169,#216,#250,#284,#319,#352,#385,#522),#176);
#566=IFCRELDEFINESBYTYPE('3AVJtbOHyTnujdziMMd$qq',#18,$,$,(#411,#443),#412);
#567=IFCRELDEFINESBYTYPE('3xaHeiMWF3v98IbpTgZfQP',#18,$,$,(#482,#500),#466);
#568=IFCRELCONNECTSPATHELEMENTS('3ugK07sTRHPQgCANXzjPel',#18,'3Vyqk8cSj8TOuAk6zHUwAt|3Vyqk8cSj8TOuAk6zHUwNQ','Structural',$,#169,#352,(),(),.ATEND.,.ATSTART.);
#569=IFCRELCONNECTSPATHELEMENTS('23XeiboBqsTJYQlvX$RKBJ',#18,'3Vyqk8cSj8TOuAk6zHUwAt|3Vyqk8cSj8TOuAk6zHUwAc','Structural',$,#169,#216,(),(),.ATSTART.,.ATEND.);
#570=IFCRELCONNECTSPATHELEMENTS('0hwcEfuQJy_u5BVmulnPou',#18,'3Vyqk8cSj8TOuAk6zHUwAc|3Vyqk8cSj8TOuAk6zHUwBs','Structural',$,#216,#250,(),(),.ATSTART.,.ATEND.);
#571=IFCRELCONNECTSPATHELEMENTS('3KZuy45rkwoh9t_Sblz6_4',#18,'3Vyqk8cSj8TOuAk6zHUwBs|3Vyqk8cSj8TOuAk6zHUw89','Structural',$,#250,#284,(),(),.ATEND.,.ATEND.);
#572=IFCRELCONNECTSPATHELEMENTS('1vNx1Mi$BxGTeQ1xXXnA7E',#18,'3Vyqk8cSj8TOuAk6zHUw89|3Vyqk8cSj8TOuAk6zHUwMJ','Structural',$,#284,#319,(),(),.ATSTART.,.ATSTART.);
#573=IFCRELCONNECTSPATHELEMENTS('0LaT41zAAAo8nacED5QZkK',#18,'3Vyqk8cSj8TOuAk6zHUwMJ|3Vyqk8cSj8TOuAk6zHUwNQ','Structural',$,#319,#352,(),(),.ATSTART.,.ATEND.);
#574=IFCRELCONNECTSPATHELEMENTS('3D3Z_aFFnxYLlGarnZzDCc',#18,'3Vyqk8cSj8TOuAk6zHUwAt|3Vyqk8cSj8TOuAk6zHUwIV','Structural',$,#169,#385,(),(),.ATEND.,.ATPATH.);
#575=IFCPRESENTATIONLAYERASSIGNMENT('A-AREA-____-OTLN',$,(#123),$);
#576=IFCPRESENTATIONLAYERASSIGNMENT('A-WALL-____-OTLN',$,(#142,#167,#196,#214,#229,#248,#263,#282,#297,#317,#332,#350,#365,#383,#513,#520),$);
#577=IFCPRESENTATIONLAYERASSIGNMENT('A-FLOR-____-OTLN',$,(#405,#441),$);
#578=IFCPRESENTATIONLAYERASSIGNMENT('S-COLS-____-OTLN',$,(#463,#477,#495),$);
#579=IFCRELASSOCIATESCLASSIFICATION('2mNchzfGWDr_AK3qpy_v$I',#18,'Exterior Walls','Exterior Walls:B2010',(#169,#216,#250,#284,#319,#352,#385,#522),#188);
#580=IFCRELASSOCIATESCLASSIFICATION('1sPZ7RnmtJXsu_N19h72IC',#18,'Floor Construction','Floor Construction:B1010',(#411,#443),#429);
#581=IFCUNITASSIGNMENT((#19,#125,#409));
ENDSEC;
END-ISO-10303-21;
