ISO-10303-21;
HEADER;
FILE_DESCRIPTION(('ViewDefinition [CoordinationView]','RevitIdentifiers [ContentGUID: cbb0ae2e-6350-4225-8ca4-af668662c38d, VersionGUID: 27264ba4-cba7-4e75-93eb-62037f1e3a2f, NumberOfSaves: 27]','CoordinateReference [CoordinateBase: Shared Coordinates]'),'2;1');
FILE_NAME('01_02_007.ifc','2026-01-07T16:56:59+01:00',(''),(''),'ODA SDAI 24.6','Autodesk Revit 24.3.30.11 (ENU) - IFC 24.3.30.11','');
FILE_SCHEMA(('IFC4X3'));
ENDSEC;
DATA;
#1=IFCORGANIZATION($,'Autodesk Revit 2024 (ENU)',$,$,$);
#2=IFCAPPLICATION(#1,'2024','Autodesk Revit 2024 (ENU)','Revit');
#3=IFCCARTESIANPOINT((0.,0.,0.));
#4=IFCCARTESIANPOINT((0.,0.));
#5=IFCDIRECTION((1.,0.,0.));
#6=IFCDIRECTION((-1.,0.,0.));
#7=IFCDIRECTION((0.,1.,0.));
#8=IFCDIRECTION((0.,-1.,0.));
#9=IFCDIRECTION((0.,0.,1.));
#10=IFCDIRECTION((0.,0.,-1.));
#11=IFCDIRECTION((1.,0.));
#12=IFCDIRECTION((-1.,0.));
#13=IFCDIRECTION((0.,1.));
#14=IFCDIRECTION((0.,-1.));
#15=IFCPERSON($,'','h.helming',$,$,$,$,$);
#16=IFCORGANIZATION($,'Organization Name','Organization Description',$,$);
#17=IFCPERSONANDORGANIZATION(#15,#16,$);
#18=IFCOWNERHISTORY(#17,#2,$,.NOCHANGE.,$,$,$,1767701809);
#19=IFCSIUNIT(*,.LENGTHUNIT.,.MILLI.,.METRE.);
#20=IFCAXIS2PLACEMENT3D(#3,$,$);
#21=IFCDIRECTION((6.12303176911189E-17,1.));
#22=IFCGEOMETRICREPRESENTATIONCONTEXT($,'Model',3,0.01,#20,#21);
#23=IFCGEOMETRICREPRESENTATIONSUBCONTEXT('Axis','Model',*,*,*,*,#22,$,.GRAPH_VIEW.,$);
#24=IFCGEOMETRICREPRESENTATIONSUBCONTEXT('Body','Model',*,*,*,*,#22,$,.MODEL_VIEW.,$);
#25=IFCGEOMETRICREPRESENTATIONSUBCONTEXT('Box','Model',*,*,*,*,#22,$,.MODEL_VIEW.,$);
#26=IFCGEOMETRICREPRESENTATIONSUBCONTEXT('FootPrint','Model',*,*,*,*,#22,$,.MODEL_VIEW.,$);
#27=IFCPROJECT('3BiAukOr129OoahsPvdJnz',#18,'Project Number',$,$,'Project Name','Project Status',(#22),#573);
#28=IFCCLASSIFICATION('CSI (Construction Specifications Institute)','1998',$,'Uniformat','UniFormat Classification','https://www.csiresources.org/standards/uniformat',$);
#29=IFCAXIS2PLACEMENT3D(#3,$,$);
#30=IFCLOCALPLACEMENT(#41,#29);
#31=IFCPOSTALADDRESS($,$,$,$,('Enter address hereAddress Line 2'),$,'','Boston','','MA');
#32=IFCBUILDING('3BiAukOr129OoahsPvdJny',#18,'Building Name',$,$,#30,$,'Building Name',.ELEMENT.,$,$,#31);
#33=IFCAXIS2PLACEMENT3D(#3,$,$);
#34=IFCLOCALPLACEMENT(#30,#33);
#35=IFCBUILDINGSTOREY('2JF4e6axWHqu3u0C1FZlmi',#18,'L1',$,'Level:8mm Head',#34,$,'L1',.ELEMENT.,0.);
#36=IFCCARTESIANPOINT((0.,0.,3000.));
#37=IFCAXIS2PLACEMENT3D(#36,$,$);
#38=IFCLOCALPLACEMENT(#30,#37);
#39=IFCBUILDINGSTOREY('1ZGO8hrFCHqw0v0026FpFv',#18,'L2',$,'Level:8mm Head',#38,$,'L2',.ELEMENT.,3000.);
#40=IFCAXIS2PLACEMENT3D(#3,$,$);
#41=IFCLOCALPLACEMENT($,#40);
#42=IFCSITE('3BiAukOr129OoahsPvdJn$',#18,'Default',$,$,#41,$,$,.ELEMENT.,(42,21,31,401672),(-71,-3,-24,-345703),0.,$,$);
#43=IFCPROPERTYSINGLEVALUE('Reference',$,IFCIDENTIFIER('Project Information'),$);
#44=IFCPROPERTYSET('2mFJcO6I01h0OYRLOICO3c',#18,'Pset_SiteCommon',$,(#43));
#45=IFCPROPERTYSINGLEVALUE('IsExternal',$,IFCBOOLEAN(.F.),$);
#46=IFCPROPERTYSET('0O$B2PbAODr9jYnpcaZGJT',#18,'Pset_SpaceCommon',$,(#43,#45));
#47=IFCRELDEFINESBYPROPERTIES('2fDrcjst0HFayqQ3dY1cGQ',#18,$,$,(#42),#44);
#48=IFCRELDEFINESBYPROPERTIES('1lYkP70lXSGXnZeJnLC8MY',#18,$,$,(#42),#46);
#55=IFCAXIS2PLACEMENT3D(#3,$,$);
#56=IFCLOCALPLACEMENT(#34,#55);
#57=IFCCARTESIANPOINT((200.,200.,0.));
#58=IFCCARTESIANPOINT((200.,7900.,0.));
#59=IFCCARTESIANPOINT((2800.,7900.,0.));
#60=IFCCARTESIANPOINT((2800.,4500.,0.));
#61=IFCCARTESIANPOINT((4900.,4500.,0.));
#62=IFCCARTESIANPOINT((4900.,200.,0.));
#63=IFCPOLYLOOP((#57,#58,#59,#60,#61,#62));
#64=IFCFACEOUTERBOUND(#63,.T.);
#65=IFCFACE((#64));
#66=IFCCARTESIANPOINT((200.,200.,2695.2));
#67=IFCCARTESIANPOINT((200.,7900.,2695.2));
#68=IFCPOLYLOOP((#58,#57,#66,#67));
#69=IFCFACEOUTERBOUND(#68,.T.);
#70=IFCFACE((#69));
#71=IFCCARTESIANPOINT((4900.,200.,2695.2));
#72=IFCPOLYLOOP((#57,#62,#71,#66));
#73=IFCFACEOUTERBOUND(#72,.T.);
#74=IFCFACE((#73));
#75=IFCCARTESIANPOINT((4900.,4500.,2695.2));
#76=IFCPOLYLOOP((#62,#61,#75,#71));
#77=IFCFACEOUTERBOUND(#76,.T.);
#78=IFCFACE((#77));
#79=IFCCARTESIANPOINT((2800.,4500.,2695.2));
#80=IFCPOLYLOOP((#61,#60,#79,#75));
#81=IFCFACEOUTERBOUND(#80,.T.);
#82=IFCFACE((#81));
#83=IFCCARTESIANPOINT((2800.,7900.,2695.2));
#84=IFCPOLYLOOP((#60,#59,#83,#79));
#85=IFCFACEOUTERBOUND(#84,.T.);
#86=IFCFACE((#85));
#87=IFCPOLYLOOP((#59,#58,#67,#83));
#88=IFCFACEOUTERBOUND(#87,.T.);
#89=IFCFACE((#88));
#90=IFCPOLYLOOP((#67,#66,#71,#75,#79,#83));
#91=IFCFACEOUTERBOUND(#90,.T.);
#92=IFCFACE((#91));
#93=IFCCLOSEDSHELL((#65,#70,#74,#78,#82,#86,#89,#92));
#94=IFCFACETEDBREP(#93);
#95=IFCSHAPEREPRESENTATION(#24,'Body','Brep',(#94));
#96=IFCPRODUCTDEFINITIONSHAPE($,$,(#95));
#97=IFCSIUNIT(*,.AREAUNIT.,$,.SQUARE_METRE.);
#98=IFCSPACE('3Vyqk8cSj8TOuAk6zHUwK5',#18,'132',$,$,#56,#96,'room',.ELEMENT.,.NOTDEFINED.,$);
#99=IFCSPACETYPE('3Vyqk8cSj8TOuAi6zHUwK5',#18,'room 132:1602716',$,$,$,$,'1602716',$,.NOTDEFINED.,$);
#100=IFCPROPERTYSINGLEVALUE('Reference',$,IFCIDENTIFIER('room 132'),$);
#101=IFCPROPERTYSET('0J_IdRLxLVvfNMk755r9Bs',#18,'Pset_SpaceCommon',$,(#45,#100));
#102=IFCPROPERTYSET('0GYrmglhe3Mz0NFEw7FA1q',#18,'Pset_SpaceHeaterTypeCommon',$,(#100));
#103=IFCRELDEFINESBYPROPERTIES('1YQjvoT09lc6cQSZU4U1dH',#18,$,$,(#98),#101);
#104=IFCRELDEFINESBYPROPERTIES('3TpALxO0i09ljGyS98W9F1',#18,$,$,(#98),#102);
#107=IFCAXIS2PLACEMENT3D(#3,$,$);
#108=IFCLOCALPLACEMENT(#34,#107);
#109=IFCCARTESIANPOINT((-2.27373675443232E-13,-5.6843418860808E-13));
#110=IFCAXIS2PLACEMENT2D(#109,#11);
#111=IFCRECTANGLEPROFILEDEF(.AREA.,$,#110,4300.,2400.);
#112=IFCCARTESIANPOINT((6300.,2350.,0.));
#113=IFCAXIS2PLACEMENT3D(#112,#9,#7);
#114=IFCEXTRUDEDAREASOLID(#111,#113,#9,2695.2);
#115=IFCSIUNIT(*,.PLANEANGLEUNIT.,$,.RADIAN.);
#116=IFCDIMENSIONALEXPONENTS(0,0,0,0,0,0,0);
#117=IFCMEASUREWITHUNIT(IFCPLANEANGLEMEASURE(0.0174532925199433),#115);
#118=IFCCONVERSIONBASEDUNIT(#116,.PLANEANGLEUNIT.,'DEGREE',#117);
#119=IFCSHAPEREPRESENTATION(#24,'Body','SweptSolid',(#114));
#120=IFCPRODUCTDEFINITIONSHAPE($,$,(#119));
#121=IFCSPACE('3Vyqk8cSj8TOuAk6zHUwKx',#18,'134',$,$,#108,#120,'room',.ELEMENT.,.NOTDEFINED.,$);
#122=IFCSPACETYPE('3Vyqk8cSj8TOuAi6zHUwKx',#18,'room 134:1602722',$,$,$,$,'1602722',$,.NOTDEFINED.,$);
#123=IFCPROPERTYSINGLEVALUE('Reference',$,IFCIDENTIFIER('room 134'),$);
#124=IFCPROPERTYSET('3uW5dlleFoBNCC0g3P7F9z',#18,'Pset_SpaceCommon',$,(#45,#123));
#125=IFCPROPERTYSET('3A5_TifwCaPPAZ3xLO5dKN',#18,'Pset_SpaceHeaterTypeCommon',$,(#123));
#126=IFCRELDEFINESBYPROPERTIES('26iZ90qSCWNjTwa6irVCsP',#18,$,$,(#121),#124);
#127=IFCRELDEFINESBYPROPERTIES('30iSZrcGy0rV7lEKYdAyVR',#18,$,$,(#121),#125);
#128=IFCAXIS2PLACEMENT3D(#3,$,$);
#129=IFCLOCALPLACEMENT(#34,#128);
#130=IFCCARTESIANPOINT((320.000000000003,-49.9999999999995));
#131=IFCAXIS2PLACEMENT2D(#130,#11);
#132=IFCRECTANGLEPROFILEDEF(.AREA.,$,#131,3200.00000000002,4500.);
#133=IFCCARTESIANPOINT((5200.,5980.,0.));
#134=IFCAXIS2PLACEMENT3D(#133,#9,#7);
#135=IFCEXTRUDEDAREASOLID(#132,#134,#9,2695.2);
#136=IFCSHAPEREPRESENTATION(#24,'Body','SweptSolid',(#135));
#137=IFCPRODUCTDEFINITIONSHAPE($,$,(#136));
#138=IFCSPACE('3Vyqk8cSj8TOuAk6zHUwJB',#18,'135',$,$,#129,#137,'room',.ELEMENT.,.NOTDEFINED.,$);
#139=IFCSPACETYPE('3Vyqk8cSj8TOuAi6zHUwJB',#18,'room 135:1602898',$,$,$,$,'1602898',$,.NOTDEFINED.,$);
#140=IFCPROPERTYSINGLEVALUE('Reference',$,IFCIDENTIFIER('room 135'),$);
#141=IFCPROPERTYSET('3mpZ6jt2tbxdIDyLBZ7bSV',#18,'Pset_SpaceCommon',$,(#45,#140));
#142=IFCPROPERTYSET('25WMiLSR$qCd$WGyaFckb2',#18,'Pset_SpaceHeaterTypeCommon',$,(#140));
#143=IFCRELDEFINESBYPROPERTIES('3ZpWLR38_w7XA0kd$xPgtp',#18,$,$,(#138),#141);
#144=IFCRELDEFINESBYPROPERTIES('3Z3nzrqkaqS1rGzHMTgTQ$',#18,$,$,(#138),#142);
#145=IFCCARTESIANPOINT((100.,8100.,0.));
#146=IFCAXIS2PLACEMENT3D(#145,#9,#8);
#147=IFCLOCALPLACEMENT(#34,#146);
#148=IFCCARTESIANPOINT((8100.,-0.));
#149=IFCPOLYLINE((#4,#148));
#150=IFCSHAPEREPRESENTATION(#23,'Axis','Curve2D',(#149));
#151=IFCCARTESIANPOINT((4050.00000000001,-1.4210854715202E-14));
#152=IFCAXIS2PLACEMENT2D(#151,#12);
#153=IFCRECTANGLEPROFILEDEF(.AREA.,$,#152,8100.00000000003,200.);
#154=IFCAXIS2PLACEMENT3D(#3,$,$);
#155=IFCEXTRUDEDAREASOLID(#153,#154,#9,2695.2);
#156=IFCCARTESIANPOINT((8100.,-0.));
#157=IFCCARTESIANPOINT((8100.,200.));
#158=IFCCARTESIANPOINT((7900.,200.));
#159=IFCCARTESIANPOINT((200.,200.));
#160=IFCCARTESIANPOINT((0.,200.));
#161=IFCPOLYLINE((#4,#156,#157,#158,#159,#160,#4));
#162=IFCCARTESIANPOINT((0.,-100.,2695.2));
#163=IFCAXIS2PLACEMENT3D(#162,#10,#7);
#164=IFCPLANE(#163);
#165=IFCCARTESIANPOINT((0.,-100.,2695.2));
#166=IFCAXIS2PLACEMENT3D(#165,$,$);
#167=IFCPOLYGONALBOUNDEDHALFSPACE(#164,.T.,#166,#161);
#168=IFCBOOLEANCLIPPINGRESULT(.DIFFERENCE.,#155,#167);
#169=IFCCOLOURRGB($,0.752941176470588,0.752941176470588,0.752941176470588);
#170=IFCSURFACESTYLERENDERING(#169,0.,$,$,$,$,IFCNORMALISEDRATIOMEASURE(0.5),IFCSPECULAREXPONENT(10.),.NOTDEFINED.);
#171=IFCSURFACESTYLE('Default Wall',.BOTH.,(#170));
#172=IFCSTYLEDITEM(#155,(#171),$);
#173=IFCSHAPEREPRESENTATION(#24,'Body','Clipping',(#168));
#174=IFCPRODUCTDEFINITIONSHAPE($,$,(#150,#173));
#175=IFCWALL('3Vyqk8cSj8TOuAk6zHUwAt',#18,'Basic Wall:Generic - 200mm:1602350',$,'Basic Wall:Generic - 200mm',#147,#174,'1602350',.NOTDEFINED.);
#176=IFCMATERIAL('Default Wall',$,'Miscellaneous');
#177=IFCSTYLEDITEM($,(#171),$);
#178=IFCSTYLEDREPRESENTATION(#22,'Style','Material',(#177));
#179=IFCMATERIALDEFINITIONREPRESENTATION($,$,(#178),#176);
#180=IFCMATERIALLAYER(#176,200.,$,'Layer',$,'Miscellaneous',$);
#181=IFCMATERIALLAYERSET((#180),'Basic Wall:Generic - 200mm',$);
#182=IFCWALLTYPE('1xZrMVYp52mhf4uMzw11Hk',#18,'Basic Wall:Generic - 200mm',$,$,(#196),$,'441451',$,.STANDARD.);
#183=IFCPROPERTYSINGLEVALUE('Reference',$,IFCIDENTIFIER('Generic - 200mm'),$);
#184=IFCPROPERTYSET('0Km4zNM2MwGsg6uui573Gl',#18,'Pset_EnvironmentalImpactIndicators',$,(#183));
#185=IFCPROPERTYSINGLEVALUE('Reference',$,IFCLABEL('Generic - 200mm'),$);
#186=IFCPROPERTYSET('0ZXMEr5ajxWFHJMWoi4f9d',#18,'Pset_ReinforcementBarPitchOfWall',$,(#185));
#187=IFCPROPERTYSINGLEVALUE('IsExternal',$,IFCBOOLEAN(.T.),$);
#188=IFCPROPERTYSINGLEVALUE('LoadBearing',$,IFCBOOLEAN(.F.),$);
#189=IFCPROPERTYSINGLEVALUE('ExtendToStructure',$,IFCBOOLEAN(.T.),$);
#190=IFCPROPERTYSET('1zrfxTCt1bXMa1Ly5p70N1',#18,'Pset_WallCommon',$,(#183,#187,#188,#189));
#191=IFCRELDEFINESBYPROPERTIES('03npcsjKGgxiKm0v35mOCU',#18,$,$,(#175),#184);
#192=IFCRELDEFINESBYPROPERTIES('19PyAMlzR0yGXIwnh1vl8V',#18,$,$,(#175),#186);
#193=IFCRELDEFINESBYPROPERTIES('0Ch_H7bAOLrBCWJ9at5CY2',#18,$,$,(#175),#190);
#194=IFCCLASSIFICATIONREFERENCE('https://www.csiresources.org/standards/uniformat','B2010','Exterior Walls',#28,'',$);
#195=IFCPROPERTYSINGLEVALUE('Description',$,IFCTEXT('Generic Wall (Material By Category), 200mm thick'),$);
#196=IFCPROPERTYSET('2L7lvTstnIeeydfwzfZZLR',#18,'Pset_ReinforcementBarPitchOfWall',$,(#195));
#197=IFCCARTESIANPOINT((200.,100.,0.));
#198=IFCAXIS2PLACEMENT3D(#197,$,$);
#199=IFCLOCALPLACEMENT(#34,#198);
#200=IFCCARTESIANPOINT((7500.,0.));
#201=IFCPOLYLINE((#4,#200));
#202=IFCSHAPEREPRESENTATION(#23,'Axis','Curve2D',(#201));
#203=IFCCARTESIANPOINT((3750.,0.));
#204=IFCAXIS2PLACEMENT2D(#203,#12);
#205=IFCRECTANGLEPROFILEDEF(.AREA.,$,#204,7500.,200.);
#206=IFCAXIS2PLACEMENT3D(#3,$,$);
#207=IFCEXTRUDEDAREASOLID(#205,#206,#9,2695.2);
#208=IFCCARTESIANPOINT((4900.,0.));
#209=IFCCARTESIANPOINT((4900.,200.));
#210=IFCCARTESIANPOINT((4700.,200.));
#211=IFCCARTESIANPOINT((-0.,200.));
#212=IFCPOLYLINE((#4,#208,#209,#210,#211,#4));
#213=IFCCARTESIANPOINT((0.,-100.,2695.2));
#214=IFCAXIS2PLACEMENT3D(#213,#10,#5);
#215=IFCPLANE(#214);
#216=IFCCARTESIANPOINT((0.,-100.,2695.2));
#217=IFCAXIS2PLACEMENT3D(#216,$,$);
#218=IFCPOLYGONALBOUNDEDHALFSPACE(#215,.T.,#217,#212);
#219=IFCBOOLEANCLIPPINGRESULT(.DIFFERENCE.,#207,#218);
#220=IFCCARTESIANPOINT((2600.,0.));
#221=IFCCARTESIANPOINT((2600.,200.));
#222=IFCCARTESIANPOINT((2400.,200.));
#223=IFCCARTESIANPOINT((-0.,200.));
#224=IFCPOLYLINE((#4,#220,#221,#222,#223,#4));
#225=IFCCARTESIANPOINT((4900.,-100.,2695.2));
#226=IFCAXIS2PLACEMENT3D(#225,#10,#6);
#227=IFCPLANE(#226);
#228=IFCCARTESIANPOINT((4900.,-100.,2695.2));
#229=IFCAXIS2PLACEMENT3D(#228,$,$);
#230=IFCPOLYGONALBOUNDEDHALFSPACE(#227,.T.,#229,#224);
#231=IFCBOOLEANCLIPPINGRESULT(.DIFFERENCE.,#219,#230);
#232=IFCSTYLEDITEM(#207,(#171),$);
#233=IFCSHAPEREPRESENTATION(#24,'Body','Clipping',(#231));
#234=IFCPRODUCTDEFINITIONSHAPE($,$,(#202,#233));
#235=IFCWALL('3Vyqk8cSj8TOuAk6zHUwAc',#18,'Basic Wall:Generic - 200mm:1602367',$,'Basic Wall:Generic - 200mm',#199,#234,'1602367',.NOTDEFINED.);
#236=IFCPROPERTYSET('3JUIdSeVp_uwEbbZZ62q4s',#18,'Pset_EnvironmentalImpactIndicators',$,(#183));
#237=IFCPROPERTYSINGLEVALUE('Reference',$,IFCLABEL('Generic - 200mm'),$);
#238=IFCPROPERTYSET('2xt8_eWXQmZoGh92FUaf7C',#18,'Pset_ReinforcementBarPitchOfWall',$,(#237));
#239=IFCPROPERTYSET('1Qx33RkOMvlc106bCgkFYy',#18,'Pset_WallCommon',$,(#183,#187,#188,#189));
#240=IFCRELDEFINESBYPROPERTIES('0Cbozj_3TLDgtMpOD0_yYT',#18,$,$,(#235),#236);
#241=IFCRELDEFINESBYPROPERTIES('1Feha5xswcNTrZ$5QRM3b5',#18,$,$,(#235),#238);
#242=IFCRELDEFINESBYPROPERTIES('1olywbjtcxLyBnEbs_Cz$6',#18,$,$,(#235),#239);
#243=IFCCARTESIANPOINT((5000.,200.,0.));
#244=IFCAXIS2PLACEMENT3D(#243,#9,#7);
#245=IFCLOCALPLACEMENT(#34,#244);
#246=IFCCARTESIANPOINT((4300.,-0.));
#247=IFCPOLYLINE((#4,#246));
#248=IFCSHAPEREPRESENTATION(#23,'Axis','Curve2D',(#247));
#249=IFCCARTESIANPOINT((2150.,-3.19744231092045E-13));
#250=IFCAXIS2PLACEMENT2D(#249,#12);
#251=IFCRECTANGLEPROFILEDEF(.AREA.,$,#250,4300.,200.);
#252=IFCAXIS2PLACEMENT3D(#3,$,$);
#253=IFCEXTRUDEDAREASOLID(#251,#252,#9,2695.2);
#254=IFCCARTESIANPOINT((4300.,-0.));
#255=IFCCARTESIANPOINT((4300.,200.));
#256=IFCCARTESIANPOINT((0.,200.));
#257=IFCPOLYLINE((#4,#254,#255,#256,#4));
#258=IFCCARTESIANPOINT((0.,-100.,2695.2));
#259=IFCAXIS2PLACEMENT3D(#258,#10,#8);
#260=IFCPLANE(#259);
#261=IFCCARTESIANPOINT((0.,-100.,2695.2));
#262=IFCAXIS2PLACEMENT3D(#261,$,$);
#263=IFCPOLYGONALBOUNDEDHALFSPACE(#260,.T.,#262,#257);
#264=IFCBOOLEANCLIPPINGRESULT(.DIFFERENCE.,#253,#263);
#265=IFCSTYLEDITEM(#253,(#171),$);
#266=IFCSHAPEREPRESENTATION(#24,'Body','Clipping',(#264));
#267=IFCPRODUCTDEFINITIONSHAPE($,$,(#248,#266));
#268=IFCWALL('3Vyqk8cSj8TOuAk6zHUwBs',#18,'Basic Wall:Generic - 200mm:1602415',$,'Basic Wall:Generic - 200mm',#245,#267,'1602415',.NOTDEFINED.);
#269=IFCPROPERTYSET('3zFZKkmoyjMir2XJPwM5K5',#18,'Pset_EnvironmentalImpactIndicators',$,(#183));
#270=IFCPROPERTYSINGLEVALUE('Reference',$,IFCLABEL('Generic - 200mm'),$);
#271=IFCPROPERTYSET('24rl2YIcyoi55ChyZCq2G8',#18,'Pset_ReinforcementBarPitchOfWall',$,(#270));
#272=IFCPROPERTYSET('1QO0ZFI0bba_x9VNyujEk0',#18,'Pset_WallCommon',$,(#183,#187,#188,#189));
#273=IFCRELDEFINESBYPROPERTIES('2a9nfObiFdFDL_xI6RB3zY',#18,$,$,(#268),#269);
#274=IFCRELDEFINESBYPROPERTIES('2lgnXdSixHWA271wBKXvqj',#18,$,$,(#268),#271);
#275=IFCRELDEFINESBYPROPERTIES('1XotYCV5aUozGnrkwTWOXu',#18,$,$,(#268),#272);
#276=IFCCARTESIANPOINT((7500.,4600.,0.));
#277=IFCAXIS2PLACEMENT3D(#276,#9,#6);
#278=IFCLOCALPLACEMENT(#34,#277);
#279=IFCCARTESIANPOINT((4700.,0.));
#280=IFCPOLYLINE((#4,#279));
#281=IFCSHAPEREPRESENTATION(#23,'Axis','Curve2D',(#280));
#282=IFCCARTESIANPOINT((2350.,3.5527136788005E-14));
#283=IFCAXIS2PLACEMENT2D(#282,#12);
#284=IFCRECTANGLEPROFILEDEF(.AREA.,$,#283,4700.,200.);
#285=IFCAXIS2PLACEMENT3D(#3,$,$);
#286=IFCEXTRUDEDAREASOLID(#284,#285,#9,2695.2);
#287=IFCCARTESIANPOINT((2100.,0.));
#288=IFCCARTESIANPOINT((2300.,0.));
#289=IFCCARTESIANPOINT((2300.,200.));
#290=IFCCARTESIANPOINT((200.,200.));
#291=IFCCARTESIANPOINT((-0.,200.));
#292=IFCPOLYLINE((#4,#287,#288,#289,#290,#291,#4));
#293=IFCCARTESIANPOINT((2400.,-100.,2695.2));
#294=IFCAXIS2PLACEMENT3D(#293,#10,#6);
#295=IFCPLANE(#294);
#296=IFCCARTESIANPOINT((2400.,-100.,2695.2));
#297=IFCAXIS2PLACEMENT3D(#296,$,$);
#298=IFCPOLYGONALBOUNDEDHALFSPACE(#295,.T.,#297,#292);
#299=IFCBOOLEANCLIPPINGRESULT(.DIFFERENCE.,#286,#298);
#300=IFCCARTESIANPOINT((2400.,0.));
#301=IFCCARTESIANPOINT((2400.,200.));
#302=IFCCARTESIANPOINT((-0.,200.));
#303=IFCPOLYLINE((#4,#300,#301,#302,#4));
#304=IFCCARTESIANPOINT((0.,-100.,2695.2));
#305=IFCAXIS2PLACEMENT3D(#304,#10,#5);
#306=IFCPLANE(#305);
#307=IFCCARTESIANPOINT((0.,-100.,2695.2));
#308=IFCAXIS2PLACEMENT3D(#307,$,$);
#309=IFCPOLYGONALBOUNDEDHALFSPACE(#306,.T.,#308,#303);
#310=IFCBOOLEANCLIPPINGRESULT(.DIFFERENCE.,#299,#309);
#311=IFCSTYLEDITEM(#286,(#171),$);
#312=IFCSHAPEREPRESENTATION(#24,'Body','Clipping',(#310));
#313=IFCPRODUCTDEFINITIONSHAPE($,$,(#281,#312));
#314=IFCWALL('3Vyqk8cSj8TOuAk6zHUw89',#18,'Basic Wall:Generic - 200mm:1602448',$,'Basic Wall:Generic - 200mm',#278,#313,'1602448',.NOTDEFINED.);
#315=IFCPROPERTYSET('24uQ0xYWMb2iAICPORaANl',#18,'Pset_EnvironmentalImpactIndicators',$,(#183));
#316=IFCPROPERTYSINGLEVALUE('Reference',$,IFCLABEL('Generic - 200mm'),$);
#317=IFCPROPERTYSET('2NtOS$PXqyXyak0_SUhCNN',#18,'Pset_ReinforcementBarPitchOfWall',$,(#316));
#318=IFCPROPERTYSET('3bKdsx29_RVH62fNRmCncU',#18,'Pset_WallCommon',$,(#183,#187,#188,#189));
#319=IFCRELDEFINESBYPROPERTIES('2OpRam8jxvHM2_75mSf2IS',#18,$,$,(#314),#315);
#320=IFCRELDEFINESBYPROPERTIES('1q8YBDpLYRkwLX2j2Smoto',#18,$,$,(#314),#317);
#321=IFCRELDEFINESBYPROPERTIES('3tUA_y2$R1DIY4ctO4p7G7',#18,$,$,(#314),#318);
#322=IFCCARTESIANPOINT((7600.,200.,0.));
#323=IFCAXIS2PLACEMENT3D(#322,#9,#7);
#324=IFCLOCALPLACEMENT(#34,#323);
#325=IFCCARTESIANPOINT((7900.,-0.));
#326=IFCPOLYLINE((#4,#325));
#327=IFCSHAPEREPRESENTATION(#23,'Axis','Curve2D',(#326));
#328=IFCCARTESIANPOINT((3950.00000000001,-1.56319401867222E-13));
#329=IFCAXIS2PLACEMENT2D(#328,#12);
#330=IFCRECTANGLEPROFILEDEF(.AREA.,$,#329,7900.00000000003,200.);
#331=IFCAXIS2PLACEMENT3D(#3,$,$);
#332=IFCEXTRUDEDAREASOLID(#330,#331,#9,2695.2);
#333=IFCCARTESIANPOINT((7900.,-0.));
#334=IFCCARTESIANPOINT((7900.,200.));
#335=IFCCARTESIANPOINT((7700.,200.));
#336=IFCCARTESIANPOINT((4500.,200.));
#337=IFCCARTESIANPOINT((4300.,200.));
#338=IFCCARTESIANPOINT((0.,200.));
#339=IFCPOLYLINE((#4,#333,#334,#335,#336,#337,#338,#4));
#340=IFCCARTESIANPOINT((0.,-100.,2695.2));
#341=IFCAXIS2PLACEMENT3D(#340,#10,#7);
#342=IFCPLANE(#341);
#343=IFCCARTESIANPOINT((0.,-100.,2695.2));
#344=IFCAXIS2PLACEMENT3D(#343,$,$);
#345=IFCPOLYGONALBOUNDEDHALFSPACE(#342,.T.,#344,#339);
#346=IFCBOOLEANCLIPPINGRESULT(.DIFFERENCE.,#332,#345);
#347=IFCSTYLEDITEM(#332,(#171),$);
#348=IFCSHAPEREPRESENTATION(#24,'Body','Clipping',(#346));
#349=IFCPRODUCTDEFINITIONSHAPE($,$,(#327,#348));
#350=IFCWALL('3Vyqk8cSj8TOuAk6zHUwMJ',#18,'Basic Wall:Generic - 200mm:1602570',$,'Basic Wall:Generic - 200mm',#324,#349,'1602570',.NOTDEFINED.);
#351=IFCPROPERTYSET('3lnIhEvOuHbjSaKDfZK8k9',#18,'Pset_EnvironmentalImpactIndicators',$,(#183));
#352=IFCPROPERTYSINGLEVALUE('Reference',$,IFCLABEL('Generic - 200mm'),$);
#353=IFCPROPERTYSET('04W1WwOvjm30inH1dChtfP',#18,'Pset_ReinforcementBarPitchOfWall',$,(#352));
#354=IFCPROPERTYSET('3KqX06vgGEOM$38ftOcyqA',#18,'Pset_WallCommon',$,(#183,#187,#188,#189));
#355=IFCRELDEFINESBYPROPERTIES('0S8aOnFU8WcFAwodE0ltd9',#18,$,$,(#350),#351);
#356=IFCRELDEFINESBYPROPERTIES('1tYLw8_V7aeyi7TVjsHYUw',#18,$,$,(#350),#353);
#357=IFCRELDEFINESBYPROPERTIES('1t2sWDc8aJN1HpxUM7WWie',#18,$,$,(#350),#354);
#358=IFCCARTESIANPOINT((7500.,8000.,0.));
#359=IFCAXIS2PLACEMENT3D(#358,#9,#6);
#360=IFCLOCALPLACEMENT(#34,#359);
#361=IFCCARTESIANPOINT((7300.,0.));
#362=IFCPOLYLINE((#4,#361));
#363=IFCSHAPEREPRESENTATION(#23,'Axis','Curve2D',(#362));
#364=IFCCARTESIANPOINT((3650.,4.40536496171262E-13));
#365=IFCAXIS2PLACEMENT2D(#364,#12);
#366=IFCRECTANGLEPROFILEDEF(.AREA.,$,#365,7300.,200.);
#367=IFCAXIS2PLACEMENT3D(#3,$,$);
#368=IFCEXTRUDEDAREASOLID(#366,#367,#9,2695.2);
#369=IFCCARTESIANPOINT((2800.,0.));
#370=IFCCARTESIANPOINT((2800.,200.));
#371=IFCCARTESIANPOINT((200.,200.));
#372=IFCCARTESIANPOINT((0.,200.));
#373=IFCPOLYLINE((#4,#369,#370,#371,#372,#4));
#374=IFCCARTESIANPOINT((4500.,-100.,2695.2));
#375=IFCAXIS2PLACEMENT3D(#374,#10,#6);
#376=IFCPLANE(#375);
#377=IFCCARTESIANPOINT((4500.,-100.,2695.2));
#378=IFCAXIS2PLACEMENT3D(#377,$,$);
#379=IFCPOLYGONALBOUNDEDHALFSPACE(#376,.T.,#378,#373);
#380=IFCBOOLEANCLIPPINGRESULT(.DIFFERENCE.,#368,#379);
#381=IFCCARTESIANPOINT((4500.,0.));
#382=IFCCARTESIANPOINT((4500.,200.));
#383=IFCCARTESIANPOINT((0.,200.));
#384=IFCPOLYLINE((#4,#381,#382,#383,#4));
#385=IFCCARTESIANPOINT((0.,-100.,2695.2));
#386=IFCAXIS2PLACEMENT3D(#385,#10,#5);
#387=IFCPLANE(#386);
#388=IFCCARTESIANPOINT((0.,-100.,2695.2));
#389=IFCAXIS2PLACEMENT3D(#388,$,$);
#390=IFCPOLYGONALBOUNDEDHALFSPACE(#387,.T.,#389,#384);
#391=IFCBOOLEANCLIPPINGRESULT(.DIFFERENCE.,#380,#390);
#392=IFCSTYLEDITEM(#368,(#171),$);
#393=IFCSHAPEREPRESENTATION(#24,'Body','Clipping',(#391));
#394=IFCPRODUCTDEFINITIONSHAPE($,$,(#363,#393));
#395=IFCWALL('3Vyqk8cSj8TOuAk6zHUwNQ',#18,'Basic Wall:Generic - 200mm:1602627',$,'Basic Wall:Generic - 200mm',#360,#394,'1602627',.NOTDEFINED.);
#396=IFCPROPERTYSET('33VNddCdyWuRINW3IN$6wR',#18,'Pset_EnvironmentalImpactIndicators',$,(#183));
#397=IFCPROPERTYSINGLEVALUE('Reference',$,IFCLABEL('Generic - 200mm'),$);
#398=IFCPROPERTYSET('3fo6gcdchLdhUs9OMMjJcK',#18,'Pset_ReinforcementBarPitchOfWall',$,(#397));
#399=IFCPROPERTYSET('365dpoAGwqqh9R$iloiJ6Y',#18,'Pset_WallCommon',$,(#183,#187,#188,#189));
#400=IFCRELDEFINESBYPROPERTIES('2BzMAyBcbgIMAClUNVhX7C',#18,$,$,(#395),#396);
#401=IFCRELDEFINESBYPROPERTIES('2jcjj16uqcySZoq7QPRlFE',#18,$,$,(#395),#398);
#402=IFCRELDEFINESBYPROPERTIES('3JFaQDGEcQuJc$tDFSxPEn',#18,$,$,(#395),#399);
#403=IFCCARTESIANPOINT((2900.,4700.,0.));
#404=IFCAXIS2PLACEMENT3D(#403,#9,#7);
#405=IFCLOCALPLACEMENT(#34,#404);
#406=IFCCARTESIANPOINT((3200.,0.));
#407=IFCPOLYLINE((#4,#406));
#408=IFCSHAPEREPRESENTATION(#23,'Axis','Curve2D',(#407));
#409=IFCCARTESIANPOINT((1600.00000000001,9.9475983006414E-14));
#410=IFCAXIS2PLACEMENT2D(#409,#12);
#411=IFCRECTANGLEPROFILEDEF(.AREA.,$,#410,3200.00000000003,200.);
#412=IFCAXIS2PLACEMENT3D(#3,$,$);
#413=IFCEXTRUDEDAREASOLID(#411,#412,#9,2695.2);
#414=IFCCARTESIANPOINT((3200.,0.));
#415=IFCCARTESIANPOINT((3200.,200.));
#416=IFCCARTESIANPOINT((0.,200.));
#417=IFCPOLYLINE((#4,#414,#415,#416,#4));
#418=IFCCARTESIANPOINT((0.,-100.,2695.2));
#419=IFCAXIS2PLACEMENT3D(#418,#10,#8);
#420=IFCPLANE(#419);
#421=IFCCARTESIANPOINT((0.,-100.,2695.2));
#422=IFCAXIS2PLACEMENT3D(#421,$,$);
#423=IFCPOLYGONALBOUNDEDHALFSPACE(#420,.T.,#422,#417);
#424=IFCBOOLEANCLIPPINGRESULT(.DIFFERENCE.,#413,#423);
#425=IFCSTYLEDITEM(#413,(#171),$);
#426=IFCSHAPEREPRESENTATION(#24,'Body','Clipping',(#424));
#427=IFCPRODUCTDEFINITIONSHAPE($,$,(#408,#426));
#428=IFCWALL('3Vyqk8cSj8TOuAk6zHUwIV',#18,'Basic Wall:Generic - 200mm:1602822',$,'Basic Wall:Generic - 200mm',#405,#427,'1602822',.NOTDEFINED.);
#429=IFCPROPERTYSET('3jiZGkAKUu2Am_YLPx8Ihp',#18,'Pset_EnvironmentalImpactIndicators',$,(#183));
#430=IFCPROPERTYSINGLEVALUE('Reference',$,IFCLABEL('Generic - 200mm'),$);
#431=IFCPROPERTYSET('0I2vFcCwzFIqXYuiAJMRoI',#18,'Pset_ReinforcementBarPitchOfWall',$,(#430));
#432=IFCPROPERTYSET('3oaDZ6ll2ApuPGw0$rKaRm',#18,'Pset_WallCommon',$,(#183,#187,#188,#189));
#433=IFCRELDEFINESBYPROPERTIES('3sUTm1e5PvbSM1LkCWEcnc',#18,$,$,(#428),#429);
#434=IFCRELDEFINESBYPROPERTIES('2PBm19nyIDk_wgMh7oZ7kn',#18,$,$,(#428),#431);
#435=IFCRELDEFINESBYPROPERTIES('1puf9ZxLtpuD$z2essXrIy',#18,$,$,(#428),#432);
#436=IFCAXIS2PLACEMENT3D(#3,$,$);
#437=IFCLOCALPLACEMENT(#34,#436);
#438=IFCCARTESIANPOINT((0.,0.));
#439=IFCAXIS2PLACEMENT2D(#438,#11);
#440=IFCRECTANGLEPROFILEDEF(.AREA.,$,#439,8100.,7700.00000000001);
#441=IFCCARTESIANPOINT((3850.,4050.,0.));
#442=IFCAXIS2PLACEMENT3D(#441,#10,#7);
#443=IFCEXTRUDEDAREASOLID(#440,#442,#9,304.8);
#444=IFCCOLOURRGB($,0.501960784313725,0.501960784313725,0.501960784313725);
#445=IFCSURFACESTYLERENDERING(#444,0.,$,$,$,$,IFCNORMALISEDRATIOMEASURE(0.5),IFCSPECULAREXPONENT(10.),.NOTDEFINED.);
#446=IFCSURFACESTYLE('Default Floor',.BOTH.,(#445));
#447=IFCSTYLEDITEM(#443,(#446),$);
#448=IFCSHAPEREPRESENTATION(#24,'Body','SweptSolid',(#443));
#449=IFCPRODUCTDEFINITIONSHAPE($,$,(#448));
#450=IFCSLAB('1NO2FmQyX8Dx48Vy4bqK11',#18,'Floor:Generic - 12":1602941',$,'Floor:Generic - 12"',#437,#449,'1602941',.FLOOR.);
#451=IFCSLABTYPE('1xZrMVYp52mhf4uMzw11Hi',#18,'Floor:Generic - 12"',$,$,(#470),$,'441449',$,.FLOOR.);
#452=IFCMATERIAL('Default Floor',$,'Miscellaneous');
#453=IFCSTYLEDITEM($,(#446),$);
#454=IFCSTYLEDREPRESENTATION(#22,'Style','Material',(#453));
#455=IFCMATERIALDEFINITIONREPRESENTATION($,$,(#454),#452);
#456=IFCMATERIALLAYER(#452,304.8,$,'Layer',$,'Miscellaneous',$);
#457=IFCMATERIALLAYERSET((#456),'Floor:Generic - 12"',$);
#458=IFCMATERIALLAYERSETUSAGE(#457,.AXIS3.,.POSITIVE.,0.,$);
#459=IFCPROPERTYSINGLEVALUE('Reference',$,IFCIDENTIFIER('Generic - 12"'),$);
#460=IFCPROPERTYSET('3mrwFTtEdKsSiY3IGk3gpY',#18,'Pset_EnvironmentalImpactIndicators',$,(#459));
#461=IFCPROPERTYSINGLEVALUE('Reference',$,IFCLABEL('Generic - 12"'),$);
#462=IFCPROPERTYSET('0xTPq3rs32SvMmqChXGjxL',#18,'Pset_ReinforcementBarPitchOfSlab',$,(#461));
#463=IFCPROPERTYSINGLEVALUE('PitchAngle',$,IFCPLANEANGLEMEASURE(0.),$);
#464=IFCPROPERTYSET('3wko0GQwYGt3yBQWr2qHwd',#18,'Pset_SlabCommon',$,(#45,#188,#459,#463));
#465=IFCRELDEFINESBYPROPERTIES('0z9CfEoLTDAAj2hDzWAD74',#18,$,$,(#450),#460);
#466=IFCRELDEFINESBYPROPERTIES('0g4TnIVCHLqD0ZwgkXVq1d',#18,$,$,(#450),#462);
#467=IFCRELDEFINESBYPROPERTIES('3BHrDQGmWHtgR$Bb2joYpq',#18,$,$,(#450),#464);
#468=IFCCLASSIFICATIONREFERENCE('https://www.csiresources.org/standards/uniformat','B1010','Floor Construction',#28,'',$);
#469=IFCPROPERTYSINGLEVALUE('Description',$,IFCTEXT('Generic Floor (Material By Category), 12" thick'),$);
#470=IFCPROPERTYSET('08jeqqdMvr9oQ2sJw84keo',#18,'Pset_ReinforcementBarPitchOfSlab',$,(#469));
#471=IFCAXIS2PLACEMENT3D(#3,$,$);
#472=IFCLOCALPLACEMENT(#38,#471);
#473=IFCCARTESIANPOINT((-4266.66666666667,-2700.));
#474=IFCCARTESIANPOINT((3833.33333333335,-2700.));
#475=IFCCARTESIANPOINT((3833.33333333335,300.));
#476=IFCCARTESIANPOINT((433.333333333325,300.));
#477=IFCCARTESIANPOINT((433.333333333322,2400.));
#478=IFCCARTESIANPOINT((-4266.66666666668,2400.));
#479=IFCPOLYLINE((#473,#474,#475,#476,#477,#478,#473));
#480=IFCARBITRARYCLOSEDPROFILEDEF(.AREA.,$,#479);
#481=IFCCARTESIANPOINT((2700.,4266.66666666667,0.));
#482=IFCAXIS2PLACEMENT3D(#481,#10,#7);
#483=IFCEXTRUDEDAREASOLID(#480,#482,#9,304.8);
#484=IFCSTYLEDITEM(#483,(#446),$);
#485=IFCSHAPEREPRESENTATION(#24,'Body','SweptSolid',(#483));
#486=IFCPRODUCTDEFINITIONSHAPE($,$,(#485));
#487=IFCSLAB('1NO2FmQyX8Dx48Vy4bqK2W',#18,'Floor:Generic - 12":1602972',$,'Floor:Generic - 12"',#472,#486,'1602972',.FLOOR.);
#488=IFCMATERIALLAYERSETUSAGE(#457,.AXIS3.,.POSITIVE.,0.,$);
#489=IFCPROPERTYSET('21pRGiEA9M0CSal06ch$K$',#18,'Pset_EnvironmentalImpactIndicators',$,(#459));
#490=IFCPROPERTYSINGLEVALUE('Reference',$,IFCLABEL('Generic - 12"'),$);
#491=IFCPROPERTYSET('3h9BQoYZm27dJ98NzHxaU_',#18,'Pset_ReinforcementBarPitchOfSlab',$,(#490));
#492=IFCPROPERTYSET('3$NEWDWFNAGrJ$SpYuOp4H',#18,'Pset_SlabCommon',$,(#45,#188,#459,#463));
#493=IFCRELDEFINESBYPROPERTIES('3pnO$8EXeCrI95aOksOV3L',#18,$,$,(#487),#489);
#494=IFCRELDEFINESBYPROPERTIES('1bdl8XCqmDJRPPdnhK8HLY',#18,$,$,(#487),#491);
#495=IFCRELDEFINESBYPROPERTIES('0BByF0gG_u8A1pIzno$Can',#18,$,$,(#487),#492);
#496=IFCAXIS2PLACEMENT3D(#3,$,$);
#497=IFCLOCALPLACEMENT(#38,#496);
#498=IFCCARTESIANPOINT((433.333333333329,-2266.66666666667));
#499=IFCCARTESIANPOINT((3833.33333333335,-2266.66666666667));
#500=IFCCARTESIANPOINT((3833.33333333335,2433.33333333333));
#501=IFCCARTESIANPOINT((-4266.66666666668,2433.33333333333));
#502=IFCCARTESIANPOINT((-4266.66666666667,-166.666666666666));
#503=IFCCARTESIANPOINT((433.333333333326,-166.666666666666));
#504=IFCPOLYLINE((#498,#499,#500,#501,#502,#503,#498));
#505=IFCARBITRARYCLOSEDPROFILEDEF(.AREA.,$,#504);
#506=IFCCARTESIANPOINT((5266.66666666667,4266.66666666666,0.));
#507=IFCAXIS2PLACEMENT3D(#506,#10,#7);
#508=IFCEXTRUDEDAREASOLID(#505,#507,#9,304.8);
#509=IFCSTYLEDITEM(#508,(#446),$);
#510=IFCSHAPEREPRESENTATION(#24,'Body','SweptSolid',(#508));
#511=IFCPRODUCTDEFINITIONSHAPE($,$,(#510));
#512=IFCSLAB('1NO2FmQyX8Dx48Vy4bqK9m',#18,'Floor:Generic - 12":1603404',$,'Floor:Generic - 12"',#497,#511,'1603404',.FLOOR.);
#513=IFCMATERIALLAYERSETUSAGE(#457,.AXIS3.,.POSITIVE.,0.,$);
#514=IFCPROPERTYSET('1i46h7s3SPwtVmzcYeb3wq',#18,'Pset_EnvironmentalImpactIndicators',$,(#459));
#515=IFCPROPERTYSINGLEVALUE('Reference',$,IFCLABEL('Generic - 12"'),$);
#516=IFCPROPERTYSET('0KDA$Bp9htln5wQq_smXUh',#18,'Pset_ReinforcementBarPitchOfSlab',$,(#515));
#517=IFCPROPERTYSET('0HslAr$_pu6a48xZH8dUOO',#18,'Pset_SlabCommon',$,(#45,#188,#459,#463));
#518=IFCRELDEFINESBYPROPERTIES('0MvDbHtfJfZcGmCbYhq3Yw',#18,$,$,(#512),#514);
#519=IFCRELDEFINESBYPROPERTIES('021s4EtJ4TXgaFGjsY2cj4',#18,$,$,(#512),#516);
#520=IFCRELDEFINESBYPROPERTIES('1QSVuOYnwSr5AB23mOiXly',#18,$,$,(#512),#517);
#521=IFCPROPERTYSINGLEVALUE('Reference',$,IFCIDENTIFIER('8mm Head'),$);
#522=IFCPROPERTYSINGLEVALUE('AboveGround',$,IFCLOGICAL(.U.),$);
#523=IFCPROPERTYSET('16L50AfyZF4hYq5TGET4H4',#18,'Pset_BuildingStoreyCommon',$,(#521,#522));
#524=IFCPROPERTYSET('2J7ac_h5ujdwWuzVwBIIta',#18,'Pset_SpaceCommon',$,(#45,#521));
#525=IFCRELDEFINESBYPROPERTIES('2VdfSfkgzGoZi_3SgzE8$0',#18,$,$,(#35),#523);
#526=IFCRELDEFINESBYPROPERTIES('3$YdOpA8iaPobC8MDiWxoI',#18,$,$,(#35),#524);
#527=IFCRELCONTAINEDINSPATIALSTRUCTURE('2JF4e6axWHqu3u0C5FZlmi',#18,$,$,(#175,#235,#268,#314,#350,#395,#428,#450),#35);
#528=IFCPROPERTYSET('1n34enW33Z_3Qq2Pm1kjQZ',#18,'Pset_BuildingStoreyCommon',$,(#521,#522));
#529=IFCPROPERTYSET('0qNc4$IaPwTvoqOd7IlIE4',#18,'Pset_SpaceCommon',$,(#45,#521));
#530=IFCRELDEFINESBYPROPERTIES('36oM8gyLQ5_Z6XoGK5uP1E',#18,$,$,(#39),#528);
#531=IFCRELDEFINESBYPROPERTIES('0jA6Vdz$3CfPvu_I1iTL6J',#18,$,$,(#39),#529);
#532=IFCRELCONTAINEDINSPATIALSTRUCTURE('1ZGO8hrFCHqw0v0066FpFv',#18,$,$,(#487,#512),#39);
#533=IFCRELAGGREGATES('2KFB6YYWgXBmucZ8cm7uCP',#18,$,$,#27,(#42));
#534=IFCRELAGGREGATES('16_hfJTeCqU7LcG8m10BTS',#18,$,$,#42,(#32));
#535=IFCRELAGGREGATES('2JF4e6axWHqu3u0C9FZlmi',#18,$,$,#35,(#98,#121,#138));
#536=IFCRELAGGREGATES('1yhDISh1T5aQqAoygxGIhP',#18,$,$,#32,(#35,#39));
#537=IFCPROPERTYSINGLEVALUE('NumberOfStoreys',$,IFCCOUNTMEASURE(2),$);
#538=IFCPROPERTYSINGLEVALUE('IsLandmarked',$,IFCLOGICAL(.U.),$);
#539=IFCPROPERTYSET('01y_GmllCupEYuBgfGbhkd',#18,'Pset_BuildingCommon',$,(#43,#537,#538));
#540=IFCPROPERTYSET('1rUR7OGyIAkZT62xvibLnd',#18,'Pset_BuildingElementProxyCommon',$,(#43,#45));
#541=IFCPROPERTYSET('2kFDjjfIaTsBi7MLK$i$Me',#18,'Pset_BuildingStoreyCommon',$,(#43,#522));
#542=IFCPROPERTYSET('1TYvb3FgH88mtl04iE5P1T',#18,'Pset_BuildingSystemCommon',$,(#43));
#543=IFCPROPERTYSET('2W94HCj5xfigmNGtkBMklk',#18,'Pset_SpaceCommon',$,(#43,#45));
#544=IFCRELDEFINESBYPROPERTIES('0vDjba2fshDEh0_KufwWht',#18,$,$,(#32),#539);
#545=IFCRELDEFINESBYPROPERTIES('1V6UQfELB4oPy3GPEaJMPw',#18,$,$,(#32),#540);
#546=IFCRELDEFINESBYPROPERTIES('0Vpd75HttOMIhzXutBGgCt',#18,$,$,(#32),#541);
#547=IFCRELDEFINESBYPROPERTIES('22VMRBFW9n6_S81yWIP225',#18,$,$,(#32),#542);
#548=IFCRELDEFINESBYPROPERTIES('2w3bzVlKnfBVjA3_BjG2II',#18,$,$,(#32),#543);
#549=IFCRELASSOCIATESMATERIAL('3MxUj7x09Qi02RHG49Ykix',#18,$,$,(#450),#458);
#550=IFCRELASSOCIATESMATERIAL('1MhwS9m0zQxA7CvRV2R6XQ',#18,$,$,(#487),#488);
#551=IFCRELASSOCIATESMATERIAL('3ALSy3KLl60GFBLDjHBZZD',#18,$,$,(#512),#513);
#552=IFCRELASSOCIATESMATERIAL('22T9r9KB1F3JFgePfxkUGp',#18,$,$,(#175,#182,#235,#268,#314,#350,#395,#428),#181);
#553=IFCRELASSOCIATESMATERIAL('0RkFpO4y91A56i7kETvvWZ',#18,$,$,(#451),#457);
#554=IFCRELDEFINESBYTYPE('0JdjezzMIlIvixrtf6pHxY',#18,$,$,(#98),#99);
#555=IFCRELDEFINESBYTYPE('3G1mVd269BjTZDPBR_Hu$r',#18,$,$,(#121),#122);
#556=IFCRELDEFINESBYTYPE('2v$fNUorBqpRD0e3xhQU6W',#18,$,$,(#138),#139);
#557=IFCRELDEFINESBYTYPE('0MSq_ijuC5q4PUKv4QkOsA',#18,$,$,(#175,#235,#268,#314,#350,#395,#428),#182);
#558=IFCRELDEFINESBYTYPE('3AVJtbOHyTnujdziMMd$qq',#18,$,$,(#450,#487,#512),#451);
#559=IFCRELCONNECTSPATHELEMENTS('3ugK07sTRHPQgCANXzjPel',#18,'3Vyqk8cSj8TOuAk6zHUwAt|3Vyqk8cSj8TOuAk6zHUwNQ','Structural',$,#175,#395,(),(),.ATEND.,.ATSTART.);
#560=IFCRELCONNECTSPATHELEMENTS('23XeiboBqsTJYQlvX$RKBJ',#18,'3Vyqk8cSj8TOuAk6zHUwAt|3Vyqk8cSj8TOuAk6zHUwAc','Structural',$,#175,#235,(),(),.ATSTART.,.ATEND.);
#561=IFCRELCONNECTSPATHELEMENTS('3w3LufOHNrl72DM5FS5dUv',#18,'3Vyqk8cSj8TOuAk6zHUwAc|3Vyqk8cSj8TOuAk6zHUwMJ','Structural',$,#235,#350,(),(),.ATSTART.,.ATEND.);
#562=IFCRELCONNECTSPATHELEMENTS('3w2mhh8$Qd3TKIO$dCpCi4',#18,'3Vyqk8cSj8TOuAk6zHUwAc|3Vyqk8cSj8TOuAk6zHUwBs','Structural',$,#235,#268,(),(),.ATSTART.,.ATPATH.);
#563=IFCRELCONNECTSPATHELEMENTS('0_q_49R4Mso9ITEEZ476Ni',#18,'3Vyqk8cSj8TOuAk6zHUwBs|3Vyqk8cSj8TOuAk6zHUw89','Structural',$,#268,#314,(),(),.ATPATH.,.ATEND.);
#564=IFCRELCONNECTSPATHELEMENTS('2KmZM0_8Zn2586TzeqsUBp',#18,'3Vyqk8cSj8TOuAk6zHUw89|3Vyqk8cSj8TOuAk6zHUwMJ','Structural',$,#314,#350,(),(),.ATPATH.,.ATSTART.);
#565=IFCRELCONNECTSPATHELEMENTS('3A1VXDddu2dMWLGDKRGLxr',#18,'3Vyqk8cSj8TOuAk6zHUw89|3Vyqk8cSj8TOuAk6zHUwIV','Structural',$,#314,#428,(),(),.ATSTART.,.ATEND.);
#566=IFCRELCONNECTSPATHELEMENTS('0LaT41zAAAo8nacED5QZkK',#18,'3Vyqk8cSj8TOuAk6zHUwMJ|3Vyqk8cSj8TOuAk6zHUwNQ','Structural',$,#350,#395,(),(),.ATSTART.,.ATEND.);
#567=IFCRELCONNECTSPATHELEMENTS('3QFR4dIqUEv2wepHC$0Iqu',#18,'3Vyqk8cSj8TOuAk6zHUwNQ|3Vyqk8cSj8TOuAk6zHUwIV','Structural',$,#395,#428,(),(),.ATEND.,.ATPATH.);
#568=IFCPRESENTATIONLAYERASSIGNMENT('A-AREA-____-OTLN',$,(#95,#119,#136),$);
#569=IFCPRESENTATIONLAYERASSIGNMENT('A-WALL-____-OTLN',$,(#150,#173,#202,#233,#248,#266,#281,#312,#327,#348,#363,#393,#408,#426),$);
#570=IFCPRESENTATIONLAYERASSIGNMENT('A-FLOR-____-OTLN',$,(#448,#485,#510),$);
#571=IFCRELASSOCIATESCLASSIFICATION('2mNchzfGWDr_AK3qpy_v$I',#18,'Exterior Walls','Exterior Walls:B2010',(#175,#235,#268,#314,#350,#395,#428),#194);
#572=IFCRELASSOCIATESCLASSIFICATION('1YpTxej1pxaV15vA5h7rUf',#18,'Floor Construction','Floor Construction:B1010',(#450,#487,#512),#468);
#573=IFCUNITASSIGNMENT((#19,#97,#118));
ENDSEC;
END-ISO-10303-21;
