ISO-10303-21;
HEADER;
FILE_DESCRIPTION(('ViewDefinition [CoordinationView_V2.0]','RevitIdentifiers [ContentGUID: cbb0ae2e-6350-4225-8ca4-af668662c38d, VersionGUID: 8b7f6b1a-2a57-4db1-9211-082067567633, NumberOfSaves: 24]','CoordinateReference [CoordinateBase: Shared Coordinates]'),'2;1');
FILE_NAME('01_009.ifc','2026-01-06T12:03:11+01:00',(''),(''),'ODA SDAI 24.6','Autodesk Revit 24.3.30.11 (ENU) - IFC 24.3.30.11','');
FILE_SCHEMA(('IFC2X3'));
ENDSEC;

DATA;
#1=IFCORGANIZATION($,'Autodesk Revit 2024 (ENU)',$,$,$);
#2=IFCAPPLICATION(#1,'2024','Autodesk Revit 2024 (ENU)','Revit');
#3=IFCCARTESIANPOINT((0.,0.,0.));
#4=IFCCARTESIANPOINT((0.,0.));
#5=IFCDIRECTION((1.,0.,0.));
#6=IFCDIRECTION((-1.,0.,0.));
#7=IFCDIRECTION((0.,1.,0.));
#8=IFCDIRECTION((0.,-1.,0.));
#9=IFCDIRECTION((0.,0.,1.));
#10=IFCDIRECTION((0.,0.,-1.));
#11=IFCDIRECTION((1.,0.));
#12=IFCDIRECTION((-1.,0.));
#13=IFCDIRECTION((0.,1.));
#14=IFCDIRECTION((0.,-1.));
#15=IFCPERSON($,'','h.helming',$,$,$,$,$);
#16=IFCORGANIZATION($,'Organization Name','Organization Description',$,$);
#17=IFCPERSONANDORGANIZATION(#15,#16,$);
#18=IFCOWNERHISTORY(#17,#2,$,.NOCHANGE.,$,$,$,1767617581);
#19=IFCSIUNIT(*,.LENGTHUNIT.,.MILLI.,.METRE.);
#20=IFCAXIS2PLACEMENT3D(#3,$,$);
#21=IFCDIRECTION((6.1230317691118863E-17,1.));
#22=IFCGEOMETRICREPRESENTATIONCONTEXT($,'Model',3,0.01,#20,#21);
#23=IFCGEOMETRICREPRESENTATIONSUBCONTEXT('Axis','Model',*,*,*,*,#22,$,.GRAPH_VIEW.,$);
#24=IFCGEOMETRICREPRESENTATIONSUBCONTEXT('Body','Model',*,*,*,*,#22,$,.MODEL_VIEW.,$);
#25=IFCGEOMETRICREPRESENTATIONSUBCONTEXT('Box','Model',*,*,*,*,#22,$,.MODEL_VIEW.,$);
#26=IFCGEOMETRICREPRESENTATIONSUBCONTEXT('FootPrint','Model',*,*,*,*,#22,$,.MODEL_VIEW.,$);
#27=IFCPROJECT('3BiAukOr129OoahsPvdJnz',#18,'Project Number',$,$,'Project Name','Project Status',(#22),#287);
#28=IFCCLASSIFICATION('CSI (Construction Specifications Institute)','1998',$,'Uniformat');
#29=IFCAXIS2PLACEMENT3D(#3,$,$);
#30=IFCLOCALPLACEMENT(#41,#29);
#31=IFCPOSTALADDRESS($,$,$,$,('Enter address hereAddress Line 2'),$,'','Boston','','MA');
#32=IFCBUILDING('3BiAukOr129OoahsPvdJny',#18,'Building Name',$,$,#30,$,'Building Name',.ELEMENT.,$,$,#31);
#33=IFCAXIS2PLACEMENT3D(#3,$,$);
#34=IFCLOCALPLACEMENT(#30,#33);
#35=IFCBUILDINGSTOREY('2JF4e6axWHqu3u0C1FZlmi',#18,'L1',$,'Level:8mm Head',#34,$,'L1',.ELEMENT.,0.);
#36=IFCCARTESIANPOINT((0.,0.,3000.));
#37=IFCAXIS2PLACEMENT3D(#36,$,$);
#38=IFCLOCALPLACEMENT(#30,#37);
#39=IFCBUILDINGSTOREY('1ZGO8hrFCHqw0v0026FpFv',#18,'L2',$,'Level:8mm Head',#38,$,'L2',.ELEMENT.,3000.);
#40=IFCAXIS2PLACEMENT3D(#3,$,$);
#41=IFCLOCALPLACEMENT($,#40);
#42=IFCSITE('3BiAukOr129OoahsPvdJn$',#18,'Default',$,$,#41,$,$,.ELEMENT.,(42,21,31,401672),(-71,-3,-24,-345703),0.,$,$);
#49=IFCCARTESIANPOINT((-4654.7727214752331,-5796.1940777125346,0.));
#50=IFCDIRECTION((0.70710678118654813,0.70710678118654702,0.));
#51=IFCAXIS2PLACEMENT3D(#49,#9,#50);
#52=IFCLOCALPLACEMENT(#34,#51);
#53=IFCCARTESIANPOINT((6682.8427124746067,0.));
#54=IFCPOLYLINE((#4,#53));
#55=IFCSHAPEREPRESENTATION(#23,'Axis','Curve2D',(#54));
#56=IFCSIUNIT(*,.AREAUNIT.,$,.SQUARE_METRE.);
#57=IFCCARTESIANPOINT((6682.8427124746058,-100.));
#58=IFCCARTESIANPOINT((6682.8427124746058,100.));
#59=IFCCARTESIANPOINT((0.,100.));
#60=IFCCARTESIANPOINT((200.,-100.));
#61=IFCCARTESIANPOINT((482.84271247461635,-100.));
#62=IFCCARTESIANPOINT((6482.8427124746031,-100.));
#63=IFCPOLYLINE((#57,#58,#59,#60,#61,#62,#57));
#64=IFCARBITRARYCLOSEDPROFILEDEF(.AREA.,$,#63);
#65=IFCAXIS2PLACEMENT3D(#3,$,$);
#66=IFCEXTRUDEDAREASOLID(#64,#65,#9,3000.);
#67=IFCCOLOURRGB($,0.75294117647058822,0.75294117647058822,0.75294117647058822);
#68=IFCSURFACESTYLERENDERING(#67,0.,$,$,$,$,IFCNORMALISEDRATIOMEASURE(0.5),IFCSPECULAREXPONENT(10.),.NOTDEFINED.);
#69=IFCSURFACESTYLE('Default Wall',.BOTH.,(#68));
#70=IFCPRESENTATIONSTYLEASSIGNMENT((#69));
#71=IFCSTYLEDITEM(#66,(#70),$);
#72=IFCSHAPEREPRESENTATION(#24,'Body','SweptSolid',(#66));
#73=IFCPRODUCTDEFINITIONSHAPE($,$,(#55,#72));
#74=IFCWALLSTANDARDCASE('2I2XyofMDDYhKncvMedHww',#18,'Basic Wall:Generic - 200mm:1602288',$,'Basic Wall:Generic - 200mm',#52,#73,'1602288');
#75=IFCMATERIAL('Default Wall');
#76=IFCPRESENTATIONSTYLEASSIGNMENT((#69));
#77=IFCSTYLEDITEM($,(#76),$);
#78=IFCSTYLEDREPRESENTATION(#22,'Style','Material',(#77));
#79=IFCMATERIALDEFINITIONREPRESENTATION($,$,(#78),#75);
#80=IFCMATERIALLAYER(#75,200.,$);
#81=IFCMATERIALLAYERSET((#80),'Basic Wall:Generic - 200mm');
#82=IFCMATERIALLAYERSETUSAGE(#81,.AXIS2.,.NEGATIVE.,100.);
#83=IFCWALLTYPE('1xZrMVYp52mhf4uMzw11Hk',#18,'Basic Wall:Generic - 200mm',$,$,(#97),$,'441451',$,.STANDARD.);
#84=IFCPROPERTYSINGLEVALUE('Reference',$,IFCIDENTIFIER('Generic - 200mm'),$);
#85=IFCPROPERTYSET('2LJOddz_CCE3CHVNBpWunw',#18,'Pset_QuantityTakeOff',$,(#84));
#86=IFCPROPERTYSINGLEVALUE('Reference',$,IFCLABEL('Generic - 200mm'),$);
#87=IFCPROPERTYSET('2aTUhvxcMqFTw8K6K33R9V',#18,'Pset_ReinforcementBarPitchOfWall',$,(#86));
#88=IFCPROPERTYSINGLEVALUE('IsExternal',$,IFCBOOLEAN(.T.),$);
#89=IFCPROPERTYSINGLEVALUE('ExtendToStructure',$,IFCBOOLEAN(.F.),$);
#90=IFCPROPERTYSINGLEVALUE('LoadBearing',$,IFCBOOLEAN(.F.),$);
#91=IFCPROPERTYSET('1kg1dR0YNdWsCr986Jrt5J',#18,'Pset_WallCommon',$,(#84,#88,#89,#90));
#92=IFCRELDEFINESBYPROPERTIES('3r8g1dP5RXXrfMU$OcbGS7',#18,$,$,(#74),#85);
#93=IFCRELDEFINESBYPROPERTIES('2rUTCY66e4sLmImzWKd7yT',#18,$,$,(#74),#87);
#94=IFCRELDEFINESBYPROPERTIES('191tFJAd2kuCBN$nGEGm6i',#18,$,$,(#74),#91);
#95=IFCCLASSIFICATIONREFERENCE('https://www.csiresources.org/standards/uniformat','B2010','Exterior Walls',#28);
#96=IFCPROPERTYSINGLEVALUE('Description',$,IFCTEXT('Generic Wall (Material By Category), 200mm thick'),$);
#97=IFCPROPERTYSET('2L7lvTstnIeeydfwzfZZLR',#18,'Pset_ReinforcementBarPitchOfWall',$,(#96));
#98=IFCCARTESIANPOINT((4654.7727214752485,-5796.1940777125656,0.));
#99=IFCDIRECTION((-0.70710678118654557,0.70710678118654957,0.));
#100=IFCAXIS2PLACEMENT3D(#98,#9,#99);
#101=IFCLOCALPLACEMENT(#34,#100);
#102=IFCCARTESIANPOINT((6482.8427124746258,0.));
#103=IFCPOLYLINE((#4,#102));
#104=IFCSHAPEREPRESENTATION(#23,'Axis','Curve2D',(#103));
#105=IFCCARTESIANPOINT((6482.842712474624,-100.));
#106=IFCCARTESIANPOINT((6482.842712474624,100.));
#107=IFCCARTESIANPOINT((482.84271247461942,100.));
#108=IFCCARTESIANPOINT((200.,100.));
#109=IFCCARTESIANPOINT((0.,-100.));
#110=IFCPOLYLINE((#105,#106,#107,#108,#109,#105));
#111=IFCARBITRARYCLOSEDPROFILEDEF(.AREA.,$,#110);
#112=IFCAXIS2PLACEMENT3D(#3,$,$);
#113=IFCEXTRUDEDAREASOLID(#111,#112,#9,3000.);
#114=IFCSTYLEDITEM(#113,(#70),$);
#115=IFCSHAPEREPRESENTATION(#24,'Body','SweptSolid',(#113));
#116=IFCPRODUCTDEFINITIONSHAPE($,$,(#104,#115));
#117=IFCWALLSTANDARDCASE('2I2XyofMDDYhKncvMedH$i',#18,'Basic Wall:Generic - 200mm:1602470',$,'Basic Wall:Generic - 200mm',#101,#116,'1602470');
#118=IFCMATERIALLAYERSETUSAGE(#81,.AXIS2.,.POSITIVE.,-100.);
#119=IFCPROPERTYSET('3FYzxVes78Fz27jOylNIxv',#18,'Pset_QuantityTakeOff',$,(#84));
#120=IFCPROPERTYSINGLEVALUE('Reference',$,IFCLABEL('Generic - 200mm'),$);
#121=IFCPROPERTYSET('0$MXHaL3ROHjCTD3VyXHav',#18,'Pset_ReinforcementBarPitchOfWall',$,(#120));
#122=IFCPROPERTYSET('1PLEpSCJZ3RHoH5FOvCOHG',#18,'Pset_WallCommon',$,(#84,#88,#89,#90));
#123=IFCRELDEFINESBYPROPERTIES('0SrFb3jdGMNEpamBT_MqFk',#18,$,$,(#117),#119);
#124=IFCRELDEFINESBYPROPERTIES('3MhX76h2_o5TXhJ$CFwtya',#18,$,$,(#117),#121);
#125=IFCRELDEFINESBYPROPERTIES('1_YpgDvBQGjLWTN2nUJ7OT',#18,$,$,(#117),#122);
#126=IFCCARTESIANPOINT((4442.6406871192858,-5625.4833995939098,0.));
#127=IFCAXIS2PLACEMENT3D(#126,#9,#6);
#128=IFCLOCALPLACEMENT(#34,#127);
#129=IFCCARTESIANPOINT((8885.2813742385551,-0.));
#130=IFCPOLYLINE((#4,#129));
#131=IFCSHAPEREPRESENTATION(#23,'Axis','Curve2D',(#130));
#132=IFCCARTESIANPOINT((8685.281374238557,-100.));
#133=IFCCARTESIANPOINT((8885.2813742385551,100.));
#134=IFCCARTESIANPOINT((0.,100.));
#135=IFCCARTESIANPOINT((200.,-100.));
#136=IFCPOLYLINE((#132,#133,#134,#135,#132));
#137=IFCARBITRARYCLOSEDPROFILEDEF(.AREA.,$,#136);
#138=IFCAXIS2PLACEMENT3D(#3,$,$);
#139=IFCEXTRUDEDAREASOLID(#137,#138,#9,3000.);
#140=IFCSTYLEDITEM(#139,(#70),$);
#141=IFCSHAPEREPRESENTATION(#24,'Body','SweptSolid',(#139));
#142=IFCPRODUCTDEFINITIONSHAPE($,$,(#131,#141));
#143=IFCWALLSTANDARDCASE('2I2XyofMDDYhKncvMedHX0',#18,'Basic Wall:Generic - 200mm:1602570',$,'Basic Wall:Generic - 200mm',#128,#142,'1602570');
#144=IFCMATERIALLAYERSETUSAGE(#81,.AXIS2.,.NEGATIVE.,100.);
#145=IFCPROPERTYSET('1zw0eYQ1aJd9_4LCP1xtm4',#18,'Pset_QuantityTakeOff',$,(#84));
#146=IFCPROPERTYSINGLEVALUE('Reference',$,IFCLABEL('Generic - 200mm'),$);
#147=IFCPROPERTYSET('12rV_655x_7pskFx445iB7',#18,'Pset_ReinforcementBarPitchOfWall',$,(#146));
#148=IFCPROPERTYSET('2d7ObdqJuiFE5GkzzYYwl$',#18,'Pset_WallCommon',$,(#84,#88,#89,#90));
#149=IFCRELDEFINESBYPROPERTIES('2f66b5ZYuZqH3uQCwy79Mu',#18,$,$,(#143),#145);
#150=IFCRELDEFINESBYPROPERTIES('0vaJwjyrkUbpr6_WwfSNZx',#18,$,$,(#143),#147);
#151=IFCRELDEFINESBYPROPERTIES('2aJg0FV1D5BL5ZIcyjfa2V',#18,$,$,(#143),#148);
#152=IFCCARTESIANPOINT((-2400.,-200.,0.));
#153=IFCAXIS2PLACEMENT3D(#152,#9,#7);
#154=IFCLOCALPLACEMENT(#34,#153);
#155=IFCCARTESIANPOINT((4900.,0.));
#156=IFCPOLYLINE((#4,#155));
#157=IFCSHAPEREPRESENTATION(#23,'Axis','Curve2D',(#156));
#158=IFCCARTESIANPOINT((2450.0000000000009,1.9184653865522705E-13));
#159=IFCAXIS2PLACEMENT2D(#158,#12);
#160=IFCRECTANGLEPROFILEDEF(.AREA.,$,#159,4900.0000000000018,200.00000000000028);
#161=IFCAXIS2PLACEMENT3D(#3,$,$);
#162=IFCEXTRUDEDAREASOLID(#160,#161,#9,3000.);
#163=IFCSTYLEDITEM(#162,(#70),$);
#164=IFCSHAPEREPRESENTATION(#24,'Body','SweptSolid',(#162));
#165=IFCPRODUCTDEFINITIONSHAPE($,$,(#157,#164));
#166=IFCWALLSTANDARDCASE('2I2XyofMDDYhKncvMedHb7',#18,'Basic Wall:Generic - 200mm:1602829',$,'Basic Wall:Generic - 200mm',#154,#165,'1602829');
#167=IFCMATERIALLAYERSETUSAGE(#81,.AXIS2.,.NEGATIVE.,100.);
#168=IFCPROPERTYSET('3Pw4Yr5QBPc7mN46HkO9Jk',#18,'Pset_QuantityTakeOff',$,(#84));
#169=IFCPROPERTYSINGLEVALUE('Reference',$,IFCLABEL('Generic - 200mm'),$);
#170=IFCPROPERTYSET('3zCcG6kyAjtWD55wLQc$jt',#18,'Pset_ReinforcementBarPitchOfWall',$,(#169));
#171=IFCPROPERTYSET('2LImVPV3PlA6MguyFH8hJj',#18,'Pset_WallCommon',$,(#84,#88,#89,#90));
#172=IFCRELDEFINESBYPROPERTIES('1DCZTH69vpGD8yyZBidDe9',#18,$,$,(#166),#168);
#173=IFCRELDEFINESBYPROPERTIES('1ZlL8OiJwjaKAt$q2$UWz5',#18,$,$,(#166),#170);
#174=IFCRELDEFINESBYPROPERTIES('1css8WNfZEiF$tD667s$vE',#18,$,$,(#166),#171);
#175=IFCCARTESIANPOINT((-2300.,4600.,0.));
#176=IFCAXIS2PLACEMENT3D(#175,$,$);
#177=IFCLOCALPLACEMENT(#34,#176);
#178=IFCCARTESIANPOINT((4700.,0.));
#179=IFCPOLYLINE((#4,#178));
#180=IFCSHAPEREPRESENTATION(#23,'Axis','Curve2D',(#179));
#181=IFCCARTESIANPOINT((2350.0000000000005,2.1316282072803006E-14));
#182=IFCAXIS2PLACEMENT2D(#181,#12);
#183=IFCRECTANGLEPROFILEDEF(.AREA.,$,#182,4700.0000000000009,200.);
#184=IFCAXIS2PLACEMENT3D(#3,$,$);
#185=IFCEXTRUDEDAREASOLID(#183,#184,#9,3000.);
#186=IFCSTYLEDITEM(#185,(#70),$);
#187=IFCSHAPEREPRESENTATION(#24,'Body','SweptSolid',(#185));
#188=IFCPRODUCTDEFINITIONSHAPE($,$,(#180,#187));
#189=IFCWALLSTANDARDCASE('2I2XyofMDDYhKncvMedHa2',#18,'Basic Wall:Generic - 200mm:1602888',$,'Basic Wall:Generic - 200mm',#177,#188,'1602888');
#190=IFCMATERIALLAYERSETUSAGE(#81,.AXIS2.,.NEGATIVE.,100.);
#191=IFCPROPERTYSET('1MXiGPGbpHIr$xJDFDGVFf',#18,'Pset_QuantityTakeOff',$,(#84));
#192=IFCPROPERTYSINGLEVALUE('Reference',$,IFCLABEL('Generic - 200mm'),$);
#193=IFCPROPERTYSET('1xz2rpEFfNj$omj$mPgOpl',#18,'Pset_ReinforcementBarPitchOfWall',$,(#192));
#194=IFCPROPERTYSET('36spkrn_34_Yrko_oB9YeG',#18,'Pset_WallCommon',$,(#84,#88,#89,#90));
#195=IFCRELDEFINESBYPROPERTIES('0NKdY3m9hrpOCOzlgMgrV6',#18,$,$,(#189),#191);
#196=IFCRELDEFINESBYPROPERTIES('0Uln3Rn0Vz0zJWeVGMCPKN',#18,$,$,(#189),#193);
#197=IFCRELDEFINESBYPROPERTIES('3pYn1MeYrU2pXspIhDXZ7j',#18,$,$,(#189),#194);
#198=IFCCARTESIANPOINT((2300.,4500.,0.));
#199=IFCAXIS2PLACEMENT3D(#198,#9,#8);
#200=IFCLOCALPLACEMENT(#34,#199);
#201=IFCCARTESIANPOINT((4700.,0.));
#202=IFCPOLYLINE((#4,#201));
#203=IFCSHAPEREPRESENTATION(#23,'Axis','Curve2D',(#202));
#204=IFCCARTESIANPOINT((2350.0000000000014,2.8421709430404007E-14));
#205=IFCAXIS2PLACEMENT2D(#204,#12);
#206=IFCRECTANGLEPROFILEDEF(.AREA.,$,#205,4700.0000000000027,200.);
#207=IFCAXIS2PLACEMENT3D(#3,$,$);
#208=IFCEXTRUDEDAREASOLID(#206,#207,#9,3000.);
#209=IFCSTYLEDITEM(#208,(#70),$);
#210=IFCSHAPEREPRESENTATION(#24,'Body','SweptSolid',(#208));
#211=IFCPRODUCTDEFINITIONSHAPE($,$,(#203,#210));
#212=IFCWALLSTANDARDCASE('2I2XyofMDDYhKncvMedHdD',#18,'Basic Wall:Generic - 200mm:1602951',$,'Basic Wall:Generic - 200mm',#200,#211,'1602951');
#213=IFCMATERIALLAYERSETUSAGE(#81,.AXIS2.,.NEGATIVE.,100.);
#214=IFCPROPERTYSET('2YVUaxAxZKTWARPV6GG_2G',#18,'Pset_QuantityTakeOff',$,(#84));
#215=IFCPROPERTYSINGLEVALUE('Reference',$,IFCLABEL('Generic - 200mm'),$);
#216=IFCPROPERTYSET('1wYdYUYaUgPrEgFLc2yP1X',#18,'Pset_ReinforcementBarPitchOfWall',$,(#215));
#217=IFCPROPERTYSET('2M_45n_wy3cpLGlX14Hz7S',#18,'Pset_WallCommon',$,(#84,#88,#89,#90));
#218=IFCRELDEFINESBYPROPERTIES('2zOLEUAMaikT7GugWBZzgO',#18,$,$,(#212),#214);
#219=IFCRELDEFINESBYPROPERTIES('2QQcui0vGErtqWMS9fXQdA',#18,$,$,(#212),#216);
#220=IFCRELDEFINESBYPROPERTIES('1oEPFTnbHAtwLp8f3u5tyc',#18,$,$,(#212),#217);
#221=IFCCARTESIANPOINT((2200.,-100.,0.));
#222=IFCAXIS2PLACEMENT3D(#221,#9,#6);
#223=IFCLOCALPLACEMENT(#34,#222);
#224=IFCCARTESIANPOINT((4500.,0.));
#225=IFCPOLYLINE((#4,#224));
#226=IFCSHAPEREPRESENTATION(#23,'Axis','Curve2D',(#225));
#227=IFCCARTESIANPOINT((2250.0000000000009,1.4210854715202004E-14));
#228=IFCAXIS2PLACEMENT2D(#227,#12);
#229=IFCRECTANGLEPROFILEDEF(.AREA.,$,#228,4500.0000000000018,200.00000000000003);
#230=IFCAXIS2PLACEMENT3D(#3,$,$);
#231=IFCEXTRUDEDAREASOLID(#229,#230,#9,3000.);
#232=IFCSTYLEDITEM(#231,(#70),$);
#233=IFCSHAPEREPRESENTATION(#24,'Body','SweptSolid',(#231));
#234=IFCPRODUCTDEFINITIONSHAPE($,$,(#226,#233));
#235=IFCWALLSTANDARDCASE('2I2XyofMDDYhKncvMedHdd',#18,'Basic Wall:Generic - 200mm:1602989',$,'Basic Wall:Generic - 200mm',#223,#234,'1602989');
#236=IFCMATERIALLAYERSETUSAGE(#81,.AXIS2.,.NEGATIVE.,100.);
#237=IFCPROPERTYSET('0MrlXI71OKg2q0CYDUL2Eh',#18,'Pset_QuantityTakeOff',$,(#84));
#238=IFCPROPERTYSINGLEVALUE('Reference',$,IFCLABEL('Generic - 200mm'),$);
#239=IFCPROPERTYSET('21L7sqSBYFSxrC_hZ7ULE5',#18,'Pset_ReinforcementBarPitchOfWall',$,(#238));
#240=IFCPROPERTYSET('3JmC6DDnr3neF_Qr2NkTXw',#18,'Pset_WallCommon',$,(#84,#88,#89,#90));
#241=IFCRELDEFINESBYPROPERTIES('1ivN4aiZFkltzh7aoE0rZ0',#18,$,$,(#235),#237);
#242=IFCRELDEFINESBYPROPERTIES('054rblD1tzKWrsNneDtCkT',#18,$,$,(#235),#239);
#243=IFCRELDEFINESBYPROPERTIES('0L3wqb1MqXntjgz0oYL0XL',#18,$,$,(#235),#240);
#244=IFCPROPERTYSINGLEVALUE('Name',$,IFCLABEL('L1'),$);
#245=IFCPROPERTYSET('2l4vqu11LCaZAypUbzwyea',#18,'Pset_AirSideSystemInformation',$,(#244));
#246=IFCPROPERTYSINGLEVALUE('AboveGround',$,IFCLOGICAL(.U.),$);
#247=IFCPROPERTYSET('16L50AfyZF4hYq5TGET4H4',#18,'Pset_BuildingStoreyCommon',$,(#246));
#248=IFCPROPERTYSINGLEVALUE('Name',$,IFCLABEL('L1'),$);
#249=IFCPROPERTYSET('0Fxv$pCHYe$d1NPq668uup',#18,'Pset_ProductRequirements',$,(#248));
#250=IFCRELDEFINESBYPROPERTIES('3NFes7CBV81H0RHVpWu5ZF',#18,$,$,(#35),#245);
#251=IFCRELDEFINESBYPROPERTIES('2VdfSfkgzGoZi_3SgzE8$0',#18,$,$,(#35),#247);
#252=IFCRELDEFINESBYPROPERTIES('0Vxl9G1EBUZpUdM$cyum7J',#18,$,$,(#35),#249);
#253=IFCRELCONTAINEDINSPATIALSTRUCTURE('2JF4e6axWHqu3u0C5FZlmi',#18,$,$,(#74,#117,#143,#166,#189,#212,#235),#35);
#254=IFCPROPERTYSINGLEVALUE('Name',$,IFCLABEL('L2'),$);
#255=IFCPROPERTYSET('2rmMSkA7gc4STb1LnLF8UH',#18,'Pset_AirSideSystemInformation',$,(#254));
#256=IFCPROPERTYSET('1n34enW33Z_3Qq2Pm1kjQZ',#18,'Pset_BuildingStoreyCommon',$,(#246));
#257=IFCPROPERTYSINGLEVALUE('Name',$,IFCLABEL('L2'),$);
#258=IFCPROPERTYSET('3b2aIDv9vaOvbWU0hVWzaG',#18,'Pset_ProductRequirements',$,(#257));
#259=IFCRELDEFINESBYPROPERTIES('1kaSOYlg8iono8iflzrHRz',#18,$,$,(#39),#255);
#260=IFCRELDEFINESBYPROPERTIES('36oM8gyLQ5_Z6XoGK5uP1E',#18,$,$,(#39),#256);
#261=IFCRELDEFINESBYPROPERTIES('2r$5AllCk4VpjESRla$JzH',#18,$,$,(#39),#258);
#262=IFCRELAGGREGATES('2KFB6YYWgXBmucZ8cm7uCP',#18,$,$,#27,(#42));
#263=IFCRELAGGREGATES('16_hfJTeCqU7LcG8m10BTS',#18,$,$,#42,(#32));
#264=IFCRELAGGREGATES('1yhDISh1T5aQqAoygxGIhP',#18,$,$,#32,(#35,#39));
#265=IFCPROPERTYSINGLEVALUE('NumberOfStoreys',$,IFCINTEGER(1),$);
#266=IFCPROPERTYSINGLEVALUE('IsLandmarked',$,IFCLOGICAL(.U.),$);
#267=IFCPROPERTYSET('01y_GmllCupEYuBgfGbhkd',#18,'Pset_BuildingCommon',$,(#265,#266));
#268=IFCRELDEFINESBYPROPERTIES('0vDjba2fshDEh0_KufwWht',#18,$,$,(#32),#267);
#269=IFCRELASSOCIATESMATERIAL('0n4dF1tjqWDnzBor65N_tS',#18,$,$,(#74),#82);
#270=IFCRELASSOCIATESMATERIAL('3DQLokPdszThu$n0mf_DPZ',#18,$,$,(#117),#118);
#271=IFCRELASSOCIATESMATERIAL('3EigQwq74fg2Bw0Oo5qHlC',#18,$,$,(#143),#144);
#272=IFCRELASSOCIATESMATERIAL('2smxHC9sQYaVIzY4ykrNac',#18,$,$,(#166),#167);
#273=IFCRELASSOCIATESMATERIAL('2$VDvBlqIgKmu36VWoHzeV',#18,$,$,(#189),#190);
#274=IFCRELASSOCIATESMATERIAL('2FvSyNfvPD6nhJhkkC9ezM',#18,$,$,(#212),#213);
#275=IFCRELASSOCIATESMATERIAL('0aiLG92MW_exNvM$mpY2Z4',#18,$,$,(#235),#236);
#276=IFCRELASSOCIATESMATERIAL('22T9r9KB1F3JFgePfxkUGp',#18,$,$,(#83),#81);
#277=IFCRELDEFINESBYTYPE('0MSq_ijuC5q4PUKv4QkOsA',#18,$,$,(#74,#117,#143,#166,#189,#212,#235),#83);
#278=IFCRELCONNECTSPATHELEMENTS('29mjAgnBemj_3OPdAGz7kF',#18,'2I2XyofMDDYhKncvMedHww|2I2XyofMDDYhKncvMedHX0','Structural',$,#74,#143,(),(),.ATEND.,.ATSTART.);
#279=IFCRELCONNECTSPATHELEMENTS('22RbcADbHekznIRi7bGxaz',#18,'2I2XyofMDDYhKncvMedHww|2I2XyofMDDYhKncvMedH$i','Structural',$,#74,#117,(),(),.ATEND.,.ATEND.);
#280=IFCRELCONNECTSPATHELEMENTS('2Fs0VDt0gOQ_XxbD5CO5Dz',#18,'2I2XyofMDDYhKncvMedH$i|2I2XyofMDDYhKncvMedHX0','Structural',$,#117,#143,(),(),.ATSTART.,.ATSTART.);
#281=IFCRELCONNECTSPATHELEMENTS('2s6oVdrVTrFJcvhU10IUkP',#18,'2I2XyofMDDYhKncvMedHb7|2I2XyofMDDYhKncvMedHdd','Structural',$,#166,#235,(),(),.ATEND.,.ATSTART.);
#282=IFCRELCONNECTSPATHELEMENTS('3mKA3PwsHZVN3FV1AUU4EM',#18,'2I2XyofMDDYhKncvMedHb7|2I2XyofMDDYhKncvMedHa2','Structural',$,#166,#189,(),(),.ATSTART.,.ATEND.);
#283=IFCRELCONNECTSPATHELEMENTS('3gZM1pJd4zpFZy5OZDJ8HI',#18,'2I2XyofMDDYhKncvMedHa2|2I2XyofMDDYhKncvMedHdD','Structural',$,#189,#212,(),(),.ATSTART.,.ATEND.);
#284=IFCRELCONNECTSPATHELEMENTS('2FJjiML6aiR5_2fnwRGIhO',#18,'2I2XyofMDDYhKncvMedHdD|2I2XyofMDDYhKncvMedHdd','Structural',$,#212,#235,(),(),.ATSTART.,.ATEND.);
#285=IFCPRESENTATIONLAYERASSIGNMENT('A-WALL-____-OTLN',$,(#55,#72,#104,#115,#131,#141,#157,#164,#180,#187,#203,#210,#226,#233),$);
#286=IFCRELASSOCIATESCLASSIFICATION('3rjDds2tCQqPvLpaKzjxIC',#18,'Exterior Walls','Exterior Walls:B2010',(#74,#117,#143,#166,#189,#212,#235),#95);
#287=IFCUNITASSIGNMENT((#19,#56));
ENDSEC;

END-ISO-10303-21;