ISO-10303-21;
HEADER;
FILE_DESCRIPTION(('ViewDefinition [CoordinationView]','RevitIdentifiers [ContentGUID: cbb0ae2e-6350-4225-8ca4-af668662c38d, VersionGUID: 690432b7-655c-4902-8391-9cf929aff382, NumberOfSaves: 29]','CoordinateReference [CoordinateBase: Shared Coordinates]'),'2;1');
FILE_NAME('02-00-020.ifc','2026-01-19T15:58:05+01:00',(''),(''),'ODA SDAI 24.6','Autodesk Revit 24.3.30.11 (ENU) - IFC 24.3.30.11','');
FILE_SCHEMA(('IFC4X3'));
ENDSEC;
DATA;
#1=IFCORGANIZATION($,'Autodesk Revit 2024 (ENU)',$,$,$);
#2=IFCAPPLICATION(#1,'2024','Autodesk Revit 2024 (ENU)','Revit');
#3=IFCCARTESIANPOINT((0.,0.,0.));
#4=IFCCARTESIANPOINT((0.,0.));
#5=IFCDIRECTION((1.,0.,0.));
#6=IFCDIRECTION((-1.,0.,0.));
#7=IFCDIRECTION((0.,1.,0.));
#8=IFCDIRECTION((0.,-1.,0.));
#9=IFCDIRECTION((0.,0.,1.));
#10=IFCDIRECTION((0.,0.,-1.));
#11=IFCDIRECTION((1.,0.));
#12=IFCDIRECTION((-1.,0.));
#13=IFCDIRECTION((0.,1.));
#14=IFCDIRECTION((0.,-1.));
#15=IFCPERSON($,'','h.helming',$,$,$,$,$);
#16=IFCORGANIZATION($,'Organization Name','Organization Description',$,$);
#17=IFCPERSONANDORGANIZATION(#15,#16,$);
#18=IFCOWNERHISTORY(#17,#2,$,.NOCHANGE.,$,$,$,1768126649);
#19=IFCSIUNIT(*,.LENGTHUNIT.,.MILLI.,.METRE.);
#20=IFCAXIS2PLACEMENT3D(#3,$,$);
#21=IFCDIRECTION((6.12303176911189E-17,1.));
#22=IFCGEOMETRICREPRESENTATIONCONTEXT($,'Model',3,0.01,#20,#21);
#23=IFCGEOMETRICREPRESENTATIONSUBCONTEXT('Axis','Model',*,*,*,*,#22,$,.GRAPH_VIEW.,$);
#24=IFCGEOMETRICREPRESENTATIONSUBCONTEXT('Body','Model',*,*,*,*,#22,$,.MODEL_VIEW.,$);
#25=IFCGEOMETRICREPRESENTATIONSUBCONTEXT('Box','Model',*,*,*,*,#22,$,.MODEL_VIEW.,$);
#26=IFCGEOMETRICREPRESENTATIONSUBCONTEXT('FootPrint','Model',*,*,*,*,#22,$,.MODEL_VIEW.,$);
#27=IFCPROJECT('3BiAukOr129OoahsPvdJnz',#18,'Project Number',$,$,'Project Name','Project Status',(#22),#896);
#28=IFCCLASSIFICATION('CSI (Construction Specifications Institute)','1998',$,'Uniformat','UniFormat Classification','https://www.csiresources.org/standards/uniformat',$);
#29=IFCAXIS2PLACEMENT3D(#3,$,$);
#30=IFCLOCALPLACEMENT(#41,#29);
#31=IFCPOSTALADDRESS($,$,$,$,('Enter address hereAddress Line 2'),$,'','Boston','','MA');
#32=IFCBUILDING('3BiAukOr129OoahsPvdJny',#18,'Building Name',$,$,#30,$,'Building Name',.ELEMENT.,$,$,#31);
#33=IFCAXIS2PLACEMENT3D(#3,$,$);
#34=IFCLOCALPLACEMENT(#30,#33);
#35=IFCBUILDINGSTOREY('2JF4e6axWHqu3u0C1FZlmi',#18,'L1',$,'Level:8mm Head',#34,$,'L1',.ELEMENT.,0.);
#36=IFCCARTESIANPOINT((0.,0.,3000.));
#37=IFCAXIS2PLACEMENT3D(#36,$,$);
#38=IFCLOCALPLACEMENT(#30,#37);
#39=IFCBUILDINGSTOREY('1ZGO8hrFCHqw0v0026FpFv',#18,'L2',$,'Level:8mm Head',#38,$,'L2',.ELEMENT.,3000.);
#40=IFCAXIS2PLACEMENT3D(#3,$,$);
#41=IFCLOCALPLACEMENT($,#40);
#42=IFCSITE('3BiAukOr129OoahsPvdJn$',#18,'Default',$,$,#41,$,$,.ELEMENT.,(42,21,31,401672),(-71,-3,-24,-345703),0.,$,$);
#43=IFCPROPERTYSINGLEVALUE('Reference',$,IFCIDENTIFIER('Project Information'),$);
#44=IFCPROPERTYSET('2mFJcO6I01h0OYRLOICO3c',#18,'Pset_SiteCommon',$,(#43));
#45=IFCPROPERTYSINGLEVALUE('IsExternal',$,IFCBOOLEAN(.F.),$);
#46=IFCPROPERTYSET('0O$B2PbAODr9jYnpcaZGJT',#18,'Pset_SpaceCommon',$,(#43,#45));
#47=IFCRELDEFINESBYPROPERTIES('2fDrcjst0HFayqQ3dY1cGQ',#18,$,$,(#42),#44);
#48=IFCRELDEFINESBYPROPERTIES('1lYkP70lXSGXnZeJnLC8MY',#18,$,$,(#42),#46);
#55=IFCAXIS2PLACEMENT3D(#3,$,$);
#56=IFCLOCALPLACEMENT(#34,#55);
#57=IFCCARTESIANPOINT((-3050.,-3050.));
#58=IFCCARTESIANPOINT((3050.,-3050.));
#59=IFCCARTESIANPOINT((3050.,950.));
#60=IFCCARTESIANPOINT((550.,950.));
#61=IFCCARTESIANPOINT((550.,1150.));
#62=IFCCARTESIANPOINT((-550.,1150.));
#63=IFCCARTESIANPOINT((-550.,950.));
#64=IFCCARTESIANPOINT((-3050.,950.));
#65=IFCPOLYLINE((#57,#58,#59,#60,#61,#62,#63,#64,#57));
#66=IFCARBITRARYCLOSEDPROFILEDEF(.AREA.,$,#65);
#67=IFCCARTESIANPOINT((3250.,3250.,0.));
#68=IFCAXIS2PLACEMENT3D(#67,#9,#8);
#69=IFCEXTRUDEDAREASOLID(#66,#68,#9,2700.);
#70=IFCSIUNIT(*,.PLANEANGLEUNIT.,$,.RADIAN.);
#71=IFCDIMENSIONALEXPONENTS(0,0,0,0,0,0,0);
#72=IFCMEASUREWITHUNIT(IFCPLANEANGLEMEASURE(0.0174532925199433),#70);
#73=IFCCONVERSIONBASEDUNIT(#71,.PLANEANGLEUNIT.,'DEGREE',#72);
#74=IFCSIUNIT(*,.AREAUNIT.,$,.SQUARE_METRE.);
#75=IFCSHAPEREPRESENTATION(#24,'Body','SweptSolid',(#69));
#76=IFCPRODUCTDEFINITIONSHAPE($,$,(#75));
#77=IFCSPACE('2qyK1mN856S9I7fygAJTEk',#18,'132',$,$,#56,#76,'room',.ELEMENT.,.NOTDEFINED.,$);
#78=IFCSPACETYPE('2qyK1mN856S9I7hygAJTEk',#18,'room 132:1610443',$,$,$,$,'1610443',$,.NOTDEFINED.,$);
#79=IFCPROPERTYSINGLEVALUE('Reference',$,IFCIDENTIFIER('room 132'),$);
#80=IFCPROPERTYSET('0pl$f6$v_N7aBM9WIZgTu3',#18,'Pset_SpaceCommon',$,(#45,#79));
#81=IFCPROPERTYSET('1$1hQBX6T4v8nOzK8$0hEy',#18,'Pset_SpaceHeaterTypeCommon',$,(#79));
#82=IFCRELDEFINESBYPROPERTIES('3_1FH$fnFModzvNNPzfpIu',#18,$,$,(#77),#80);
#83=IFCRELDEFINESBYPROPERTIES('3JrhHsbgTXzMeXhBYyhQvR',#18,$,$,(#77),#81);
#84=IFCAXIS2PLACEMENT3D(#3,$,$);
#85=IFCLOCALPLACEMENT(#34,#84);
#86=IFCCARTESIANPOINT((-2440.,-3050.));
#87=IFCCARTESIANPOINT((1560.,-3050.));
#88=IFCCARTESIANPOINT((1560.,-550.));
#89=IFCCARTESIANPOINT((1760.,-550.));
#90=IFCCARTESIANPOINT((1760.,550.));
#91=IFCCARTESIANPOINT((1560.,550.));
#92=IFCCARTESIANPOINT((1560.,3050.));
#93=IFCCARTESIANPOINT((-2440.,3050.));
#94=IFCCARTESIANPOINT((-2440.,550.));
#95=IFCCARTESIANPOINT((-2440.,-550.));
#96=IFCPOLYLINE((#86,#87,#88,#89,#90,#91,#92,#93,#94,#95,#86));
#97=IFCCARTESIANPOINT((-540.,-750.));
#98=IFCCARTESIANPOINT((-340.,-750.));
#99=IFCCARTESIANPOINT((-340.,-2250.));
#100=IFCCARTESIANPOINT((-540.,-2250.));
#101=IFCPOLYLINE((#97,#98,#99,#100,#97));
#102=IFCCARTESIANPOINT((-340.,750.));
#103=IFCCARTESIANPOINT((-540.,750.));
#104=IFCCARTESIANPOINT((-540.,2250.));
#105=IFCCARTESIANPOINT((-340.,2250.));
#106=IFCPOLYLINE((#102,#103,#104,#105,#102));
#107=IFCARBITRARYPROFILEDEFWITHVOIDS(.AREA.,$,#96,(#101,#106));
#108=IFCCARTESIANPOINT((6840.,3250.,0.));
#109=IFCAXIS2PLACEMENT3D(#108,$,$);
#110=IFCEXTRUDEDAREASOLID(#107,#109,#9,2700.);
#111=IFCSHAPEREPRESENTATION(#24,'Body','SweptSolid',(#110));
#112=IFCPRODUCTDEFINITIONSHAPE($,$,(#111));
#113=IFCSPACE('2qyK1mN856S9I7fygAJTEF',#18,'133',$,$,#85,#112,'pilotroom',.ELEMENT.,.NOTDEFINED.,$);
#114=IFCSPACETYPE('2qyK1mN856S9I7hygAJTEF',#18,'pilotroom 133:1610474',$,$,$,$,'1610474',$,.NOTDEFINED.,$);
#115=IFCPROPERTYSINGLEVALUE('Reference',$,IFCIDENTIFIER('pilotroom 133'),$);
#116=IFCPROPERTYSET('3BpWUemORzAdK8NIuxrOtI',#18,'Pset_SpaceCommon',$,(#45,#115));
#117=IFCPROPERTYSET('0MbAHIGo94DIxKW9CwXkFw',#18,'Pset_SpaceHeaterTypeCommon',$,(#115));
#118=IFCRELDEFINESBYPROPERTIES('2khJe3WT3fDzL5X6kltwa6',#18,$,$,(#113),#116);
#119=IFCRELDEFINESBYPROPERTIES('2U4b_B87tx1awVFzwMODoX',#18,$,$,(#113),#117);
#120=IFCAXIS2PLACEMENT3D(#3,$,$);
#121=IFCLOCALPLACEMENT(#34,#120);
#122=IFCCARTESIANPOINT((-2440.,-3050.));
#123=IFCCARTESIANPOINT((1560.,-3050.));
#124=IFCCARTESIANPOINT((1560.,-550.));
#125=IFCCARTESIANPOINT((1760.,-550.));
#126=IFCCARTESIANPOINT((1760.,550.));
#127=IFCCARTESIANPOINT((1560.,550.));
#128=IFCCARTESIANPOINT((1560.,3050.));
#129=IFCCARTESIANPOINT((-2440.,3050.));
#130=IFCCARTESIANPOINT((-2440.,550.));
#131=IFCCARTESIANPOINT((-2440.,-550.));
#132=IFCPOLYLINE((#122,#123,#124,#125,#126,#127,#128,#129,#130,#131,#122));
#133=IFCCARTESIANPOINT((-540.,750.));
#134=IFCCARTESIANPOINT((-340.,750.));
#135=IFCCARTESIANPOINT((-340.,-750.));
#136=IFCCARTESIANPOINT((-540.,-750.));
#137=IFCPOLYLINE((#133,#134,#135,#136,#133));
#138=IFCARBITRARYPROFILEDEFWITHVOIDS(.AREA.,$,#132,(#137));
#139=IFCCARTESIANPOINT((11040.,3250.,0.));
#140=IFCAXIS2PLACEMENT3D(#139,$,$);
#141=IFCEXTRUDEDAREASOLID(#138,#140,#9,2700.);
#142=IFCSHAPEREPRESENTATION(#24,'Body','SweptSolid',(#141));
#143=IFCPRODUCTDEFINITIONSHAPE($,$,(#142));
#144=IFCSPACE('2qyK1mN856S9I7fygAJTE8',#18,'134',$,$,#121,#143,'pilotroom',.ELEMENT.,.NOTDEFINED.,$);
#145=IFCSPACETYPE('2qyK1mN856S9I7hygAJTE8',#18,'pilotroom 134:1610477',$,$,$,$,'1610477',$,.NOTDEFINED.,$);
#146=IFCPROPERTYSINGLEVALUE('Reference',$,IFCIDENTIFIER('pilotroom 134'),$);
#147=IFCPROPERTYSET('33Lca6Njn$zT72tYdAuT8M',#18,'Pset_SpaceCommon',$,(#45,#146));
#148=IFCPROPERTYSET('37w9cENtk$_cx6r6phq10T',#18,'Pset_SpaceHeaterTypeCommon',$,(#146));
#149=IFCRELDEFINESBYPROPERTIES('1x$dCf2pWwj3RqVzV5VIsK',#18,$,$,(#144),#147);
#150=IFCRELDEFINESBYPROPERTIES('2nGDZ2AjkjTDeQWnn28wH2',#18,$,$,(#144),#148);
#151=IFCAXIS2PLACEMENT3D(#3,$,$);
#152=IFCLOCALPLACEMENT(#34,#151);
#153=IFCCARTESIANPOINT((-2440.,-3050.));
#154=IFCCARTESIANPOINT((1560.,-3050.));
#155=IFCCARTESIANPOINT((1560.,-550.));
#156=IFCCARTESIANPOINT((1760.,-550.));
#157=IFCCARTESIANPOINT((1760.,550.));
#158=IFCCARTESIANPOINT((1560.,550.));
#159=IFCCARTESIANPOINT((1560.,3050.));
#160=IFCCARTESIANPOINT((-2440.,3050.));
#161=IFCCARTESIANPOINT((-2440.,550.));
#162=IFCCARTESIANPOINT((-2440.,-550.));
#163=IFCPOLYLINE((#153,#154,#155,#156,#157,#158,#159,#160,#161,#162,#153));
#164=IFCCARTESIANPOINT((-1140.,-750.));
#165=IFCCARTESIANPOINT((-1140.,-550.));
#166=IFCCARTESIANPOINT((360.,-550.));
#167=IFCCARTESIANPOINT((360.,-750.));
#168=IFCPOLYLINE((#164,#165,#166,#167,#164));
#169=IFCARBITRARYPROFILEDEFWITHVOIDS(.AREA.,$,#163,(#168));
#170=IFCCARTESIANPOINT((15240.,3250.,0.));
#171=IFCAXIS2PLACEMENT3D(#170,$,$);
#172=IFCEXTRUDEDAREASOLID(#169,#171,#9,2700.);
#173=IFCSHAPEREPRESENTATION(#24,'Body','SweptSolid',(#172));
#174=IFCPRODUCTDEFINITIONSHAPE($,$,(#173));
#175=IFCSPACE('2qyK1mN856S9I7fygAJTEL',#18,'135',$,$,#152,#174,'pilotroom',.ELEMENT.,.NOTDEFINED.,$);
#176=IFCSPACETYPE('2qyK1mN856S9I7hygAJTEL',#18,'pilotroom 135:1610480',$,$,$,$,'1610480',$,.NOTDEFINED.,$);
#177=IFCPROPERTYSINGLEVALUE('Reference',$,IFCIDENTIFIER('pilotroom 135'),$);
#178=IFCPROPERTYSET('131JgwYwjsrtv$CIlQeFv4',#18,'Pset_SpaceCommon',$,(#45,#177));
#179=IFCPROPERTYSET('1ghL4n8OXKWk9rJZTL_0iL',#18,'Pset_SpaceHeaterTypeCommon',$,(#177));
#180=IFCRELDEFINESBYPROPERTIES('00ygG$2Rqk4CdmIXglRVqO',#18,$,$,(#175),#178);
#181=IFCRELDEFINESBYPROPERTIES('3YevnodkCuVOg5F_YNRTYa',#18,$,$,(#175),#179);
#182=IFCAXIS2PLACEMENT3D(#3,$,$);
#183=IFCLOCALPLACEMENT(#34,#182);
#184=IFCCARTESIANPOINT((-1333.33333333333,-3050.));
#185=IFCCARTESIANPOINT((2666.66666666667,-3050.));
#186=IFCCARTESIANPOINT((2666.66666666666,3050.));
#187=IFCCARTESIANPOINT((-1333.33333333334,3050.));
#188=IFCCARTESIANPOINT((-1333.33333333334,550.));
#189=IFCCARTESIANPOINT((-1333.33333333333,-550.));
#190=IFCPOLYLINE((#184,#185,#186,#187,#188,#189,#184));
#191=IFCCARTESIANPOINT((1366.66666666667,-750.));
#192=IFCCARTESIANPOINT((1166.66666666667,-750.));
#193=IFCCARTESIANPOINT((1166.66666666667,750.));
#194=IFCCARTESIANPOINT((1366.66666666666,750.));
#195=IFCPOLYLINE((#191,#192,#193,#194,#191));
#196=IFCARBITRARYPROFILEDEFWITHVOIDS(.AREA.,$,#190,(#195));
#197=IFCCARTESIANPOINT((18333.3333333333,3250.,0.));
#198=IFCAXIS2PLACEMENT3D(#197,$,$);
#199=IFCEXTRUDEDAREASOLID(#196,#198,#9,2700.);
#200=IFCSHAPEREPRESENTATION(#24,'Body','SweptSolid',(#199));
#201=IFCPRODUCTDEFINITIONSHAPE($,$,(#200));
#202=IFCSPACE('2qyK1mN856S9I7fygAJTEM',#18,'136',$,$,#183,#201,'pilotroom',.ELEMENT.,.NOTDEFINED.,$);
#203=IFCSPACETYPE('2qyK1mN856S9I7hygAJTEM',#18,'pilotroom 136:1610483',$,$,$,$,'1610483',$,.NOTDEFINED.,$);
#204=IFCPROPERTYSINGLEVALUE('Reference',$,IFCIDENTIFIER('pilotroom 136'),$);
#205=IFCPROPERTYSET('20pYKb3cGr8lFxEsOvv_Ir',#18,'Pset_SpaceCommon',$,(#45,#204));
#206=IFCPROPERTYSET('2bYlD4lr6QQZl3Gf0O0bjS',#18,'Pset_SpaceHeaterTypeCommon',$,(#204));
#207=IFCRELDEFINESBYPROPERTIES('2t_fdckoHjWyMz2ATMYlUc',#18,$,$,(#202),#205);
#208=IFCRELDEFINESBYPROPERTIES('1ivOng7GHNN5D0UIUWDlVO',#18,$,$,(#202),#206);
#209=IFCCARTESIANPOINT((100.,6500.,0.));
#210=IFCAXIS2PLACEMENT3D(#209,#9,#8);
#211=IFCLOCALPLACEMENT(#34,#210);
#212=IFCCARTESIANPOINT((6500.,0.));
#213=IFCPOLYLINE((#4,#212));
#214=IFCSHAPEREPRESENTATION(#23,'Axis','Curve2D',(#213));
#215=IFCCARTESIANPOINT((3250.00000000003,0.));
#216=IFCAXIS2PLACEMENT2D(#215,#12);
#217=IFCRECTANGLEPROFILEDEF(.AREA.,$,#216,6500.00000000006,200.);
#218=IFCAXIS2PLACEMENT3D(#3,$,$);
#219=IFCEXTRUDEDAREASOLID(#217,#218,#9,2700.);
#220=IFCCARTESIANPOINT((6500.,0.));
#221=IFCCARTESIANPOINT((6500.,200.));
#222=IFCCARTESIANPOINT((6300.,200.));
#223=IFCCARTESIANPOINT((200.,200.));
#224=IFCCARTESIANPOINT((0.,200.));
#225=IFCPOLYLINE((#4,#220,#221,#222,#223,#224,#4));
#226=IFCCARTESIANPOINT((0.,-100.,2700.));
#227=IFCAXIS2PLACEMENT3D(#226,#10,#8);
#228=IFCPLANE(#227);
#229=IFCCARTESIANPOINT((0.,-100.,2700.));
#230=IFCAXIS2PLACEMENT3D(#229,$,$);
#231=IFCPOLYGONALBOUNDEDHALFSPACE(#228,.T.,#230,#225);
#232=IFCBOOLEANCLIPPINGRESULT(.DIFFERENCE.,#219,#231);
#233=IFCCOLOURRGB($,0.752941176470588,0.752941176470588,0.752941176470588);
#234=IFCSURFACESTYLERENDERING(#233,0.,$,$,$,$,IFCNORMALISEDRATIOMEASURE(0.5),IFCSPECULAREXPONENT(10.),.NOTDEFINED.);
#235=IFCSURFACESTYLE('Default Wall',.BOTH.,(#234));
#236=IFCSTYLEDITEM(#219,(#235),$);
#237=IFCSHAPEREPRESENTATION(#24,'Body','Clipping',(#232));
#238=IFCPRODUCTDEFINITIONSHAPE($,$,(#214,#237));
#239=IFCWALL('2qyK1mN856S9I7fygAJSjc',#18,'Basic Wall:Generic - 200mm:1608195',$,'Basic Wall:Generic - 200mm',#211,#238,'1608195',.NOTDEFINED.);
#240=IFCMATERIAL('Default Wall',$,'Miscellaneous');
#241=IFCSTYLEDITEM($,(#235),$);
#242=IFCSTYLEDREPRESENTATION(#22,'Style','Material',(#241));
#243=IFCMATERIALDEFINITIONREPRESENTATION($,$,(#242),#240);
#244=IFCMATERIALLAYER(#240,200.,$,'Layer',$,'Miscellaneous',$);
#245=IFCMATERIALLAYERSET((#244),'Basic Wall:Generic - 200mm',$);
#246=IFCWALLTYPE('1xZrMVYp52mhf4uMzw11Hk',#18,'Basic Wall:Generic - 200mm',$,$,(#260),$,'441451',$,.STANDARD.);
#247=IFCPROPERTYSINGLEVALUE('Reference',$,IFCIDENTIFIER('Generic - 200mm'),$);
#248=IFCPROPERTYSET('2abqFS$t81O40stILadS7O',#18,'Pset_EnvironmentalImpactIndicators',$,(#247));
#249=IFCPROPERTYSINGLEVALUE('Reference',$,IFCLABEL('Generic - 200mm'),$);
#250=IFCPROPERTYSET('24fopus9xU8$BYRLlgTvXy',#18,'Pset_ReinforcementBarPitchOfWall',$,(#249));
#251=IFCPROPERTYSINGLEVALUE('IsExternal',$,IFCBOOLEAN(.T.),$);
#252=IFCPROPERTYSINGLEVALUE('LoadBearing',$,IFCBOOLEAN(.F.),$);
#253=IFCPROPERTYSINGLEVALUE('ExtendToStructure',$,IFCBOOLEAN(.T.),$);
#254=IFCPROPERTYSET('0z1LJNd1LyeSJxM_2iEoGA',#18,'Pset_WallCommon',$,(#247,#251,#252,#253));
#255=IFCRELDEFINESBYPROPERTIES('2CmcVm8npYXz4vadBhXh45',#18,$,$,(#239),#248);
#256=IFCRELDEFINESBYPROPERTIES('0OMkb$gjnL9wMfW1A0ceFK',#18,$,$,(#239),#250);
#257=IFCRELDEFINESBYPROPERTIES('0vSaHHmDYRirdJ9aY2HfyK',#18,$,$,(#239),#254);
#258=IFCCLASSIFICATIONREFERENCE('https://www.csiresources.org/standards/uniformat','B2010','Exterior Walls',#28,'',$);
#259=IFCPROPERTYSINGLEVALUE('Description',$,IFCTEXT('Generic Wall (Material By Category), 200mm thick'),$);
#260=IFCPROPERTYSET('2L7lvTstnIeeydfwzfZZLR',#18,'Pset_ReinforcementBarPitchOfWall',$,(#259));
#261=IFCCARTESIANPOINT((200.,100.,0.));
#262=IFCAXIS2PLACEMENT3D(#261,$,$);
#263=IFCLOCALPLACEMENT(#34,#262);
#264=IFCCARTESIANPOINT((21000.,0.));
#265=IFCPOLYLINE((#4,#264));
#266=IFCSHAPEREPRESENTATION(#23,'Axis','Curve2D',(#265));
#267=IFCCARTESIANPOINT((10500.,0.));
#268=IFCAXIS2PLACEMENT2D(#267,#12);
#269=IFCRECTANGLEPROFILEDEF(.AREA.,$,#268,21000.,200.);
#270=IFCAXIS2PLACEMENT3D(#3,$,$);
#271=IFCEXTRUDEDAREASOLID(#269,#270,#9,2700.);
#272=IFCCARTESIANPOINT((21000.,0.));
#273=IFCCARTESIANPOINT((21000.,200.));
#274=IFCCARTESIANPOINT((20800.,200.));
#275=IFCCARTESIANPOINT((16800.,200.));
#276=IFCCARTESIANPOINT((16600.,200.));
#277=IFCCARTESIANPOINT((12600.,200.));
#278=IFCCARTESIANPOINT((12400.,200.));
#279=IFCCARTESIANPOINT((8400.,200.));
#280=IFCCARTESIANPOINT((8200.,200.));
#281=IFCCARTESIANPOINT((4200.,200.));
#282=IFCCARTESIANPOINT((4000.,200.));
#283=IFCCARTESIANPOINT((-0.,200.));
#284=IFCPOLYLINE((#4,#272,#273,#274,#275,#276,#277,#278,#279,#280,#281,#282,#283,#4));
#285=IFCCARTESIANPOINT((0.,-100.,2700.));
#286=IFCAXIS2PLACEMENT3D(#285,#10,#6);
#287=IFCPLANE(#286);
#288=IFCCARTESIANPOINT((0.,-100.,2700.));
#289=IFCAXIS2PLACEMENT3D(#288,$,$);
#290=IFCPOLYGONALBOUNDEDHALFSPACE(#287,.T.,#289,#284);
#291=IFCBOOLEANCLIPPINGRESULT(.DIFFERENCE.,#271,#290);
#292=IFCSTYLEDITEM(#271,(#235),$);
#293=IFCSHAPEREPRESENTATION(#24,'Body','Clipping',(#291));
#294=IFCPRODUCTDEFINITIONSHAPE($,$,(#266,#293));
#295=IFCWALL('2qyK1mN856S9I7fygAJSir',#18,'Basic Wall:Generic - 200mm:1608272',$,'Basic Wall:Generic - 200mm',#263,#294,'1608272',.NOTDEFINED.);
#296=IFCPROPERTYSET('0iD2Hk56mnwzbfUY_RfyUH',#18,'Pset_EnvironmentalImpactIndicators',$,(#247));
#297=IFCPROPERTYSINGLEVALUE('Reference',$,IFCLABEL('Generic - 200mm'),$);
#298=IFCPROPERTYSET('33kLQyV75DnxwI4V$O7qlj',#18,'Pset_ReinforcementBarPitchOfWall',$,(#297));
#299=IFCPROPERTYSET('2jpXxZt3LvYlXU1$Pb7u51',#18,'Pset_WallCommon',$,(#247,#251,#252,#253));
#300=IFCRELDEFINESBYPROPERTIES('343x6WA2YAU9Kyx$sW4Wci',#18,$,$,(#295),#296);
#301=IFCRELDEFINESBYPROPERTIES('27oEZjmrMGMwsTSmiOyck0',#18,$,$,(#295),#298);
#302=IFCRELDEFINESBYPROPERTIES('3In4U8ZhDVGfnACm2HgWQd',#18,$,$,(#295),#299);
#303=IFCCARTESIANPOINT((21100.,200.,0.));
#304=IFCAXIS2PLACEMENT3D(#303,#9,#7);
#305=IFCLOCALPLACEMENT(#34,#304);
#306=IFCCARTESIANPOINT((6300.,-0.));
#307=IFCPOLYLINE((#4,#306));
#308=IFCSHAPEREPRESENTATION(#23,'Axis','Curve2D',(#307));
#309=IFCCARTESIANPOINT((3150.00000000003,-1.35003119794419E-13));
#310=IFCAXIS2PLACEMENT2D(#309,#12);
#311=IFCRECTANGLEPROFILEDEF(.AREA.,$,#310,6300.00000000006,199.999999999998);
#312=IFCAXIS2PLACEMENT3D(#3,$,$);
#313=IFCEXTRUDEDAREASOLID(#311,#312,#9,2700.);
#314=IFCCARTESIANPOINT((6300.,-0.));
#315=IFCCARTESIANPOINT((6300.,200.));
#316=IFCCARTESIANPOINT((6100.,200.));
#317=IFCCARTESIANPOINT((-0.,200.));
#318=IFCPOLYLINE((#4,#314,#315,#316,#317,#4));
#319=IFCCARTESIANPOINT((0.,-100.,2700.));
#320=IFCAXIS2PLACEMENT3D(#319,#10,#7);
#321=IFCPLANE(#320);
#322=IFCCARTESIANPOINT((0.,-100.,2700.));
#323=IFCAXIS2PLACEMENT3D(#322,$,$);
#324=IFCPOLYGONALBOUNDEDHALFSPACE(#321,.T.,#323,#318);
#325=IFCBOOLEANCLIPPINGRESULT(.DIFFERENCE.,#313,#324);
#326=IFCSTYLEDITEM(#313,(#235),$);
#327=IFCSHAPEREPRESENTATION(#24,'Body','Clipping',(#325));
#328=IFCPRODUCTDEFINITIONSHAPE($,$,(#308,#327));
#329=IFCWALL('2qyK1mN856S9I7fygAJSll',#18,'Basic Wall:Generic - 200mm:1608330',$,'Basic Wall:Generic - 200mm',#305,#328,'1608330',.NOTDEFINED.);
#330=IFCPROPERTYSET('3dkv1hI1IU04XEeNJrnsuf',#18,'Pset_EnvironmentalImpactIndicators',$,(#247));
#331=IFCPROPERTYSINGLEVALUE('Reference',$,IFCLABEL('Generic - 200mm'),$);
#332=IFCPROPERTYSET('2jeAwrKR4AfHJ35qH$9VhX',#18,'Pset_ReinforcementBarPitchOfWall',$,(#331));
#333=IFCPROPERTYSET('0aGmnWQMCq69Q6qBF0IOJ5',#18,'Pset_WallCommon',$,(#247,#251,#252,#253));
#334=IFCRELDEFINESBYPROPERTIES('3owH1LNqYRMV$f_jQy8YMO',#18,$,$,(#329),#330);
#335=IFCRELDEFINESBYPROPERTIES('2XPtU2f9TXJq76Q_eZxs7N',#18,$,$,(#329),#332);
#336=IFCRELDEFINESBYPROPERTIES('2aRGfm3htvAI9ZvmbC5e5S',#18,$,$,(#329),#333);
#337=IFCCARTESIANPOINT((21000.,6400.,0.));
#338=IFCAXIS2PLACEMENT3D(#337,#9,#6);
#339=IFCLOCALPLACEMENT(#34,#338);
#340=IFCCARTESIANPOINT((20800.,0.));
#341=IFCPOLYLINE((#4,#340));
#342=IFCSHAPEREPRESENTATION(#23,'Axis','Curve2D',(#341));
#343=IFCCARTESIANPOINT((10400.,-7.105427357601E-15));
#344=IFCAXIS2PLACEMENT2D(#343,#12);
#345=IFCRECTANGLEPROFILEDEF(.AREA.,$,#344,20800.,200.);
#346=IFCAXIS2PLACEMENT3D(#3,$,$);
#347=IFCEXTRUDEDAREASOLID(#345,#346,#9,2700.);
#348=IFCCARTESIANPOINT((20800.,0.));
#349=IFCCARTESIANPOINT((20800.,200.));
#350=IFCCARTESIANPOINT((16800.,200.));
#351=IFCCARTESIANPOINT((16600.,200.));
#352=IFCCARTESIANPOINT((12600.,200.));
#353=IFCCARTESIANPOINT((12400.,200.));
#354=IFCCARTESIANPOINT((8400.,200.));
#355=IFCCARTESIANPOINT((8200.,200.));
#356=IFCCARTESIANPOINT((4200.,200.));
#357=IFCCARTESIANPOINT((4000.,200.));
#358=IFCCARTESIANPOINT((-0.,200.));
#359=IFCPOLYLINE((#4,#348,#349,#350,#351,#352,#353,#354,#355,#356,#357,#358,#4));
#360=IFCCARTESIANPOINT((-0.,-100.,2700.));
#361=IFCAXIS2PLACEMENT3D(#360,#10,#5);
#362=IFCPLANE(#361);
#363=IFCCARTESIANPOINT((-0.,-100.,2700.));
#364=IFCAXIS2PLACEMENT3D(#363,$,$);
#365=IFCPOLYGONALBOUNDEDHALFSPACE(#362,.T.,#364,#359);
#366=IFCBOOLEANCLIPPINGRESULT(.DIFFERENCE.,#347,#365);
#367=IFCSTYLEDITEM(#347,(#235),$);
#368=IFCSHAPEREPRESENTATION(#24,'Body','Clipping',(#366));
#369=IFCPRODUCTDEFINITIONSHAPE($,$,(#342,#368));
#370=IFCWALL('2qyK1mN856S9I7fygAJSkf',#18,'Basic Wall:Generic - 200mm:1608396',$,'Basic Wall:Generic - 200mm',#339,#369,'1608396',.NOTDEFINED.);
#371=IFCPROPERTYSET('0uPnVBSJ8BFDEnIhCV$tzr',#18,'Pset_EnvironmentalImpactIndicators',$,(#247));
#372=IFCPROPERTYSINGLEVALUE('Reference',$,IFCLABEL('Generic - 200mm'),$);
#373=IFCPROPERTYSET('0hfHgQPP5SMB1vOdxt5xDO',#18,'Pset_ReinforcementBarPitchOfWall',$,(#372));
#374=IFCPROPERTYSET('1SaFg9GSnJ9L8uArEC5UJF',#18,'Pset_WallCommon',$,(#247,#251,#252,#253));
#375=IFCRELDEFINESBYPROPERTIES('2E3_a4vFRztUflIzKuG1_Z',#18,$,$,(#370),#371);
#376=IFCRELDEFINESBYPROPERTIES('00Z2wkp5c$pptx3NVXNVer',#18,$,$,(#370),#373);
#377=IFCRELDEFINESBYPROPERTIES('3DasZM_7kvB6gJ7WYrwpJR',#18,$,$,(#370),#374);
#378=IFCCARTESIANPOINT((4300.,6300.,0.));
#379=IFCAXIS2PLACEMENT3D(#378,#9,#8);
#380=IFCLOCALPLACEMENT(#34,#379);
#381=IFCCARTESIANPOINT((2500.,0.));
#382=IFCPOLYLINE((#4,#381));
#383=IFCSHAPEREPRESENTATION(#23,'Axis','Curve2D',(#382));
#384=IFCCARTESIANPOINT((1250.,0.));
#385=IFCAXIS2PLACEMENT2D(#384,#12);
#386=IFCRECTANGLEPROFILEDEF(.AREA.,$,#385,2500.,200.);
#387=IFCAXIS2PLACEMENT3D(#3,$,$);
#388=IFCEXTRUDEDAREASOLID(#386,#387,#9,2700.);
#389=IFCCARTESIANPOINT((2500.,0.));
#390=IFCCARTESIANPOINT((2500.,200.));
#391=IFCCARTESIANPOINT((0.,200.));
#392=IFCPOLYLINE((#4,#389,#390,#391,#4));
#393=IFCCARTESIANPOINT((0.,-100.,2700.));
#394=IFCAXIS2PLACEMENT3D(#393,#10,#8);
#395=IFCPLANE(#394);
#396=IFCCARTESIANPOINT((0.,-100.,2700.));
#397=IFCAXIS2PLACEMENT3D(#396,$,$);
#398=IFCPOLYGONALBOUNDEDHALFSPACE(#395,.T.,#397,#392);
#399=IFCBOOLEANCLIPPINGRESULT(.DIFFERENCE.,#388,#398);
#400=IFCSTYLEDITEM(#388,(#235),$);
#401=IFCSHAPEREPRESENTATION(#24,'Body','Clipping',(#399));
#402=IFCPRODUCTDEFINITIONSHAPE($,$,(#383,#401));
#403=IFCWALL('2qyK1mN856S9I7fygAJShW',#18,'Basic Wall:Generic - 200mm:1608581',$,'Basic Wall:Generic - 200mm',#380,#402,'1608581',.NOTDEFINED.);
#404=IFCPROPERTYSET('2uKttc6_oZDOaKxbzexioV',#18,'Pset_EnvironmentalImpactIndicators',$,(#247));
#405=IFCPROPERTYSINGLEVALUE('Reference',$,IFCLABEL('Generic - 200mm'),$);
#406=IFCPROPERTYSET('2oUvyfpsWOoAMxnEkbhZFw',#18,'Pset_ReinforcementBarPitchOfWall',$,(#405));
#407=IFCPROPERTYSET('2$_lLSxjFBXFSD0yFBWvnQ',#18,'Pset_WallCommon',$,(#247,#251,#252,#253));
#408=IFCRELDEFINESBYPROPERTIES('0V9Ks3FHQLiBPWDHfEr2GI',#18,$,$,(#403),#404);
#409=IFCRELDEFINESBYPROPERTIES('2xLoV3krdU4U8j5s2fR6QF',#18,$,$,(#403),#406);
#410=IFCRELDEFINESBYPROPERTIES('2xB9$gKNyeXRmyrP6WoFLc',#18,$,$,(#403),#407);
#411=IFCCARTESIANPOINT((4300.,2700.,0.));
#412=IFCAXIS2PLACEMENT3D(#411,#9,#8);
#413=IFCLOCALPLACEMENT(#34,#412);
#414=IFCCARTESIANPOINT((2500.,0.));
#415=IFCPOLYLINE((#4,#414));
#416=IFCSHAPEREPRESENTATION(#23,'Axis','Curve2D',(#415));
#417=IFCCARTESIANPOINT((1250.,0.));
#418=IFCAXIS2PLACEMENT2D(#417,#12);
#419=IFCRECTANGLEPROFILEDEF(.AREA.,$,#418,2500.,200.);
#420=IFCAXIS2PLACEMENT3D(#3,$,$);
#421=IFCEXTRUDEDAREASOLID(#419,#420,#9,2700.);
#422=IFCCARTESIANPOINT((2500.,0.));
#423=IFCCARTESIANPOINT((2500.,200.));
#424=IFCCARTESIANPOINT((0.,200.));
#425=IFCPOLYLINE((#4,#422,#423,#424,#4));
#426=IFCCARTESIANPOINT((0.,-100.,2700.));
#427=IFCAXIS2PLACEMENT3D(#426,#10,#8);
#428=IFCPLANE(#427);
#429=IFCCARTESIANPOINT((0.,-100.,2700.));
#430=IFCAXIS2PLACEMENT3D(#429,$,$);
#431=IFCPOLYGONALBOUNDEDHALFSPACE(#428,.T.,#430,#425);
#432=IFCBOOLEANCLIPPINGRESULT(.DIFFERENCE.,#421,#431);
#433=IFCSTYLEDITEM(#421,(#235),$);
#434=IFCSHAPEREPRESENTATION(#24,'Body','Clipping',(#432));
#435=IFCPRODUCTDEFINITIONSHAPE($,$,(#416,#434));
#436=IFCWALL('2qyK1mN856S9I7fygAJSgd',#18,'Basic Wall:Generic - 200mm:1608642',$,'Basic Wall:Generic - 200mm',#413,#435,'1608642',.NOTDEFINED.);
#437=IFCPROPERTYSET('3lFrRQCz98_wsqaQViEblB',#18,'Pset_EnvironmentalImpactIndicators',$,(#247));
#438=IFCPROPERTYSINGLEVALUE('Reference',$,IFCLABEL('Generic - 200mm'),$);
#439=IFCPROPERTYSET('3PzKldkVIr2IEVEdS4tn28',#18,'Pset_ReinforcementBarPitchOfWall',$,(#438));
#440=IFCPROPERTYSET('1cWUtfoNWS9TqDSL9W8xYT',#18,'Pset_WallCommon',$,(#247,#251,#252,#253));
#441=IFCRELDEFINESBYPROPERTIES('0ZKZ9jvUEFYJLhBueZfrB9',#18,$,$,(#436),#437);
#442=IFCRELDEFINESBYPROPERTIES('2$xmzfiTC9Nka59l02Rmw7',#18,$,$,(#436),#439);
#443=IFCRELDEFINESBYPROPERTIES('1C9ubW9PQyoatUMR1DxPvv',#18,$,$,(#436),#440);
#444=IFCCARTESIANPOINT((8500.,6300.,0.));
#445=IFCAXIS2PLACEMENT3D(#444,#9,#8);
#446=IFCLOCALPLACEMENT(#34,#445);
#447=IFCCARTESIANPOINT((2500.,0.));
#448=IFCPOLYLINE((#4,#447));
#449=IFCSHAPEREPRESENTATION(#23,'Axis','Curve2D',(#448));
#450=IFCCARTESIANPOINT((1250.,0.));
#451=IFCAXIS2PLACEMENT2D(#450,#12);
#452=IFCRECTANGLEPROFILEDEF(.AREA.,$,#451,2500.,200.);
#453=IFCAXIS2PLACEMENT3D(#3,$,$);
#454=IFCEXTRUDEDAREASOLID(#452,#453,#9,2700.);
#455=IFCCARTESIANPOINT((2500.,0.));
#456=IFCCARTESIANPOINT((2500.,200.));
#457=IFCCARTESIANPOINT((0.,200.));
#458=IFCPOLYLINE((#4,#455,#456,#457,#4));
#459=IFCCARTESIANPOINT((0.,-100.,2700.));
#460=IFCAXIS2PLACEMENT3D(#459,#10,#8);
#461=IFCPLANE(#460);
#462=IFCCARTESIANPOINT((0.,-100.,2700.));
#463=IFCAXIS2PLACEMENT3D(#462,$,$);
#464=IFCPOLYGONALBOUNDEDHALFSPACE(#461,.T.,#463,#458);
#465=IFCBOOLEANCLIPPINGRESULT(.DIFFERENCE.,#454,#464);
#466=IFCSTYLEDITEM(#454,(#235),$);
#467=IFCSHAPEREPRESENTATION(#24,'Body','Clipping',(#465));
#468=IFCPRODUCTDEFINITIONSHAPE($,$,(#449,#467));
#469=IFCWALL('2qyK1mN856S9I7fygAJSt3',#18,'Basic Wall:Generic - 200mm:1608870',$,'Basic Wall:Generic - 200mm',#446,#468,'1608870',.NOTDEFINED.);
#470=IFCPROPERTYSET('2P$8OfDq_TCKJyAHoIQwA4',#18,'Pset_EnvironmentalImpactIndicators',$,(#247));
#471=IFCPROPERTYSINGLEVALUE('Reference',$,IFCLABEL('Generic - 200mm'),$);
#472=IFCPROPERTYSET('2GjyLkaDdb0zYbBJYAVh5O',#18,'Pset_ReinforcementBarPitchOfWall',$,(#471));
#473=IFCPROPERTYSET('3zCQBL3paFbio8IFUKKDrI',#18,'Pset_WallCommon',$,(#247,#251,#252,#253));
#474=IFCRELDEFINESBYPROPERTIES('32YV10TTOsDjx5S9_HFRsY',#18,$,$,(#469),#470);
#475=IFCRELDEFINESBYPROPERTIES('2KGObzR$uQrVYusHecyOnq',#18,$,$,(#469),#472);
#476=IFCRELDEFINESBYPROPERTIES('2mw8F0tKV2un2_30uwpN0Q',#18,$,$,(#469),#473);
#477=IFCCARTESIANPOINT((8500.,2700.,0.));
#478=IFCAXIS2PLACEMENT3D(#477,#9,#8);
#479=IFCLOCALPLACEMENT(#34,#478);
#480=IFCCARTESIANPOINT((2500.,0.));
#481=IFCPOLYLINE((#4,#480));
#482=IFCSHAPEREPRESENTATION(#23,'Axis','Curve2D',(#481));
#483=IFCCARTESIANPOINT((1250.,0.));
#484=IFCAXIS2PLACEMENT2D(#483,#12);
#485=IFCRECTANGLEPROFILEDEF(.AREA.,$,#484,2500.,200.);
#486=IFCAXIS2PLACEMENT3D(#3,$,$);
#487=IFCEXTRUDEDAREASOLID(#485,#486,#9,2700.);
#488=IFCCARTESIANPOINT((2500.,0.));
#489=IFCCARTESIANPOINT((2500.,200.));
#490=IFCCARTESIANPOINT((0.,200.));
#491=IFCPOLYLINE((#4,#488,#489,#490,#4));
#492=IFCCARTESIANPOINT((0.,-100.,2700.));
#493=IFCAXIS2PLACEMENT3D(#492,#10,#8);
#494=IFCPLANE(#493);
#495=IFCCARTESIANPOINT((0.,-100.,2700.));
#496=IFCAXIS2PLACEMENT3D(#495,$,$);
#497=IFCPOLYGONALBOUNDEDHALFSPACE(#494,.T.,#496,#491);
#498=IFCBOOLEANCLIPPINGRESULT(.DIFFERENCE.,#487,#497);
#499=IFCSTYLEDITEM(#487,(#235),$);
#500=IFCSHAPEREPRESENTATION(#24,'Body','Clipping',(#498));
#501=IFCPRODUCTDEFINITIONSHAPE($,$,(#482,#500));
#502=IFCWALL('2qyK1mN856S9I7fygAJSt2',#18,'Basic Wall:Generic - 200mm:1608871',$,'Basic Wall:Generic - 200mm',#479,#501,'1608871',.NOTDEFINED.);
#503=IFCPROPERTYSET('1qfteDgpupN9UuyJOXPVDb',#18,'Pset_EnvironmentalImpactIndicators',$,(#247));
#504=IFCPROPERTYSINGLEVALUE('Reference',$,IFCLABEL('Generic - 200mm'),$);
#505=IFCPROPERTYSET('1aCTTQnOdtpR5qIGDv2Uyp',#18,'Pset_ReinforcementBarPitchOfWall',$,(#504));
#506=IFCPROPERTYSET('2$sLOTJvbrqqb0gRVioUNK',#18,'Pset_WallCommon',$,(#247,#251,#252,#253));
#507=IFCRELDEFINESBYPROPERTIES('3qtU7m1gpMtJC2RPVlTXBi',#18,$,$,(#502),#503);
#508=IFCRELDEFINESBYPROPERTIES('3upezrHib3jb1hvKg1uGy6',#18,$,$,(#502),#505);
#509=IFCRELDEFINESBYPROPERTIES('1Mov_S9YqpcxF_z_lFz01s',#18,$,$,(#502),#506);
#510=IFCCARTESIANPOINT((12700.,6300.,0.));
#511=IFCAXIS2PLACEMENT3D(#510,#9,#8);
#512=IFCLOCALPLACEMENT(#34,#511);
#513=IFCCARTESIANPOINT((2500.,0.));
#514=IFCPOLYLINE((#4,#513));
#515=IFCSHAPEREPRESENTATION(#23,'Axis','Curve2D',(#514));
#516=IFCCARTESIANPOINT((1250.,0.));
#517=IFCAXIS2PLACEMENT2D(#516,#12);
#518=IFCRECTANGLEPROFILEDEF(.AREA.,$,#517,2500.,199.999999999998);
#519=IFCAXIS2PLACEMENT3D(#3,$,$);
#520=IFCEXTRUDEDAREASOLID(#518,#519,#9,2700.);
#521=IFCCARTESIANPOINT((2500.,0.));
#522=IFCCARTESIANPOINT((2500.,200.));
#523=IFCCARTESIANPOINT((0.,200.));
#524=IFCPOLYLINE((#4,#521,#522,#523,#4));
#525=IFCCARTESIANPOINT((0.,-100.,2700.));
#526=IFCAXIS2PLACEMENT3D(#525,#10,#8);
#527=IFCPLANE(#526);
#528=IFCCARTESIANPOINT((0.,-100.,2700.));
#529=IFCAXIS2PLACEMENT3D(#528,$,$);
#530=IFCPOLYGONALBOUNDEDHALFSPACE(#527,.T.,#529,#524);
#531=IFCBOOLEANCLIPPINGRESULT(.DIFFERENCE.,#520,#530);
#532=IFCSTYLEDITEM(#520,(#235),$);
#533=IFCSHAPEREPRESENTATION(#24,'Body','Clipping',(#531));
#534=IFCPRODUCTDEFINITIONSHAPE($,$,(#515,#533));
#535=IFCWALL('2qyK1mN856S9I7fygAJStI',#18,'Basic Wall:Generic - 200mm:1608887',$,'Basic Wall:Generic - 200mm',#512,#534,'1608887',.NOTDEFINED.);
#536=IFCPROPERTYSET('0fSmQs6bIZHkeHUEkux$nm',#18,'Pset_EnvironmentalImpactIndicators',$,(#247));
#537=IFCPROPERTYSINGLEVALUE('Reference',$,IFCLABEL('Generic - 200mm'),$);
#538=IFCPROPERTYSET('3K3vEg6wOJdxrhEoLQ8HQ$',#18,'Pset_ReinforcementBarPitchOfWall',$,(#537));
#539=IFCPROPERTYSET('3UH$xlfTxhMJIqIvsjvPCl',#18,'Pset_WallCommon',$,(#247,#251,#252,#253));
#540=IFCRELDEFINESBYPROPERTIES('0Eh0aOyMw4TOH5m3R7hf7v',#18,$,$,(#535),#536);
#541=IFCRELDEFINESBYPROPERTIES('2RdPnv7V89Hi5cZ06qDop3',#18,$,$,(#535),#538);
#542=IFCRELDEFINESBYPROPERTIES('39R5_rjrsSwWxlDzgE9dYu',#18,$,$,(#535),#539);
#543=IFCCARTESIANPOINT((12700.,2700.,0.));
#544=IFCAXIS2PLACEMENT3D(#543,#9,#8);
#545=IFCLOCALPLACEMENT(#34,#544);
#546=IFCCARTESIANPOINT((2500.,0.));
#547=IFCPOLYLINE((#4,#546));
#548=IFCSHAPEREPRESENTATION(#23,'Axis','Curve2D',(#547));
#549=IFCCARTESIANPOINT((1250.,0.));
#550=IFCAXIS2PLACEMENT2D(#549,#12);
#551=IFCRECTANGLEPROFILEDEF(.AREA.,$,#550,2500.,199.999999999998);
#552=IFCAXIS2PLACEMENT3D(#3,$,$);
#553=IFCEXTRUDEDAREASOLID(#551,#552,#9,2700.);
#554=IFCCARTESIANPOINT((2500.,0.));
#555=IFCCARTESIANPOINT((2500.,200.));
#556=IFCCARTESIANPOINT((0.,200.));
#557=IFCPOLYLINE((#4,#554,#555,#556,#4));
#558=IFCCARTESIANPOINT((0.,-100.,2700.));
#559=IFCAXIS2PLACEMENT3D(#558,#10,#8);
#560=IFCPLANE(#559);
#561=IFCCARTESIANPOINT((0.,-100.,2700.));
#562=IFCAXIS2PLACEMENT3D(#561,$,$);
#563=IFCPOLYGONALBOUNDEDHALFSPACE(#560,.T.,#562,#557);
#564=IFCBOOLEANCLIPPINGRESULT(.DIFFERENCE.,#553,#563);
#565=IFCSTYLEDITEM(#553,(#235),$);
#566=IFCSHAPEREPRESENTATION(#24,'Body','Clipping',(#564));
#567=IFCPRODUCTDEFINITIONSHAPE($,$,(#548,#566));
#568=IFCWALL('2qyK1mN856S9I7fygAJStT',#18,'Basic Wall:Generic - 200mm:1608888',$,'Basic Wall:Generic - 200mm',#545,#567,'1608888',.NOTDEFINED.);
#569=IFCPROPERTYSET('1AWkJ2A9BM3Q3HJyBMHbql',#18,'Pset_EnvironmentalImpactIndicators',$,(#247));
#570=IFCPROPERTYSINGLEVALUE('Reference',$,IFCLABEL('Generic - 200mm'),$);
#571=IFCPROPERTYSET('1MW9sy5SzltO9g4I5oDVWL',#18,'Pset_ReinforcementBarPitchOfWall',$,(#570));
#572=IFCPROPERTYSET('0KGGTaV$lq1Fa4XBWNfKSJ',#18,'Pset_WallCommon',$,(#247,#251,#252,#253));
#573=IFCRELDEFINESBYPROPERTIES('13x5181v0lL1a6aXTJ8o_S',#18,$,$,(#568),#569);
#574=IFCRELDEFINESBYPROPERTIES('3d9vc0oFH3xmRcEdiN3K2_',#18,$,$,(#568),#571);
#575=IFCRELDEFINESBYPROPERTIES('27SjjC$LVeH7mMuFryVqlY',#18,$,$,(#568),#572);
#576=IFCCARTESIANPOINT((16900.,6300.,0.));
#577=IFCAXIS2PLACEMENT3D(#576,#9,#8);
#578=IFCLOCALPLACEMENT(#34,#577);
#579=IFCCARTESIANPOINT((2500.,0.));
#580=IFCPOLYLINE((#4,#579));
#581=IFCSHAPEREPRESENTATION(#23,'Axis','Curve2D',(#580));
#582=IFCCARTESIANPOINT((1250.,0.));
#583=IFCAXIS2PLACEMENT2D(#582,#12);
#584=IFCRECTANGLEPROFILEDEF(.AREA.,$,#583,2500.,200.000000000002);
#585=IFCAXIS2PLACEMENT3D(#3,$,$);
#586=IFCEXTRUDEDAREASOLID(#584,#585,#9,2700.);
#587=IFCCARTESIANPOINT((2500.,0.));
#588=IFCCARTESIANPOINT((2500.,200.));
#589=IFCCARTESIANPOINT((0.,200.));
#590=IFCPOLYLINE((#4,#587,#588,#589,#4));
#591=IFCCARTESIANPOINT((0.,-100.,2700.));
#592=IFCAXIS2PLACEMENT3D(#591,#10,#8);
#593=IFCPLANE(#592);
#594=IFCCARTESIANPOINT((0.,-100.,2700.));
#595=IFCAXIS2PLACEMENT3D(#594,$,$);
#596=IFCPOLYGONALBOUNDEDHALFSPACE(#593,.T.,#595,#590);
#597=IFCBOOLEANCLIPPINGRESULT(.DIFFERENCE.,#586,#596);
#598=IFCSTYLEDITEM(#586,(#235),$);
#599=IFCSHAPEREPRESENTATION(#24,'Body','Clipping',(#597));
#600=IFCPRODUCTDEFINITIONSHAPE($,$,(#581,#599));
#601=IFCWALL('2qyK1mN856S9I7fygAJSsj',#18,'Basic Wall:Generic - 200mm:1608904',$,'Basic Wall:Generic - 200mm',#578,#600,'1608904',.NOTDEFINED.);
#602=IFCPROPERTYSET('0z2UdalX8wJ9SRx$1b7puV',#18,'Pset_EnvironmentalImpactIndicators',$,(#247));
#603=IFCPROPERTYSINGLEVALUE('Reference',$,IFCLABEL('Generic - 200mm'),$);
#604=IFCPROPERTYSET('0wWsbAUUoe8B19Jd29qa7h',#18,'Pset_ReinforcementBarPitchOfWall',$,(#603));
#605=IFCPROPERTYSET('3fKzbZ03pWELG4bCYS5NWt',#18,'Pset_WallCommon',$,(#247,#251,#252,#253));
#606=IFCRELDEFINESBYPROPERTIES('17Enj8F6S$Z7wOImQDz6B2',#18,$,$,(#601),#602);
#607=IFCRELDEFINESBYPROPERTIES('12b6VYMk9lySn$neG0dYs9',#18,$,$,(#601),#604);
#608=IFCRELDEFINESBYPROPERTIES('3lWvKfpnMuiCzUc5xoQiLp',#18,$,$,(#601),#605);
#609=IFCCARTESIANPOINT((16900.,2700.,0.));
#610=IFCAXIS2PLACEMENT3D(#609,#9,#8);
#611=IFCLOCALPLACEMENT(#34,#610);
#612=IFCCARTESIANPOINT((2500.,0.));
#613=IFCPOLYLINE((#4,#612));
#614=IFCSHAPEREPRESENTATION(#23,'Axis','Curve2D',(#613));
#615=IFCCARTESIANPOINT((1250.,0.));
#616=IFCAXIS2PLACEMENT2D(#615,#12);
#617=IFCRECTANGLEPROFILEDEF(.AREA.,$,#616,2500.,200.000000000002);
#618=IFCAXIS2PLACEMENT3D(#3,$,$);
#619=IFCEXTRUDEDAREASOLID(#617,#618,#9,2700.);
#620=IFCCARTESIANPOINT((2500.,0.));
#621=IFCCARTESIANPOINT((2500.,200.));
#622=IFCCARTESIANPOINT((0.,200.));
#623=IFCPOLYLINE((#4,#620,#621,#622,#4));
#624=IFCCARTESIANPOINT((0.,-100.,2700.));
#625=IFCAXIS2PLACEMENT3D(#624,#10,#8);
#626=IFCPLANE(#625);
#627=IFCCARTESIANPOINT((0.,-100.,2700.));
#628=IFCAXIS2PLACEMENT3D(#627,$,$);
#629=IFCPOLYGONALBOUNDEDHALFSPACE(#626,.T.,#628,#623);
#630=IFCBOOLEANCLIPPINGRESULT(.DIFFERENCE.,#619,#629);
#631=IFCSTYLEDITEM(#619,(#235),$);
#632=IFCSHAPEREPRESENTATION(#24,'Body','Clipping',(#630));
#633=IFCPRODUCTDEFINITIONSHAPE($,$,(#614,#632));
#634=IFCWALL('2qyK1mN856S9I7fygAJSsi',#18,'Basic Wall:Generic - 200mm:1608905',$,'Basic Wall:Generic - 200mm',#611,#633,'1608905',.NOTDEFINED.);
#635=IFCPROPERTYSET('0U80wQFaN3yla$gutibQpb',#18,'Pset_EnvironmentalImpactIndicators',$,(#247));
#636=IFCPROPERTYSINGLEVALUE('Reference',$,IFCLABEL('Generic - 200mm'),$);
#637=IFCPROPERTYSET('1X7VdPMbXZ75hU9uHjppBw',#18,'Pset_ReinforcementBarPitchOfWall',$,(#636));
#638=IFCPROPERTYSET('09PdSRfUp3cF1aB3lsTBrS',#18,'Pset_WallCommon',$,(#247,#251,#252,#253));
#639=IFCRELDEFINESBYPROPERTIES('0h2jxGdfkS9undXJooR3eB',#18,$,$,(#634),#635);
#640=IFCRELDEFINESBYPROPERTIES('1_Z63Al$1cw$qQIJW0IRbJ',#18,$,$,(#634),#637);
#641=IFCRELDEFINESBYPROPERTIES('20CpJG7vQ4sxEoM8iSuhy7',#18,$,$,(#634),#638);
#642=IFCCARTESIANPOINT((10600.,4000.,0.));
#643=IFCAXIS2PLACEMENT3D(#642,#9,#8);
#644=IFCLOCALPLACEMENT(#34,#643);
#645=IFCCARTESIANPOINT((1500.,-0.));
#646=IFCPOLYLINE((#4,#645));
#647=IFCSHAPEREPRESENTATION(#23,'Axis','Curve2D',(#646));
#648=IFCCARTESIANPOINT((750.,-8.66862137627322E-13));
#649=IFCAXIS2PLACEMENT2D(#648,#12);
#650=IFCRECTANGLEPROFILEDEF(.AREA.,$,#649,1500.,199.999999999998);
#651=IFCAXIS2PLACEMENT3D(#3,$,$);
#652=IFCEXTRUDEDAREASOLID(#650,#651,#9,2700.);
#653=IFCCARTESIANPOINT((1500.,-0.));
#654=IFCCARTESIANPOINT((1500.,200.));
#655=IFCCARTESIANPOINT((0.,200.));
#656=IFCPOLYLINE((#4,#653,#654,#655,#4));
#657=IFCCARTESIANPOINT((0.,-100.,2700.));
#658=IFCAXIS2PLACEMENT3D(#657,#10,#8);
#659=IFCPLANE(#658);
#660=IFCCARTESIANPOINT((0.,-100.,2700.));
#661=IFCAXIS2PLACEMENT3D(#660,$,$);
#662=IFCPOLYGONALBOUNDEDHALFSPACE(#659,.T.,#661,#656);
#663=IFCBOOLEANCLIPPINGRESULT(.DIFFERENCE.,#652,#662);
#664=IFCSTYLEDITEM(#652,(#235),$);
#665=IFCSHAPEREPRESENTATION(#24,'Body','Clipping',(#663));
#666=IFCPRODUCTDEFINITIONSHAPE($,$,(#647,#665));
#667=IFCWALL('2qyK1mN856S9I7fygAJSn3',#18,'Basic Wall:Generic - 200mm:1608998',$,'Basic Wall:Generic - 200mm',#644,#666,'1608998',.NOTDEFINED.);
#668=IFCPROPERTYSET('3$VaTxyBAAed3idBMpAGdj',#18,'Pset_EnvironmentalImpactIndicators',$,(#247));
#669=IFCPROPERTYSINGLEVALUE('Reference',$,IFCLABEL('Generic - 200mm'),$);
#670=IFCPROPERTYSET('0S7CdpXpoRfxRU82kY2SB6',#18,'Pset_ReinforcementBarPitchOfWall',$,(#669));
#671=IFCPROPERTYSET('2MvyMYp6CIhdGPCo6c2e0o',#18,'Pset_WallCommon',$,(#247,#251,#252,#253));
#672=IFCRELDEFINESBYPROPERTIES('2_gqG3dQnEvGCY4trJZiqW',#18,$,$,(#667),#668);
#673=IFCRELDEFINESBYPROPERTIES('1I1DgG0$9B586OiiuI5jOL',#18,$,$,(#667),#670);
#674=IFCRELDEFINESBYPROPERTIES('3KEd3uCkoWmL6MdXllhNKt',#18,$,$,(#667),#671);
#675=IFCCARTESIANPOINT((6400.,4000.,0.));
#676=IFCAXIS2PLACEMENT3D(#675,#9,#7);
#677=IFCLOCALPLACEMENT(#34,#676);
#678=IFCCARTESIANPOINT((1500.,-0.));
#679=IFCPOLYLINE((#4,#678));
#680=IFCSHAPEREPRESENTATION(#23,'Axis','Curve2D',(#679));
#681=IFCCARTESIANPOINT((750.,-6.3948846218409E-14));
#682=IFCAXIS2PLACEMENT2D(#681,#12);
#683=IFCRECTANGLEPROFILEDEF(.AREA.,$,#682,1500.,200.);
#684=IFCAXIS2PLACEMENT3D(#3,$,$);
#685=IFCEXTRUDEDAREASOLID(#683,#684,#9,2700.);
#686=IFCCARTESIANPOINT((1500.,-0.));
#687=IFCCARTESIANPOINT((1500.,200.));
#688=IFCCARTESIANPOINT((0.,200.));
#689=IFCPOLYLINE((#4,#686,#687,#688,#4));
#690=IFCCARTESIANPOINT((0.,-100.,2700.));
#691=IFCAXIS2PLACEMENT3D(#690,#10,#7);
#692=IFCPLANE(#691);
#693=IFCCARTESIANPOINT((0.,-100.,2700.));
#694=IFCAXIS2PLACEMENT3D(#693,$,$);
#695=IFCPOLYGONALBOUNDEDHALFSPACE(#692,.T.,#694,#689);
#696=IFCBOOLEANCLIPPINGRESULT(.DIFFERENCE.,#685,#695);
#697=IFCSTYLEDITEM(#685,(#235),$);
#698=IFCSHAPEREPRESENTATION(#24,'Body','Clipping',(#696));
#699=IFCPRODUCTDEFINITIONSHAPE($,$,(#680,#698));
#700=IFCWALL('2qyK1mN856S9I7fygAJSxi',#18,'Basic Wall:Generic - 200mm:1609609',$,'Basic Wall:Generic - 200mm',#677,#699,'1609609',.NOTDEFINED.);
#701=IFCPROPERTYSET('31we053GOMP3x$fAJAuXSW',#18,'Pset_EnvironmentalImpactIndicators',$,(#247));
#702=IFCPROPERTYSINGLEVALUE('Reference',$,IFCLABEL('Generic - 200mm'),$);
#703=IFCPROPERTYSET('1kmYIR87DnucyrHUkWYZkm',#18,'Pset_ReinforcementBarPitchOfWall',$,(#702));
#704=IFCPROPERTYSET('1HdQR1dRf4FJNG8se1qp5E',#18,'Pset_WallCommon',$,(#247,#251,#252,#253));
#705=IFCRELDEFINESBYPROPERTIES('3N58ckO1lAVH9btehcT$vB',#18,$,$,(#700),#701);
#706=IFCRELDEFINESBYPROPERTIES('1Cxe9_MPtn8xCYK2RirPwL',#18,$,$,(#700),#703);
#707=IFCRELDEFINESBYPROPERTIES('0F1tnUMVarODdAWIPNKbM8',#18,$,$,(#700),#704);
#708=IFCCARTESIANPOINT((19600.,2500.,0.));
#709=IFCAXIS2PLACEMENT3D(#708,#9,#7);
#710=IFCLOCALPLACEMENT(#34,#709);
#711=IFCCARTESIANPOINT((1500.,0.));
#712=IFCPOLYLINE((#4,#711));
#713=IFCSHAPEREPRESENTATION(#23,'Axis','Curve2D',(#712));
#714=IFCCARTESIANPOINT((750.,-6.3948846218409E-14));
#715=IFCAXIS2PLACEMENT2D(#714,#12);
#716=IFCRECTANGLEPROFILEDEF(.AREA.,$,#715,1500.,199.999999999996);
#717=IFCAXIS2PLACEMENT3D(#3,$,$);
#718=IFCEXTRUDEDAREASOLID(#716,#717,#9,2700.);
#719=IFCCARTESIANPOINT((1500.,0.));
#720=IFCCARTESIANPOINT((1500.,200.));
#721=IFCCARTESIANPOINT((0.,200.));
#722=IFCPOLYLINE((#4,#719,#720,#721,#4));
#723=IFCCARTESIANPOINT((0.,-100.,2700.));
#724=IFCAXIS2PLACEMENT3D(#723,#10,#7);
#725=IFCPLANE(#724);
#726=IFCCARTESIANPOINT((0.,-100.,2700.));
#727=IFCAXIS2PLACEMENT3D(#726,$,$);
#728=IFCPOLYGONALBOUNDEDHALFSPACE(#725,.T.,#727,#722);
#729=IFCBOOLEANCLIPPINGRESULT(.DIFFERENCE.,#718,#728);
#730=IFCSTYLEDITEM(#718,(#235),$);
#731=IFCSHAPEREPRESENTATION(#24,'Body','Clipping',(#729));
#732=IFCPRODUCTDEFINITIONSHAPE($,$,(#713,#731));
#733=IFCWALL('2qyK1mN856S9I7fygAJT4K',#18,'Basic Wall:Generic - 200mm:1609841',$,'Basic Wall:Generic - 200mm',#710,#732,'1609841',.NOTDEFINED.);
#734=IFCPROPERTYSET('3O7XS4qWsnRkcFAx2GbcRn',#18,'Pset_EnvironmentalImpactIndicators',$,(#247));
#735=IFCPROPERTYSINGLEVALUE('Reference',$,IFCLABEL('Generic - 200mm'),$);
#736=IFCPROPERTYSET('2S2_CQLOL90xNgWSCsRnnu',#18,'Pset_ReinforcementBarPitchOfWall',$,(#735));
#737=IFCPROPERTYSET('1Vro64dehqohWmoGx3gvJO',#18,'Pset_WallCommon',$,(#247,#251,#252,#253));
#738=IFCRELDEFINESBYPROPERTIES('0JesSX9MDxoGWYDbCknoDh',#18,$,$,(#733),#734);
#739=IFCRELDEFINESBYPROPERTIES('0wQQg7HKknsO1pB1xuQ7BK',#18,$,$,(#733),#736);
#740=IFCRELDEFINESBYPROPERTIES('3yxAD1eWTvLt5QdwN71lou',#18,$,$,(#733),#737);
#741=IFCCARTESIANPOINT((14100.,2600.,0.));
#742=IFCAXIS2PLACEMENT3D(#741,$,$);
#743=IFCLOCALPLACEMENT(#34,#742);
#744=IFCCARTESIANPOINT((1500.,0.));
#745=IFCPOLYLINE((#4,#744));
#746=IFCSHAPEREPRESENTATION(#23,'Axis','Curve2D',(#745));
#747=IFCCARTESIANPOINT((750.000000000001,1.4210854715202E-14));
#748=IFCAXIS2PLACEMENT2D(#747,#12);
#749=IFCRECTANGLEPROFILEDEF(.AREA.,$,#748,1500.,200.);
#750=IFCAXIS2PLACEMENT3D(#3,$,$);
#751=IFCEXTRUDEDAREASOLID(#749,#750,#9,2700.);
#752=IFCCARTESIANPOINT((1500.,0.));
#753=IFCCARTESIANPOINT((1500.,200.));
#754=IFCCARTESIANPOINT((-0.,200.));
#755=IFCPOLYLINE((#4,#752,#753,#754,#4));
#756=IFCCARTESIANPOINT((0.,-100.,2700.));
#757=IFCAXIS2PLACEMENT3D(#756,#10,#6);
#758=IFCPLANE(#757);
#759=IFCCARTESIANPOINT((0.,-100.,2700.));
#760=IFCAXIS2PLACEMENT3D(#759,$,$);
#761=IFCPOLYGONALBOUNDEDHALFSPACE(#758,.T.,#760,#755);
#762=IFCBOOLEANCLIPPINGRESULT(.DIFFERENCE.,#751,#761);
#763=IFCSTYLEDITEM(#751,(#235),$);
#764=IFCSHAPEREPRESENTATION(#24,'Body','Clipping',(#762));
#765=IFCPRODUCTDEFINITIONSHAPE($,$,(#746,#764));
#766=IFCWALL('2qyK1mN856S9I7fygAJT6I',#18,'Basic Wall:Generic - 200mm:1609975',$,'Basic Wall:Generic - 200mm',#743,#765,'1609975',.NOTDEFINED.);
#767=IFCPROPERTYSET('2t_GFMXdfteqsmK9AAFBha',#18,'Pset_EnvironmentalImpactIndicators',$,(#247));
#768=IFCPROPERTYSINGLEVALUE('Reference',$,IFCLABEL('Generic - 200mm'),$);
#769=IFCPROPERTYSET('3NqYAo0G1jZ_ycWCwUo292',#18,'Pset_ReinforcementBarPitchOfWall',$,(#768));
#770=IFCPROPERTYSET('3H0Wi8lPQYxWPsvzU1em5Q',#18,'Pset_WallCommon',$,(#247,#251,#252,#253));
#771=IFCRELDEFINESBYPROPERTIES('0$sw2AbVqMkJqu13Dj8iFu',#18,$,$,(#766),#767);
#772=IFCRELDEFINESBYPROPERTIES('1FQC8HTOnQ96fA6PxUxSY7',#18,$,$,(#766),#769);
#773=IFCRELDEFINESBYPROPERTIES('2OiCtQZC44G9mJYpHUT23q',#18,$,$,(#766),#770);
#774=IFCAXIS2PLACEMENT3D(#3,$,$);
#775=IFCLOCALPLACEMENT(#38,#774);
#776=IFCCARTESIANPOINT((0.,0.));
#777=IFCAXIS2PLACEMENT2D(#776,#11);
#778=IFCRECTANGLEPROFILEDEF(.AREA.,$,#777,6499.99999999999,21200.);
#779=IFCCARTESIANPOINT((10600.,3250.,0.));
#780=IFCAXIS2PLACEMENT3D(#779,#10,#7);
#781=IFCEXTRUDEDAREASOLID(#778,#780,#9,300.);
#782=IFCCOLOURRGB($,0.501960784313725,0.501960784313725,0.501960784313725);
#783=IFCSURFACESTYLERENDERING(#782,0.,$,$,$,$,IFCNORMALISEDRATIOMEASURE(0.5),IFCSPECULAREXPONENT(10.),.NOTDEFINED.);
#784=IFCSURFACESTYLE('Default Floor',.BOTH.,(#783));
#785=IFCSTYLEDITEM(#781,(#784),$);
#786=IFCSHAPEREPRESENTATION(#24,'Body','SweptSolid',(#781));
#787=IFCPRODUCTDEFINITIONSHAPE($,$,(#786));
#788=IFCSLAB('2qyK1mN856S9I7fygAJT9j',#18,'Floor:Generic 300mm:1610504',$,'Floor:Generic 300mm',#775,#787,'1610504',.FLOOR.);
#789=IFCSLABTYPE('2G9mo_Rg17ee$DE9j_ga52',#18,'Floor:Generic 300mm',$,$,(#808),$,'1439244',$,.FLOOR.);
#790=IFCMATERIAL('Default Floor',$,'Miscellaneous');
#791=IFCSTYLEDITEM($,(#784),$);
#792=IFCSTYLEDREPRESENTATION(#22,'Style','Material',(#791));
#793=IFCMATERIALDEFINITIONREPRESENTATION($,$,(#792),#790);
#794=IFCMATERIALLAYER(#790,300.,$,'Layer',$,'Miscellaneous',$);
#795=IFCMATERIALLAYERSET((#794),'Floor:Generic 300mm',$);
#796=IFCMATERIALLAYERSETUSAGE(#795,.AXIS3.,.POSITIVE.,0.,$);
#797=IFCPROPERTYSINGLEVALUE('Reference',$,IFCIDENTIFIER('Generic 300mm'),$);
#798=IFCPROPERTYSET('0i_Bw5bs796LClfwbvWEmL',#18,'Pset_EnvironmentalImpactIndicators',$,(#797));
#799=IFCPROPERTYSINGLEVALUE('Reference',$,IFCLABEL('Generic 300mm'),$);
#800=IFCPROPERTYSET('1$xOWdUzPx4a_71xqhkx8u',#18,'Pset_ReinforcementBarPitchOfSlab',$,(#799));
#801=IFCPROPERTYSINGLEVALUE('PitchAngle',$,IFCPLANEANGLEMEASURE(0.),$);
#802=IFCPROPERTYSINGLEVALUE('LoadBearing',$,IFCBOOLEAN(.T.),$);
#803=IFCPROPERTYSET('0TJIcA6beheKa8FId9xku$',#18,'Pset_SlabCommon',$,(#45,#797,#801,#802));
#804=IFCRELDEFINESBYPROPERTIES('1W3OPlAMx6KKIJha1GfC5_',#18,$,$,(#788),#798);
#805=IFCRELDEFINESBYPROPERTIES('2Qt8Ht4mUqeoOboLHCS8LX',#18,$,$,(#788),#800);
#806=IFCRELDEFINESBYPROPERTIES('3QJ8K0sQdqpwEOrcQVMjZf',#18,$,$,(#788),#803);
#807=IFCPROPERTYSINGLEVALUE('Description',$,IFCTEXT('Generic Floor (Material By Category), 300mm thick'),$);
#808=IFCPROPERTYSET('0ch2Rz4MMxlBDWQKk_uOQt',#18,'Pset_ReinforcementBarPitchOfSlab',$,(#807));
#809=IFCCARTESIANPOINT((6400.,2500.,0.));
#810=IFCAXIS2PLACEMENT3D(#809,#9,#8);
#811=IFCLOCALPLACEMENT(#34,#810);
#812=IFCCARTESIANPOINT((1500.,0.));
#813=IFCPOLYLINE((#4,#812));
#814=IFCSHAPEREPRESENTATION(#23,'Axis','Curve2D',(#813));
#815=IFCCARTESIANPOINT((750.,8.5265128291212E-14));
#816=IFCAXIS2PLACEMENT2D(#815,#12);
#817=IFCRECTANGLEPROFILEDEF(.AREA.,$,#816,1500.,200.);
#818=IFCAXIS2PLACEMENT3D(#3,$,$);
#819=IFCEXTRUDEDAREASOLID(#817,#818,#9,2700.);
#820=IFCCARTESIANPOINT((1500.,0.));
#821=IFCCARTESIANPOINT((1500.,200.));
#822=IFCCARTESIANPOINT((0.,200.));
#823=IFCPOLYLINE((#4,#820,#821,#822,#4));
#824=IFCCARTESIANPOINT((0.,-100.,2700.));
#825=IFCAXIS2PLACEMENT3D(#824,#10,#8);
#826=IFCPLANE(#825);
#827=IFCCARTESIANPOINT((0.,-100.,2700.));
#828=IFCAXIS2PLACEMENT3D(#827,$,$);
#829=IFCPOLYGONALBOUNDEDHALFSPACE(#826,.T.,#828,#823);
#830=IFCBOOLEANCLIPPINGRESULT(.DIFFERENCE.,#819,#829);
#831=IFCSTYLEDITEM(#819,(#235),$);
#832=IFCSHAPEREPRESENTATION(#24,'Body','Clipping',(#830));
#833=IFCPRODUCTDEFINITIONSHAPE($,$,(#814,#832));
#834=IFCWALL('0lWtn2si90yBFU_do1rQbu',#18,'Basic Wall:Generic - 200mm:1610624',$,'Basic Wall:Generic - 200mm',#811,#833,'1610624',.NOTDEFINED.);
#835=IFCPROPERTYSET('3K48kSqqML51oRT6VmsNyi',#18,'Pset_EnvironmentalImpactIndicators',$,(#247));
#836=IFCPROPERTYSINGLEVALUE('Reference',$,IFCLABEL('Generic - 200mm'),$);
#837=IFCPROPERTYSET('2RdZqy0g37Mp4m8vr3acMC',#18,'Pset_ReinforcementBarPitchOfWall',$,(#836));
#838=IFCPROPERTYSET('1cXXYWccDC6mF5CoMd9Qvq',#18,'Pset_WallCommon',$,(#247,#251,#252,#253));
#839=IFCRELDEFINESBYPROPERTIES('1XLJ9tV1aF3nXf7XqAZfUd',#18,$,$,(#834),#835);
#840=IFCRELDEFINESBYPROPERTIES('0vnV9x73cRSv$1JITBoaCg',#18,$,$,(#834),#837);
#841=IFCRELDEFINESBYPROPERTIES('3pWEHS07p2gsdYbmw5Z3JD',#18,$,$,(#834),#838);
#842=IFCPROPERTYSINGLEVALUE('Reference',$,IFCIDENTIFIER('8mm Head'),$);
#843=IFCPROPERTYSINGLEVALUE('AboveGround',$,IFCLOGICAL(.U.),$);
#844=IFCPROPERTYSET('16L50AfyZF4hYq5TGET4H4',#18,'Pset_BuildingStoreyCommon',$,(#842,#843));
#845=IFCPROPERTYSET('2J7ac_h5ujdwWuzVwBIIta',#18,'Pset_SpaceCommon',$,(#45,#842));
#846=IFCRELDEFINESBYPROPERTIES('2VdfSfkgzGoZi_3SgzE8$0',#18,$,$,(#35),#844);
#847=IFCRELDEFINESBYPROPERTIES('3$YdOpA8iaPobC8MDiWxoI',#18,$,$,(#35),#845);
#848=IFCRELCONTAINEDINSPATIALSTRUCTURE('2JF4e6axWHqu3u0C5FZlmi',#18,$,$,(#239,#295,#329,#370,#403,#436,#469,#502,#535,#568,#601,#634,#667,#700,#733,#766,#834),#35);
#849=IFCPROPERTYSET('1n34enW33Z_3Qq2Pm1kjQZ',#18,'Pset_BuildingStoreyCommon',$,(#842,#843));
#850=IFCPROPERTYSET('0qNc4$IaPwTvoqOd7IlIE4',#18,'Pset_SpaceCommon',$,(#45,#842));
#851=IFCRELDEFINESBYPROPERTIES('36oM8gyLQ5_Z6XoGK5uP1E',#18,$,$,(#39),#849);
#852=IFCRELDEFINESBYPROPERTIES('0jA6Vdz$3CfPvu_I1iTL6J',#18,$,$,(#39),#850);
#853=IFCRELCONTAINEDINSPATIALSTRUCTURE('1ZGO8hrFCHqw0v0066FpFv',#18,$,$,(#788),#39);
#854=IFCRELAGGREGATES('2KFB6YYWgXBmucZ8cm7uCP',#18,$,$,#27,(#42));
#855=IFCRELAGGREGATES('16_hfJTeCqU7LcG8m10BTS',#18,$,$,#42,(#32));
#856=IFCRELAGGREGATES('2JF4e6axWHqu3u0C9FZlmi',#18,$,$,#35,(#77,#113,#144,#175,#202));
#857=IFCRELAGGREGATES('1yhDISh1T5aQqAoygxGIhP',#18,$,$,#32,(#35,#39));
#858=IFCPROPERTYSINGLEVALUE('NumberOfStoreys',$,IFCCOUNTMEASURE(2),$);
#859=IFCPROPERTYSINGLEVALUE('IsLandmarked',$,IFCLOGICAL(.U.),$);
#860=IFCPROPERTYSET('01y_GmllCupEYuBgfGbhkd',#18,'Pset_BuildingCommon',$,(#43,#858,#859));
#861=IFCPROPERTYSET('1rUR7OGyIAkZT62xvibLnd',#18,'Pset_BuildingElementProxyCommon',$,(#43,#45));
#862=IFCPROPERTYSET('2kFDjjfIaTsBi7MLK$i$Me',#18,'Pset_BuildingStoreyCommon',$,(#43,#843));
#863=IFCPROPERTYSET('1TYvb3FgH88mtl04iE5P1T',#18,'Pset_BuildingSystemCommon',$,(#43));
#864=IFCPROPERTYSET('2W94HCj5xfigmNGtkBMklk',#18,'Pset_SpaceCommon',$,(#43,#45));
#865=IFCRELDEFINESBYPROPERTIES('0vDjba2fshDEh0_KufwWht',#18,$,$,(#32),#860);
#866=IFCRELDEFINESBYPROPERTIES('1V6UQfELB4oPy3GPEaJMPw',#18,$,$,(#32),#861);
#867=IFCRELDEFINESBYPROPERTIES('0Vpd75HttOMIhzXutBGgCt',#18,$,$,(#32),#862);
#868=IFCRELDEFINESBYPROPERTIES('22VMRBFW9n6_S81yWIP225',#18,$,$,(#32),#863);
#869=IFCRELDEFINESBYPROPERTIES('2w3bzVlKnfBVjA3_BjG2II',#18,$,$,(#32),#864);
#870=IFCRELASSOCIATESMATERIAL('1o7uguVVwt4wgUYEfEHazx',#18,$,$,(#788),#796);
#871=IFCRELASSOCIATESMATERIAL('22T9r9KB1F3JFgePfxkUGp',#18,$,$,(#239,#246,#295,#329,#370,#403,#436,#469,#502,#535,#568,#601,#634,#667,#700,#733,#766,#834),#245);
#872=IFCRELASSOCIATESMATERIAL('0QfjMRWx0N0AraD35Xcprq',#18,$,$,(#789),#795);
#873=IFCRELDEFINESBYTYPE('2WvRSbKkaIjT78MXPJYT_9',#18,$,$,(#77),#78);
#874=IFCRELDEFINESBYTYPE('0MWlt1WHG$Zxl2RCCMblK$',#18,$,$,(#113),#114);
#875=IFCRELDEFINESBYTYPE('0bJTIeWp9qWix4sb7dmWiq',#18,$,$,(#144),#145);
#876=IFCRELDEFINESBYTYPE('1Elh0Bxaywgq2AD0dQaeYW',#18,$,$,(#175),#176);
#877=IFCRELDEFINESBYTYPE('0HngubLaO61yiA$yCzGPJM',#18,$,$,(#202),#203);
#878=IFCRELDEFINESBYTYPE('0MSq_ijuC5q4PUKv4QkOsA',#18,$,$,(#239,#295,#329,#370,#403,#436,#469,#502,#535,#568,#601,#634,#667,#700,#733,#766,#834),#246);
#879=IFCRELDEFINESBYTYPE('1bgurferyyrfEx97ISVVLa',#18,$,$,(#788),#789);
#880=IFCRELCONNECTSPATHELEMENTS('2wo$ZOnbd_djFwxRH3FkNp',#18,'2qyK1mN856S9I7fygAJSjc|2qyK1mN856S9I7fygAJSkf','Structural',$,#239,#370,(),(),.ATEND.,.ATSTART.);
#881=IFCRELCONNECTSPATHELEMENTS('370MgFu9mRXjxWb4gsZX9z',#18,'2qyK1mN856S9I7fygAJSjc|2qyK1mN856S9I7fygAJSir','Structural',$,#239,#295,(),(),.ATSTART.,.ATEND.);
#882=IFCRELCONNECTSPATHELEMENTS('3nzEVUo6f4mPiRNvClx9yC',#18,'2qyK1mN856S9I7fygAJSir|2qyK1mN856S9I7fygAJSll','Structural',$,#295,#329,(),(),.ATSTART.,.ATEND.);
#883=IFCRELCONNECTSPATHELEMENTS('1dW7M_yZMK4a7Fn4SIRKwB',#18,'2qyK1mN856S9I7fygAJSll|2qyK1mN856S9I7fygAJSkf','Structural',$,#329,#370,(),(),.ATSTART.,.ATEND.);
#884=IFCRELCONNECTSPATHELEMENTS('2q$xmOB3x0gaPEVqX73nyd',#18,'2qyK1mN856S9I7fygAJSkf|2qyK1mN856S9I7fygAJShW','Structural',$,#370,#403,(),(),.ATSTART.,.ATPATH.);
#885=IFCRELCONNECTSPATHELEMENTS('1_gbTG8VVfyUCGKnLsn6Pj',#18,'2qyK1mN856S9I7fygAJSir|2qyK1mN856S9I7fygAJSgd','Structural',$,#295,#436,(),(),.ATEND.,.ATPATH.);
#886=IFCRELCONNECTSPATHELEMENTS('0Zl58Jwt61wvsBKubtNcaP',#18,'2qyK1mN856S9I7fygAJSkf|2qyK1mN856S9I7fygAJSt3','Structural',$,#370,#469,(),(),.ATSTART.,.ATPATH.);
#887=IFCRELCONNECTSPATHELEMENTS('3VTMIx9e0OB7fp2ADlJLj6',#18,'2qyK1mN856S9I7fygAJSir|2qyK1mN856S9I7fygAJSt2','Structural',$,#295,#502,(),(),.ATEND.,.ATPATH.);
#888=IFCRELCONNECTSPATHELEMENTS('39SQ_kyhBQICQdRcZlAWEI',#18,'2qyK1mN856S9I7fygAJSkf|2qyK1mN856S9I7fygAJStI','Structural',$,#370,#535,(),(),.ATSTART.,.ATPATH.);
#889=IFCRELCONNECTSPATHELEMENTS('3d0birXbuAqoGTfRwMs3Qz',#18,'2qyK1mN856S9I7fygAJSir|2qyK1mN856S9I7fygAJStT','Structural',$,#295,#568,(),(),.ATEND.,.ATPATH.);
#890=IFCRELCONNECTSPATHELEMENTS('2Zq2Jd3pJkvZGnK1A8DQ9D',#18,'2qyK1mN856S9I7fygAJSkf|2qyK1mN856S9I7fygAJSsj','Structural',$,#370,#601,(),(),.ATSTART.,.ATPATH.);
#891=IFCRELCONNECTSPATHELEMENTS('0lwm6UadpdDo_rQXrMhDpe',#18,'2qyK1mN856S9I7fygAJSir|2qyK1mN856S9I7fygAJSsi','Structural',$,#295,#634,(),(),.ATEND.,.ATPATH.);
#892=IFCPRESENTATIONLAYERASSIGNMENT('A-AREA-____-OTLN',$,(#75,#111,#142,#173,#200),$);
#893=IFCPRESENTATIONLAYERASSIGNMENT('A-WALL-____-OTLN',$,(#214,#237,#266,#293,#308,#327,#342,#368,#383,#401,#416,#434,#449,#467,#482,#500,#515,#533,#548,#566,#581,#599,#614,#632,#647,#665,#680,#698,#713,#731,#746,#764,#814,#832),$);
#894=IFCPRESENTATIONLAYERASSIGNMENT('A-FLOR-____-OTLN',$,(#786),$);
#895=IFCRELASSOCIATESCLASSIFICATION('1SunGGT$c7J6roWv$e1M9n',#18,'Exterior Walls','Exterior Walls:B2010',(#239,#295,#329,#370,#403,#436,#469,#502,#535,#568,#601,#634,#667,#700,#733,#766,#834),#258);
#896=IFCUNITASSIGNMENT((#19,#73,#74));
ENDSEC;
END-ISO-10303-21;
