ISO-10303-21;
HEADER;
FILE_DESCRIPTION(('ViewDefinition [CoordinationView]','RevitIdentifiers [ContentGUID: cbb0ae2e-6350-4225-8ca4-af668662c38d, VersionGUID: 2c7c459e-8c7a-4c39-88ea-38d95e344813, NumberOfSaves: 35]','CoordinateReference [CoordinateBase: Shared Coordinates]'),'2;1');
FILE_NAME('01_03_003.ifc','2026-01-07T20:57:19+01:00',(''),(''),'ODA SDAI 24.6','Autodesk Revit 24.3.30.11 (ENU) - IFC 24.3.30.11','');
FILE_SCHEMA(('IFC4X3'));
ENDSEC;
DATA;
#1=IFCORGANIZATION($,'Autodesk Revit 2024 (ENU)',$,$,$);
#2=IFCAPPLICATION(#1,'2024','Autodesk Revit 2024 (ENU)','Revit');
#3=IFCCARTESIANPOINT((0.,0.,0.));
#4=IFCCARTESIANPOINT((0.,0.));
#5=IFCDIRECTION((1.,0.,0.));
#6=IFCDIRECTION((-1.,0.,0.));
#7=IFCDIRECTION((0.,1.,0.));
#8=IFCDIRECTION((0.,-1.,0.));
#9=IFCDIRECTION((0.,0.,1.));
#10=IFCDIRECTION((0.,0.,-1.));
#11=IFCDIRECTION((1.,0.));
#12=IFCDIRECTION((-1.,0.));
#13=IFCDIRECTION((0.,1.));
#14=IFCDIRECTION((0.,-1.));
#15=IFCPERSON($,'','h.helming',$,$,$,$,$);
#16=IFCORGANIZATION($,'Organization Name','Organization Description',$,$);
#17=IFCPERSONANDORGANIZATION(#15,#16,$);
#18=IFCOWNERHISTORY(#17,#2,$,.NOCHANGE.,$,$,$,1767804389);
#19=IFCSIUNIT(*,.LENGTHUNIT.,.MILLI.,.METRE.);
#20=IFCAXIS2PLACEMENT3D(#3,$,$);
#21=IFCDIRECTION((6.12303176911189E-17,1.));
#22=IFCGEOMETRICREPRESENTATIONCONTEXT($,'Model',3,0.01,#20,#21);
#23=IFCGEOMETRICREPRESENTATIONSUBCONTEXT('Axis','Model',*,*,*,*,#22,$,.GRAPH_VIEW.,$);
#24=IFCGEOMETRICREPRESENTATIONSUBCONTEXT('Body','Model',*,*,*,*,#22,$,.MODEL_VIEW.,$);
#25=IFCGEOMETRICREPRESENTATIONSUBCONTEXT('Box','Model',*,*,*,*,#22,$,.MODEL_VIEW.,$);
#26=IFCGEOMETRICREPRESENTATIONSUBCONTEXT('FootPrint','Model',*,*,*,*,#22,$,.MODEL_VIEW.,$);
#27=IFCPROJECT('3BiAukOr129OoahsPvdJnz',#18,'Project Number',$,$,'Project Name','Project Status',(#22),#781);
#28=IFCCLASSIFICATION('CSI (Construction Specifications Institute)','1998',$,'Uniformat','UniFormat Classification','https://www.csiresources.org/standards/uniformat',$);
#29=IFCAXIS2PLACEMENT3D(#3,$,$);
#30=IFCLOCALPLACEMENT(#41,#29);
#31=IFCPOSTALADDRESS($,$,$,$,('Enter address hereAddress Line 2'),$,'','Boston','','MA');
#32=IFCBUILDING('3BiAukOr129OoahsPvdJny',#18,'Building Name',$,$,#30,$,'Building Name',.ELEMENT.,$,$,#31);
#33=IFCAXIS2PLACEMENT3D(#3,$,$);
#34=IFCLOCALPLACEMENT(#30,#33);
#35=IFCBUILDINGSTOREY('2JF4e6axWHqu3u0C1FZlmi',#18,'L1',$,'Level:8mm Head',#34,$,'L1',.ELEMENT.,0.);
#36=IFCCARTESIANPOINT((0.,0.,3000.));
#37=IFCAXIS2PLACEMENT3D(#36,$,$);
#38=IFCLOCALPLACEMENT(#30,#37);
#39=IFCBUILDINGSTOREY('1ZGO8hrFCHqw0v0026FpFv',#18,'L2',$,'Level:8mm Head',#38,$,'L2',.ELEMENT.,3000.);
#40=IFCAXIS2PLACEMENT3D(#3,$,$);
#41=IFCLOCALPLACEMENT($,#40);
#42=IFCSITE('3BiAukOr129OoahsPvdJn$',#18,'Default',$,$,#41,$,$,.ELEMENT.,(42,21,31,401672),(-71,-3,-24,-345703),0.,$,$);
#43=IFCPROPERTYSINGLEVALUE('Reference',$,IFCIDENTIFIER('Project Information'),$);
#44=IFCPROPERTYSET('2mFJcO6I01h0OYRLOICO3c',#18,'Pset_SiteCommon',$,(#43));
#45=IFCPROPERTYSINGLEVALUE('IsExternal',$,IFCBOOLEAN(.F.),$);
#46=IFCPROPERTYSET('0O$B2PbAODr9jYnpcaZGJT',#18,'Pset_SpaceCommon',$,(#43,#45));
#47=IFCRELDEFINESBYPROPERTIES('2fDrcjst0HFayqQ3dY1cGQ',#18,$,$,(#42),#44);
#48=IFCRELDEFINESBYPROPERTIES('1lYkP70lXSGXnZeJnLC8MY',#18,$,$,(#42),#46);
#63=IFCAXIS2PLACEMENT3D(#3,$,$);
#64=IFCLOCALPLACEMENT(#34,#63);
#65=IFCCARTESIANPOINT((200.,200.,0.));
#66=IFCCARTESIANPOINT((200.,7900.,0.));
#67=IFCCARTESIANPOINT((4400.,7900.,0.));
#68=IFCCARTESIANPOINT((4400.,4500.,0.));
#69=IFCCARTESIANPOINT((7500.,4500.,0.));
#70=IFCCARTESIANPOINT((7500.,200.,0.));
#71=IFCCARTESIANPOINT((2400.,4500.,0.));
#72=IFCCARTESIANPOINT((2400.,4700.,0.));
#73=IFCCARTESIANPOINT((2200.,4700.,0.));
#74=IFCCARTESIANPOINT((2200.,4500.,0.));
#75=IFCPOLYLOOP((#65,#66,#67,#68,#69,#70));
#76=IFCFACEOUTERBOUND(#75,.T.);
#77=IFCPOLYLOOP((#71,#72,#73,#74));
#78=IFCFACEBOUND(#77,.T.);
#79=IFCFACE((#76,#78));
#80=IFCCARTESIANPOINT((200.,200.,2695.2));
#81=IFCCARTESIANPOINT((200.,7900.,2695.2));
#82=IFCPOLYLOOP((#66,#65,#80,#81));
#83=IFCFACEOUTERBOUND(#82,.T.);
#84=IFCFACE((#83));
#85=IFCCARTESIANPOINT((7500.,200.,2695.2));
#86=IFCPOLYLOOP((#65,#70,#85,#80));
#87=IFCFACEOUTERBOUND(#86,.T.);
#88=IFCFACE((#87));
#89=IFCCARTESIANPOINT((7500.,4500.,2695.2));
#90=IFCPOLYLOOP((#70,#69,#89,#85));
#91=IFCFACEOUTERBOUND(#90,.T.);
#92=IFCFACE((#91));
#93=IFCCARTESIANPOINT((4400.,4500.,2695.2));
#94=IFCPOLYLOOP((#69,#68,#93,#89));
#95=IFCFACEOUTERBOUND(#94,.T.);
#96=IFCFACE((#95));
#97=IFCCARTESIANPOINT((4400.,7900.,2695.2));
#98=IFCPOLYLOOP((#68,#67,#97,#93));
#99=IFCFACEOUTERBOUND(#98,.T.);
#100=IFCFACE((#99));
#101=IFCPOLYLOOP((#67,#66,#81,#97));
#102=IFCFACEOUTERBOUND(#101,.T.);
#103=IFCFACE((#102));
#104=IFCCARTESIANPOINT((2400.,4500.,2695.2));
#105=IFCCARTESIANPOINT((2400.,4700.,2695.2));
#106=IFCPOLYLOOP((#72,#71,#104,#105));
#107=IFCFACEOUTERBOUND(#106,.T.);
#108=IFCFACE((#107));
#109=IFCCARTESIANPOINT((2200.,4500.,2695.2));
#110=IFCPOLYLOOP((#71,#74,#109,#104));
#111=IFCFACEOUTERBOUND(#110,.T.);
#112=IFCFACE((#111));
#113=IFCCARTESIANPOINT((2200.,4700.,2695.2));
#114=IFCPOLYLOOP((#74,#73,#113,#109));
#115=IFCFACEOUTERBOUND(#114,.T.);
#116=IFCFACE((#115));
#117=IFCPOLYLOOP((#73,#72,#105,#113));
#118=IFCFACEOUTERBOUND(#117,.T.);
#119=IFCFACE((#118));
#120=IFCPOLYLOOP((#81,#80,#85,#89,#93,#97));
#121=IFCFACEOUTERBOUND(#120,.T.);
#122=IFCPOLYLOOP((#105,#104,#109,#113));
#123=IFCFACEBOUND(#122,.T.);
#124=IFCFACE((#121,#123));
#125=IFCCLOSEDSHELL((#79,#84,#88,#92,#96,#100,#103,#108,#112,#116,#119,#124));
#126=IFCFACETEDBREP(#125);
#127=IFCSHAPEREPRESENTATION(#24,'Body','Brep',(#126));
#128=IFCPRODUCTDEFINITIONSHAPE($,$,(#127));
#129=IFCSIUNIT(*,.AREAUNIT.,$,.SQUARE_METRE.);
#130=IFCSPACE('08usg60IH8OxdvepHCDp6f',#18,'136',$,$,#64,#128,'room',.ELEMENT.,.NOTDEFINED.,$);
#131=IFCSPACETYPE('08usg60IH8OxdvgpHCDp6f',#18,'room 136:1605126',$,$,$,$,'1605126',$,.NOTDEFINED.,$);
#132=IFCPROPERTYSINGLEVALUE('Reference',$,IFCIDENTIFIER('room 136'),$);
#133=IFCPROPERTYSET('3Zmp$IIyzc5ccKyxofNJVd',#18,'Pset_SpaceCommon',$,(#45,#132));
#134=IFCPROPERTYSET('1iEC5rk1tRf0isSqJKYLeQ',#18,'Pset_SpaceHeaterTypeCommon',$,(#132));
#135=IFCRELDEFINESBYPROPERTIES('3kaU70Of6lclT8m_HRBKLT',#18,$,$,(#130),#133);
#136=IFCRELDEFINESBYPROPERTIES('3Mu5JTWI2FVhAca6bVAT2s',#18,$,$,(#130),#134);
#137=IFCAXIS2PLACEMENT3D(#3,$,$);
#138=IFCLOCALPLACEMENT(#34,#137);
#139=IFCCARTESIANPOINT((10450.,7900.,0.));
#140=IFCCARTESIANPOINT((10450.,4700.,0.));
#141=IFCCARTESIANPOINT((7600.,4700.,0.));
#142=IFCCARTESIANPOINT((4600.,4700.,0.));
#143=IFCCARTESIANPOINT((4600.,7900.,0.));
#144=IFCPOLYLOOP((#139,#140,#141,#142,#143));
#145=IFCFACEOUTERBOUND(#144,.T.);
#146=IFCFACE((#145));
#147=IFCCARTESIANPOINT((10450.,7900.,2695.2));
#148=IFCCARTESIANPOINT((10450.,4700.,2695.2));
#149=IFCPOLYLOOP((#140,#139,#147,#148));
#150=IFCFACEOUTERBOUND(#149,.T.);
#151=IFCFACE((#150));
#152=IFCCARTESIANPOINT((4600.,7900.,2695.2));
#153=IFCPOLYLOOP((#139,#143,#152,#147));
#154=IFCFACEOUTERBOUND(#153,.T.);
#155=IFCFACE((#154));
#156=IFCCARTESIANPOINT((4600.,4700.,2695.2));
#157=IFCPOLYLOOP((#143,#142,#156,#152));
#158=IFCFACEOUTERBOUND(#157,.T.);
#159=IFCFACE((#158));
#160=IFCCARTESIANPOINT((7600.,4700.,2695.2));
#161=IFCPOLYLOOP((#142,#141,#160,#156));
#162=IFCFACEOUTERBOUND(#161,.T.);
#163=IFCFACE((#162));
#164=IFCPOLYLOOP((#141,#140,#148,#160));
#165=IFCFACEOUTERBOUND(#164,.T.);
#166=IFCFACE((#165));
#167=IFCPOLYLOOP((#148,#147,#152,#156,#160));
#168=IFCFACEOUTERBOUND(#167,.T.);
#169=IFCFACE((#168));
#170=IFCCLOSEDSHELL((#146,#151,#155,#159,#163,#166,#169));
#171=IFCFACETEDBREP(#170);
#172=IFCSHAPEREPRESENTATION(#24,'Body','Brep',(#171));
#173=IFCPRODUCTDEFINITIONSHAPE($,$,(#172));
#174=IFCSPACE('08usg60IH8OxdvepHCDp6c',#18,'137',$,$,#138,#173,'room',.ELEMENT.,.NOTDEFINED.,$);
#175=IFCSPACETYPE('08usg60IH8OxdvgpHCDp6c',#18,'room 137:1605129',$,$,$,$,'1605129',$,.NOTDEFINED.,$);
#176=IFCPROPERTYSINGLEVALUE('Reference',$,IFCIDENTIFIER('room 137'),$);
#177=IFCPROPERTYSET('1g$G03MOj9AizoqQ3jpCbs',#18,'Pset_SpaceCommon',$,(#45,#176));
#178=IFCPROPERTYSET('2A83Ei8xlnApWgOISD4hKK',#18,'Pset_SpaceHeaterTypeCommon',$,(#176));
#179=IFCRELDEFINESBYPROPERTIES('1fI2AkaeShA_aWOwzYEBnS',#18,$,$,(#174),#177);
#180=IFCRELDEFINESBYPROPERTIES('372QfIvKuDyqNHWBVuQ_CB',#18,$,$,(#174),#178);
#181=IFCAXIS2PLACEMENT3D(#3,$,$);
#182=IFCLOCALPLACEMENT(#34,#181);
#183=IFCCARTESIANPOINT((-4.54747350886464E-13,5.6843418860808E-13));
#184=IFCAXIS2PLACEMENT2D(#183,#11);
#185=IFCRECTANGLEPROFILEDEF(.AREA.,$,#184,4300.00000000003,2750.);
#186=IFCCARTESIANPOINT((9075.,2350.,0.));
#187=IFCAXIS2PLACEMENT3D(#186,#9,#7);
#188=IFCEXTRUDEDAREASOLID(#185,#187,#9,2695.2);
#189=IFCSIUNIT(*,.PLANEANGLEUNIT.,$,.RADIAN.);
#190=IFCDIMENSIONALEXPONENTS(0,0,0,0,0,0,0);
#191=IFCMEASUREWITHUNIT(IFCPLANEANGLEMEASURE(0.0174532925199433),#189);
#192=IFCCONVERSIONBASEDUNIT(#190,.PLANEANGLEUNIT.,'DEGREE',#191);
#193=IFCSHAPEREPRESENTATION(#24,'Body','SweptSolid',(#188));
#194=IFCPRODUCTDEFINITIONSHAPE($,$,(#193));
#195=IFCSPACE('10_HWloyz7m84m3ejkWphv',#18,'138',$,$,#182,#194,'room',.ELEMENT.,.NOTDEFINED.,$);
#196=IFCSPACETYPE('10_HWloyz7m84m1ejkWphv',#18,'room 138:1605356',$,$,$,$,'1605356',$,.NOTDEFINED.,$);
#197=IFCPROPERTYSINGLEVALUE('Reference',$,IFCIDENTIFIER('room 138'),$);
#198=IFCPROPERTYSET('1b1Cy60bqwUxQbJPWYVRoN',#18,'Pset_SpaceCommon',$,(#45,#197));
#199=IFCPROPERTYSET('3LrjJg5VCEVCE43nHLkl9O',#18,'Pset_SpaceHeaterTypeCommon',$,(#197));
#200=IFCRELDEFINESBYPROPERTIES('28Jn10JOIDAi1AIE5s4yyB',#18,$,$,(#195),#198);
#201=IFCRELDEFINESBYPROPERTIES('3gopTEzIdSzW33uFOcMxc5',#18,$,$,(#195),#199);
#202=IFCAXIS2PLACEMENT3D(#3,$,$);
#203=IFCLOCALPLACEMENT(#38,#202);
#204=IFCCARTESIANPOINT((-7.95807864051312E-13,0.));
#205=IFCAXIS2PLACEMENT2D(#204,#11);
#206=IFCRECTANGLEPROFILEDEF(.AREA.,$,#205,3200.,4200.);
#207=IFCCARTESIANPOINT((2300.,6300.,0.));
#208=IFCAXIS2PLACEMENT3D(#207,#9,#8);
#209=IFCEXTRUDEDAREASOLID(#206,#208,#9,3048.);
#210=IFCSHAPEREPRESENTATION(#24,'Body','SweptSolid',(#209));
#211=IFCPRODUCTDEFINITIONSHAPE($,$,(#210));
#212=IFCSPACE('10_HWloyz7m84m3ejkWyJU',#18,'139',$,$,#203,#211,'room',.ELEMENT.,.NOTDEFINED.,$);
#213=IFCSPACETYPE('10_HWloyz7m84m1ejkWyJU',#18,'room 139:1605835',$,$,$,$,'1605835',$,.NOTDEFINED.,$);
#214=IFCPROPERTYSINGLEVALUE('Reference',$,IFCIDENTIFIER('room 139'),$);
#215=IFCPROPERTYSET('0qcw$9UuWodtnkMFa7N5bi',#18,'Pset_SpaceCommon',$,(#45,#214));
#216=IFCPROPERTYSET('2ONygTlulXtzqfhWy59H0$',#18,'Pset_SpaceHeaterTypeCommon',$,(#214));
#217=IFCRELDEFINESBYPROPERTIES('1inVtJqeZwmlvtuTzNvcdH',#18,$,$,(#212),#215);
#218=IFCRELDEFINESBYPROPERTIES('1OQcVxOLxwS_heThgud4FL',#18,$,$,(#212),#216);
#219=IFCAXIS2PLACEMENT3D(#3,$,$);
#220=IFCLOCALPLACEMENT(#38,#219);
#221=IFCCARTESIANPOINT((430.000000000003,-130.));
#222=IFCAXIS2PLACEMENT2D(#221,#11);
#223=IFCRECTANGLEPROFILEDEF(.AREA.,$,#222,4300.00000000003,7300.);
#224=IFCCARTESIANPOINT((3980.,2780.,0.));
#225=IFCAXIS2PLACEMENT3D(#224,#9,#8);
#226=IFCEXTRUDEDAREASOLID(#223,#225,#9,3048.);
#227=IFCSHAPEREPRESENTATION(#24,'Body','SweptSolid',(#226));
#228=IFCPRODUCTDEFINITIONSHAPE($,$,(#227));
#229=IFCSPACE('10_HWloyz7m84m3ejkWyJQ',#18,'140',$,$,#220,#228,'room',.ELEMENT.,.NOTDEFINED.,$);
#230=IFCSPACETYPE('10_HWloyz7m84m1ejkWyJQ',#18,'room 140:1605839',$,$,$,$,'1605839',$,.NOTDEFINED.,$);
#231=IFCPROPERTYSINGLEVALUE('Reference',$,IFCIDENTIFIER('room 140'),$);
#232=IFCPROPERTYSET('3gzMEREz$3NWyXSrQPae8T',#18,'Pset_SpaceCommon',$,(#45,#231));
#233=IFCPROPERTYSET('2iVUFs75slk0blTEvewQI1',#18,'Pset_SpaceHeaterTypeCommon',$,(#231));
#234=IFCRELDEFINESBYPROPERTIES('0$PSO_qsOW4js_xhEc0c5J',#18,$,$,(#229),#232);
#235=IFCRELDEFINESBYPROPERTIES('1$2jQ8IsBSCJCQ16xo$ICG',#18,$,$,(#229),#233);
#236=IFCCARTESIANPOINT((100.,8100.,0.));
#237=IFCAXIS2PLACEMENT3D(#236,#9,#8);
#238=IFCLOCALPLACEMENT(#34,#237);
#239=IFCCARTESIANPOINT((8100.,-0.));
#240=IFCPOLYLINE((#4,#239));
#241=IFCSHAPEREPRESENTATION(#23,'Axis','Curve2D',(#240));
#242=IFCCARTESIANPOINT((4050.00000000001,-1.4210854715202E-14));
#243=IFCAXIS2PLACEMENT2D(#242,#12);
#244=IFCRECTANGLEPROFILEDEF(.AREA.,$,#243,8100.00000000003,200.);
#245=IFCAXIS2PLACEMENT3D(#3,$,$);
#246=IFCEXTRUDEDAREASOLID(#244,#245,#9,2695.2);
#247=IFCCARTESIANPOINT((8100.,-0.));
#248=IFCCARTESIANPOINT((8100.,200.));
#249=IFCCARTESIANPOINT((7900.,200.));
#250=IFCCARTESIANPOINT((200.,200.));
#251=IFCCARTESIANPOINT((0.,200.));
#252=IFCPOLYLINE((#4,#247,#248,#249,#250,#251,#4));
#253=IFCCARTESIANPOINT((0.,-100.,2695.2));
#254=IFCAXIS2PLACEMENT3D(#253,#10,#7);
#255=IFCPLANE(#254);
#256=IFCCARTESIANPOINT((0.,-100.,2695.2));
#257=IFCAXIS2PLACEMENT3D(#256,$,$);
#258=IFCPOLYGONALBOUNDEDHALFSPACE(#255,.T.,#257,#252);
#259=IFCBOOLEANCLIPPINGRESULT(.DIFFERENCE.,#246,#258);
#260=IFCCOLOURRGB($,0.752941176470588,0.752941176470588,0.752941176470588);
#261=IFCSURFACESTYLERENDERING(#260,0.,$,$,$,$,IFCNORMALISEDRATIOMEASURE(0.5),IFCSPECULAREXPONENT(10.),.NOTDEFINED.);
#262=IFCSURFACESTYLE('Default Wall',.BOTH.,(#261));
#263=IFCSTYLEDITEM(#246,(#262),$);
#264=IFCSHAPEREPRESENTATION(#24,'Body','Clipping',(#259));
#265=IFCPRODUCTDEFINITIONSHAPE($,$,(#241,#264));
#266=IFCWALL('3Vyqk8cSj8TOuAk6zHUwAt',#18,'Basic Wall:Generic - 200mm:1602350',$,'Basic Wall:Generic - 200mm',#238,#265,'1602350',.NOTDEFINED.);
#267=IFCMATERIAL('Default Wall',$,'Miscellaneous');
#268=IFCSTYLEDITEM($,(#262),$);
#269=IFCSTYLEDREPRESENTATION(#22,'Style','Material',(#268));
#270=IFCMATERIALDEFINITIONREPRESENTATION($,$,(#269),#267);
#271=IFCMATERIALLAYER(#267,200.,$,'Layer',$,'Miscellaneous',$);
#272=IFCMATERIALLAYERSET((#271),'Basic Wall:Generic - 200mm',$);
#273=IFCWALLTYPE('1xZrMVYp52mhf4uMzw11Hk',#18,'Basic Wall:Generic - 200mm',$,$,(#287),$,'441451',$,.STANDARD.);
#274=IFCPROPERTYSINGLEVALUE('Reference',$,IFCIDENTIFIER('Generic - 200mm'),$);
#275=IFCPROPERTYSET('0Km4zNM2MwGsg6uui573Gl',#18,'Pset_EnvironmentalImpactIndicators',$,(#274));
#276=IFCPROPERTYSINGLEVALUE('Reference',$,IFCLABEL('Generic - 200mm'),$);
#277=IFCPROPERTYSET('0ZXMEr5ajxWFHJMWoi4f9d',#18,'Pset_ReinforcementBarPitchOfWall',$,(#276));
#278=IFCPROPERTYSINGLEVALUE('IsExternal',$,IFCBOOLEAN(.T.),$);
#279=IFCPROPERTYSINGLEVALUE('LoadBearing',$,IFCBOOLEAN(.F.),$);
#280=IFCPROPERTYSINGLEVALUE('ExtendToStructure',$,IFCBOOLEAN(.T.),$);
#281=IFCPROPERTYSET('1zrfxTCt1bXMa1Ly5p70N1',#18,'Pset_WallCommon',$,(#274,#278,#279,#280));
#282=IFCRELDEFINESBYPROPERTIES('03npcsjKGgxiKm0v35mOCU',#18,$,$,(#266),#275);
#283=IFCRELDEFINESBYPROPERTIES('19PyAMlzR0yGXIwnh1vl8V',#18,$,$,(#266),#277);
#284=IFCRELDEFINESBYPROPERTIES('0Ch_H7bAOLrBCWJ9at5CY2',#18,$,$,(#266),#281);
#285=IFCCLASSIFICATIONREFERENCE('https://www.csiresources.org/standards/uniformat','B2010','Exterior Walls',#28,'',$);
#286=IFCPROPERTYSINGLEVALUE('Description',$,IFCTEXT('Generic Wall (Material By Category), 200mm thick'),$);
#287=IFCPROPERTYSET('2L7lvTstnIeeydfwzfZZLR',#18,'Pset_ReinforcementBarPitchOfWall',$,(#286));
#288=IFCCARTESIANPOINT((200.,100.,0.));
#289=IFCAXIS2PLACEMENT3D(#288,$,$);
#290=IFCLOCALPLACEMENT(#34,#289);
#291=IFCCARTESIANPOINT((10450.,0.));
#292=IFCPOLYLINE((#4,#291));
#293=IFCSHAPEREPRESENTATION(#23,'Axis','Curve2D',(#292));
#294=IFCCARTESIANPOINT((5225.,0.));
#295=IFCAXIS2PLACEMENT2D(#294,#12);
#296=IFCRECTANGLEPROFILEDEF(.AREA.,$,#295,10450.,200.);
#297=IFCAXIS2PLACEMENT3D(#3,$,$);
#298=IFCEXTRUDEDAREASOLID(#296,#297,#9,2695.2);
#299=IFCCARTESIANPOINT((10450.,0.));
#300=IFCCARTESIANPOINT((10450.,200.));
#301=IFCCARTESIANPOINT((10250.,200.));
#302=IFCCARTESIANPOINT((0.,200.));
#303=IFCPOLYLINE((#4,#299,#300,#301,#302,#4));
#304=IFCCARTESIANPOINT((0.,-100.,2695.2));
#305=IFCAXIS2PLACEMENT3D(#304,#10,#5);
#306=IFCPLANE(#305);
#307=IFCCARTESIANPOINT((0.,-100.,2695.2));
#308=IFCAXIS2PLACEMENT3D(#307,$,$);
#309=IFCPOLYGONALBOUNDEDHALFSPACE(#306,.T.,#308,#303);
#310=IFCBOOLEANCLIPPINGRESULT(.DIFFERENCE.,#298,#309);
#311=IFCSTYLEDITEM(#298,(#262),$);
#312=IFCSHAPEREPRESENTATION(#24,'Body','Clipping',(#310));
#313=IFCPRODUCTDEFINITIONSHAPE($,$,(#293,#312));
#314=IFCWALL('3Vyqk8cSj8TOuAk6zHUwAc',#18,'Basic Wall:Generic - 200mm:1602367',$,'Basic Wall:Generic - 200mm',#290,#313,'1602367',.NOTDEFINED.);
#315=IFCPROPERTYSET('3JUIdSeVp_uwEbbZZ62q4s',#18,'Pset_EnvironmentalImpactIndicators',$,(#274));
#316=IFCPROPERTYSINGLEVALUE('Reference',$,IFCLABEL('Generic - 200mm'),$);
#317=IFCPROPERTYSET('2xt8_eWXQmZoGh92FUaf7C',#18,'Pset_ReinforcementBarPitchOfWall',$,(#316));
#318=IFCPROPERTYSET('1Qx33RkOMvlc106bCgkFYy',#18,'Pset_WallCommon',$,(#274,#278,#279,#280));
#319=IFCRELDEFINESBYPROPERTIES('0Cbozj_3TLDgtMpOD0_yYT',#18,$,$,(#314),#315);
#320=IFCRELDEFINESBYPROPERTIES('1Feha5xswcNTrZ$5QRM3b5',#18,$,$,(#314),#317);
#321=IFCRELDEFINESBYPROPERTIES('1olywbjtcxLyBnEbs_Cz$6',#18,$,$,(#314),#318);
#322=IFCCARTESIANPOINT((10550.,200.,0.));
#323=IFCAXIS2PLACEMENT3D(#322,#9,#7);
#324=IFCLOCALPLACEMENT(#34,#323);
#325=IFCCARTESIANPOINT((7900.,-0.));
#326=IFCPOLYLINE((#4,#325));
#327=IFCSHAPEREPRESENTATION(#23,'Axis','Curve2D',(#326));
#328=IFCCARTESIANPOINT((3950.00000000001,-1.56319401867222E-13));
#329=IFCAXIS2PLACEMENT2D(#328,#12);
#330=IFCRECTANGLEPROFILEDEF(.AREA.,$,#329,7900.00000000003,199.999999999998);
#331=IFCAXIS2PLACEMENT3D(#3,$,$);
#332=IFCEXTRUDEDAREASOLID(#330,#331,#9,2695.2);
#333=IFCCARTESIANPOINT((7900.,-0.));
#334=IFCCARTESIANPOINT((7900.,200.));
#335=IFCCARTESIANPOINT((7700.,200.));
#336=IFCCARTESIANPOINT((0.,200.));
#337=IFCPOLYLINE((#4,#333,#334,#335,#336,#4));
#338=IFCCARTESIANPOINT((0.,-100.,2695.2));
#339=IFCAXIS2PLACEMENT3D(#338,#10,#8);
#340=IFCPLANE(#339);
#341=IFCCARTESIANPOINT((0.,-100.,2695.2));
#342=IFCAXIS2PLACEMENT3D(#341,$,$);
#343=IFCPOLYGONALBOUNDEDHALFSPACE(#340,.T.,#342,#337);
#344=IFCBOOLEANCLIPPINGRESULT(.DIFFERENCE.,#332,#343);
#345=IFCSTYLEDITEM(#332,(#262),$);
#346=IFCSHAPEREPRESENTATION(#24,'Body','Clipping',(#344));
#347=IFCPRODUCTDEFINITIONSHAPE($,$,(#327,#346));
#348=IFCWALL('3Vyqk8cSj8TOuAk6zHUwMJ',#18,'Basic Wall:Generic - 200mm:1602570',$,'Basic Wall:Generic - 200mm',#324,#347,'1602570',.NOTDEFINED.);
#349=IFCPROPERTYSET('3lnIhEvOuHbjSaKDfZK8k9',#18,'Pset_EnvironmentalImpactIndicators',$,(#274));
#350=IFCPROPERTYSINGLEVALUE('Reference',$,IFCLABEL('Generic - 200mm'),$);
#351=IFCPROPERTYSET('04W1WwOvjm30inH1dChtfP',#18,'Pset_ReinforcementBarPitchOfWall',$,(#350));
#352=IFCPROPERTYSET('3KqX06vgGEOM$38ftOcyqA',#18,'Pset_WallCommon',$,(#274,#278,#279,#280));
#353=IFCRELDEFINESBYPROPERTIES('0S8aOnFU8WcFAwodE0ltd9',#18,$,$,(#348),#349);
#354=IFCRELDEFINESBYPROPERTIES('1tYLw8_V7aeyi7TVjsHYUw',#18,$,$,(#348),#351);
#355=IFCRELDEFINESBYPROPERTIES('1t2sWDc8aJN1HpxUM7WWie',#18,$,$,(#348),#352);
#356=IFCCARTESIANPOINT((10450.,8000.,0.));
#357=IFCAXIS2PLACEMENT3D(#356,#9,#6);
#358=IFCLOCALPLACEMENT(#34,#357);
#359=IFCCARTESIANPOINT((10250.,0.));
#360=IFCPOLYLINE((#4,#359));
#361=IFCSHAPEREPRESENTATION(#23,'Axis','Curve2D',(#360));
#362=IFCCARTESIANPOINT((5125.,3.33955085807247E-13));
#363=IFCAXIS2PLACEMENT2D(#362,#12);
#364=IFCRECTANGLEPROFILEDEF(.AREA.,$,#363,10250.,200.);
#365=IFCAXIS2PLACEMENT3D(#3,$,$);
#366=IFCEXTRUDEDAREASOLID(#364,#365,#9,2695.2);
#367=IFCCARTESIANPOINT((10250.,0.));
#368=IFCCARTESIANPOINT((10250.,200.));
#369=IFCCARTESIANPOINT((0.,200.));
#370=IFCPOLYLINE((#4,#367,#368,#369,#4));
#371=IFCCARTESIANPOINT((0.,-100.,2695.2));
#372=IFCAXIS2PLACEMENT3D(#371,#10,#6);
#373=IFCPLANE(#372);
#374=IFCCARTESIANPOINT((0.,-100.,2695.2));
#375=IFCAXIS2PLACEMENT3D(#374,$,$);
#376=IFCPOLYGONALBOUNDEDHALFSPACE(#373,.T.,#375,#370);
#377=IFCBOOLEANCLIPPINGRESULT(.DIFFERENCE.,#366,#376);
#378=IFCSTYLEDITEM(#366,(#262),$);
#379=IFCSHAPEREPRESENTATION(#24,'Body','Clipping',(#377));
#380=IFCPRODUCTDEFINITIONSHAPE($,$,(#361,#379));
#381=IFCWALL('3Vyqk8cSj8TOuAk6zHUwNQ',#18,'Basic Wall:Generic - 200mm:1602627',$,'Basic Wall:Generic - 200mm',#358,#380,'1602627',.NOTDEFINED.);
#382=IFCPROPERTYSET('33VNddCdyWuRINW3IN$6wR',#18,'Pset_EnvironmentalImpactIndicators',$,(#274));
#383=IFCPROPERTYSINGLEVALUE('Reference',$,IFCLABEL('Generic - 200mm'),$);
#384=IFCPROPERTYSET('3fo6gcdchLdhUs9OMMjJcK',#18,'Pset_ReinforcementBarPitchOfWall',$,(#383));
#385=IFCPROPERTYSET('365dpoAGwqqh9R$iloiJ6Y',#18,'Pset_WallCommon',$,(#274,#278,#279,#280));
#386=IFCRELDEFINESBYPROPERTIES('2BzMAyBcbgIMAClUNVhX7C',#18,$,$,(#381),#382);
#387=IFCRELDEFINESBYPROPERTIES('2jcjj16uqcySZoq7QPRlFE',#18,$,$,(#381),#384);
#388=IFCRELDEFINESBYPROPERTIES('3JFaQDGEcQuJc$tDFSxPEn',#18,$,$,(#381),#385);
#389=IFCAXIS2PLACEMENT3D(#3,$,$);
#390=IFCLOCALPLACEMENT(#34,#389);
#391=IFCCARTESIANPOINT((0.,-1.36424205265939E-12));
#392=IFCAXIS2PLACEMENT2D(#391,#11);
#393=IFCRECTANGLEPROFILEDEF(.AREA.,$,#392,8100.00000000002,10650.);
#394=IFCCARTESIANPOINT((5325.,4050.,0.));
#395=IFCAXIS2PLACEMENT3D(#394,#10,#7);
#396=IFCEXTRUDEDAREASOLID(#393,#395,#9,304.8);
#397=IFCCOLOURRGB($,0.501960784313725,0.501960784313725,0.501960784313725);
#398=IFCSURFACESTYLERENDERING(#397,0.,$,$,$,$,IFCNORMALISEDRATIOMEASURE(0.5),IFCSPECULAREXPONENT(10.),.NOTDEFINED.);
#399=IFCSURFACESTYLE('Default Floor',.BOTH.,(#398));
#400=IFCSTYLEDITEM(#396,(#399),$);
#401=IFCSHAPEREPRESENTATION(#24,'Body','SweptSolid',(#396));
#402=IFCPRODUCTDEFINITIONSHAPE($,$,(#401));
#403=IFCSLAB('0dc_dU7Cj6aRLiY5JtJ$bz',#18,'Floor:Generic - 12":1603885',$,'Floor:Generic - 12"',#390,#402,'1603885',.FLOOR.);
#404=IFCSLABTYPE('1xZrMVYp52mhf4uMzw11Hi',#18,'Floor:Generic - 12"',$,$,(#424),$,'441449',$,.FLOOR.);
#405=IFCMATERIAL('Default Floor',$,'Miscellaneous');
#406=IFCSTYLEDITEM($,(#399),$);
#407=IFCSTYLEDREPRESENTATION(#22,'Style','Material',(#406));
#408=IFCMATERIALDEFINITIONREPRESENTATION($,$,(#407),#405);
#409=IFCMATERIALLAYER(#405,304.8,$,'Layer',$,'Miscellaneous',$);
#410=IFCMATERIALLAYERSET((#409),'Floor:Generic - 12"',$);
#411=IFCMATERIALLAYERSETUSAGE(#410,.AXIS3.,.POSITIVE.,0.,$);
#412=IFCPROPERTYSINGLEVALUE('Reference',$,IFCIDENTIFIER('Generic - 12"'),$);
#413=IFCPROPERTYSET('1EubMzt59K78q6_uXwoz5M',#18,'Pset_EnvironmentalImpactIndicators',$,(#412));
#414=IFCPROPERTYSINGLEVALUE('Reference',$,IFCLABEL('Generic - 12"'),$);
#415=IFCPROPERTYSET('2CHqv8PdPRWbiwIbXDTc0m',#18,'Pset_ReinforcementBarPitchOfSlab',$,(#414));
#416=IFCPROPERTYSINGLEVALUE('PitchAngle',$,IFCPLANEANGLEMEASURE(0.),$);
#417=IFCPROPERTYSINGLEVALUE('LoadBearing',$,IFCBOOLEAN(.T.),$);
#418=IFCPROPERTYSET('3F_vB$YTI6LYUyviolvZK5',#18,'Pset_SlabCommon',$,(#45,#412,#416,#417));
#419=IFCRELDEFINESBYPROPERTIES('30pFsoSLIgVPyBi3NjcpwV',#18,$,$,(#403),#413);
#420=IFCRELDEFINESBYPROPERTIES('2fXveyAaiJop1CV54lg$eR',#18,$,$,(#403),#415);
#421=IFCRELDEFINESBYPROPERTIES('0VUhGrh7WF4GKMtWNCIGXa',#18,$,$,(#403),#418);
#422=IFCCLASSIFICATIONREFERENCE('https://www.csiresources.org/standards/uniformat','B1010','Floor Construction',#28,'',$);
#423=IFCPROPERTYSINGLEVALUE('Description',$,IFCTEXT('Generic Floor (Material By Category), 12" thick'),$);
#424=IFCPROPERTYSET('08jeqqdMvr9oQ2sJw84keo',#18,'Pset_ReinforcementBarPitchOfSlab',$,(#423));
#425=IFCAXIS2PLACEMENT3D(#3,$,$);
#426=IFCLOCALPLACEMENT(#38,#425);
#427=IFCCARTESIANPOINT((0.,0.));
#428=IFCAXIS2PLACEMENT2D(#427,#11);
#429=IFCRECTANGLEPROFILEDEF(.AREA.,$,#428,8100.00000000002,10650.);
#430=IFCCARTESIANPOINT((5325.,4050.,0.));
#431=IFCAXIS2PLACEMENT3D(#430,#10,#7);
#432=IFCEXTRUDEDAREASOLID(#429,#431,#9,304.8);
#433=IFCSTYLEDITEM(#432,(#399),$);
#434=IFCSHAPEREPRESENTATION(#24,'Body','SweptSolid',(#432));
#435=IFCPRODUCTDEFINITIONSHAPE($,$,(#434));
#436=IFCSLAB('0dc_dU7Cj6aRLiY5JtJ$hK',#18,'Floor:Generic - 12":1604228',$,'Floor:Generic - 12"',#426,#435,'1604228',.FLOOR.);
#437=IFCMATERIALLAYERSETUSAGE(#410,.AXIS3.,.POSITIVE.,0.,$);
#438=IFCPROPERTYSET('276gMzVdpp_cSHYolEj9qz',#18,'Pset_EnvironmentalImpactIndicators',$,(#412));
#439=IFCPROPERTYSINGLEVALUE('Reference',$,IFCLABEL('Generic - 12"'),$);
#440=IFCPROPERTYSET('0oXugLEOtVBokOwj$U$5dw',#18,'Pset_ReinforcementBarPitchOfSlab',$,(#439));
#441=IFCPROPERTYSET('2O0Ga4QDSDvwn6m97IASlJ',#18,'Pset_SlabCommon',$,(#45,#412,#416,#417));
#442=IFCRELDEFINESBYPROPERTIES('0acxjl9FIX0k8LVxaZajAl',#18,$,$,(#436),#438);
#443=IFCRELDEFINESBYPROPERTIES('3nT5$nkPfgGdHTYI8KUt6U',#18,$,$,(#436),#440);
#444=IFCRELDEFINESBYPROPERTIES('28jdYm8_FcpNU2nfTma9CS',#18,$,$,(#436),#441);
#445=IFCCARTESIANPOINT((100.,8100.,0.));
#446=IFCAXIS2PLACEMENT3D(#445,#9,#8);
#447=IFCLOCALPLACEMENT(#38,#446);
#448=IFCCARTESIANPOINT((8100.,-0.));
#449=IFCPOLYLINE((#4,#448));
#450=IFCSHAPEREPRESENTATION(#23,'Axis','Curve2D',(#449));
#451=IFCCARTESIANPOINT((4050.00000000001,-1.4210854715202E-14));
#452=IFCAXIS2PLACEMENT2D(#451,#12);
#453=IFCRECTANGLEPROFILEDEF(.AREA.,$,#452,8100.00000000003,200.);
#454=IFCAXIS2PLACEMENT3D(#3,$,$);
#455=IFCEXTRUDEDAREASOLID(#453,#454,#9,2700.);
#456=IFCSTYLEDITEM(#455,(#262),$);
#457=IFCSHAPEREPRESENTATION(#24,'Body','SweptSolid',(#455));
#458=IFCPRODUCTDEFINITIONSHAPE($,$,(#450,#457));
#459=IFCWALL('0dc_dU7Cj6aRLiY5JtJ$gm',#18,'Basic Wall:Generic - 200mm:1604320',$,'Basic Wall:Generic - 200mm',#447,#458,'1604320',.NOTDEFINED.);
#460=IFCPROPERTYSET('2ytjgG7S3RFjFYIYRlJ3hi',#18,'Pset_EnvironmentalImpactIndicators',$,(#274));
#461=IFCPROPERTYSINGLEVALUE('Reference',$,IFCLABEL('Generic - 200mm'),$);
#462=IFCPROPERTYSET('1bRDf2La0irvk5BDH5RRV1',#18,'Pset_ReinforcementBarPitchOfWall',$,(#461));
#463=IFCPROPERTYSINGLEVALUE('ExtendToStructure',$,IFCBOOLEAN(.F.),$);
#464=IFCPROPERTYSET('3LLzXYHAs91PtNvnVWtDYi',#18,'Pset_WallCommon',$,(#274,#278,#279,#463));
#465=IFCRELDEFINESBYPROPERTIES('3HxdTzoAj$B_50mElgnh9Q',#18,$,$,(#459),#460);
#466=IFCRELDEFINESBYPROPERTIES('0ElyFfq7Ji5xsS9YwJQ1Fm',#18,$,$,(#459),#462);
#467=IFCRELDEFINESBYPROPERTIES('2xQTDRXVXHJvr6xGicBUOS',#18,$,$,(#459),#464);
#468=IFCCARTESIANPOINT((200.,100.,0.));
#469=IFCAXIS2PLACEMENT3D(#468,$,$);
#470=IFCLOCALPLACEMENT(#38,#469);
#471=IFCCARTESIANPOINT((7500.,0.));
#472=IFCPOLYLINE((#4,#471));
#473=IFCSHAPEREPRESENTATION(#23,'Axis','Curve2D',(#472));
#474=IFCCARTESIANPOINT((3750.,0.));
#475=IFCAXIS2PLACEMENT2D(#474,#12);
#476=IFCRECTANGLEPROFILEDEF(.AREA.,$,#475,7500.,200.);
#477=IFCAXIS2PLACEMENT3D(#3,$,$);
#478=IFCEXTRUDEDAREASOLID(#476,#477,#9,2700.);
#479=IFCSTYLEDITEM(#478,(#262),$);
#480=IFCSHAPEREPRESENTATION(#24,'Body','SweptSolid',(#478));
#481=IFCPRODUCTDEFINITIONSHAPE($,$,(#473,#480));
#482=IFCWALL('0dc_dU7Cj6aRLiY5JtJ$gn',#18,'Basic Wall:Generic - 200mm:1604321',$,'Basic Wall:Generic - 200mm',#470,#481,'1604321',.NOTDEFINED.);
#483=IFCPROPERTYSET('06hrcvL18aqikPEOi4Zw1H',#18,'Pset_EnvironmentalImpactIndicators',$,(#274));
#484=IFCPROPERTYSINGLEVALUE('Reference',$,IFCLABEL('Generic - 200mm'),$);
#485=IFCPROPERTYSET('3MBBG6gF3Z2WcEdSGX6ovw',#18,'Pset_ReinforcementBarPitchOfWall',$,(#484));
#486=IFCPROPERTYSET('3MlU3lQPxjsV2Nb5ohPtE1',#18,'Pset_WallCommon',$,(#274,#278,#279,#463));
#487=IFCRELDEFINESBYPROPERTIES('0DMDLz2ttSozYvo$P8RWtG',#18,$,$,(#482),#483);
#488=IFCRELDEFINESBYPROPERTIES('29LI3KgPHThaIm0Xe3mq9j',#18,$,$,(#482),#485);
#489=IFCRELDEFINESBYPROPERTIES('2giCjy98CikmZB2MsGq1Cv',#18,$,$,(#482),#486);
#490=IFCCARTESIANPOINT((7600.,200.,0.));
#491=IFCAXIS2PLACEMENT3D(#490,#9,#7);
#492=IFCLOCALPLACEMENT(#38,#491);
#493=IFCCARTESIANPOINT((4500.,-0.));
#494=IFCPOLYLINE((#4,#493));
#495=IFCSHAPEREPRESENTATION(#23,'Axis','Curve2D',(#494));
#496=IFCCARTESIANPOINT((2250.00000000001,-1.77635683940025E-13));
#497=IFCAXIS2PLACEMENT2D(#496,#12);
#498=IFCRECTANGLEPROFILEDEF(.AREA.,$,#497,4500.00000000003,200.);
#499=IFCAXIS2PLACEMENT3D(#3,$,$);
#500=IFCEXTRUDEDAREASOLID(#498,#499,#9,2700.);
#501=IFCSTYLEDITEM(#500,(#262),$);
#502=IFCSHAPEREPRESENTATION(#24,'Body','SweptSolid',(#500));
#503=IFCPRODUCTDEFINITIONSHAPE($,$,(#495,#502));
#504=IFCWALL('0dc_dU7Cj6aRLiY5JtJ$gp',#18,'Basic Wall:Generic - 200mm:1604323',$,'Basic Wall:Generic - 200mm',#492,#503,'1604323',.NOTDEFINED.);
#505=IFCPROPERTYSET('3zPPb3cTEU53_RuZVs0jyK',#18,'Pset_EnvironmentalImpactIndicators',$,(#274));
#506=IFCPROPERTYSINGLEVALUE('Reference',$,IFCLABEL('Generic - 200mm'),$);
#507=IFCPROPERTYSET('0I_q8Lr$scIShc$UdU$sfn',#18,'Pset_ReinforcementBarPitchOfWall',$,(#506));
#508=IFCPROPERTYSET('0vL3J1JeYZgMYOv3_a_xNz',#18,'Pset_WallCommon',$,(#274,#278,#279,#463));
#509=IFCRELDEFINESBYPROPERTIES('2pJkorwdr$uIKk$vYusP4f',#18,$,$,(#504),#505);
#510=IFCRELDEFINESBYPROPERTIES('38BA_9KMB0ApyEMiXmQwmu',#18,$,$,(#504),#507);
#511=IFCRELDEFINESBYPROPERTIES('31fatt8NwvIC6lPRKw3eT8',#18,$,$,(#504),#508);
#512=IFCCARTESIANPOINT((4600.,8000.,0.));
#513=IFCAXIS2PLACEMENT3D(#512,#9,#6);
#514=IFCLOCALPLACEMENT(#38,#513);
#515=IFCCARTESIANPOINT((4400.,0.));
#516=IFCPOLYLINE((#4,#515));
#517=IFCSHAPEREPRESENTATION(#23,'Axis','Curve2D',(#516));
#518=IFCCARTESIANPOINT((2200.,7.8159700933611E-14));
#519=IFCAXIS2PLACEMENT2D(#518,#12);
#520=IFCRECTANGLEPROFILEDEF(.AREA.,$,#519,4400.,200.);
#521=IFCAXIS2PLACEMENT3D(#3,$,$);
#522=IFCEXTRUDEDAREASOLID(#520,#521,#9,2700.);
#523=IFCSTYLEDITEM(#522,(#262),$);
#524=IFCSHAPEREPRESENTATION(#24,'Body','SweptSolid',(#522));
#525=IFCPRODUCTDEFINITIONSHAPE($,$,(#517,#524));
#526=IFCWALL('0dc_dU7Cj6aRLiY5JtJ$gq',#18,'Basic Wall:Generic - 200mm:1604324',$,'Basic Wall:Generic - 200mm',#514,#525,'1604324',.NOTDEFINED.);
#527=IFCPROPERTYSET('3yldJFi$IEHcpq$bKlw2es',#18,'Pset_EnvironmentalImpactIndicators',$,(#274));
#528=IFCPROPERTYSINGLEVALUE('Reference',$,IFCLABEL('Generic - 200mm'),$);
#529=IFCPROPERTYSET('01druasput1E2IFr0CsOpF',#18,'Pset_ReinforcementBarPitchOfWall',$,(#528));
#530=IFCPROPERTYSET('1VnTAx_S$St_RHBxByE1HG',#18,'Pset_WallCommon',$,(#274,#278,#279,#463));
#531=IFCRELDEFINESBYPROPERTIES('0jet81EecSaFVCL$Kg28MX',#18,$,$,(#526),#527);
#532=IFCRELDEFINESBYPROPERTIES('1lgyD8vv5zcOd7FEMsJRWl',#18,$,$,(#526),#529);
#533=IFCRELDEFINESBYPROPERTIES('3Ey0pBrvVWk4tvyWYFMCC3',#18,$,$,(#526),#530);
#534=IFCCARTESIANPOINT((7500.,4600.,0.));
#535=IFCAXIS2PLACEMENT3D(#534,#9,#6);
#536=IFCLOCALPLACEMENT(#38,#535);
#537=IFCCARTESIANPOINT((3100.,0.));
#538=IFCPOLYLINE((#4,#537));
#539=IFCSHAPEREPRESENTATION(#23,'Axis','Curve2D',(#538));
#540=IFCCARTESIANPOINT((1550.,1.63424829224823E-13));
#541=IFCAXIS2PLACEMENT2D(#540,#12);
#542=IFCRECTANGLEPROFILEDEF(.AREA.,$,#541,3100.,200.);
#543=IFCAXIS2PLACEMENT3D(#3,$,$);
#544=IFCEXTRUDEDAREASOLID(#542,#543,#9,2700.);
#545=IFCSTYLEDITEM(#544,(#262),$);
#546=IFCSHAPEREPRESENTATION(#24,'Body','SweptSolid',(#544));
#547=IFCPRODUCTDEFINITIONSHAPE($,$,(#539,#546));
#548=IFCWALL('0dc_dU7Cj6aRLiY5JtJ$mk',#18,'Basic Wall:Generic - 200mm:1604734',$,'Basic Wall:Generic - 200mm',#536,#547,'1604734',.NOTDEFINED.);
#549=IFCPROPERTYSET('0vtHDXeBTNkDn7mAwoYqQe',#18,'Pset_EnvironmentalImpactIndicators',$,(#274));
#550=IFCPROPERTYSINGLEVALUE('Reference',$,IFCLABEL('Generic - 200mm'),$);
#551=IFCPROPERTYSET('1ttcS0ly1Q3E6Ktyi7RCfX',#18,'Pset_ReinforcementBarPitchOfWall',$,(#550));
#552=IFCPROPERTYSET('2WdkuVt5JaW4pwqHBFKCQN',#18,'Pset_WallCommon',$,(#274,#278,#279,#463));
#553=IFCRELDEFINESBYPROPERTIES('0qT1uS5IuhHiQdh$1QwDKG',#18,$,$,(#548),#549);
#554=IFCRELDEFINESBYPROPERTIES('1366AHYtrzQWyzE9T7CuPv',#18,$,$,(#548),#551);
#555=IFCRELDEFINESBYPROPERTIES('3EMAu78l6E$GxPLaEvsZ5b',#18,$,$,(#548),#552);
#556=IFCCARTESIANPOINT((10450.,4600.,0.));
#557=IFCAXIS2PLACEMENT3D(#556,#9,#6);
#558=IFCLOCALPLACEMENT(#34,#557);
#559=IFCCARTESIANPOINT((6050.,0.));
#560=IFCPOLYLINE((#4,#559));
#561=IFCSHAPEREPRESENTATION(#23,'Axis','Curve2D',(#560));
#562=IFCCARTESIANPOINT((3025.,1.27897692436818E-13));
#563=IFCAXIS2PLACEMENT2D(#562,#12);
#564=IFCRECTANGLEPROFILEDEF(.AREA.,$,#563,6050.,200.);
#565=IFCAXIS2PLACEMENT3D(#3,$,$);
#566=IFCEXTRUDEDAREASOLID(#564,#565,#9,2700.);
#567=IFCSTYLEDITEM(#566,(#262),$);
#568=IFCSHAPEREPRESENTATION(#24,'Body','SweptSolid',(#566));
#569=IFCPRODUCTDEFINITIONSHAPE($,$,(#561,#568));
#570=IFCWALL('0dc_dU7Cj6aRLiY5JtJ$op',#18,'Basic Wall:Generic - 200mm:1604835',$,'Basic Wall:Generic - 200mm',#558,#569,'1604835',.NOTDEFINED.);
#571=IFCPROPERTYSET('3mnsmkmvansB_ClImO1XeY',#18,'Pset_EnvironmentalImpactIndicators',$,(#274));
#572=IFCPROPERTYSINGLEVALUE('Reference',$,IFCLABEL('Generic - 200mm'),$);
#573=IFCPROPERTYSET('11RWynrzj2IxtBfvUqQXBw',#18,'Pset_ReinforcementBarPitchOfWall',$,(#572));
#574=IFCPROPERTYSET('2ET0OwYZNMSRU$_kVAEAjf',#18,'Pset_WallCommon',$,(#274,#278,#279,#463));
#575=IFCRELDEFINESBYPROPERTIES('2amFATNuGsKgr6bpcdz88P',#18,$,$,(#570),#571);
#576=IFCRELDEFINESBYPROPERTIES('1QxbmnRd0gSQHlA0MzP1av',#18,$,$,(#570),#573);
#577=IFCRELDEFINESBYPROPERTIES('0vxAmtQP5R75__p6q9C$iR',#18,$,$,(#570),#574);
#578=IFCCARTESIANPOINT((4500.,4700.,0.));
#579=IFCAXIS2PLACEMENT3D(#578,#9,#7);
#580=IFCLOCALPLACEMENT(#34,#579);
#581=IFCCARTESIANPOINT((3200.,0.));
#582=IFCPOLYLINE((#4,#581));
#583=IFCSHAPEREPRESENTATION(#23,'Axis','Curve2D',(#582));
#584=IFCCARTESIANPOINT((1600.,9.9475983006414E-14));
#585=IFCAXIS2PLACEMENT2D(#584,#12);
#586=IFCRECTANGLEPROFILEDEF(.AREA.,$,#585,3200.,200.);
#587=IFCAXIS2PLACEMENT3D(#3,$,$);
#588=IFCEXTRUDEDAREASOLID(#586,#587,#9,2700.);
#589=IFCSTYLEDITEM(#588,(#262),$);
#590=IFCSHAPEREPRESENTATION(#24,'Body','SweptSolid',(#588));
#591=IFCPRODUCTDEFINITIONSHAPE($,$,(#583,#590));
#592=IFCWALL('0dc_dU7Cj6aRLiY5JtJ$oq',#18,'Basic Wall:Generic - 200mm:1604836',$,'Basic Wall:Generic - 200mm',#580,#591,'1604836',.NOTDEFINED.);
#593=IFCPROPERTYSET('3AbQSokDym0f_hkk8emw0S',#18,'Pset_EnvironmentalImpactIndicators',$,(#274));
#594=IFCPROPERTYSINGLEVALUE('Reference',$,IFCLABEL('Generic - 200mm'),$);
#595=IFCPROPERTYSET('2gyAVulOfOKFNBOLVkYxtL',#18,'Pset_ReinforcementBarPitchOfWall',$,(#594));
#596=IFCPROPERTYSET('0ktj6ss_8_Qxude4nPPINe',#18,'Pset_WallCommon',$,(#274,#278,#279,#463));
#597=IFCRELDEFINESBYPROPERTIES('27szPblcfyN6bPfJMKZrYo',#18,$,$,(#592),#593);
#598=IFCRELDEFINESBYPROPERTIES('205NBDdj29bIWWKVrarFZ9',#18,$,$,(#592),#595);
#599=IFCRELDEFINESBYPROPERTIES('0pmUOl7xRKGGrvdDAmWPEC',#18,$,$,(#592),#596);
#600=IFCAXIS2PLACEMENT3D(#3,$,$);
#602=IFCCARTESIANPOINT((-1.4210854715202E-13,0.));
#603=IFCAXIS2PLACEMENT2D(#602,#11);
#604=IFCRECTANGLEPROFILEDEF(.AREA.,'300 x 450mm',#603,200.,200.);
#605=IFCCARTESIANPOINT((2300.,4600.,-2500.));
#606=IFCAXIS2PLACEMENT3D(#605,#9,#6);
#607=IFCEXTRUDEDAREASOLID(#604,#606,#9,2195.2);
#608=IFCCARTESIANPOINT((1.4210854715202E-13,0.));
#609=IFCAXIS2PLACEMENT2D(#608,#11);
#610=IFCRECTANGLEPROFILEDEF(.AREA.,'300 x 450mm',#609,200.,200.);
#611=IFCCARTESIANPOINT((2300.,4600.,0.));
#612=IFCAXIS2PLACEMENT3D(#611,#9,#6);
#613=IFCEXTRUDEDAREASOLID(#610,#612,#9,2695.2);
#614=IFCCOLOURRGB($,0.,0.,0.);
#615=IFCSURFACESTYLERENDERING(#614,0.,$,$,$,$,IFCNORMALISEDRATIOMEASURE(0.5),IFCSPECULAREXPONENT(64.),.NOTDEFINED.);
#616=IFCSURFACESTYLE('Concrete, Cast-in-Place gray',.BOTH.,(#615));
#617=IFCSTYLEDITEM(#607,(#616),$);
#618=IFCSTYLEDITEM(#613,(#616),$);
#619=IFCSHAPEREPRESENTATION(#24,'Body','SweptSolid',(#607,#613));
#620=IFCAXIS2PLACEMENT3D(#3,$,$);
#621=IFCREPRESENTATIONMAP(#620,#619);
#622=IFCCOLUMNTYPE('0CGowky6PBXuUPxpf59ezk',#18,'M_Concrete-Rectangular-Column:300 x 450mm',$,$,(#648),(#621),'1537404',$,.COLUMN.);
#623=IFCMATERIAL('Concrete, Cast-in-Place gray',$,'Concrete');
#624=IFCCOLOURRGB($,1.,1.,1.);
#625=IFCFILLAREASTYLE('<Solid fill>',(#624),$);
#626=IFCSTYLEDITEM($,(#616,#625),$);
#627=IFCSTYLEDREPRESENTATION(#22,'Style','Material and Cut Pattern',(#626));
#628=IFCMATERIALDEFINITIONREPRESENTATION($,$,(#627),#623);
#629=IFCMATERIALPROFILE('300 x 450mm',$,#623,#604,$,$);
#630=IFCMATERIALPROFILE('300 x 450mm',$,#623,#610,$,$);
#631=IFCMATERIALPROFILESET('300 x 450mm',$,(#629,#630),$);
#632=IFCCARTESIANTRANSFORMATIONOPERATOR3D($,$,#3,1.,$);
#633=IFCMAPPEDITEM(#621,#632);
#634=IFCSHAPEREPRESENTATION(#24,'Body','MappedRepresentation',(#633));
#635=IFCPRODUCTDEFINITIONSHAPE($,$,(#634));
#636=IFCAXIS2PLACEMENT3D(#3,$,$);
#637=IFCLOCALPLACEMENT(#34,#636);
#638=IFCCOLUMN('0CGowky6PBXuUPvpf59ezk',#18,'M_Concrete-Rectangular-Column:300 x 450mm:1605084',$,'M_Concrete-Rectangular-Column:300 x 450mm',#637,#635,'1605084',.COLUMN.);
#639=IFCMATERIALPROFILESETUSAGE(#631,$,$);
#640=IFCPROPERTYSINGLEVALUE('Reference',$,IFCIDENTIFIER('300 x 450mm'),$);
#641=IFCPROPERTYSET('1Ut3Bsd9S_NQQk7YcO9pjK',#18,'Pset_ColumnCommon',$,(#45,#417,#640));
#642=IFCPROPERTYSET('2qH3ELhEgZib_YZ7_zpcG4',#18,'Pset_EnvironmentalImpactIndicators',$,(#640));
#643=IFCPROPERTYSINGLEVALUE('Reference',$,IFCLABEL('300 x 450mm'),$);
#644=IFCPROPERTYSET('0tpOTq5$WdwFdLVc5cbP6T',#18,'Pset_ReinforcementBarPitchOfColumn',$,(#643));
#645=IFCRELDEFINESBYPROPERTIES('2t4iP$IdBNingk9GKInPc6',#18,$,$,(#638),#641);
#646=IFCRELDEFINESBYPROPERTIES('3Gc$kHMp$v5JrsotaA6S2z',#18,$,$,(#638),#642);
#647=IFCRELDEFINESBYPROPERTIES('2o6ImbVf3Dne3b2ljDHWrd',#18,$,$,(#638),#644);
#648=IFCPROPERTYSET('3DLIBEo$JsNiGsm4fm0F9Q',#18,'Pset_ColumnCommon',$,(#417));
#649=IFCCARTESIANPOINT((7600.,4500.,0.));
#650=IFCAXIS2PLACEMENT3D(#649,#9,#8);
#651=IFCLOCALPLACEMENT(#34,#650);
#652=IFCCARTESIANPOINT((4300.,0.));
#653=IFCPOLYLINE((#4,#652));
#654=IFCSHAPEREPRESENTATION(#23,'Axis','Curve2D',(#653));
#655=IFCCARTESIANPOINT((2150.00000000001,2.8421709430404E-14));
#656=IFCAXIS2PLACEMENT2D(#655,#12);
#657=IFCRECTANGLEPROFILEDEF(.AREA.,$,#656,4300.00000000003,200.);
#658=IFCAXIS2PLACEMENT3D(#3,$,$);
#659=IFCEXTRUDEDAREASOLID(#657,#658,#9,3000.);
#660=IFCSTYLEDITEM(#659,(#262),$);
#661=IFCSHAPEREPRESENTATION(#24,'Body','SweptSolid',(#659));
#662=IFCPRODUCTDEFINITIONSHAPE($,$,(#654,#661));
#663=IFCWALL('10_HWloyz7m84m3ejkWphJ',#18,'Basic Wall:Generic - 200mm:1605318',$,'Basic Wall:Generic - 200mm',#651,#662,'1605318',.NOTDEFINED.);
#664=IFCPROPERTYSET('2kjANdmMH99jMIHfoHkv9t',#18,'Pset_EnvironmentalImpactIndicators',$,(#274));
#665=IFCPROPERTYSINGLEVALUE('Reference',$,IFCLABEL('Generic - 200mm'),$);
#666=IFCPROPERTYSET('2mBiRQfgiaG$4Va_03a7Nd',#18,'Pset_ReinforcementBarPitchOfWall',$,(#665));
#667=IFCPROPERTYSET('0FOKUNluXfnozR99PkTuib',#18,'Pset_WallCommon',$,(#274,#278,#279,#463));
#668=IFCRELDEFINESBYPROPERTIES('224EPaTlinN0yxSXzjzUti',#18,$,$,(#663),#664);
#669=IFCRELDEFINESBYPROPERTIES('2UypQrQljjPBLj8lj5DiY2',#18,$,$,(#663),#666);
#670=IFCRELDEFINESBYPROPERTIES('0vRzBxY6euChI4G5bzhFVK',#18,$,$,(#663),#667);
#671=IFCCARTESIANPOINT((4500.,7900.,0.));
#672=IFCAXIS2PLACEMENT3D(#671,#9,#8);
#673=IFCLOCALPLACEMENT(#38,#672);
#674=IFCCARTESIANPOINT((3200.,0.));
#675=IFCPOLYLINE((#4,#674));
#676=IFCSHAPEREPRESENTATION(#23,'Axis','Curve2D',(#675));
#677=IFCCARTESIANPOINT((1600.,0.));
#678=IFCAXIS2PLACEMENT2D(#677,#12);
#679=IFCRECTANGLEPROFILEDEF(.AREA.,$,#678,3200.,200.);
#680=IFCAXIS2PLACEMENT3D(#3,$,$);
#681=IFCEXTRUDEDAREASOLID(#679,#680,#9,2700.);
#682=IFCSTYLEDITEM(#681,(#262),$);
#683=IFCSHAPEREPRESENTATION(#24,'Body','SweptSolid',(#681));
#684=IFCPRODUCTDEFINITIONSHAPE($,$,(#676,#683));
#685=IFCWALL('1boLXsvIr7xxCxHqR1rYBS',#18,'Basic Wall:Generic - 200mm:1606164',$,'Basic Wall:Generic - 200mm',#673,#684,'1606164',.NOTDEFINED.);
#686=IFCPROPERTYSET('0QrYXndeGD0ki34uiU6zJr',#18,'Pset_EnvironmentalImpactIndicators',$,(#274));
#687=IFCPROPERTYSINGLEVALUE('Reference',$,IFCLABEL('Generic - 200mm'),$);
#688=IFCPROPERTYSET('1HD9o6DHgjTEkIO1B46b9P',#18,'Pset_ReinforcementBarPitchOfWall',$,(#687));
#689=IFCPROPERTYSET('0mikrOAYK2FfDw3GpQJ5x7',#18,'Pset_WallCommon',$,(#274,#278,#279,#463));
#690=IFCRELDEFINESBYPROPERTIES('07QngY79R3wiQjfq2vRJ9r',#18,$,$,(#685),#686);
#691=IFCRELDEFINESBYPROPERTIES('2ayncnI2EFxDVis86EF5Wj',#18,$,$,(#685),#688);
#692=IFCRELDEFINESBYPROPERTIES('0Nk1Kc3CQ4rR6cBbiscD8F',#18,$,$,(#685),#689);
#693=IFCCARTESIANPOINT((4400.,4600.,0.));
#694=IFCAXIS2PLACEMENT3D(#693,#9,#6);
#695=IFCLOCALPLACEMENT(#38,#694);
#696=IFCCARTESIANPOINT((4200.,0.));
#697=IFCPOLYLINE((#4,#696));
#698=IFCSHAPEREPRESENTATION(#23,'Axis','Curve2D',(#697));
#699=IFCCARTESIANPOINT((2100.,0.));
#700=IFCAXIS2PLACEMENT2D(#699,#12);
#701=IFCRECTANGLEPROFILEDEF(.AREA.,$,#700,4200.,200.);
#702=IFCAXIS2PLACEMENT3D(#3,$,$);
#703=IFCEXTRUDEDAREASOLID(#701,#702,#9,2700.);
#704=IFCSTYLEDITEM(#703,(#262),$);
#705=IFCSHAPEREPRESENTATION(#24,'Body','SweptSolid',(#703));
#706=IFCPRODUCTDEFINITIONSHAPE($,$,(#698,#705));
#707=IFCWALL('1boLXsvIr7xxCxHqR1rYAH',#18,'Basic Wall:Generic - 200mm:1606233',$,'Basic Wall:Generic - 200mm',#695,#706,'1606233',.NOTDEFINED.);
#708=IFCPROPERTYSET('3VupcvsW$1oMPHhPHhVC6z',#18,'Pset_EnvironmentalImpactIndicators',$,(#274));
#709=IFCPROPERTYSINGLEVALUE('Reference',$,IFCLABEL('Generic - 200mm'),$);
#710=IFCPROPERTYSET('0BZV1yTyVhK$r7g59da2A$',#18,'Pset_ReinforcementBarPitchOfWall',$,(#709));
#711=IFCPROPERTYSET('3234yDKDSMbAon41SWph32',#18,'Pset_WallCommon',$,(#274,#278,#279,#463));
#712=IFCRELDEFINESBYPROPERTIES('1pWPKQWKfOT_ItQmQ1RrEW',#18,$,$,(#707),#708);
#713=IFCRELDEFINESBYPROPERTIES('0Z$5wjct4DfbgO2W54CWVJ',#18,$,$,(#707),#710);
#714=IFCRELDEFINESBYPROPERTIES('3C$vqsgyBj_yMgG1fpmsGZ',#18,$,$,(#707),#711);
#715=IFCPROPERTYSINGLEVALUE('Reference',$,IFCIDENTIFIER('8mm Head'),$);
#716=IFCPROPERTYSINGLEVALUE('AboveGround',$,IFCLOGICAL(.U.),$);
#717=IFCPROPERTYSET('16L50AfyZF4hYq5TGET4H4',#18,'Pset_BuildingStoreyCommon',$,(#715,#716));
#718=IFCPROPERTYSET('2J7ac_h5ujdwWuzVwBIIta',#18,'Pset_SpaceCommon',$,(#45,#715));
#719=IFCRELDEFINESBYPROPERTIES('2VdfSfkgzGoZi_3SgzE8$0',#18,$,$,(#35),#717);
#720=IFCRELDEFINESBYPROPERTIES('3$YdOpA8iaPobC8MDiWxoI',#18,$,$,(#35),#718);
#721=IFCRELCONTAINEDINSPATIALSTRUCTURE('2JF4e6axWHqu3u0C5FZlmi',#18,$,$,(#266,#314,#348,#381,#403,#570,#592,#638,#663),#35);
#722=IFCPROPERTYSET('1n34enW33Z_3Qq2Pm1kjQZ',#18,'Pset_BuildingStoreyCommon',$,(#715,#716));
#723=IFCPROPERTYSET('0qNc4$IaPwTvoqOd7IlIE4',#18,'Pset_SpaceCommon',$,(#45,#715));
#724=IFCRELDEFINESBYPROPERTIES('36oM8gyLQ5_Z6XoGK5uP1E',#18,$,$,(#39),#722);
#725=IFCRELDEFINESBYPROPERTIES('0jA6Vdz$3CfPvu_I1iTL6J',#18,$,$,(#39),#723);
#726=IFCRELCONTAINEDINSPATIALSTRUCTURE('1ZGO8hrFCHqw0v0066FpFv',#18,$,$,(#436,#459,#482,#504,#526,#548,#685,#707),#39);
#727=IFCRELAGGREGATES('2KFB6YYWgXBmucZ8cm7uCP',#18,$,$,#27,(#42));
#728=IFCRELAGGREGATES('16_hfJTeCqU7LcG8m10BTS',#18,$,$,#42,(#32));
#729=IFCRELAGGREGATES('2JF4e6axWHqu3u0C9FZlmi',#18,$,$,#35,(#130,#174,#195));
#730=IFCRELAGGREGATES('1ZGO8hrFCHqw0v00A6FpFv',#18,$,$,#39,(#212,#229));
#731=IFCRELAGGREGATES('1yhDISh1T5aQqAoygxGIhP',#18,$,$,#32,(#35,#39));
#732=IFCPROPERTYSINGLEVALUE('NumberOfStoreys',$,IFCCOUNTMEASURE(2),$);
#733=IFCPROPERTYSINGLEVALUE('IsLandmarked',$,IFCLOGICAL(.U.),$);
#734=IFCPROPERTYSET('01y_GmllCupEYuBgfGbhkd',#18,'Pset_BuildingCommon',$,(#43,#732,#733));
#735=IFCPROPERTYSET('1rUR7OGyIAkZT62xvibLnd',#18,'Pset_BuildingElementProxyCommon',$,(#43,#45));
#736=IFCPROPERTYSET('2kFDjjfIaTsBi7MLK$i$Me',#18,'Pset_BuildingStoreyCommon',$,(#43,#716));
#737=IFCPROPERTYSET('1TYvb3FgH88mtl04iE5P1T',#18,'Pset_BuildingSystemCommon',$,(#43));
#738=IFCPROPERTYSET('2W94HCj5xfigmNGtkBMklk',#18,'Pset_SpaceCommon',$,(#43,#45));
#739=IFCRELDEFINESBYPROPERTIES('0vDjba2fshDEh0_KufwWht',#18,$,$,(#32),#734);
#740=IFCRELDEFINESBYPROPERTIES('1V6UQfELB4oPy3GPEaJMPw',#18,$,$,(#32),#735);
#741=IFCRELDEFINESBYPROPERTIES('0Vpd75HttOMIhzXutBGgCt',#18,$,$,(#32),#736);
#742=IFCRELDEFINESBYPROPERTIES('22VMRBFW9n6_S81yWIP225',#18,$,$,(#32),#737);
#743=IFCRELDEFINESBYPROPERTIES('2w3bzVlKnfBVjA3_BjG2II',#18,$,$,(#32),#738);
#744=IFCRELASSOCIATESMATERIAL('2YmqRJStaB6wCPJslvwj0o',#18,$,$,(#403),#411);
#745=IFCRELASSOCIATESMATERIAL('0dZgjlZTb6XdOSHZ7uKHaz',#18,$,$,(#436),#437);
#746=IFCRELASSOCIATESMATERIAL('22T9r9KB1F3JFgePfxkUGp',#18,$,$,(#266,#273,#314,#348,#381,#459,#482,#504,#526,#548,#570,#592,#663,#685,#707),#272);
#747=IFCRELASSOCIATESMATERIAL('0RkFpO4y91A56i7kETvvWZ',#18,$,$,(#404),#410);
#748=IFCRELASSOCIATESMATERIAL('1LbUtHsXT_tA2PgohHsVpm',#18,$,$,(#622),#631);
#749=IFCRELDEFINESBYTYPE('0QdmBOFfhGiXDumSAendJq',#18,$,$,(#130),#131);
#750=IFCRELDEFINESBYTYPE('38WuJFUB5nni$2kXF9H0BU',#18,$,$,(#174),#175);
#751=IFCRELDEFINESBYTYPE('0T$XU5G$bKiYbmCJsWL0l4',#18,$,$,(#195),#196);
#752=IFCRELDEFINESBYTYPE('0C_4PaNy7h6WKP1c631CSs',#18,$,$,(#212),#213);
#753=IFCRELDEFINESBYTYPE('1miVaDT$EglOiWavm5DYK9',#18,$,$,(#229),#230);
#754=IFCRELDEFINESBYTYPE('0MSq_ijuC5q4PUKv4QkOsA',#18,$,$,(#266,#314,#348,#381,#459,#482,#504,#526,#548,#570,#592,#663,#685,#707),#273);
#755=IFCRELDEFINESBYTYPE('3AVJtbOHyTnujdziMMd$qq',#18,$,$,(#403,#436),#404);
#756=IFCRELDEFINESBYTYPE('3zj$9V8$nYO5lGxlDTSwjB',#18,$,$,(#638),#622);
#757=IFCRELCONNECTSPATHELEMENTS('3ugK07sTRHPQgCANXzjPel',#18,'3Vyqk8cSj8TOuAk6zHUwAt|3Vyqk8cSj8TOuAk6zHUwNQ','Structural',$,#266,#381,(),(),.ATEND.,.ATSTART.);
#758=IFCRELCONNECTSPATHELEMENTS('23XeiboBqsTJYQlvX$RKBJ',#18,'3Vyqk8cSj8TOuAk6zHUwAt|3Vyqk8cSj8TOuAk6zHUwAc','Structural',$,#266,#314,(),(),.ATSTART.,.ATEND.);
#759=IFCRELCONNECTSPATHELEMENTS('3w3LufOHNrl72DM5FS5dUv',#18,'3Vyqk8cSj8TOuAk6zHUwAc|3Vyqk8cSj8TOuAk6zHUwMJ','Structural',$,#314,#348,(),(),.ATSTART.,.ATEND.);
#760=IFCRELCONNECTSPATHELEMENTS('0LaT41zAAAo8nacED5QZkK',#18,'3Vyqk8cSj8TOuAk6zHUwMJ|3Vyqk8cSj8TOuAk6zHUwNQ','Structural',$,#348,#381,(),(),.ATSTART.,.ATEND.);
#761=IFCRELCONNECTSPATHELEMENTS('158iFnSUv2DlzHWy2FloUv',#18,'0dc_dU7Cj6aRLiY5JtJ$gm|0dc_dU7Cj6aRLiY5JtJ$gq','Structural',$,#459,#526,(),(),.ATEND.,.ATSTART.);
#762=IFCRELCONNECTSPATHELEMENTS('0D204Zb0jL8XQctESkfzp8',#18,'0dc_dU7Cj6aRLiY5JtJ$gm|0dc_dU7Cj6aRLiY5JtJ$gn','Structural',$,#459,#482,(),(),.ATSTART.,.ATEND.);
#763=IFCRELCONNECTSPATHELEMENTS('2EjZpdlE_5IS8AMXgmfcqN',#18,'0dc_dU7Cj6aRLiY5JtJ$gn|0dc_dU7Cj6aRLiY5JtJ$gp','Structural',$,#482,#504,(),(),.ATSTART.,.ATEND.);
#764=IFCRELCONNECTSPATHELEMENTS('3IZj1GeBUuY$Exx$Etg1du',#18,'0dc_dU7Cj6aRLiY5JtJ$gp|0dc_dU7Cj6aRLiY5JtJ$mk','Structural',$,#504,#548,(),(),.ATSTART.,.ATEND.);
#765=IFCRELCONNECTSPATHELEMENTS('3$XsGTZ2PY2VmpdBUpaH35',#18,'0dc_dU7Cj6aRLiY5JtJ$gq|1boLXsvIr7xxCxHqR1rYBS','Structural',$,#526,#685,(),(),.ATSTART.,.ATSTART.);
#766=IFCRELCONNECTSPATHELEMENTS('16_x1RqEoZiA194M4YhJts',#18,'0dc_dU7Cj6aRLiY5JtJ$mk|1boLXsvIr7xxCxHqR1rYBS','Structural',$,#548,#685,(),(),.ATEND.,.ATEND.);
#767=IFCRELCONNECTSPATHELEMENTS('1djOGvgYp1qN1v5sE0BOuQ',#18,'0dc_dU7Cj6aRLiY5JtJ$mk|1boLXsvIr7xxCxHqR1rYAH','Structural',$,#548,#707,(),(),.ATSTART.,.ATEND.);
#768=IFCRELCONNECTSPATHELEMENTS('0rDEmpGd1Qm3M1ti9icuyk',#18,'3Vyqk8cSj8TOuAk6zHUwMJ|0dc_dU7Cj6aRLiY5JtJ$op','Structural',$,#348,#570,(),(),.ATSTART.,.ATPATH.);
#769=IFCRELCONNECTSPATHELEMENTS('0tRPgkCnyvB0GRHAbfJ1vW',#18,'0dc_dU7Cj6aRLiY5JtJ$op|0dc_dU7Cj6aRLiY5JtJ$oq','Structural',$,#570,#592,(),(),.ATSTART.,.ATEND.);
#770=IFCRELCONNECTSPATHELEMENTS('2rM47ymjE5qnEUMQBEaMrW',#18,'3Vyqk8cSj8TOuAk6zHUwNQ|0dc_dU7Cj6aRLiY5JtJ$oq','Structural',$,#381,#592,(),(),.ATEND.,.ATPATH.);
#771=IFCRELCONNECTSPATHELEMENTS('3TtYpUaGCD1HashDcl95kZ',#18,'0dc_dU7Cj6aRLiY5JtJ$mk|10_HWloyz7m84m3ejkWphJ','Structural',$,#548,#663,(),(),.ATSTART.,.ATPATH.);
#772=IFCRELCONNECTSPATHELEMENTS('3xA7Rxfvc3VuIuuUpKg7D4',#18,'3Vyqk8cSj8TOuAk6zHUwAc|10_HWloyz7m84m3ejkWphJ','Structural',$,#314,#663,(),(),.ATEND.,.ATPATH.);
#773=IFCRELCONNECTSPATHELEMENTS('3W42R9Wq3m5rlJ44Sjknxn',#18,'1boLXsvIr7xxCxHqR1rYBS|1boLXsvIr7xxCxHqR1rYAH','Structural',$,#685,#707,(),(),.ATSTART.,.ATEND.);
#774=IFCRELCONNECTSPATHELEMENTS('3$KuSXvlJy6KNcMOdF2N6E',#18,'0dc_dU7Cj6aRLiY5JtJ$gm|1boLXsvIr7xxCxHqR1rYAH','Structural',$,#459,#707,(),(),.ATEND.,.ATPATH.);
#775=IFCPRESENTATIONLAYERASSIGNMENT('A-AREA-____-OTLN',$,(#127,#172,#193,#210,#227),$);
#776=IFCPRESENTATIONLAYERASSIGNMENT('A-WALL-____-OTLN',$,(#241,#264,#293,#312,#327,#346,#361,#379,#450,#457,#473,#480,#495,#502,#517,#524,#539,#546,#561,#568,#583,#590,#654,#661,#676,#683,#698,#705),$);
#777=IFCPRESENTATIONLAYERASSIGNMENT('A-FLOR-____-OTLN',$,(#401,#434),$);
#778=IFCPRESENTATIONLAYERASSIGNMENT('S-COLS-____-OTLN',$,(#619,#634),$);
#779=IFCRELASSOCIATESCLASSIFICATION('2mNchzfGWDr_AK3qpy_v$I',#18,'Exterior Walls','Exterior Walls:B2010',(#266,#314,#348,#381,#459,#482,#504,#526,#548,#570,#592,#663,#685,#707),#285);
#780=IFCRELASSOCIATESCLASSIFICATION('3vI84WJLA6v8SAADAMGrIc',#18,'Floor Construction','Floor Construction:B1010',(#403,#436),#422);
#781=IFCUNITASSIGNMENT((#19,#129,#192));
ENDSEC;
END-ISO-10303-21;
