ISO-10303-21;
HEADER;
FILE_DESCRIPTION(('ViewDefinition [CoordinationView]','RevitIdentifiers [ContentGUID: cbb0ae2e-6350-4225-8ca4-af668662c38d, VersionGUID: 901d1427-905e-4a8c-b3be-c5cabaaa3046, NumberOfSaves: 23]','CoordinateReference [CoordinateBase: Shared Coordinates]'),'2;1');
FILE_NAME('01_02_013.ifc','2026-01-19T16:30:37+01:00',(''),(''),'ODA SDAI 24.6','Autodesk Revit 24.3.30.11 (ENU) - IFC 24.3.30.11','');
FILE_SCHEMA(('IFC4X3'));
ENDSEC;

DATA;
#1=IFCORGANIZATION($,'Autodesk Revit 2024 (ENU)',$,$,$);
#2=IFCAPPLICATION(#1,'2024','Autodesk Revit 2024 (ENU)','Revit');
#3=IFCCARTESIANPOINT((0.,0.,0.));
#4=IFCCARTESIANPOINT((0.,0.));
#5=IFCDIRECTION((1.,0.,0.));
#6=IFCDIRECTION((-1.,0.,0.));
#7=IFCDIRECTION((0.,1.,0.));
#8=IFCDIRECTION((0.,-1.,0.));
#9=IFCDIRECTION((0.,0.,1.));
#10=IFCDIRECTION((0.,0.,-1.));
#11=IFCDIRECTION((1.,0.));
#12=IFCDIRECTION((-1.,0.));
#13=IFCDIRECTION((0.,1.));
#14=IFCDIRECTION((0.,-1.));
#15=IFCPERSON($,'','h.helming',$,$,$,$,$);
#16=IFCORGANIZATION($,'Organization Name','Organization Description',$,$);
#17=IFCPERSONANDORGANIZATION(#15,#16,$);
#18=IFCOWNERHISTORY(#17,#2,$,.NOCHANGE.,$,$,$,1767701907);
#19=IFCSIUNIT(*,.LENGTHUNIT.,.MILLI.,.METRE.);
#20=IFCAXIS2PLACEMENT3D(#3,$,$);
#21=IFCDIRECTION((6.1230317691118863E-17,1.));
#22=IFCGEOMETRICREPRESENTATIONCONTEXT($,'Model',3,0.01,#20,#21);
#23=IFCGEOMETRICREPRESENTATIONSUBCONTEXT('Axis','Model',*,*,*,*,#22,$,.GRAPH_VIEW.,$);
#24=IFCGEOMETRICREPRESENTATIONSUBCONTEXT('Body','Model',*,*,*,*,#22,$,.MODEL_VIEW.,$);
#25=IFCGEOMETRICREPRESENTATIONSUBCONTEXT('Box','Model',*,*,*,*,#22,$,.MODEL_VIEW.,$);
#26=IFCGEOMETRICREPRESENTATIONSUBCONTEXT('FootPrint','Model',*,*,*,*,#22,$,.MODEL_VIEW.,$);
#27=IFCPROJECT('3BiAukOr129OoahsPvdJnz',#18,'Project Number',$,$,'Project Name','Project Status',(#22),#498);
#28=IFCCLASSIFICATION('CSI (Construction Specifications Institute)','1998',$,'Uniformat','UniFormat Classification','https://www.csiresources.org/standards/uniformat',$);
#29=IFCAXIS2PLACEMENT3D(#3,$,$);
#30=IFCLOCALPLACEMENT(#41,#29);
#31=IFCPOSTALADDRESS($,$,$,$,('Enter address hereAddress Line 2'),$,'','Boston','','MA');
#32=IFCBUILDING('3BiAukOr129OoahsPvdJny',#18,'Building Name',$,$,#30,$,'Building Name',.ELEMENT.,$,$,#31);
#33=IFCAXIS2PLACEMENT3D(#3,$,$);
#34=IFCLOCALPLACEMENT(#30,#33);
#35=IFCBUILDINGSTOREY('2JF4e6axWHqu3u0C1FZlmi',#18,'L1',$,'Level:8mm Head',#34,$,'L1',.ELEMENT.,0.);
#36=IFCCARTESIANPOINT((0.,0.,3000.));
#37=IFCAXIS2PLACEMENT3D(#36,$,$);
#38=IFCLOCALPLACEMENT(#30,#37);
#39=IFCBUILDINGSTOREY('1ZGO8hrFCHqw0v0026FpFv',#18,'L2',$,'Level:8mm Head',#38,$,'L2',.ELEMENT.,3000.);
#40=IFCAXIS2PLACEMENT3D(#3,$,$);
#41=IFCLOCALPLACEMENT($,#40);
#42=IFCSITE('3BiAukOr129OoahsPvdJn$',#18,'Default',$,$,#41,$,$,.ELEMENT.,(42,21,31,401672),(-71,-3,-24,-345703),0.,$,$);
#43=IFCPROPERTYSINGLEVALUE('Reference',$,IFCIDENTIFIER('Project Information'),$);
#44=IFCPROPERTYSET('2mFJcO6I01h0OYRLOICO3c',#18,'Pset_SiteCommon',$,(#43));
#45=IFCPROPERTYSINGLEVALUE('IsExternal',$,IFCBOOLEAN(.F.),$);
#46=IFCPROPERTYSET('0O$B2PbAODr9jYnpcaZGJT',#18,'Pset_SpaceCommon',$,(#43,#45));
#47=IFCRELDEFINESBYPROPERTIES('2fDrcjst0HFayqQ3dY1cGQ',#18,$,$,(#42),#44);
#48=IFCRELDEFINESBYPROPERTIES('1lYkP70lXSGXnZeJnLC8MY',#18,$,$,(#42),#46);
#55=IFCCARTESIANPOINT((100.,0.,0.));
#56=IFCAXIS2PLACEMENT3D(#55,#9,#7);
#57=IFCLOCALPLACEMENT(#34,#56);
#58=IFCCARTESIANPOINT((4500.,-0.));
#59=IFCPOLYLINE((#4,#58));
#60=IFCSHAPEREPRESENTATION(#23,'Axis','Curve2D',(#59));
#61=IFCSIUNIT(*,.AREAUNIT.,$,.SQUARE_METRE.);
#62=IFCCARTESIANPOINT((2250.0000000000005,0.));
#63=IFCAXIS2PLACEMENT2D(#62,#12);
#64=IFCRECTANGLEPROFILEDEF(.AREA.,$,#63,4500.0000000000009,200.);
#65=IFCAXIS2PLACEMENT3D(#3,$,$);
#66=IFCEXTRUDEDAREASOLID(#64,#65,#9,3000.);
#67=IFCCOLOURRGB($,0.75294117647058822,0.75294117647058822,0.75294117647058822);
#68=IFCSURFACESTYLERENDERING(#67,0.,$,$,$,$,IFCNORMALISEDRATIOMEASURE(0.5),IFCSPECULAREXPONENT(10.),.NOTDEFINED.);
#69=IFCSURFACESTYLE('Default Wall',.BOTH.,(#68));
#70=IFCSTYLEDITEM(#66,(#69),$);
#71=IFCSHAPEREPRESENTATION(#24,'Body','SweptSolid',(#66));
#72=IFCPRODUCTDEFINITIONSHAPE($,$,(#60,#71));
#73=IFCWALL('0HbU4cYqD2SBtSJYoQ_eZD',#18,'Basic Wall:Generic - 200mm:1602328',$,'Basic Wall:Generic - 200mm',#57,#72,'1602328',.NOTDEFINED.);
#74=IFCMATERIAL('Default Wall',$,'Miscellaneous');
#75=IFCSTYLEDITEM($,(#69),$);
#76=IFCSTYLEDREPRESENTATION(#22,'Style','Material',(#75));
#77=IFCMATERIALDEFINITIONREPRESENTATION($,$,(#76),#74);
#78=IFCMATERIALLAYER(#74,200.,$,'Layer',$,'Miscellaneous',$);
#79=IFCMATERIALLAYERSET((#78),'Basic Wall:Generic - 200mm',$);
#80=IFCWALLTYPE('1xZrMVYp52mhf4uMzw11Hk',#18,'Basic Wall:Generic - 200mm',$,$,(#94),$,'441451',$,.STANDARD.);
#81=IFCPROPERTYSINGLEVALUE('Reference',$,IFCIDENTIFIER('Generic - 200mm'),$);
#82=IFCPROPERTYSET('3JXQ_3vQFu6IRNJGy4B$v$',#18,'Pset_EnvironmentalImpactIndicators',$,(#81));
#83=IFCPROPERTYSINGLEVALUE('Reference',$,IFCLABEL('Generic - 200mm'),$);
#84=IFCPROPERTYSET('0JXcE3JrfO9DRp0rARg2_w',#18,'Pset_ReinforcementBarPitchOfWall',$,(#83));
#85=IFCPROPERTYSINGLEVALUE('IsExternal',$,IFCBOOLEAN(.T.),$);
#86=IFCPROPERTYSINGLEVALUE('LoadBearing',$,IFCBOOLEAN(.F.),$);
#87=IFCPROPERTYSINGLEVALUE('ExtendToStructure',$,IFCBOOLEAN(.F.),$);
#88=IFCPROPERTYSET('1JevzCMQbDC219S0cb8V_I',#18,'Pset_WallCommon',$,(#81,#85,#86,#87));
#89=IFCRELDEFINESBYPROPERTIES('0GidwVj33qCMN1VbIR8jb$',#18,$,$,(#73),#82);
#90=IFCRELDEFINESBYPROPERTIES('2YxXrKQW_0b_XM26bPTtAk',#18,$,$,(#73),#84);
#91=IFCRELDEFINESBYPROPERTIES('0iBuq$seLmFB_y4jpOijHU',#18,$,$,(#73),#88);
#92=IFCCLASSIFICATIONREFERENCE('https://www.csiresources.org/standards/uniformat','B2010','Exterior Walls',#28,'',$);
#93=IFCPROPERTYSINGLEVALUE('Description',$,IFCTEXT('Generic Wall (Material By Category), 200mm thick'),$);
#94=IFCPROPERTYSET('2L7lvTstnIeeydfwzfZZLR',#18,'Pset_ReinforcementBarPitchOfWall',$,(#93));
#95=IFCCARTESIANPOINT((200.,4400.,0.));
#96=IFCAXIS2PLACEMENT3D(#95,$,$);
#97=IFCLOCALPLACEMENT(#34,#96);
#98=IFCCARTESIANPOINT((5050.,0.));
#99=IFCPOLYLINE((#4,#98));
#100=IFCSHAPEREPRESENTATION(#23,'Axis','Curve2D',(#99));
#101=IFCCARTESIANPOINT((2525.,-4.9737991503207013E-14));
#102=IFCAXIS2PLACEMENT2D(#101,#12);
#103=IFCRECTANGLEPROFILEDEF(.AREA.,$,#102,5050.,200.);
#104=IFCAXIS2PLACEMENT3D(#3,$,$);
#105=IFCEXTRUDEDAREASOLID(#103,#104,#9,3000.);
#106=IFCSTYLEDITEM(#105,(#69),$);
#107=IFCSHAPEREPRESENTATION(#24,'Body','SweptSolid',(#105));
#108=IFCPRODUCTDEFINITIONSHAPE($,$,(#100,#107));
#109=IFCWALL('0HbU4cYqD2SBtSJYoQ_eY6',#18,'Basic Wall:Generic - 200mm:1602387',$,'Basic Wall:Generic - 200mm',#97,#108,'1602387',.NOTDEFINED.);
#110=IFCPROPERTYSET('0ELHOVeODU85O8vrDIOlmN',#18,'Pset_EnvironmentalImpactIndicators',$,(#81));
#111=IFCPROPERTYSINGLEVALUE('Reference',$,IFCLABEL('Generic - 200mm'),$);
#112=IFCPROPERTYSET('04YeHn4dQO6aq01drN1Ggw',#18,'Pset_ReinforcementBarPitchOfWall',$,(#111));
#113=IFCPROPERTYSET('03DVxtfN$HBe2FQGJWA0R4',#18,'Pset_WallCommon',$,(#81,#85,#86,#87));
#114=IFCRELDEFINESBYPROPERTIES('1c272VnPngEY0hHiZWvh6W',#18,$,$,(#109),#110);
#115=IFCRELDEFINESBYPROPERTIES('2uwIfphnWf3oSBH7UvRMBH',#18,$,$,(#109),#112);
#116=IFCRELDEFINESBYPROPERTIES('04CqFJw633dFVL1S1x17Xu',#18,$,$,(#109),#113);
#117=IFCCARTESIANPOINT((5150.,4300.,0.));
#118=IFCAXIS2PLACEMENT3D(#117,#9,#8);
#119=IFCLOCALPLACEMENT(#34,#118);
#120=IFCCARTESIANPOINT((4300.,-0.));
#121=IFCPOLYLINE((#4,#120));
#122=IFCSHAPEREPRESENTATION(#23,'Axis','Curve2D',(#121));
#123=IFCCARTESIANPOINT((2150.0000000000005,-1.7053025658242404E-13));
#124=IFCAXIS2PLACEMENT2D(#123,#12);
#125=IFCRECTANGLEPROFILEDEF(.AREA.,$,#124,4300.0000000000009,200.);
#126=IFCAXIS2PLACEMENT3D(#3,$,$);
#127=IFCEXTRUDEDAREASOLID(#125,#126,#9,3000.);
#128=IFCSTYLEDITEM(#127,(#69),$);
#129=IFCSHAPEREPRESENTATION(#24,'Body','SweptSolid',(#127));
#130=IFCPRODUCTDEFINITIONSHAPE($,$,(#122,#129));
#131=IFCWALL('0HbU4cYqD2SBtSJYoQ_eXK',#18,'Basic Wall:Generic - 200mm:1602433',$,'Basic Wall:Generic - 200mm',#119,#130,'1602433',.NOTDEFINED.);
#132=IFCPROPERTYSET('0VXZCj95p2cRKgtDOTjOlX',#18,'Pset_EnvironmentalImpactIndicators',$,(#81));
#133=IFCPROPERTYSINGLEVALUE('Reference',$,IFCLABEL('Generic - 200mm'),$);
#134=IFCPROPERTYSET('0dAfybg6V8EBhSLFrw_iDx',#18,'Pset_ReinforcementBarPitchOfWall',$,(#133));
#135=IFCPROPERTYSET('3sy9Y_wYtY1x2IaqdC$OAF',#18,'Pset_WallCommon',$,(#81,#85,#86,#87));
#136=IFCRELDEFINESBYPROPERTIES('0yHQXf0e9bYuE1uarAQjbC',#18,$,$,(#131),#132);
#137=IFCRELDEFINESBYPROPERTIES('1wl6Hj3JfwdnD8Pel2mKYz',#18,$,$,(#131),#134);
#138=IFCRELDEFINESBYPROPERTIES('1JiOpUUEvLPAycfNFYJk_6',#18,$,$,(#131),#135);
#139=IFCCARTESIANPOINT((5050.,100.,0.));
#140=IFCAXIS2PLACEMENT3D(#139,#9,#6);
#141=IFCLOCALPLACEMENT(#34,#140);
#142=IFCCARTESIANPOINT((4850.,0.));
#143=IFCPOLYLINE((#4,#142));
#144=IFCSHAPEREPRESENTATION(#23,'Axis','Curve2D',(#143));
#145=IFCCARTESIANPOINT((2424.9999999999995,0.));
#146=IFCAXIS2PLACEMENT2D(#145,#12);
#147=IFCRECTANGLEPROFILEDEF(.AREA.,$,#146,4849.9999999999991,200.);
#148=IFCAXIS2PLACEMENT3D(#3,$,$);
#149=IFCEXTRUDEDAREASOLID(#147,#148,#9,3000.);
#150=IFCSTYLEDITEM(#149,(#69),$);
#151=IFCSHAPEREPRESENTATION(#24,'Body','SweptSolid',(#149));
#152=IFCPRODUCTDEFINITIONSHAPE($,$,(#144,#151));
#153=IFCWALL('0HbU4cYqD2SBtSJYoQ_eXy',#18,'Basic Wall:Generic - 200mm:1602473',$,'Basic Wall:Generic - 200mm',#141,#152,'1602473',.NOTDEFINED.);
#154=IFCPROPERTYSET('0XapNJ2fv8dMere7TkDJzy',#18,'Pset_EnvironmentalImpactIndicators',$,(#81));
#155=IFCPROPERTYSINGLEVALUE('Reference',$,IFCLABEL('Generic - 200mm'),$);
#156=IFCPROPERTYSET('2ucnCeYnumtUaAr$SXtsfL',#18,'Pset_ReinforcementBarPitchOfWall',$,(#155));
#157=IFCPROPERTYSET('15ekh7G$XoPoZR2VrRBikm',#18,'Pset_WallCommon',$,(#81,#85,#86,#87));
#158=IFCRELDEFINESBYPROPERTIES('24nyIvJ3Cc$CvCADUEXEmD',#18,$,$,(#153),#154);
#159=IFCRELDEFINESBYPROPERTIES('34a7wFaf5Hgn8ciQm_c50l',#18,$,$,(#153),#156);
#160=IFCRELDEFINESBYPROPERTIES('2pyZwZebAnkPVE5O2kfpl_',#18,$,$,(#153),#157);
#161=IFCCARTESIANPOINT((900.,104.74999999997758,1200.));
#162=IFCCARTESIANPOINT((900.,219.04999999999393,1200.));
#163=IFCCARTESIANPOINT((0.,219.04999999999683,1200.));
#164=IFCCARTESIANPOINT((0.,104.74999999998045,1200.));
#165=IFCPOLYLOOP((#161,#162,#163,#164));
#166=IFCFACEOUTERBOUND(#165,.T.);
#167=IFCFACE((#166));
#168=IFCCARTESIANPOINT((0.,219.04999999999683,0.));
#169=IFCCARTESIANPOINT((0.,104.74999999998045,0.));
#170=IFCPOLYLOOP((#164,#163,#168,#169));
#171=IFCFACEOUTERBOUND(#170,.T.);
#172=IFCFACE((#171));
#173=IFCCARTESIANPOINT((900.,219.04999999999393,0.));
#174=IFCCARTESIANPOINT((900.,104.74999999997758,0.));
#175=IFCPOLYLOOP((#169,#168,#173,#174));
#176=IFCFACEOUTERBOUND(#175,.T.);
#177=IFCFACE((#176));
#178=IFCCARTESIANPOINT((868.25000000006435,104.7499999999777,1168.2500000000673));
#179=IFCCARTESIANPOINT((868.25000000006457,104.7499999999777,31.749999999934712));
#180=IFCCARTESIANPOINT((31.749999999935998,104.74999999998039,31.749999999934712));
#181=IFCCARTESIANPOINT((31.74999999993566,104.74999999998039,1168.2500000000675));
#182=IFCPOLYLOOP((#164,#169,#174,#161));
#183=IFCFACEOUTERBOUND(#182,.T.);
#184=IFCPOLYLOOP((#178,#179,#180,#181));
#185=IFCFACEBOUND(#184,.T.);
#186=IFCFACE((#183,#185));
#187=IFCPOLYLOOP((#174,#173,#162,#161));
#188=IFCFACEOUTERBOUND(#187,.T.);
#189=IFCFACE((#188));
#190=IFCCARTESIANPOINT((12.699999999999413,219.04999999999629,1187.3000000000043));
#191=IFCCARTESIANPOINT((12.699999999999413,219.04999999999629,12.69999999999779));
#192=IFCCARTESIANPOINT((887.30000000000177,219.04999999999393,12.699999999997925));
#193=IFCCARTESIANPOINT((887.300000000002,219.04999999999393,1187.3000000000045));
#194=IFCPOLYLOOP((#162,#173,#168,#163));
#195=IFCFACEOUTERBOUND(#194,.T.);
#196=IFCPOLYLOOP((#190,#191,#192,#193));
#197=IFCFACEBOUND(#196,.T.);
#198=IFCFACE((#195,#197));
#199=IFCCARTESIANPOINT((868.25000000006469,168.24999999999574,1168.2500000000675));
#200=IFCCARTESIANPOINT((31.74999999993593,168.24999999999832,1168.2500000000675));
#201=IFCPOLYLOOP((#199,#178,#181,#200));
#202=IFCFACEOUTERBOUND(#201,.T.);
#203=IFCFACE((#202));
#204=IFCCARTESIANPOINT((887.30000000000155,168.24999999999565,1187.3000000000043));
#205=IFCCARTESIANPOINT((12.699999999999617,168.24999999999849,1187.3000000000043));
#206=IFCPOLYLOOP((#193,#204,#205,#190));
#207=IFCFACEOUTERBOUND(#206,.T.);
#208=IFCFACE((#207));
#209=IFCCARTESIANPOINT((31.749999999936271,168.24999999999832,31.74999999993485));
#210=IFCPOLYLOOP((#200,#181,#180,#209));
#211=IFCFACEOUTERBOUND(#210,.T.);
#212=IFCFACE((#211));
#213=IFCCARTESIANPOINT((12.699999999999685,168.24999999999849,12.69999999999806));
#214=IFCPOLYLOOP((#190,#205,#213,#191));
#215=IFCFACEOUTERBOUND(#214,.T.);
#216=IFCFACE((#215));
#217=IFCCARTESIANPOINT((868.25000000006469,168.24999999999574,31.749999999934712));
#218=IFCPOLYLOOP((#209,#180,#179,#217));
#219=IFCFACEOUTERBOUND(#218,.T.);
#220=IFCFACE((#219));
#221=IFCCARTESIANPOINT((887.30000000000132,168.24999999999568,12.69999999999806));
#222=IFCPOLYLOOP((#191,#213,#221,#192));
#223=IFCFACEOUTERBOUND(#222,.T.);
#224=IFCFACE((#223));
#225=IFCPOLYLOOP((#217,#179,#178,#199));
#226=IFCFACEOUTERBOUND(#225,.T.);
#227=IFCFACE((#226));
#228=IFCPOLYLOOP((#200,#209,#217,#199));
#229=IFCFACEBOUND(#228,.T.);
#230=IFCPOLYLOOP((#204,#221,#213,#205));
#231=IFCFACEOUTERBOUND(#230,.T.);
#232=IFCFACE((#229,#231));
#233=IFCPOLYLOOP((#192,#221,#204,#193));
#234=IFCFACEOUTERBOUND(#233,.T.);
#235=IFCFACE((#234));
#236=IFCCARTESIANPOINT((861.89999999992972,168.24999999999574,38.100000000002169));
#237=IFCCARTESIANPOINT((861.89999999992972,212.6999999999955,38.100000000002169));
#238=IFCCARTESIANPOINT((38.099999999900582,212.69999999999814,38.100000000002169));
#239=IFCCARTESIANPOINT((38.099999999900582,168.24999999999847,38.100000000002304));
#240=IFCPOLYLOOP((#236,#237,#238,#239));
#241=IFCFACEOUTERBOUND(#240,.T.);
#242=IFCFACE((#241));
#243=IFCCARTESIANPOINT((887.29999999992629,212.69999999999544,12.700000000005776));
#244=IFCCARTESIANPOINT((887.29999999992606,168.24999999999565,12.700000000005776));
#245=IFCCARTESIANPOINT((12.69999999990419,168.24999999999844,12.700000000005776));
#246=IFCCARTESIANPOINT((12.699999999904257,212.69999999999777,12.700000000005776));
#247=IFCPOLYLOOP((#243,#244,#245,#246));
#248=IFCFACEOUTERBOUND(#247,.T.);
#249=IFCFACE((#248));
#250=IFCCARTESIANPOINT((38.099999999900582,212.69999999999814,1161.9000000000551));
#251=IFCCARTESIANPOINT((38.099999999900717,168.24999999999847,1161.9000000000551));
#252=IFCPOLYLOOP((#239,#238,#250,#251));
#253=IFCFACEOUTERBOUND(#252,.T.);
#254=IFCFACE((#253));
#255=IFCCARTESIANPOINT((12.699999999904122,168.24999999999844,1187.3000000000516));
#256=IFCCARTESIANPOINT((12.699999999904257,212.69999999999777,1187.3000000000518));
#257=IFCPOLYLOOP((#246,#245,#255,#256));
#258=IFCFACEOUTERBOUND(#257,.T.);
#259=IFCFACE((#258));
#260=IFCCARTESIANPOINT((861.89999999992972,212.6999999999955,1161.9000000000551));
#261=IFCCARTESIANPOINT((861.89999999992938,168.24999999999574,1161.9000000000551));
#262=IFCPOLYLOOP((#251,#250,#260,#261));
#263=IFCFACEOUTERBOUND(#262,.T.);
#264=IFCFACE((#263));
#265=IFCCARTESIANPOINT((887.29999999992606,168.24999999999565,1187.3000000000516));
#266=IFCCARTESIANPOINT((887.29999999992606,212.69999999999544,1187.3000000000516));
#267=IFCPOLYLOOP((#256,#255,#265,#266));
#268=IFCFACEOUTERBOUND(#267,.T.);
#269=IFCFACE((#268));
#270=IFCPOLYLOOP((#261,#260,#237,#236));
#271=IFCFACEOUTERBOUND(#270,.T.);
#272=IFCFACE((#271));
#273=IFCPOLYLOOP((#239,#251,#261,#236));
#274=IFCFACEBOUND(#273,.T.);
#275=IFCPOLYLOOP((#244,#265,#255,#245));
#276=IFCFACEOUTERBOUND(#275,.T.);
#277=IFCFACE((#274,#276));
#278=IFCPOLYLOOP((#266,#265,#244,#243));
#279=IFCFACEOUTERBOUND(#278,.T.);
#280=IFCFACE((#279));
#281=IFCPOLYLOOP((#246,#256,#266,#243));
#282=IFCFACEOUTERBOUND(#281,.T.);
#283=IFCPOLYLOOP((#237,#260,#250,#238));
#284=IFCFACEBOUND(#283,.T.);
#285=IFCFACE((#282,#284));
#286=IFCCARTESIANPOINT((861.89999999993074,200.,1161.9000000000474));
#287=IFCCARTESIANPOINT((38.099999999900376,200.,1161.9000000000474));
#288=IFCCARTESIANPOINT((38.099999999900447,193.65000000010971,1161.9000000000474));
#289=IFCCARTESIANPOINT((861.89999999993074,193.65000000010971,1161.9000000000474));
#290=IFCPOLYLOOP((#286,#287,#288,#289));
#291=IFCFACEOUTERBOUND(#290,.T.);
#292=IFCFACE((#291));
#293=IFCCARTESIANPOINT((861.89999999993074,200.,38.099999999995127));
#294=IFCCARTESIANPOINT((38.099999999900376,200.,38.099999999995127));
#295=IFCPOLYLOOP((#287,#286,#293,#294));
#296=IFCFACEOUTERBOUND(#295,.T.);
#297=IFCFACE((#296));
#298=IFCCARTESIANPOINT((38.099999999900447,193.65000000010971,38.099999999995127));
#299=IFCPOLYLOOP((#288,#287,#294,#298));
#300=IFCFACEOUTERBOUND(#299,.T.);
#301=IFCFACE((#300));
#302=IFCCARTESIANPOINT((861.89999999993074,193.65000000010971,38.099999999995127));
#303=IFCPOLYLOOP((#289,#288,#298,#302));
#304=IFCFACEOUTERBOUND(#303,.T.);
#305=IFCFACE((#304));
#306=IFCPOLYLOOP((#286,#289,#302,#293));
#307=IFCFACEOUTERBOUND(#306,.T.);
#308=IFCFACE((#307));
#309=IFCPOLYLOOP((#293,#302,#298,#294));
#310=IFCFACEOUTERBOUND(#309,.T.);
#311=IFCFACE((#310));
#312=IFCCARTESIANPOINT((38.099999999900582,180.94999999999737,38.099999999995127));
#313=IFCCARTESIANPOINT((38.099999999900582,187.30000000009292,38.099999999995127));
#314=IFCCARTESIANPOINT((861.89999999993074,187.30000000009292,38.099999999995127));
#315=IFCCARTESIANPOINT((861.89999999993074,180.94999999999737,38.099999999995127));
#316=IFCPOLYLOOP((#312,#313,#314,#315));
#317=IFCFACEOUTERBOUND(#316,.T.);
#318=IFCFACE((#317));
#319=IFCCARTESIANPOINT((861.89999999993074,180.94999999999737,1161.9000000000474));
#320=IFCCARTESIANPOINT((38.099999999900582,180.94999999999737,1161.9000000000474));
#321=IFCPOLYLOOP((#319,#320,#312,#315));
#322=IFCFACEOUTERBOUND(#321,.T.);
#323=IFCFACE((#322));
#324=IFCCARTESIANPOINT((861.89999999993074,187.30000000009292,1161.9000000000474));
#325=IFCPOLYLOOP((#324,#319,#315,#314));
#326=IFCFACEOUTERBOUND(#325,.T.);
#327=IFCFACE((#326));
#328=IFCCARTESIANPOINT((38.099999999900646,187.30000000009292,1161.9000000000474));
#329=IFCPOLYLOOP((#328,#324,#314,#313));
#330=IFCFACEOUTERBOUND(#329,.T.);
#331=IFCFACE((#330));
#332=IFCPOLYLOOP((#320,#328,#313,#312));
#333=IFCFACEOUTERBOUND(#332,.T.);
#334=IFCFACE((#333));
#335=IFCPOLYLOOP((#320,#319,#324,#328));
#336=IFCFACEOUTERBOUND(#335,.T.);
#337=IFCFACE((#336));
#338=IFCCLOSEDSHELL((#167,#172,#177,#186,#189,#198,#203,#208,#212,#216,#220,#224,#227,#232,#235));
#339=IFCFACETEDBREP(#338);
#340=IFCCOLOURRGB($,0.67843137254901964,0.51764705882352946,0.37647058823529411);
#341=IFCSURFACESTYLERENDERING(#340,0.,$,$,$,$,IFCNORMALISEDRATIOMEASURE(0.5),IFCSPECULAREXPONENT(128.),.NOTDEFINED.);
#342=IFCSURFACESTYLE('Wood - Stained',.BOTH.,(#341));
#343=IFCSTYLEDITEM(#339,(#342),$);
#344=IFCCLOSEDSHELL((#242,#249,#254,#259,#264,#269,#272,#277,#280,#285));
#345=IFCFACETEDBREP(#344);
#346=IFCSTYLEDITEM(#345,(#342),$);
#347=IFCCLOSEDSHELL((#292,#297,#301,#305,#308,#311));
#348=IFCFACETEDBREP(#347);
#349=IFCCOLOURRGB($,0.96078431372549022,0.96078431372549022,0.95294117647058818);
#350=IFCSURFACESTYLERENDERING(#349,1.,$,$,$,$,IFCNORMALISEDRATIOMEASURE(0.5),IFCSPECULAREXPONENT(64.),.NOTDEFINED.);
#351=IFCSURFACESTYLE('Glass',.BOTH.,(#350));
#352=IFCSTYLEDITEM(#348,(#351),$);
#353=IFCCLOSEDSHELL((#318,#323,#327,#331,#334,#337));
#354=IFCFACETEDBREP(#353);
#355=IFCSTYLEDITEM(#354,(#351),$);
#356=IFCSHAPEREPRESENTATION(#24,'Body','Brep',(#339,#345,#348,#354));
#357=IFCAXIS2PLACEMENT3D(#3,$,$);
#358=IFCREPRESENTATIONMAP(#357,#356);
#359=IFCWINDOWLININGPROPERTIES('0HbU4cYqD2SBtSJYsQ_eW1',#18,'M_Window-Fixed:900 x 1200mm:1602516',$,$,$,$,$,$,$,$,$,$,$,$,$);
#360=IFCWINDOWTYPE('2S9KTV_mtiRAX9KZsaxkVM',#18,'M_Window-Fixed:900 x 1200mm',$,$,(#359,#412),(#358),'1524699',$,.WINDOW.,.NOTDEFINED.,.F.,$);
#361=IFCMATERIAL('Wood - Stained',$,'Wood');
#362=IFCCOLOURRGB($,0.,0.,0.);
#363=IFCCURVESTYLEFONTPATTERN(211.58199999999999,1904.2380000000001);
#364=IFCCURVESTYLEFONT('Wood 1:1',(#363));
#365=IFCCURVESTYLE('Wood 1:1',#364,$,#362,$);
#366=IFCCARTESIANPOINT((1387.9778824443713,1337.1982900741696));
#367=IFCFILLAREASTYLEHATCHING(#365,IFCPOSITIVELENGTHMEASURE(84.632800000000003),$,#366,216.8699);
#368=IFCCURVESTYLEFONTPATTERN(473.11183,473.11183);
#369=IFCCURVESTYLEFONT('Wood 1:2',(#368));
#370=IFCCURVESTYLE('Wood 1:2',#369,$,#362,$);
#371=IFCCARTESIANPOINT((-84.632685810556325,42.315916214384231));
#372=IFCFILLAREASTYLEHATCHING(#370,IFCPOSITIVELENGTHMEASURE(189.24485899999999),$,#371,206.56510000000003);
#373=IFCCURVESTYLEFONTPATTERN(267.63268799999997,1070.5294819999999);
#374=IFCCURVESTYLEFONT('Wood 1:3',(#373));
#375=IFCCURVESTYLE('Wood 1:3',#374,$,#362,$);
#376=IFCCARTESIANPOINT((-465.48060246108253,-211.58122611782321));
#377=IFCFILLAREASTYLEHATCHING(#375,IFCPOSITIVELENGTHMEASURE(133.81629319999999),$,#376,198.4349);
#378=IFCFILLAREASTYLE('Wood 1',(#367,#372,#377),$);
#379=IFCSTYLEDITEM($,(#342,#378),$);
#380=IFCSTYLEDREPRESENTATION(#22,'Style','Material and Cut Pattern',(#379));
#381=IFCMATERIALDEFINITIONREPRESENTATION($,$,(#380),#361);
#382=IFCMATERIAL('Glass',$,'Glass');
#383=IFCSTYLEDITEM($,(#351),$);
#384=IFCSTYLEDREPRESENTATION(#22,'Style','Material',(#383));
#385=IFCMATERIALDEFINITIONREPRESENTATION($,$,(#384),#382);
#386=IFCMATERIALCONSTITUENT('Frame/Mullion',$,#361,$,'Wood');
#387=IFCSHAPEREPRESENTATION(#24,'Body','Brep',(#339,#345));
#388=IFCSHAPEASPECT((#387),'Frame/Mullion',$,.U.,#358);
#389=IFCMATERIALCONSTITUENT('Glass',$,#382,$,'Glass');
#390=IFCSHAPEREPRESENTATION(#24,'Body','Brep',(#348,#354));
#391=IFCSHAPEASPECT((#390),'Glass',$,.U.,#358);
#392=IFCMATERIALCONSTITUENTSET($,$,(#386,#389));
#393=IFCCARTESIANTRANSFORMATIONOPERATOR3D($,$,#3,1.,$);
#394=IFCMAPPEDITEM(#358,#393);
#395=IFCSHAPEREPRESENTATION(#24,'Body','MappedRepresentation',(#394));
#396=IFCPRODUCTDEFINITIONSHAPE($,$,(#395));
#397=IFCCARTESIANPOINT((5050.,1600.,900.));
#398=IFCAXIS2PLACEMENT3D(#397,#9,#8);
#400=IFCWINDOW('0HbU4cYqD2SBtSJYoQ_eW1',#18,'M_Window-Fixed:900 x 1200mm:1602516',$,'M_Window-Fixed:900 x 1200mm',#480,#396,'1602516',1200.0000000000036,899.99999999999898,.WINDOW.,.NOTDEFINED.,$);
#401=IFCMATERIALCONSTITUENT('Wood - Stained',$,#361,$,'Wood');
#402=IFCMATERIALCONSTITUENT('Glass',$,#382,$,'Glass');
#403=IFCMATERIALCONSTITUENTSET($,$,(#401,#402));
#404=IFCPROPERTYSINGLEVALUE('Reference',$,IFCIDENTIFIER('900 x 1200mm'),$);
#405=IFCPROPERTYSET('0Ke_yuN2H6WsZRU7BPUIi7',#18,'Pset_EnvironmentalImpactIndicators',$,(#404));
#406=IFCPROPERTYSINGLEVALUE('FireRating',$,IFCLABEL('0.5h'),$);
#407=IFCPROPERTYSET('0okFzmaP7JZXItirtDfwQI',#18,'Pset_WindowCommon',$,(#85,#404,#406));
#408=IFCRELDEFINESBYPROPERTIES('0nC0iAvHxPoV7h05Zy$hGe',#18,$,$,(#400),#405);
#409=IFCRELDEFINESBYPROPERTIES('0eIGdJkEQHzVSOOvXWshbN',#18,$,$,(#400),#407);
#410=IFCCLASSIFICATIONREFERENCE('https://www.csiresources.org/standards/uniformat','B2020100','Windows',#28,'',$);
#411=IFCPROPERTYSINGLEVALUE('FireRating',$,IFCLABEL('0.5h'),$);
#412=IFCPROPERTYSET('2E$GEJ7ooH2b22xhlM8mcv',#18,'Pset_WindowCommon',$,(#411));
#413=IFCMAPPEDITEM(#358,#393);
#414=IFCSHAPEREPRESENTATION(#24,'Body','MappedRepresentation',(#413));
#415=IFCPRODUCTDEFINITIONSHAPE($,$,(#414));
#416=IFCCARTESIANPOINT((5050.,3000.,900.));
#417=IFCAXIS2PLACEMENT3D(#416,#9,#8);
#419=IFCWINDOW('0HbU4cYqD2SBtSJYoQ_e_d',#18,'M_Window-Fixed:900 x 1200mm:1602674',$,'M_Window-Fixed:900 x 1200mm',#495,#415,'1602674',1200.0000000000036,899.99999999999898,.WINDOW.,.NOTDEFINED.,$);
#420=IFCMATERIALCONSTITUENT('Wood - Stained',$,#361,$,'Wood');
#421=IFCMATERIALCONSTITUENT('Glass',$,#382,$,'Glass');
#422=IFCMATERIALCONSTITUENTSET($,$,(#420,#421));
#423=IFCPROPERTYSET('3j9na$tCqv4tZZsI7I4nEA',#18,'Pset_EnvironmentalImpactIndicators',$,(#404));
#424=IFCPROPERTYSINGLEVALUE('FireRating',$,IFCLABEL('0.5h'),$);
#425=IFCPROPERTYSET('2ews2bsAk$iACkRp5CGDGS',#18,'Pset_WindowCommon',$,(#85,#404,#424));
#426=IFCRELDEFINESBYPROPERTIES('2wqyyH$MKCaEnr0co4OFWS',#18,$,$,(#419),#423);
#427=IFCRELDEFINESBYPROPERTIES('0pNvhtbfjPgL$sI1mInQvn',#18,$,$,(#419),#425);
#428=IFCPROPERTYSINGLEVALUE('Reference',$,IFCIDENTIFIER('8mm Head'),$);
#429=IFCPROPERTYSINGLEVALUE('AboveGround',$,IFCLOGICAL(.U.),$);
#430=IFCPROPERTYSET('16L50AfyZF4hYq5TGET4H4',#18,'Pset_BuildingStoreyCommon',$,(#428,#429));
#431=IFCPROPERTYSET('2J7ac_h5ujdwWuzVwBIIta',#18,'Pset_SpaceCommon',$,(#45,#428));
#432=IFCRELDEFINESBYPROPERTIES('2VdfSfkgzGoZi_3SgzE8$0',#18,$,$,(#35),#430);
#433=IFCRELDEFINESBYPROPERTIES('3$YdOpA8iaPobC8MDiWxoI',#18,$,$,(#35),#431);
#434=IFCRELCONTAINEDINSPATIALSTRUCTURE('2JF4e6axWHqu3u0C5FZlmi',#18,$,$,(#73,#109,#131,#153,#400,#419),#35);
#435=IFCPROPERTYSET('1n34enW33Z_3Qq2Pm1kjQZ',#18,'Pset_BuildingStoreyCommon',$,(#428,#429));
#436=IFCPROPERTYSET('0qNc4$IaPwTvoqOd7IlIE4',#18,'Pset_SpaceCommon',$,(#45,#428));
#437=IFCRELDEFINESBYPROPERTIES('36oM8gyLQ5_Z6XoGK5uP1E',#18,$,$,(#39),#435);
#438=IFCRELDEFINESBYPROPERTIES('0jA6Vdz$3CfPvu_I1iTL6J',#18,$,$,(#39),#436);
#439=IFCRELAGGREGATES('2KFB6YYWgXBmucZ8cm7uCP',#18,$,$,#27,(#42));
#440=IFCRELAGGREGATES('16_hfJTeCqU7LcG8m10BTS',#18,$,$,#42,(#32));
#441=IFCRELAGGREGATES('1yhDISh1T5aQqAoygxGIhP',#18,$,$,#32,(#35,#39));
#442=IFCPROPERTYSINGLEVALUE('NumberOfStoreys',$,IFCCOUNTMEASURE(1),$);
#443=IFCPROPERTYSINGLEVALUE('IsLandmarked',$,IFCLOGICAL(.U.),$);
#444=IFCPROPERTYSET('01y_GmllCupEYuBgfGbhkd',#18,'Pset_BuildingCommon',$,(#43,#442,#443));
#445=IFCPROPERTYSET('1rUR7OGyIAkZT62xvibLnd',#18,'Pset_BuildingElementProxyCommon',$,(#43,#45));
#446=IFCPROPERTYSET('2kFDjjfIaTsBi7MLK$i$Me',#18,'Pset_BuildingStoreyCommon',$,(#43,#429));
#447=IFCPROPERTYSET('1TYvb3FgH88mtl04iE5P1T',#18,'Pset_BuildingSystemCommon',$,(#43));
#448=IFCPROPERTYSET('2W94HCj5xfigmNGtkBMklk',#18,'Pset_SpaceCommon',$,(#43,#45));
#449=IFCRELDEFINESBYPROPERTIES('0vDjba2fshDEh0_KufwWht',#18,$,$,(#32),#444);
#450=IFCRELDEFINESBYPROPERTIES('1V6UQfELB4oPy3GPEaJMPw',#18,$,$,(#32),#445);
#451=IFCRELDEFINESBYPROPERTIES('0Vpd75HttOMIhzXutBGgCt',#18,$,$,(#32),#446);
#452=IFCRELDEFINESBYPROPERTIES('22VMRBFW9n6_S81yWIP225',#18,$,$,(#32),#447);
#453=IFCRELDEFINESBYPROPERTIES('2w3bzVlKnfBVjA3_BjG2II',#18,$,$,(#32),#448);
#454=IFCRELASSOCIATESMATERIAL('1izpmgiOVj_s_tlj_Bg0Oi',#18,$,$,(#360),#392);
#455=IFCRELASSOCIATESMATERIAL('1WPOZWH1XSCQrVO9wE9icr',#18,$,$,(#400),#403);
#456=IFCRELASSOCIATESMATERIAL('3kLXbWAf5QLkfNgfHxEzqL',#18,$,$,(#419),#422);
#457=IFCRELASSOCIATESMATERIAL('22T9r9KB1F3JFgePfxkUGp',#18,$,$,(#73,#80,#109,#131,#153),#79);
#458=IFCRELDEFINESBYTYPE('0MSq_ijuC5q4PUKv4QkOsA',#18,$,$,(#73,#109,#131,#153),#80);
#459=IFCRELDEFINESBYTYPE('2OPi7j3Qw$AwHp1zrf0hw4',#18,$,$,(#400,#419),#360);
#460=IFCRELCONNECTSPATHELEMENTS('21DgII86YleiGtrnIW5I7A',#18,'0HbU4cYqD2SBtSJYoQ_eZD|0HbU4cYqD2SBtSJYoQ_eXy','Structural',$,#73,#153,(),(),.ATEND.,.ATSTART.);
#461=IFCRELCONNECTSPATHELEMENTS('0oIhHPd0xyKsC9iMLvoyZJ',#18,'0HbU4cYqD2SBtSJYoQ_eZD|0HbU4cYqD2SBtSJYoQ_eY6','Structural',$,#73,#109,(),(),.ATSTART.,.ATEND.);
#462=IFCRELCONNECTSPATHELEMENTS('0WfDP57n3_v0LqkqE4euit',#18,'0HbU4cYqD2SBtSJYoQ_eY6|0HbU4cYqD2SBtSJYoQ_eXK','Structural',$,#109,#131,(),(),.ATSTART.,.ATEND.);
#463=IFCRELCONNECTSPATHELEMENTS('3qRX8ketnJeROnCtEd5c6Q',#18,'0HbU4cYqD2SBtSJYoQ_eXK|0HbU4cYqD2SBtSJYoQ_eXy','Structural',$,#131,#153,(),(),.ATSTART.,.ATEND.);
#464=IFCPRESENTATIONLAYERASSIGNMENT('A-WALL-____-OTLN',$,(#60,#71,#100,#107,#122,#129,#144,#151),$);
#465=IFCPRESENTATIONLAYERASSIGNMENT('A-GLAZ-____-OTLN',$,(#356,#387,#390,#395,#414),$);
#466=IFCCARTESIANPOINT((600.00000000000182,449.99999999999949));
#467=IFCAXIS2PLACEMENT2D(#466,#12);
#468=IFCRECTANGLEPROFILEDEF(.AREA.,$,#467,1200.0000000000036,899.99999999999898);
#469=IFCAXIS2PLACEMENT3D(#3,#7,#9);
#470=IFCEXTRUDEDAREASOLID(#468,#469,#9,200.);
#471=IFCSHAPEREPRESENTATION(#24,'Body','SweptSolid',(#470));
#472=IFCPRODUCTDEFINITIONSHAPE($,$,(#471));
#473=IFCCARTESIANPOINT((2700.,-100.,900.));
#474=IFCAXIS2PLACEMENT3D(#473,$,$);
#475=IFCLOCALPLACEMENT(#119,#474);
#476=IFCOPENINGELEMENT('20j92qBts3O4RCVgXHhWzj',#18,'M_Window-Fixed:900 x 1200mm:1602516:1',$,$,#475,#472,'1602516',.OPENING.);
#477=IFCRELVOIDSELEMENT('0HbU4cYqD2SBtSJZYQ_eW1',#18,$,$,#131,#476);
#478=IFCRELFILLSELEMENT('3U8tHK1LgPCGIQo7Jnb0Cl',#18,$,$,#476,#400);
#479=IFCAXIS2PLACEMENT3D(#3,$,$);
#480=IFCLOCALPLACEMENT(#475,#479);
#481=IFCCARTESIANPOINT((600.00000000000182,449.9999999999996));
#482=IFCAXIS2PLACEMENT2D(#481,#12);
#483=IFCRECTANGLEPROFILEDEF(.AREA.,$,#482,1200.0000000000036,899.99999999999898);
#484=IFCAXIS2PLACEMENT3D(#3,#7,#9);
#485=IFCEXTRUDEDAREASOLID(#483,#484,#9,200.);
#486=IFCSHAPEREPRESENTATION(#24,'Body','SweptSolid',(#485));
#487=IFCPRODUCTDEFINITIONSHAPE($,$,(#486));
#488=IFCCARTESIANPOINT((1300.,-100.,900.));
#489=IFCAXIS2PLACEMENT3D(#488,$,$);
#490=IFCLOCALPLACEMENT(#119,#489);
#491=IFCOPENINGELEMENT('2jXz39b5R3FlZ2d_lwjyAy',#18,'M_Window-Fixed:900 x 1200mm:1602674:1',$,$,#490,#487,'1602674',.OPENING.);
#492=IFCRELVOIDSELEMENT('0HbU4cYqD2SBtSJZYQ_e_d',#18,$,$,#131,#491);
#493=IFCRELFILLSELEMENT('0csQHwIHeHBgH0Mhccsl3I',#18,$,$,#491,#419);
#494=IFCAXIS2PLACEMENT3D(#3,$,$);
#495=IFCLOCALPLACEMENT(#490,#494);
#496=IFCRELASSOCIATESCLASSIFICATION('328bOfV0pFOiBw2WZ83ohz',#18,'Exterior Walls','Exterior Walls:B2010',(#73,#109,#131,#153),#92);
#497=IFCRELASSOCIATESCLASSIFICATION('0htd2WLSkQoqylrnqesx4n',#18,'Windows','Windows:B2020100',(#400,#419),#410);
#498=IFCUNITASSIGNMENT((#19,#61));
ENDSEC;

END-ISO-10303-21;