ISO-10303-21;
HEADER;
FILE_DESCRIPTION(('ViewDefinition [CoordinationView]','RevitIdentifiers [ContentGUID: cbb0ae2e-6350-4225-8ca4-af668662c38d, VersionGUID: a57a4d8e-b7f9-41f3-9ff4-2ebd8be0dab9, NumberOfSaves: 30]','CoordinateReference [CoordinateBase: Shared Coordinates]'),'2;1');
FILE_NAME('01_02_005.ifc','2026-01-07T16:53:39+01:00',(''),(''),'ODA SDAI 24.6','Autodesk Revit 24.3.30.11 (ENU) - IFC 24.3.30.11','');
FILE_SCHEMA(('IFC4X3'));
ENDSEC;
DATA;
#1=IFCORGANIZATION($,'Autodesk Revit 2024 (ENU)',$,$,$);
#2=IFCAPPLICATION(#1,'2024','Autodesk Revit 2024 (ENU)','Revit');
#3=IFCCARTESIANPOINT((0.,0.,0.));
#4=IFCCARTESIANPOINT((0.,0.));
#5=IFCDIRECTION((1.,0.,0.));
#6=IFCDIRECTION((-1.,0.,0.));
#7=IFCDIRECTION((0.,1.,0.));
#8=IFCDIRECTION((0.,-1.,0.));
#9=IFCDIRECTION((0.,0.,1.));
#10=IFCDIRECTION((0.,0.,-1.));
#11=IFCDIRECTION((1.,0.));
#12=IFCDIRECTION((-1.,0.));
#13=IFCDIRECTION((0.,1.));
#14=IFCDIRECTION((0.,-1.));
#15=IFCPERSON($,'','h.helming',$,$,$,$,$);
#16=IFCORGANIZATION($,'Organization Name','Organization Description',$,$);
#17=IFCPERSONANDORGANIZATION(#15,#16,$);
#18=IFCOWNERHISTORY(#17,#2,$,.NOCHANGE.,$,$,$,1767701999);
#19=IFCSIUNIT(*,.LENGTHUNIT.,.MILLI.,.METRE.);
#20=IFCAXIS2PLACEMENT3D(#3,$,$);
#21=IFCDIRECTION((6.12303176911189E-17,1.));
#22=IFCGEOMETRICREPRESENTATIONCONTEXT($,'Model',3,0.01,#20,#21);
#23=IFCGEOMETRICREPRESENTATIONSUBCONTEXT('Axis','Model',*,*,*,*,#22,$,.GRAPH_VIEW.,$);
#24=IFCGEOMETRICREPRESENTATIONSUBCONTEXT('Body','Model',*,*,*,*,#22,$,.MODEL_VIEW.,$);
#25=IFCGEOMETRICREPRESENTATIONSUBCONTEXT('Box','Model',*,*,*,*,#22,$,.MODEL_VIEW.,$);
#26=IFCGEOMETRICREPRESENTATIONSUBCONTEXT('FootPrint','Model',*,*,*,*,#22,$,.MODEL_VIEW.,$);
#27=IFCPROJECT('3BiAukOr129OoahsPvdJnz',#18,'Project Number',$,$,'Project Name','Project Status',(#22),#430);
#28=IFCCLASSIFICATION('CSI (Construction Specifications Institute)','1998',$,'Uniformat','UniFormat Classification','https://www.csiresources.org/standards/uniformat',$);
#29=IFCAXIS2PLACEMENT3D(#3,$,$);
#30=IFCLOCALPLACEMENT(#41,#29);
#31=IFCPOSTALADDRESS($,$,$,$,('Enter address hereAddress Line 2'),$,'','Boston','','MA');
#32=IFCBUILDING('3BiAukOr129OoahsPvdJny',#18,'Building Name',$,$,#30,$,'Building Name',.ELEMENT.,$,$,#31);
#33=IFCAXIS2PLACEMENT3D(#3,$,$);
#34=IFCLOCALPLACEMENT(#30,#33);
#35=IFCBUILDINGSTOREY('2JF4e6axWHqu3u0C1FZlmi',#18,'L1',$,'Level:8mm Head',#34,$,'L1',.ELEMENT.,0.);
#36=IFCCARTESIANPOINT((0.,0.,3000.));
#37=IFCAXIS2PLACEMENT3D(#36,$,$);
#38=IFCLOCALPLACEMENT(#30,#37);
#39=IFCBUILDINGSTOREY('1ZGO8hrFCHqw0v0026FpFv',#18,'L2',$,'Level:8mm Head',#38,$,'L2',.ELEMENT.,3000.);
#40=IFCAXIS2PLACEMENT3D(#3,$,$);
#41=IFCLOCALPLACEMENT($,#40);
#42=IFCSITE('3BiAukOr129OoahsPvdJn$',#18,'Default',$,$,#41,$,$,.ELEMENT.,(42,21,31,401672),(-71,-3,-24,-345703),0.,$,$);
#43=IFCPROPERTYSINGLEVALUE('Reference',$,IFCIDENTIFIER('Project Information'),$);
#44=IFCPROPERTYSET('2mFJcO6I01h0OYRLOICO3c',#18,'Pset_SiteCommon',$,(#43));
#45=IFCPROPERTYSINGLEVALUE('IsExternal',$,IFCBOOLEAN(.F.),$);
#46=IFCPROPERTYSET('0O$B2PbAODr9jYnpcaZGJT',#18,'Pset_SpaceCommon',$,(#43,#45));
#47=IFCRELDEFINESBYPROPERTIES('2fDrcjst0HFayqQ3dY1cGQ',#18,$,$,(#42),#44);
#48=IFCRELDEFINESBYPROPERTIES('1lYkP70lXSGXnZeJnLC8MY',#18,$,$,(#42),#46);
#63=IFCCARTESIANPOINT((100.,8100.,0.));
#64=IFCAXIS2PLACEMENT3D(#63,#9,#8);
#65=IFCLOCALPLACEMENT(#34,#64);
#66=IFCCARTESIANPOINT((8100.,-0.));
#67=IFCPOLYLINE((#4,#66));
#68=IFCSHAPEREPRESENTATION(#23,'Axis','Curve2D',(#67));
#69=IFCSIUNIT(*,.AREAUNIT.,$,.SQUARE_METRE.);
#70=IFCCARTESIANPOINT((4050.00000000001,-1.4210854715202E-14));
#71=IFCAXIS2PLACEMENT2D(#70,#12);
#72=IFCRECTANGLEPROFILEDEF(.AREA.,$,#71,8100.00000000003,200.);
#73=IFCAXIS2PLACEMENT3D(#3,$,$);
#74=IFCEXTRUDEDAREASOLID(#72,#73,#9,2695.2);
#75=IFCCARTESIANPOINT((8100.,-0.));
#76=IFCCARTESIANPOINT((8100.,200.));
#77=IFCCARTESIANPOINT((7900.,200.));
#78=IFCCARTESIANPOINT((200.,200.));
#79=IFCCARTESIANPOINT((0.,200.));
#80=IFCPOLYLINE((#4,#75,#76,#77,#78,#79,#4));
#81=IFCCARTESIANPOINT((0.,-100.,2695.2));
#82=IFCAXIS2PLACEMENT3D(#81,#10,#8);
#83=IFCPLANE(#82);
#84=IFCCARTESIANPOINT((0.,-100.,2695.2));
#85=IFCAXIS2PLACEMENT3D(#84,$,$);
#86=IFCPOLYGONALBOUNDEDHALFSPACE(#83,.T.,#85,#80);
#87=IFCBOOLEANCLIPPINGRESULT(.DIFFERENCE.,#74,#86);
#88=IFCCOLOURRGB($,0.752941176470588,0.752941176470588,0.752941176470588);
#89=IFCSURFACESTYLERENDERING(#88,0.,$,$,$,$,IFCNORMALISEDRATIOMEASURE(0.5),IFCSPECULAREXPONENT(10.),.NOTDEFINED.);
#90=IFCSURFACESTYLE('Default Wall',.BOTH.,(#89));
#91=IFCSTYLEDITEM(#74,(#90),$);
#92=IFCSHAPEREPRESENTATION(#24,'Body','Clipping',(#87));
#93=IFCPRODUCTDEFINITIONSHAPE($,$,(#68,#92));
#94=IFCWALL('3Vyqk8cSj8TOuAk6zHUwAt',#18,'Basic Wall:Generic - 200mm:1602350',$,'Basic Wall:Generic - 200mm',#65,#93,'1602350',.NOTDEFINED.);
#95=IFCMATERIAL('Default Wall',$,'Miscellaneous');
#96=IFCSTYLEDITEM($,(#90),$);
#97=IFCSTYLEDREPRESENTATION(#22,'Style','Material',(#96));
#98=IFCMATERIALDEFINITIONREPRESENTATION($,$,(#97),#95);
#99=IFCMATERIALLAYER(#95,200.,$,'Layer',$,'Miscellaneous',$);
#100=IFCMATERIALLAYERSET((#99),'Basic Wall:Generic - 200mm',$);
#101=IFCWALLTYPE('1xZrMVYp52mhf4uMzw11Hk',#18,'Basic Wall:Generic - 200mm',$,$,(#115),$,'441451',$,.STANDARD.);
#102=IFCPROPERTYSINGLEVALUE('Reference',$,IFCIDENTIFIER('Generic - 200mm'),$);
#103=IFCPROPERTYSET('0Km4zNM2MwGsg6uui573Gl',#18,'Pset_EnvironmentalImpactIndicators',$,(#102));
#104=IFCPROPERTYSINGLEVALUE('Reference',$,IFCLABEL('Generic - 200mm'),$);
#105=IFCPROPERTYSET('0ZXMEr5ajxWFHJMWoi4f9d',#18,'Pset_ReinforcementBarPitchOfWall',$,(#104));
#106=IFCPROPERTYSINGLEVALUE('IsExternal',$,IFCBOOLEAN(.T.),$);
#107=IFCPROPERTYSINGLEVALUE('LoadBearing',$,IFCBOOLEAN(.F.),$);
#108=IFCPROPERTYSINGLEVALUE('ExtendToStructure',$,IFCBOOLEAN(.T.),$);
#109=IFCPROPERTYSET('1zrfxTCt1bXMa1Ly5p70N1',#18,'Pset_WallCommon',$,(#102,#106,#107,#108));
#110=IFCRELDEFINESBYPROPERTIES('03npcsjKGgxiKm0v35mOCU',#18,$,$,(#94),#103);
#111=IFCRELDEFINESBYPROPERTIES('19PyAMlzR0yGXIwnh1vl8V',#18,$,$,(#94),#105);
#112=IFCRELDEFINESBYPROPERTIES('0Ch_H7bAOLrBCWJ9at5CY2',#18,$,$,(#94),#109);
#113=IFCCLASSIFICATIONREFERENCE('https://www.csiresources.org/standards/uniformat','B2010','Exterior Walls',#28,'',$);
#114=IFCPROPERTYSINGLEVALUE('Description',$,IFCTEXT('Generic Wall (Material By Category), 200mm thick'),$);
#115=IFCPROPERTYSET('2L7lvTstnIeeydfwzfZZLR',#18,'Pset_ReinforcementBarPitchOfWall',$,(#114));
#116=IFCCARTESIANPOINT((200.,100.,0.));
#117=IFCAXIS2PLACEMENT3D(#116,$,$);
#118=IFCLOCALPLACEMENT(#34,#117);
#119=IFCCARTESIANPOINT((7500.,0.));
#120=IFCPOLYLINE((#4,#119));
#121=IFCSHAPEREPRESENTATION(#23,'Axis','Curve2D',(#120));
#122=IFCCARTESIANPOINT((3750.00000000001,0.));
#123=IFCAXIS2PLACEMENT2D(#122,#12);
#124=IFCRECTANGLEPROFILEDEF(.AREA.,$,#123,7500.00000000001,200.);
#125=IFCAXIS2PLACEMENT3D(#3,$,$);
#126=IFCEXTRUDEDAREASOLID(#124,#125,#9,2695.2);
#127=IFCCARTESIANPOINT((7500.,0.));
#128=IFCCARTESIANPOINT((7500.,200.));
#129=IFCCARTESIANPOINT((7300.,200.));
#130=IFCCARTESIANPOINT((4900.,200.));
#131=IFCCARTESIANPOINT((4700.,200.));
#132=IFCCARTESIANPOINT((-0.,200.));
#133=IFCPOLYLINE((#4,#127,#128,#129,#130,#131,#132,#4));
#134=IFCCARTESIANPOINT((0.,-100.,2695.2));
#135=IFCAXIS2PLACEMENT3D(#134,#10,#6);
#136=IFCPLANE(#135);
#137=IFCCARTESIANPOINT((0.,-100.,2695.2));
#138=IFCAXIS2PLACEMENT3D(#137,$,$);
#139=IFCPOLYGONALBOUNDEDHALFSPACE(#136,.T.,#138,#133);
#140=IFCBOOLEANCLIPPINGRESULT(.DIFFERENCE.,#126,#139);
#141=IFCSTYLEDITEM(#126,(#90),$);
#142=IFCSHAPEREPRESENTATION(#24,'Body','Clipping',(#140));
#143=IFCPRODUCTDEFINITIONSHAPE($,$,(#121,#142));
#144=IFCWALL('3Vyqk8cSj8TOuAk6zHUwAc',#18,'Basic Wall:Generic - 200mm:1602367',$,'Basic Wall:Generic - 200mm',#118,#143,'1602367',.NOTDEFINED.);
#145=IFCPROPERTYSET('3JUIdSeVp_uwEbbZZ62q4s',#18,'Pset_EnvironmentalImpactIndicators',$,(#102));
#146=IFCPROPERTYSINGLEVALUE('Reference',$,IFCLABEL('Generic - 200mm'),$);
#147=IFCPROPERTYSET('2xt8_eWXQmZoGh92FUaf7C',#18,'Pset_ReinforcementBarPitchOfWall',$,(#146));
#148=IFCPROPERTYSET('1Qx33RkOMvlc106bCgkFYy',#18,'Pset_WallCommon',$,(#102,#106,#107,#108));
#149=IFCRELDEFINESBYPROPERTIES('0Cbozj_3TLDgtMpOD0_yYT',#18,$,$,(#144),#145);
#150=IFCRELDEFINESBYPROPERTIES('1Feha5xswcNTrZ$5QRM3b5',#18,$,$,(#144),#147);
#151=IFCRELDEFINESBYPROPERTIES('1olywbjtcxLyBnEbs_Cz$6',#18,$,$,(#144),#148);
#152=IFCCARTESIANPOINT((5000.,200.,0.));
#153=IFCAXIS2PLACEMENT3D(#152,#9,#7);
#154=IFCLOCALPLACEMENT(#34,#153);
#155=IFCCARTESIANPOINT((4300.,-0.));
#156=IFCPOLYLINE((#4,#155));
#157=IFCSHAPEREPRESENTATION(#23,'Axis','Curve2D',(#156));
#158=IFCCARTESIANPOINT((2150.,-3.19744231092045E-13));
#159=IFCAXIS2PLACEMENT2D(#158,#12);
#160=IFCRECTANGLEPROFILEDEF(.AREA.,$,#159,4300.,200.);
#161=IFCAXIS2PLACEMENT3D(#3,$,$);
#162=IFCEXTRUDEDAREASOLID(#160,#161,#9,2695.2);
#163=IFCCARTESIANPOINT((4300.,-0.));
#164=IFCCARTESIANPOINT((4300.,200.));
#165=IFCCARTESIANPOINT((0.,200.));
#166=IFCPOLYLINE((#4,#163,#164,#165,#4));
#167=IFCCARTESIANPOINT((0.,-100.,2695.2));
#168=IFCAXIS2PLACEMENT3D(#167,#10,#7);
#169=IFCPLANE(#168);
#170=IFCCARTESIANPOINT((0.,-100.,2695.2));
#171=IFCAXIS2PLACEMENT3D(#170,$,$);
#172=IFCPOLYGONALBOUNDEDHALFSPACE(#169,.T.,#171,#166);
#173=IFCBOOLEANCLIPPINGRESULT(.DIFFERENCE.,#162,#172);
#174=IFCSTYLEDITEM(#162,(#90),$);
#175=IFCSHAPEREPRESENTATION(#24,'Body','Clipping',(#173));
#176=IFCPRODUCTDEFINITIONSHAPE($,$,(#157,#175));
#177=IFCWALL('3Vyqk8cSj8TOuAk6zHUwBs',#18,'Basic Wall:Generic - 200mm:1602415',$,'Basic Wall:Generic - 200mm',#154,#176,'1602415',.NOTDEFINED.);
#178=IFCPROPERTYSET('3zFZKkmoyjMir2XJPwM5K5',#18,'Pset_EnvironmentalImpactIndicators',$,(#102));
#179=IFCPROPERTYSINGLEVALUE('Reference',$,IFCLABEL('Generic - 200mm'),$);
#180=IFCPROPERTYSET('24rl2YIcyoi55ChyZCq2G8',#18,'Pset_ReinforcementBarPitchOfWall',$,(#179));
#181=IFCPROPERTYSET('1QO0ZFI0bba_x9VNyujEk0',#18,'Pset_WallCommon',$,(#102,#106,#107,#108));
#182=IFCRELDEFINESBYPROPERTIES('2a9nfObiFdFDL_xI6RB3zY',#18,$,$,(#177),#178);
#183=IFCRELDEFINESBYPROPERTIES('2lgnXdSixHWA271wBKXvqj',#18,$,$,(#177),#180);
#184=IFCRELDEFINESBYPROPERTIES('1XotYCV5aUozGnrkwTWOXu',#18,$,$,(#177),#181);
#185=IFCCARTESIANPOINT((7500.,4600.,0.));
#186=IFCAXIS2PLACEMENT3D(#185,#9,#6);
#187=IFCLOCALPLACEMENT(#34,#186);
#188=IFCCARTESIANPOINT((4700.,0.));
#189=IFCPOLYLINE((#4,#188));
#190=IFCSHAPEREPRESENTATION(#23,'Axis','Curve2D',(#189));
#191=IFCCARTESIANPOINT((2350.,3.5527136788005E-14));
#192=IFCAXIS2PLACEMENT2D(#191,#12);
#193=IFCRECTANGLEPROFILEDEF(.AREA.,$,#192,4700.,200.);
#194=IFCAXIS2PLACEMENT3D(#3,$,$);
#195=IFCEXTRUDEDAREASOLID(#193,#194,#9,2695.2);
#196=IFCCARTESIANPOINT((4500.,0.));
#197=IFCCARTESIANPOINT((4700.,0.));
#198=IFCCARTESIANPOINT((4700.,200.));
#199=IFCCARTESIANPOINT((2600.,200.));
#200=IFCCARTESIANPOINT((2400.,200.));
#201=IFCCARTESIANPOINT((-0.,200.));
#202=IFCPOLYLINE((#4,#196,#197,#198,#199,#200,#201,#4));
#203=IFCCARTESIANPOINT((0.,-100.,2695.2));
#204=IFCAXIS2PLACEMENT3D(#203,#10,#5);
#205=IFCPLANE(#204);
#206=IFCCARTESIANPOINT((0.,-100.,2695.2));
#207=IFCAXIS2PLACEMENT3D(#206,$,$);
#208=IFCPOLYGONALBOUNDEDHALFSPACE(#205,.T.,#207,#202);
#209=IFCBOOLEANCLIPPINGRESULT(.DIFFERENCE.,#195,#208);
#210=IFCSTYLEDITEM(#195,(#90),$);
#211=IFCSHAPEREPRESENTATION(#24,'Body','Clipping',(#209));
#212=IFCPRODUCTDEFINITIONSHAPE($,$,(#190,#211));
#213=IFCWALL('3Vyqk8cSj8TOuAk6zHUw89',#18,'Basic Wall:Generic - 200mm:1602448',$,'Basic Wall:Generic - 200mm',#187,#212,'1602448',.NOTDEFINED.);
#214=IFCPROPERTYSET('24uQ0xYWMb2iAICPORaANl',#18,'Pset_EnvironmentalImpactIndicators',$,(#102));
#215=IFCPROPERTYSINGLEVALUE('Reference',$,IFCLABEL('Generic - 200mm'),$);
#216=IFCPROPERTYSET('2NtOS$PXqyXyak0_SUhCNN',#18,'Pset_ReinforcementBarPitchOfWall',$,(#215));
#217=IFCPROPERTYSET('3bKdsx29_RVH62fNRmCncU',#18,'Pset_WallCommon',$,(#102,#106,#107,#108));
#218=IFCRELDEFINESBYPROPERTIES('2OpRam8jxvHM2_75mSf2IS',#18,$,$,(#213),#214);
#219=IFCRELDEFINESBYPROPERTIES('1q8YBDpLYRkwLX2j2Smoto',#18,$,$,(#213),#216);
#220=IFCRELDEFINESBYPROPERTIES('3tUA_y2$R1DIY4ctO4p7G7',#18,$,$,(#213),#217);
#221=IFCCARTESIANPOINT((7600.,200.,0.));
#222=IFCAXIS2PLACEMENT3D(#221,#9,#7);
#223=IFCLOCALPLACEMENT(#34,#222);
#224=IFCCARTESIANPOINT((7900.,-0.));
#225=IFCPOLYLINE((#4,#224));
#226=IFCSHAPEREPRESENTATION(#23,'Axis','Curve2D',(#225));
#227=IFCCARTESIANPOINT((3950.00000000001,-1.56319401867222E-13));
#228=IFCAXIS2PLACEMENT2D(#227,#12);
#229=IFCRECTANGLEPROFILEDEF(.AREA.,$,#228,7900.00000000003,200.);
#230=IFCAXIS2PLACEMENT3D(#3,$,$);
#231=IFCEXTRUDEDAREASOLID(#229,#230,#9,2695.2);
#232=IFCCARTESIANPOINT((7900.,-0.));
#233=IFCCARTESIANPOINT((7900.,200.));
#234=IFCCARTESIANPOINT((7700.,200.));
#235=IFCCARTESIANPOINT((4500.,200.));
#236=IFCCARTESIANPOINT((4300.,200.));
#237=IFCCARTESIANPOINT((0.,200.));
#238=IFCPOLYLINE((#4,#232,#233,#234,#235,#236,#237,#4));
#239=IFCCARTESIANPOINT((0.,-100.,2695.2));
#240=IFCAXIS2PLACEMENT3D(#239,#10,#7);
#241=IFCPLANE(#240);
#242=IFCCARTESIANPOINT((0.,-100.,2695.2));
#243=IFCAXIS2PLACEMENT3D(#242,$,$);
#244=IFCPOLYGONALBOUNDEDHALFSPACE(#241,.T.,#243,#238);
#245=IFCBOOLEANCLIPPINGRESULT(.DIFFERENCE.,#231,#244);
#246=IFCSTYLEDITEM(#231,(#90),$);
#247=IFCSHAPEREPRESENTATION(#24,'Body','Clipping',(#245));
#248=IFCPRODUCTDEFINITIONSHAPE($,$,(#226,#247));
#249=IFCWALL('3Vyqk8cSj8TOuAk6zHUwMJ',#18,'Basic Wall:Generic - 200mm:1602570',$,'Basic Wall:Generic - 200mm',#223,#248,'1602570',.NOTDEFINED.);
#250=IFCPROPERTYSET('3lnIhEvOuHbjSaKDfZK8k9',#18,'Pset_EnvironmentalImpactIndicators',$,(#102));
#251=IFCPROPERTYSINGLEVALUE('Reference',$,IFCLABEL('Generic - 200mm'),$);
#252=IFCPROPERTYSET('04W1WwOvjm30inH1dChtfP',#18,'Pset_ReinforcementBarPitchOfWall',$,(#251));
#253=IFCPROPERTYSET('3KqX06vgGEOM$38ftOcyqA',#18,'Pset_WallCommon',$,(#102,#106,#107,#108));
#254=IFCRELDEFINESBYPROPERTIES('0S8aOnFU8WcFAwodE0ltd9',#18,$,$,(#249),#250);
#255=IFCRELDEFINESBYPROPERTIES('1tYLw8_V7aeyi7TVjsHYUw',#18,$,$,(#249),#252);
#256=IFCRELDEFINESBYPROPERTIES('1t2sWDc8aJN1HpxUM7WWie',#18,$,$,(#249),#253);
#257=IFCCARTESIANPOINT((7500.,8000.,0.));
#258=IFCAXIS2PLACEMENT3D(#257,#9,#6);
#259=IFCLOCALPLACEMENT(#34,#258);
#260=IFCCARTESIANPOINT((7300.,0.));
#261=IFCPOLYLINE((#4,#260));
#262=IFCSHAPEREPRESENTATION(#23,'Axis','Curve2D',(#261));
#263=IFCCARTESIANPOINT((3650.,4.40536496171262E-13));
#264=IFCAXIS2PLACEMENT2D(#263,#12);
#265=IFCRECTANGLEPROFILEDEF(.AREA.,$,#264,7300.,200.);
#266=IFCAXIS2PLACEMENT3D(#3,$,$);
#267=IFCEXTRUDEDAREASOLID(#265,#266,#9,2695.2);
#268=IFCCARTESIANPOINT((7300.,0.));
#269=IFCCARTESIANPOINT((7300.,200.));
#270=IFCCARTESIANPOINT((4700.,200.));
#271=IFCCARTESIANPOINT((4500.,200.));
#272=IFCCARTESIANPOINT((0.,200.));
#273=IFCPOLYLINE((#4,#268,#269,#270,#271,#272,#4));
#274=IFCCARTESIANPOINT((0.,-100.,2695.2));
#275=IFCAXIS2PLACEMENT3D(#274,#10,#5);
#276=IFCPLANE(#275);
#277=IFCCARTESIANPOINT((0.,-100.,2695.2));
#278=IFCAXIS2PLACEMENT3D(#277,$,$);
#279=IFCPOLYGONALBOUNDEDHALFSPACE(#276,.T.,#278,#273);
#280=IFCBOOLEANCLIPPINGRESULT(.DIFFERENCE.,#267,#279);
#281=IFCSTYLEDITEM(#267,(#90),$);
#282=IFCSHAPEREPRESENTATION(#24,'Body','Clipping',(#280));
#283=IFCPRODUCTDEFINITIONSHAPE($,$,(#262,#282));
#284=IFCWALL('3Vyqk8cSj8TOuAk6zHUwNQ',#18,'Basic Wall:Generic - 200mm:1602627',$,'Basic Wall:Generic - 200mm',#259,#283,'1602627',.NOTDEFINED.);
#285=IFCPROPERTYSET('33VNddCdyWuRINW3IN$6wR',#18,'Pset_EnvironmentalImpactIndicators',$,(#102));
#286=IFCPROPERTYSINGLEVALUE('Reference',$,IFCLABEL('Generic - 200mm'),$);
#287=IFCPROPERTYSET('3fo6gcdchLdhUs9OMMjJcK',#18,'Pset_ReinforcementBarPitchOfWall',$,(#286));
#288=IFCPROPERTYSET('365dpoAGwqqh9R$iloiJ6Y',#18,'Pset_WallCommon',$,(#102,#106,#107,#108));
#289=IFCRELDEFINESBYPROPERTIES('2BzMAyBcbgIMAClUNVhX7C',#18,$,$,(#284),#285);
#290=IFCRELDEFINESBYPROPERTIES('2jcjj16uqcySZoq7QPRlFE',#18,$,$,(#284),#287);
#291=IFCRELDEFINESBYPROPERTIES('3JFaQDGEcQuJc$tDFSxPEn',#18,$,$,(#284),#288);
#292=IFCCARTESIANPOINT((2900.,4700.,0.));
#293=IFCAXIS2PLACEMENT3D(#292,#9,#7);
#294=IFCLOCALPLACEMENT(#34,#293);
#295=IFCCARTESIANPOINT((3200.,0.));
#296=IFCPOLYLINE((#4,#295));
#297=IFCSHAPEREPRESENTATION(#23,'Axis','Curve2D',(#296));
#298=IFCCARTESIANPOINT((1600.00000000001,9.9475983006414E-14));
#299=IFCAXIS2PLACEMENT2D(#298,#12);
#300=IFCRECTANGLEPROFILEDEF(.AREA.,$,#299,3200.00000000003,200.);
#301=IFCAXIS2PLACEMENT3D(#3,$,$);
#302=IFCEXTRUDEDAREASOLID(#300,#301,#9,2695.2);
#303=IFCCARTESIANPOINT((3200.,0.));
#304=IFCCARTESIANPOINT((3200.,200.));
#305=IFCCARTESIANPOINT((0.,200.));
#306=IFCPOLYLINE((#4,#303,#304,#305,#4));
#307=IFCCARTESIANPOINT((0.,-100.,2695.2));
#308=IFCAXIS2PLACEMENT3D(#307,#10,#7);
#309=IFCPLANE(#308);
#310=IFCCARTESIANPOINT((0.,-100.,2695.2));
#311=IFCAXIS2PLACEMENT3D(#310,$,$);
#312=IFCPOLYGONALBOUNDEDHALFSPACE(#309,.T.,#311,#306);
#313=IFCBOOLEANCLIPPINGRESULT(.DIFFERENCE.,#302,#312);
#314=IFCSTYLEDITEM(#302,(#90),$);
#315=IFCSHAPEREPRESENTATION(#24,'Body','Clipping',(#313));
#316=IFCPRODUCTDEFINITIONSHAPE($,$,(#297,#315));
#317=IFCWALL('3Vyqk8cSj8TOuAk6zHUwIV',#18,'Basic Wall:Generic - 200mm:1602822',$,'Basic Wall:Generic - 200mm',#294,#316,'1602822',.NOTDEFINED.);
#318=IFCPROPERTYSET('3jiZGkAKUu2Am_YLPx8Ihp',#18,'Pset_EnvironmentalImpactIndicators',$,(#102));
#319=IFCPROPERTYSINGLEVALUE('Reference',$,IFCLABEL('Generic - 200mm'),$);
#320=IFCPROPERTYSET('0I2vFcCwzFIqXYuiAJMRoI',#18,'Pset_ReinforcementBarPitchOfWall',$,(#319));
#321=IFCPROPERTYSET('3oaDZ6ll2ApuPGw0$rKaRm',#18,'Pset_WallCommon',$,(#102,#106,#107,#108));
#322=IFCRELDEFINESBYPROPERTIES('3sUTm1e5PvbSM1LkCWEcnc',#18,$,$,(#317),#318);
#323=IFCRELDEFINESBYPROPERTIES('2PBm19nyIDk_wgMh7oZ7kn',#18,$,$,(#317),#320);
#324=IFCRELDEFINESBYPROPERTIES('1puf9ZxLtpuD$z2essXrIy',#18,$,$,(#317),#321);
#325=IFCAXIS2PLACEMENT3D(#3,$,$);
#326=IFCLOCALPLACEMENT(#34,#325);
#327=IFCCARTESIANPOINT((0.,0.));
#328=IFCAXIS2PLACEMENT2D(#327,#11);
#329=IFCRECTANGLEPROFILEDEF(.AREA.,$,#328,8100.,7700.00000000001);
#330=IFCCARTESIANPOINT((3850.,4050.,0.));
#331=IFCAXIS2PLACEMENT3D(#330,#10,#7);
#332=IFCEXTRUDEDAREASOLID(#329,#331,#9,304.8);
#333=IFCCOLOURRGB($,0.501960784313725,0.501960784313725,0.501960784313725);
#334=IFCSURFACESTYLERENDERING(#333,0.,$,$,$,$,IFCNORMALISEDRATIOMEASURE(0.5),IFCSPECULAREXPONENT(10.),.NOTDEFINED.);
#335=IFCSURFACESTYLE('Default Floor',.BOTH.,(#334));
#336=IFCSTYLEDITEM(#332,(#335),$);
#337=IFCSHAPEREPRESENTATION(#24,'Body','SweptSolid',(#332));
#338=IFCSIUNIT(*,.PLANEANGLEUNIT.,$,.RADIAN.);
#339=IFCDIMENSIONALEXPONENTS(0,0,0,0,0,0,0);
#340=IFCMEASUREWITHUNIT(IFCPLANEANGLEMEASURE(0.0174532925199433),#338);
#341=IFCCONVERSIONBASEDUNIT(#339,.PLANEANGLEUNIT.,'DEGREE',#340);
#342=IFCPRODUCTDEFINITIONSHAPE($,$,(#337));
#343=IFCSLAB('0dxtXCDSn2mfP92h$AiPNt',#18,'Floor:Generic - 12":1603513',$,'Floor:Generic - 12"',#326,#342,'1603513',.FLOOR.);
#344=IFCSLABTYPE('1xZrMVYp52mhf4uMzw11Hi',#18,'Floor:Generic - 12"',$,$,(#363),$,'441449',$,.FLOOR.);
#345=IFCMATERIAL('Default Floor',$,'Miscellaneous');
#346=IFCSTYLEDITEM($,(#335),$);
#347=IFCSTYLEDREPRESENTATION(#22,'Style','Material',(#346));
#348=IFCMATERIALDEFINITIONREPRESENTATION($,$,(#347),#345);
#349=IFCMATERIALLAYER(#345,304.8,$,'Layer',$,'Miscellaneous',$);
#350=IFCMATERIALLAYERSET((#349),'Floor:Generic - 12"',$);
#351=IFCMATERIALLAYERSETUSAGE(#350,.AXIS3.,.POSITIVE.,0.,$);
#352=IFCPROPERTYSINGLEVALUE('Reference',$,IFCIDENTIFIER('Generic - 12"'),$);
#353=IFCPROPERTYSET('2WrTm3aPy3BIbKc6XtXVrh',#18,'Pset_EnvironmentalImpactIndicators',$,(#352));
#354=IFCPROPERTYSINGLEVALUE('Reference',$,IFCLABEL('Generic - 12"'),$);
#355=IFCPROPERTYSET('0wUBDx6kDVbd2xy1P3gXJf',#18,'Pset_ReinforcementBarPitchOfSlab',$,(#354));
#356=IFCPROPERTYSINGLEVALUE('PitchAngle',$,IFCPLANEANGLEMEASURE(0.),$);
#357=IFCPROPERTYSET('2FpGr__1Pq1BThqRSA3oX5',#18,'Pset_SlabCommon',$,(#45,#107,#352,#356));
#358=IFCRELDEFINESBYPROPERTIES('2$ow_FWnc4oBF1YIvgCc32',#18,$,$,(#343),#353);
#359=IFCRELDEFINESBYPROPERTIES('3hptuPTkvy0K3xpzilXQpJ',#18,$,$,(#343),#355);
#360=IFCRELDEFINESBYPROPERTIES('3SAQiH1PVh8_oNSN1Eb0zh',#18,$,$,(#343),#357);
#361=IFCCLASSIFICATIONREFERENCE('https://www.csiresources.org/standards/uniformat','B1010','Floor Construction',#28,'',$);
#362=IFCPROPERTYSINGLEVALUE('Description',$,IFCTEXT('Generic Floor (Material By Category), 12" thick'),$);
#363=IFCPROPERTYSET('08jeqqdMvr9oQ2sJw84keo',#18,'Pset_ReinforcementBarPitchOfSlab',$,(#362));
#364=IFCAXIS2PLACEMENT3D(#3,$,$);
#365=IFCLOCALPLACEMENT(#38,#364);
#366=IFCCARTESIANPOINT((0.,0.));
#367=IFCAXIS2PLACEMENT2D(#366,#11);
#368=IFCRECTANGLEPROFILEDEF(.AREA.,$,#367,8100.,7700.00000000001);
#369=IFCCARTESIANPOINT((3850.,4050.,0.));
#370=IFCAXIS2PLACEMENT3D(#369,#10,#7);
#371=IFCEXTRUDEDAREASOLID(#368,#370,#9,304.8);
#372=IFCSTYLEDITEM(#371,(#335),$);
#373=IFCSHAPEREPRESENTATION(#24,'Body','SweptSolid',(#371));
#374=IFCPRODUCTDEFINITIONSHAPE($,$,(#373));
#375=IFCSLAB('0dxtXCDSn2mfP92h$AiPMM',#18,'Floor:Generic - 12":1603544',$,'Floor:Generic - 12"',#365,#374,'1603544',.FLOOR.);
#376=IFCMATERIALLAYERSETUSAGE(#350,.AXIS3.,.POSITIVE.,0.,$);
#377=IFCPROPERTYSET('1wLMRM1$4YVZsNBnBFFMd0',#18,'Pset_EnvironmentalImpactIndicators',$,(#352));
#378=IFCPROPERTYSINGLEVALUE('Reference',$,IFCLABEL('Generic - 12"'),$);
#379=IFCPROPERTYSET('0MAwAjFK5YfUgoTwoUwFYB',#18,'Pset_ReinforcementBarPitchOfSlab',$,(#378));
#380=IFCPROPERTYSET('2cTekeecQBqnrL694FiKsF',#18,'Pset_SlabCommon',$,(#45,#107,#352,#356));
#381=IFCRELDEFINESBYPROPERTIES('0DnK1k68zYJCBnBui8ZMIM',#18,$,$,(#375),#377);
#382=IFCRELDEFINESBYPROPERTIES('3UHBtfnBoDufUAm5_Sdzc6',#18,$,$,(#375),#379);
#383=IFCRELDEFINESBYPROPERTIES('3QyWHLykxi$VkbAGG93T0c',#18,$,$,(#375),#380);
#384=IFCPROPERTYSINGLEVALUE('Reference',$,IFCIDENTIFIER('8mm Head'),$);
#385=IFCPROPERTYSINGLEVALUE('AboveGround',$,IFCLOGICAL(.U.),$);
#386=IFCPROPERTYSET('16L50AfyZF4hYq5TGET4H4',#18,'Pset_BuildingStoreyCommon',$,(#384,#385));
#387=IFCPROPERTYSET('2J7ac_h5ujdwWuzVwBIIta',#18,'Pset_SpaceCommon',$,(#45,#384));
#388=IFCRELDEFINESBYPROPERTIES('2VdfSfkgzGoZi_3SgzE8$0',#18,$,$,(#35),#386);
#389=IFCRELDEFINESBYPROPERTIES('3$YdOpA8iaPobC8MDiWxoI',#18,$,$,(#35),#387);
#390=IFCRELCONTAINEDINSPATIALSTRUCTURE('2JF4e6axWHqu3u0C5FZlmi',#441,$,$,(#343,#284,#317,#213,#94,#249,#434,#144,#177,#432),#35);
#391=IFCPROPERTYSET('1n34enW33Z_3Qq2Pm1kjQZ',#18,'Pset_BuildingStoreyCommon',$,(#384,#385));
#392=IFCPROPERTYSET('0qNc4$IaPwTvoqOd7IlIE4',#18,'Pset_SpaceCommon',$,(#45,#384));
#393=IFCRELDEFINESBYPROPERTIES('36oM8gyLQ5_Z6XoGK5uP1E',#18,$,$,(#39),#391);
#394=IFCRELDEFINESBYPROPERTIES('0jA6Vdz$3CfPvu_I1iTL6J',#18,$,$,(#39),#392);
#395=IFCRELCONTAINEDINSPATIALSTRUCTURE('1ZGO8hrFCHqw0v0066FpFv',#18,$,$,(#375),#39);
#396=IFCRELAGGREGATES('2KFB6YYWgXBmucZ8cm7uCP',#18,$,$,#27,(#42));
#397=IFCRELAGGREGATES('16_hfJTeCqU7LcG8m10BTS',#18,$,$,#42,(#32));
#398=IFCRELAGGREGATES('1yhDISh1T5aQqAoygxGIhP',#18,$,$,#32,(#35,#39));
#399=IFCPROPERTYSINGLEVALUE('NumberOfStoreys',$,IFCCOUNTMEASURE(2),$);
#400=IFCPROPERTYSINGLEVALUE('IsLandmarked',$,IFCLOGICAL(.U.),$);
#401=IFCPROPERTYSET('01y_GmllCupEYuBgfGbhkd',#18,'Pset_BuildingCommon',$,(#43,#399,#400));
#402=IFCPROPERTYSET('1rUR7OGyIAkZT62xvibLnd',#18,'Pset_BuildingElementProxyCommon',$,(#43,#45));
#403=IFCPROPERTYSET('2kFDjjfIaTsBi7MLK$i$Me',#18,'Pset_BuildingStoreyCommon',$,(#43,#385));
#404=IFCPROPERTYSET('1TYvb3FgH88mtl04iE5P1T',#18,'Pset_BuildingSystemCommon',$,(#43));
#405=IFCPROPERTYSET('2W94HCj5xfigmNGtkBMklk',#18,'Pset_SpaceCommon',$,(#43,#45));
#406=IFCRELDEFINESBYPROPERTIES('0vDjba2fshDEh0_KufwWht',#18,$,$,(#32),#401);
#407=IFCRELDEFINESBYPROPERTIES('1V6UQfELB4oPy3GPEaJMPw',#18,$,$,(#32),#402);
#408=IFCRELDEFINESBYPROPERTIES('0Vpd75HttOMIhzXutBGgCt',#18,$,$,(#32),#403);
#409=IFCRELDEFINESBYPROPERTIES('22VMRBFW9n6_S81yWIP225',#18,$,$,(#32),#404);
#410=IFCRELDEFINESBYPROPERTIES('2w3bzVlKnfBVjA3_BjG2II',#18,$,$,(#32),#405);
#411=IFCRELASSOCIATESMATERIAL('09vdmREdTxn9CHkKQLCmva',#18,$,$,(#343),#351);
#412=IFCRELASSOCIATESMATERIAL('3F3FWvFIiue83dGwwuAFoT',#18,$,$,(#375),#376);
#413=IFCRELASSOCIATESMATERIAL('22T9r9KB1F3JFgePfxkUGp',#18,$,$,(#94,#101,#144,#177,#213,#249,#284,#317),#100);
#414=IFCRELASSOCIATESMATERIAL('0RkFpO4y91A56i7kETvvWZ',#18,$,$,(#344),#350);
#415=IFCRELDEFINESBYTYPE('0MSq_ijuC5q4PUKv4QkOsA',#18,$,$,(#94,#144,#177,#213,#249,#284,#317),#101);
#416=IFCRELDEFINESBYTYPE('3AVJtbOHyTnujdziMMd$qq',#18,$,$,(#343,#375),#344);
#417=IFCRELCONNECTSPATHELEMENTS('3ugK07sTRHPQgCANXzjPel',#18,'3Vyqk8cSj8TOuAk6zHUwAt|3Vyqk8cSj8TOuAk6zHUwNQ','Structural',$,#94,#284,(),(),.ATEND.,.ATSTART.);
#418=IFCRELCONNECTSPATHELEMENTS('23XeiboBqsTJYQlvX$RKBJ',#18,'3Vyqk8cSj8TOuAk6zHUwAt|3Vyqk8cSj8TOuAk6zHUwAc','Structural',$,#94,#144,(),(),.ATSTART.,.ATEND.);
#419=IFCRELCONNECTSPATHELEMENTS('3w3LufOHNrl72DM5FS5dUv',#18,'3Vyqk8cSj8TOuAk6zHUwAc|3Vyqk8cSj8TOuAk6zHUwMJ','Structural',$,#144,#249,(),(),.ATSTART.,.ATEND.);
#420=IFCRELCONNECTSPATHELEMENTS('3w2mhh8$Qd3TKIO$dCpCi4',#18,'3Vyqk8cSj8TOuAk6zHUwAc|3Vyqk8cSj8TOuAk6zHUwBs','Structural',$,#144,#177,(),(),.ATSTART.,.ATPATH.);
#421=IFCRELCONNECTSPATHELEMENTS('0_q_49R4Mso9ITEEZ476Ni',#18,'3Vyqk8cSj8TOuAk6zHUwBs|3Vyqk8cSj8TOuAk6zHUw89','Structural',$,#177,#213,(),(),.ATPATH.,.ATEND.);
#422=IFCRELCONNECTSPATHELEMENTS('2KmZM0_8Zn2586TzeqsUBp',#18,'3Vyqk8cSj8TOuAk6zHUw89|3Vyqk8cSj8TOuAk6zHUwMJ','Structural',$,#213,#249,(),(),.ATPATH.,.ATSTART.);
#423=IFCRELCONNECTSPATHELEMENTS('3A1VXDddu2dMWLGDKRGLxr',#18,'3Vyqk8cSj8TOuAk6zHUw89|3Vyqk8cSj8TOuAk6zHUwIV','Structural',$,#213,#317,(),(),.ATSTART.,.ATEND.);
#424=IFCRELCONNECTSPATHELEMENTS('0LaT41zAAAo8nacED5QZkK',#18,'3Vyqk8cSj8TOuAk6zHUwMJ|3Vyqk8cSj8TOuAk6zHUwNQ','Structural',$,#249,#284,(),(),.ATSTART.,.ATEND.);
#425=IFCRELCONNECTSPATHELEMENTS('3QFR4dIqUEv2wepHC$0Iqu',#18,'3Vyqk8cSj8TOuAk6zHUwNQ|3Vyqk8cSj8TOuAk6zHUwIV','Structural',$,#284,#317,(),(),.ATEND.,.ATPATH.);
#426=IFCPRESENTATIONLAYERASSIGNMENT('A-WALL-____-OTLN',$,(#68,#92,#121,#142,#157,#175,#190,#211,#226,#247,#262,#282,#297,#315),$);
#427=IFCPRESENTATIONLAYERASSIGNMENT('A-FLOR-____-OTLN',$,(#337,#373),$);
#428=IFCRELASSOCIATESCLASSIFICATION('2mNchzfGWDr_AK3qpy_v$I',#18,'Exterior Walls','Exterior Walls:B2010',(#94,#144,#177,#213,#249,#284,#317),#113);
#429=IFCRELASSOCIATESCLASSIFICATION('1sPZ7RnmtJXsu_N19h72IC',#18,'Floor Construction','Floor Construction:B1010',(#343,#375),#361);
#430=IFCUNITASSIGNMENT((#19,#69,#341));
#431=IFCOWNERHISTORY(#17,#2,.READWRITE.,.MODIFIED.,1769185820,#17,#2,1769185820);
#432=IFCOPENINGELEMENT('1Z0jMHLw11GPs4lW7OSvFy',#431,'Door Opening',$,$,#451,#460,$,$);
#433=IFCOWNERHISTORY(#17,#2,.READWRITE.,.MODIFIED.,1769185820,#17,#2,1769185820);
#434=IFCDOOR('0$NFpw1IHFYv5hbxZTKRMX',#433,'External Door',$,$,#446,#469,$,2121.,899.64,$,$,$);
#441=IFCOWNERHISTORY(#17,#2,$,.MODIFIED.,1769185820,#17,#2,1767701999);
#442=IFCCARTESIANPOINT((100.,6100.,0.));
#443=IFCDIRECTION((0.,0.,1.));
#444=IFCDIRECTION((0.,-1.,0.));
#445=IFCAXIS2PLACEMENT3D(#442,#443,#444);
#446=IFCLOCALPLACEMENT(#34,#445);
#447=IFCCARTESIANPOINT((100.,6100.,0.));
#448=IFCDIRECTION((0.,0.,1.));
#449=IFCDIRECTION((0.,-1.,0.));
#450=IFCAXIS2PLACEMENT3D(#447,#448,#449);
#451=IFCLOCALPLACEMENT(#34,#450);
#452=IFCCARTESIANPOINT((0.,0.));
#453=IFCAXIS2PLACEMENT2D(#452,$);
#454=IFCRECTANGLEPROFILEDEF(.AREA.,$,#453,200.,918.);
#455=IFCCARTESIANPOINT((0.,0.,0.));
#456=IFCAXIS2PLACEMENT3D(#455,$,$);
#457=IFCDIRECTION((0.,0.,1.));
#458=IFCEXTRUDEDAREASOLID(#454,#456,#457,2121.);
#459=IFCSHAPEREPRESENTATION(#22,'Body','SweptSolid',(#458));
#460=IFCPRODUCTDEFINITIONSHAPE($,$,(#459));
#461=IFCCARTESIANPOINT((0.,0.));
#462=IFCAXIS2PLACEMENT2D(#461,$);
#463=IFCRECTANGLEPROFILEDEF(.AREA.,$,#462,50.,899.64);
#464=IFCCARTESIANPOINT((0.,0.,0.));
#465=IFCAXIS2PLACEMENT3D(#464,$,$);
#466=IFCDIRECTION((0.,0.,1.));
#467=IFCEXTRUDEDAREASOLID(#463,#465,#466,2121.);
#468=IFCSHAPEREPRESENTATION(#22,'Body','SweptSolid',(#467));
#469=IFCPRODUCTDEFINITIONSHAPE($,$,(#468));
#470=IFCRELVOIDSELEMENT('2d_KYLma1Cc8H0QPjYaJkL',#18,$,$,#94,#432);
#471=IFCRELFILLSELEMENT('30EFNxehbF7w2O_SgD80LO',#18,$,$,#432,#434);
#472=IFCOWNERHISTORY(#17,#2,.READWRITE.,.ADDED.,1769185820,#17,#2,1769185820);
#473=IFCPROPERTYSET('1zUCvwhaf3sRJ1sGSxMLz9',#472,'Pset_DoorCommon',$,$);
#474=IFCOWNERHISTORY(#17,#2,.READWRITE.,.ADDED.,1769185820,#17,#2,1769185820);
#475=IFCRELDEFINESBYPROPERTIES('3vNkAMHhfEpB4rW$vdSDKX',#474,$,$,(#434),#473);
ENDSEC;
END-ISO-10303-21;
