ISO-10303-21;
HEADER;
FILE_DESCRIPTION(('ViewDefinition [CoordinationView]','RevitIdentifiers [ContentGUID: cbb0ae2e-6350-4225-8ca4-af668662c38d, VersionGUID: eea968c9-23b0-4154-b104-1b1c7a247034, NumberOfSaves: 30]','CoordinateReference [CoordinateBase: Shared Coordinates]'),'2;1');
FILE_NAME('02_00_003.ifc','2026-01-19T15:35:38+01:00',(''),(''),'ODA SDAI 24.6','Autodesk Revit 24.3.30.11 (ENU) - IFC 24.3.30.11','');
FILE_SCHEMA(('IFC4X3'));
ENDSEC;

DATA;
#1=IFCORGANIZATION($,'Autodesk Revit 2024 (ENU)',$,$,$);
#2=IFCAPPLICATION(#1,'2024','Autodesk Revit 2024 (ENU)','Revit');
#3=IFCCARTESIANPOINT((0.,0.,0.));
#4=IFCCARTESIANPOINT((0.,0.));
#5=IFCDIRECTION((1.,0.,0.));
#6=IFCDIRECTION((-1.,0.,0.));
#7=IFCDIRECTION((0.,1.,0.));
#8=IFCDIRECTION((0.,-1.,0.));
#9=IFCDIRECTION((0.,0.,1.));
#10=IFCDIRECTION((0.,0.,-1.));
#11=IFCDIRECTION((1.,0.));
#12=IFCDIRECTION((-1.,0.));
#13=IFCDIRECTION((0.,1.));
#14=IFCDIRECTION((0.,-1.));
#15=IFCPERSON($,'','h.helming',$,$,$,$,$);
#16=IFCORGANIZATION($,'Organization Name','Organization Description',$,$);
#17=IFCPERSONANDORGANIZATION(#15,#16,$);
#18=IFCOWNERHISTORY(#17,#2,$,.NOCHANGE.,$,$,$,1767889571);
#19=IFCSIUNIT(*,.LENGTHUNIT.,.MILLI.,.METRE.);
#20=IFCAXIS2PLACEMENT3D(#3,$,$);
#21=IFCDIRECTION((6.1230317691118863E-17,1.));
#22=IFCGEOMETRICREPRESENTATIONCONTEXT($,'Model',3,0.01,#20,#21);
#23=IFCGEOMETRICREPRESENTATIONSUBCONTEXT('Axis','Model',*,*,*,*,#22,$,.GRAPH_VIEW.,$);
#24=IFCGEOMETRICREPRESENTATIONSUBCONTEXT('Body','Model',*,*,*,*,#22,$,.MODEL_VIEW.,$);
#25=IFCGEOMETRICREPRESENTATIONSUBCONTEXT('Box','Model',*,*,*,*,#22,$,.MODEL_VIEW.,$);
#26=IFCGEOMETRICREPRESENTATIONSUBCONTEXT('FootPrint','Model',*,*,*,*,#22,$,.MODEL_VIEW.,$);
#27=IFCPROJECT('3BiAukOr129OoahsPvdJnz',#18,'Project Number',$,$,'Project Name','Project Status',(#22),#414);
#28=IFCCLASSIFICATION('CSI (Construction Specifications Institute)','1998',$,'Uniformat','UniFormat Classification','https://www.csiresources.org/standards/uniformat',$);
#29=IFCAXIS2PLACEMENT3D(#3,$,$);
#30=IFCLOCALPLACEMENT(#41,#29);
#31=IFCPOSTALADDRESS($,$,$,$,('Enter address hereAddress Line 2'),$,'','Boston','','MA');
#32=IFCBUILDING('3BiAukOr129OoahsPvdJny',#18,'Building Name',$,$,#30,$,'Building Name',.ELEMENT.,$,$,#31);
#33=IFCAXIS2PLACEMENT3D(#3,$,$);
#34=IFCLOCALPLACEMENT(#30,#33);
#35=IFCBUILDINGSTOREY('2JF4e6axWHqu3u0C1FZlmi',#18,'L1',$,'Level:8mm Head',#34,$,'L1',.ELEMENT.,0.);
#36=IFCCARTESIANPOINT((0.,0.,3000.));
#37=IFCAXIS2PLACEMENT3D(#36,$,$);
#38=IFCLOCALPLACEMENT(#30,#37);
#39=IFCBUILDINGSTOREY('1ZGO8hrFCHqw0v0026FpFv',#18,'L2',$,'Level:8mm Head',#38,$,'L2',.ELEMENT.,3000.);
#40=IFCAXIS2PLACEMENT3D(#3,$,$);
#41=IFCLOCALPLACEMENT($,#40);
#42=IFCSITE('3BiAukOr129OoahsPvdJn$',#18,'Default',$,$,#41,$,$,.ELEMENT.,(42,21,31,401672),(-71,-3,-24,-345703),0.,$,$);
#43=IFCPROPERTYSINGLEVALUE('Reference',$,IFCIDENTIFIER('Project Information'),$);
#44=IFCPROPERTYSET('2mFJcO6I01h0OYRLOICO3c',#18,'Pset_SiteCommon',$,(#43));
#45=IFCPROPERTYSINGLEVALUE('IsExternal',$,IFCBOOLEAN(.F.),$);
#46=IFCPROPERTYSET('0O$B2PbAODr9jYnpcaZGJT',#18,'Pset_SpaceCommon',$,(#43,#45));
#47=IFCRELDEFINESBYPROPERTIES('2fDrcjst0HFayqQ3dY1cGQ',#18,$,$,(#42),#44);
#48=IFCRELDEFINESBYPROPERTIES('1lYkP70lXSGXnZeJnLC8MY',#18,$,$,(#42),#46);
#55=IFCCARTESIANPOINT((5000.,100.,0.));
#56=IFCAXIS2PLACEMENT3D(#55,$,$);
#57=IFCLOCALPLACEMENT(#34,#56);
#58=IFCCARTESIANPOINT((5000.,0.));
#59=IFCPOLYLINE((#4,#58));
#60=IFCSHAPEREPRESENTATION(#23,'Axis','Curve2D',(#59));
#61=IFCSIUNIT(*,.AREAUNIT.,$,.SQUARE_METRE.);
#62=IFCCARTESIANPOINT((2500.0000000000073,2.1316282072803006E-14));
#63=IFCAXIS2PLACEMENT2D(#62,#12);
#64=IFCRECTANGLEPROFILEDEF(.AREA.,$,#63,5000.0000000000146,200.);
#65=IFCAXIS2PLACEMENT3D(#3,$,$);
#66=IFCEXTRUDEDAREASOLID(#64,#65,#9,2700.);
#67=IFCCARTESIANPOINT((5000.,0.));
#68=IFCCARTESIANPOINT((5000.,200.));
#69=IFCCARTESIANPOINT((0.,200.));
#70=IFCPOLYLINE((#4,#67,#68,#69,#4));
#71=IFCCARTESIANPOINT((0.,-100.,2700.));
#72=IFCAXIS2PLACEMENT3D(#71,#10,#5);
#73=IFCPLANE(#72);
#74=IFCCARTESIANPOINT((0.,-100.,2700.));
#75=IFCAXIS2PLACEMENT3D(#74,$,$);
#76=IFCPOLYGONALBOUNDEDHALFSPACE(#73,.T.,#75,#70);
#77=IFCBOOLEANCLIPPINGRESULT(.DIFFERENCE.,#66,#76);
#78=IFCCOLOURRGB($,0.75294117647058822,0.75294117647058822,0.75294117647058822);
#79=IFCSURFACESTYLERENDERING(#78,0.,$,$,$,$,IFCNORMALISEDRATIOMEASURE(0.5),IFCSPECULAREXPONENT(10.),.NOTDEFINED.);
#80=IFCSURFACESTYLE('Default Wall',.BOTH.,(#79));
#81=IFCSTYLEDITEM(#66,(#80),$);
#82=IFCSHAPEREPRESENTATION(#24,'Body','Clipping',(#77));
#83=IFCPRODUCTDEFINITIONSHAPE($,$,(#60,#82));
#84=IFCWALL('1NrLJManH9euSq4FIPen0K',#18,'Basic Wall:Generic - 200mm:1605976',$,'Basic Wall:Generic - 200mm',#57,#83,'1605976',.NOTDEFINED.);
#85=IFCMATERIAL('Default Wall',$,'Miscellaneous');
#86=IFCSTYLEDITEM($,(#80),$);
#87=IFCSTYLEDREPRESENTATION(#22,'Style','Material',(#86));
#88=IFCMATERIALDEFINITIONREPRESENTATION($,$,(#87),#85);
#89=IFCMATERIALLAYER(#85,200.,$,'Layer',$,'Miscellaneous',$);
#90=IFCMATERIALLAYERSET((#89),'Basic Wall:Generic - 200mm',$);
#91=IFCWALLTYPE('1xZrMVYp52mhf4uMzw11Hk',#18,'Basic Wall:Generic - 200mm',$,$,(#105),$,'441451',$,.STANDARD.);
#92=IFCPROPERTYSINGLEVALUE('Reference',$,IFCIDENTIFIER('Generic - 200mm'),$);
#93=IFCPROPERTYSET('0a9_HzJtSag1hfNLAmoaQf',#18,'Pset_EnvironmentalImpactIndicators',$,(#92));
#94=IFCPROPERTYSINGLEVALUE('Reference',$,IFCLABEL('Generic - 200mm'),$);
#95=IFCPROPERTYSET('0mqFqhjTVyBd8GuTYtw6sL',#18,'Pset_ReinforcementBarPitchOfWall',$,(#94));
#96=IFCPROPERTYSINGLEVALUE('IsExternal',$,IFCBOOLEAN(.T.),$);
#97=IFCPROPERTYSINGLEVALUE('LoadBearing',$,IFCBOOLEAN(.F.),$);
#98=IFCPROPERTYSINGLEVALUE('ExtendToStructure',$,IFCBOOLEAN(.T.),$);
#99=IFCPROPERTYSET('1IUpa5CfMKYihGQyPdwUG5',#18,'Pset_WallCommon',$,(#92,#96,#97,#98));
#100=IFCRELDEFINESBYPROPERTIES('2UC4BL8$3E45uX2d0xg5fZ',#18,$,$,(#84),#93);
#101=IFCRELDEFINESBYPROPERTIES('3Ka74kZLlHghV9DuuaB6HA',#18,$,$,(#84),#95);
#102=IFCRELDEFINESBYPROPERTIES('08yg9gHL9P1OpsiUMRxh6u',#18,$,$,(#84),#99);
#103=IFCCLASSIFICATIONREFERENCE('https://www.csiresources.org/standards/uniformat','B2010','Exterior Walls',#28,'',$);
#104=IFCPROPERTYSINGLEVALUE('Description',$,IFCTEXT('Generic Wall (Material By Category), 200mm thick'),$);
#105=IFCPROPERTYSET('2L7lvTstnIeeydfwzfZZLR',#18,'Pset_ReinforcementBarPitchOfWall',$,(#104));
#106=IFCCARTESIANPOINT((9900.,2810.,0.));
#107=IFCAXIS2PLACEMENT3D(#106,#9,#7);
#108=IFCLOCALPLACEMENT(#34,#107);
#109=IFCCARTESIANPOINT((5000.,0.));
#110=IFCPOLYLINE((#4,#109));
#111=IFCSHAPEREPRESENTATION(#23,'Axis','Curve2D',(#110));
#112=IFCCARTESIANPOINT((2500.0000000000009,0.));
#113=IFCAXIS2PLACEMENT2D(#112,#12);
#114=IFCRECTANGLEPROFILEDEF(.AREA.,$,#113,5000.0000000000018,199.99999999999784);
#115=IFCAXIS2PLACEMENT3D(#3,$,$);
#116=IFCEXTRUDEDAREASOLID(#114,#115,#9,2700.);
#117=IFCCARTESIANPOINT((5000.,0.));
#118=IFCCARTESIANPOINT((5000.,200.));
#119=IFCCARTESIANPOINT((0.,200.));
#120=IFCPOLYLINE((#4,#117,#118,#119,#4));
#121=IFCCARTESIANPOINT((0.,-100.,2700.));
#122=IFCAXIS2PLACEMENT3D(#121,#10,#8);
#123=IFCPLANE(#122);
#124=IFCCARTESIANPOINT((0.,-100.,2700.));
#125=IFCAXIS2PLACEMENT3D(#124,$,$);
#126=IFCPOLYGONALBOUNDEDHALFSPACE(#123,.T.,#125,#120);
#127=IFCBOOLEANCLIPPINGRESULT(.DIFFERENCE.,#116,#126);
#128=IFCSTYLEDITEM(#116,(#80),$);
#129=IFCSHAPEREPRESENTATION(#24,'Body','Clipping',(#127));
#130=IFCPRODUCTDEFINITIONSHAPE($,$,(#111,#129));
#131=IFCWALL('1NrLJManH9euSq4FIPen3c',#18,'Basic Wall:Generic - 200mm:1606058',$,'Basic Wall:Generic - 200mm',#108,#130,'1606058',.NOTDEFINED.);
#132=IFCPROPERTYSET('3HaHiQ0Thlx9HOws_DuQys',#18,'Pset_EnvironmentalImpactIndicators',$,(#92));
#133=IFCPROPERTYSINGLEVALUE('Reference',$,IFCLABEL('Generic - 200mm'),$);
#134=IFCPROPERTYSET('2IprxayYLfahOKDMxGz0ja',#18,'Pset_ReinforcementBarPitchOfWall',$,(#133));
#135=IFCPROPERTYSET('1m32xMKxWMW8pUrURpsvGg',#18,'Pset_WallCommon',$,(#92,#96,#97,#98));
#136=IFCRELDEFINESBYPROPERTIES('2Zgz74rZsaz931XncNk1fr',#18,$,$,(#131),#132);
#137=IFCRELDEFINESBYPROPERTIES('07TtBxh9oCtqITvmtiL_2H',#18,$,$,(#131),#134);
#138=IFCRELDEFINESBYPROPERTIES('2ZcKEd7lc92X_0v64y425a',#18,$,$,(#131),#135);
#139=IFCCARTESIANPOINT((10000.,8210.,0.));
#140=IFCAXIS2PLACEMENT3D(#139,#9,#6);
#141=IFCLOCALPLACEMENT(#34,#140);
#142=IFCCARTESIANPOINT((5000.,0.));
#143=IFCPOLYLINE((#4,#142));
#144=IFCSHAPEREPRESENTATION(#23,'Axis','Curve2D',(#143));
#145=IFCCARTESIANPOINT((2500.,0.));
#146=IFCAXIS2PLACEMENT2D(#145,#12);
#147=IFCRECTANGLEPROFILEDEF(.AREA.,$,#146,5000.,200.);
#148=IFCAXIS2PLACEMENT3D(#3,$,$);
#149=IFCEXTRUDEDAREASOLID(#147,#148,#9,2700.);
#150=IFCCARTESIANPOINT((5000.,0.));
#151=IFCCARTESIANPOINT((5000.,200.));
#152=IFCCARTESIANPOINT((0.,200.));
#153=IFCPOLYLINE((#4,#150,#151,#152,#4));
#154=IFCCARTESIANPOINT((0.,-100.,2700.));
#155=IFCAXIS2PLACEMENT3D(#154,#10,#6);
#156=IFCPLANE(#155);
#157=IFCCARTESIANPOINT((0.,-100.,2700.));
#158=IFCAXIS2PLACEMENT3D(#157,$,$);
#159=IFCPOLYGONALBOUNDEDHALFSPACE(#156,.T.,#158,#153);
#160=IFCBOOLEANCLIPPINGRESULT(.DIFFERENCE.,#149,#159);
#161=IFCSTYLEDITEM(#149,(#80),$);
#162=IFCSHAPEREPRESENTATION(#24,'Body','Clipping',(#160));
#163=IFCPRODUCTDEFINITIONSHAPE($,$,(#144,#162));
#164=IFCWALL('1NrLJManH9euSq4FIPenCV',#18,'Basic Wall:Generic - 200mm:1606227',$,'Basic Wall:Generic - 200mm',#141,#163,'1606227',.NOTDEFINED.);
#165=IFCPROPERTYSET('3_CWy2iVAFUgasYpklobOv',#18,'Pset_EnvironmentalImpactIndicators',$,(#92));
#166=IFCPROPERTYSINGLEVALUE('Reference',$,IFCLABEL('Generic - 200mm'),$);
#167=IFCPROPERTYSET('1M3TycwJyy8rDhgd6dogff',#18,'Pset_ReinforcementBarPitchOfWall',$,(#166));
#168=IFCPROPERTYSET('1_CwZ6jZ2D1O2ffVe1mcjA',#18,'Pset_WallCommon',$,(#92,#96,#97,#98));
#169=IFCRELDEFINESBYPROPERTIES('2uL49IO4faPzVnIB3nzNpI',#18,$,$,(#164),#165);
#170=IFCRELDEFINESBYPROPERTIES('1JcEuOAqI5JEvW6fno3Otu',#18,$,$,(#164),#167);
#171=IFCRELDEFINESBYPROPERTIES('2cdXzw3ssVHBahncoKg9Hk',#18,$,$,(#164),#168);
#172=IFCCARTESIANPOINT((6800.,3450.,0.));
#173=IFCAXIS2PLACEMENT3D(#172,#9,#6);
#174=IFCLOCALPLACEMENT(#34,#173);
#175=IFCCARTESIANPOINT((5000.,0.));
#176=IFCPOLYLINE((#4,#175));
#177=IFCSHAPEREPRESENTATION(#23,'Axis','Curve2D',(#176));
#178=IFCCARTESIANPOINT((2500.0000000000014,5.6843418860808015E-14));
#179=IFCAXIS2PLACEMENT2D(#178,#12);
#180=IFCRECTANGLEPROFILEDEF(.AREA.,$,#179,5000.0000000000027,200.);
#181=IFCAXIS2PLACEMENT3D(#3,$,$);
#182=IFCEXTRUDEDAREASOLID(#180,#181,#9,2700.);
#183=IFCCARTESIANPOINT((5000.,0.));
#184=IFCCARTESIANPOINT((5000.,200.));
#185=IFCCARTESIANPOINT((0.,200.));
#186=IFCPOLYLINE((#4,#183,#184,#185,#4));
#187=IFCCARTESIANPOINT((0.,-100.,2700.));
#188=IFCAXIS2PLACEMENT3D(#187,#10,#6);
#189=IFCPLANE(#188);
#190=IFCCARTESIANPOINT((0.,-100.,2700.));
#191=IFCAXIS2PLACEMENT3D(#190,$,$);
#192=IFCPOLYGONALBOUNDEDHALFSPACE(#189,.T.,#191,#186);
#193=IFCBOOLEANCLIPPINGRESULT(.DIFFERENCE.,#182,#192);
#194=IFCSTYLEDITEM(#182,(#80),$);
#195=IFCSHAPEREPRESENTATION(#24,'Body','Clipping',(#193));
#196=IFCPRODUCTDEFINITIONSHAPE($,$,(#177,#195));
#197=IFCWALL('1NrLJManH9euSq4FIPenFQ',#18,'Basic Wall:Generic - 200mm:1606294',$,'Basic Wall:Generic - 200mm',#174,#196,'1606294',.NOTDEFINED.);
#198=IFCPROPERTYSET('3IeLVMhqxFEVw39pLHcxjE',#18,'Pset_EnvironmentalImpactIndicators',$,(#92));
#199=IFCPROPERTYSINGLEVALUE('Reference',$,IFCLABEL('Generic - 200mm'),$);
#200=IFCPROPERTYSET('2xWDQOC0wr8Kga32nR8blC',#18,'Pset_ReinforcementBarPitchOfWall',$,(#199));
#201=IFCPROPERTYSET('3Y1r5qVh5xUrJ_oN6xAXbs',#18,'Pset_WallCommon',$,(#92,#96,#97,#98));
#202=IFCRELDEFINESBYPROPERTIES('3hicahPZFo7UzIwFreNiSn',#18,$,$,(#197),#198);
#203=IFCRELDEFINESBYPROPERTIES('33EqXy_yBVSfpXv5f5ruac',#18,$,$,(#197),#200);
#204=IFCRELDEFINESBYPROPERTIES('0MrGCnMTD08jJAlOPJ_64Z',#18,$,$,(#197),#201);
#205=IFCCARTESIANPOINT((3200.,6800.,0.));
#206=IFCAXIS2PLACEMENT3D(#205,#9,#6);
#207=IFCLOCALPLACEMENT(#34,#206);
#208=IFCCARTESIANPOINT((5000.,0.));
#209=IFCPOLYLINE((#4,#208));
#210=IFCSHAPEREPRESENTATION(#23,'Axis','Curve2D',(#209));
#211=IFCCARTESIANPOINT((2500.0000000000173,0.));
#212=IFCAXIS2PLACEMENT2D(#211,#12);
#213=IFCRECTANGLEPROFILEDEF(.AREA.,$,#212,5000.0000000000346,200.);
#214=IFCAXIS2PLACEMENT3D(#3,$,$);
#215=IFCEXTRUDEDAREASOLID(#213,#214,#9,2700.);
#216=IFCCARTESIANPOINT((5000.,0.));
#217=IFCCARTESIANPOINT((5000.,200.));
#218=IFCCARTESIANPOINT((3200.,200.));
#219=IFCCARTESIANPOINT((3000.,200.));
#220=IFCCARTESIANPOINT((0.,200.));
#221=IFCPOLYLINE((#4,#216,#217,#218,#219,#220,#4));
#222=IFCCARTESIANPOINT((0.,-100.,2700.));
#223=IFCAXIS2PLACEMENT3D(#222,#10,#6);
#224=IFCPLANE(#223);
#225=IFCCARTESIANPOINT((0.,-100.,2700.));
#226=IFCAXIS2PLACEMENT3D(#225,$,$);
#227=IFCPOLYGONALBOUNDEDHALFSPACE(#224,.T.,#226,#221);
#228=IFCBOOLEANCLIPPINGRESULT(.DIFFERENCE.,#215,#227);
#229=IFCSTYLEDITEM(#215,(#80),$);
#230=IFCSHAPEREPRESENTATION(#24,'Body','Clipping',(#228));
#231=IFCPRODUCTDEFINITIONSHAPE($,$,(#210,#230));
#232=IFCWALL('1NrLJManH9euSq4FIPenER',#18,'Basic Wall:Generic - 200mm:1606359',$,'Basic Wall:Generic - 200mm',#207,#231,'1606359',.NOTDEFINED.);
#233=IFCPROPERTYSET('0TvNvVOhVrMNqxjELO5Vjp',#18,'Pset_EnvironmentalImpactIndicators',$,(#92));
#234=IFCPROPERTYSINGLEVALUE('Reference',$,IFCLABEL('Generic - 200mm'),$);
#235=IFCPROPERTYSET('2ehhDPv0tQleQQLF98R2Th',#18,'Pset_ReinforcementBarPitchOfWall',$,(#234));
#236=IFCPROPERTYSET('2NHE5AGb$EwcZR2dYL$8fx',#18,'Pset_WallCommon',$,(#92,#96,#97,#98));
#237=IFCRELDEFINESBYPROPERTIES('2Dfa$2ta__75zhoqxdWXu2',#18,$,$,(#232),#233);
#238=IFCRELDEFINESBYPROPERTIES('1_aD0QE45wdlQ97LaI_heh',#18,$,$,(#232),#235);
#239=IFCRELDEFINESBYPROPERTIES('1znR_YXLycLmQyB85KeQxd',#18,$,$,(#232),#236);
#240=IFCCARTESIANPOINT((100.,6700.,0.));
#241=IFCAXIS2PLACEMENT3D(#240,#9,#8);
#242=IFCLOCALPLACEMENT(#34,#241);
#243=IFCCARTESIANPOINT((4900.,-0.));
#244=IFCPOLYLINE((#4,#243));
#245=IFCSHAPEREPRESENTATION(#23,'Axis','Curve2D',(#244));
#246=IFCCARTESIANPOINT((2450.0000000000032,-1.4210854715202004E-14));
#247=IFCAXIS2PLACEMENT2D(#246,#12);
#248=IFCRECTANGLEPROFILEDEF(.AREA.,$,#247,4900.0000000000064,200.);
#249=IFCAXIS2PLACEMENT3D(#3,$,$);
#250=IFCEXTRUDEDAREASOLID(#248,#249,#9,2700.);
#251=IFCCARTESIANPOINT((4900.,0.));
#252=IFCCARTESIANPOINT((4900.,200.));
#253=IFCCARTESIANPOINT((0.,200.));
#254=IFCPOLYLINE((#4,#251,#252,#253,#4));
#255=IFCCARTESIANPOINT((0.,-100.,2700.));
#256=IFCAXIS2PLACEMENT3D(#255,#10,#7);
#257=IFCPLANE(#256);
#258=IFCCARTESIANPOINT((0.,-100.,2700.));
#259=IFCAXIS2PLACEMENT3D(#258,$,$);
#260=IFCPOLYGONALBOUNDEDHALFSPACE(#257,.T.,#259,#254);
#261=IFCBOOLEANCLIPPINGRESULT(.DIFFERENCE.,#250,#260);
#262=IFCSTYLEDITEM(#250,(#80),$);
#263=IFCSHAPEREPRESENTATION(#24,'Body','Clipping',(#261));
#264=IFCPRODUCTDEFINITIONSHAPE($,$,(#245,#263));
#265=IFCWALL('1NrLJManH9euSq4FIPen87',#18,'Basic Wall:Generic - 200mm:1606475',$,'Basic Wall:Generic - 200mm',#242,#264,'1606475',.NOTDEFINED.);
#266=IFCPROPERTYSET('2sNWwi52$I8Ij0RhBHlK8Q',#18,'Pset_EnvironmentalImpactIndicators',$,(#92));
#267=IFCPROPERTYSINGLEVALUE('Reference',$,IFCLABEL('Generic - 200mm'),$);
#268=IFCPROPERTYSET('0eUFi$CHyYVPv_TK4gIO$b',#18,'Pset_ReinforcementBarPitchOfWall',$,(#267));
#269=IFCPROPERTYSET('1MLVvABjGLqg6mvEXPEXAo',#18,'Pset_WallCommon',$,(#92,#96,#97,#98));
#270=IFCRELDEFINESBYPROPERTIES('05chfs6lyKwrPm_Y2wEkMa',#18,$,$,(#265),#266);
#271=IFCRELDEFINESBYPROPERTIES('0$xG0pugjUItAV85YqWNxl',#18,$,$,(#265),#268);
#272=IFCRELDEFINESBYPROPERTIES('3acZNWysaqrFnBm8HtdLkZ',#18,$,$,(#265),#269);
#273=IFCCARTESIANPOINT((8500.,410.,0.));
#274=IFCAXIS2PLACEMENT3D(#273,#9,#7);
#275=IFCLOCALPLACEMENT(#34,#274);
#276=IFCCARTESIANPOINT((5000.,-0.));
#277=IFCPOLYLINE((#4,#276));
#278=IFCSHAPEREPRESENTATION(#23,'Axis','Curve2D',(#277));
#279=IFCCARTESIANPOINT((2500.,-2.1316282072803006E-14));
#280=IFCAXIS2PLACEMENT2D(#279,#12);
#281=IFCRECTANGLEPROFILEDEF(.AREA.,$,#280,5000.,200.);
#282=IFCAXIS2PLACEMENT3D(#3,$,$);
#283=IFCEXTRUDEDAREASOLID(#281,#282,#9,2700.);
#284=IFCCARTESIANPOINT((5000.,-0.));
#285=IFCCARTESIANPOINT((5000.,200.));
#286=IFCCARTESIANPOINT((0.,200.));
#287=IFCPOLYLINE((#4,#284,#285,#286,#4));
#288=IFCCARTESIANPOINT((0.,-100.,2700.));
#289=IFCAXIS2PLACEMENT3D(#288,#10,#8);
#290=IFCPLANE(#289);
#291=IFCCARTESIANPOINT((0.,-100.,2700.));
#292=IFCAXIS2PLACEMENT3D(#291,$,$);
#293=IFCPOLYGONALBOUNDEDHALFSPACE(#290,.T.,#292,#287);
#294=IFCBOOLEANCLIPPINGRESULT(.DIFFERENCE.,#283,#293);
#295=IFCSTYLEDITEM(#283,(#80),$);
#296=IFCSHAPEREPRESENTATION(#24,'Body','Clipping',(#294));
#297=IFCPRODUCTDEFINITIONSHAPE($,$,(#278,#296));
#298=IFCWALL('1NrLJManH9euSq4FIPensX',#18,'Basic Wall:Generic - 200mm:1608941',$,'Basic Wall:Generic - 200mm',#275,#297,'1608941',.NOTDEFINED.);
#299=IFCPROPERTYSET('3ASsFZ$ufC8D$Cg8JxQ3r1',#18,'Pset_EnvironmentalImpactIndicators',$,(#92));
#300=IFCPROPERTYSINGLEVALUE('Reference',$,IFCLABEL('Generic - 200mm'),$);
#301=IFCPROPERTYSET('36$sia9sMoo$dvGRniF7as',#18,'Pset_ReinforcementBarPitchOfWall',$,(#300));
#302=IFCPROPERTYSET('080V$yUxuTk0IqrQb5$FGA',#18,'Pset_WallCommon',$,(#92,#96,#97,#98));
#303=IFCRELDEFINESBYPROPERTIES('18INv3vwH0YMuQ0tsRaaGL',#18,$,$,(#298),#299);
#304=IFCRELDEFINESBYPROPERTIES('0ePT6zHbEM3_d_rOc3jwlt',#18,$,$,(#298),#301);
#305=IFCRELDEFINESBYPROPERTIES('2YwBxdVMC5ua1PYC3UaG$7',#18,$,$,(#298),#302);
#306=IFCCARTESIANPOINT((-900.,100.,0.));
#307=IFCAXIS2PLACEMENT3D(#306,$,$);
#308=IFCLOCALPLACEMENT(#34,#307);
#309=IFCCARTESIANPOINT((5000.,0.));
#310=IFCPOLYLINE((#4,#309));
#311=IFCSHAPEREPRESENTATION(#23,'Axis','Curve2D',(#310));
#312=IFCCARTESIANPOINT((2500.0000000000014,0.));
#313=IFCAXIS2PLACEMENT2D(#312,#12);
#314=IFCRECTANGLEPROFILEDEF(.AREA.,$,#313,5000.0000000000027,200.);
#315=IFCAXIS2PLACEMENT3D(#3,$,$);
#316=IFCEXTRUDEDAREASOLID(#314,#315,#9,2700.);
#317=IFCCARTESIANPOINT((5000.,0.));
#318=IFCCARTESIANPOINT((5000.,200.));
#319=IFCCARTESIANPOINT((0.,200.));
#320=IFCPOLYLINE((#4,#317,#318,#319,#4));
#321=IFCCARTESIANPOINT((0.,-100.,2700.));
#322=IFCAXIS2PLACEMENT3D(#321,#10,#5);
#323=IFCPLANE(#322);
#324=IFCCARTESIANPOINT((0.,-100.,2700.));
#325=IFCAXIS2PLACEMENT3D(#324,$,$);
#326=IFCPOLYGONALBOUNDEDHALFSPACE(#323,.T.,#325,#320);
#327=IFCBOOLEANCLIPPINGRESULT(.DIFFERENCE.,#316,#326);
#328=IFCSTYLEDITEM(#316,(#80),$);
#329=IFCSHAPEREPRESENTATION(#24,'Body','Clipping',(#327));
#330=IFCPRODUCTDEFINITIONSHAPE($,$,(#311,#329));
#331=IFCWALL('1NrLJManH9euSq4FIPemFR',#18,'Basic Wall:Generic - 200mm:1610391',$,'Basic Wall:Generic - 200mm',#308,#330,'1610391',.NOTDEFINED.);
#332=IFCPROPERTYSET('3Pr27NpW63VxTVufUaQn93',#18,'Pset_EnvironmentalImpactIndicators',$,(#92));
#333=IFCPROPERTYSINGLEVALUE('Reference',$,IFCLABEL('Generic - 200mm'),$);
#334=IFCPROPERTYSET('2uhIZEjilFQFULikWGMv$R',#18,'Pset_ReinforcementBarPitchOfWall',$,(#333));
#335=IFCPROPERTYSET('0TCKpApBVvWcXbdPCl3DA1',#18,'Pset_WallCommon',$,(#92,#96,#97,#98));
#336=IFCRELDEFINESBYPROPERTIES('3nF8HRmDWCheHayLwuFIqY',#18,$,$,(#331),#332);
#337=IFCRELDEFINESBYPROPERTIES('1ETdrZwRRWbpGkV1Iu751y',#18,$,$,(#331),#334);
#338=IFCRELDEFINESBYPROPERTIES('3kwMxY01DEY3Y9aMIIqM_M',#18,$,$,(#331),#335);
#339=IFCAXIS2PLACEMENT3D(#3,$,$);
#340=IFCLOCALPLACEMENT(#38,#339);
#341=IFCCARTESIANPOINT((0.,0.));
#342=IFCAXIS2PLACEMENT2D(#341,#11);
#343=IFCRECTANGLEPROFILEDEF(.AREA.,$,#342,8309.9999999999582,11800.000000000022);
#344=IFCCARTESIANPOINT((4100.,4155.,0.));
#345=IFCAXIS2PLACEMENT3D(#344,#10,#7);
#346=IFCEXTRUDEDAREASOLID(#343,#345,#9,300.);
#347=IFCCOLOURRGB($,0.50196078431372548,0.50196078431372548,0.50196078431372548);
#348=IFCSURFACESTYLERENDERING(#347,0.,$,$,$,$,IFCNORMALISEDRATIOMEASURE(0.5),IFCSPECULAREXPONENT(10.),.NOTDEFINED.);
#349=IFCSURFACESTYLE('Default Floor',.BOTH.,(#348));
#350=IFCSTYLEDITEM(#346,(#349),$);
#351=IFCSHAPEREPRESENTATION(#24,'Body','SweptSolid',(#346));
#352=IFCSIUNIT(*,.PLANEANGLEUNIT.,$,.RADIAN.);
#353=IFCDIMENSIONALEXPONENTS(0,0,0,0,0,0,0);
#354=IFCMEASUREWITHUNIT(IFCPLANEANGLEMEASURE(0.017453292519943278),#352);
#355=IFCCONVERSIONBASEDUNIT(#353,.PLANEANGLEUNIT.,'DEGREE',#354);
#356=IFCPRODUCTDEFINITIONSHAPE($,$,(#351));
#357=IFCSLAB('1NrLJManH9euSq4FIPemMy',#18,'Floor:Generic 300mm:1610992',$,'Floor:Generic 300mm',#340,#356,'1610992',.FLOOR.);
#358=IFCSLABTYPE('2G9mo_Rg17ee$DE9j_ga52',#18,'Floor:Generic 300mm',$,$,(#377),$,'1439244',$,.FLOOR.);
#359=IFCMATERIAL('Default Floor',$,'Miscellaneous');
#360=IFCSTYLEDITEM($,(#349),$);
#361=IFCSTYLEDREPRESENTATION(#22,'Style','Material',(#360));
#362=IFCMATERIALDEFINITIONREPRESENTATION($,$,(#361),#359);
#363=IFCMATERIALLAYER(#359,299.99999999999994,$,'Layer',$,'Miscellaneous',$);
#364=IFCMATERIALLAYERSET((#363),'Floor:Generic 300mm',$);
#365=IFCMATERIALLAYERSETUSAGE(#364,.AXIS3.,.POSITIVE.,0.,$);
#366=IFCPROPERTYSINGLEVALUE('Reference',$,IFCIDENTIFIER('Generic 300mm'),$);
#367=IFCPROPERTYSET('2ntSbp6J4Qp$3s8zArEWGb',#18,'Pset_EnvironmentalImpactIndicators',$,(#366));
#368=IFCPROPERTYSINGLEVALUE('Reference',$,IFCLABEL('Generic 300mm'),$);
#369=IFCPROPERTYSET('26baA$xM_N2CaA0ohv3WaN',#18,'Pset_ReinforcementBarPitchOfSlab',$,(#368));
#370=IFCPROPERTYSINGLEVALUE('PitchAngle',$,IFCPLANEANGLEMEASURE(0.),$);
#371=IFCPROPERTYSINGLEVALUE('LoadBearing',$,IFCBOOLEAN(.T.),$);
#372=IFCPROPERTYSET('0$2b1RmJnZGmOQObrAwvL2',#18,'Pset_SlabCommon',$,(#45,#366,#370,#371));
#373=IFCRELDEFINESBYPROPERTIES('2ZVwo_KogJA$dvwZnvqNyV',#18,$,$,(#357),#367);
#374=IFCRELDEFINESBYPROPERTIES('1sv_9SSXlkD06RfdvfV3lS',#18,$,$,(#357),#369);
#375=IFCRELDEFINESBYPROPERTIES('0mnk_ecrqzrw38fplK$SzB',#18,$,$,(#357),#372);
#376=IFCPROPERTYSINGLEVALUE('Description',$,IFCTEXT('Generic Floor (Material By Category), 300mm thick'),$);
#377=IFCPROPERTYSET('0ch2Rz4MMxlBDWQKk_uOQt',#18,'Pset_ReinforcementBarPitchOfSlab',$,(#376));
#378=IFCPROPERTYSINGLEVALUE('Reference',$,IFCIDENTIFIER('8mm Head'),$);
#379=IFCPROPERTYSINGLEVALUE('AboveGround',$,IFCLOGICAL(.U.),$);
#380=IFCPROPERTYSET('16L50AfyZF4hYq5TGET4H4',#18,'Pset_BuildingStoreyCommon',$,(#378,#379));
#381=IFCPROPERTYSET('2J7ac_h5ujdwWuzVwBIIta',#18,'Pset_SpaceCommon',$,(#45,#378));
#382=IFCRELDEFINESBYPROPERTIES('2VdfSfkgzGoZi_3SgzE8$0',#18,$,$,(#35),#380);
#383=IFCRELDEFINESBYPROPERTIES('3$YdOpA8iaPobC8MDiWxoI',#18,$,$,(#35),#381);
#384=IFCRELCONTAINEDINSPATIALSTRUCTURE('2JF4e6axWHqu3u0C5FZlmi',#18,$,$,(#84,#131,#164,#197,#232,#265,#298,#331),#35);
#385=IFCPROPERTYSET('1n34enW33Z_3Qq2Pm1kjQZ',#18,'Pset_BuildingStoreyCommon',$,(#378,#379));
#386=IFCPROPERTYSET('0qNc4$IaPwTvoqOd7IlIE4',#18,'Pset_SpaceCommon',$,(#45,#378));
#387=IFCRELDEFINESBYPROPERTIES('36oM8gyLQ5_Z6XoGK5uP1E',#18,$,$,(#39),#385);
#388=IFCRELDEFINESBYPROPERTIES('0jA6Vdz$3CfPvu_I1iTL6J',#18,$,$,(#39),#386);
#389=IFCRELCONTAINEDINSPATIALSTRUCTURE('1ZGO8hrFCHqw0v0066FpFv',#18,$,$,(#357),#39);
#390=IFCRELAGGREGATES('2KFB6YYWgXBmucZ8cm7uCP',#18,$,$,#27,(#42));
#391=IFCRELAGGREGATES('16_hfJTeCqU7LcG8m10BTS',#18,$,$,#42,(#32));
#392=IFCRELAGGREGATES('1yhDISh1T5aQqAoygxGIhP',#18,$,$,#32,(#35,#39));
#393=IFCPROPERTYSINGLEVALUE('NumberOfStoreys',$,IFCCOUNTMEASURE(2),$);
#394=IFCPROPERTYSINGLEVALUE('IsLandmarked',$,IFCLOGICAL(.U.),$);
#395=IFCPROPERTYSET('01y_GmllCupEYuBgfGbhkd',#18,'Pset_BuildingCommon',$,(#43,#393,#394));
#396=IFCPROPERTYSET('1rUR7OGyIAkZT62xvibLnd',#18,'Pset_BuildingElementProxyCommon',$,(#43,#45));
#397=IFCPROPERTYSET('2kFDjjfIaTsBi7MLK$i$Me',#18,'Pset_BuildingStoreyCommon',$,(#43,#379));
#398=IFCPROPERTYSET('1TYvb3FgH88mtl04iE5P1T',#18,'Pset_BuildingSystemCommon',$,(#43));
#399=IFCPROPERTYSET('2W94HCj5xfigmNGtkBMklk',#18,'Pset_SpaceCommon',$,(#43,#45));
#400=IFCRELDEFINESBYPROPERTIES('0vDjba2fshDEh0_KufwWht',#18,$,$,(#32),#395);
#401=IFCRELDEFINESBYPROPERTIES('1V6UQfELB4oPy3GPEaJMPw',#18,$,$,(#32),#396);
#402=IFCRELDEFINESBYPROPERTIES('0Vpd75HttOMIhzXutBGgCt',#18,$,$,(#32),#397);
#403=IFCRELDEFINESBYPROPERTIES('22VMRBFW9n6_S81yWIP225',#18,$,$,(#32),#398);
#404=IFCRELDEFINESBYPROPERTIES('2w3bzVlKnfBVjA3_BjG2II',#18,$,$,(#32),#399);
#405=IFCRELASSOCIATESMATERIAL('2Awv17taXbF4LwmEzhlLNd',#18,$,$,(#357),#365);
#406=IFCRELASSOCIATESMATERIAL('22T9r9KB1F3JFgePfxkUGp',#18,$,$,(#84,#91,#131,#164,#197,#232,#265,#298,#331),#90);
#407=IFCRELASSOCIATESMATERIAL('0QfjMRWx0N0AraD35Xcprq',#18,$,$,(#358),#364);
#408=IFCRELDEFINESBYTYPE('0MSq_ijuC5q4PUKv4QkOsA',#18,$,$,(#84,#131,#164,#197,#232,#265,#298,#331),#91);
#409=IFCRELDEFINESBYTYPE('1bgurferyyrfEx97ISVVLa',#18,$,$,(#357),#358);
#410=IFCRELCONNECTSPATHELEMENTS('3BRkv5_ezQxGM9GLq64CCI',#18,'1NrLJManH9euSq4FIPenER|1NrLJManH9euSq4FIPen87','Structural',$,#232,#265,(),(),.ATSTART.,.ATPATH.);
#411=IFCPRESENTATIONLAYERASSIGNMENT('A-WALL-____-OTLN',$,(#60,#82,#111,#129,#144,#162,#177,#195,#210,#230,#245,#263,#278,#296,#311,#329),$);
#412=IFCPRESENTATIONLAYERASSIGNMENT('A-FLOR-____-OTLN',$,(#351),$);
#413=IFCRELASSOCIATESCLASSIFICATION('2p93QsR$Ex4mgoBSiBIEAa',#18,'Exterior Walls','Exterior Walls:B2010',(#84,#131,#164,#197,#232,#265,#298,#331),#103);
#414=IFCUNITASSIGNMENT((#19,#61,#355));
ENDSEC;

END-ISO-10303-21;