ISO-10303-21;
HEADER;
FILE_DESCRIPTION(('ViewDefinition [CoordinationView]','RevitIdentifiers [ContentGUID: cbb0ae2e-6350-4225-8ca4-af668662c38d, VersionGUID: 35596820-36c0-4e01-a968-1e7bd9adc1c2, NumberOfSaves: 31]','CoordinateReference [CoordinateBase: Shared Coordinates]'),'2;1');
FILE_NAME('01_02_003.ifc','2026-01-07T16:52:31+01:00',(''),(''),'ODA SDAI 24.6','Autodesk Revit 24.3.30.11 (ENU) - IFC 24.3.30.11','');
FILE_SCHEMA(('IFC4X3'));
ENDSEC;

DATA;
#1=IFCORGANIZATION($,'Autodesk Revit 2024 (ENU)',$,$,$);
#2=IFCAPPLICATION(#1,'2024','Autodesk Revit 2024 (ENU)','Revit');
#3=IFCCARTESIANPOINT((0.,0.,0.));
#4=IFCCARTESIANPOINT((0.,0.));
#5=IFCDIRECTION((1.,0.,0.));
#6=IFCDIRECTION((-1.,0.,0.));
#7=IFCDIRECTION((0.,1.,0.));
#8=IFCDIRECTION((0.,-1.,0.));
#9=IFCDIRECTION((0.,0.,1.));
#10=IFCDIRECTION((0.,0.,-1.));
#11=IFCDIRECTION((1.,0.));
#12=IFCDIRECTION((-1.,0.));
#13=IFCDIRECTION((0.,1.));
#14=IFCDIRECTION((0.,-1.));
#15=IFCPERSON($,'','h.helming',$,$,$,$,$);
#16=IFCORGANIZATION($,'Organization Name','Organization Description',$,$);
#17=IFCPERSONANDORGANIZATION(#15,#16,$);
#18=IFCOWNERHISTORY(#17,#2,$,.NOCHANGE.,$,$,$,1767701976);
#19=IFCSIUNIT(*,.LENGTHUNIT.,.MILLI.,.METRE.);
#20=IFCAXIS2PLACEMENT3D(#3,$,$);
#21=IFCDIRECTION((6.1230317691118863E-17,1.));
#22=IFCGEOMETRICREPRESENTATIONCONTEXT($,'Model',3,0.01,#20,#21);
#23=IFCGEOMETRICREPRESENTATIONSUBCONTEXT('Axis','Model',*,*,*,*,#22,$,.GRAPH_VIEW.,$);
#24=IFCGEOMETRICREPRESENTATIONSUBCONTEXT('Body','Model',*,*,*,*,#22,$,.MODEL_VIEW.,$);
#25=IFCGEOMETRICREPRESENTATIONSUBCONTEXT('Box','Model',*,*,*,*,#22,$,.MODEL_VIEW.,$);
#26=IFCGEOMETRICREPRESENTATIONSUBCONTEXT('FootPrint','Model',*,*,*,*,#22,$,.MODEL_VIEW.,$);
#27=IFCPROJECT('3BiAukOr129OoahsPvdJnz',#18,'Project Number',$,$,'Project Name','Project Status',(#22),#389);
#28=IFCCLASSIFICATION('CSI (Construction Specifications Institute)','1998',$,'Uniformat','UniFormat Classification','https://www.csiresources.org/standards/uniformat',$);
#29=IFCAXIS2PLACEMENT3D(#3,$,$);
#30=IFCLOCALPLACEMENT(#41,#29);
#31=IFCPOSTALADDRESS($,$,$,$,('Enter address hereAddress Line 2'),$,'','Boston','','MA');
#32=IFCBUILDING('3BiAukOr129OoahsPvdJny',#18,'Building Name',$,$,#30,$,'Building Name',.ELEMENT.,$,$,#31);
#33=IFCAXIS2PLACEMENT3D(#3,$,$);
#34=IFCLOCALPLACEMENT(#30,#33);
#35=IFCBUILDINGSTOREY('2JF4e6axWHqu3u0C1FZlmi',#18,'L1',$,'Level:8mm Head',#34,$,'L1',.ELEMENT.,0.);
#36=IFCCARTESIANPOINT((0.,0.,3000.));
#37=IFCAXIS2PLACEMENT3D(#36,$,$);
#38=IFCLOCALPLACEMENT(#30,#37);
#39=IFCBUILDINGSTOREY('1ZGO8hrFCHqw0v0026FpFv',#18,'L2',$,'Level:8mm Head',#38,$,'L2',.ELEMENT.,3000.);
#40=IFCAXIS2PLACEMENT3D(#3,$,$);
#41=IFCLOCALPLACEMENT($,#40);
#42=IFCSITE('3BiAukOr129OoahsPvdJn$',#18,'Default',$,$,#41,$,$,.ELEMENT.,(42,21,31,401672),(-71,-3,-24,-345703),0.,$,$);
#43=IFCPROPERTYSINGLEVALUE('Reference',$,IFCIDENTIFIER('Project Information'),$);
#44=IFCPROPERTYSET('2mFJcO6I01h0OYRLOICO3c',#18,'Pset_SiteCommon',$,(#43));
#45=IFCPROPERTYSINGLEVALUE('IsExternal',$,IFCBOOLEAN(.F.),$);
#46=IFCPROPERTYSET('0O$B2PbAODr9jYnpcaZGJT',#18,'Pset_SpaceCommon',$,(#43,#45));
#47=IFCRELDEFINESBYPROPERTIES('2fDrcjst0HFayqQ3dY1cGQ',#18,$,$,(#42),#44);
#48=IFCRELDEFINESBYPROPERTIES('1lYkP70lXSGXnZeJnLC8MY',#18,$,$,(#42),#46);
#57=IFCAXIS2PLACEMENT3D(#3,$,$);
#58=IFCLOCALPLACEMENT(#34,#57);
#59=IFCCARTESIANPOINT((200.,3300.,0.));
#60=IFCCARTESIANPOINT((200.,6200.,0.));
#61=IFCCARTESIANPOINT((4850.,6200.,0.));
#62=IFCCARTESIANPOINT((4850.,3300.,0.));
#63=IFCCARTESIANPOINT((3350.,3300.,0.));
#64=IFCCARTESIANPOINT((1700.,3300.,0.));
#65=IFCPOLYLOOP((#59,#60,#61,#62,#63,#64));
#66=IFCFACEOUTERBOUND(#65,.T.);
#67=IFCFACE((#66));
#68=IFCCARTESIANPOINT((200.,3300.,2700.));
#69=IFCCARTESIANPOINT((200.,6200.,2700.));
#70=IFCPOLYLOOP((#60,#59,#68,#69));
#71=IFCFACEOUTERBOUND(#70,.T.);
#72=IFCFACE((#71));
#73=IFCCARTESIANPOINT((1700.,3300.,2700.));
#74=IFCPOLYLOOP((#59,#64,#73,#68));
#75=IFCFACEOUTERBOUND(#74,.T.);
#76=IFCFACE((#75));
#77=IFCCARTESIANPOINT((3350.,3300.,2700.));
#78=IFCPOLYLOOP((#64,#63,#77,#73));
#79=IFCFACEOUTERBOUND(#78,.T.);
#80=IFCFACE((#79));
#81=IFCCARTESIANPOINT((4850.,3300.,2700.));
#82=IFCPOLYLOOP((#63,#62,#81,#77));
#83=IFCFACEOUTERBOUND(#82,.T.);
#84=IFCFACE((#83));
#85=IFCCARTESIANPOINT((4850.,6200.,2700.));
#86=IFCPOLYLOOP((#62,#61,#85,#81));
#87=IFCFACEOUTERBOUND(#86,.T.);
#88=IFCFACE((#87));
#89=IFCPOLYLOOP((#61,#60,#69,#85));
#90=IFCFACEOUTERBOUND(#89,.T.);
#91=IFCFACE((#90));
#92=IFCPOLYLOOP((#69,#68,#73,#77,#81,#85));
#93=IFCFACEOUTERBOUND(#92,.T.);
#94=IFCFACE((#93));
#95=IFCCLOSEDSHELL((#67,#72,#76,#80,#84,#88,#91,#94));
#96=IFCFACETEDBREP(#95);
#97=IFCSHAPEREPRESENTATION(#24,'Body','Brep',(#96));
#98=IFCPRODUCTDEFINITIONSHAPE($,$,(#97));
#99=IFCSIUNIT(*,.AREAUNIT.,$,.SQUARE_METRE.);
#100=IFCSPACE('0rMMWWDi1E0Qbe7dlPjRlq',#18,'133',$,$,#58,#98,'room',.ELEMENT.,.NOTDEFINED.,$);
#101=IFCSPACETYPE('0rMMWWDi1E0Qbe5dlPjRlq',#18,'room 133:1604150',$,$,$,$,'1604150',$,.NOTDEFINED.,$);
#102=IFCPROPERTYSINGLEVALUE('Reference',$,IFCIDENTIFIER('room 133'),$);
#103=IFCPROPERTYSET('0Ttidnjo5apQetfOQSGk60',#18,'Pset_SpaceCommon',$,(#45,#102));
#104=IFCPROPERTYSET('1KVQFFKpUeke5maadbc$NU',#18,'Pset_SpaceHeaterTypeCommon',$,(#102));
#105=IFCRELDEFINESBYPROPERTIES('1rrGxbISbv6gmTR8MJq0uH',#18,$,$,(#100),#103);
#106=IFCRELDEFINESBYPROPERTIES('0HybDr8N99LTfxoLIjclBR',#18,$,$,(#100),#104);
#107=IFCAXIS2PLACEMENT3D(#3,$,$);
#108=IFCLOCALPLACEMENT(#34,#107);
#109=IFCCARTESIANPOINT((200.,200.,0.));
#110=IFCCARTESIANPOINT((200.,3100.,0.));
#111=IFCCARTESIANPOINT((1700.,3100.,0.));
#112=IFCCARTESIANPOINT((3350.,3100.,0.));
#113=IFCCARTESIANPOINT((4850.,3100.,0.));
#114=IFCCARTESIANPOINT((4850.,200.,0.));
#115=IFCPOLYLOOP((#109,#110,#111,#112,#113,#114));
#116=IFCFACEOUTERBOUND(#115,.T.);
#117=IFCFACE((#116));
#118=IFCCARTESIANPOINT((200.,200.,2700.));
#119=IFCCARTESIANPOINT((200.,3100.,2700.));
#120=IFCPOLYLOOP((#110,#109,#118,#119));
#121=IFCFACEOUTERBOUND(#120,.T.);
#122=IFCFACE((#121));
#123=IFCCARTESIANPOINT((4850.,200.,2700.));
#124=IFCPOLYLOOP((#109,#114,#123,#118));
#125=IFCFACEOUTERBOUND(#124,.T.);
#126=IFCFACE((#125));
#127=IFCCARTESIANPOINT((4850.,3100.,2700.));
#128=IFCPOLYLOOP((#114,#113,#127,#123));
#129=IFCFACEOUTERBOUND(#128,.T.);
#130=IFCFACE((#129));
#131=IFCCARTESIANPOINT((3350.,3100.,2700.));
#132=IFCPOLYLOOP((#113,#112,#131,#127));
#133=IFCFACEOUTERBOUND(#132,.T.);
#134=IFCFACE((#133));
#135=IFCCARTESIANPOINT((1700.,3100.,2700.));
#136=IFCPOLYLOOP((#112,#111,#135,#131));
#137=IFCFACEOUTERBOUND(#136,.T.);
#138=IFCFACE((#137));
#139=IFCPOLYLOOP((#111,#110,#119,#135));
#140=IFCFACEOUTERBOUND(#139,.T.);
#141=IFCFACE((#140));
#142=IFCPOLYLOOP((#119,#118,#123,#127,#131,#135));
#143=IFCFACEOUTERBOUND(#142,.T.);
#144=IFCFACE((#143));
#145=IFCCLOSEDSHELL((#117,#122,#126,#130,#134,#138,#141,#144));
#146=IFCFACETEDBREP(#145);
#147=IFCSHAPEREPRESENTATION(#24,'Body','Brep',(#146));
#148=IFCPRODUCTDEFINITIONSHAPE($,$,(#147));
#149=IFCSPACE('0rMMWWDi1E0Qbe7dlPjRlx',#18,'134',$,$,#108,#148,'room',.ELEMENT.,.NOTDEFINED.,$);
#150=IFCSPACETYPE('0rMMWWDi1E0Qbe5dlPjRlx',#18,'room 134:1604153',$,$,$,$,'1604153',$,.NOTDEFINED.,$);
#151=IFCPROPERTYSINGLEVALUE('Reference',$,IFCIDENTIFIER('room 134'),$);
#152=IFCPROPERTYSET('138_ZVXpS77qi$HlItw9Dy',#18,'Pset_SpaceCommon',$,(#45,#151));
#153=IFCPROPERTYSET('1nj6TpJ76U65rlHDA$DaJS',#18,'Pset_SpaceHeaterTypeCommon',$,(#151));
#154=IFCRELDEFINESBYPROPERTIES('1smL_fZxGEI7OZ$3YxqEOC',#18,$,$,(#149),#152);
#155=IFCRELDEFINESBYPROPERTIES('0blfMA7hFzdDmIHut8iIZI',#18,$,$,(#149),#153);
#156=IFCCARTESIANPOINT((100.,6400.,0.));
#157=IFCAXIS2PLACEMENT3D(#156,#9,#8);
#158=IFCLOCALPLACEMENT(#34,#157);
#159=IFCCARTESIANPOINT((6400.,0.));
#160=IFCPOLYLINE((#4,#159));
#161=IFCSHAPEREPRESENTATION(#23,'Axis','Curve2D',(#160));
#162=IFCCARTESIANPOINT((3200.0000000000009,-1.4210854715202004E-14));
#163=IFCAXIS2PLACEMENT2D(#162,#12);
#164=IFCRECTANGLEPROFILEDEF(.AREA.,$,#163,6400.0000000000018,200.);
#165=IFCAXIS2PLACEMENT3D(#3,$,$);
#166=IFCEXTRUDEDAREASOLID(#164,#165,#9,2700.);
#167=IFCCOLOURRGB($,0.75294117647058822,0.75294117647058822,0.75294117647058822);
#168=IFCSURFACESTYLERENDERING(#167,0.,$,$,$,$,IFCNORMALISEDRATIOMEASURE(0.5),IFCSPECULAREXPONENT(10.),.NOTDEFINED.);
#169=IFCSURFACESTYLE('Default Wall',.BOTH.,(#168));
#170=IFCSTYLEDITEM(#166,(#169),$);
#171=IFCSHAPEREPRESENTATION(#24,'Body','SweptSolid',(#166));
#172=IFCPRODUCTDEFINITIONSHAPE($,$,(#161,#171));
#173=IFCWALL('3_DHXxtdb3wRKlXgyMiHOP',#18,'Basic Wall:Generic - 200mm:1602403',$,'Basic Wall:Generic - 200mm',#158,#172,'1602403',.NOTDEFINED.);
#174=IFCMATERIAL('Default Wall',$,'Miscellaneous');
#175=IFCSTYLEDITEM($,(#169),$);
#176=IFCSTYLEDREPRESENTATION(#22,'Style','Material',(#175));
#177=IFCMATERIALDEFINITIONREPRESENTATION($,$,(#176),#174);
#178=IFCMATERIALLAYER(#174,200.,$,'Layer',$,'Miscellaneous',$);
#179=IFCMATERIALLAYERSET((#178),'Basic Wall:Generic - 200mm',$);
#180=IFCWALLTYPE('1xZrMVYp52mhf4uMzw11Hk',#18,'Basic Wall:Generic - 200mm',$,$,(#194),$,'441451',$,.STANDARD.);
#181=IFCPROPERTYSINGLEVALUE('Reference',$,IFCIDENTIFIER('Generic - 200mm'),$);
#182=IFCPROPERTYSET('1wENyw12BNUC0zIT$Z8eOc',#18,'Pset_EnvironmentalImpactIndicators',$,(#181));
#183=IFCPROPERTYSINGLEVALUE('Reference',$,IFCLABEL('Generic - 200mm'),$);
#184=IFCPROPERTYSET('0$CGQ7SML7l9xJcKq5wKfw',#18,'Pset_ReinforcementBarPitchOfWall',$,(#183));
#185=IFCPROPERTYSINGLEVALUE('IsExternal',$,IFCBOOLEAN(.T.),$);
#186=IFCPROPERTYSINGLEVALUE('LoadBearing',$,IFCBOOLEAN(.F.),$);
#187=IFCPROPERTYSINGLEVALUE('ExtendToStructure',$,IFCBOOLEAN(.F.),$);
#188=IFCPROPERTYSET('3SwlEfUZvoq45$SZCCHCt1',#18,'Pset_WallCommon',$,(#181,#185,#186,#187));
#189=IFCRELDEFINESBYPROPERTIES('3rGRA5n6G$tblfj92h4Yf5',#18,$,$,(#173),#182);
#190=IFCRELDEFINESBYPROPERTIES('1O3XbQf59Z$rpOB6HB3ZY5',#18,$,$,(#173),#184);
#191=IFCRELDEFINESBYPROPERTIES('1GQ7TYxMQ90yN5gwq2hDt9',#18,$,$,(#173),#188);
#192=IFCCLASSIFICATIONREFERENCE('https://www.csiresources.org/standards/uniformat','B2010','Exterior Walls',#28,'',$);
#193=IFCPROPERTYSINGLEVALUE('Description',$,IFCTEXT('Generic Wall (Material By Category), 200mm thick'),$);
#194=IFCPROPERTYSET('2L7lvTstnIeeydfwzfZZLR',#18,'Pset_ReinforcementBarPitchOfWall',$,(#193));
#195=IFCCARTESIANPOINT((200.,100.,0.));
#196=IFCAXIS2PLACEMENT3D(#195,$,$);
#197=IFCLOCALPLACEMENT(#34,#196);
#198=IFCCARTESIANPOINT((4850.,0.));
#199=IFCPOLYLINE((#4,#198));
#200=IFCSHAPEREPRESENTATION(#23,'Axis','Curve2D',(#199));
#201=IFCCARTESIANPOINT((2425.0000000000014,-7.1054273576010019E-15));
#202=IFCAXIS2PLACEMENT2D(#201,#12);
#203=IFCRECTANGLEPROFILEDEF(.AREA.,$,#202,4850.0000000000027,200.);
#204=IFCAXIS2PLACEMENT3D(#3,$,$);
#205=IFCEXTRUDEDAREASOLID(#203,#204,#9,2700.);
#206=IFCSTYLEDITEM(#205,(#169),$);
#207=IFCSHAPEREPRESENTATION(#24,'Body','SweptSolid',(#205));
#208=IFCPRODUCTDEFINITIONSHAPE($,$,(#200,#207));
#209=IFCWALL('3_DHXxtdb3wRKlXgyMiHR$',#18,'Basic Wall:Generic - 200mm:1602437',$,'Basic Wall:Generic - 200mm',#197,#208,'1602437',.NOTDEFINED.);
#210=IFCPROPERTYSET('3HGmd0XVPxRWNnpASCgecI',#18,'Pset_EnvironmentalImpactIndicators',$,(#181));
#211=IFCPROPERTYSINGLEVALUE('Reference',$,IFCLABEL('Generic - 200mm'),$);
#212=IFCPROPERTYSET('1YmZ7m$MlIJkOIOgjd7IRW',#18,'Pset_ReinforcementBarPitchOfWall',$,(#211));
#213=IFCPROPERTYSET('27eKkGA6ScQo_WlrzRNI8W',#18,'Pset_WallCommon',$,(#181,#185,#186,#187));
#214=IFCRELDEFINESBYPROPERTIES('1GuL2J1aplh2Iym5Vjscf_',#18,$,$,(#209),#210);
#215=IFCRELDEFINESBYPROPERTIES('2PfwNHS$n13XKNc9XJTl57',#18,$,$,(#209),#212);
#216=IFCRELDEFINESBYPROPERTIES('2cvoZpF1lyK9Q3P1MHE03E',#18,$,$,(#209),#213);
#217=IFCCARTESIANPOINT((5050.,6300.,0.));
#218=IFCAXIS2PLACEMENT3D(#217,#9,#6);
#219=IFCLOCALPLACEMENT(#34,#218);
#220=IFCCARTESIANPOINT((4850.,0.));
#221=IFCPOLYLINE((#4,#220));
#222=IFCSHAPEREPRESENTATION(#23,'Axis','Curve2D',(#221));
#223=IFCCARTESIANPOINT((2425.0000000000009,-2.8421709430404007E-13));
#224=IFCAXIS2PLACEMENT2D(#223,#12);
#225=IFCRECTANGLEPROFILEDEF(.AREA.,$,#224,4850.0000000000018,200.);
#226=IFCAXIS2PLACEMENT3D(#3,$,$);
#227=IFCEXTRUDEDAREASOLID(#225,#226,#9,2700.);
#228=IFCSTYLEDITEM(#227,(#169),$);
#229=IFCSHAPEREPRESENTATION(#24,'Body','SweptSolid',(#227));
#230=IFCPRODUCTDEFINITIONSHAPE($,$,(#222,#229));
#231=IFCWALL('3_DHXxtdb3wRKlXgyMiH5o',#18,'Basic Wall:Generic - 200mm:1602568',$,'Basic Wall:Generic - 200mm',#219,#230,'1602568',.NOTDEFINED.);
#232=IFCPROPERTYSET('0ercsIy9xUx9Y6DocXwT1O',#18,'Pset_EnvironmentalImpactIndicators',$,(#181));
#233=IFCPROPERTYSINGLEVALUE('Reference',$,IFCLABEL('Generic - 200mm'),$);
#234=IFCPROPERTYSET('3KTbtysk$rJJG4Qp554oop',#18,'Pset_ReinforcementBarPitchOfWall',$,(#233));
#235=IFCPROPERTYSET('0eiEXFsIA8_ibDyqTTIfr$',#18,'Pset_WallCommon',$,(#181,#185,#186,#187));
#236=IFCRELDEFINESBYPROPERTIES('2UmVwn$4hjpt4ZQwVE_FAB',#18,$,$,(#231),#232);
#237=IFCRELDEFINESBYPROPERTIES('0tDsedjNT1rPdEJcZa39Kq',#18,$,$,(#231),#234);
#238=IFCRELDEFINESBYPROPERTIES('24B8CncTspe9RowOR5EmGX',#18,$,$,(#231),#235);
#239=IFCAXIS2PLACEMENT3D(#3,$,$);
#240=IFCLOCALPLACEMENT(#38,#239);
#241=IFCCARTESIANPOINT((0.,0.));
#242=IFCAXIS2PLACEMENT2D(#241,#11);
#243=IFCRECTANGLEPROFILEDEF(.AREA.,$,#242,6399.9999999999873,5050.0000000000118);
#244=IFCCARTESIANPOINT((2525.,3200.,0.));
#245=IFCAXIS2PLACEMENT3D(#244,#10,#7);
#246=IFCEXTRUDEDAREASOLID(#243,#245,#9,300.);
#247=IFCCOLOURRGB($,0.50196078431372548,0.50196078431372548,0.50196078431372548);
#248=IFCSURFACESTYLERENDERING(#247,0.,$,$,$,$,IFCNORMALISEDRATIOMEASURE(0.5),IFCSPECULAREXPONENT(10.),.NOTDEFINED.);
#249=IFCSURFACESTYLE('Default Floor',.BOTH.,(#248));
#250=IFCSTYLEDITEM(#246,(#249),$);
#251=IFCSHAPEREPRESENTATION(#24,'Body','SweptSolid',(#246));
#252=IFCSIUNIT(*,.PLANEANGLEUNIT.,$,.RADIAN.);
#253=IFCDIMENSIONALEXPONENTS(0,0,0,0,0,0,0);
#254=IFCMEASUREWITHUNIT(IFCPLANEANGLEMEASURE(0.017453292519943278),#252);
#255=IFCCONVERSIONBASEDUNIT(#253,.PLANEANGLEUNIT.,'DEGREE',#254);
#256=IFCPRODUCTDEFINITIONSHAPE($,$,(#251));
#257=IFCSLAB('3_DHXxtdb3wRKlXgyMiHCa',#18,'Floor:Generic 300mm:1603166',$,'Floor:Generic 300mm',#240,#256,'1603166',.FLOOR.);
#258=IFCSLABTYPE('2G9mo_Rg17ee$DE9j_ga52',#18,'Floor:Generic 300mm',$,$,(#277),$,'1439244',$,.FLOOR.);
#259=IFCMATERIAL('Default Floor',$,'Miscellaneous');
#260=IFCSTYLEDITEM($,(#249),$);
#261=IFCSTYLEDREPRESENTATION(#22,'Style','Material',(#260));
#262=IFCMATERIALDEFINITIONREPRESENTATION($,$,(#261),#259);
#263=IFCMATERIALLAYER(#259,299.99999999999994,$,'Layer',$,'Miscellaneous',$);
#264=IFCMATERIALLAYERSET((#263),'Floor:Generic 300mm',$);
#265=IFCMATERIALLAYERSETUSAGE(#264,.AXIS3.,.POSITIVE.,0.,$);
#266=IFCPROPERTYSINGLEVALUE('Reference',$,IFCIDENTIFIER('Generic 300mm'),$);
#267=IFCPROPERTYSET('3GAhzxbtRmmfaAXX14_d7O',#18,'Pset_EnvironmentalImpactIndicators',$,(#266));
#268=IFCPROPERTYSINGLEVALUE('Reference',$,IFCLABEL('Generic 300mm'),$);
#269=IFCPROPERTYSET('27riExf3kIEr1S9P9zpzMM',#18,'Pset_ReinforcementBarPitchOfSlab',$,(#268));
#270=IFCPROPERTYSINGLEVALUE('PitchAngle',$,IFCPLANEANGLEMEASURE(0.),$);
#271=IFCPROPERTYSINGLEVALUE('LoadBearing',$,IFCBOOLEAN(.T.),$);
#272=IFCPROPERTYSET('15lwM5e1uFkhB_L6NarVeW',#18,'Pset_SlabCommon',$,(#45,#266,#270,#271));
#273=IFCRELDEFINESBYPROPERTIES('1OHuwrD7dfRgAI7vsNKEFT',#18,$,$,(#257),#267);
#274=IFCRELDEFINESBYPROPERTIES('00m6onIep8Fe4wZdmQcV9g',#18,$,$,(#257),#269);
#275=IFCRELDEFINESBYPROPERTIES('0nl$njRGsqIzXJgk3SS9Y1',#18,$,$,(#257),#272);
#276=IFCPROPERTYSINGLEVALUE('Description',$,IFCTEXT('Generic Floor (Material By Category), 300mm thick'),$);
#277=IFCPROPERTYSET('0ch2Rz4MMxlBDWQKk_uOQt',#18,'Pset_ReinforcementBarPitchOfSlab',$,(#276));
#278=IFCCARTESIANPOINT((4950.,6200.,0.));
#279=IFCAXIS2PLACEMENT3D(#278,#9,#8);
#280=IFCLOCALPLACEMENT(#34,#279);
#281=IFCCARTESIANPOINT((6000.,0.));
#282=IFCPOLYLINE((#4,#281));
#283=IFCSHAPEREPRESENTATION(#23,'Axis','Curve2D',(#282));
#284=IFCCARTESIANPOINT((3000.0000000000023,0.));
#285=IFCAXIS2PLACEMENT2D(#284,#12);
#286=IFCRECTANGLEPROFILEDEF(.AREA.,$,#285,6000.0000000000045,200.);
#287=IFCAXIS2PLACEMENT3D(#3,$,$);
#288=IFCEXTRUDEDAREASOLID(#286,#287,#9,2700.);
#289=IFCSTYLEDITEM(#288,(#169),$);
#290=IFCSHAPEREPRESENTATION(#24,'Body','SweptSolid',(#288));
#291=IFCPRODUCTDEFINITIONSHAPE($,$,(#283,#290));
#292=IFCWALL('1IMYx2Ej12vu3iYKHoTn08',#18,'Basic Wall:Generic - 200mm:1603478',$,'Basic Wall:Generic - 200mm',#280,#291,'1603478',.NOTDEFINED.);
#293=IFCPROPERTYSET('1Adn1J4lQ4Sa0Lq3fuRo8F',#18,'Pset_EnvironmentalImpactIndicators',$,(#181));
#294=IFCPROPERTYSINGLEVALUE('Reference',$,IFCLABEL('Generic - 200mm'),$);
#295=IFCPROPERTYSET('2ZGeslyCOvvpRWpJ$LB8Db',#18,'Pset_ReinforcementBarPitchOfWall',$,(#294));
#296=IFCPROPERTYSET('0NjjknL8TBkE3i7qpb6hkj',#18,'Pset_WallCommon',$,(#181,#185,#186,#187));
#297=IFCRELDEFINESBYPROPERTIES('2jvIeOXe4xhzw2UnuUND4D',#18,$,$,(#292),#293);
#298=IFCRELDEFINESBYPROPERTIES('3J92iM0HrwxnbCQoo50DfG',#18,$,$,(#292),#295);
#299=IFCRELDEFINESBYPROPERTIES('3r0JSnEwFa$MapKLN04qYg',#18,$,$,(#292),#296);
#300=IFCCARTESIANPOINT((200.,3200.,0.));
#301=IFCAXIS2PLACEMENT3D(#300,$,$);
#302=IFCLOCALPLACEMENT(#34,#301);
#303=IFCCARTESIANPOINT((1500.,0.));
#304=IFCPOLYLINE((#4,#303));
#305=IFCSHAPEREPRESENTATION(#23,'Axis','Curve2D',(#304));
#306=IFCCARTESIANPOINT((750.00000000000023,0.));
#307=IFCAXIS2PLACEMENT2D(#306,#12);
#308=IFCRECTANGLEPROFILEDEF(.AREA.,$,#307,1500.0000000000005,200.);
#309=IFCAXIS2PLACEMENT3D(#3,$,$);
#310=IFCEXTRUDEDAREASOLID(#308,#309,#9,2700.);
#311=IFCSTYLEDITEM(#310,(#169),$);
#312=IFCSHAPEREPRESENTATION(#24,'Body','SweptSolid',(#310));
#313=IFCPRODUCTDEFINITIONSHAPE($,$,(#305,#312));
#314=IFCWALL('0rMMWWDi1E0Qbe7dlPjRcx',#18,'Basic Wall:Generic - 200mm:1603705',$,'Basic Wall:Generic - 200mm',#302,#313,'1603705',.NOTDEFINED.);
#315=IFCPROPERTYSET('3PiaDXd5dbfkHblph2tQnX',#18,'Pset_EnvironmentalImpactIndicators',$,(#181));
#316=IFCPROPERTYSINGLEVALUE('Reference',$,IFCLABEL('Generic - 200mm'),$);
#317=IFCPROPERTYSET('3vdndtrFIL7JFor6tCPImH',#18,'Pset_ReinforcementBarPitchOfWall',$,(#316));
#318=IFCPROPERTYSET('3$RwLDjKSqe_nVRByz0g2p',#18,'Pset_WallCommon',$,(#181,#185,#186,#187));
#319=IFCRELDEFINESBYPROPERTIES('2pDJbe5rN2s2u8TBrVxNth',#18,$,$,(#314),#315);
#320=IFCRELDEFINESBYPROPERTIES('1QN1YTCp1JMU8Wet0mx1_d',#18,$,$,(#314),#317);
#321=IFCRELDEFINESBYPROPERTIES('06YQrlBQ0s1r8XnaDO1MHE',#18,$,$,(#314),#318);
#322=IFCCARTESIANPOINT((3350.,3200.,0.));
#323=IFCAXIS2PLACEMENT3D(#322,$,$);
#324=IFCLOCALPLACEMENT(#34,#323);
#325=IFCCARTESIANPOINT((1500.,0.));
#326=IFCPOLYLINE((#4,#325));
#327=IFCSHAPEREPRESENTATION(#23,'Axis','Curve2D',(#326));
#328=IFCCARTESIANPOINT((750.00000000000057,0.));
#329=IFCAXIS2PLACEMENT2D(#328,#12);
#330=IFCRECTANGLEPROFILEDEF(.AREA.,$,#329,1500.0000000000011,200.);
#331=IFCAXIS2PLACEMENT3D(#3,$,$);
#332=IFCEXTRUDEDAREASOLID(#330,#331,#9,2700.);
#333=IFCSTYLEDITEM(#332,(#169),$);
#334=IFCSHAPEREPRESENTATION(#24,'Body','SweptSolid',(#332));
#335=IFCPRODUCTDEFINITIONSHAPE($,$,(#327,#334));
#336=IFCWALL('0rMMWWDi1E0Qbe7dlPjRaK',#18,'Basic Wall:Generic - 200mm:1603798',$,'Basic Wall:Generic - 200mm',#324,#335,'1603798',.NOTDEFINED.);
#337=IFCPROPERTYSET('1w_hWduCjS3F_il0Zs93j8',#18,'Pset_EnvironmentalImpactIndicators',$,(#181));
#338=IFCPROPERTYSINGLEVALUE('Reference',$,IFCLABEL('Generic - 200mm'),$);
#339=IFCPROPERTYSET('2TkS9jqJw$vS47JYqNn1Xz',#18,'Pset_ReinforcementBarPitchOfWall',$,(#338));
#340=IFCPROPERTYSET('0Dct98a3EkMibqo8dTVRv1',#18,'Pset_WallCommon',$,(#181,#185,#186,#187));
#341=IFCRELDEFINESBYPROPERTIES('0aLlgJfbD2Eso0WLgu2OP5',#18,$,$,(#336),#337);
#342=IFCRELDEFINESBYPROPERTIES('1utJ9nKBna8OFjhPHDxUlQ',#18,$,$,(#336),#339);
#343=IFCRELDEFINESBYPROPERTIES('0TmsnPf5ogkJWU8XxeoDWQ',#18,$,$,(#336),#340);
#344=IFCPROPERTYSINGLEVALUE('Reference',$,IFCIDENTIFIER('8mm Head'),$);
#345=IFCPROPERTYSINGLEVALUE('AboveGround',$,IFCLOGICAL(.U.),$);
#346=IFCPROPERTYSET('16L50AfyZF4hYq5TGET4H4',#18,'Pset_BuildingStoreyCommon',$,(#344,#345));
#347=IFCPROPERTYSET('2J7ac_h5ujdwWuzVwBIIta',#18,'Pset_SpaceCommon',$,(#45,#344));
#348=IFCRELDEFINESBYPROPERTIES('2VdfSfkgzGoZi_3SgzE8$0',#18,$,$,(#35),#346);
#349=IFCRELDEFINESBYPROPERTIES('3$YdOpA8iaPobC8MDiWxoI',#18,$,$,(#35),#347);
#350=IFCRELCONTAINEDINSPATIALSTRUCTURE('2JF4e6axWHqu3u0C5FZlmi',#18,$,$,(#173,#209,#231,#292,#314,#336),#35);
#351=IFCPROPERTYSET('1n34enW33Z_3Qq2Pm1kjQZ',#18,'Pset_BuildingStoreyCommon',$,(#344,#345));
#352=IFCPROPERTYSET('0qNc4$IaPwTvoqOd7IlIE4',#18,'Pset_SpaceCommon',$,(#45,#344));
#353=IFCRELDEFINESBYPROPERTIES('36oM8gyLQ5_Z6XoGK5uP1E',#18,$,$,(#39),#351);
#354=IFCRELDEFINESBYPROPERTIES('0jA6Vdz$3CfPvu_I1iTL6J',#18,$,$,(#39),#352);
#355=IFCRELCONTAINEDINSPATIALSTRUCTURE('1ZGO8hrFCHqw0v0066FpFv',#18,$,$,(#257),#39);
#356=IFCRELAGGREGATES('2KFB6YYWgXBmucZ8cm7uCP',#18,$,$,#27,(#42));
#357=IFCRELAGGREGATES('16_hfJTeCqU7LcG8m10BTS',#18,$,$,#42,(#32));
#358=IFCRELAGGREGATES('2JF4e6axWHqu3u0C9FZlmi',#18,$,$,#35,(#100,#149));
#359=IFCRELAGGREGATES('1yhDISh1T5aQqAoygxGIhP',#18,$,$,#32,(#35,#39));
#360=IFCPROPERTYSINGLEVALUE('NumberOfStoreys',$,IFCCOUNTMEASURE(2),$);
#361=IFCPROPERTYSINGLEVALUE('IsLandmarked',$,IFCLOGICAL(.U.),$);
#362=IFCPROPERTYSET('01y_GmllCupEYuBgfGbhkd',#18,'Pset_BuildingCommon',$,(#43,#360,#361));
#363=IFCPROPERTYSET('1rUR7OGyIAkZT62xvibLnd',#18,'Pset_BuildingElementProxyCommon',$,(#43,#45));
#364=IFCPROPERTYSET('2kFDjjfIaTsBi7MLK$i$Me',#18,'Pset_BuildingStoreyCommon',$,(#43,#345));
#365=IFCPROPERTYSET('1TYvb3FgH88mtl04iE5P1T',#18,'Pset_BuildingSystemCommon',$,(#43));
#366=IFCPROPERTYSET('2W94HCj5xfigmNGtkBMklk',#18,'Pset_SpaceCommon',$,(#43,#45));
#367=IFCRELDEFINESBYPROPERTIES('0vDjba2fshDEh0_KufwWht',#18,$,$,(#32),#362);
#368=IFCRELDEFINESBYPROPERTIES('1V6UQfELB4oPy3GPEaJMPw',#18,$,$,(#32),#363);
#369=IFCRELDEFINESBYPROPERTIES('0Vpd75HttOMIhzXutBGgCt',#18,$,$,(#32),#364);
#370=IFCRELDEFINESBYPROPERTIES('22VMRBFW9n6_S81yWIP225',#18,$,$,(#32),#365);
#371=IFCRELDEFINESBYPROPERTIES('2w3bzVlKnfBVjA3_BjG2II',#18,$,$,(#32),#366);
#372=IFCRELASSOCIATESMATERIAL('0hQsky8WqYnnHEa9lZlcmO',#18,$,$,(#257),#265);
#373=IFCRELASSOCIATESMATERIAL('22T9r9KB1F3JFgePfxkUGp',#18,$,$,(#173,#180,#209,#231,#292,#314,#336),#179);
#374=IFCRELASSOCIATESMATERIAL('0QfjMRWx0N0AraD35Xcprq',#18,$,$,(#258),#264);
#375=IFCRELDEFINESBYTYPE('2dwyhKycU7ML4_NbJdZc4h',#18,$,$,(#100),#101);
#376=IFCRELDEFINESBYTYPE('20g5FU2jA3oT6o4i3amE4l',#18,$,$,(#149),#150);
#377=IFCRELDEFINESBYTYPE('0MSq_ijuC5q4PUKv4QkOsA',#18,$,$,(#173,#209,#231,#292,#314,#336),#180);
#378=IFCRELDEFINESBYTYPE('1bgurferyyrfEx97ISVVLa',#18,$,$,(#257),#258);
#379=IFCRELCONNECTSPATHELEMENTS('0vWpEvZ2palh9prUgq492B',#18,'3_DHXxtdb3wRKlXgyMiHOP|3_DHXxtdb3wRKlXgyMiH5o','Structural',$,#173,#231,(),(),.ATEND.,.ATSTART.);
#380=IFCRELCONNECTSPATHELEMENTS('1DeUPiIxR4GOX3edDD21N5',#18,'3_DHXxtdb3wRKlXgyMiHOP|3_DHXxtdb3wRKlXgyMiHR$','Structural',$,#173,#209,(),(),.ATSTART.,.ATEND.);
#381=IFCRELCONNECTSPATHELEMENTS('0tVAIxtRJcMrDMs7zQ4iU0',#18,'3_DHXxtdb3wRKlXgyMiHR$|1IMYx2Ej12vu3iYKHoTn08','Structural',$,#209,#292,(),(),.ATEND.,.ATEND.);
#382=IFCRELCONNECTSPATHELEMENTS('3RCI56hwSGkCZs5uaxU8rp',#18,'3_DHXxtdb3wRKlXgyMiH5o|1IMYx2Ej12vu3iYKHoTn08','Structural',$,#231,#292,(),(),.ATSTART.,.ATSTART.);
#383=IFCRELCONNECTSPATHELEMENTS('2_OuPDc0cCNLsztiHhqkAd',#18,'3_DHXxtdb3wRKlXgyMiHOP|0rMMWWDi1E0Qbe7dlPjRcx','Structural',$,#173,#314,(),(),.ATSTART.,.ATPATH.);
#384=IFCRELCONNECTSPATHELEMENTS('0Y3CaIlRqh49yeD$ETzmnf',#18,'1IMYx2Ej12vu3iYKHoTn08|0rMMWWDi1E0Qbe7dlPjRaK','Structural',$,#292,#336,(),(),.ATEND.,.ATPATH.);
#385=IFCPRESENTATIONLAYERASSIGNMENT('A-AREA-____-OTLN',$,(#97,#147),$);
#386=IFCPRESENTATIONLAYERASSIGNMENT('A-WALL-____-OTLN',$,(#161,#171,#200,#207,#222,#229,#283,#290,#305,#312,#327,#334),$);
#387=IFCPRESENTATIONLAYERASSIGNMENT('A-FLOR-____-OTLN',$,(#251),$);
#388=IFCRELASSOCIATESCLASSIFICATION('2LpgdvPbgBPfYw3EkQECL_',#18,'Exterior Walls','Exterior Walls:B2010',(#173,#209,#231,#292,#314,#336),#192);
#389=IFCUNITASSIGNMENT((#19,#99,#255));
ENDSEC;

END-ISO-10303-21;