ISO-10303-21;
HEADER;
FILE_DESCRIPTION(('ViewDefinition [CoordinationView]','RevitIdentifiers [ContentGUID: cbb0ae2e-6350-4225-8ca4-af668662c38d, VersionGUID: 25295f58-532f-4c93-b483-3d64d6793437, NumberOfSaves: 31]','CoordinateReference [CoordinateBase: Shared Coordinates]'),'2;1');
FILE_NAME('01_02_010.ifc','2026-01-07T17:00:40+01:00',(''),(''),'ODA SDAI 24.6','Autodesk Revit 24.3.30.11 (ENU) - IFC 24.3.30.11','');
FILE_SCHEMA(('IFC4X3'));
ENDSEC;
DATA;
#1=IFCORGANIZATION($,'Autodesk Revit 2024 (ENU)',$,$,$);
#2=IFCAPPLICATION(#1,'2024','Autodesk Revit 2024 (ENU)','Revit');
#3=IFCCARTESIANPOINT((0.,0.,0.));
#4=IFCCARTESIANPOINT((0.,0.));
#5=IFCDIRECTION((1.,0.,0.));
#6=IFCDIRECTION((-1.,0.,0.));
#7=IFCDIRECTION((0.,1.,0.));
#8=IFCDIRECTION((0.,-1.,0.));
#9=IFCDIRECTION((0.,0.,1.));
#10=IFCDIRECTION((0.,0.,-1.));
#11=IFCDIRECTION((1.,0.));
#12=IFCDIRECTION((-1.,0.));
#13=IFCDIRECTION((0.,1.));
#14=IFCDIRECTION((0.,-1.));
#15=IFCPERSON($,'','h.helming',$,$,$,$,$);
#16=IFCORGANIZATION($,'Organization Name','Organization Description',$,$);
#17=IFCPERSONANDORGANIZATION(#15,#16,$);
#18=IFCOWNERHISTORY(#17,#2,$,.NOCHANGE.,$,$,$,1767701842);
#19=IFCSIUNIT(*,.LENGTHUNIT.,.MILLI.,.METRE.);
#20=IFCAXIS2PLACEMENT3D(#3,$,$);
#21=IFCDIRECTION((6.12303176911189E-17,1.));
#22=IFCGEOMETRICREPRESENTATIONCONTEXT($,'Model',3,0.01,#20,#21);
#23=IFCGEOMETRICREPRESENTATIONSUBCONTEXT('Axis','Model',*,*,*,*,#22,$,.GRAPH_VIEW.,$);
#24=IFCGEOMETRICREPRESENTATIONSUBCONTEXT('Body','Model',*,*,*,*,#22,$,.MODEL_VIEW.,$);
#25=IFCGEOMETRICREPRESENTATIONSUBCONTEXT('Box','Model',*,*,*,*,#22,$,.MODEL_VIEW.,$);
#26=IFCGEOMETRICREPRESENTATIONSUBCONTEXT('FootPrint','Model',*,*,*,*,#22,$,.MODEL_VIEW.,$);
#27=IFCPROJECT('3BiAukOr129OoahsPvdJnz',#18,'Project Number',$,$,'Project Name','Project Status',(#22),#515);
#28=IFCCLASSIFICATION('CSI (Construction Specifications Institute)','1998',$,'Uniformat','UniFormat Classification','https://www.csiresources.org/standards/uniformat',$);
#29=IFCAXIS2PLACEMENT3D(#3,$,$);
#30=IFCLOCALPLACEMENT(#41,#29);
#31=IFCPOSTALADDRESS($,$,$,$,('Enter address hereAddress Line 2'),$,'','Boston','','MA');
#32=IFCBUILDING('3BiAukOr129OoahsPvdJny',#18,'Building Name',$,$,#30,$,'Building Name',.ELEMENT.,$,$,#31);
#33=IFCAXIS2PLACEMENT3D(#3,$,$);
#34=IFCLOCALPLACEMENT(#30,#33);
#35=IFCBUILDINGSTOREY('2JF4e6axWHqu3u0C1FZlmi',#18,'L1',$,'Level:8mm Head',#34,$,'L1',.ELEMENT.,0.);
#36=IFCCARTESIANPOINT((0.,0.,3000.));
#37=IFCAXIS2PLACEMENT3D(#36,$,$);
#38=IFCLOCALPLACEMENT(#30,#37);
#39=IFCBUILDINGSTOREY('1ZGO8hrFCHqw0v0026FpFv',#18,'L2',$,'Level:8mm Head',#38,$,'L2',.ELEMENT.,3000.);
#40=IFCAXIS2PLACEMENT3D(#3,$,$);
#41=IFCLOCALPLACEMENT($,#40);
#42=IFCSITE('3BiAukOr129OoahsPvdJn$',#18,'Default',$,$,#41,$,$,.ELEMENT.,(42,21,31,401672),(-71,-3,-24,-345703),0.,$,$);
#43=IFCPROPERTYSINGLEVALUE('Reference',$,IFCIDENTIFIER('Project Information'),$);
#44=IFCPROPERTYSET('2mFJcO6I01h0OYRLOICO3c',#18,'Pset_SiteCommon',$,(#43));
#45=IFCPROPERTYSINGLEVALUE('IsExternal',$,IFCBOOLEAN(.F.),$);
#46=IFCPROPERTYSET('0O$B2PbAODr9jYnpcaZGJT',#18,'Pset_SpaceCommon',$,(#43,#45));
#47=IFCRELDEFINESBYPROPERTIES('2fDrcjst0HFayqQ3dY1cGQ',#18,$,$,(#42),#44);
#48=IFCRELDEFINESBYPROPERTIES('1lYkP70lXSGXnZeJnLC8MY',#18,$,$,(#42),#46);
#63=IFCAXIS2PLACEMENT3D(#3,$,$);
#64=IFCLOCALPLACEMENT(#34,#63);
#65=IFCCARTESIANPOINT((200.,200.,0.));
#66=IFCCARTESIANPOINT((200.,7900.,0.));
#67=IFCCARTESIANPOINT((2800.,7900.,0.));
#68=IFCCARTESIANPOINT((2800.,4500.,0.));
#69=IFCCARTESIANPOINT((4900.,4500.,0.));
#70=IFCCARTESIANPOINT((4900.,200.,0.));
#71=IFCPOLYLOOP((#65,#66,#67,#68,#69,#70));
#72=IFCFACEOUTERBOUND(#71,.T.);
#73=IFCFACE((#72));
#74=IFCCARTESIANPOINT((200.,200.,2695.2));
#75=IFCCARTESIANPOINT((200.,7900.,2695.2));
#76=IFCPOLYLOOP((#66,#65,#74,#75));
#77=IFCFACEOUTERBOUND(#76,.T.);
#78=IFCFACE((#77));
#79=IFCCARTESIANPOINT((4900.,200.,2695.2));
#80=IFCPOLYLOOP((#65,#70,#79,#74));
#81=IFCFACEOUTERBOUND(#80,.T.);
#82=IFCFACE((#81));
#83=IFCCARTESIANPOINT((4900.,4500.,2695.2));
#84=IFCPOLYLOOP((#70,#69,#83,#79));
#85=IFCFACEOUTERBOUND(#84,.T.);
#86=IFCFACE((#85));
#87=IFCCARTESIANPOINT((2800.,4500.,2695.2));
#88=IFCPOLYLOOP((#69,#68,#87,#83));
#89=IFCFACEOUTERBOUND(#88,.T.);
#90=IFCFACE((#89));
#91=IFCCARTESIANPOINT((2800.,7900.,2695.2));
#92=IFCPOLYLOOP((#68,#67,#91,#87));
#93=IFCFACEOUTERBOUND(#92,.T.);
#94=IFCFACE((#93));
#95=IFCPOLYLOOP((#67,#66,#75,#91));
#96=IFCFACEOUTERBOUND(#95,.T.);
#97=IFCFACE((#96));
#98=IFCPOLYLOOP((#75,#74,#79,#83,#87,#91));
#99=IFCFACEOUTERBOUND(#98,.T.);
#100=IFCFACE((#99));
#101=IFCCLOSEDSHELL((#73,#78,#82,#86,#90,#94,#97,#100));
#102=IFCFACETEDBREP(#101);
#103=IFCSHAPEREPRESENTATION(#24,'Body','Brep',(#102));
#104=IFCPRODUCTDEFINITIONSHAPE($,$,(#103));
#105=IFCSIUNIT(*,.AREAUNIT.,$,.SQUARE_METRE.);
#106=IFCSPACE('0rTWnvc$TEcxPkiz6YVMXL',#18,'136',$,$,#64,#104,'room',.ELEMENT.,.NOTDEFINED.,$);
#107=IFCSPACETYPE('0rTWnvc$TEcxPkkz6YVMXL',#18,'room 136:1603652',$,$,$,$,'1603652',$,.NOTDEFINED.,$);
#108=IFCPROPERTYSINGLEVALUE('Reference',$,IFCIDENTIFIER('room 136'),$);
#109=IFCPROPERTYSET('1yVNq8JvERFUCk0SSWqd4A',#18,'Pset_SpaceCommon',$,(#45,#108));
#110=IFCPROPERTYSET('0QcwjV1aNu_kJC2C2O71zH',#18,'Pset_SpaceHeaterTypeCommon',$,(#108));
#111=IFCRELDEFINESBYPROPERTIES('0JR70OPg3py8LvB24F8w$O',#18,$,$,(#106),#109);
#112=IFCRELDEFINESBYPROPERTIES('0foiP_lU9u$o9U3S4mN6cJ',#18,$,$,(#106),#110);
#113=IFCAXIS2PLACEMENT3D(#3,$,$);
#114=IFCLOCALPLACEMENT(#34,#113);
#115=IFCCARTESIANPOINT((320.000000000003,-49.9999999999995));
#116=IFCAXIS2PLACEMENT2D(#115,#11);
#117=IFCRECTANGLEPROFILEDEF(.AREA.,$,#116,3200.00000000002,4500.);
#118=IFCCARTESIANPOINT((5200.,5980.,0.));
#119=IFCAXIS2PLACEMENT3D(#118,#9,#7);
#120=IFCEXTRUDEDAREASOLID(#117,#119,#9,2695.2);
#121=IFCSIUNIT(*,.PLANEANGLEUNIT.,$,.RADIAN.);
#122=IFCDIMENSIONALEXPONENTS(0,0,0,0,0,0,0);
#123=IFCMEASUREWITHUNIT(IFCPLANEANGLEMEASURE(0.0174532925199433),#121);
#124=IFCCONVERSIONBASEDUNIT(#122,.PLANEANGLEUNIT.,'DEGREE',#123);
#125=IFCSHAPEREPRESENTATION(#24,'Body','SweptSolid',(#120));
#126=IFCPRODUCTDEFINITIONSHAPE($,$,(#125));
#127=IFCSPACE('0rTWnvc$TEcxPkiz6YVMXM',#18,'137',$,$,#114,#126,'room',.ELEMENT.,.NOTDEFINED.,$);
#128=IFCSPACETYPE('0rTWnvc$TEcxPkkz6YVMXM',#18,'room 137:1603655',$,$,$,$,'1603655',$,.NOTDEFINED.,$);
#129=IFCPROPERTYSINGLEVALUE('Reference',$,IFCIDENTIFIER('room 137'),$);
#130=IFCPROPERTYSET('0hUuxUJrNiyKC_Z2InqYmJ',#18,'Pset_SpaceCommon',$,(#45,#129));
#131=IFCPROPERTYSET('0bnLA7aoxFv5xPy$h7PsrF',#18,'Pset_SpaceHeaterTypeCommon',$,(#129));
#132=IFCRELDEFINESBYPROPERTIES('3dbbg2L6VBu6kjUli19c9e',#18,$,$,(#127),#130);
#133=IFCRELDEFINESBYPROPERTIES('1XarzaPv1CYSOEGTxEIeB$',#18,$,$,(#127),#131);
#134=IFCAXIS2PLACEMENT3D(#3,$,$);
#135=IFCLOCALPLACEMENT(#34,#134);
#136=IFCCARTESIANPOINT((-6.82121026329696E-13,5.6843418860808E-13));
#137=IFCAXIS2PLACEMENT2D(#136,#11);
#138=IFCRECTANGLEPROFILEDEF(.AREA.,$,#137,4300.,2600.);
#139=IFCCARTESIANPOINT((6400.,2350.,0.));
#140=IFCAXIS2PLACEMENT3D(#139,#9,#7);
#141=IFCEXTRUDEDAREASOLID(#138,#140,#9,2695.2);
#142=IFCSHAPEREPRESENTATION(#24,'Body','SweptSolid',(#141));
#143=IFCPRODUCTDEFINITIONSHAPE($,$,(#142));
#144=IFCSPACE('0rTWnvc$TEcxPkiz6YVMaY',#18,'138',$,$,#135,#143,'room',.ELEMENT.,.NOTDEFINED.,$);
#145=IFCSPACETYPE('0rTWnvc$TEcxPkkz6YVMaY',#18,'room 138:1603891',$,$,$,$,'1603891',$,.NOTDEFINED.,$);
#146=IFCPROPERTYSINGLEVALUE('Reference',$,IFCIDENTIFIER('room 138'),$);
#147=IFCPROPERTYSET('3pNI8VuQiIqd0g7RWjjTkw',#18,'Pset_SpaceCommon',$,(#45,#146));
#148=IFCPROPERTYSET('2lVnMMOOcGI2GieugydxK1',#18,'Pset_SpaceHeaterTypeCommon',$,(#146));
#149=IFCRELDEFINESBYPROPERTIES('20Le2jMKwfU36Tp832hsK1',#18,$,$,(#144),#147);
#150=IFCRELDEFINESBYPROPERTIES('1UVZWMa1HFw_wO6a4M0U_c',#18,$,$,(#144),#148);
#151=IFCCARTESIANPOINT((100.,8100.,0.));
#152=IFCAXIS2PLACEMENT3D(#151,#9,#8);
#153=IFCLOCALPLACEMENT(#34,#152);
#154=IFCCARTESIANPOINT((8100.,-0.));
#155=IFCPOLYLINE((#4,#154));
#156=IFCSHAPEREPRESENTATION(#23,'Axis','Curve2D',(#155));
#157=IFCCARTESIANPOINT((4050.00000000001,-1.4210854715202E-14));
#158=IFCAXIS2PLACEMENT2D(#157,#12);
#159=IFCRECTANGLEPROFILEDEF(.AREA.,$,#158,8100.00000000003,200.);
#160=IFCAXIS2PLACEMENT3D(#3,$,$);
#161=IFCEXTRUDEDAREASOLID(#159,#160,#9,2695.2);
#162=IFCCARTESIANPOINT((8100.,-0.));
#163=IFCCARTESIANPOINT((8100.,200.));
#164=IFCCARTESIANPOINT((7900.,200.));
#165=IFCCARTESIANPOINT((200.,200.));
#166=IFCCARTESIANPOINT((0.,200.));
#167=IFCPOLYLINE((#4,#162,#163,#164,#165,#166,#4));
#168=IFCCARTESIANPOINT((0.,-100.,2695.2));
#169=IFCAXIS2PLACEMENT3D(#168,#10,#8);
#170=IFCPLANE(#169);
#171=IFCCARTESIANPOINT((0.,-100.,2695.2));
#172=IFCAXIS2PLACEMENT3D(#171,$,$);
#173=IFCPOLYGONALBOUNDEDHALFSPACE(#170,.T.,#172,#167);
#174=IFCBOOLEANCLIPPINGRESULT(.DIFFERENCE.,#161,#173);
#175=IFCCOLOURRGB($,0.752941176470588,0.752941176470588,0.752941176470588);
#176=IFCSURFACESTYLERENDERING(#175,0.,$,$,$,$,IFCNORMALISEDRATIOMEASURE(0.5),IFCSPECULAREXPONENT(10.),.NOTDEFINED.);
#177=IFCSURFACESTYLE('Default Wall',.BOTH.,(#176));
#178=IFCSTYLEDITEM(#161,(#177),$);
#179=IFCSHAPEREPRESENTATION(#24,'Body','Clipping',(#174));
#180=IFCPRODUCTDEFINITIONSHAPE($,$,(#156,#179));
#181=IFCWALL('3Vyqk8cSj8TOuAk6zHUwAt',#18,'Basic Wall:Generic - 200mm:1602350',$,'Basic Wall:Generic - 200mm',#153,#180,'1602350',.NOTDEFINED.);
#182=IFCMATERIAL('Default Wall',$,'Miscellaneous');
#183=IFCSTYLEDITEM($,(#177),$);
#184=IFCSTYLEDREPRESENTATION(#22,'Style','Material',(#183));
#185=IFCMATERIALDEFINITIONREPRESENTATION($,$,(#184),#182);
#186=IFCMATERIALLAYER(#182,200.,$,'Layer',$,'Miscellaneous',$);
#187=IFCMATERIALLAYERSET((#186),'Basic Wall:Generic - 200mm',$);
#188=IFCWALLTYPE('1xZrMVYp52mhf4uMzw11Hk',#18,'Basic Wall:Generic - 200mm',$,$,(#202),$,'441451',$,.STANDARD.);
#189=IFCPROPERTYSINGLEVALUE('Reference',$,IFCIDENTIFIER('Generic - 200mm'),$);
#190=IFCPROPERTYSET('0Km4zNM2MwGsg6uui573Gl',#18,'Pset_EnvironmentalImpactIndicators',$,(#189));
#191=IFCPROPERTYSINGLEVALUE('Reference',$,IFCLABEL('Generic - 200mm'),$);
#192=IFCPROPERTYSET('0ZXMEr5ajxWFHJMWoi4f9d',#18,'Pset_ReinforcementBarPitchOfWall',$,(#191));
#193=IFCPROPERTYSINGLEVALUE('IsExternal',$,IFCBOOLEAN(.T.),$);
#194=IFCPROPERTYSINGLEVALUE('LoadBearing',$,IFCBOOLEAN(.F.),$);
#195=IFCPROPERTYSINGLEVALUE('ExtendToStructure',$,IFCBOOLEAN(.T.),$);
#196=IFCPROPERTYSET('1zrfxTCt1bXMa1Ly5p70N1',#18,'Pset_WallCommon',$,(#189,#193,#194,#195));
#197=IFCRELDEFINESBYPROPERTIES('03npcsjKGgxiKm0v35mOCU',#18,$,$,(#181),#190);
#198=IFCRELDEFINESBYPROPERTIES('19PyAMlzR0yGXIwnh1vl8V',#18,$,$,(#181),#192);
#199=IFCRELDEFINESBYPROPERTIES('0Ch_H7bAOLrBCWJ9at5CY2',#18,$,$,(#181),#196);
#200=IFCCLASSIFICATIONREFERENCE('https://www.csiresources.org/standards/uniformat','B2010','Exterior Walls',#28,'',$);
#201=IFCPROPERTYSINGLEVALUE('Description',$,IFCTEXT('Generic Wall (Material By Category), 200mm thick'),$);
#202=IFCPROPERTYSET('2L7lvTstnIeeydfwzfZZLR',#18,'Pset_ReinforcementBarPitchOfWall',$,(#201));
#203=IFCCARTESIANPOINT((200.,100.,0.));
#204=IFCAXIS2PLACEMENT3D(#203,$,$);
#205=IFCLOCALPLACEMENT(#34,#204);
#206=IFCCARTESIANPOINT((7500.,0.));
#207=IFCPOLYLINE((#4,#206));
#208=IFCSHAPEREPRESENTATION(#23,'Axis','Curve2D',(#207));
#209=IFCCARTESIANPOINT((3750.00000000001,0.));
#210=IFCAXIS2PLACEMENT2D(#209,#12);
#211=IFCRECTANGLEPROFILEDEF(.AREA.,$,#210,7500.00000000002,200.);
#212=IFCAXIS2PLACEMENT3D(#3,$,$);
#213=IFCEXTRUDEDAREASOLID(#211,#212,#9,2695.2);
#214=IFCCARTESIANPOINT((7500.,0.));
#215=IFCCARTESIANPOINT((7500.,200.));
#216=IFCCARTESIANPOINT((4900.,200.));
#217=IFCCARTESIANPOINT((4700.,200.));
#218=IFCCARTESIANPOINT((-0.,200.));
#219=IFCPOLYLINE((#4,#214,#215,#216,#217,#218,#4));
#220=IFCCARTESIANPOINT((0.,-100.,2695.2));
#221=IFCAXIS2PLACEMENT3D(#220,#10,#6);
#222=IFCPLANE(#221);
#223=IFCCARTESIANPOINT((0.,-100.,2695.2));
#224=IFCAXIS2PLACEMENT3D(#223,$,$);
#225=IFCPOLYGONALBOUNDEDHALFSPACE(#222,.T.,#224,#219);
#226=IFCBOOLEANCLIPPINGRESULT(.DIFFERENCE.,#213,#225);
#227=IFCSTYLEDITEM(#213,(#177),$);
#228=IFCSHAPEREPRESENTATION(#24,'Body','Clipping',(#226));
#229=IFCPRODUCTDEFINITIONSHAPE($,$,(#208,#228));
#230=IFCWALL('3Vyqk8cSj8TOuAk6zHUwAc',#18,'Basic Wall:Generic - 200mm:1602367',$,'Basic Wall:Generic - 200mm',#205,#229,'1602367',.NOTDEFINED.);
#231=IFCPROPERTYSET('3JUIdSeVp_uwEbbZZ62q4s',#18,'Pset_EnvironmentalImpactIndicators',$,(#189));
#232=IFCPROPERTYSINGLEVALUE('Reference',$,IFCLABEL('Generic - 200mm'),$);
#233=IFCPROPERTYSET('2xt8_eWXQmZoGh92FUaf7C',#18,'Pset_ReinforcementBarPitchOfWall',$,(#232));
#234=IFCPROPERTYSET('1Qx33RkOMvlc106bCgkFYy',#18,'Pset_WallCommon',$,(#189,#193,#194,#195));
#235=IFCRELDEFINESBYPROPERTIES('0Cbozj_3TLDgtMpOD0_yYT',#18,$,$,(#230),#231);
#236=IFCRELDEFINESBYPROPERTIES('1Feha5xswcNTrZ$5QRM3b5',#18,$,$,(#230),#233);
#237=IFCRELDEFINESBYPROPERTIES('1olywbjtcxLyBnEbs_Cz$6',#18,$,$,(#230),#234);
#238=IFCCARTESIANPOINT((5000.,200.,0.));
#239=IFCAXIS2PLACEMENT3D(#238,#9,#7);
#240=IFCLOCALPLACEMENT(#34,#239);
#241=IFCCARTESIANPOINT((4300.,-0.));
#242=IFCPOLYLINE((#4,#241));
#243=IFCSHAPEREPRESENTATION(#23,'Axis','Curve2D',(#242));
#244=IFCCARTESIANPOINT((2150.,-3.19744231092045E-13));
#245=IFCAXIS2PLACEMENT2D(#244,#12);
#246=IFCRECTANGLEPROFILEDEF(.AREA.,$,#245,4300.,200.);
#247=IFCAXIS2PLACEMENT3D(#3,$,$);
#248=IFCEXTRUDEDAREASOLID(#246,#247,#9,2695.2);
#249=IFCCARTESIANPOINT((4300.,-0.));
#250=IFCCARTESIANPOINT((4300.,200.));
#251=IFCCARTESIANPOINT((0.,200.));
#252=IFCPOLYLINE((#4,#249,#250,#251,#4));
#253=IFCCARTESIANPOINT((0.,-100.,2695.2));
#254=IFCAXIS2PLACEMENT3D(#253,#10,#7);
#255=IFCPLANE(#254);
#256=IFCCARTESIANPOINT((0.,-100.,2695.2));
#257=IFCAXIS2PLACEMENT3D(#256,$,$);
#258=IFCPOLYGONALBOUNDEDHALFSPACE(#255,.T.,#257,#252);
#259=IFCBOOLEANCLIPPINGRESULT(.DIFFERENCE.,#248,#258);
#260=IFCSTYLEDITEM(#248,(#177),$);
#261=IFCSHAPEREPRESENTATION(#24,'Body','Clipping',(#259));
#262=IFCPRODUCTDEFINITIONSHAPE($,$,(#243,#261));
#263=IFCWALL('3Vyqk8cSj8TOuAk6zHUwBs',#18,'Basic Wall:Generic - 200mm:1602415',$,'Basic Wall:Generic - 200mm',#240,#262,'1602415',.NOTDEFINED.);
#264=IFCPROPERTYSET('3zFZKkmoyjMir2XJPwM5K5',#18,'Pset_EnvironmentalImpactIndicators',$,(#189));
#265=IFCPROPERTYSINGLEVALUE('Reference',$,IFCLABEL('Generic - 200mm'),$);
#266=IFCPROPERTYSET('24rl2YIcyoi55ChyZCq2G8',#18,'Pset_ReinforcementBarPitchOfWall',$,(#265));
#267=IFCPROPERTYSET('1QO0ZFI0bba_x9VNyujEk0',#18,'Pset_WallCommon',$,(#189,#193,#194,#195));
#268=IFCRELDEFINESBYPROPERTIES('2a9nfObiFdFDL_xI6RB3zY',#18,$,$,(#263),#264);
#269=IFCRELDEFINESBYPROPERTIES('2lgnXdSixHWA271wBKXvqj',#18,$,$,(#263),#266);
#270=IFCRELDEFINESBYPROPERTIES('1XotYCV5aUozGnrkwTWOXu',#18,$,$,(#263),#267);
#271=IFCCARTESIANPOINT((7500.,4600.,0.));
#272=IFCAXIS2PLACEMENT3D(#271,#9,#6);
#273=IFCLOCALPLACEMENT(#34,#272);
#274=IFCCARTESIANPOINT((4700.,0.));
#275=IFCPOLYLINE((#4,#274));
#276=IFCSHAPEREPRESENTATION(#23,'Axis','Curve2D',(#275));
#277=IFCCARTESIANPOINT((2350.,3.5527136788005E-14));
#278=IFCAXIS2PLACEMENT2D(#277,#12);
#279=IFCRECTANGLEPROFILEDEF(.AREA.,$,#278,4700.,200.);
#280=IFCAXIS2PLACEMENT3D(#3,$,$);
#281=IFCEXTRUDEDAREASOLID(#279,#280,#9,2695.2);
#282=IFCCARTESIANPOINT((4500.,0.));
#283=IFCCARTESIANPOINT((4700.,0.));
#284=IFCCARTESIANPOINT((4700.,200.));
#285=IFCCARTESIANPOINT((2600.,200.));
#286=IFCCARTESIANPOINT((2400.,200.));
#287=IFCCARTESIANPOINT((-0.,200.));
#288=IFCPOLYLINE((#4,#282,#283,#284,#285,#286,#287,#4));
#289=IFCCARTESIANPOINT((0.,-100.,2695.2));
#290=IFCAXIS2PLACEMENT3D(#289,#10,#5);
#291=IFCPLANE(#290);
#292=IFCCARTESIANPOINT((0.,-100.,2695.2));
#293=IFCAXIS2PLACEMENT3D(#292,$,$);
#294=IFCPOLYGONALBOUNDEDHALFSPACE(#291,.T.,#293,#288);
#295=IFCBOOLEANCLIPPINGRESULT(.DIFFERENCE.,#281,#294);
#296=IFCSTYLEDITEM(#281,(#177),$);
#297=IFCSHAPEREPRESENTATION(#24,'Body','Clipping',(#295));
#298=IFCPRODUCTDEFINITIONSHAPE($,$,(#276,#297));
#299=IFCWALL('3Vyqk8cSj8TOuAk6zHUw89',#18,'Basic Wall:Generic - 200mm:1602448',$,'Basic Wall:Generic - 200mm',#273,#298,'1602448',.NOTDEFINED.);
#300=IFCPROPERTYSET('24uQ0xYWMb2iAICPORaANl',#18,'Pset_EnvironmentalImpactIndicators',$,(#189));
#301=IFCPROPERTYSINGLEVALUE('Reference',$,IFCLABEL('Generic - 200mm'),$);
#302=IFCPROPERTYSET('2NtOS$PXqyXyak0_SUhCNN',#18,'Pset_ReinforcementBarPitchOfWall',$,(#301));
#303=IFCPROPERTYSET('3bKdsx29_RVH62fNRmCncU',#18,'Pset_WallCommon',$,(#189,#193,#194,#195));
#304=IFCRELDEFINESBYPROPERTIES('2OpRam8jxvHM2_75mSf2IS',#18,$,$,(#299),#300);
#305=IFCRELDEFINESBYPROPERTIES('1q8YBDpLYRkwLX2j2Smoto',#18,$,$,(#299),#302);
#306=IFCRELDEFINESBYPROPERTIES('3tUA_y2$R1DIY4ctO4p7G7',#18,$,$,(#299),#303);
#307=IFCCARTESIANPOINT((7600.,4500.,0.));
#308=IFCAXIS2PLACEMENT3D(#307,#9,#7);
#309=IFCLOCALPLACEMENT(#34,#308);
#310=IFCCARTESIANPOINT((3600.,0.));
#311=IFCPOLYLINE((#4,#310));
#312=IFCSHAPEREPRESENTATION(#23,'Axis','Curve2D',(#311));
#313=IFCCARTESIANPOINT((1800.,1.77635683940025E-13));
#314=IFCAXIS2PLACEMENT2D(#313,#12);
#315=IFCRECTANGLEPROFILEDEF(.AREA.,$,#314,3600.,200.);
#316=IFCAXIS2PLACEMENT3D(#3,$,$);
#317=IFCEXTRUDEDAREASOLID(#315,#316,#9,2695.2);
#318=IFCCARTESIANPOINT((3600.,0.));
#319=IFCCARTESIANPOINT((3600.,200.));
#320=IFCCARTESIANPOINT((3400.,200.));
#321=IFCCARTESIANPOINT((200.,200.));
#322=IFCCARTESIANPOINT((0.,200.));
#323=IFCPOLYLINE((#4,#318,#319,#320,#321,#322,#4));
#324=IFCCARTESIANPOINT((0.,-100.,2695.2));
#325=IFCAXIS2PLACEMENT3D(#324,#10,#7);
#326=IFCPLANE(#325);
#327=IFCCARTESIANPOINT((0.,-100.,2695.2));
#328=IFCAXIS2PLACEMENT3D(#327,$,$);
#329=IFCPOLYGONALBOUNDEDHALFSPACE(#326,.T.,#328,#323);
#330=IFCBOOLEANCLIPPINGRESULT(.DIFFERENCE.,#317,#329);
#331=IFCSTYLEDITEM(#317,(#177),$);
#332=IFCSHAPEREPRESENTATION(#24,'Body','Clipping',(#330));
#333=IFCPRODUCTDEFINITIONSHAPE($,$,(#312,#332));
#334=IFCWALL('3Vyqk8cSj8TOuAk6zHUwMJ',#18,'Basic Wall:Generic - 200mm:1602570',$,'Basic Wall:Generic - 200mm',#309,#333,'1602570',.NOTDEFINED.);
#335=IFCPROPERTYSET('3lnIhEvOuHbjSaKDfZK8k9',#18,'Pset_EnvironmentalImpactIndicators',$,(#189));
#336=IFCPROPERTYSINGLEVALUE('Reference',$,IFCLABEL('Generic - 200mm'),$);
#337=IFCPROPERTYSET('04W1WwOvjm30inH1dChtfP',#18,'Pset_ReinforcementBarPitchOfWall',$,(#336));
#338=IFCPROPERTYSET('3KqX06vgGEOM$38ftOcyqA',#18,'Pset_WallCommon',$,(#189,#193,#194,#195));
#339=IFCRELDEFINESBYPROPERTIES('0S8aOnFU8WcFAwodE0ltd9',#18,$,$,(#334),#335);
#340=IFCRELDEFINESBYPROPERTIES('1tYLw8_V7aeyi7TVjsHYUw',#18,$,$,(#334),#337);
#341=IFCRELDEFINESBYPROPERTIES('1t2sWDc8aJN1HpxUM7WWie',#18,$,$,(#334),#338);
#342=IFCCARTESIANPOINT((7500.,8000.,0.));
#343=IFCAXIS2PLACEMENT3D(#342,#9,#6);
#344=IFCLOCALPLACEMENT(#34,#343);
#345=IFCCARTESIANPOINT((7300.,0.));
#346=IFCPOLYLINE((#4,#345));
#347=IFCSHAPEREPRESENTATION(#23,'Axis','Curve2D',(#346));
#348=IFCCARTESIANPOINT((3650.,4.40536496171262E-13));
#349=IFCAXIS2PLACEMENT2D(#348,#12);
#350=IFCRECTANGLEPROFILEDEF(.AREA.,$,#349,7300.,200.);
#351=IFCAXIS2PLACEMENT3D(#3,$,$);
#352=IFCEXTRUDEDAREASOLID(#350,#351,#9,2695.2);
#353=IFCCARTESIANPOINT((7300.,0.));
#354=IFCCARTESIANPOINT((7300.,200.));
#355=IFCCARTESIANPOINT((4700.,200.));
#356=IFCCARTESIANPOINT((4500.,200.));
#357=IFCCARTESIANPOINT((0.,200.));
#358=IFCPOLYLINE((#4,#353,#354,#355,#356,#357,#4));
#359=IFCCARTESIANPOINT((0.,-100.,2695.2));
#360=IFCAXIS2PLACEMENT3D(#359,#10,#5);
#361=IFCPLANE(#360);
#362=IFCCARTESIANPOINT((0.,-100.,2695.2));
#363=IFCAXIS2PLACEMENT3D(#362,$,$);
#364=IFCPOLYGONALBOUNDEDHALFSPACE(#361,.T.,#363,#358);
#365=IFCBOOLEANCLIPPINGRESULT(.DIFFERENCE.,#352,#364);
#366=IFCSTYLEDITEM(#352,(#177),$);
#367=IFCSHAPEREPRESENTATION(#24,'Body','Clipping',(#365));
#368=IFCPRODUCTDEFINITIONSHAPE($,$,(#347,#367));
#369=IFCWALL('3Vyqk8cSj8TOuAk6zHUwNQ',#18,'Basic Wall:Generic - 200mm:1602627',$,'Basic Wall:Generic - 200mm',#344,#368,'1602627',.NOTDEFINED.);
#370=IFCPROPERTYSET('33VNddCdyWuRINW3IN$6wR',#18,'Pset_EnvironmentalImpactIndicators',$,(#189));
#371=IFCPROPERTYSINGLEVALUE('Reference',$,IFCLABEL('Generic - 200mm'),$);
#372=IFCPROPERTYSET('3fo6gcdchLdhUs9OMMjJcK',#18,'Pset_ReinforcementBarPitchOfWall',$,(#371));
#373=IFCPROPERTYSET('365dpoAGwqqh9R$iloiJ6Y',#18,'Pset_WallCommon',$,(#189,#193,#194,#195));
#374=IFCRELDEFINESBYPROPERTIES('2BzMAyBcbgIMAClUNVhX7C',#18,$,$,(#369),#370);
#375=IFCRELDEFINESBYPROPERTIES('2jcjj16uqcySZoq7QPRlFE',#18,$,$,(#369),#372);
#376=IFCRELDEFINESBYPROPERTIES('3JFaQDGEcQuJc$tDFSxPEn',#18,$,$,(#369),#373);
#377=IFCCARTESIANPOINT((2900.,4700.,0.));
#378=IFCAXIS2PLACEMENT3D(#377,#9,#7);
#379=IFCLOCALPLACEMENT(#34,#378);
#380=IFCCARTESIANPOINT((3200.,0.));
#381=IFCPOLYLINE((#4,#380));
#382=IFCSHAPEREPRESENTATION(#23,'Axis','Curve2D',(#381));
#383=IFCCARTESIANPOINT((1600.00000000001,9.9475983006414E-14));
#384=IFCAXIS2PLACEMENT2D(#383,#12);
#385=IFCRECTANGLEPROFILEDEF(.AREA.,$,#384,3200.00000000003,200.);
#386=IFCAXIS2PLACEMENT3D(#3,$,$);
#387=IFCEXTRUDEDAREASOLID(#385,#386,#9,2695.2);
#388=IFCCARTESIANPOINT((3200.,0.));
#389=IFCCARTESIANPOINT((3200.,200.));
#390=IFCCARTESIANPOINT((0.,200.));
#391=IFCPOLYLINE((#4,#388,#389,#390,#4));
#392=IFCCARTESIANPOINT((0.,-100.,2695.2));
#393=IFCAXIS2PLACEMENT3D(#392,#10,#7);
#394=IFCPLANE(#393);
#395=IFCCARTESIANPOINT((0.,-100.,2695.2));
#396=IFCAXIS2PLACEMENT3D(#395,$,$);
#397=IFCPOLYGONALBOUNDEDHALFSPACE(#394,.T.,#396,#391);
#398=IFCBOOLEANCLIPPINGRESULT(.DIFFERENCE.,#387,#397);
#399=IFCSTYLEDITEM(#387,(#177),$);
#400=IFCSHAPEREPRESENTATION(#24,'Body','Clipping',(#398));
#401=IFCPRODUCTDEFINITIONSHAPE($,$,(#382,#400));
#402=IFCWALL('3Vyqk8cSj8TOuAk6zHUwIV',#18,'Basic Wall:Generic - 200mm:1602822',$,'Basic Wall:Generic - 200mm',#379,#401,'1602822',.NOTDEFINED.);
#403=IFCPROPERTYSET('3jiZGkAKUu2Am_YLPx8Ihp',#18,'Pset_EnvironmentalImpactIndicators',$,(#189));
#404=IFCPROPERTYSINGLEVALUE('Reference',$,IFCLABEL('Generic - 200mm'),$);
#405=IFCPROPERTYSET('0I2vFcCwzFIqXYuiAJMRoI',#18,'Pset_ReinforcementBarPitchOfWall',$,(#404));
#406=IFCPROPERTYSET('3oaDZ6ll2ApuPGw0$rKaRm',#18,'Pset_WallCommon',$,(#189,#193,#194,#195));
#407=IFCRELDEFINESBYPROPERTIES('3sUTm1e5PvbSM1LkCWEcnc',#18,$,$,(#402),#403);
#408=IFCRELDEFINESBYPROPERTIES('2PBm19nyIDk_wgMh7oZ7kn',#18,$,$,(#402),#405);
#409=IFCRELDEFINESBYPROPERTIES('1puf9ZxLtpuD$z2essXrIy',#18,$,$,(#402),#406);
#410=IFCAXIS2PLACEMENT3D(#3,$,$);
#411=IFCLOCALPLACEMENT(#34,#410);
#412=IFCCARTESIANPOINT((0.,0.));
#413=IFCAXIS2PLACEMENT2D(#412,#11);
#414=IFCRECTANGLEPROFILEDEF(.AREA.,$,#413,8100.,7700.00000000001);
#415=IFCCARTESIANPOINT((3850.,4050.,0.));
#416=IFCAXIS2PLACEMENT3D(#415,#10,#7);
#417=IFCEXTRUDEDAREASOLID(#414,#416,#9,304.8);
#418=IFCCOLOURRGB($,0.501960784313725,0.501960784313725,0.501960784313725);
#419=IFCSURFACESTYLERENDERING(#418,0.,$,$,$,$,IFCNORMALISEDRATIOMEASURE(0.5),IFCSPECULAREXPONENT(10.),.NOTDEFINED.);
#420=IFCSURFACESTYLE('Default Floor',.BOTH.,(#419));
#421=IFCSTYLEDITEM(#417,(#420),$);
#422=IFCSHAPEREPRESENTATION(#24,'Body','SweptSolid',(#417));
#423=IFCPRODUCTDEFINITIONSHAPE($,$,(#422));
#424=IFCSLAB('0dxtXCDSn2mfP92h$AiPNt',#18,'Floor:Generic - 12":1603513',$,'Floor:Generic - 12"',#411,#423,'1603513',.FLOOR.);
#425=IFCSLABTYPE('1xZrMVYp52mhf4uMzw11Hi',#18,'Floor:Generic - 12"',$,$,(#444),$,'441449',$,.FLOOR.);
#426=IFCMATERIAL('Default Floor',$,'Miscellaneous');
#427=IFCSTYLEDITEM($,(#420),$);
#428=IFCSTYLEDREPRESENTATION(#22,'Style','Material',(#427));
#429=IFCMATERIALDEFINITIONREPRESENTATION($,$,(#428),#426);
#430=IFCMATERIALLAYER(#426,304.8,$,'Layer',$,'Miscellaneous',$);
#431=IFCMATERIALLAYERSET((#430),'Floor:Generic - 12"',$);
#432=IFCMATERIALLAYERSETUSAGE(#431,.AXIS3.,.POSITIVE.,0.,$);
#433=IFCPROPERTYSINGLEVALUE('Reference',$,IFCIDENTIFIER('Generic - 12"'),$);
#434=IFCPROPERTYSET('2WrTm3aPy3BIbKc6XtXVrh',#18,'Pset_EnvironmentalImpactIndicators',$,(#433));
#435=IFCPROPERTYSINGLEVALUE('Reference',$,IFCLABEL('Generic - 12"'),$);
#436=IFCPROPERTYSET('0wUBDx6kDVbd2xy1P3gXJf',#18,'Pset_ReinforcementBarPitchOfSlab',$,(#435));
#437=IFCPROPERTYSINGLEVALUE('PitchAngle',$,IFCPLANEANGLEMEASURE(0.),$);
#438=IFCPROPERTYSET('2FpGr__1Pq1BThqRSA3oX5',#18,'Pset_SlabCommon',$,(#45,#194,#433,#437));
#439=IFCRELDEFINESBYPROPERTIES('2$ow_FWnc4oBF1YIvgCc32',#18,$,$,(#424),#434);
#440=IFCRELDEFINESBYPROPERTIES('3hptuPTkvy0K3xpzilXQpJ',#18,$,$,(#424),#436);
#441=IFCRELDEFINESBYPROPERTIES('3SAQiH1PVh8_oNSN1Eb0zh',#18,$,$,(#424),#438);
#442=IFCCLASSIFICATIONREFERENCE('https://www.csiresources.org/standards/uniformat','B1010','Floor Construction',#28,'',$);
#443=IFCPROPERTYSINGLEVALUE('Description',$,IFCTEXT('Generic Floor (Material By Category), 12" thick'),$);
#444=IFCPROPERTYSET('08jeqqdMvr9oQ2sJw84keo',#18,'Pset_ReinforcementBarPitchOfSlab',$,(#443));
#445=IFCAXIS2PLACEMENT3D(#3,$,$);
#446=IFCLOCALPLACEMENT(#38,#445);
#447=IFCCARTESIANPOINT((0.,0.));
#448=IFCAXIS2PLACEMENT2D(#447,#11);
#449=IFCRECTANGLEPROFILEDEF(.AREA.,$,#448,8100.,7700.00000000001);
#450=IFCCARTESIANPOINT((3850.,4050.,0.));
#451=IFCAXIS2PLACEMENT3D(#450,#10,#7);
#452=IFCEXTRUDEDAREASOLID(#449,#451,#9,304.8);
#453=IFCSTYLEDITEM(#452,(#420),$);
#454=IFCSHAPEREPRESENTATION(#24,'Body','SweptSolid',(#452));
#455=IFCPRODUCTDEFINITIONSHAPE($,$,(#454));
#456=IFCSLAB('0dxtXCDSn2mfP92h$AiPMM',#18,'Floor:Generic - 12":1603544',$,'Floor:Generic - 12"',#446,#455,'1603544',.FLOOR.);
#457=IFCMATERIALLAYERSETUSAGE(#431,.AXIS3.,.POSITIVE.,0.,$);
#458=IFCPROPERTYSET('1wLMRM1$4YVZsNBnBFFMd0',#18,'Pset_EnvironmentalImpactIndicators',$,(#433));
#459=IFCPROPERTYSINGLEVALUE('Reference',$,IFCLABEL('Generic - 12"'),$);
#460=IFCPROPERTYSET('0MAwAjFK5YfUgoTwoUwFYB',#18,'Pset_ReinforcementBarPitchOfSlab',$,(#459));
#461=IFCPROPERTYSET('2cTekeecQBqnrL694FiKsF',#18,'Pset_SlabCommon',$,(#45,#194,#433,#437));
#462=IFCRELDEFINESBYPROPERTIES('0DnK1k68zYJCBnBui8ZMIM',#18,$,$,(#456),#458);
#463=IFCRELDEFINESBYPROPERTIES('3UHBtfnBoDufUAm5_Sdzc6',#18,$,$,(#456),#460);
#464=IFCRELDEFINESBYPROPERTIES('3QyWHLykxi$VkbAGG93T0c',#18,$,$,(#456),#461);
#465=IFCPROPERTYSINGLEVALUE('Reference',$,IFCIDENTIFIER('8mm Head'),$);
#466=IFCPROPERTYSINGLEVALUE('AboveGround',$,IFCLOGICAL(.U.),$);
#467=IFCPROPERTYSET('16L50AfyZF4hYq5TGET4H4',#18,'Pset_BuildingStoreyCommon',$,(#465,#466));
#468=IFCPROPERTYSET('2J7ac_h5ujdwWuzVwBIIta',#18,'Pset_SpaceCommon',$,(#45,#465));
#469=IFCRELDEFINESBYPROPERTIES('2VdfSfkgzGoZi_3SgzE8$0',#18,$,$,(#35),#467);
#470=IFCRELDEFINESBYPROPERTIES('3$YdOpA8iaPobC8MDiWxoI',#18,$,$,(#35),#468);
#471=IFCRELCONTAINEDINSPATIALSTRUCTURE('2JF4e6axWHqu3u0C5FZlmi',#18,$,$,(#181,#230,#263,#299,#334,#369,#402,#424),#35);
#472=IFCPROPERTYSET('1n34enW33Z_3Qq2Pm1kjQZ',#18,'Pset_BuildingStoreyCommon',$,(#465,#466));
#473=IFCPROPERTYSET('0qNc4$IaPwTvoqOd7IlIE4',#18,'Pset_SpaceCommon',$,(#45,#465));
#474=IFCRELDEFINESBYPROPERTIES('36oM8gyLQ5_Z6XoGK5uP1E',#18,$,$,(#39),#472);
#475=IFCRELDEFINESBYPROPERTIES('0jA6Vdz$3CfPvu_I1iTL6J',#18,$,$,(#39),#473);
#476=IFCRELCONTAINEDINSPATIALSTRUCTURE('1ZGO8hrFCHqw0v0066FpFv',#18,$,$,(#456),#39);
#477=IFCRELAGGREGATES('2KFB6YYWgXBmucZ8cm7uCP',#18,$,$,#27,(#42));
#478=IFCRELAGGREGATES('16_hfJTeCqU7LcG8m10BTS',#18,$,$,#42,(#32));
#479=IFCRELAGGREGATES('2JF4e6axWHqu3u0C9FZlmi',#18,$,$,#35,(#106,#127,#144));
#480=IFCRELAGGREGATES('1yhDISh1T5aQqAoygxGIhP',#18,$,$,#32,(#35,#39));
#481=IFCPROPERTYSINGLEVALUE('NumberOfStoreys',$,IFCCOUNTMEASURE(2),$);
#482=IFCPROPERTYSINGLEVALUE('IsLandmarked',$,IFCLOGICAL(.U.),$);
#483=IFCPROPERTYSET('01y_GmllCupEYuBgfGbhkd',#18,'Pset_BuildingCommon',$,(#43,#481,#482));
#484=IFCPROPERTYSET('1rUR7OGyIAkZT62xvibLnd',#18,'Pset_BuildingElementProxyCommon',$,(#43,#45));
#485=IFCPROPERTYSET('2kFDjjfIaTsBi7MLK$i$Me',#18,'Pset_BuildingStoreyCommon',$,(#43,#466));
#486=IFCPROPERTYSET('1TYvb3FgH88mtl04iE5P1T',#18,'Pset_BuildingSystemCommon',$,(#43));
#487=IFCPROPERTYSET('2W94HCj5xfigmNGtkBMklk',#18,'Pset_SpaceCommon',$,(#43,#45));
#488=IFCRELDEFINESBYPROPERTIES('0vDjba2fshDEh0_KufwWht',#18,$,$,(#32),#483);
#489=IFCRELDEFINESBYPROPERTIES('1V6UQfELB4oPy3GPEaJMPw',#18,$,$,(#32),#484);
#490=IFCRELDEFINESBYPROPERTIES('0Vpd75HttOMIhzXutBGgCt',#18,$,$,(#32),#485);
#491=IFCRELDEFINESBYPROPERTIES('22VMRBFW9n6_S81yWIP225',#18,$,$,(#32),#486);
#492=IFCRELDEFINESBYPROPERTIES('2w3bzVlKnfBVjA3_BjG2II',#18,$,$,(#32),#487);
#493=IFCRELASSOCIATESMATERIAL('09vdmREdTxn9CHkKQLCmva',#18,$,$,(#424),#432);
#494=IFCRELASSOCIATESMATERIAL('3F3FWvFIiue83dGwwuAFoT',#18,$,$,(#456),#457);
#495=IFCRELASSOCIATESMATERIAL('22T9r9KB1F3JFgePfxkUGp',#18,$,$,(#181,#188,#230,#263,#299,#334,#369,#402),#187);
#496=IFCRELASSOCIATESMATERIAL('0RkFpO4y91A56i7kETvvWZ',#18,$,$,(#425),#431);
#497=IFCRELDEFINESBYTYPE('1n7Z8mdHOnANZygC0WDgJu',#18,$,$,(#106),#107);
#498=IFCRELDEFINESBYTYPE('0RB6xWbO4J1pY61wEjgYQe',#18,$,$,(#127),#128);
#499=IFCRELDEFINESBYTYPE('3ujABtKeT4Z6qIrSc7gAkX',#18,$,$,(#144),#145);
#500=IFCRELDEFINESBYTYPE('0MSq_ijuC5q4PUKv4QkOsA',#18,$,$,(#181,#230,#263,#299,#334,#369,#402),#188);
#501=IFCRELDEFINESBYTYPE('3AVJtbOHyTnujdziMMd$qq',#18,$,$,(#424,#456),#425);
#502=IFCRELCONNECTSPATHELEMENTS('3ugK07sTRHPQgCANXzjPel',#18,'3Vyqk8cSj8TOuAk6zHUwAt|3Vyqk8cSj8TOuAk6zHUwNQ','Structural',$,#181,#369,(),(),.ATEND.,.ATSTART.);
#503=IFCRELCONNECTSPATHELEMENTS('23XeiboBqsTJYQlvX$RKBJ',#18,'3Vyqk8cSj8TOuAk6zHUwAt|3Vyqk8cSj8TOuAk6zHUwAc','Structural',$,#181,#230,(),(),.ATSTART.,.ATEND.);
#504=IFCRELCONNECTSPATHELEMENTS('3w2mhh8$Qd3TKIO$dCpCi4',#18,'3Vyqk8cSj8TOuAk6zHUwAc|3Vyqk8cSj8TOuAk6zHUwBs','Structural',$,#230,#263,(),(),.ATSTART.,.ATPATH.);
#505=IFCRELCONNECTSPATHELEMENTS('0_q_49R4Mso9ITEEZ476Ni',#18,'3Vyqk8cSj8TOuAk6zHUwBs|3Vyqk8cSj8TOuAk6zHUw89','Structural',$,#263,#299,(),(),.ATPATH.,.ATEND.);
#506=IFCRELCONNECTSPATHELEMENTS('2KmZM0_8Zn2586TzeqsUBp',#18,'3Vyqk8cSj8TOuAk6zHUw89|3Vyqk8cSj8TOuAk6zHUwMJ','Structural',$,#299,#334,(),(),.ATPATH.,.ATSTART.);
#507=IFCRELCONNECTSPATHELEMENTS('3A1VXDddu2dMWLGDKRGLxr',#18,'3Vyqk8cSj8TOuAk6zHUw89|3Vyqk8cSj8TOuAk6zHUwIV','Structural',$,#299,#402,(),(),.ATSTART.,.ATEND.);
#508=IFCRELCONNECTSPATHELEMENTS('0LaT41zAAAo8nacED5QZkK',#18,'3Vyqk8cSj8TOuAk6zHUwMJ|3Vyqk8cSj8TOuAk6zHUwNQ','Structural',$,#334,#369,(),(),.ATSTART.,.ATEND.);
#509=IFCRELCONNECTSPATHELEMENTS('3QFR4dIqUEv2wepHC$0Iqu',#18,'3Vyqk8cSj8TOuAk6zHUwNQ|3Vyqk8cSj8TOuAk6zHUwIV','Structural',$,#369,#402,(),(),.ATEND.,.ATPATH.);
#510=IFCPRESENTATIONLAYERASSIGNMENT('A-AREA-____-OTLN',$,(#103,#125,#142),$);
#511=IFCPRESENTATIONLAYERASSIGNMENT('A-WALL-____-OTLN',$,(#156,#179,#208,#228,#243,#261,#276,#297,#312,#332,#347,#367,#382,#400),$);
#512=IFCPRESENTATIONLAYERASSIGNMENT('A-FLOR-____-OTLN',$,(#422,#454),$);
#513=IFCRELASSOCIATESCLASSIFICATION('2mNchzfGWDr_AK3qpy_v$I',#18,'Exterior Walls','Exterior Walls:B2010',(#181,#230,#263,#299,#334,#369,#402),#200);
#514=IFCRELASSOCIATESCLASSIFICATION('1sPZ7RnmtJXsu_N19h72IC',#18,'Floor Construction','Floor Construction:B1010',(#424,#456),#442);
#515=IFCUNITASSIGNMENT((#19,#105,#124));
ENDSEC;
END-ISO-10303-21;
