ISO-10303-21;
HEADER;
FILE_DESCRIPTION(('ViewDefinition [CoordinationView]','RevitIdentifiers [ContentGUID: cbb0ae2e-6350-4225-8ca4-af668662c38d, VersionGUID: 3d84bf02-88d5-41ee-94e6-1415f6ab3b57, NumberOfSaves: 28]','CoordinateReference [CoordinateBase: Shared Coordinates]'),'2;1');
FILE_NAME('02_00_001.ifc','2026-01-19T15:31:41+01:00',(''),(''),'ODA SDAI 24.6','Autodesk Revit 24.3.30.11 (ENU) - IFC 24.3.30.11','');
FILE_SCHEMA(('IFC4X3'));
ENDSEC;
DATA;
#1=IFCORGANIZATION($,'Autodesk Revit 2024 (ENU)',$,$,$);
#2=IFCAPPLICATION(#1,'2024','Autodesk Revit 2024 (ENU)','Revit');
#3=IFCCARTESIANPOINT((0.,0.,0.));
#4=IFCCARTESIANPOINT((0.,0.));
#5=IFCDIRECTION((1.,0.,0.));
#6=IFCDIRECTION((-1.,0.,0.));
#7=IFCDIRECTION((0.,1.,0.));
#8=IFCDIRECTION((0.,-1.,0.));
#9=IFCDIRECTION((0.,0.,1.));
#10=IFCDIRECTION((0.,0.,-1.));
#11=IFCDIRECTION((1.,0.));
#12=IFCDIRECTION((-1.,0.));
#13=IFCDIRECTION((0.,1.));
#14=IFCDIRECTION((0.,-1.));
#15=IFCPERSON($,'','h.helming',$,$,$,$,$);
#16=IFCORGANIZATION($,'Organization Name','Organization Description',$,$);
#17=IFCPERSONANDORGANIZATION(#15,#16,$);
#18=IFCOWNERHISTORY(#17,#2,$,.NOCHANGE.,$,$,$,1767882526);
#19=IFCSIUNIT(*,.LENGTHUNIT.,.MILLI.,.METRE.);
#20=IFCAXIS2PLACEMENT3D(#3,$,$);
#21=IFCDIRECTION((6.12303176911189E-17,1.));
#22=IFCGEOMETRICREPRESENTATIONCONTEXT($,'Model',3,0.01,#20,#21);
#23=IFCGEOMETRICREPRESENTATIONSUBCONTEXT('Axis','Model',*,*,*,*,#22,$,.GRAPH_VIEW.,$);
#24=IFCGEOMETRICREPRESENTATIONSUBCONTEXT('Body','Model',*,*,*,*,#22,$,.MODEL_VIEW.,$);
#25=IFCGEOMETRICREPRESENTATIONSUBCONTEXT('Box','Model',*,*,*,*,#22,$,.MODEL_VIEW.,$);
#26=IFCGEOMETRICREPRESENTATIONSUBCONTEXT('FootPrint','Model',*,*,*,*,#22,$,.MODEL_VIEW.,$);
#27=IFCPROJECT('3BiAukOr129OoahsPvdJnz',#18,'Project Number',$,$,'Project Name','Project Status',(#22),#861);
#28=IFCCLASSIFICATION('CSI (Construction Specifications Institute)','1998',$,'Uniformat','UniFormat Classification','https://www.csiresources.org/standards/uniformat',$);
#29=IFCAXIS2PLACEMENT3D(#3,$,$);
#30=IFCLOCALPLACEMENT(#41,#29);
#31=IFCPOSTALADDRESS($,$,$,$,('Enter address hereAddress Line 2'),$,'','Boston','','MA');
#32=IFCBUILDING('3BiAukOr129OoahsPvdJny',#18,'Building Name',$,$,#30,$,'Building Name',.ELEMENT.,$,$,#31);
#33=IFCAXIS2PLACEMENT3D(#3,$,$);
#34=IFCLOCALPLACEMENT(#30,#33);
#35=IFCBUILDINGSTOREY('2JF4e6axWHqu3u0C1FZlmi',#18,'L1',$,'Level:8mm Head',#34,$,'L1',.ELEMENT.,0.);
#36=IFCCARTESIANPOINT((0.,0.,3000.));
#37=IFCAXIS2PLACEMENT3D(#36,$,$);
#38=IFCLOCALPLACEMENT(#30,#37);
#39=IFCBUILDINGSTOREY('1ZGO8hrFCHqw0v0026FpFv',#18,'L2',$,'Level:8mm Head',#38,$,'L2',.ELEMENT.,3000.);
#40=IFCAXIS2PLACEMENT3D(#3,$,$);
#41=IFCLOCALPLACEMENT($,#40);
#42=IFCSITE('3BiAukOr129OoahsPvdJn$',#18,'Default',$,$,#41,$,$,.ELEMENT.,(42,21,31,401672),(-71,-3,-24,-345703),0.,$,$);
#43=IFCPROPERTYSINGLEVALUE('Reference',$,IFCIDENTIFIER('Project Information'),$);
#44=IFCPROPERTYSET('2mFJcO6I01h0OYRLOICO3c',#18,'Pset_SiteCommon',$,(#43));
#45=IFCPROPERTYSINGLEVALUE('IsExternal',$,IFCBOOLEAN(.F.),$);
#46=IFCPROPERTYSET('0O$B2PbAODr9jYnpcaZGJT',#18,'Pset_SpaceCommon',$,(#43,#45));
#47=IFCRELDEFINESBYPROPERTIES('2fDrcjst0HFayqQ3dY1cGQ',#18,$,$,(#42),#44);
#48=IFCRELDEFINESBYPROPERTIES('1lYkP70lXSGXnZeJnLC8MY',#18,$,$,(#42),#46);
#63=IFCAXIS2PLACEMENT3D(#3,$,$);
#64=IFCLOCALPLACEMENT(#34,#63);
#65=IFCCARTESIANPOINT((-5433.68123649534,-4481.81818181818));
#66=IFCAXIS2PLACEMENT2D(#65,#11);
#67=IFCCIRCLE(#66,699.999999999999);
#68=IFCTRIMMEDCURVE(#67,(IFCPARAMETERVALUE(180.)),(IFCPARAMETERVALUE(269.999999999999)),.T.,.PARAMETER.);
#69=IFCCOMPOSITECURVESEGMENT(.CONTINUOUS.,.T.,#68);
#70=IFCCARTESIANPOINT((-5433.68123649536,-5181.81818181818));
#71=IFCCARTESIANPOINT((4847.81784942586,-5181.81818181821));
#72=IFCPOLYLINE((#70,#71));
#73=IFCCOMPOSITECURVESEGMENT(.CONTINUOUS.,.T.,#72);
#74=IFCCARTESIANPOINT((4847.81784942586,-4481.81818181818));
#75=IFCAXIS2PLACEMENT2D(#74,#12);
#76=IFCCIRCLE(#75,699.999999999999);
#77=IFCTRIMMEDCURVE(#76,(IFCPARAMETERVALUE(90.0000000000007)),(IFCPARAMETERVALUE(180.)),.T.,.PARAMETER.);
#78=IFCCOMPOSITECURVESEGMENT(.CONTINUOUS.,.T.,#77);
#79=IFCCARTESIANPOINT((5547.81784942586,-4481.81818181818));
#80=IFCCARTESIANPOINT((5547.81784942584,4118.18181818182));
#81=IFCPOLYLINE((#79,#80));
#82=IFCCOMPOSITECURVESEGMENT(.CONTINUOUS.,.T.,#81);
#83=IFCCARTESIANPOINT((4847.81784942597,4118.18181818182));
#84=IFCAXIS2PLACEMENT2D(#83,#12);
#85=IFCCIRCLE(#84,699.999999999999);
#86=IFCTRIMMEDCURVE(#85,(IFCPARAMETERVALUE(180.)),(IFCPARAMETERVALUE(269.999999999999)),.T.,.PARAMETER.);
#87=IFCCOMPOSITECURVESEGMENT(.CONTINUOUS.,.T.,#86);
#88=IFCCARTESIANPOINT((4847.81784942599,4818.18181818182));
#89=IFCCARTESIANPOINT((1247.817849426,4818.18181818183));
#90=IFCPOLYLINE((#88,#89));
#91=IFCCOMPOSITECURVESEGMENT(.CONTINUOUS.,.T.,#90);
#92=IFCCARTESIANPOINT((1247.817849426,4118.18181818182));
#93=IFCAXIS2PLACEMENT2D(#92,#11);
#94=IFCCIRCLE(#93,699.999999999999);
#95=IFCTRIMMEDCURVE(#94,(IFCPARAMETERVALUE(90.0000000000006)),(IFCPARAMETERVALUE(180.)),.T.,.PARAMETER.);
#96=IFCCOMPOSITECURVESEGMENT(.CONTINUOUS.,.T.,#95);
#97=IFCCARTESIANPOINT((547.817849425855,4118.18181818182));
#98=IFCCARTESIANPOINT((547.817849425851,718.181818181791));
#99=IFCPOLYLINE((#97,#98));
#100=IFCCOMPOSITECURVESEGMENT(.CONTINUOUS.,.T.,#99);
#101=IFCCARTESIANPOINT((547.817849425851,718.181818181791));
#102=IFCCARTESIANPOINT((-5433.68123649535,718.18181818181));
#103=IFCPOLYLINE((#101,#102));
#104=IFCCOMPOSITECURVESEGMENT(.CONTINUOUS.,.T.,#103);
#105=IFCCARTESIANPOINT((-5433.68123649533,18.1818181818107));
#106=IFCAXIS2PLACEMENT2D(#105,#11);
#107=IFCCIRCLE(#106,699.999999999999);
#108=IFCTRIMMEDCURVE(#107,(IFCPARAMETERVALUE(90.0000000000007)),(IFCPARAMETERVALUE(180.)),.T.,.PARAMETER.);
#109=IFCCOMPOSITECURVESEGMENT(.CONTINUOUS.,.T.,#108);
#110=IFCCARTESIANPOINT((-6133.68123649534,18.1818181818189));
#111=IFCCARTESIANPOINT((-6133.68123649534,-4481.81818181818));
#112=IFCPOLYLINE((#110,#111));
#113=IFCCOMPOSITECURVESEGMENT(.CONTINUOUS.,.T.,#112);
#114=IFCCOMPOSITECURVE((#69,#73,#78,#82,#87,#91,#96,#100,#104,#109,#113),.F.);
#115=IFCARBITRARYCLOSEDPROFILEDEF(.AREA.,$,#114);
#116=IFCCARTESIANPOINT((6333.68123649534,5281.81818181818,0.));
#117=IFCAXIS2PLACEMENT3D(#116,$,$);
#118=IFCEXTRUDEDAREASOLID(#115,#117,#9,3048.);
#119=IFCSIUNIT(*,.PLANEANGLEUNIT.,$,.RADIAN.);
#120=IFCDIMENSIONALEXPONENTS(0,0,0,0,0,0,0);
#121=IFCMEASUREWITHUNIT(IFCPLANEANGLEMEASURE(0.0174532925199433),#119);
#122=IFCCONVERSIONBASEDUNIT(#120,.PLANEANGLEUNIT.,'DEGREE',#121);
#123=IFCSIUNIT(*,.AREAUNIT.,$,.SQUARE_METRE.);
#124=IFCSHAPEREPRESENTATION(#24,'Body','SweptSolid',(#118));
#125=IFCPRODUCTDEFINITIONSHAPE($,$,(#124));
#126=IFCSPACE('0zXBy2YDL1xfJc51NsiwRE',#18,'136',$,$,#64,#125,'pilotroom',.ELEMENT.,.NOTDEFINED.,$);
#127=IFCSPACETYPE('0zXBy2YDL1xfJc71NsiwRE',#18,'pilotroom 136:1613209',$,$,$,$,'1613209',$,.NOTDEFINED.,$);
#128=IFCPROPERTYSINGLEVALUE('Reference',$,IFCIDENTIFIER('pilotroom 136'),$);
#129=IFCPROPERTYSET('0p1l921CuINS6HCjQ4a096',#18,'Pset_SpaceCommon',$,(#45,#128));
#130=IFCPROPERTYSET('2ARg$Ei0X_ggYWx6H_V7Wp',#18,'Pset_SpaceHeaterTypeCommon',$,(#128));
#131=IFCRELDEFINESBYPROPERTIES('3NE2YmTCfvIEXftHMtnppo',#18,$,$,(#126),#129);
#132=IFCRELDEFINESBYPROPERTIES('0ck7wqCDepF9mw7JXR8tKr',#18,$,$,(#126),#130);
#133=IFCAXIS2PLACEMENT3D(#3,$,$);
#134=IFCLOCALPLACEMENT(#34,#133);
#135=IFCCARTESIANPOINT((-5385.5210583294,-5190.71986108936));
#136=IFCCARTESIANPOINT((4883.65530251029,-5190.71986108936));
#137=IFCCARTESIANPOINT((5500.8125900357,-4573.56257356396));
#138=IFCCARTESIANPOINT((5500.81259003566,4226.43742643606));
#139=IFCCARTESIANPOINT((4917.96987756108,4809.28013891064));
#140=IFCCARTESIANPOINT((1054.3659806289,4809.28013891064));
#141=IFCCARTESIANPOINT((500.812590035653,4255.72674831739));
#142=IFCCARTESIANPOINT((500.81259003566,709.280138910634));
#143=IFCCARTESIANPOINT((-5302.67834585478,709.280138910633));
#144=IFCCARTESIANPOINT((-6085.52105832939,-73.5625735639764));
#145=IFCCARTESIANPOINT((-6085.52105832938,-4490.71986108937));
#146=IFCPOLYLINE((#135,#136,#137,#138,#139,#140,#141,#142,#143,#144,#145,#135));
#147=IFCARBITRARYCLOSEDPROFILEDEF(.AREA.,$,#146);
#148=IFCCARTESIANPOINT((6244.09970209212,21507.8771486148,0.));
#149=IFCAXIS2PLACEMENT3D(#148,$,$);
#150=IFCEXTRUDEDAREASOLID(#147,#149,#9,3048.);
#151=IFCSHAPEREPRESENTATION(#24,'Body','SweptSolid',(#150));
#152=IFCPRODUCTDEFINITIONSHAPE($,$,(#151));
#153=IFCSPACE('0zXBy2YDL1xfJc51NsiwRB',#18,'137',$,$,#134,#152,'pilotroom',.ELEMENT.,.NOTDEFINED.,$);
#154=IFCSPACETYPE('0zXBy2YDL1xfJc71NsiwRB',#18,'pilotroom 137:1613212',$,$,$,$,'1613212',$,.NOTDEFINED.,$);
#155=IFCPROPERTYSINGLEVALUE('Reference',$,IFCIDENTIFIER('pilotroom 137'),$);
#156=IFCPROPERTYSET('2HEO1$qIQvP_wC_vaf9qmF',#18,'Pset_SpaceCommon',$,(#45,#155));
#157=IFCPROPERTYSET('1RTgR0RKRDE3B0HWEW0tLR',#18,'Pset_SpaceHeaterTypeCommon',$,(#155));
#158=IFCRELDEFINESBYPROPERTIES('3ISxo5ZsMCaPaTKJ7wFmNo',#18,$,$,(#153),#156);
#159=IFCRELDEFINESBYPROPERTIES('24yYcPkVRbDiAG7RAKmf5C',#18,$,$,(#153),#157);
#160=IFCCARTESIANPOINT((100.,800.,0.));
#161=IFCAXIS2PLACEMENT3D(#160,$,$);
#162=IFCLOCALPLACEMENT(#34,#161);
#163=IFCCARTESIANPOINT((800.,-0.));
#164=IFCAXIS2PLACEMENT2D(#163,#11);
#165=IFCCIRCLE(#164,799.999999999999);
#166=IFCTRIMMEDCURVE(#165,(IFCPARAMETERVALUE(180.)),(IFCPARAMETERVALUE(269.999999999999)),.T.,.PARAMETER.);
#167=IFCSHAPEREPRESENTATION(#23,'Axis','Curve2D',(#166));
#168=IFCCARTESIANPOINT((800.,-0.));
#169=IFCAXIS2PLACEMENT2D(#168,#11);
#170=IFCCIRCLE(#169,699.999999999999);
#171=IFCTRIMMEDCURVE(#170,(IFCPARAMETERVALUE(180.)),(IFCPARAMETERVALUE(269.999999999999)),.T.,.PARAMETER.);
#172=IFCCOMPOSITECURVESEGMENT(.CONTINUOUS.,.F.,#171);
#173=IFCCARTESIANPOINT((100.,-0.));
#174=IFCCARTESIANPOINT((-100.,0.));
#175=IFCPOLYLINE((#173,#174));
#176=IFCCOMPOSITECURVESEGMENT(.CONTINUOUS.,.T.,#175);
#177=IFCCARTESIANPOINT((800.,-0.));
#178=IFCAXIS2PLACEMENT2D(#177,#11);
#179=IFCCIRCLE(#178,899.999999999999);
#180=IFCTRIMMEDCURVE(#179,(IFCPARAMETERVALUE(180.)),(IFCPARAMETERVALUE(269.999999999999)),.T.,.PARAMETER.);
#181=IFCCOMPOSITECURVESEGMENT(.CONTINUOUS.,.T.,#180);
#182=IFCCARTESIANPOINT((800.,-900.));
#183=IFCCARTESIANPOINT((800.,-700.));
#184=IFCPOLYLINE((#182,#183));
#185=IFCCOMPOSITECURVESEGMENT(.CONTINUOUS.,.T.,#184);
#186=IFCCOMPOSITECURVE((#172,#176,#181,#185),.F.);
#187=IFCARBITRARYCLOSEDPROFILEDEF(.AREA.,$,#186);
#188=IFCAXIS2PLACEMENT3D(#3,$,$);
#189=IFCEXTRUDEDAREASOLID(#187,#188,#9,3000.);
#190=IFCCOLOURRGB($,0.752941176470588,0.752941176470588,0.752941176470588);
#191=IFCSURFACESTYLERENDERING(#190,0.,$,$,$,$,IFCNORMALISEDRATIOMEASURE(0.5),IFCSPECULAREXPONENT(10.),.NOTDEFINED.);
#192=IFCSURFACESTYLE('Default Wall',.BOTH.,(#191));
#193=IFCSTYLEDITEM(#189,(#192),$);
#194=IFCSHAPEREPRESENTATION(#24,'Body','SweptSolid',(#189));
#195=IFCPRODUCTDEFINITIONSHAPE($,$,(#167,#194));
#196=IFCWALL('3foFioUfvCX8jSSVUkfSB3',#18,'Basic Wall:Generic - 200mm:1612045',$,'Basic Wall:Generic - 200mm',#162,#195,'1612045',.NOTDEFINED.);
#197=IFCMATERIAL('Default Wall',$,'Miscellaneous');
#198=IFCSTYLEDITEM($,(#192),$);
#199=IFCSTYLEDREPRESENTATION(#22,'Style','Material',(#198));
#200=IFCMATERIALDEFINITIONREPRESENTATION($,$,(#199),#197);
#201=IFCMATERIALLAYER(#197,200.,$,'Layer',$,'Miscellaneous',$);
#202=IFCMATERIALLAYERSET((#201),'Basic Wall:Generic - 200mm',$);
#203=IFCWALLTYPE('1xZrMVYp52mhf4uMzw11Hk',#18,'Basic Wall:Generic - 200mm',$,$,(#217),$,'441451',$,.STANDARD.);
#204=IFCPROPERTYSINGLEVALUE('Reference',$,IFCIDENTIFIER('Generic - 200mm'),$);
#205=IFCPROPERTYSET('2hA_GOteyZnhCtuftdti1Z',#18,'Pset_EnvironmentalImpactIndicators',$,(#204));
#206=IFCPROPERTYSINGLEVALUE('Reference',$,IFCLABEL('Generic - 200mm'),$);
#207=IFCPROPERTYSET('3h9we42KBrA7j4vm_VQa3r',#18,'Pset_ReinforcementBarPitchOfWall',$,(#206));
#208=IFCPROPERTYSINGLEVALUE('IsExternal',$,IFCBOOLEAN(.T.),$);
#209=IFCPROPERTYSINGLEVALUE('LoadBearing',$,IFCBOOLEAN(.F.),$);
#210=IFCPROPERTYSINGLEVALUE('ExtendToStructure',$,IFCBOOLEAN(.F.),$);
#211=IFCPROPERTYSET('3$3HrrIg8oP1c3RDTtbv0S',#18,'Pset_WallCommon',$,(#204,#208,#209,#210));
#212=IFCRELDEFINESBYPROPERTIES('1__X_rk3eXcEtZeQPbNKaV',#18,$,$,(#196),#205);
#213=IFCRELDEFINESBYPROPERTIES('0Z_$98BtUuSuGkIs7hMHxf',#18,$,$,(#196),#207);
#214=IFCRELDEFINESBYPROPERTIES('0Q$ZzpD3aPRXZDgr4VrSb7',#18,$,$,(#196),#211);
#215=IFCCLASSIFICATIONREFERENCE('https://www.csiresources.org/standards/uniformat','B2010','Exterior Walls',#28,'',$);
#216=IFCPROPERTYSINGLEVALUE('Description',$,IFCTEXT('Generic Wall (Material By Category), 200mm thick'),$);
#217=IFCPROPERTYSET('2L7lvTstnIeeydfwzfZZLR',#18,'Pset_ReinforcementBarPitchOfWall',$,(#216));
#218=IFCCARTESIANPOINT((11181.4990859212,0.,0.));
#219=IFCAXIS2PLACEMENT3D(#218,#9,#6);
#220=IFCLOCALPLACEMENT(#34,#219);
#221=IFCCARTESIANPOINT((10281.4990859212,-0.));
#222=IFCPOLYLINE((#4,#221));
#223=IFCSHAPEREPRESENTATION(#23,'Axis','Curve2D',(#222));
#224=IFCCARTESIANPOINT((5140.74954296061,0.));
#225=IFCAXIS2PLACEMENT2D(#224,#12);
#226=IFCRECTANGLEPROFILEDEF(.AREA.,$,#225,10281.4990859212,200.);
#227=IFCAXIS2PLACEMENT3D(#3,$,$);
#228=IFCEXTRUDEDAREASOLID(#226,#227,#9,3000.);
#229=IFCSTYLEDITEM(#228,(#192),$);
#230=IFCSHAPEREPRESENTATION(#24,'Body','SweptSolid',(#228));
#231=IFCPRODUCTDEFINITIONSHAPE($,$,(#223,#230));
#232=IFCWALL('3foFioUfvCX8jSSVUkfS7P',#18,'Basic Wall:Generic - 200mm:1612311',$,'Basic Wall:Generic - 200mm',#220,#231,'1612311',.NOTDEFINED.);
#233=IFCPROPERTYSET('2NYXzKxQMlrh5sX$hIw8ca',#18,'Pset_EnvironmentalImpactIndicators',$,(#204));
#234=IFCPROPERTYSINGLEVALUE('Reference',$,IFCLABEL('Generic - 200mm'),$);
#235=IFCPROPERTYSET('1Bdv6HDWTJsMfEupM4G1u6',#18,'Pset_ReinforcementBarPitchOfWall',$,(#234));
#236=IFCPROPERTYSET('2Qcxm4IX15dW1w8vP728qT',#18,'Pset_WallCommon',$,(#204,#208,#209,#210));
#237=IFCRELDEFINESBYPROPERTIES('2siD3ybMXNKqGSO78Em2_6',#18,$,$,(#232),#233);
#238=IFCRELDEFINESBYPROPERTIES('3$gSFmHi_HcZnjZl92iiFO',#18,$,$,(#232),#235);
#239=IFCRELDEFINESBYPROPERTIES('13PCgpM06keE9hnmL8ZjpB',#18,$,$,(#232),#236);
#240=IFCCARTESIANPOINT((100.,800.,0.));
#241=IFCAXIS2PLACEMENT3D(#240,#9,#7);
#242=IFCLOCALPLACEMENT(#34,#241);
#243=IFCCARTESIANPOINT((4500.,0.));
#244=IFCPOLYLINE((#4,#243));
#245=IFCSHAPEREPRESENTATION(#23,'Axis','Curve2D',(#244));
#246=IFCCARTESIANPOINT((2250.,0.));
#247=IFCAXIS2PLACEMENT2D(#246,#12);
#248=IFCRECTANGLEPROFILEDEF(.AREA.,$,#247,4500.,200.);
#249=IFCAXIS2PLACEMENT3D(#3,$,$);
#250=IFCEXTRUDEDAREASOLID(#248,#249,#9,3000.);
#251=IFCSTYLEDITEM(#250,(#192),$);
#252=IFCSHAPEREPRESENTATION(#24,'Body','SweptSolid',(#250));
#253=IFCPRODUCTDEFINITIONSHAPE($,$,(#245,#252));
#254=IFCWALL('0zXBy2YDL1xfJc51Nsiw0s',#18,'Basic Wall:Generic - 200mm:1612641',$,'Basic Wall:Generic - 200mm',#242,#253,'1612641',.NOTDEFINED.);
#255=IFCPROPERTYSET('1oC6PY4N$eXDC1bbgTi4Kx',#18,'Pset_EnvironmentalImpactIndicators',$,(#204));
#256=IFCPROPERTYSINGLEVALUE('Reference',$,IFCLABEL('Generic - 200mm'),$);
#257=IFCPROPERTYSET('2vM7SkOI_FC4DHGR_YtByH',#18,'Pset_ReinforcementBarPitchOfWall',$,(#256));
#258=IFCPROPERTYSET('0YHibRlsXM8Si5FEXUZAnt',#18,'Pset_WallCommon',$,(#204,#208,#209,#210));
#259=IFCRELDEFINESBYPROPERTIES('1A3Ti46kU5NYZhnLN_B5hp',#18,$,$,(#254),#255);
#260=IFCRELDEFINESBYPROPERTIES('0Ajmqt$lUod9MTurjxMYdn',#18,$,$,(#254),#257);
#261=IFCRELDEFINESBYPROPERTIES('3UyN3iG5OS93ST01Z5l6VD',#18,$,$,(#254),#258);
#262=IFCCARTESIANPOINT((100.,5300.,0.));
#263=IFCAXIS2PLACEMENT3D(#262,$,$);
#264=IFCLOCALPLACEMENT(#34,#263);
#265=IFCCARTESIANPOINT((800.,0.));
#266=IFCAXIS2PLACEMENT2D(#265,#11);
#267=IFCCIRCLE(#266,799.999999999999);
#268=IFCTRIMMEDCURVE(#267,(IFCPARAMETERVALUE(90.0000000000007)),(IFCPARAMETERVALUE(180.)),.T.,.PARAMETER.);
#269=IFCSHAPEREPRESENTATION(#23,'Axis','Curve2D',(#268));
#270=IFCCARTESIANPOINT((800.,0.));
#271=IFCAXIS2PLACEMENT2D(#270,#11);
#272=IFCCIRCLE(#271,899.999999999999);
#273=IFCTRIMMEDCURVE(#272,(IFCPARAMETERVALUE(90.0000000000007)),(IFCPARAMETERVALUE(180.)),.T.,.PARAMETER.);
#274=IFCCOMPOSITECURVESEGMENT(.CONTINUOUS.,.T.,#273);
#275=IFCCARTESIANPOINT((-100.,0.));
#276=IFCCARTESIANPOINT((100.,0.));
#277=IFCPOLYLINE((#275,#276));
#278=IFCCOMPOSITECURVESEGMENT(.CONTINUOUS.,.T.,#277);
#279=IFCCARTESIANPOINT((800.,0.));
#280=IFCAXIS2PLACEMENT2D(#279,#11);
#281=IFCCIRCLE(#280,699.999999999999);
#282=IFCTRIMMEDCURVE(#281,(IFCPARAMETERVALUE(90.0000000000007)),(IFCPARAMETERVALUE(180.)),.T.,.PARAMETER.);
#283=IFCCOMPOSITECURVESEGMENT(.CONTINUOUS.,.F.,#282);
#284=IFCCARTESIANPOINT((800.,700.));
#285=IFCCARTESIANPOINT((800.,900.));
#286=IFCPOLYLINE((#284,#285));
#287=IFCCOMPOSITECURVESEGMENT(.CONTINUOUS.,.T.,#286);
#288=IFCCOMPOSITECURVE((#274,#278,#283,#287),.F.);
#289=IFCARBITRARYCLOSEDPROFILEDEF(.AREA.,$,#288);
#290=IFCAXIS2PLACEMENT3D(#3,$,$);
#291=IFCEXTRUDEDAREASOLID(#289,#290,#9,3000.);
#292=IFCSTYLEDITEM(#291,(#192),$);
#293=IFCSHAPEREPRESENTATION(#24,'Body','SweptSolid',(#291));
#294=IFCPRODUCTDEFINITIONSHAPE($,$,(#269,#293));
#295=IFCWALL('0zXBy2YDL1xfJc51Nsiw2V',#18,'Basic Wall:Generic - 200mm:1612744',$,'Basic Wall:Generic - 200mm',#264,#294,'1612744',.NOTDEFINED.);
#296=IFCPROPERTYSET('3sFamFj8f4$eodKBvi16hd',#18,'Pset_EnvironmentalImpactIndicators',$,(#204));
#297=IFCPROPERTYSINGLEVALUE('Reference',$,IFCLABEL('Generic - 200mm'),$);
#298=IFCPROPERTYSET('30NhC9Y_SaIUR8w5SJDljB',#18,'Pset_ReinforcementBarPitchOfWall',$,(#297));
#299=IFCPROPERTYSET('3l$xbVFaH1cuzObXsFkqKu',#18,'Pset_WallCommon',$,(#204,#208,#209,#210));
#300=IFCRELDEFINESBYPROPERTIES('14A1LBGBWRC2R4oh4p$xWT',#18,$,$,(#295),#296);
#301=IFCRELDEFINESBYPROPERTIES('0MnmeS8hJwbfEEHbz$55_h',#18,$,$,(#295),#298);
#302=IFCRELDEFINESBYPROPERTIES('2c7q7P3KyY9muCLtxxB1tU',#18,$,$,(#295),#299);
#303=IFCCARTESIANPOINT((6681.49908592119,6100.,0.));
#304=IFCAXIS2PLACEMENT3D(#303,#9,#6);
#305=IFCLOCALPLACEMENT(#34,#304);
#306=IFCCARTESIANPOINT((5781.4990859212,0.));
#307=IFCPOLYLINE((#4,#306));
#308=IFCSHAPEREPRESENTATION(#23,'Axis','Curve2D',(#307));
#309=IFCCARTESIANPOINT((2890.7495429606,1.20792265079217E-13));
#310=IFCAXIS2PLACEMENT2D(#309,#12);
#311=IFCRECTANGLEPROFILEDEF(.AREA.,$,#310,5781.4990859212,200.);
#312=IFCAXIS2PLACEMENT3D(#3,$,$);
#313=IFCEXTRUDEDAREASOLID(#311,#312,#9,3000.);
#314=IFCSTYLEDITEM(#313,(#192),$);
#315=IFCSHAPEREPRESENTATION(#24,'Body','SweptSolid',(#313));
#316=IFCPRODUCTDEFINITIONSHAPE($,$,(#308,#315));
#317=IFCWALL('0zXBy2YDL1xfJc51Nsiw2U',#18,'Basic Wall:Generic - 200mm:1612745',$,'Basic Wall:Generic - 200mm',#305,#316,'1612745',.NOTDEFINED.);
#318=IFCPROPERTYSET('3R74FzTyQZrT2tKZzo0z75',#18,'Pset_EnvironmentalImpactIndicators',$,(#204));
#319=IFCPROPERTYSINGLEVALUE('Reference',$,IFCLABEL('Generic - 200mm'),$);
#320=IFCPROPERTYSET('1lnalWPaWsV7YkLKB1ndlO',#18,'Pset_ReinforcementBarPitchOfWall',$,(#319));
#321=IFCPROPERTYSET('28Jt2UMIz2SRLBsIQVmofX',#18,'Pset_WallCommon',$,(#204,#208,#209,#210));
#322=IFCRELDEFINESBYPROPERTIES('3RPxDZy0Dk0sBo6YVfy2Uz',#18,$,$,(#317),#318);
#323=IFCRELDEFINESBYPROPERTIES('27s79Qi4cib3cSPIip49vo',#18,$,$,(#317),#320);
#324=IFCRELDEFINESBYPROPERTIES('0JviDq_CapyVbM_C9ysNsE',#18,$,$,(#317),#321);
#325=IFCCARTESIANPOINT((11981.4990859212,800.,0.));
#326=IFCAXIS2PLACEMENT3D(#325,#9,#6);
#327=IFCLOCALPLACEMENT(#34,#326);
#328=IFCCARTESIANPOINT((800.,0.));
#329=IFCAXIS2PLACEMENT2D(#328,#11);
#330=IFCCIRCLE(#329,799.999999999999);
#331=IFCTRIMMEDCURVE(#330,(IFCPARAMETERVALUE(90.0000000000007)),(IFCPARAMETERVALUE(180.)),.T.,.PARAMETER.);
#332=IFCSHAPEREPRESENTATION(#23,'Axis','Curve2D',(#331));
#333=IFCCARTESIANPOINT((800.,0.));
#334=IFCAXIS2PLACEMENT2D(#333,#11);
#335=IFCCIRCLE(#334,899.999999999999);
#336=IFCTRIMMEDCURVE(#335,(IFCPARAMETERVALUE(90.0000000000007)),(IFCPARAMETERVALUE(180.)),.T.,.PARAMETER.);
#337=IFCCOMPOSITECURVESEGMENT(.CONTINUOUS.,.T.,#336);
#338=IFCCARTESIANPOINT((-100.,0.));
#339=IFCCARTESIANPOINT((100.,0.));
#340=IFCPOLYLINE((#338,#339));
#341=IFCCOMPOSITECURVESEGMENT(.CONTINUOUS.,.T.,#340);
#342=IFCCARTESIANPOINT((800.,0.));
#343=IFCAXIS2PLACEMENT2D(#342,#11);
#344=IFCCIRCLE(#343,699.999999999999);
#345=IFCTRIMMEDCURVE(#344,(IFCPARAMETERVALUE(90.0000000000007)),(IFCPARAMETERVALUE(180.)),.T.,.PARAMETER.);
#346=IFCCOMPOSITECURVESEGMENT(.CONTINUOUS.,.F.,#345);
#347=IFCCARTESIANPOINT((800.,700.));
#348=IFCCARTESIANPOINT((800.,900.));
#349=IFCPOLYLINE((#347,#348));
#350=IFCCOMPOSITECURVESEGMENT(.CONTINUOUS.,.T.,#349);
#351=IFCCOMPOSITECURVE((#337,#341,#346,#350),.F.);
#352=IFCARBITRARYCLOSEDPROFILEDEF(.AREA.,$,#351);
#353=IFCAXIS2PLACEMENT3D(#3,$,$);
#354=IFCEXTRUDEDAREASOLID(#352,#353,#9,3000.);
#355=IFCSTYLEDITEM(#354,(#192),$);
#356=IFCSHAPEREPRESENTATION(#24,'Body','SweptSolid',(#354));
#357=IFCPRODUCTDEFINITIONSHAPE($,$,(#332,#356));
#358=IFCWALL('0zXBy2YDL1xfJc51Nsiw2a',#18,'Basic Wall:Generic - 200mm:1612787',$,'Basic Wall:Generic - 200mm',#327,#357,'1612787',.NOTDEFINED.);
#359=IFCPROPERTYSET('1pOYFfgE7oizm$VJ2a_A5Y',#18,'Pset_EnvironmentalImpactIndicators',$,(#204));
#360=IFCPROPERTYSINGLEVALUE('Reference',$,IFCLABEL('Generic - 200mm'),$);
#361=IFCPROPERTYSET('3FrQD75RydObkxDpaui8sM',#18,'Pset_ReinforcementBarPitchOfWall',$,(#360));
#362=IFCPROPERTYSET('2efMpIdfM$LSfXbONCT$Kf',#18,'Pset_WallCommon',$,(#204,#208,#209,#210));
#363=IFCRELDEFINESBYPROPERTIES('1SUqnfLMOeBy3w3iXEWrAR',#18,$,$,(#358),#359);
#364=IFCRELDEFINESBYPROPERTIES('09KM6gXhwLBqgwBRVtnqmS',#18,$,$,(#358),#361);
#365=IFCRELDEFINESBYPROPERTIES('1Lon9XI0g0AdPtmWdOV36W',#18,$,$,(#358),#362);
#366=IFCCARTESIANPOINT((11981.4990859212,800.,0.));
#367=IFCAXIS2PLACEMENT3D(#366,#9,#7);
#368=IFCLOCALPLACEMENT(#34,#367);
#369=IFCCARTESIANPOINT((8600.,0.));
#370=IFCPOLYLINE((#4,#369));
#371=IFCSHAPEREPRESENTATION(#23,'Axis','Curve2D',(#370));
#372=IFCCARTESIANPOINT((4300.,2.8421709430404E-13));
#373=IFCAXIS2PLACEMENT2D(#372,#12);
#374=IFCRECTANGLEPROFILEDEF(.AREA.,$,#373,8600.,200.000000000002);
#375=IFCAXIS2PLACEMENT3D(#3,$,$);
#376=IFCEXTRUDEDAREASOLID(#374,#375,#9,3000.);
#377=IFCSTYLEDITEM(#376,(#192),$);
#378=IFCSHAPEREPRESENTATION(#24,'Body','SweptSolid',(#376));
#379=IFCPRODUCTDEFINITIONSHAPE($,$,(#371,#378));
#380=IFCWALL('0zXBy2YDL1xfJc51Nsiw2Z',#18,'Basic Wall:Generic - 200mm:1612788',$,'Basic Wall:Generic - 200mm',#368,#379,'1612788',.NOTDEFINED.);
#381=IFCPROPERTYSET('3OJaHShnmXAadE3iRlHP1j',#18,'Pset_EnvironmentalImpactIndicators',$,(#204));
#382=IFCPROPERTYSINGLEVALUE('Reference',$,IFCLABEL('Generic - 200mm'),$);
#383=IFCPROPERTYSET('1uQTsVeY71ozSRQnR_YhJK',#18,'Pset_ReinforcementBarPitchOfWall',$,(#382));
#384=IFCPROPERTYSET('3Pjn03ODiw9zuK9AROLe3m',#18,'Pset_WallCommon',$,(#204,#208,#209,#210));
#385=IFCRELDEFINESBYPROPERTIES('1EBqMSjHLkdx8NHjCpdHmr',#18,$,$,(#380),#381);
#386=IFCRELDEFINESBYPROPERTIES('2yG$$iaiFgvEmtfaSbG82Z',#18,$,$,(#380),#383);
#387=IFCRELDEFINESBYPROPERTIES('3m82Rm9moJ4fqBlf80F_yu',#18,$,$,(#380),#384);
#388=IFCCARTESIANPOINT((11981.4990859213,9400.,0.));
#389=IFCAXIS2PLACEMENT3D(#388,#9,#6);
#390=IFCLOCALPLACEMENT(#34,#389);
#391=IFCCARTESIANPOINT((800.,-0.));
#392=IFCAXIS2PLACEMENT2D(#391,#11);
#393=IFCCIRCLE(#392,799.999999999999);
#394=IFCTRIMMEDCURVE(#393,(IFCPARAMETERVALUE(180.)),(IFCPARAMETERVALUE(269.999999999999)),.T.,.PARAMETER.);
#395=IFCSHAPEREPRESENTATION(#23,'Axis','Curve2D',(#394));
#396=IFCCARTESIANPOINT((800.,-0.));
#397=IFCAXIS2PLACEMENT2D(#396,#11);
#398=IFCCIRCLE(#397,699.999999999999);
#399=IFCTRIMMEDCURVE(#398,(IFCPARAMETERVALUE(180.)),(IFCPARAMETERVALUE(269.999999999999)),.T.,.PARAMETER.);
#400=IFCCOMPOSITECURVESEGMENT(.CONTINUOUS.,.F.,#399);
#401=IFCCARTESIANPOINT((100.,-0.));
#402=IFCCARTESIANPOINT((-100.,0.));
#403=IFCPOLYLINE((#401,#402));
#404=IFCCOMPOSITECURVESEGMENT(.CONTINUOUS.,.T.,#403);
#405=IFCCARTESIANPOINT((800.,-0.));
#406=IFCAXIS2PLACEMENT2D(#405,#11);
#407=IFCCIRCLE(#406,899.999999999999);
#408=IFCTRIMMEDCURVE(#407,(IFCPARAMETERVALUE(180.)),(IFCPARAMETERVALUE(269.999999999999)),.T.,.PARAMETER.);
#409=IFCCOMPOSITECURVESEGMENT(.CONTINUOUS.,.T.,#408);
#410=IFCCARTESIANPOINT((800.,-900.));
#411=IFCCARTESIANPOINT((800.,-700.));
#412=IFCPOLYLINE((#410,#411));
#413=IFCCOMPOSITECURVESEGMENT(.CONTINUOUS.,.T.,#412);
#414=IFCCOMPOSITECURVE((#400,#404,#409,#413),.F.);
#415=IFCARBITRARYCLOSEDPROFILEDEF(.AREA.,$,#414);
#416=IFCAXIS2PLACEMENT3D(#3,$,$);
#417=IFCEXTRUDEDAREASOLID(#415,#416,#9,3000.);
#418=IFCSTYLEDITEM(#417,(#192),$);
#419=IFCSHAPEREPRESENTATION(#24,'Body','SweptSolid',(#417));
#420=IFCPRODUCTDEFINITIONSHAPE($,$,(#395,#419));
#421=IFCWALL('0zXBy2YDL1xfJc51Nsiw2Y',#18,'Basic Wall:Generic - 200mm:1612789',$,'Basic Wall:Generic - 200mm',#390,#420,'1612789',.NOTDEFINED.);
#422=IFCPROPERTYSET('0d8M5PEp0JOUy3ocy1FaIk',#18,'Pset_EnvironmentalImpactIndicators',$,(#204));
#423=IFCPROPERTYSINGLEVALUE('Reference',$,IFCLABEL('Generic - 200mm'),$);
#424=IFCPROPERTYSET('3Tf0agL8QB9ukQpDsgDlZc',#18,'Pset_ReinforcementBarPitchOfWall',$,(#423));
#425=IFCPROPERTYSET('3JgGUC_VSs2b8aDJSK4E4V',#18,'Pset_WallCommon',$,(#204,#208,#209,#210));
#426=IFCRELDEFINESBYPROPERTIES('2ynqYZhaDfL3ZnRRmk4DhD',#18,$,$,(#421),#422);
#427=IFCRELDEFINESBYPROPERTIES('2Wm1onVIdA5j4rZK5xQi3a',#18,$,$,(#421),#424);
#428=IFCRELDEFINESBYPROPERTIES('1bRwnMmscG9IQjCHUEQvmd',#18,$,$,(#421),#425);
#429=IFCCARTESIANPOINT((11410.597717077,16217.1572875254,0.));
#430=IFCAXIS2PLACEMENT3D(#429,#9,#6);
#431=IFCLOCALPLACEMENT(#34,#430);
#432=IFCCARTESIANPOINT((10834.8617857889,0.));
#433=IFCPOLYLINE((#4,#432));
#434=IFCSHAPEREPRESENTATION(#23,'Axis','Curve2D',(#433));
#435=IFCCARTESIANPOINT((10834.8617857889,-100.));
#436=IFCCARTESIANPOINT((10634.8617857889,100.));
#437=IFCCARTESIANPOINT((200.,100.));
#438=IFCCARTESIANPOINT((0.,-100.));
#439=IFCCARTESIANPOINT((282.842712474621,-100.));
#440=IFCCARTESIANPOINT((10552.0190733143,-100.));
#441=IFCPOLYLINE((#435,#436,#437,#438,#439,#440,#435));
#442=IFCARBITRARYCLOSEDPROFILEDEF(.AREA.,$,#441);
#443=IFCAXIS2PLACEMENT3D(#3,$,$);
#444=IFCEXTRUDEDAREASOLID(#442,#443,#9,3000.);
#445=IFCSTYLEDITEM(#444,(#192),$);
#446=IFCSHAPEREPRESENTATION(#24,'Body','SweptSolid',(#444));
#447=IFCPRODUCTDEFINITIONSHAPE($,$,(#434,#446));
#448=IFCWALL('0zXBy2YDL1xfJc51NsiwSI',#18,'Basic Wall:Generic - 200mm:1612869',$,'Basic Wall:Generic - 200mm',#431,#447,'1612869',.NOTDEFINED.);
#449=IFCPROPERTYSET('0NwVlnrn0FIF9k0o9akaYG',#18,'Pset_EnvironmentalImpactIndicators',$,(#204));
#450=IFCPROPERTYSINGLEVALUE('Reference',$,IFCLABEL('Generic - 200mm'),$);
#451=IFCPROPERTYSET('2gpQ_3dx6AKhLY$ZBN3jC9',#18,'Pset_ReinforcementBarPitchOfWall',$,(#450));
#452=IFCPROPERTYSET('2NlcnLbEro$iEjLTAIxv8m',#18,'Pset_WallCommon',$,(#204,#208,#209,#210));
#453=IFCRELDEFINESBYPROPERTIES('3KgdxifnaYe_zrDazdU$Xm',#18,$,$,(#448),#449);
#454=IFCRELDEFINESBYPROPERTIES('0C08TqPsaCe_Hmm1gsZh7W',#18,$,$,(#448),#451);
#455=IFCRELDEFINESBYPROPERTIES('0NjNTeZFFBr8sQFNlQMFIH',#18,$,$,(#448),#452);
#456=IFCCARTESIANPOINT((58.5786437627257,16734.3145750508,0.));
#457=IFCAXIS2PLACEMENT3D(#456,#9,#7);
#458=IFCLOCALPLACEMENT(#34,#457);
#459=IFCCARTESIANPOINT((4982.84271247464,0.));
#460=IFCPOLYLINE((#4,#459));
#461=IFCSHAPEREPRESENTATION(#23,'Axis','Curve2D',(#460));
#462=IFCCARTESIANPOINT((4982.84271247463,-100.));
#463=IFCCARTESIANPOINT((4782.84271247464,100.));
#464=IFCCARTESIANPOINT((200.,100.));
#465=IFCCARTESIANPOINT((0.,-100.));
#466=IFCCARTESIANPOINT((282.842712474618,-100.));
#467=IFCCARTESIANPOINT((4700.,-100.));
#468=IFCPOLYLINE((#462,#463,#464,#465,#466,#467,#462));
#469=IFCARBITRARYCLOSEDPROFILEDEF(.AREA.,$,#468);
#470=IFCAXIS2PLACEMENT3D(#3,$,$);
#471=IFCEXTRUDEDAREASOLID(#469,#470,#9,3000.);
#472=IFCSTYLEDITEM(#471,(#192),$);
#473=IFCSHAPEREPRESENTATION(#24,'Body','SweptSolid',(#471));
#474=IFCPRODUCTDEFINITIONSHAPE($,$,(#461,#473));
#475=IFCWALL('0zXBy2YDL1xfJc51NsiwSH',#18,'Basic Wall:Generic - 200mm:1612870',$,'Basic Wall:Generic - 200mm',#458,#474,'1612870',.NOTDEFINED.);
#476=IFCPROPERTYSET('2xWs6GcBwwEE3GAOtaHmOj',#18,'Pset_EnvironmentalImpactIndicators',$,(#204));
#477=IFCPROPERTYSINGLEVALUE('Reference',$,IFCLABEL('Generic - 200mm'),$);
#478=IFCPROPERTYSET('3PxZXehYF4HHjlS$tQBdxH',#18,'Pset_ReinforcementBarPitchOfWall',$,(#477));
#479=IFCPROPERTYSET('0nzgEnuN6Ztt9Xh4B1gcvS',#18,'Pset_WallCommon',$,(#204,#208,#209,#210));
#480=IFCRELDEFINESBYPROPERTIES('3nplbMgYH8t1GBZ8Pngf3F',#18,$,$,(#475),#476);
#481=IFCRELDEFINESBYPROPERTIES('0NBchV64CJiFvGoBZk1VEG',#18,$,$,(#475),#478);
#482=IFCRELDEFINESBYPROPERTIES('11tR$Qp5jyhbBchdtmfchG',#18,$,$,(#475),#479);
#483=IFCCARTESIANPOINT((6744.91229212778,22317.1572875254,0.));
#484=IFCAXIS2PLACEMENT3D(#483,#9,#6);
#485=IFCLOCALPLACEMENT(#34,#484);
#486=IFCCARTESIANPOINT((6086.33364836506,0.));
#487=IFCPOLYLINE((#4,#486));
#488=IFCSHAPEREPRESENTATION(#23,'Axis','Curve2D',(#487));
#489=IFCCARTESIANPOINT((5886.33364836506,-100.));
#490=IFCCARTESIANPOINT((6086.33364836506,100.));
#491=IFCCARTESIANPOINT((5803.49093589044,100.));
#492=IFCCARTESIANPOINT((0.,100.));
#493=IFCCARTESIANPOINT((0.,-100.));
#494=IFCCARTESIANPOINT((200.,-100.));
#495=IFCPOLYLINE((#489,#490,#491,#492,#493,#494,#489));
#496=IFCARBITRARYCLOSEDPROFILEDEF(.AREA.,$,#495);
#497=IFCAXIS2PLACEMENT3D(#3,$,$);
#498=IFCEXTRUDEDAREASOLID(#496,#497,#9,3000.);
#499=IFCSTYLEDITEM(#498,(#192),$);
#500=IFCSHAPEREPRESENTATION(#24,'Body','SweptSolid',(#498));
#501=IFCPRODUCTDEFINITIONSHAPE($,$,(#488,#500));
#502=IFCWALL('0zXBy2YDL1xfJc51NsiwSV',#18,'Basic Wall:Generic - 200mm:1612872',$,'Basic Wall:Generic - 200mm',#485,#501,'1612872',.NOTDEFINED.);
#503=IFCPROPERTYSET('35Ca9YZctu3rphB7wENl78',#18,'Pset_EnvironmentalImpactIndicators',$,(#204));
#504=IFCPROPERTYSINGLEVALUE('Reference',$,IFCLABEL('Generic - 200mm'),$);
#505=IFCPROPERTYSET('0BfEagBK62S05fkLUwJc3w',#18,'Pset_ReinforcementBarPitchOfWall',$,(#504));
#506=IFCPROPERTYSET('1bRuHWsUVxzNIfZyzo1Q4j',#18,'Pset_WallCommon',$,(#204,#208,#209,#210));
#507=IFCRELDEFINESBYPROPERTIES('3T1Z0t7Q7LdLINXt2jYY0d',#18,$,$,(#502),#503);
#508=IFCRELDEFINESBYPROPERTIES('2uzcEe$gnETnLmPs1jb$EJ',#18,$,$,(#502),#505);
#509=IFCRELDEFINESBYPROPERTIES('1KUxEZJtoiKokC_Mtwi1rp',#18,$,$,(#502),#506);
#510=IFCCARTESIANPOINT((11844.9122921278,16651.4718625762,0.));
#511=IFCAXIS2PLACEMENT3D(#510,#9,#7);
#512=IFCLOCALPLACEMENT(#34,#511);
#513=IFCCARTESIANPOINT((9365.68542494926,-0.));
#514=IFCPOLYLINE((#4,#513));
#515=IFCSHAPEREPRESENTATION(#23,'Axis','Curve2D',(#514));
#516=IFCCARTESIANPOINT((9165.68542494925,-100.));
#517=IFCCARTESIANPOINT((9365.68542494926,100.));
#518=IFCCARTESIANPOINT((9082.84271247463,100.));
#519=IFCCARTESIANPOINT((282.842712474616,100.));
#520=IFCCARTESIANPOINT((0.,100.));
#521=IFCCARTESIANPOINT((200.,-100.));
#522=IFCPOLYLINE((#516,#517,#518,#519,#520,#521,#516));
#523=IFCARBITRARYCLOSEDPROFILEDEF(.AREA.,$,#522);
#524=IFCAXIS2PLACEMENT3D(#3,$,$);
#525=IFCEXTRUDEDAREASOLID(#523,#524,#9,3000.);
#526=IFCSTYLEDITEM(#525,(#192),$);
#527=IFCSHAPEREPRESENTATION(#24,'Body','SweptSolid',(#525));
#528=IFCPRODUCTDEFINITIONSHAPE($,$,(#515,#527));
#529=IFCWALL('0zXBy2YDL1xfJc51NsiwST',#18,'Basic Wall:Generic - 200mm:1612874',$,'Basic Wall:Generic - 200mm',#512,#528,'1612874',.NOTDEFINED.);
#530=IFCPROPERTYSET('3ZFWO0KrG2yVPBKu0$jtHH',#18,'Pset_EnvironmentalImpactIndicators',$,(#204));
#531=IFCPROPERTYSINGLEVALUE('Reference',$,IFCLABEL('Generic - 200mm'),$);
#532=IFCPROPERTYSET('3JqFbW2bt8c79Wqjk7B$BP',#18,'Pset_ReinforcementBarPitchOfWall',$,(#531));
#533=IFCPROPERTYSET('1Wb5CTdcckKkFSo4972FAS',#18,'Pset_WallCommon',$,(#204,#208,#209,#210));
#534=IFCRELDEFINESBYPROPERTIES('2mKFTOSaG_vDRDMA5fF26j',#18,$,$,(#529),#530);
#535=IFCRELDEFINESBYPROPERTIES('2CWMavM22bB$ReyfnM3s7V',#18,$,$,(#529),#532);
#536=IFCRELDEFINESBYPROPERTIES('0pLuZve_8TgfN0N$6GwS9i',#18,$,$,(#529),#533);
#537=IFCCARTESIANPOINT((870.710678118688,22287.8679656441,0.));
#538=IFCDIRECTION((-0.707106781186548,-0.707106781186547,0.));
#539=IFCAXIS2PLACEMENT3D(#537,#9,#538);
#540=IFCLOCALPLACEMENT(#34,#539);
#541=IFCCARTESIANPOINT((1107.10678118653,0.));
#542=IFCPOLYLINE((#4,#541));
#543=IFCSHAPEREPRESENTATION(#23,'Axis','Curve2D',(#542));
#544=IFCCARTESIANPOINT((907.10678118653,-100.));
#545=IFCCARTESIANPOINT((1107.10678118653,100.));
#546=IFCCARTESIANPOINT((0.,100.));
#547=IFCCARTESIANPOINT((200.,-100.));
#548=IFCPOLYLINE((#544,#545,#546,#547,#544));
#549=IFCARBITRARYCLOSEDPROFILEDEF(.AREA.,$,#548);
#550=IFCAXIS2PLACEMENT3D(#3,$,$);
#551=IFCEXTRUDEDAREASOLID(#549,#550,#9,3000.);
#552=IFCSTYLEDITEM(#551,(#192),$);
#553=IFCSHAPEREPRESENTATION(#24,'Body','SweptSolid',(#551));
#554=IFCPRODUCTDEFINITIONSHAPE($,$,(#543,#553));
#555=IFCWALL('0zXBy2YDL1xfJc51NsiwUJ',#18,'Basic Wall:Generic - 200mm:1612996',$,'Basic Wall:Generic - 200mm',#540,#554,'1612996',.NOTDEFINED.);
#556=IFCPROPERTYSET('3FLccefFA704cS6uTitTDd',#18,'Pset_EnvironmentalImpactIndicators',$,(#204));
#557=IFCPROPERTYSINGLEVALUE('Reference',$,IFCLABEL('Generic - 200mm'),$);
#558=IFCPROPERTYSET('3IlLoDeiI1Ey$FHz63Eu4W',#18,'Pset_ReinforcementBarPitchOfWall',$,(#557));
#559=IFCPROPERTYSET('2_TN6AevQrTbqvlSKOY01n',#18,'Pset_WallCommon',$,(#204,#208,#209,#210));
#560=IFCRELDEFINESBYPROPERTIES('0gX89_KukSO0EmmqFORv4P',#18,$,$,(#555),#556);
#561=IFCRELDEFINESBYPROPERTIES('3ae3Lxtd9lKA4u40KdVQff',#18,$,$,(#555),#558);
#562=IFCRELDEFINESBYPROPERTIES('0tfM7MrkZYpMZ8okeNbOUw',#18,$,$,(#555),#559);
#563=IFCCARTESIANPOINT((787.867965644046,16246.4466094068,0.));
#564=IFCDIRECTION((-0.707106781186543,0.707106781186552,0.));
#565=IFCAXIS2PLACEMENT3D(#563,#9,#564);
#566=IFCLOCALPLACEMENT(#34,#565);
#567=IFCCARTESIANPOINT((989.949493661137,0.));
#568=IFCPOLYLINE((#4,#567));
#569=IFCSHAPEREPRESENTATION(#23,'Axis','Curve2D',(#568));
#570=IFCCARTESIANPOINT((989.949493661135,-100.));
#571=IFCCARTESIANPOINT((789.949493661134,100.));
#572=IFCCARTESIANPOINT((200.,100.));
#573=IFCCARTESIANPOINT((0.,-100.));
#574=IFCPOLYLINE((#570,#571,#572,#573,#570));
#575=IFCARBITRARYCLOSEDPROFILEDEF(.AREA.,$,#574);
#576=IFCAXIS2PLACEMENT3D(#3,$,$);
#577=IFCEXTRUDEDAREASOLID(#575,#576,#9,3000.);
#578=IFCSTYLEDITEM(#577,(#192),$);
#579=IFCSHAPEREPRESENTATION(#24,'Body','SweptSolid',(#577));
#580=IFCPRODUCTDEFINITIONSHAPE($,$,(#569,#579));
#581=IFCWALL('0zXBy2YDL1xfJc51NsiwO2',#18,'Basic Wall:Generic - 200mm:1613141',$,'Basic Wall:Generic - 200mm',#566,#580,'1613141',.NOTDEFINED.);
#582=IFCPROPERTYSET('2Veu7qDsw$BKN2HTrFpLaW',#18,'Pset_EnvironmentalImpactIndicators',$,(#204));
#583=IFCPROPERTYSINGLEVALUE('Reference',$,IFCLABEL('Generic - 200mm'),$);
#584=IFCPROPERTYSET('2ADTHpHsbDVMNfRMNxoL23',#18,'Pset_ReinforcementBarPitchOfWall',$,(#583));
#585=IFCPROPERTYSET('1f9nj7OCyTh6iwtQTKuYeo',#18,'Pset_WallCommon',$,(#204,#208,#209,#210));
#586=IFCRELDEFINESBYPROPERTIES('0ONcbDforolyJ10s4IBYZc',#18,$,$,(#581),#582);
#587=IFCRELDEFINESBYPROPERTIES('3H2K_a7qAUel_Vx_owsMTS',#18,$,$,(#581),#584);
#588=IFCRELDEFINESBYPROPERTIES('1v_EGVeD3dMQ9InmDh1A8$',#18,$,$,(#581),#585);
#589=IFCCARTESIANPOINT((11198.4656827211,16246.4466094068,0.));
#590=IFCDIRECTION((0.707106781186551,0.707106781186544,0.));
#591=IFCAXIS2PLACEMENT3D(#589,#9,#590);
#592=IFCLOCALPLACEMENT(#34,#591);
#593=IFCCARTESIANPOINT((872.792206135818,0.));
#594=IFCPOLYLINE((#4,#593));
#595=IFCSHAPEREPRESENTATION(#23,'Axis','Curve2D',(#594));
#596=IFCCARTESIANPOINT((672.792206135823,-100.));
#597=IFCCARTESIANPOINT((872.792206135818,100.));
#598=IFCCARTESIANPOINT((0.,100.));
#599=IFCCARTESIANPOINT((200.,-100.));
#600=IFCPOLYLINE((#596,#597,#598,#599,#596));
#601=IFCARBITRARYCLOSEDPROFILEDEF(.AREA.,$,#600);
#602=IFCAXIS2PLACEMENT3D(#3,$,$);
#603=IFCEXTRUDEDAREASOLID(#601,#602,#9,3000.);
#604=IFCSTYLEDITEM(#603,(#192),$);
#605=IFCSHAPEREPRESENTATION(#24,'Body','SweptSolid',(#603));
#606=IFCPRODUCTDEFINITIONSHAPE($,$,(#595,#605));
#607=IFCWALL('0zXBy2YDL1xfJc51NsiwO1',#18,'Basic Wall:Generic - 200mm:1613142',$,'Basic Wall:Generic - 200mm',#592,#606,'1613142',.NOTDEFINED.);
#608=IFCPROPERTYSET('1UJg9tmupewdDCQ8ZNglkt',#18,'Pset_EnvironmentalImpactIndicators',$,(#204));
#609=IFCPROPERTYSINGLEVALUE('Reference',$,IFCLABEL('Generic - 200mm'),$);
#610=IFCPROPERTYSET('3O55et$0eYQk8Se381pCxb',#18,'Pset_ReinforcementBarPitchOfWall',$,(#609));
#611=IFCPROPERTYSET('3trmJrUZMxKXq6ZQyKGmBd',#18,'Pset_WallCommon',$,(#204,#208,#209,#210));
#612=IFCRELDEFINESBYPROPERTIES('1onbxy_hezJ5ghb1lMvRbF',#18,$,$,(#607),#608);
#613=IFCRELDEFINESBYPROPERTIES('1vgCdolvVQjhzNNJBT$BSi',#18,$,$,(#607),#610);
#614=IFCRELDEFINESBYPROPERTIES('0CYbp7semKMGDfwcIeuiEd',#18,$,$,(#607),#611);
#615=IFCCARTESIANPOINT((6644.91229212778,22417.1572875254,0.));
#616=IFCAXIS2PLACEMENT3D(#615,#9,#7);
#617=IFCLOCALPLACEMENT(#34,#616);
#618=IFCCARTESIANPOINT((3629.28932188137,-0.));
#619=IFCPOLYLINE((#4,#618));
#620=IFCSHAPEREPRESENTATION(#23,'Axis','Curve2D',(#619));
#621=IFCCARTESIANPOINT((3629.28932188137,-100.));
#622=IFCCARTESIANPOINT((3429.28932188137,100.));
#623=IFCCARTESIANPOINT((0.,100.));
#624=IFCCARTESIANPOINT((0.,-100.));
#625=IFCCARTESIANPOINT((3346.44660940676,-100.));
#626=IFCPOLYLINE((#621,#622,#623,#624,#625,#621));
#627=IFCARBITRARYCLOSEDPROFILEDEF(.AREA.,$,#626);
#628=IFCAXIS2PLACEMENT3D(#3,$,$);
#629=IFCEXTRUDEDAREASOLID(#627,#628,#9,3000.);
#630=IFCSTYLEDITEM(#629,(#192),$);
#631=IFCSHAPEREPRESENTATION(#24,'Body','SweptSolid',(#629));
#632=IFCPRODUCTDEFINITIONSHAPE($,$,(#620,#631));
#633=IFCWALL('0zXBy2YDL1xfJc51NsiwNq',#18,'Basic Wall:Generic - 200mm:1613475',$,'Basic Wall:Generic - 200mm',#617,#632,'1613475',.NOTDEFINED.);
#634=IFCPROPERTYSET('2cNtGTuoxFHeztLqZjn2Rf',#18,'Pset_EnvironmentalImpactIndicators',$,(#204));
#635=IFCPROPERTYSINGLEVALUE('Reference',$,IFCLABEL('Generic - 200mm'),$);
#636=IFCPROPERTYSET('2jHnKJkKv26rWUXkt0_IGa',#18,'Pset_ReinforcementBarPitchOfWall',$,(#635));
#637=IFCPROPERTYSET('27bMurCjy0c_8mW71Jv6ar',#18,'Pset_WallCommon',$,(#204,#208,#209,#210));
#638=IFCRELDEFINESBYPROPERTIES('3Nx1OFJwXSqEB59hm75VOk',#18,$,$,(#633),#634);
#639=IFCRELDEFINESBYPROPERTIES('1Oidd9dBdSw3It5eHKKkNR',#18,$,$,(#633),#636);
#640=IFCRELDEFINESBYPROPERTIES('2vKQ9jJ1aIZHb04ysPF_p5',#18,$,$,(#633),#637);
#641=IFCCARTESIANPOINT((7015.62297024642,26417.1572875254,0.));
#642=IFCAXIS2PLACEMENT3D(#641,$,$);
#643=IFCLOCALPLACEMENT(#34,#642);
#644=IFCCARTESIANPOINT((4429.28932188142,-0.));
#645=IFCPOLYLINE((#4,#644));
#646=IFCSHAPEREPRESENTATION(#23,'Axis','Curve2D',(#645));
#647=IFCCARTESIANPOINT((4429.28932188142,-100.));
#648=IFCCARTESIANPOINT((4229.28932188142,100.));
#649=IFCCARTESIANPOINT((200.,100.));
#650=IFCCARTESIANPOINT((0.,-100.));
#651=IFCCARTESIANPOINT((282.842712474619,-100.));
#652=IFCCARTESIANPOINT((4146.4466094068,-100.));
#653=IFCPOLYLINE((#647,#648,#649,#650,#651,#652,#647));
#654=IFCARBITRARYCLOSEDPROFILEDEF(.AREA.,$,#653);
#655=IFCAXIS2PLACEMENT3D(#3,$,$);
#656=IFCEXTRUDEDAREASOLID(#654,#655,#9,3000.);
#657=IFCSTYLEDITEM(#656,(#192),$);
#658=IFCSHAPEREPRESENTATION(#24,'Body','SweptSolid',(#656));
#659=IFCPRODUCTDEFINITIONSHAPE($,$,(#646,#658));
#660=IFCWALL('0zXBy2YDL1xfJc51NsiwMl',#18,'Basic Wall:Generic - 200mm:1613560',$,'Basic Wall:Generic - 200mm',#643,#659,'1613560',.NOTDEFINED.);
#661=IFCPROPERTYSET('0Uyy92nSYbHIMoyrAjPTK5',#18,'Pset_EnvironmentalImpactIndicators',$,(#204));
#662=IFCPROPERTYSINGLEVALUE('Reference',$,IFCLABEL('Generic - 200mm'),$);
#663=IFCPROPERTYSET('2GmNoVtAaJd5LiSPIgavLx',#18,'Pset_ReinforcementBarPitchOfWall',$,(#662));
#664=IFCPROPERTYSET('0Hy1IjmRXebMfPr2jvxNBS',#18,'Pset_WallCommon',$,(#204,#208,#209,#210));
#665=IFCRELDEFINESBYPROPERTIES('1PIZh5HctU4rjESm$1j5AD',#18,$,$,(#660),#661);
#666=IFCRELDEFINESBYPROPERTIES('2epxebcOpx83e6O3SCOxGO',#18,$,$,(#660),#663);
#667=IFCRELDEFINESBYPROPERTIES('2aHWj0$1tzL5salDbvAvjr',#18,$,$,(#660),#664);
#668=IFCCARTESIANPOINT((11232.7802577719,26387.8679656441,0.));
#669=IFCDIRECTION((0.707106781186546,-0.707106781186549,0.));
#670=IFCAXIS2PLACEMENT3D(#668,#9,#669);
#671=IFCLOCALPLACEMENT(#34,#670);
#672=IFCCARTESIANPOINT((824.264068711874,0.));
#673=IFCPOLYLINE((#4,#672));
#674=IFCSHAPEREPRESENTATION(#23,'Axis','Curve2D',(#673));
#675=IFCCARTESIANPOINT((824.264068711874,-100.));
#676=IFCCARTESIANPOINT((624.26406871187,100.));
#677=IFCCARTESIANPOINT((200.,100.));
#678=IFCCARTESIANPOINT((0.,-100.));
#679=IFCPOLYLINE((#675,#676,#677,#678,#675));
#680=IFCARBITRARYCLOSEDPROFILEDEF(.AREA.,$,#679);
#681=IFCAXIS2PLACEMENT3D(#3,$,$);
#682=IFCEXTRUDEDAREASOLID(#680,#681,#9,3000.);
#683=IFCSTYLEDITEM(#682,(#192),$);
#684=IFCSHAPEREPRESENTATION(#24,'Body','SweptSolid',(#682));
#685=IFCPRODUCTDEFINITIONSHAPE($,$,(#674,#684));
#686=IFCWALL('0zXBy2YDL1xfJc51NsiwJR',#18,'Basic Wall:Generic - 200mm:1613708',$,'Basic Wall:Generic - 200mm',#671,#685,'1613708',.NOTDEFINED.);
#687=IFCPROPERTYSET('1cyi$mkym0j0YLnz6wyBVL',#18,'Pset_EnvironmentalImpactIndicators',$,(#204));
#688=IFCPROPERTYSINGLEVALUE('Reference',$,IFCLABEL('Generic - 200mm'),$);
#689=IFCPROPERTYSET('3sGcPHhBFnx_9PdSZGGHzi',#18,'Pset_ReinforcementBarPitchOfWall',$,(#688));
#690=IFCPROPERTYSET('0HTK8WofUS6RAs20HmvzLm',#18,'Pset_WallCommon',$,(#204,#208,#209,#210));
#691=IFCRELDEFINESBYPROPERTIES('3kJGXmVtQFvWxKlGR0aikm',#18,$,$,(#686),#687);
#692=IFCRELDEFINESBYPROPERTIES('0li2IoyHcUlLYVKqXoNP0e',#18,$,$,(#686),#689);
#693=IFCRELDEFINESBYPROPERTIES('1cQfBo9eXzfRD2fjGk8CWJ',#18,$,$,(#686),#690);
#694=IFCCARTESIANPOINT((7227.75500460238,26387.8679656441,0.));
#695=IFCDIRECTION((-0.707106781186549,-0.707106781186546,0.));
#696=IFCAXIS2PLACEMENT3D(#694,#9,#695);
#697=IFCLOCALPLACEMENT(#34,#696);
#698=IFCCARTESIANPOINT((782.842712474578,-0.));
#699=IFCPOLYLINE((#4,#698));
#700=IFCSHAPEREPRESENTATION(#23,'Axis','Curve2D',(#699));
#701=IFCCARTESIANPOINT((582.842712474582,-100.));
#702=IFCCARTESIANPOINT((782.84271247458,100.));
#703=IFCCARTESIANPOINT((0.,100.));
#704=IFCCARTESIANPOINT((200.,-100.));
#705=IFCPOLYLINE((#701,#702,#703,#704,#701));
#706=IFCARBITRARYCLOSEDPROFILEDEF(.AREA.,$,#705);
#707=IFCAXIS2PLACEMENT3D(#3,$,$);
#708=IFCEXTRUDEDAREASOLID(#706,#707,#9,3000.);
#709=IFCSTYLEDITEM(#708,(#192),$);
#710=IFCSHAPEREPRESENTATION(#24,'Body','SweptSolid',(#708));
#711=IFCPRODUCTDEFINITIONSHAPE($,$,(#700,#710));
#712=IFCWALL('0zXBy2YDL1xfJc51NsiviZ',#18,'Basic Wall:Generic - 200mm:1613940',$,'Basic Wall:Generic - 200mm',#697,#711,'1613940',.NOTDEFINED.);
#713=IFCPROPERTYSET('1i436YIiKbFMp_lWg91iRp',#18,'Pset_EnvironmentalImpactIndicators',$,(#204));
#714=IFCPROPERTYSINGLEVALUE('Reference',$,IFCLABEL('Generic - 200mm'),$);
#715=IFCPROPERTYSET('1k7c_OSJSrHk7RxeMy14G_',#18,'Pset_ReinforcementBarPitchOfWall',$,(#714));
#716=IFCPROPERTYSET('3e_C6FrQcUTLPJnTN28XnX',#18,'Pset_WallCommon',$,(#204,#208,#209,#210));
#717=IFCRELDEFINESBYPROPERTIES('3NTtnWKnYnyKi8zxfbcGnX',#18,$,$,(#712),#713);
#718=IFCRELDEFINESBYPROPERTIES('3dQVzvi5ewCTn_g1hGkRVm',#18,$,$,(#712),#715);
#719=IFCRELDEFINESBYPROPERTIES('3aR70tUCaAJGwcQD39SNzo',#18,$,$,(#712),#716);
#720=IFCCARTESIANPOINT((11181.4990859213,10200.,0.));
#721=IFCAXIS2PLACEMENT3D(#720,#9,#6);
#722=IFCLOCALPLACEMENT(#34,#721);
#723=IFCCARTESIANPOINT((3600.,0.));
#724=IFCPOLYLINE((#4,#723));
#725=IFCSHAPEREPRESENTATION(#23,'Axis','Curve2D',(#724));
#726=IFCCARTESIANPOINT((1800.,3.76587649952853E-13));
#727=IFCAXIS2PLACEMENT2D(#726,#12);
#728=IFCRECTANGLEPROFILEDEF(.AREA.,$,#727,3599.99999999999,199.999999999998);
#729=IFCAXIS2PLACEMENT3D(#3,$,$);
#730=IFCEXTRUDEDAREASOLID(#728,#729,#9,3000.);
#731=IFCSTYLEDITEM(#730,(#192),$);
#732=IFCSHAPEREPRESENTATION(#24,'Body','SweptSolid',(#730));
#733=IFCPRODUCTDEFINITIONSHAPE($,$,(#725,#732));
#734=IFCWALL('0zXBy2YDL1xfJc51Nsivg2',#18,'Basic Wall:Generic - 200mm:1614293',$,'Basic Wall:Generic - 200mm',#722,#733,'1614293',.NOTDEFINED.);
#735=IFCPROPERTYSET('2SEr18MwsxEtZTpzwC35sd',#18,'Pset_EnvironmentalImpactIndicators',$,(#204));
#736=IFCPROPERTYSINGLEVALUE('Reference',$,IFCLABEL('Generic - 200mm'),$);
#737=IFCPROPERTYSET('2t0msAVjycWymMJH6sKH0S',#18,'Pset_ReinforcementBarPitchOfWall',$,(#736));
#738=IFCPROPERTYSET('2aQhv78nVPqSQ5INGlyZOE',#18,'Pset_WallCommon',$,(#204,#208,#209,#210));
#739=IFCRELDEFINESBYPROPERTIES('336T6l8iQRsTZlL4H$a1TO',#18,$,$,(#734),#735);
#740=IFCRELDEFINESBYPROPERTIES('3KuRjhecEC5nRDTT8zdaBk',#18,$,$,(#734),#737);
#741=IFCRELDEFINESBYPROPERTIES('0KVYMu2KlNG2vrk3$a$8CT',#18,$,$,(#734),#738);
#742=IFCCARTESIANPOINT((6781.4990859212,9400.,0.));
#743=IFCAXIS2PLACEMENT3D(#742,#9,#8);
#744=IFCLOCALPLACEMENT(#34,#743);
#745=IFCCARTESIANPOINT((3400.,-0.));
#746=IFCPOLYLINE((#4,#745));
#747=IFCSHAPEREPRESENTATION(#23,'Axis','Curve2D',(#746));
#748=IFCCARTESIANPOINT((1700.00000000002,-1.35003119794419E-13));
#749=IFCAXIS2PLACEMENT2D(#748,#12);
#750=IFCRECTANGLEPROFILEDEF(.AREA.,$,#749,3400.00000000003,200.);
#751=IFCAXIS2PLACEMENT3D(#3,$,$);
#752=IFCEXTRUDEDAREASOLID(#750,#751,#9,3000.);
#753=IFCSTYLEDITEM(#752,(#192),$);
#754=IFCSHAPEREPRESENTATION(#24,'Body','SweptSolid',(#752));
#755=IFCPRODUCTDEFINITIONSHAPE($,$,(#747,#754));
#756=IFCWALL('0zXBy2YDL1xfJc51Nsivbu',#18,'Basic Wall:Generic - 200mm:1614383',$,'Basic Wall:Generic - 200mm',#744,#755,'1614383',.NOTDEFINED.);
#757=IFCPROPERTYSET('1P6ZJqvRqASFujlvZNEH3m',#18,'Pset_EnvironmentalImpactIndicators',$,(#204));
#758=IFCPROPERTYSINGLEVALUE('Reference',$,IFCLABEL('Generic - 200mm'),$);
#759=IFCPROPERTYSET('2UJzEedgxP7lxlwzz1r2Hl',#18,'Pset_ReinforcementBarPitchOfWall',$,(#758));
#760=IFCPROPERTYSET('26uy_jCUdCzYf7cf$yqZhA',#18,'Pset_WallCommon',$,(#204,#208,#209,#210));
#761=IFCRELDEFINESBYPROPERTIES('33Yt$eVvDrVGT3kz8G$stS',#18,$,$,(#756),#757);
#762=IFCRELDEFINESBYPROPERTIES('09Rjz_k0XlARHhi9JF$sx2',#18,$,$,(#756),#759);
#763=IFCRELDEFINESBYPROPERTIES('28Z7YVGaUi5_K1cFbEtoB5',#18,$,$,(#756),#760);
#764=IFCCARTESIANPOINT((6781.49908592134,9400.,0.));
#765=IFCAXIS2PLACEMENT3D(#764,$,$);
#766=IFCLOCALPLACEMENT(#34,#765);
#767=IFCCARTESIANPOINT((800.,0.));
#768=IFCAXIS2PLACEMENT2D(#767,#11);
#769=IFCCIRCLE(#768,799.999999999999);
#770=IFCTRIMMEDCURVE(#769,(IFCPARAMETERVALUE(90.0000000000007)),(IFCPARAMETERVALUE(180.)),.T.,.PARAMETER.);
#771=IFCSHAPEREPRESENTATION(#23,'Axis','Curve2D',(#770));
#772=IFCCARTESIANPOINT((800.,0.));
#773=IFCAXIS2PLACEMENT2D(#772,#11);
#774=IFCCIRCLE(#773,899.999999999999);
#775=IFCTRIMMEDCURVE(#774,(IFCPARAMETERVALUE(90.0000000000007)),(IFCPARAMETERVALUE(180.)),.T.,.PARAMETER.);
#776=IFCCOMPOSITECURVESEGMENT(.CONTINUOUS.,.T.,#775);
#777=IFCCARTESIANPOINT((-100.,0.));
#778=IFCCARTESIANPOINT((100.,0.));
#779=IFCPOLYLINE((#777,#778));
#780=IFCCOMPOSITECURVESEGMENT(.CONTINUOUS.,.T.,#779);
#781=IFCCARTESIANPOINT((800.,0.));
#782=IFCAXIS2PLACEMENT2D(#781,#11);
#783=IFCCIRCLE(#782,699.999999999999);
#784=IFCTRIMMEDCURVE(#783,(IFCPARAMETERVALUE(90.0000000000007)),(IFCPARAMETERVALUE(180.)),.T.,.PARAMETER.);
#785=IFCCOMPOSITECURVESEGMENT(.CONTINUOUS.,.F.,#784);
#786=IFCCARTESIANPOINT((800.,700.));
#787=IFCCARTESIANPOINT((800.,900.));
#788=IFCPOLYLINE((#786,#787));
#789=IFCCOMPOSITECURVESEGMENT(.CONTINUOUS.,.T.,#788);
#790=IFCCOMPOSITECURVE((#776,#780,#785,#789),.F.);
#791=IFCARBITRARYCLOSEDPROFILEDEF(.AREA.,$,#790);
#792=IFCAXIS2PLACEMENT3D(#3,$,$);
#793=IFCEXTRUDEDAREASOLID(#791,#792,#9,3000.);
#794=IFCSTYLEDITEM(#793,(#192),$);
#795=IFCSHAPEREPRESENTATION(#24,'Body','SweptSolid',(#793));
#796=IFCPRODUCTDEFINITIONSHAPE($,$,(#771,#795));
#797=IFCWALL('0zXBy2YDL1xfJc51Nsival',#18,'Basic Wall:Generic - 200mm:1614456',$,'Basic Wall:Generic - 200mm',#766,#796,'1614456',.NOTDEFINED.);
#798=IFCPROPERTYSET('3MY_Ew7BSsDvw3miYvTjl4',#18,'Pset_EnvironmentalImpactIndicators',$,(#204));
#799=IFCPROPERTYSINGLEVALUE('Reference',$,IFCLABEL('Generic - 200mm'),$);
#800=IFCPROPERTYSET('0vrS3RKyL2pI4sr7VyYJ6m',#18,'Pset_ReinforcementBarPitchOfWall',$,(#799));
#801=IFCPROPERTYSET('2xtE3clCcSi0gMHZkV9T1Y',#18,'Pset_WallCommon',$,(#204,#208,#209,#210));
#802=IFCRELDEFINESBYPROPERTIES('2Jbj2AEngG55IuUyIGfR0M',#18,$,$,(#797),#798);
#803=IFCRELDEFINESBYPROPERTIES('0EmObSyxFXX1hrbcKlFR2H',#18,$,$,(#797),#800);
#804=IFCRELDEFINESBYPROPERTIES('1t_d6d5vtrbvZm9CQ441PN',#18,$,$,(#797),#801);
#805=IFCPROPERTYSINGLEVALUE('Reference',$,IFCIDENTIFIER('8mm Head'),$);
#806=IFCPROPERTYSINGLEVALUE('AboveGround',$,IFCLOGICAL(.U.),$);
#807=IFCPROPERTYSET('16L50AfyZF4hYq5TGET4H4',#18,'Pset_BuildingStoreyCommon',$,(#805,#806));
#808=IFCPROPERTYSET('2J7ac_h5ujdwWuzVwBIIta',#18,'Pset_SpaceCommon',$,(#45,#805));
#809=IFCRELDEFINESBYPROPERTIES('2VdfSfkgzGoZi_3SgzE8$0',#18,$,$,(#35),#807);
#810=IFCRELDEFINESBYPROPERTIES('3$YdOpA8iaPobC8MDiWxoI',#18,$,$,(#35),#808);
#811=IFCRELCONTAINEDINSPATIALSTRUCTURE('2JF4e6axWHqu3u0C5FZlmi',#18,$,$,(#196,#232,#254,#295,#317,#358,#380,#421,#448,#475,#502,#529,#555,#581,#607,#633,#660,#686,#712,#734,#756,#797),#35);
#812=IFCPROPERTYSET('1n34enW33Z_3Qq2Pm1kjQZ',#18,'Pset_BuildingStoreyCommon',$,(#805,#806));
#813=IFCPROPERTYSET('0qNc4$IaPwTvoqOd7IlIE4',#18,'Pset_SpaceCommon',$,(#45,#805));
#814=IFCRELDEFINESBYPROPERTIES('36oM8gyLQ5_Z6XoGK5uP1E',#18,$,$,(#39),#812);
#815=IFCRELDEFINESBYPROPERTIES('0jA6Vdz$3CfPvu_I1iTL6J',#18,$,$,(#39),#813);
#816=IFCRELAGGREGATES('2KFB6YYWgXBmucZ8cm7uCP',#18,$,$,#27,(#42));
#817=IFCRELAGGREGATES('16_hfJTeCqU7LcG8m10BTS',#18,$,$,#42,(#32));
#818=IFCRELAGGREGATES('2JF4e6axWHqu3u0C9FZlmi',#18,$,$,#35,(#126,#153));
#819=IFCRELAGGREGATES('1yhDISh1T5aQqAoygxGIhP',#18,$,$,#32,(#35,#39));
#820=IFCPROPERTYSINGLEVALUE('NumberOfStoreys',$,IFCCOUNTMEASURE(1),$);
#821=IFCPROPERTYSINGLEVALUE('IsLandmarked',$,IFCLOGICAL(.U.),$);
#822=IFCPROPERTYSET('01y_GmllCupEYuBgfGbhkd',#18,'Pset_BuildingCommon',$,(#43,#820,#821));
#823=IFCPROPERTYSET('1rUR7OGyIAkZT62xvibLnd',#18,'Pset_BuildingElementProxyCommon',$,(#43,#45));
#824=IFCPROPERTYSET('2kFDjjfIaTsBi7MLK$i$Me',#18,'Pset_BuildingStoreyCommon',$,(#43,#806));
#825=IFCPROPERTYSET('1TYvb3FgH88mtl04iE5P1T',#18,'Pset_BuildingSystemCommon',$,(#43));
#826=IFCPROPERTYSET('2W94HCj5xfigmNGtkBMklk',#18,'Pset_SpaceCommon',$,(#43,#45));
#827=IFCRELDEFINESBYPROPERTIES('0vDjba2fshDEh0_KufwWht',#18,$,$,(#32),#822);
#828=IFCRELDEFINESBYPROPERTIES('1V6UQfELB4oPy3GPEaJMPw',#18,$,$,(#32),#823);
#829=IFCRELDEFINESBYPROPERTIES('0Vpd75HttOMIhzXutBGgCt',#18,$,$,(#32),#824);
#830=IFCRELDEFINESBYPROPERTIES('22VMRBFW9n6_S81yWIP225',#18,$,$,(#32),#825);
#831=IFCRELDEFINESBYPROPERTIES('2w3bzVlKnfBVjA3_BjG2II',#18,$,$,(#32),#826);
#832=IFCRELASSOCIATESMATERIAL('22T9r9KB1F3JFgePfxkUGp',#18,$,$,(#196,#203,#232,#254,#295,#317,#358,#380,#421,#448,#475,#502,#529,#555,#581,#607,#633,#660,#686,#712,#734,#756,#797),#202);
#833=IFCRELDEFINESBYTYPE('1w99BVFeZfY3qekNajl$3$',#18,$,$,(#126),#127);
#834=IFCRELDEFINESBYTYPE('2gD_yEzyi2U8dDmZSeek_z',#18,$,$,(#153),#154);
#835=IFCRELDEFINESBYTYPE('0MSq_ijuC5q4PUKv4QkOsA',#18,$,$,(#196,#232,#254,#295,#317,#358,#380,#421,#448,#475,#502,#529,#555,#581,#607,#633,#660,#686,#712,#734,#756,#797),#203);
#836=IFCRELCONNECTSPATHELEMENTS('0Fh8xBsBr4TvmIWm7bih5A',#18,'3foFioUfvCX8jSSVUkfSB3|0zXBy2YDL1xfJc51Nsiw0s','Structural',$,#196,#254,(),(),.ATSTART.,.ATSTART.);
#837=IFCRELCONNECTSPATHELEMENTS('03sx_FSW5TvHdzMOtEzEuk',#18,'3foFioUfvCX8jSSVUkfSB3|3foFioUfvCX8jSSVUkfS7P','Structural',$,#196,#232,(),(),.ATEND.,.ATEND.);
#838=IFCRELCONNECTSPATHELEMENTS('395nVC_VHeUo9MYtnDtmeg',#18,'3foFioUfvCX8jSSVUkfS7P|0zXBy2YDL1xfJc51Nsiw2a','Structural',$,#232,#358,(),(),.ATEND.,.ATSTART.);
#839=IFCRELCONNECTSPATHELEMENTS('1Q2uni_20Yi0hkVQaz2Kgt',#18,'0zXBy2YDL1xfJc51Nsiw0s|0zXBy2YDL1xfJc51Nsiw2V','Structural',$,#254,#295,(),(),.ATSTART.,.ATEND.);
#840=IFCRELCONNECTSPATHELEMENTS('3th_u8Mo6SSVUHI6mbC0AV',#18,'0zXBy2YDL1xfJc51Nsiw2V|0zXBy2YDL1xfJc51Nsiw2U','Structural',$,#295,#317,(),(),.ATEND.,.ATEND.);
#841=IFCRELCONNECTSPATHELEMENTS('1ki0QCkNu__XOkiQZ83no7',#18,'0zXBy2YDL1xfJc51Nsiw2U|0zXBy2YDL1xfJc51Nsivbu','Structural',$,#317,#756,(),(),.ATEND.,.ATSTART.);
#842=IFCRELCONNECTSPATHELEMENTS('2jDAldBhk2x8OQlEyCW$c2',#18,'0zXBy2YDL1xfJc51Nsiw2a|0zXBy2YDL1xfJc51Nsiw2Z','Structural',$,#358,#380,(),(),.ATSTART.,.ATSTART.);
#843=IFCRELCONNECTSPATHELEMENTS('3YONS8URdnubA2GOF57oFT',#18,'0zXBy2YDL1xfJc51Nsiw2Z|0zXBy2YDL1xfJc51Nsiw2Y','Structural',$,#380,#421,(),(),.ATSTART.,.ATEND.);
#844=IFCRELCONNECTSPATHELEMENTS('2pLuXlzLxIYLj8RjgC10Gg',#18,'0zXBy2YDL1xfJc51Nsiw2Y|0zXBy2YDL1xfJc51Nsivg2','Structural',$,#421,#734,(),(),.ATSTART.,.ATEND.);
#845=IFCRELCONNECTSPATHELEMENTS('0DvRPOVJAs$krA_vkTWY5u',#18,'0zXBy2YDL1xfJc51NsiwSI|0zXBy2YDL1xfJc51NsiwO1','Structural',$,#448,#607,(),(),.ATSTART.,.ATSTART.);
#846=IFCRELCONNECTSPATHELEMENTS('1pAo3tGKDqMRXgjhK69H4e',#18,'0zXBy2YDL1xfJc51NsiwSI|0zXBy2YDL1xfJc51NsiwO2','Structural',$,#448,#581,(),(),.ATSTART.,.ATEND.);
#847=IFCRELCONNECTSPATHELEMENTS('1LjMHclVv39ni4CYSUw9Cr',#18,'0zXBy2YDL1xfJc51NsiwSH|0zXBy2YDL1xfJc51NsiwO2','Structural',$,#475,#581,(),(),.ATEND.,.ATSTART.);
#848=IFCRELCONNECTSPATHELEMENTS('1G4OWDUljgJGOgB45ewPB8',#18,'0zXBy2YDL1xfJc51NsiwSH|0zXBy2YDL1xfJc51NsiwUJ','Structural',$,#475,#555,(),(),.ATEND.,.ATEND.);
#849=IFCRELCONNECTSPATHELEMENTS('26kCJC__ULKrfBmPVSilFV',#18,'0zXBy2YDL1xfJc51NsiwSV|0zXBy2YDL1xfJc51NsiwNq','Structural',$,#502,#633,(),(),.ATSTART.,.ATSTART.);
#850=IFCRELCONNECTSPATHELEMENTS('3AcaZSPvGhePLna4Vhd$kx',#18,'0zXBy2YDL1xfJc51NsiwSV|0zXBy2YDL1xfJc51NsiwUJ','Structural',$,#502,#555,(),(),.ATSTART.,.ATEND.);
#851=IFCRELCONNECTSPATHELEMENTS('1lZW3Jmat55OF8lIEExrMo',#18,'0zXBy2YDL1xfJc51NsiwST|0zXBy2YDL1xfJc51NsiwO1','Structural',$,#529,#607,(),(),.ATEND.,.ATSTART.);
#852=IFCRELCONNECTSPATHELEMENTS('0zzlQP80$cmfAjrK76aWNt',#18,'0zXBy2YDL1xfJc51NsiwST|0zXBy2YDL1xfJc51NsiwJR','Structural',$,#529,#686,(),(),.ATEND.,.ATEND.);
#853=IFCRELCONNECTSPATHELEMENTS('0uKLMaAKOMi$SQYf3zLqif',#18,'0zXBy2YDL1xfJc51NsiwNq|0zXBy2YDL1xfJc51NsiviZ','Structural',$,#633,#712,(),(),.ATEND.,.ATEND.);
#854=IFCRELCONNECTSPATHELEMENTS('2H2Qf_fLw0cEh0Zrxc96QO',#18,'0zXBy2YDL1xfJc51NsiwMl|0zXBy2YDL1xfJc51NsiviZ','Structural',$,#660,#712,(),(),.ATSTART.,.ATSTART.);
#855=IFCRELCONNECTSPATHELEMENTS('1oTTD7memc8Ipwi7h_aV97',#18,'0zXBy2YDL1xfJc51NsiwMl|0zXBy2YDL1xfJc51NsiwJR','Structural',$,#660,#686,(),(),.ATSTART.,.ATEND.);
#856=IFCRELCONNECTSPATHELEMENTS('01EAEbdF1$d$wjadhWQ8KN',#18,'0zXBy2YDL1xfJc51Nsivg2|0zXBy2YDL1xfJc51Nsival','Structural',$,#734,#797,(),(),.ATEND.,.ATEND.);
#857=IFCRELCONNECTSPATHELEMENTS('1zeneptTHQZvkCYrbpe0LK',#18,'0zXBy2YDL1xfJc51Nsivbu|0zXBy2YDL1xfJc51Nsival','Structural',$,#756,#797,(),(),.ATSTART.,.ATSTART.);
#858=IFCPRESENTATIONLAYERASSIGNMENT('A-AREA-____-OTLN',$,(#124,#151),$);
#859=IFCPRESENTATIONLAYERASSIGNMENT('A-WALL-____-OTLN',$,(#167,#194,#223,#230,#245,#252,#269,#293,#308,#315,#332,#356,#371,#378,#395,#419,#434,#446,#461,#473,#488,#500,#515,#527,#543,#553,#569,#579,#595,#605,#620,#631,#646,#658,#674,#684,#700,#710,#725,#732,#747,#754,#771,#795),$);
#860=IFCRELASSOCIATESCLASSIFICATION('2LqsnBD9lOpmf7l4TjoYSs',#18,'Exterior Walls','Exterior Walls:B2010',(#196,#232,#254,#295,#317,#358,#380,#421,#448,#475,#502,#529,#555,#581,#607,#633,#660,#686,#712,#734,#756,#797),#215);
#861=IFCUNITASSIGNMENT((#19,#122,#123));
ENDSEC;
END-ISO-10303-21;
