ISO-10303-21;
HEADER;
FILE_DESCRIPTION(('ViewDefinition [CoordinationView]','RevitIdentifiers [ContentGUID: cbb0ae2e-6350-4225-8ca4-af668662c38d, VersionGUID: ecac0971-e70c-4fe1-97db-275cbdc226a8, NumberOfSaves: 37]','CoordinateReference [CoordinateBase: Shared Coordinates]'),'2;1');
FILE_NAME('02_00_015.ifc','2026-01-19T15:54:06+01:00',(''),(''),'ODA SDAI 24.6','Autodesk Revit 24.3.30.11 (ENU) - IFC 24.3.30.11','');
FILE_SCHEMA(('IFC4X3'));
ENDSEC;
DATA;
#1=IFCORGANIZATION($,'Autodesk Revit 2024 (ENU)',$,$,$);
#2=IFCAPPLICATION(#1,'2024','Autodesk Revit 2024 (ENU)','Revit');
#3=IFCCARTESIANPOINT((0.,0.,0.));
#4=IFCCARTESIANPOINT((0.,0.));
#5=IFCDIRECTION((1.,0.,0.));
#6=IFCDIRECTION((-1.,0.,0.));
#7=IFCDIRECTION((0.,1.,0.));
#8=IFCDIRECTION((0.,-1.,0.));
#9=IFCDIRECTION((0.,0.,1.));
#10=IFCDIRECTION((0.,0.,-1.));
#11=IFCDIRECTION((1.,0.));
#12=IFCDIRECTION((-1.,0.));
#13=IFCDIRECTION((0.,1.));
#14=IFCDIRECTION((0.,-1.));
#15=IFCPERSON($,'','h.helming',$,$,$,$,$);
#16=IFCORGANIZATION($,'Organization Name','Organization Description',$,$);
#17=IFCPERSONANDORGANIZATION(#15,#16,$);
#18=IFCOWNERHISTORY(#17,#2,$,.NOCHANGE.,$,$,$,1768057432);
#19=IFCSIUNIT(*,.LENGTHUNIT.,.MILLI.,.METRE.);
#20=IFCAXIS2PLACEMENT3D(#3,$,$);
#21=IFCDIRECTION((6.12303176911189E-17,1.));
#22=IFCGEOMETRICREPRESENTATIONCONTEXT($,'Model',3,0.01,#20,#21);
#23=IFCGEOMETRICREPRESENTATIONSUBCONTEXT('Axis','Model',*,*,*,*,#22,$,.GRAPH_VIEW.,$);
#24=IFCGEOMETRICREPRESENTATIONSUBCONTEXT('Body','Model',*,*,*,*,#22,$,.MODEL_VIEW.,$);
#25=IFCGEOMETRICREPRESENTATIONSUBCONTEXT('Box','Model',*,*,*,*,#22,$,.MODEL_VIEW.,$);
#26=IFCGEOMETRICREPRESENTATIONSUBCONTEXT('FootPrint','Model',*,*,*,*,#22,$,.MODEL_VIEW.,$);
#27=IFCPROJECT('3BiAukOr129OoahsPvdJnz',#18,'Project Number',$,$,'Project Name','Project Status',(#22),#415);
#28=IFCCLASSIFICATION('CSI (Construction Specifications Institute)','1998',$,'Uniformat','UniFormat Classification','https://www.csiresources.org/standards/uniformat',$);
#29=IFCAXIS2PLACEMENT3D(#3,$,$);
#30=IFCLOCALPLACEMENT(#41,#29);
#31=IFCPOSTALADDRESS($,$,$,$,('Enter address hereAddress Line 2'),$,'','Boston','','MA');
#32=IFCBUILDING('3BiAukOr129OoahsPvdJny',#18,'Building Name',$,$,#30,$,'Building Name',.ELEMENT.,$,$,#31);
#33=IFCAXIS2PLACEMENT3D(#3,$,$);
#34=IFCLOCALPLACEMENT(#30,#33);
#35=IFCBUILDINGSTOREY('2JF4e6axWHqu3u0C1FZlmi',#18,'L1',$,'Level:8mm Head',#34,$,'L1',.ELEMENT.,0.);
#36=IFCCARTESIANPOINT((0.,0.,3000.));
#37=IFCAXIS2PLACEMENT3D(#36,$,$);
#38=IFCLOCALPLACEMENT(#30,#37);
#39=IFCBUILDINGSTOREY('1ZGO8hrFCHqw0v0026FpFv',#18,'L2',$,'Level:8mm Head',#38,$,'L2',.ELEMENT.,3000.);
#40=IFCAXIS2PLACEMENT3D(#3,$,$);
#41=IFCLOCALPLACEMENT($,#40);
#42=IFCSITE('3BiAukOr129OoahsPvdJn$',#18,'Default',$,$,#41,$,$,.ELEMENT.,(42,21,31,401672),(-71,-3,-24,-345703),0.,$,$);
#43=IFCPROPERTYSINGLEVALUE('Reference',$,IFCIDENTIFIER('Project Information'),$);
#44=IFCPROPERTYSET('2mFJcO6I01h0OYRLOICO3c',#18,'Pset_SiteCommon',$,(#43));
#45=IFCPROPERTYSINGLEVALUE('IsExternal',$,IFCBOOLEAN(.F.),$);
#46=IFCPROPERTYSET('0O$B2PbAODr9jYnpcaZGJT',#18,'Pset_SpaceCommon',$,(#43,#45));
#47=IFCRELDEFINESBYPROPERTIES('2fDrcjst0HFayqQ3dY1cGQ',#18,$,$,(#42),#44);
#48=IFCRELDEFINESBYPROPERTIES('1lYkP70lXSGXnZeJnLC8MY',#18,$,$,(#42),#46);
#55=IFCAXIS2PLACEMENT3D(#3,$,$);
#56=IFCLOCALPLACEMENT(#34,#55);
#57=IFCCARTESIANPOINT((2216.66666666667,9200.,3048.));
#58=IFCCARTESIANPOINT((-2216.66666666668,9200.,3048.));
#59=IFCCARTESIANPOINT((-1850.,8980.,3048.));
#60=IFCCARTESIANPOINT((1850.,8980.,3048.));
#61=IFCPOLYLOOP((#57,#58,#59,#60));
#62=IFCFACEOUTERBOUND(#61,.T.);
#63=IFCFACE((#62));
#64=IFCCARTESIANPOINT((2350.,4900.,0.));
#65=IFCCARTESIANPOINT((-2350.,4900.,0.));
#66=IFCCARTESIANPOINT((-2350.,9200.,0.));
#67=IFCCARTESIANPOINT((2350.,9200.,0.));
#68=IFCPOLYLOOP((#64,#65,#66,#67));
#69=IFCFACEOUTERBOUND(#68,.T.);
#70=IFCFACE((#69));
#71=IFCCARTESIANPOINT((2350.,4900.,2695.2));
#72=IFCCARTESIANPOINT((-2350.,4900.,2695.2));
#73=IFCPOLYLOOP((#65,#64,#71,#72));
#74=IFCFACEOUTERBOUND(#73,.T.);
#75=IFCFACE((#74));
#76=IFCCARTESIANPOINT((2350.,9200.,2695.2));
#77=IFCPOLYLOOP((#64,#67,#76,#71));
#78=IFCFACEOUTERBOUND(#77,.T.);
#79=IFCFACE((#78));
#80=IFCCARTESIANPOINT((-2350.,9200.,2695.2));
#81=IFCCARTESIANPOINT((-2216.66666666668,9200.,2695.2));
#82=IFCCARTESIANPOINT((2216.66666666667,9200.,2695.2));
#83=IFCPOLYLOOP((#67,#66,#80,#81,#58,#57,#82,#76));
#84=IFCFACEOUTERBOUND(#83,.T.);
#85=IFCFACE((#84));
#86=IFCPOLYLOOP((#66,#65,#72,#80));
#87=IFCFACEOUTERBOUND(#86,.T.);
#88=IFCFACE((#87));
#89=IFCCARTESIANPOINT((1850.,8980.,2695.2));
#90=IFCCARTESIANPOINT((-1850.,8980.,2695.2));
#91=IFCPOLYLOOP((#89,#90,#81,#80,#72,#71,#76,#82));
#92=IFCFACEOUTERBOUND(#91,.T.);
#93=IFCFACE((#92));
#94=IFCPOLYLOOP((#90,#89,#60,#59));
#95=IFCFACEOUTERBOUND(#94,.T.);
#96=IFCFACE((#95));
#97=IFCPOLYLOOP((#89,#82,#57,#60));
#98=IFCFACEOUTERBOUND(#97,.T.);
#99=IFCFACE((#98));
#100=IFCPOLYLOOP((#81,#90,#59,#58));
#101=IFCFACEOUTERBOUND(#100,.T.);
#102=IFCFACE((#101));
#103=IFCCLOSEDSHELL((#63,#70,#75,#79,#85,#88,#93,#96,#99,#102));
#104=IFCFACETEDBREP(#103);
#105=IFCSHAPEREPRESENTATION(#24,'Body','Brep',(#104));
#106=IFCPRODUCTDEFINITIONSHAPE($,$,(#105));
#107=IFCSIUNIT(*,.AREAUNIT.,$,.SQUARE_METRE.);
#108=IFCSPACE('3BWdP87i9Ef9$qXUk0Qt5_',#18,'132',$,$,#56,#106,'room',.ELEMENT.,.NOTDEFINED.,$);
#109=IFCSPACETYPE('3BWdP87i9Ef9$qZUk0Qt5_',#18,'room 132:1612841',$,$,$,$,'1612841',$,.NOTDEFINED.,$);
#110=IFCPROPERTYSINGLEVALUE('Reference',$,IFCIDENTIFIER('room 132'),$);
#111=IFCPROPERTYSET('3pKBjU967l5MwYvUMLmL0R',#18,'Pset_SpaceCommon',$,(#45,#110));
#112=IFCPROPERTYSET('2MRn3RVfV1XtNtToRpFYQq',#18,'Pset_SpaceHeaterTypeCommon',$,(#110));
#113=IFCRELDEFINESBYPROPERTIES('2K5AHPLhqRFwARqi9lX5Cl',#18,$,$,(#108),#111);
#114=IFCRELDEFINESBYPROPERTIES('33ADVs97TQqyQDBRnR$Gjl',#18,$,$,(#108),#112);
#117=IFCCARTESIANPOINT((-2350.,4800.,0.));
#118=IFCAXIS2PLACEMENT3D(#117,$,$);
#119=IFCLOCALPLACEMENT(#34,#118);
#120=IFCCARTESIANPOINT((4700.,0.));
#121=IFCPOLYLINE((#4,#120));
#122=IFCSHAPEREPRESENTATION(#23,'Axis','Curve2D',(#121));
#123=IFCCARTESIANPOINT((2349.99999999999,-1.91846538655227E-13));
#124=IFCAXIS2PLACEMENT2D(#123,#12);
#125=IFCRECTANGLEPROFILEDEF(.AREA.,$,#124,4699.99999999998,199.999999999999);
#126=IFCAXIS2PLACEMENT3D(#3,$,$);
#127=IFCEXTRUDEDAREASOLID(#125,#126,#9,2695.2);
#128=IFCCARTESIANPOINT((4700.,0.));
#129=IFCCARTESIANPOINT((4700.,200.));
#130=IFCCARTESIANPOINT((-0.,200.));
#131=IFCPOLYLINE((#4,#128,#129,#130,#4));
#132=IFCCARTESIANPOINT((0.,-100.,2695.2));
#133=IFCAXIS2PLACEMENT3D(#132,#10,#6);
#134=IFCPLANE(#133);
#135=IFCCARTESIANPOINT((0.,-100.,2695.2));
#136=IFCAXIS2PLACEMENT3D(#135,$,$);
#137=IFCPOLYGONALBOUNDEDHALFSPACE(#134,.T.,#136,#131);
#138=IFCBOOLEANCLIPPINGRESULT(.DIFFERENCE.,#127,#137);
#139=IFCCOLOURRGB($,0.752941176470588,0.752941176470588,0.752941176470588);
#140=IFCSURFACESTYLERENDERING(#139,0.,$,$,$,$,IFCNORMALISEDRATIOMEASURE(0.5),IFCSPECULAREXPONENT(10.),.NOTDEFINED.);
#141=IFCSURFACESTYLE('Default Wall',.BOTH.,(#140));
#142=IFCSTYLEDITEM(#127,(#141),$);
#143=IFCSHAPEREPRESENTATION(#24,'Body','Clipping',(#138));
#144=IFCPRODUCTDEFINITIONSHAPE($,$,(#122,#143));
#145=IFCWALL('3BWdP87i9Ef9$qXUk0QtZE',#18,'Basic Wall:Generic - 200mm:1611161',$,'Basic Wall:Generic - 200mm',#119,#144,'1611161',.NOTDEFINED.);
#146=IFCMATERIAL('Default Wall',$,'Miscellaneous');
#147=IFCSTYLEDITEM($,(#141),$);
#148=IFCSTYLEDREPRESENTATION(#22,'Style','Material',(#147));
#149=IFCMATERIALDEFINITIONREPRESENTATION($,$,(#148),#146);
#150=IFCMATERIALLAYER(#146,200.,$,'Layer',$,'Miscellaneous',$);
#151=IFCMATERIALLAYERSET((#150),'Basic Wall:Generic - 200mm',$);
#152=IFCWALLTYPE('1xZrMVYp52mhf4uMzw11Hk',#18,'Basic Wall:Generic - 200mm',$,$,(#166),$,'441451',$,.STANDARD.);
#153=IFCPROPERTYSINGLEVALUE('Reference',$,IFCIDENTIFIER('Generic - 200mm'),$);
#154=IFCPROPERTYSET('1735SIrQKwN2CGvfp1jRlu',#18,'Pset_EnvironmentalImpactIndicators',$,(#153));
#155=IFCPROPERTYSINGLEVALUE('Reference',$,IFCLABEL('Generic - 200mm'),$);
#156=IFCPROPERTYSET('2KVYgM5YsNhlsQDf7LOtIF',#18,'Pset_ReinforcementBarPitchOfWall',$,(#155));
#157=IFCPROPERTYSINGLEVALUE('IsExternal',$,IFCBOOLEAN(.T.),$);
#158=IFCPROPERTYSINGLEVALUE('LoadBearing',$,IFCBOOLEAN(.F.),$);
#159=IFCPROPERTYSINGLEVALUE('ExtendToStructure',$,IFCBOOLEAN(.T.),$);
#160=IFCPROPERTYSET('1pxbEQAuhkAUXIWRK_AMfp',#18,'Pset_WallCommon',$,(#153,#157,#158,#159));
#161=IFCRELDEFINESBYPROPERTIES('1cDiolv8m$N5hpboBG8XOl',#18,$,$,(#145),#154);
#162=IFCRELDEFINESBYPROPERTIES('261lE4m108YXaBLRMrKqNx',#18,$,$,(#145),#156);
#163=IFCRELDEFINESBYPROPERTIES('0HjrH_A8mocs7uv4zpa$2O',#18,$,$,(#145),#160);
#164=IFCCLASSIFICATIONREFERENCE('https://www.csiresources.org/standards/uniformat','B2010','Exterior Walls',#28,'',$);
#165=IFCPROPERTYSINGLEVALUE('Description',$,IFCTEXT('Generic Wall (Material By Category), 200mm thick'),$);
#166=IFCPROPERTYSET('2L7lvTstnIeeydfwzfZZLR',#18,'Pset_ReinforcementBarPitchOfWall',$,(#165));
#167=IFCCARTESIANPOINT((-2450.,9400.,0.));
#168=IFCAXIS2PLACEMENT3D(#167,#9,#8);
#169=IFCLOCALPLACEMENT(#34,#168);
#170=IFCCARTESIANPOINT((9400.,0.));
#171=IFCPOLYLINE((#4,#170));
#172=IFCSHAPEREPRESENTATION(#23,'Axis','Curve2D',(#171));
#173=IFCCARTESIANPOINT((4700.00000000002,-1.13686837721616E-13));
#174=IFCAXIS2PLACEMENT2D(#173,#12);
#175=IFCRECTANGLEPROFILEDEF(.AREA.,$,#174,9400.00000000004,200.);
#176=IFCAXIS2PLACEMENT3D(#3,$,$);
#177=IFCEXTRUDEDAREASOLID(#175,#176,#9,2700.);
#178=IFCSTYLEDITEM(#177,(#141),$);
#179=IFCSHAPEREPRESENTATION(#24,'Body','SweptSolid',(#177));
#180=IFCPRODUCTDEFINITIONSHAPE($,$,(#172,#179));
#181=IFCWALL('3BWdP87i9Ef9$qXUk0QtfL',#18,'Basic Wall:Generic - 200mm:1611522',$,'Basic Wall:Generic - 200mm',#169,#180,'1611522',.NOTDEFINED.);
#182=IFCPROPERTYSET('2NCZln9z90jZ0ziND6iiTC',#18,'Pset_EnvironmentalImpactIndicators',$,(#153));
#183=IFCPROPERTYSINGLEVALUE('Reference',$,IFCLABEL('Generic - 200mm'),$);
#184=IFCPROPERTYSET('2B$8PrvvJraqTtvI1Ih96a',#18,'Pset_ReinforcementBarPitchOfWall',$,(#183));
#185=IFCPROPERTYSINGLEVALUE('ExtendToStructure',$,IFCBOOLEAN(.F.),$);
#186=IFCPROPERTYSET('2NpMF0Ra$X5hs1NFpdGXra',#18,'Pset_WallCommon',$,(#153,#157,#158,#185));
#187=IFCRELDEFINESBYPROPERTIES('3Gr6VdzOV082jOXrfuM9rD',#18,$,$,(#181),#182);
#188=IFCRELDEFINESBYPROPERTIES('1_FohTNIcpSY2fHDq834ml',#18,$,$,(#181),#184);
#189=IFCRELDEFINESBYPROPERTIES('1eD23GFASbtZQf0X0xAR3w',#18,$,$,(#181),#186);
#190=IFCCARTESIANPOINT((2550.,9300.,0.));
#191=IFCAXIS2PLACEMENT3D(#190,#9,#6);
#192=IFCLOCALPLACEMENT(#34,#191);
#193=IFCCARTESIANPOINT((4900.,0.));
#194=IFCPOLYLINE((#4,#193));
#195=IFCSHAPEREPRESENTATION(#23,'Axis','Curve2D',(#194));
#196=IFCCARTESIANPOINT((2450.,2.41584530158434E-13));
#197=IFCAXIS2PLACEMENT2D(#196,#12);
#198=IFCRECTANGLEPROFILEDEF(.AREA.,$,#197,4900.00000000001,200.);
#199=IFCAXIS2PLACEMENT3D(#3,$,$);
#200=IFCEXTRUDEDAREASOLID(#198,#199,#9,2700.);
#201=IFCSTYLEDITEM(#200,(#141),$);
#202=IFCSHAPEREPRESENTATION(#24,'Body','SweptSolid',(#200));
#203=IFCPRODUCTDEFINITIONSHAPE($,$,(#195,#202));
#204=IFCWALL('3BWdP87i9Ef9$qXUk0QtIo',#18,'Basic Wall:Generic - 200mm:1612261',$,'Basic Wall:Generic - 200mm',#192,#203,'1612261',.NOTDEFINED.);
#205=IFCPROPERTYSET('1Rnld6Rpmtn8siZk2CfvHf',#18,'Pset_EnvironmentalImpactIndicators',$,(#153));
#206=IFCPROPERTYSINGLEVALUE('Reference',$,IFCLABEL('Generic - 200mm'),$);
#207=IFCPROPERTYSET('0iTrBuc_KdTlme6cn3oGWs',#18,'Pset_ReinforcementBarPitchOfWall',$,(#206));
#208=IFCPROPERTYSET('2sQtwgsL1Df9PJCmL$4RbM',#18,'Pset_WallCommon',$,(#153,#157,#158,#185));
#209=IFCRELDEFINESBYPROPERTIES('0mC7e$Bdq6dfC3X0k$e4Su',#18,$,$,(#204),#205);
#210=IFCRELDEFINESBYPROPERTIES('0uCUXx3RV9X7iPx_e8ApOr',#18,$,$,(#204),#207);
#211=IFCRELDEFINESBYPROPERTIES('0jHV8fv59jA9U2YuTu7vs1',#18,$,$,(#204),#208);
#212=IFCCARTESIANPOINT((2450.,0.,0.));
#213=IFCAXIS2PLACEMENT3D(#212,#9,#7);
#214=IFCLOCALPLACEMENT(#34,#213);
#215=IFCCARTESIANPOINT((9200.,-0.));
#216=IFCPOLYLINE((#4,#215));
#217=IFCSHAPEREPRESENTATION(#23,'Axis','Curve2D',(#216));
#218=IFCCARTESIANPOINT((4600.00000000001,-7.8159700933611E-14));
#219=IFCAXIS2PLACEMENT2D(#218,#12);
#220=IFCRECTANGLEPROFILEDEF(.AREA.,$,#219,9200.00000000001,200.);
#221=IFCAXIS2PLACEMENT3D(#3,$,$);
#222=IFCEXTRUDEDAREASOLID(#220,#221,#9,2695.2);
#223=IFCCARTESIANPOINT((9200.,-0.));
#224=IFCCARTESIANPOINT((9200.,200.));
#225=IFCCARTESIANPOINT((4900.,200.));
#226=IFCCARTESIANPOINT((4700.,200.));
#227=IFCCARTESIANPOINT((200.,200.));
#228=IFCCARTESIANPOINT((-0.,200.));
#229=IFCPOLYLINE((#4,#223,#224,#225,#226,#227,#228,#4));
#230=IFCCARTESIANPOINT((0.,-100.,2695.2));
#231=IFCAXIS2PLACEMENT3D(#230,#10,#7);
#232=IFCPLANE(#231);
#233=IFCCARTESIANPOINT((0.,-100.,2695.2));
#234=IFCAXIS2PLACEMENT3D(#233,$,$);
#235=IFCPOLYGONALBOUNDEDHALFSPACE(#232,.T.,#234,#229);
#236=IFCBOOLEANCLIPPINGRESULT(.DIFFERENCE.,#222,#235);
#237=IFCSTYLEDITEM(#222,(#141),$);
#238=IFCSHAPEREPRESENTATION(#24,'Body','Clipping',(#236));
#239=IFCPRODUCTDEFINITIONSHAPE($,$,(#217,#238));
#240=IFCWALL('3BWdP87i9Ef9$qXUk0QtIn',#18,'Basic Wall:Generic - 200mm:1612262',$,'Basic Wall:Generic - 200mm',#214,#239,'1612262',.NOTDEFINED.);
#241=IFCPROPERTYSET('1XKVunZ6pjd3JGdcnNLiUU',#18,'Pset_EnvironmentalImpactIndicators',$,(#153));
#242=IFCPROPERTYSINGLEVALUE('Reference',$,IFCLABEL('Generic - 200mm'),$);
#243=IFCPROPERTYSET('3D55CqpN1VW5s1MKuGe5$t',#18,'Pset_ReinforcementBarPitchOfWall',$,(#242));
#244=IFCPROPERTYSET('0RwYKLedftHjuT_nJEqX9J',#18,'Pset_WallCommon',$,(#153,#157,#158,#159));
#245=IFCRELDEFINESBYPROPERTIES('0IiMQ1IV7IatyUTYv2L9F4',#18,$,$,(#240),#241);
#246=IFCRELDEFINESBYPROPERTIES('35A5v6FIaoU3yCU6S03qKI',#18,$,$,(#240),#243);
#247=IFCRELDEFINESBYPROPERTIES('0tjyeAL3lLX5QxvBN3fqgp',#18,$,$,(#240),#244);
#248=IFCAXIS2PLACEMENT3D(#3,$,$);
#249=IFCLOCALPLACEMENT(#38,#248);
#250=IFCCARTESIANPOINT((-6126.66666666668,-2550.));
#251=IFCCARTESIANPOINT((3273.33333333338,-2550.));
#252=IFCCARTESIANPOINT((2853.33333333334,-1850.));
#253=IFCCARTESIANPOINT((2853.3333333333,1850.));
#254=IFCCARTESIANPOINT((3273.33333333334,2550.));
#255=IFCCARTESIANPOINT((-6126.66666666668,2550.));
#256=IFCPOLYLINE((#250,#251,#252,#253,#254,#255,#250));
#257=IFCARBITRARYCLOSEDPROFILEDEF(.AREA.,$,#256);
#258=IFCCARTESIANPOINT((0.,6126.66666666667,0.));
#259=IFCAXIS2PLACEMENT3D(#258,#10,#7);
#260=IFCEXTRUDEDAREASOLID(#257,#259,#9,304.8);
#261=IFCCARTESIANPOINT((-3.41060513164848E-13,4.54747350886464E-13));
#262=IFCAXIS2PLACEMENT2D(#261,#11);
#263=IFCRECTANGLEPROFILEDEF(.AREA.,$,#262,800.,3099.99999999996);
#264=IFCCARTESIANPOINT((0.,1550.,-304.8));
#265=IFCAXIS2PLACEMENT3D(#264,#9,#7);
#266=IFCEXTRUDEDAREASOLID(#263,#265,#9,304.8);
#267=IFCBOOLEANRESULT(.DIFFERENCE.,#260,#266);
#268=IFCCOLOURRGB($,0.501960784313725,0.501960784313725,0.501960784313725);
#269=IFCSURFACESTYLERENDERING(#268,0.,$,$,$,$,IFCNORMALISEDRATIOMEASURE(0.5),IFCSPECULAREXPONENT(10.),.NOTDEFINED.);
#270=IFCSURFACESTYLE('Default Floor',.BOTH.,(#269));
#271=IFCSTYLEDITEM(#260,(#270),$);
#272=IFCSHAPEREPRESENTATION(#24,'Body','SweptSolid',(#267));
#273=IFCSIUNIT(*,.PLANEANGLEUNIT.,$,.RADIAN.);
#274=IFCDIMENSIONALEXPONENTS(0,0,0,0,0,0,0);
#275=IFCMEASUREWITHUNIT(IFCPLANEANGLEMEASURE(0.0174532925199433),#273);
#276=IFCCONVERSIONBASEDUNIT(#274,.PLANEANGLEUNIT.,'DEGREE',#275);
#277=IFCPRODUCTDEFINITIONSHAPE($,$,(#272));
#278=IFCSLAB('3BWdP87i9Ef9$qXUk0Qt1L',#18,'Floor:Generic - 12":1613058',$,'Floor:Generic - 12"',#249,#277,'1613058',.FLOOR.);
#279=IFCCARTESIANPOINT((-4.54747350886464E-13,-5.6843418860808E-14));
#280=IFCAXIS2PLACEMENT2D(#279,#11);
#281=IFCRECTANGLEPROFILEDEF(.AREA.,$,#280,3099.99999999996,800.);
#282=IFCCARTESIANPOINT((0.,1550.,-304.8));
#283=IFCAXIS2PLACEMENT3D(#282,#9,#6);
#284=IFCEXTRUDEDAREASOLID(#281,#283,#9,304.8);
#285=IFCSHAPEREPRESENTATION(#24,'Body','SweptSolid',(#284));
#286=IFCPRODUCTDEFINITIONSHAPE($,$,(#285));
#287=IFCAXIS2PLACEMENT3D(#3,$,$);
#288=IFCLOCALPLACEMENT(#249,#287);
#289=IFCOPENINGELEMENT('0XI88T_W_RJ7qJ$cssyhTm',#18,'Floor:Generic - 12":441449',$,$,#288,#286,'1617568',.OPENING.);
#290=IFCRELVOIDSELEMENT('3Z12nqdi6Qw_bIUAdg3TEm',#18,$,$,#278,#289);
#291=IFCSLABTYPE('1xZrMVYp52mhf4uMzw11Hi',#18,'Floor:Generic - 12"',$,$,(#315),$,'441449',$,.FLOOR.);
#292=IFCMATERIAL('Default Floor',$,'Miscellaneous');
#293=IFCSTYLEDITEM($,(#270),$);
#294=IFCSTYLEDREPRESENTATION(#22,'Style','Material',(#293));
#295=IFCMATERIALDEFINITIONREPRESENTATION($,$,(#294),#292);
#296=IFCMATERIALLAYER(#292,304.8,$,'Layer',$,'Miscellaneous',$);
#297=IFCMATERIALLAYERSET((#296),'Floor:Generic - 12"',$);
#298=IFCMATERIALLAYERSETUSAGE(#297,.AXIS3.,.POSITIVE.,0.,$);
#299=IFCPROPERTYSINGLEVALUE('Reference',$,IFCIDENTIFIER('Generic - 12"'),$);
#300=IFCPROPERTYSET('1IwU$BdG8DdcDYF6Qyj3nR',#18,'Pset_EnvironmentalImpactIndicators',$,(#299));
#301=IFCPROPERTYSINGLEVALUE('Reference',$,IFCLABEL('Generic - 12"'),$);
#302=IFCPROPERTYSET('0tCQxOJSh3owr3bAJjcwpI',#18,'Pset_ReinforcementBarPitchOfSlab',$,(#301));
#303=IFCPROPERTYSINGLEVALUE('PitchAngle',$,IFCPLANEANGLEMEASURE(0.),$);
#304=IFCPROPERTYSINGLEVALUE('LoadBearing',$,IFCBOOLEAN(.T.),$);
#305=IFCPROPERTYSET('3xAvM5uCQDYgQYiUCefnIx',#18,'Pset_SlabCommon',$,(#45,#299,#303,#304));
#306=IFCPROPERTYSET('32ZXk_wYBe3H2K3mO0GJhx',#18,'Pset_EnvironmentalImpactIndicators',$,(#299));
#307=IFCPROPERTYSET('18DQPZvQYVxmtJHFARQyxL',#18,'Pset_OpeningElementCommon',$,(#299));
#308=IFCRELDEFINESBYPROPERTIES('21d9wNTnfNwEAkNOb3zy9c',#18,$,$,(#278),#300);
#309=IFCRELDEFINESBYPROPERTIES('0KRqMkGPDq0JO00L4UJVLl',#18,$,$,(#278),#302);
#310=IFCRELDEFINESBYPROPERTIES('2Hv5ts0zu0DSKDbx5jADqn',#18,$,$,(#278),#305);
#311=IFCRELDEFINESBYPROPERTIES('1cMasihJ2QTzJKcbKZDbib',#18,$,$,(#289),#306);
#312=IFCRELDEFINESBYPROPERTIES('3LJzI9NO1n6caLwdkOYrMh',#18,$,$,(#289),#307);
#313=IFCCLASSIFICATIONREFERENCE('https://www.csiresources.org/standards/uniformat','B1010','Floor Construction',#28,'',$);
#314=IFCPROPERTYSINGLEVALUE('Description',$,IFCTEXT('Generic Floor (Material By Category), 12" thick'),$);
#315=IFCPROPERTYSET('08jeqqdMvr9oQ2sJw84keo',#18,'Pset_ReinforcementBarPitchOfSlab',$,(#314));
#316=IFCAXIS2PLACEMENT3D(#3,$,$);
#317=IFCLOCALPLACEMENT(#34,#316);
#318=IFCCARTESIANPOINT((-8.18545231595635E-12,0.));
#319=IFCAXIS2PLACEMENT2D(#318,#11);
#320=IFCRECTANGLEPROFILEDEF(.AREA.,$,#319,9400.00000000004,5100.00000000001);
#321=IFCCARTESIANPOINT((0.,4700.,0.));
#322=IFCAXIS2PLACEMENT3D(#321,#10,#7);
#323=IFCEXTRUDEDAREASOLID(#320,#322,#9,304.8);
#324=IFCSTYLEDITEM(#323,(#270),$);
#325=IFCSHAPEREPRESENTATION(#24,'Body','SweptSolid',(#323));
#326=IFCPRODUCTDEFINITIONSHAPE($,$,(#325));
#327=IFCSLAB('2H5TLOwizBKQwVo6B60DrC',#18,'Floor:Generic - 12":1617163',$,'Floor:Generic - 12"',#317,#326,'1617163',.FLOOR.);
#328=IFCMATERIALLAYERSETUSAGE(#297,.AXIS3.,.POSITIVE.,0.,$);
#329=IFCPROPERTYSET('3s4nlauAEuJtsaMgvib2MH',#18,'Pset_EnvironmentalImpactIndicators',$,(#299));
#330=IFCPROPERTYSINGLEVALUE('Reference',$,IFCLABEL('Generic - 12"'),$);
#331=IFCPROPERTYSET('2CyPAZp8jBle_SC9zzP5_F',#18,'Pset_ReinforcementBarPitchOfSlab',$,(#330));
#332=IFCPROPERTYSET('0VK_q0w99ku7R9TRodifHV',#18,'Pset_SlabCommon',$,(#45,#299,#303,#304));
#333=IFCRELDEFINESBYPROPERTIES('3GKsdQuChNMNH6T9eLcLrm',#18,$,$,(#327),#329);
#334=IFCRELDEFINESBYPROPERTIES('2kUx0gNwrAz83UasCRPptM',#18,$,$,(#327),#331);
#335=IFCRELDEFINESBYPROPERTIES('2dJis1oGsEzoFGdlD4V0Vs',#18,$,$,(#327),#332);
#336=IFCCARTESIANPOINT((-2350.,100.,0.));
#337=IFCAXIS2PLACEMENT3D(#336,$,$);
#338=IFCLOCALPLACEMENT(#34,#337);
#339=IFCCARTESIANPOINT((4700.,0.));
#340=IFCPOLYLINE((#4,#339));
#341=IFCSHAPEREPRESENTATION(#23,'Axis','Curve2D',(#340));
#342=IFCCARTESIANPOINT((2349.99999999997,-2.1316282072803E-14));
#343=IFCAXIS2PLACEMENT2D(#342,#12);
#344=IFCRECTANGLEPROFILEDEF(.AREA.,$,#343,4699.99999999995,200.);
#345=IFCAXIS2PLACEMENT3D(#3,$,$);
#346=IFCEXTRUDEDAREASOLID(#344,#345,#9,2695.2);
#347=IFCCARTESIANPOINT((4700.,0.));
#348=IFCCARTESIANPOINT((4700.,200.));
#349=IFCCARTESIANPOINT((-0.,200.));
#350=IFCPOLYLINE((#4,#347,#348,#349,#4));
#351=IFCCARTESIANPOINT((0.,-100.,2695.2));
#352=IFCAXIS2PLACEMENT3D(#351,#10,#6);
#353=IFCPLANE(#352);
#354=IFCCARTESIANPOINT((0.,-100.,2695.2));
#355=IFCAXIS2PLACEMENT3D(#354,$,$);
#356=IFCPOLYGONALBOUNDEDHALFSPACE(#353,.T.,#355,#350);
#357=IFCBOOLEANCLIPPINGRESULT(.DIFFERENCE.,#346,#356);
#358=IFCSTYLEDITEM(#346,(#141),$);
#359=IFCSHAPEREPRESENTATION(#24,'Body','Clipping',(#357));
#360=IFCPRODUCTDEFINITIONSHAPE($,$,(#341,#359));
#361=IFCWALL('0qApQT8sfFNwaVsyOT7QoU',#18,'Basic Wall:Generic - 200mm:1617476',$,'Basic Wall:Generic - 200mm',#338,#360,'1617476',.NOTDEFINED.);
#362=IFCPROPERTYSET('0ZmqFgV_n75IFM1pd3GSOG',#18,'Pset_EnvironmentalImpactIndicators',$,(#153));
#363=IFCPROPERTYSINGLEVALUE('Reference',$,IFCLABEL('Generic - 200mm'),$);
#364=IFCPROPERTYSET('2y4cYk8Wf1wjCZa55rg9pk',#18,'Pset_ReinforcementBarPitchOfWall',$,(#363));
#365=IFCPROPERTYSET('3sbTteMJ1UKALGOrIdhtPp',#18,'Pset_WallCommon',$,(#153,#157,#158,#159));
#366=IFCRELDEFINESBYPROPERTIES('11vcOyTBncWFnc24cOStS1',#18,$,$,(#361),#362);
#367=IFCRELDEFINESBYPROPERTIES('2DL3zYWBceqG3xJhhOgFeD',#18,$,$,(#361),#364);
#368=IFCRELDEFINESBYPROPERTIES('1598c4ZQlIJL8wJoJALMMQ',#18,$,$,(#361),#365);
#369=IFCPROPERTYSINGLEVALUE('Reference',$,IFCIDENTIFIER('8mm Head'),$);
#370=IFCPROPERTYSINGLEVALUE('AboveGround',$,IFCLOGICAL(.U.),$);
#371=IFCPROPERTYSET('16L50AfyZF4hYq5TGET4H4',#18,'Pset_BuildingStoreyCommon',$,(#369,#370));
#372=IFCPROPERTYSET('2J7ac_h5ujdwWuzVwBIIta',#18,'Pset_SpaceCommon',$,(#45,#369));
#373=IFCRELDEFINESBYPROPERTIES('2VdfSfkgzGoZi_3SgzE8$0',#18,$,$,(#35),#371);
#374=IFCRELDEFINESBYPROPERTIES('3$YdOpA8iaPobC8MDiWxoI',#18,$,$,(#35),#372);
#375=IFCRELCONTAINEDINSPATIALSTRUCTURE('2JF4e6axWHqu3u0C5FZlmi',#18,$,$,(#145,#181,#204,#240,#327,#361),#35);
#376=IFCPROPERTYSET('1n34enW33Z_3Qq2Pm1kjQZ',#18,'Pset_BuildingStoreyCommon',$,(#369,#370));
#377=IFCPROPERTYSET('0qNc4$IaPwTvoqOd7IlIE4',#18,'Pset_SpaceCommon',$,(#45,#369));
#378=IFCRELDEFINESBYPROPERTIES('36oM8gyLQ5_Z6XoGK5uP1E',#18,$,$,(#39),#376);
#379=IFCRELDEFINESBYPROPERTIES('0jA6Vdz$3CfPvu_I1iTL6J',#18,$,$,(#39),#377);
#380=IFCRELCONTAINEDINSPATIALSTRUCTURE('1ZGO8hrFCHqw0v0066FpFv',#18,$,$,(#278),#39);
#381=IFCRELAGGREGATES('2KFB6YYWgXBmucZ8cm7uCP',#18,$,$,#27,(#42));
#382=IFCRELAGGREGATES('16_hfJTeCqU7LcG8m10BTS',#18,$,$,#42,(#32));
#383=IFCRELAGGREGATES('2JF4e6axWHqu3u0C9FZlmi',#18,$,$,#35,(#108));
#384=IFCRELAGGREGATES('1yhDISh1T5aQqAoygxGIhP',#18,$,$,#32,(#35,#39));
#385=IFCPROPERTYSINGLEVALUE('NumberOfStoreys',$,IFCCOUNTMEASURE(2),$);
#386=IFCPROPERTYSINGLEVALUE('IsLandmarked',$,IFCLOGICAL(.U.),$);
#387=IFCPROPERTYSET('01y_GmllCupEYuBgfGbhkd',#18,'Pset_BuildingCommon',$,(#43,#385,#386));
#388=IFCPROPERTYSET('1rUR7OGyIAkZT62xvibLnd',#18,'Pset_BuildingElementProxyCommon',$,(#43,#45));
#389=IFCPROPERTYSET('2kFDjjfIaTsBi7MLK$i$Me',#18,'Pset_BuildingStoreyCommon',$,(#43,#370));
#390=IFCPROPERTYSET('1TYvb3FgH88mtl04iE5P1T',#18,'Pset_BuildingSystemCommon',$,(#43));
#391=IFCPROPERTYSET('2W94HCj5xfigmNGtkBMklk',#18,'Pset_SpaceCommon',$,(#43,#45));
#392=IFCRELDEFINESBYPROPERTIES('0vDjba2fshDEh0_KufwWht',#18,$,$,(#32),#387);
#393=IFCRELDEFINESBYPROPERTIES('1V6UQfELB4oPy3GPEaJMPw',#18,$,$,(#32),#388);
#394=IFCRELDEFINESBYPROPERTIES('0Vpd75HttOMIhzXutBGgCt',#18,$,$,(#32),#389);
#395=IFCRELDEFINESBYPROPERTIES('22VMRBFW9n6_S81yWIP225',#18,$,$,(#32),#390);
#396=IFCRELDEFINESBYPROPERTIES('2w3bzVlKnfBVjA3_BjG2II',#18,$,$,(#32),#391);
#397=IFCRELASSOCIATESMATERIAL('31ODteGeqYe3mTR_$OKsSW',#18,$,$,(#278),#298);
#398=IFCRELASSOCIATESMATERIAL('3clL8OfAp8_tVM_LM04ZVR',#18,$,$,(#327),#328);
#399=IFCRELASSOCIATESMATERIAL('22T9r9KB1F3JFgePfxkUGp',#18,$,$,(#145,#152,#181,#204,#240,#361),#151);
#400=IFCRELASSOCIATESMATERIAL('0RkFpO4y91A56i7kETvvWZ',#18,$,$,(#291),#297);
#401=IFCRELDEFINESBYTYPE('1X3uvt60Y7I7mPakK1xm_g',#18,$,$,(#108),#109);
#402=IFCRELDEFINESBYTYPE('0MSq_ijuC5q4PUKv4QkOsA',#18,$,$,(#145,#181,#204,#240,#361),#152);
#403=IFCRELDEFINESBYTYPE('3AVJtbOHyTnujdziMMd$qq',#18,$,$,(#278,#327),#291);
#404=IFCRELCONNECTSPATHELEMENTS('0ZTtx9iuO1He$LGA53AgFI',#18,'3BWdP87i9Ef9$qXUk0QtZE|3BWdP87i9Ef9$qXUk0QtfL','Structural',$,#145,#181,(),(),.ATPATH.,.ATSTART.);
#405=IFCRELCONNECTSPATHELEMENTS('2rGAz18IBgmU15_oBs$wmX',#18,'3BWdP87i9Ef9$qXUk0QtZE|3BWdP87i9Ef9$qXUk0QtIn','Structural',$,#145,#240,(),(),.ATPATH.,.ATEND.);
#406=IFCRELCONNECTSPATHELEMENTS('2x5Iwp2GJP1yg5E3u72Xp1',#18,'3BWdP87i9Ef9$qXUk0QtfL|3BWdP87i9Ef9$qXUk0QtIo','Structural',$,#181,#204,(),(),.ATEND.,.ATSTART.);
#407=IFCRELCONNECTSPATHELEMENTS('0IWQKeORJrYeDfPNyO38yv',#18,'3BWdP87i9Ef9$qXUk0QtfL|0qApQT8sfFNwaVsyOT7QoU','Structural',$,#181,#361,(),(),.ATSTART.,.ATEND.);
#408=IFCRELCONNECTSPATHELEMENTS('2_TZNXnelvIwEoSaDJ11kR',#18,'3BWdP87i9Ef9$qXUk0QtIo|3BWdP87i9Ef9$qXUk0QtIn','Structural',$,#204,#240,(),(),.ATEND.,.ATSTART.);
#409=IFCRELCONNECTSPATHELEMENTS('2yIwFru9FHCiiDVYpqfL7T',#18,'3BWdP87i9Ef9$qXUk0QtIn|0qApQT8sfFNwaVsyOT7QoU','Structural',$,#240,#361,(),(),.ATEND.,.ATSTART.);
#410=IFCPRESENTATIONLAYERASSIGNMENT('A-AREA-____-OTLN',$,(#105),$);
#411=IFCPRESENTATIONLAYERASSIGNMENT('A-WALL-____-OTLN',$,(#122,#143,#172,#179,#195,#202,#217,#238,#341,#359),$);
#412=IFCPRESENTATIONLAYERASSIGNMENT('A-FLOR-____-OTLN',$,(#272,#325),$);
#413=IFCRELASSOCIATESCLASSIFICATION('15kS_ZjgS4BJTf6DYycLwo',#18,'Exterior Walls','Exterior Walls:B2010',(#145,#181,#204,#240,#361),#164);
#414=IFCRELASSOCIATESCLASSIFICATION('1VL7TcGpBQE7vI$tH8H5GI',#18,'Floor Construction','Floor Construction:B1010',(#278,#327),#313);
#415=IFCUNITASSIGNMENT((#19,#107,#276));
ENDSEC;
END-ISO-10303-21;
